<?xml version="1.0" encoding="UTF-8" standalone="no"?>
<!DOCTYPE svg PUBLIC "-//W3C//DTD SVG 1.1//EN"
 "http://www.w3.org/Graphics/SVG/1.1/DTD/svg11.dtd">
<!-- Generated by graphviz version 2.38.0 (20140413.2041)
 -->
<!-- Title: ancestry Pages: 1 -->
<svg width="474pt" height="233pt"
 viewBox="0.00 0.00 473.53 233.00" xmlns="http://www.w3.org/2000/svg" xmlns:xlink="http://www.w3.org/1999/xlink">
<g id="graph0" class="graph" transform="scale(1 1) rotate(0) translate(4 229)">
<title>ancestry</title>
<polygon fill="white" stroke="none" points="-4,4 -4,-229 469.53,-229 469.53,4 -4,4"/>
<!-- aaron -->
<g id="node1" class="node"><title>aaron</title>
<g id="a_node1"><a xlink:href="aaron.html" xlink:title="Aaron" target="_top">
<ellipse fill="lightblue" stroke="blue" stroke-width="2" cx="166.53" cy="-120" rx="32.4942" ry="18"/>
<text text-anchor="middle" x="166.53" y="-116.3" font-family="Times,serif" font-size="14.00">Aaron</text>
</a>
</g>
</g>
<!-- abihu -->
<g id="node2" class="node"><title>abihu</title>
<g id="a_node2"><a xlink:href="abihu.html" xlink:title="Abihu" target="_top">
<ellipse fill="none" stroke="blue" cx="245.53" cy="-18" rx="32.4942" ry="18"/>
<text text-anchor="middle" x="245.53" y="-14.3" font-family="Times,serif" font-size="14.00">Abihu</text>
</a>
</g>
</g>
<!-- aaron&#45;&gt;abihu -->
<g id="edge1" class="edge"><title>aaron&#45;&gt;abihu</title>
<path fill="none" stroke="black" d="M169.315,-102C172.329,-87.914 178.294,-68.0051 189.53,-54 195.59,-46.4478 203.745,-40.0694 211.955,-34.9122"/>
<polygon fill="black" stroke="black" points="213.888,-37.8375 220.788,-29.7977 210.38,-31.7797 213.888,-37.8375"/>
<text text-anchor="middle" x="211.03" y="-65.3" font-family="Times,serif" font-size="14.00">Ex 6:23</text>
</g>
<!-- eleazar -->
<g id="node4" class="node"><title>eleazar</title>
<g id="a_node4"><a xlink:href="eleazar.html" xlink:title="Eleazar" target="_top">
<ellipse fill="none" stroke="blue" cx="153.53" cy="-18" rx="37.0935" ry="18"/>
<text text-anchor="middle" x="153.53" y="-14.3" font-family="Times,serif" font-size="14.00">Eleazar</text>
</a>
</g>
</g>
<!-- aaron&#45;&gt;eleazar -->
<g id="edge2" class="edge"><title>aaron&#45;&gt;eleazar</title>
<path fill="none" stroke="black" d="M133.953,-118.259C108.584,-115.752 74.8613,-107.768 57.5303,-84 49.6745,-73.2267 49.8856,-64.9241 57.5303,-54 59.3285,-51.4305 88.4409,-41.0174 114.138,-32.2117"/>
<polygon fill="black" stroke="black" points="115.419,-35.4731 123.756,-28.9352 113.161,-28.847 115.419,-35.4731"/>
<text text-anchor="middle" x="79.0303" y="-72.8" font-family="Times,serif" font-size="14.00">Ex 6:23</text>
<text text-anchor="middle" x="79.0303" y="-57.8" font-family="Times,serif" font-size="14.00">Ezr 7:5</text>
</g>
<!-- elisheba -->
<g id="node5" class="node"><title>elisheba</title>
<g id="a_node5"><a xlink:href="elisheba.html" xlink:title="Elisheba" target="_top">
<ellipse fill="none" stroke="red" cx="275.53" cy="-120" rx="40.8928" ry="18"/>
<text text-anchor="middle" x="275.53" y="-116.3" font-family="Times,serif" font-size="14.00">Elisheba</text>
</a>
</g>
</g>
<!-- aaron&#45;&gt;elisheba -->
<g id="edge12" class="edge"><title>aaron&#45;&gt;elisheba</title>
<path fill="none" stroke="red" d="M199.315,-120C211.026,-120 222.736,-120 234.446,-120"/>
</g>
<!-- ithamar -->
<g id="node6" class="node"><title>ithamar</title>
<g id="a_node6"><a xlink:href="ithamar.html" xlink:title="Ithamar" target="_top">
<ellipse fill="none" stroke="blue" cx="52.5303" cy="-18" rx="38.1938" ry="18"/>
<text text-anchor="middle" x="52.5303" y="-14.3" font-family="Times,serif" font-size="14.00">Ithamar</text>
</a>
</g>
</g>
<!-- aaron&#45;&gt;ithamar -->
<g id="edge3" class="edge"><title>aaron&#45;&gt;ithamar</title>
<path fill="none" stroke="black" d="M134.535,-116.689C92.2995,-112.896 21.4159,-103.71 5.5303,-84 -2.83668,-73.6187 -0.452892,-65.9155 5.5303,-54 8.65897,-47.7693 13.4807,-42.3662 18.8649,-37.7943"/>
<polygon fill="black" stroke="black" points="21.113,-40.4836 27.024,-31.6909 16.92,-34.8783 21.113,-40.4836"/>
<text text-anchor="middle" x="27.0303" y="-65.3" font-family="Times,serif" font-size="14.00">Ex 6:23</text>
</g>
<!-- nadab -->
<g id="node8" class="node"><title>nadab</title>
<g id="a_node8"><a xlink:href="nadab.html" xlink:title="Nadab" target="_top">
<ellipse fill="none" stroke="blue" cx="386.53" cy="-18" rx="33.5952" ry="18"/>
<text text-anchor="middle" x="386.53" y="-14.3" font-family="Times,serif" font-size="14.00">Nadab</text>
</a>
</g>
</g>
<!-- aaron&#45;&gt;nadab -->
<g id="edge4" class="edge"><title>aaron&#45;&gt;nadab</title>
<path fill="none" stroke="black" d="M194.678,-110.649C204.426,-107.821 215.438,-104.697 225.53,-102 257.814,-93.3724 271.411,-103.524 298.53,-84 311.339,-74.7787 305.852,-64.6166 317.53,-54 326.926,-45.4586 338.791,-38.4528 350.021,-33.0132"/>
<polygon fill="black" stroke="black" points="351.588,-36.1452 359.236,-28.813 348.685,-29.7755 351.588,-36.1452"/>
<text text-anchor="middle" x="339.03" y="-65.3" font-family="Times,serif" font-size="14.00">Ex 6:23</text>
</g>
<!-- amram -->
<g id="node3" class="node"><title>amram</title>
<g id="a_node3"><a xlink:href="amram.html" xlink:title="Amram" target="_top">
<ellipse fill="none" stroke="blue" cx="120.53" cy="-207" rx="38.1938" ry="18"/>
<text text-anchor="middle" x="120.53" y="-203.3" font-family="Times,serif" font-size="14.00">Amram</text>
</a>
</g>
</g>
<!-- amram&#45;&gt;aaron -->
<g id="edge5" class="edge"><title>amram&#45;&gt;aaron</title>
<path fill="none" stroke="black" d="M129.618,-189.207C136.213,-177.021 145.253,-160.318 152.735,-146.491"/>
<polygon fill="black" stroke="black" points="155.936,-147.93 157.618,-137.469 149.78,-144.598 155.936,-147.93"/>
<text text-anchor="middle" x="168.03" y="-159.8" font-family="Times,serif" font-size="14.00">Ex 6:20</text>
</g>
<!-- jochebed -->
<g id="node7" class="node"><title>jochebed</title>
<g id="a_node7"><a xlink:href="jochebed.html" xlink:title="Jochebed" target="_top">
<ellipse fill="none" stroke="red" cx="237.53" cy="-207" rx="43.5923" ry="18"/>
<text text-anchor="middle" x="237.53" y="-203.3" font-family="Times,serif" font-size="14.00">Jochebed</text>
</a>
</g>
</g>
<!-- amram&#45;&gt;jochebed -->
<g id="edge11" class="edge"><title>amram&#45;&gt;jochebed</title>
<path fill="none" stroke="red" d="M158.921,-207C170.59,-207 182.258,-207 193.927,-207"/>
</g>
<!-- elisheba&#45;&gt;abihu -->
<g id="edge6" class="edge"><title>elisheba&#45;&gt;abihu</title>
<path fill="none" stroke="black" d="M314.24,-113.917C332.717,-109.33 353.219,-100.603 364.53,-84 372.037,-72.9809 372.518,-64.6757 364.53,-54 355.026,-41.2972 317.041,-31.6224 286.508,-25.6981"/>
<polygon fill="black" stroke="black" points="286.963,-22.2227 276.492,-23.8338 285.682,-29.1045 286.963,-22.2227"/>
<text text-anchor="middle" x="392.03" y="-65.3" font-family="Times,serif" font-size="14.00">Ex 6:23</text>
</g>
<!-- elisheba&#45;&gt;eleazar -->
<g id="edge7" class="edge"><title>elisheba&#45;&gt;eleazar</title>
<path fill="none" stroke="black" d="M265.963,-102.316C256.082,-85.5236 240.952,-61.1184 232.53,-54 221.283,-44.4936 207.044,-37.1312 193.762,-31.6664"/>
<polygon fill="black" stroke="black" points="194.906,-28.3563 184.317,-28.0191 192.385,-34.8864 194.906,-28.3563"/>
<text text-anchor="middle" x="276.03" y="-65.3" font-family="Times,serif" font-size="14.00">Ex 6:23</text>
</g>
<!-- elisheba&#45;&gt;ithamar -->
<g id="edge8" class="edge"><title>elisheba&#45;&gt;ithamar</title>
<path fill="none" stroke="black" d="M240.976,-110.193C230.269,-107.51 218.423,-104.587 207.53,-102 172.072,-93.5799 158.981,-102.413 127.53,-84 112.05,-74.9371 113.849,-66.0159 100.53,-54 94.8445,-48.8705 88.419,-43.7722 82.1612,-39.1185"/>
<polygon fill="black" stroke="black" points="83.9718,-36.1087 73.817,-33.087 79.8711,-41.7818 83.9718,-36.1087"/>
<text text-anchor="middle" x="149.03" y="-65.3" font-family="Times,serif" font-size="14.00">Ex 6:23</text>
</g>
<!-- elisheba&#45;&gt;nadab -->
<g id="edge9" class="edge"><title>elisheba&#45;&gt;nadab</title>
<path fill="none" stroke="black" d="M314.824,-114.718C352.339,-109.725 404.964,-100.04 417.53,-84 425.753,-73.5042 422.258,-66.4672 417.53,-54 415.866,-49.6121 413.373,-45.4211 410.51,-41.5618"/>
<polygon fill="black" stroke="black" points="412.97,-39.0519 403.829,-33.6954 407.635,-43.5832 412.97,-39.0519"/>
<text text-anchor="middle" x="444.03" y="-65.3" font-family="Times,serif" font-size="14.00">Ex 6:23</text>
</g>
<!-- jochebed&#45;&gt;aaron -->
<g id="edge10" class="edge"><title>jochebed&#45;&gt;aaron</title>
<path fill="none" stroke="black" d="M223.841,-189.611C213.196,-176.868 198.28,-159.01 186.334,-144.708"/>
<polygon fill="black" stroke="black" points="188.795,-142.195 179.698,-136.764 183.422,-146.682 188.795,-142.195"/>
<text text-anchor="middle" x="228.03" y="-159.8" font-family="Times,serif" font-size="14.00">Ex 6:20</text>
</g>
</g>
</svg>
