<?xml version="1.0" encoding="UTF-8" standalone="no"?>
<!DOCTYPE svg PUBLIC "-//W3C//DTD SVG 1.1//EN"
 "http://www.w3.org/Graphics/SVG/1.1/DTD/svg11.dtd">
<!-- Generated by graphviz version 2.38.0 (20140413.2041)
 -->
<!-- Title: ancestry Pages: 1 -->
<svg width="162pt" height="131pt"
 viewBox="0.00 0.00 162.50 131.00" xmlns="http://www.w3.org/2000/svg" xmlns:xlink="http://www.w3.org/1999/xlink">
<g id="graph0" class="graph" transform="scale(1 1) rotate(0) translate(4 127)">
<title>ancestry</title>
<polygon fill="white" stroke="none" points="-4,4 -4,-127 158.497,-127 158.497,4 -4,4"/>
<!-- abel -->
<g id="node1" class="node"><title>abel</title>
<g id="a_node1"><a xlink:href="abel.html" xlink:title="Abel" target="_top">
<ellipse fill="lightblue" stroke="blue" stroke-width="2" cx="72.4971" cy="-18" rx="27.8951" ry="18"/>
<text text-anchor="middle" x="72.4971" y="-14.3" font-family="Times,serif" font-size="14.00">Abel</text>
</a>
</g>
</g>
<!-- adam -->
<g id="node2" class="node"><title>adam</title>
<g id="a_node2"><a xlink:href="adam.html" xlink:title="Adam" target="_top">
<ellipse fill="none" stroke="blue" cx="32.4971" cy="-105" rx="32.4942" ry="18"/>
<text text-anchor="middle" x="32.4971" y="-101.3" font-family="Times,serif" font-size="14.00">Adam</text>
</a>
</g>
</g>
<!-- adam&#45;&gt;abel -->
<g id="edge1" class="edge"><title>adam&#45;&gt;abel</title>
<path fill="none" stroke="black" d="M39.5801,-87.2186C43.7744,-77.4582 49.2744,-64.9582 54.4971,-54 56.0129,-50.8196 57.6484,-47.5004 59.2937,-44.2274"/>
<polygon fill="black" stroke="black" points="62.4325,-45.7766 63.866,-35.2792 56.1992,-42.5915 62.4325,-45.7766"/>
<text text-anchor="middle" x="76.4971" y="-57.8" font-family="Times,serif" font-size="14.00">Gen 4:2</text>
</g>
<!-- eve -->
<g id="node3" class="node"><title>eve</title>
<g id="a_node3"><a xlink:href="eve.html" xlink:title="Eve" target="_top">
<ellipse fill="none" stroke="red" cx="127.497" cy="-105" rx="27" ry="18"/>
<text text-anchor="middle" x="127.497" y="-101.3" font-family="Times,serif" font-size="14.00">Eve</text>
</a>
</g>
</g>
<!-- adam&#45;&gt;eve -->
<g id="edge3" class="edge"><title>adam&#45;&gt;eve</title>
<path fill="none" stroke="red" d="M65.1534,-105C76.8428,-105 88.5323,-105 100.222,-105"/>
</g>
<!-- eve&#45;&gt;abel -->
<g id="edge2" class="edge"><title>eve&#45;&gt;abel</title>
<path fill="none" stroke="black" d="M118.55,-87.5045C113.037,-77.6194 105.671,-64.8959 98.4971,-54 96.062,-50.3015 93.3822,-46.4656 90.6965,-42.7483"/>
<polygon fill="black" stroke="black" points="93.2914,-40.3706 84.5321,-34.4102 87.6626,-44.532 93.2914,-40.3706"/>
<text text-anchor="middle" x="130.497" y="-57.8" font-family="Times,serif" font-size="14.00">Gen 4:2</text>
</g>
</g>
</svg>
