<?xml version="1.0" encoding="UTF-8" standalone="no"?>
<!DOCTYPE svg PUBLIC "-//W3C//DTD SVG 1.1//EN"
 "http://www.w3.org/Graphics/SVG/1.1/DTD/svg11.dtd">
<!-- Generated by graphviz version 2.38.0 (20140413.2041)
 -->
<!-- Title: ancestry Pages: 1 -->
<svg width="100pt" height="218pt"
 viewBox="0.00 0.00 100.05 218.00" xmlns="http://www.w3.org/2000/svg" xmlns:xlink="http://www.w3.org/1999/xlink">
<g id="graph0" class="graph" transform="scale(1 1) rotate(0) translate(4 214)">
<title>ancestry</title>
<polygon fill="white" stroke="none" points="-4,4 -4,-214 96.0467,-214 96.0467,4 -4,4"/>
<!-- abigail -->
<g id="node1" class="node"><title>abigail</title>
<g id="a_node1"><a xlink:href="abigail.html" xlink:title="Abigail" target="_top">
<ellipse fill="lightpink" stroke="red" stroke-width="2" cx="37.0467" cy="-105" rx="37.0935" ry="18"/>
<text text-anchor="middle" x="37.0467" y="-101.3" font-family="Times,serif" font-size="14.00">Abigail</text>
</a>
</g>
</g>
<!-- amasa -->
<g id="node2" class="node"><title>amasa</title>
<g id="a_node2"><a xlink:href="amasa.html" xlink:title="Amasa" target="_top">
<ellipse fill="none" stroke="blue" cx="37.0467" cy="-18" rx="35.9954" ry="18"/>
<text text-anchor="middle" x="37.0467" y="-14.3" font-family="Times,serif" font-size="14.00">Amasa</text>
</a>
</g>
</g>
<!-- abigail&#45;&gt;amasa -->
<g id="edge1" class="edge"><title>abigail&#45;&gt;amasa</title>
<path fill="none" stroke="black" d="M37.0467,-86.799C37.0467,-75.1626 37.0467,-59.5479 37.0467,-46.2368"/>
<polygon fill="black" stroke="black" points="40.5468,-46.1754 37.0467,-36.1754 33.5468,-46.1755 40.5468,-46.1754"/>
<text text-anchor="middle" x="64.5467" y="-57.8" font-family="Times,serif" font-size="14.00">1 Ch 2:17</text>
</g>
<!-- jesse -->
<g id="node3" class="node"><title>jesse</title>
<g id="a_node3"><a xlink:href="jesse.html" xlink:title="Jesse" target="_top">
<ellipse fill="none" stroke="blue" cx="37.0467" cy="-192" rx="28.6953" ry="18"/>
<text text-anchor="middle" x="37.0467" y="-188.3" font-family="Times,serif" font-size="14.00">Jesse</text>
</a>
</g>
</g>
<!-- jesse&#45;&gt;abigail -->
<g id="edge2" class="edge"><title>jesse&#45;&gt;abigail</title>
<path fill="none" stroke="black" d="M37.0467,-173.799C37.0467,-162.163 37.0467,-146.548 37.0467,-133.237"/>
<polygon fill="black" stroke="black" points="40.5468,-133.175 37.0467,-123.175 33.5468,-133.175 40.5468,-133.175"/>
<text text-anchor="middle" x="64.5467" y="-144.8" font-family="Times,serif" font-size="14.00">1 Ch 2:16</text>
</g>
</g>
</svg>
