<?xml version="1.0" encoding="UTF-8" standalone="no"?>
<!DOCTYPE svg PUBLIC "-//W3C//DTD SVG 1.1//EN"
 "http://www.w3.org/Graphics/SVG/1.1/DTD/svg11.dtd">
<!-- Generated by graphviz version 2.38.0 (20140413.2041)
 -->
<!-- Title: ancestry Pages: 1 -->
<svg width="168pt" height="131pt"
 viewBox="0.00 0.00 168.45 131.00" xmlns="http://www.w3.org/2000/svg" xmlns:xlink="http://www.w3.org/1999/xlink">
<g id="graph0" class="graph" transform="scale(1 1) rotate(0) translate(4 127)">
<title>ancestry</title>
<polygon fill="white" stroke="none" points="-4,4 -4,-127 164.447,-127 164.447,4 -4,4"/>
<!-- abihail -->
<g id="node1" class="node"><title>abihail</title>
<g id="a_node1"><a xlink:href="abihail.html" xlink:title="Abihail" target="_top">
<ellipse fill="lightpink" stroke="red" stroke-width="2" cx="76.4469" cy="-105" rx="37.0935" ry="18"/>
<text text-anchor="middle" x="76.4469" y="-101.3" font-family="Times,serif" font-size="14.00">Abihail</text>
</a>
</g>
</g>
<!-- ahban -->
<g id="node2" class="node"><title>ahban</title>
<g id="a_node2"><a xlink:href="ahban.html" xlink:title="Ahban" target="_top">
<ellipse fill="none" stroke="blue" cx="34.4469" cy="-18" rx="34.394" ry="18"/>
<text text-anchor="middle" x="34.4469" y="-14.3" font-family="Times,serif" font-size="14.00">Ahban</text>
</a>
</g>
</g>
<!-- abihail&#45;&gt;ahban -->
<g id="edge1" class="edge"><title>abihail&#45;&gt;ahban</title>
<path fill="none" stroke="black" d="M58.1878,-89.2856C52.2627,-83.5699 46.2441,-76.5728 42.4469,-69 38.9794,-62.0846 36.9505,-54.0153 35.7809,-46.4026"/>
<polygon fill="black" stroke="black" points="39.2581,-46.003 34.6642,-36.4559 32.3018,-46.784 39.2581,-46.003"/>
<text text-anchor="middle" x="69.9469" y="-57.8" font-family="Times,serif" font-size="14.00">1 Ch 2:29</text>
</g>
<!-- molid -->
<g id="node3" class="node"><title>molid</title>
<g id="a_node3"><a xlink:href="molid.html" xlink:title="Molid" target="_top">
<ellipse fill="none" stroke="blue" cx="119.447" cy="-18" rx="32.4942" ry="18"/>
<text text-anchor="middle" x="119.447" y="-14.3" font-family="Times,serif" font-size="14.00">Molid</text>
</a>
</g>
</g>
<!-- abihail&#45;&gt;molid -->
<g id="edge2" class="edge"><title>abihail&#45;&gt;molid</title>
<path fill="none" stroke="black" d="M86.924,-87.5087C90.4304,-81.7425 94.2558,-75.1679 97.4469,-69 101.369,-61.4192 105.253,-52.9889 108.64,-45.2433"/>
<polygon fill="black" stroke="black" points="111.916,-46.4846 112.631,-35.9139 105.48,-43.7315 111.916,-46.4846"/>
<text text-anchor="middle" x="132.947" y="-57.8" font-family="Times,serif" font-size="14.00">1 Ch 2:29</text>
</g>
</g>
</svg>
