<?xml version="1.0" encoding="UTF-8" standalone="no"?>
<!DOCTYPE svg PUBLIC "-//W3C//DTD SVG 1.1//EN"
 "http://www.w3.org/Graphics/SVG/1.1/DTD/svg11.dtd">
<!-- Generated by graphviz version 2.38.0 (20140413.2041)
 -->
<!-- Title: ancestry Pages: 1 -->
<svg width="1167pt" height="263pt"
 viewBox="0.00 0.00 1167.08 263.00" xmlns="http://www.w3.org/2000/svg" xmlns:xlink="http://www.w3.org/1999/xlink">
<g id="graph0" class="graph" transform="scale(1 1) rotate(0) translate(4 259)">
<title>ancestry</title>
<polygon fill="white" stroke="none" points="-4,4 -4,-259 1163.08,-259 1163.08,4 -4,4"/>
<!-- abram -->
<g id="node1" class="node"><title>abram</title>
<g id="a_node1"><a xlink:href="abram.html" xlink:title="Abraham (was Abram)" target="_top">
<ellipse fill="lightblue" stroke="blue" stroke-width="2" cx="469.08" cy="-135" rx="92.8835" ry="18"/>
<text text-anchor="middle" x="469.08" y="-131.3" font-family="Times,serif" font-size="14.00">Abraham (was Abram)</text>
</a>
</g>
</g>
<!-- hagar -->
<g id="node2" class="node"><title>hagar</title>
<g id="a_node2"><a xlink:href="hagar.html" xlink:title="Hagar" target="_top">
<ellipse fill="none" stroke="red" cx="1025.08" cy="-135" rx="32.4942" ry="18"/>
<text text-anchor="middle" x="1025.08" y="-131.3" font-family="Times,serif" font-size="14.00">Hagar</text>
</a>
</g>
</g>
<!-- abram&#45;&gt;hagar -->
<g id="edge20" class="edge"><title>abram&#45;&gt;hagar</title>
<path fill="none" stroke="red" d="M501.454,-151.89C526.728,-164.077 563.133,-179.486 597.08,-186 702.709,-206.268 732.486,-200.349 839.08,-186 896.821,-178.227 961.998,-157.46 997.827,-144.953"/>
</g>
<!-- isaac -->
<g id="node3" class="node"><title>isaac</title>
<g id="a_node3"><a xlink:href="isaac.html" xlink:title="Isaac" target="_top">
<ellipse fill="none" stroke="blue" cx="881.08" cy="-18" rx="28.6953" ry="18"/>
<text text-anchor="middle" x="881.08" y="-14.3" font-family="Times,serif" font-size="14.00">Isaac</text>
</a>
</g>
</g>
<!-- abram&#45;&gt;isaac -->
<g id="edge1" class="edge"><title>abram&#45;&gt;isaac</title>
<path fill="none" stroke="black" d="M540.112,-123.279C555.886,-121.058 572.536,-118.838 588.08,-117 630.637,-111.968 743.455,-121.249 780.08,-99 800.415,-86.6467 791.277,-69.7854 809.08,-54 819.936,-44.3742 833.911,-36.7789 846.655,-31.1587"/>
<polygon fill="black" stroke="black" points="848.194,-34.3098 856.09,-27.245 845.512,-27.844 848.194,-34.3098"/>
<text text-anchor="middle" x="834.58" y="-87.8" font-family="Times,serif" font-size="14.00">Gen 21:2</text>
<text text-anchor="middle" x="834.58" y="-72.8" font-family="Times,serif" font-size="14.00">Luk 3:34</text>
<text text-anchor="middle" x="834.58" y="-57.8" font-family="Times,serif" font-size="14.00">Mat 1:2</text>
</g>
<!-- ishbak -->
<g id="node4" class="node"><title>ishbak</title>
<g id="a_node4"><a xlink:href="ishbak.html" xlink:title="Ishbak" target="_top">
<ellipse fill="none" stroke="blue" cx="282.08" cy="-18" rx="34.394" ry="18"/>
<text text-anchor="middle" x="282.08" y="-14.3" font-family="Times,serif" font-size="14.00">Ishbak</text>
</a>
</g>
</g>
<!-- abram&#45;&gt;ishbak -->
<g id="edge2" class="edge"><title>abram&#45;&gt;ishbak</title>
<path fill="none" stroke="black" d="M376.405,-133.181C314.636,-130.438 241.221,-122.182 221.08,-99 207.963,-83.902 211.057,-71.307 221.08,-54 226.358,-44.8871 235.003,-37.9418 244.148,-32.738"/>
<polygon fill="black" stroke="black" points="245.999,-35.7249 253.354,-28.0989 242.849,-29.4738 245.999,-35.7249"/>
<text text-anchor="middle" x="246.58" y="-72.8" font-family="Times,serif" font-size="14.00">Gen 25:2</text>
</g>
<!-- ishmael -->
<g id="node5" class="node"><title>ishmael</title>
<g id="a_node5"><a xlink:href="ishmael.html" xlink:title="Ishmael" target="_top">
<ellipse fill="none" stroke="blue" cx="1037.08" cy="-18" rx="38.9931" ry="18"/>
<text text-anchor="middle" x="1037.08" y="-14.3" font-family="Times,serif" font-size="14.00">Ishmael</text>
</a>
</g>
</g>
<!-- abram&#45;&gt;ishmael -->
<g id="edge3" class="edge"><title>abram&#45;&gt;ishmael</title>
<path fill="none" stroke="black" d="M538.487,-123.023C554.726,-120.75 571.983,-118.572 588.08,-117 625.842,-113.313 896.411,-118.294 929.08,-99 949.363,-87.0215 939.267,-69.4132 957.08,-54 968.058,-44.5011 982.016,-37.2114 995.19,-31.8071"/>
<polygon fill="black" stroke="black" points="996.507,-35.0506 1004.59,-28.2006 993.999,-28.5151 996.507,-35.0506"/>
<text text-anchor="middle" x="986.08" y="-72.8" font-family="Times,serif" font-size="14.00">Gen 16:15</text>
</g>
<!-- jokshan -->
<g id="node6" class="node"><title>jokshan</title>
<g id="a_node6"><a xlink:href="jokshan.html" xlink:title="Jokshan" target="_top">
<ellipse fill="none" stroke="blue" cx="182.08" cy="-18" rx="38.9931" ry="18"/>
<text text-anchor="middle" x="182.08" y="-14.3" font-family="Times,serif" font-size="14.00">Jokshan</text>
</a>
</g>
</g>
<!-- abram&#45;&gt;jokshan -->
<g id="edge4" class="edge"><title>abram&#45;&gt;jokshan</title>
<path fill="none" stroke="black" d="M377.069,-132.278C266.494,-129.237 93.2078,-120.985 73.0801,-99 59.5749,-84.2485 61.2965,-70.16 73.0801,-54 77.2309,-48.3077 110.219,-38.1848 138.828,-30.285"/>
<polygon fill="black" stroke="black" points="139.981,-33.5985 148.71,-27.5944 138.142,-26.8444 139.981,-33.5985"/>
<text text-anchor="middle" x="98.5801" y="-72.8" font-family="Times,serif" font-size="14.00">Gen 25:2</text>
</g>
<!-- keturah -->
<g id="node7" class="node"><title>keturah</title>
<g id="a_node7"><a xlink:href="keturah.html" xlink:title="Keturah" target="_top">
<ellipse fill="none" stroke="red" cx="636.08" cy="-135" rx="38.9931" ry="18"/>
<text text-anchor="middle" x="636.08" y="-131.3" font-family="Times,serif" font-size="14.00">Keturah</text>
</a>
</g>
</g>
<!-- abram&#45;&gt;keturah -->
<g id="edge21" class="edge"><title>abram&#45;&gt;keturah</title>
<path fill="none" stroke="red" d="M562.039,-135C573.704,-135 585.37,-135 597.035,-135"/>
</g>
<!-- medan -->
<g id="node8" class="node"><title>medan</title>
<g id="a_node8"><a xlink:href="medan.html" xlink:title="Medan" target="_top">
<ellipse fill="none" stroke="blue" cx="577.08" cy="-18" rx="35.9954" ry="18"/>
<text text-anchor="middle" x="577.08" y="-14.3" font-family="Times,serif" font-size="14.00">Medan</text>
</a>
</g>
</g>
<!-- abram&#45;&gt;medan -->
<g id="edge5" class="edge"><title>abram&#45;&gt;medan</title>
<path fill="none" stroke="black" d="M482.062,-116.896C486.094,-111.309 490.433,-104.997 494.08,-99 505.751,-79.809 501.645,-70.3174 517.08,-54 524.03,-46.6525 532.866,-40.3627 541.606,-35.2263"/>
<polygon fill="black" stroke="black" points="543.512,-38.1729 550.597,-30.295 540.146,-32.0355 543.512,-38.1729"/>
<text text-anchor="middle" x="542.58" y="-72.8" font-family="Times,serif" font-size="14.00">Gen 25:2</text>
</g>
<!-- midian -->
<g id="node9" class="node"><title>midian</title>
<g id="a_node9"><a xlink:href="midian.html" xlink:title="Midian" target="_top">
<ellipse fill="none" stroke="blue" cx="70.0801" cy="-18" rx="36.2938" ry="18"/>
<text text-anchor="middle" x="70.0801" y="-14.3" font-family="Times,serif" font-size="14.00">Midian</text>
</a>
</g>
</g>
<!-- abram&#45;&gt;midian -->
<g id="edge6" class="edge"><title>abram&#45;&gt;midian</title>
<path fill="none" stroke="black" d="M376.412,-133.547C249.235,-131.944 33.4773,-125.324 9.08013,-99 -4.51496,-84.3312 -0.943152,-71.307 9.08013,-54 14.2201,-45.1248 22.5546,-38.3057 31.4338,-33.1488"/>
<polygon fill="black" stroke="black" points="33.1097,-36.2227 40.3965,-28.5315 29.9039,-29.9999 33.1097,-36.2227"/>
<text text-anchor="middle" x="34.5801" y="-72.8" font-family="Times,serif" font-size="14.00">Gen 25:2</text>
</g>
<!-- sarai -->
<g id="node10" class="node"><title>sarai</title>
<g id="a_node10"><a xlink:href="sarai.html" xlink:title="Sarah (was Sarai)" target="_top">
<ellipse fill="none" stroke="red" cx="766.08" cy="-135" rx="73.387" ry="18"/>
<text text-anchor="middle" x="766.08" y="-131.3" font-family="Times,serif" font-size="14.00">Sarah (was Sarai)</text>
</a>
</g>
</g>
<!-- abram&#45;&gt;sarai -->
<g id="edge19" class="edge"><title>abram&#45;&gt;sarai</title>
<path fill="none" stroke="red" d="M499.508,-152.155C539.758,-172.646 612.874,-202.243 675.08,-186 700.138,-179.457 725.596,-164.31 743.188,-152.214"/>
</g>
<!-- shuah -->
<g id="node11" class="node"><title>shuah</title>
<g id="a_node11"><a xlink:href="shuah.html" xlink:title="Shuah" target="_top">
<ellipse fill="none" stroke="blue" cx="429.08" cy="-18" rx="32.4942" ry="18"/>
<text text-anchor="middle" x="429.08" y="-14.3" font-family="Times,serif" font-size="14.00">Shuah</text>
</a>
</g>
</g>
<!-- abram&#45;&gt;shuah -->
<g id="edge7" class="edge"><title>abram&#45;&gt;shuah</title>
<path fill="none" stroke="black" d="M400.748,-122.703C388.32,-117.503 376.85,-109.951 369.08,-99 357.507,-82.6883 359.119,-71.3428 369.08,-54 374.451,-44.649 383.391,-37.5602 392.75,-32.2941"/>
<polygon fill="black" stroke="black" points="394.374,-35.3953 401.75,-27.7894 391.241,-29.1356 394.374,-35.3953"/>
<text text-anchor="middle" x="394.58" y="-72.8" font-family="Times,serif" font-size="14.00">Gen 25:2</text>
</g>
<!-- zimran -->
<g id="node13" class="node"><title>zimran</title>
<g id="a_node13"><a xlink:href="zimran.html" xlink:title="Zimran" target="_top">
<ellipse fill="none" stroke="blue" cx="730.08" cy="-18" rx="37.0935" ry="18"/>
<text text-anchor="middle" x="730.08" y="-14.3" font-family="Times,serif" font-size="14.00">Zimran</text>
</a>
</g>
</g>
<!-- abram&#45;&gt;zimran -->
<g id="edge8" class="edge"><title>abram&#45;&gt;zimran</title>
<path fill="none" stroke="black" d="M538.814,-123.055C583.18,-115.55 633.807,-105.765 642.08,-99 658.886,-85.2573 646.275,-69.8782 661.08,-54 669.299,-45.1859 680.231,-38.251 690.967,-32.9607"/>
<polygon fill="black" stroke="black" points="692.621,-36.0533 700.276,-28.7291 689.724,-29.6807 692.621,-36.0533"/>
<text text-anchor="middle" x="686.58" y="-72.8" font-family="Times,serif" font-size="14.00">Gen 25:2</text>
</g>
<!-- hagar&#45;&gt;ishmael -->
<g id="edge9" class="edge"><title>hagar&#45;&gt;ishmael</title>
<path fill="none" stroke="black" d="M1054.18,-126.765C1068.55,-121.567 1084.58,-112.942 1093.08,-99 1103.5,-81.9258 1102.78,-71.4928 1093.08,-54 1088.85,-46.3601 1082.17,-40.1677 1074.89,-35.2378"/>
<polygon fill="black" stroke="black" points="1076.54,-32.1484 1066.16,-30.0194 1072.95,-38.156 1076.54,-32.1484"/>
<text text-anchor="middle" x="1130.08" y="-72.8" font-family="Times,serif" font-size="14.00">Gen 16:15</text>
</g>
<!-- keturah&#45;&gt;ishbak -->
<g id="edge10" class="edge"><title>keturah&#45;&gt;ishbak</title>
<path fill="none" stroke="black" d="M603.856,-124.754C593.456,-121.99 581.835,-119.132 571.08,-117 542.04,-111.244 462.587,-116.997 439.08,-99 421.842,-85.8029 436.546,-68.1483 420.08,-54 405.833,-41.7581 359.856,-31.7149 324.85,-25.5749"/>
<polygon fill="black" stroke="black" points="325.29,-22.0997 314.845,-23.8724 324.116,-29.0005 325.29,-22.0997"/>
<text text-anchor="middle" x="464.58" y="-72.8" font-family="Times,serif" font-size="14.00">Gen 25:2</text>
</g>
<!-- keturah&#45;&gt;jokshan -->
<g id="edge11" class="edge"><title>keturah&#45;&gt;jokshan</title>
<path fill="none" stroke="black" d="M604.267,-124.404C593.787,-121.587 582.016,-118.785 571.08,-117 512.827,-107.491 357.998,-127.079 306.08,-99 284.031,-87.0752 292.076,-69.1166 272.08,-54 263.805,-47.7444 242.5,-39.3581 222.695,-32.3628"/>
<polygon fill="black" stroke="black" points="223.752,-29.0249 213.157,-29.0559 221.459,-35.6387 223.752,-29.0249"/>
<text text-anchor="middle" x="331.58" y="-72.8" font-family="Times,serif" font-size="14.00">Gen 25:2</text>
</g>
<!-- keturah&#45;&gt;medan -->
<g id="edge12" class="edge"><title>keturah&#45;&gt;medan</title>
<path fill="none" stroke="black" d="M665.581,-122.904C687.105,-114.511 713.031,-103.663 716.08,-99 727.027,-82.2619 728.375,-69.7745 716.08,-54 704.524,-39.1727 658.193,-29.656 622.159,-24.3461"/>
<polygon fill="black" stroke="black" points="622.222,-20.8206 611.832,-22.8955 621.248,-27.7526 622.222,-20.8206"/>
<text text-anchor="middle" x="750.58" y="-72.8" font-family="Times,serif" font-size="14.00">Gen 25:2</text>
</g>
<!-- keturah&#45;&gt;midian -->
<g id="edge13" class="edge"><title>keturah&#45;&gt;midian</title>
<path fill="none" stroke="black" d="M604.622,-124.336C594.061,-121.478 582.153,-118.67 571.08,-117 525.661,-110.15 198.744,-120.359 158.08,-99 135.888,-87.3435 142.431,-71.0757 124.08,-54 117.555,-47.9283 109.852,-42.2417 102.34,-37.29"/>
<polygon fill="black" stroke="black" points="104.015,-34.2089 93.6897,-31.8355 100.282,-40.13 104.015,-34.2089"/>
<text text-anchor="middle" x="183.58" y="-72.8" font-family="Times,serif" font-size="14.00">Gen 25:2</text>
</g>
<!-- keturah&#45;&gt;shuah -->
<g id="edge14" class="edge"><title>keturah&#45;&gt;shuah</title>
<path fill="none" stroke="black" d="M614.265,-120.024C606.298,-114.195 597.641,-106.931 591.08,-99 576.763,-81.6932 585.651,-67.9916 568.08,-54 553.02,-42.0073 505.388,-31.7259 470.058,-25.4681"/>
<polygon fill="black" stroke="black" points="470.448,-21.9837 459.999,-23.7348 469.259,-28.8821 470.448,-21.9837"/>
<text text-anchor="middle" x="616.58" y="-72.8" font-family="Times,serif" font-size="14.00">Gen 25:2</text>
</g>
<!-- keturah&#45;&gt;zimran -->
<g id="edge15" class="edge"><title>keturah&#45;&gt;zimran</title>
<path fill="none" stroke="black" d="M664.686,-122.605C670.992,-120.451 677.696,-118.428 684.08,-117 723.31,-108.226 837.106,-128.806 864.08,-99 877.5,-84.1709 876.305,-69.8286 864.08,-54 853.178,-39.8844 809.91,-30.3749 775.45,-24.8735"/>
<polygon fill="black" stroke="black" points="775.956,-21.4102 765.542,-23.3609 774.899,-28.3301 775.956,-21.4102"/>
<text text-anchor="middle" x="899.58" y="-72.8" font-family="Times,serif" font-size="14.00">Gen 25:2</text>
</g>
<!-- sarai&#45;&gt;isaac -->
<g id="edge16" class="edge"><title>sarai&#45;&gt;isaac</title>
<path fill="none" stroke="black" d="M835.67,-129.026C906.359,-123.249 1007.12,-112.729 1019.08,-99 1032.22,-83.92 1031.36,-69.7851 1019.08,-54 1006.92,-38.3754 955.948,-28.6005 919.494,-23.4723"/>
<polygon fill="black" stroke="black" points="919.55,-19.9487 909.174,-22.0883 918.62,-26.8865 919.55,-19.9487"/>
<text text-anchor="middle" x="1054.58" y="-72.8" font-family="Times,serif" font-size="14.00">Gen 21:2</text>
</g>
<!-- terah -->
<g id="node12" class="node"><title>terah</title>
<g id="a_node12"><a xlink:href="terah.html" xlink:title="Terah" target="_top">
<ellipse fill="none" stroke="blue" cx="644.08" cy="-237" rx="31.3957" ry="18"/>
<text text-anchor="middle" x="644.08" y="-233.3" font-family="Times,serif" font-size="14.00">Terah</text>
</a>
</g>
</g>
<!-- terah&#45;&gt;abram -->
<g id="edge17" class="edge"><title>terah&#45;&gt;abram</title>
<path fill="none" stroke="black" d="M622.622,-223.738C593.717,-207.221 541.824,-177.568 506.441,-157.349"/>
<polygon fill="black" stroke="black" points="507.798,-154.093 497.379,-152.171 504.325,-160.171 507.798,-154.093"/>
<text text-anchor="middle" x="612.08" y="-189.8" font-family="Times,serif" font-size="14.00">Gen 11:27</text>
<text text-anchor="middle" x="612.08" y="-174.8" font-family="Times,serif" font-size="14.00">Luk 3:34</text>
</g>
<!-- terah&#45;&gt;sarai -->
<g id="edge18" class="edge"><title>terah&#45;&gt;sarai</title>
<path fill="none" stroke="black" d="M661.301,-221.885C681.278,-205.51 714.494,-178.284 738.172,-158.876"/>
<polygon fill="black" stroke="black" points="740.596,-161.414 746.111,-152.368 736.159,-156 740.596,-161.414"/>
<text text-anchor="middle" x="753.08" y="-182.3" font-family="Times,serif" font-size="14.00">Gen 20:12</text>
</g>
</g>
</svg>
