<?xml version="1.0" encoding="UTF-8" standalone="no"?>
<!DOCTYPE svg PUBLIC "-//W3C//DTD SVG 1.1//EN"
 "http://www.w3.org/Graphics/SVG/1.1/DTD/svg11.dtd">
<!-- Generated by graphviz version 2.38.0 (20140413.2041)
 -->
<!-- Title: ancestry Pages: 1 -->
<svg width="263pt" height="131pt"
 viewBox="0.00 0.00 263.41 131.00" xmlns="http://www.w3.org/2000/svg" xmlns:xlink="http://www.w3.org/1999/xlink">
<g id="graph0" class="graph" transform="scale(1 1) rotate(0) translate(4 127)">
<title>ancestry</title>
<polygon fill="white" stroke="none" points="-4,4 -4,-127 259.41,-127 259.41,4 -4,4"/>
<!-- adah -->
<g id="node1" class="node"><title>adah</title>
<g id="a_node1"><a xlink:href="adah.html" xlink:title="Adah" target="_top">
<ellipse fill="lightpink" stroke="red" stroke-width="2" cx="164.41" cy="-105" rx="29.795" ry="18"/>
<text text-anchor="middle" x="164.41" y="-101.3" font-family="Times,serif" font-size="14.00">Adah</text>
</a>
</g>
</g>
<!-- jabal -->
<g id="node2" class="node"><title>jabal</title>
<g id="a_node2"><a xlink:href="jabal.html" xlink:title="Jabal" target="_top">
<ellipse fill="none" stroke="blue" cx="37.4098" cy="-18" rx="28.6953" ry="18"/>
<text text-anchor="middle" x="37.4098" y="-14.3" font-family="Times,serif" font-size="14.00">Jabal</text>
</a>
</g>
</g>
<!-- adah&#45;&gt;jabal -->
<g id="edge1" class="edge"><title>adah&#45;&gt;jabal</title>
<path fill="none" stroke="black" d="M155.622,-87.6896C149.079,-76.8688 139.252,-63.0461 127.41,-54 111.595,-41.9199 91.0963,-33.5174 73.6573,-27.9793"/>
<polygon fill="black" stroke="black" points="74.3847,-24.5441 63.8017,-25.0434 72.3862,-31.2527 74.3847,-24.5441"/>
<text text-anchor="middle" x="167.91" y="-57.8" font-family="Times,serif" font-size="14.00">Gen 4:20</text>
</g>
<!-- jubal -->
<g id="node3" class="node"><title>jubal</title>
<g id="a_node3"><a xlink:href="jubal.html" xlink:title="Jubal" target="_top">
<ellipse fill="none" stroke="blue" cx="186.41" cy="-18" rx="29.4969" ry="18"/>
<text text-anchor="middle" x="186.41" y="-14.3" font-family="Times,serif" font-size="14.00">Jubal</text>
</a>
</g>
</g>
<!-- adah&#45;&gt;jubal -->
<g id="edge2" class="edge"><title>adah&#45;&gt;jubal</title>
<path fill="none" stroke="black" d="M183.815,-90.8994C190.722,-85.089 197.703,-77.6087 201.41,-69 204.773,-61.1885 203.655,-52.3851 200.889,-44.3667"/>
<polygon fill="black" stroke="black" points="204.064,-42.8899 196.888,-35.0948 197.637,-45.6632 204.064,-42.8899"/>
<text text-anchor="middle" x="229.91" y="-57.8" font-family="Times,serif" font-size="14.00">Gen 4:21</text>
</g>
<!-- mehujaels_lamech -->
<g id="node4" class="node"><title>mehujaels_lamech</title>
<g id="a_node4"><a xlink:href="mehujaels_lamech.html" xlink:title="Lamech" target="_top">
<ellipse fill="none" stroke="blue" cx="59.4098" cy="-105" rx="39.7935" ry="18"/>
<text text-anchor="middle" x="59.4098" y="-101.3" font-family="Times,serif" font-size="14.00">Lamech</text>
</a>
</g>
</g>
<!-- mehujaels_lamech&#45;&gt;adah -->
<g id="edge5" class="edge"><title>mehujaels_lamech&#45;&gt;adah</title>
<path fill="none" stroke="red" d="M99.1949,-105C110.913,-105 122.632,-105 134.35,-105"/>
</g>
<!-- mehujaels_lamech&#45;&gt;jabal -->
<g id="edge3" class="edge"><title>mehujaels_lamech&#45;&gt;jabal</title>
<path fill="none" stroke="black" d="M29.5243,-92.9406C19.0215,-87.4412 8.36283,-79.6411 2.40978,-69 -3.32931,-58.7413 2.47838,-47.9842 10.903,-39.0872"/>
<polygon fill="black" stroke="black" points="13.4686,-41.4806 18.3992,-32.103 8.69679,-36.359 13.4686,-41.4806"/>
<text text-anchor="middle" x="27.9098" y="-57.8" font-family="Times,serif" font-size="14.00">Gen 4:20</text>
</g>
<!-- mehujaels_lamech&#45;&gt;jubal -->
<g id="edge4" class="edge"><title>mehujaels_lamech&#45;&gt;jubal</title>
<path fill="none" stroke="black" d="M59.7901,-86.6714C60.926,-75.9738 64.0982,-62.6814 72.4098,-54 91.7654,-33.7833 122.469,-25.1583 147.138,-21.52"/>
<polygon fill="black" stroke="black" points="147.803,-24.9641 157.29,-20.2469 146.932,-18.0185 147.803,-24.9641"/>
<text text-anchor="middle" x="97.9098" y="-57.8" font-family="Times,serif" font-size="14.00">Gen 4:21</text>
</g>
</g>
</svg>
