<?xml version="1.0" encoding="UTF-8" standalone="no"?>
<!DOCTYPE svg PUBLIC "-//W3C//DTD SVG 1.1//EN"
 "http://www.w3.org/Graphics/SVG/1.1/DTD/svg11.dtd">
<!-- Generated by graphviz version 2.38.0 (20140413.2041)
 -->
<!-- Title: ancestry Pages: 1 -->
<svg width="393pt" height="248pt"
 viewBox="0.00 0.00 393.38 248.00" xmlns="http://www.w3.org/2000/svg" xmlns:xlink="http://www.w3.org/1999/xlink">
<g id="graph0" class="graph" transform="scale(1 1) rotate(0) translate(4 244)">
<title>ancestry</title>
<polygon fill="white" stroke="none" points="-4,4 -4,-244 389.376,-244 389.376,4 -4,4"/>
<!-- abel -->
<g id="node1" class="node"><title>abel</title>
<g id="a_node1"><a xlink:href="abel.html" xlink:title="Abel" target="_top">
<ellipse fill="none" stroke="blue" cx="85.376" cy="-18" rx="27.8951" ry="18"/>
<text text-anchor="middle" x="85.376" y="-14.3" font-family="Times,serif" font-size="14.00">Abel</text>
</a>
</g>
</g>
<!-- adam -->
<g id="node2" class="node"><title>adam</title>
<g id="a_node2"><a xlink:href="adam.html" xlink:title="Adam" target="_top">
<ellipse fill="lightblue" stroke="blue" stroke-width="2" cx="102.376" cy="-135" rx="32.4942" ry="18"/>
<text text-anchor="middle" x="102.376" y="-131.3" font-family="Times,serif" font-size="14.00">Adam</text>
</a>
</g>
</g>
<!-- adam&#45;&gt;abel -->
<g id="edge1" class="edge"><title>adam&#45;&gt;abel</title>
<path fill="none" stroke="black" d="M70.534,-131.287C49.0946,-127.612 22.2859,-119.022 8.376,-99 -3.03507,-82.5748 -2.45171,-70.8155 8.376,-54 17.4407,-39.9225 33.7061,-31.4419 48.9595,-26.3652"/>
<polygon fill="black" stroke="black" points="50.1389,-29.6668 58.7511,-23.496 48.1704,-22.9493 50.1389,-29.6668"/>
<text text-anchor="middle" x="30.376" y="-72.8" font-family="Times,serif" font-size="14.00">Gen 4:2</text>
</g>
<!-- cain -->
<g id="node3" class="node"><title>cain</title>
<g id="a_node3"><a xlink:href="cain.html" xlink:title="Cain" target="_top">
<ellipse fill="none" stroke="blue" cx="277.376" cy="-18" rx="27.0966" ry="18"/>
<text text-anchor="middle" x="277.376" y="-14.3" font-family="Times,serif" font-size="14.00">Cain</text>
</a>
</g>
</g>
<!-- adam&#45;&gt;cain -->
<g id="edge2" class="edge"><title>adam&#45;&gt;cain</title>
<path fill="none" stroke="black" d="M133.144,-128.587C152.55,-123.759 176.959,-114.895 193.376,-99 208.973,-83.8992 197.767,-70.0584 212.376,-54 221.136,-44.3715 233.176,-36.874 244.514,-31.3321"/>
<polygon fill="black" stroke="black" points="246.121,-34.4468 253.786,-27.1331 243.233,-28.0702 246.121,-34.4468"/>
<text text-anchor="middle" x="234.376" y="-72.8" font-family="Times,serif" font-size="14.00">Gen 4:1</text>
</g>
<!-- eve -->
<g id="node4" class="node"><title>eve</title>
<g id="a_node4"><a xlink:href="eve.html" xlink:title="Eve" target="_top">
<ellipse fill="none" stroke="red" cx="253.376" cy="-135" rx="27" ry="18"/>
<text text-anchor="middle" x="253.376" y="-131.3" font-family="Times,serif" font-size="14.00">Eve</text>
</a>
</g>
</g>
<!-- adam&#45;&gt;eve -->
<g id="edge8" class="edge"><title>adam&#45;&gt;eve</title>
<path fill="none" stroke="red" d="M135.112,-135C165.448,-135 195.784,-135 226.12,-135"/>
</g>
<!-- seth -->
<g id="node6" class="node"><title>seth</title>
<g id="a_node6"><a xlink:href="seth.html" xlink:title="Seth" target="_top">
<ellipse fill="none" stroke="blue" cx="189.376" cy="-18" rx="27" ry="18"/>
<text text-anchor="middle" x="189.376" y="-14.3" font-family="Times,serif" font-size="14.00">Seth</text>
</a>
</g>
</g>
<!-- adam&#45;&gt;seth -->
<g id="edge3" class="edge"><title>adam&#45;&gt;seth</title>
<path fill="none" stroke="black" d="M87.2755,-118.941C82.5137,-113.193 77.8522,-106.264 75.376,-99 68.9228,-80.0697 63.489,-70.0841 75.376,-54 80.2476,-47.4083 122.716,-35.5786 154.402,-27.5137"/>
<polygon fill="black" stroke="black" points="155.404,-30.8708 164.25,-25.0389 153.698,-24.0818 155.404,-30.8708"/>
<text text-anchor="middle" x="100.876" y="-87.8" font-family="Times,serif" font-size="14.00">Gen 4:25</text>
<text text-anchor="middle" x="100.876" y="-72.8" font-family="Times,serif" font-size="14.00">Gen 5:3</text>
<text text-anchor="middle" x="100.876" y="-57.8" font-family="Times,serif" font-size="14.00">Luk 3:38</text>
</g>
<!-- eve&#45;&gt;abel -->
<g id="edge4" class="edge"><title>eve&#45;&gt;abel</title>
<path fill="none" stroke="black" d="M226.689,-130.726C203.86,-126.701 171.308,-117.907 149.376,-99 132.364,-84.3342 140.295,-71.6285 126.376,-54 122.012,-48.4726 116.671,-43.1706 111.304,-38.439"/>
<polygon fill="black" stroke="black" points="113.454,-35.6749 103.534,-31.9551 108.97,-41.0494 113.454,-35.6749"/>
<text text-anchor="middle" x="171.376" y="-72.8" font-family="Times,serif" font-size="14.00">Gen 4:2</text>
</g>
<!-- eve&#45;&gt;cain -->
<g id="edge5" class="edge"><title>eve&#45;&gt;cain</title>
<path fill="none" stroke="black" d="M279.757,-130.262C298.48,-126.082 322.344,-117.306 334.376,-99 345.361,-82.2868 344.141,-71.4543 334.376,-54 328.962,-44.3232 319.658,-36.9959 310.117,-31.6116"/>
<polygon fill="black" stroke="black" points="311.523,-28.4011 301.017,-27.0315 308.376,-34.6538 311.523,-28.4011"/>
<text text-anchor="middle" x="363.376" y="-72.8" font-family="Times,serif" font-size="14.00">Gen 4:1</text>
</g>
<!-- eve&#45;&gt;seth -->
<g id="edge6" class="edge"><title>eve&#45;&gt;seth</title>
<path fill="none" stroke="black" d="M260.339,-117.32C266.333,-100.121 272.304,-73.1792 260.376,-54 255.795,-46.6348 238.47,-38.0235 222.082,-31.1856"/>
<polygon fill="black" stroke="black" points="223.229,-27.8743 212.645,-27.3873 220.615,-34.368 223.229,-27.8743"/>
<text text-anchor="middle" x="291.876" y="-72.8" font-family="Times,serif" font-size="14.00">Gen 4:25</text>
</g>
<!-- god -->
<g id="node5" class="node"><title>god</title>
<g id="a_node5"><a xlink:href="god.html" xlink:title="God" target="_top">
<ellipse fill="none" stroke="black" cx="102.376" cy="-222" rx="27" ry="18"/>
<text text-anchor="middle" x="102.376" y="-218.3" font-family="Times,serif" font-size="14.00">God</text>
</a>
</g>
</g>
<!-- god&#45;&gt;adam -->
<g id="edge7" class="edge"><title>god&#45;&gt;adam</title>
<path fill="none" stroke="black" d="M102.376,-203.799C102.376,-192.163 102.376,-176.548 102.376,-163.237"/>
<polygon fill="black" stroke="black" points="105.876,-163.175 102.376,-153.175 98.8761,-163.175 105.876,-163.175"/>
<text text-anchor="middle" x="127.376" y="-174.8" font-family="Times,serif" font-size="14.00">Luk 3:38</text>
</g>
</g>
</svg>
