<?xml version="1.0" encoding="UTF-8" standalone="no"?>
<!DOCTYPE svg PUBLIC "-//W3C//DTD SVG 1.1//EN"
 "http://www.w3.org/Graphics/SVG/1.1/DTD/svg11.dtd">
<!-- Generated by graphviz version 2.38.0 (20140413.2041)
 -->
<!-- Title: ancestry Pages: 1 -->
<svg width="118pt" height="218pt"
 viewBox="0.00 0.00 118.49 218.00" xmlns="http://www.w3.org/2000/svg" xmlns:xlink="http://www.w3.org/1999/xlink">
<g id="graph0" class="graph" transform="scale(1 1) rotate(0) translate(4 214)">
<title>ancestry</title>
<polygon fill="white" stroke="none" points="-4,4 -4,-214 114.49,-214 114.49,4 -4,4"/>
<!-- admin -->
<g id="node1" class="node"><title>admin</title>
<g id="a_node1"><a xlink:href="admin.html" xlink:title="Admin" target="_top">
<ellipse fill="lightblue" stroke="blue" stroke-width="2" cx="55.2451" cy="-105" rx="35.9954" ry="18"/>
<text text-anchor="middle" x="55.2451" y="-101.3" font-family="Times,serif" font-size="14.00">Admin</text>
</a>
</g>
</g>
<!-- amminadab -->
<g id="node2" class="node"><title>amminadab</title>
<g id="a_node2"><a xlink:href="amminadab.html" xlink:title="Amminadab" target="_top">
<ellipse fill="none" stroke="blue" cx="55.2451" cy="-18" rx="55.4913" ry="18"/>
<text text-anchor="middle" x="55.2451" y="-14.3" font-family="Times,serif" font-size="14.00">Amminadab</text>
</a>
</g>
</g>
<!-- admin&#45;&gt;amminadab -->
<g id="edge1" class="edge"><title>admin&#45;&gt;amminadab</title>
<path fill="none" stroke="black" d="M55.2451,-86.799C55.2451,-75.1626 55.2451,-59.5479 55.2451,-46.2368"/>
<polygon fill="black" stroke="black" points="58.7452,-46.1754 55.2451,-36.1754 51.7452,-46.1755 58.7452,-46.1754"/>
<text text-anchor="middle" x="80.2451" y="-57.8" font-family="Times,serif" font-size="14.00">Luk 3:33</text>
</g>
<!-- arni -->
<g id="node3" class="node"><title>arni</title>
<g id="a_node3"><a xlink:href="arni.html" xlink:title="Arni" target="_top">
<ellipse fill="none" stroke="blue" cx="55.2451" cy="-192" rx="27" ry="18"/>
<text text-anchor="middle" x="55.2451" y="-188.3" font-family="Times,serif" font-size="14.00">Arni</text>
</a>
</g>
</g>
<!-- arni&#45;&gt;admin -->
<g id="edge2" class="edge"><title>arni&#45;&gt;admin</title>
<path fill="none" stroke="black" d="M55.2451,-173.799C55.2451,-162.163 55.2451,-146.548 55.2451,-133.237"/>
<polygon fill="black" stroke="black" points="58.7452,-133.175 55.2451,-123.175 51.7452,-133.175 58.7452,-133.175"/>
<text text-anchor="middle" x="80.2451" y="-144.8" font-family="Times,serif" font-size="14.00">Luk 3:33</text>
</g>
</g>
</svg>
