<?xml version="1.0" encoding="UTF-8" standalone="no"?>
<!DOCTYPE svg PUBLIC "-//W3C//DTD SVG 1.1//EN"
 "http://www.w3.org/Graphics/SVG/1.1/DTD/svg11.dtd">
<!-- Generated by graphviz version 2.38.0 (20140413.2041)
 -->
<!-- Title: ancestry Pages: 1 -->
<svg width="96pt" height="218pt"
 viewBox="0.00 0.00 96.39 218.00" xmlns="http://www.w3.org/2000/svg" xmlns:xlink="http://www.w3.org/1999/xlink">
<g id="graph0" class="graph" transform="scale(1 1) rotate(0) translate(4 214)">
<title>ancestry</title>
<polygon fill="white" stroke="none" points="-4,4 -4,-214 92.3922,-214 92.3922,4 -4,4"/>
<!-- ahaz -->
<g id="node1" class="node"><title>ahaz</title>
<g id="a_node1"><a xlink:href="ahaz.html" xlink:title="Ahaz" target="_top">
<ellipse fill="lightblue" stroke="blue" stroke-width="2" cx="44.1961" cy="-105" rx="29.4969" ry="18"/>
<text text-anchor="middle" x="44.1961" y="-101.3" font-family="Times,serif" font-size="14.00">Ahaz</text>
</a>
</g>
</g>
<!-- hezekiah -->
<g id="node2" class="node"><title>hezekiah</title>
<g id="a_node2"><a xlink:href="hezekiah.html" xlink:title="Hezekiah" target="_top">
<ellipse fill="none" stroke="blue" cx="44.1961" cy="-18" rx="44.393" ry="18"/>
<text text-anchor="middle" x="44.1961" y="-14.3" font-family="Times,serif" font-size="14.00">Hezekiah</text>
</a>
</g>
</g>
<!-- ahaz&#45;&gt;hezekiah -->
<g id="edge1" class="edge"><title>ahaz&#45;&gt;hezekiah</title>
<path fill="none" stroke="black" d="M44.1961,-86.799C44.1961,-75.1626 44.1961,-59.5479 44.1961,-46.2368"/>
<polygon fill="black" stroke="black" points="47.6962,-46.1754 44.1961,-36.1754 40.6962,-46.1755 47.6962,-46.1754"/>
<text text-anchor="middle" x="66.1961" y="-57.8" font-family="Times,serif" font-size="14.00">Mat 1:9</text>
</g>
<!-- uzziahs_jotham -->
<g id="node3" class="node"><title>uzziahs_jotham</title>
<g id="a_node3"><a xlink:href="uzziahs_jotham.html" xlink:title="Jotham" target="_top">
<ellipse fill="none" stroke="blue" cx="44.1961" cy="-192" rx="36.2938" ry="18"/>
<text text-anchor="middle" x="44.1961" y="-188.3" font-family="Times,serif" font-size="14.00">Jotham</text>
</a>
</g>
</g>
<!-- uzziahs_jotham&#45;&gt;ahaz -->
<g id="edge2" class="edge"><title>uzziahs_jotham&#45;&gt;ahaz</title>
<path fill="none" stroke="black" d="M44.1961,-173.799C44.1961,-162.163 44.1961,-146.548 44.1961,-133.237"/>
<polygon fill="black" stroke="black" points="47.6962,-133.175 44.1961,-123.175 40.6962,-133.175 47.6962,-133.175"/>
<text text-anchor="middle" x="66.1961" y="-144.8" font-family="Times,serif" font-size="14.00">Mat 1:9</text>
</g>
</g>
</svg>
