<?xml version="1.0" encoding="UTF-8" standalone="no"?>
<!DOCTYPE svg PUBLIC "-//W3C//DTD SVG 1.1//EN"
 "http://www.w3.org/Graphics/SVG/1.1/DTD/svg11.dtd">
<!-- Generated by graphviz version 2.38.0 (20140413.2041)
 -->
<!-- Title: ancestry Pages: 1 -->
<svg width="187pt" height="218pt"
 viewBox="0.00 0.00 187.25 218.00" xmlns="http://www.w3.org/2000/svg" xmlns:xlink="http://www.w3.org/1999/xlink">
<g id="graph0" class="graph" transform="scale(1 1) rotate(0) translate(4 214)">
<title>ancestry</title>
<polygon fill="white" stroke="none" points="-4,4 -4,-214 183.247,-214 183.247,4 -4,4"/>
<!-- ahlai -->
<g id="node1" class="node"><title>ahlai</title>
<g id="a_node1"><a xlink:href="ahlai.html" xlink:title="Ahlai" target="_top">
<ellipse fill="lightpink" stroke="red" stroke-width="2" cx="124.247" cy="-105" rx="30.5947" ry="18"/>
<text text-anchor="middle" x="124.247" y="-101.3" font-family="Times,serif" font-size="14.00">Ahlai</text>
</a>
</g>
</g>
<!-- attai -->
<g id="node2" class="node"><title>attai</title>
<g id="a_node2"><a xlink:href="attai.html" xlink:title="Attai" target="_top">
<ellipse fill="none" stroke="blue" cx="78.2474" cy="-18" rx="28.6953" ry="18"/>
<text text-anchor="middle" x="78.2474" y="-14.3" font-family="Times,serif" font-size="14.00">Attai</text>
</a>
</g>
</g>
<!-- ahlai&#45;&gt;attai -->
<g id="edge1" class="edge"><title>ahlai&#45;&gt;attai</title>
<path fill="none" stroke="black" d="M115.378,-87.6111C108.76,-75.3817 99.593,-58.4429 92.0236,-44.456"/>
<polygon fill="black" stroke="black" points="94.9271,-42.4674 87.0894,-35.3385 88.7708,-45.7991 94.9271,-42.4674"/>
<text text-anchor="middle" x="131.747" y="-57.8" font-family="Times,serif" font-size="14.00">1 Ch 2:35</text>
</g>
<!-- jarha -->
<g id="node3" class="node"><title>jarha</title>
<g id="a_node3"><a xlink:href="jarha.html" xlink:title="Jarha" target="_top">
<ellipse fill="none" stroke="blue" cx="29.2474" cy="-105" rx="29.4969" ry="18"/>
<text text-anchor="middle" x="29.2474" y="-101.3" font-family="Times,serif" font-size="14.00">Jarha</text>
</a>
</g>
</g>
<!-- jarha&#45;&gt;ahlai -->
<g id="edge4" class="edge"><title>jarha&#45;&gt;ahlai</title>
<path fill="none" stroke="red" d="M58.5638,-105C70.1953,-105 81.8268,-105 93.4582,-105"/>
</g>
<!-- jarha&#45;&gt;attai -->
<g id="edge2" class="edge"><title>jarha&#45;&gt;attai</title>
<path fill="none" stroke="black" d="M30.4351,-86.8669C31.7444,-76.7557 34.491,-64.0186 40.2474,-54 43.3389,-48.6194 47.535,-43.5906 52.0128,-39.1166"/>
<polygon fill="black" stroke="black" points="54.6306,-41.4666 59.6693,-32.1466 49.9183,-36.2902 54.6306,-41.4666"/>
<text text-anchor="middle" x="67.7474" y="-57.8" font-family="Times,serif" font-size="14.00">1 Ch 2:35</text>
</g>
<!-- sheshan -->
<g id="node4" class="node"><title>sheshan</title>
<g id="a_node4"><a xlink:href="sheshan.html" xlink:title="Sheshan" target="_top">
<ellipse fill="none" stroke="blue" cx="124.247" cy="-192" rx="40.0939" ry="18"/>
<text text-anchor="middle" x="124.247" y="-188.3" font-family="Times,serif" font-size="14.00">Sheshan</text>
</a>
</g>
</g>
<!-- sheshan&#45;&gt;ahlai -->
<g id="edge3" class="edge"><title>sheshan&#45;&gt;ahlai</title>
<path fill="none" stroke="black" d="M124.247,-173.799C124.247,-162.163 124.247,-146.548 124.247,-133.237"/>
<polygon fill="black" stroke="black" points="127.748,-133.175 124.247,-123.175 120.748,-133.175 127.748,-133.175"/>
<text text-anchor="middle" x="151.747" y="-144.8" font-family="Times,serif" font-size="14.00">1 Ch 2:31</text>
</g>
</g>
</svg>
