<?xml version="1.0" encoding="UTF-8" standalone="no"?>
<!DOCTYPE svg PUBLIC "-//W3C//DTD SVG 1.1//EN"
 "http://www.w3.org/Graphics/SVG/1.1/DTD/svg11.dtd">
<!-- Generated by graphviz version 2.38.0 (20140413.2041)
 -->
<!-- Title: ancestry Pages: 1 -->
<svg width="173pt" height="131pt"
 viewBox="0.00 0.00 173.05 131.00" xmlns="http://www.w3.org/2000/svg" xmlns:xlink="http://www.w3.org/1999/xlink">
<g id="graph0" class="graph" transform="scale(1 1) rotate(0) translate(4 127)">
<title>ancestry</title>
<polygon fill="white" stroke="none" points="-4,4 -4,-127 169.047,-127 169.047,4 -4,4"/>
<!-- abigail -->
<g id="node1" class="node"><title>abigail</title>
<g id="a_node1"><a xlink:href="abigail.html" xlink:title="Abigail" target="_top">
<ellipse fill="none" stroke="red" cx="37.0467" cy="-105" rx="37.0935" ry="18"/>
<text text-anchor="middle" x="37.0467" y="-101.3" font-family="Times,serif" font-size="14.00">Abigail</text>
</a>
</g>
</g>
<!-- amasa -->
<g id="node2" class="node"><title>amasa</title>
<g id="a_node2"><a xlink:href="amasa.html" xlink:title="Amasa" target="_top">
<ellipse fill="lightblue" stroke="blue" stroke-width="2" cx="80.0467" cy="-18" rx="35.9954" ry="18"/>
<text text-anchor="middle" x="80.0467" y="-14.3" font-family="Times,serif" font-size="14.00">Amasa</text>
</a>
</g>
</g>
<!-- abigail&#45;&gt;amasa -->
<g id="edge1" class="edge"><title>abigail&#45;&gt;amasa</title>
<path fill="none" stroke="black" d="M38.1473,-86.5509C39.3475,-76.5679 41.8475,-64.0679 47.0467,-54 49.322,-49.5942 52.317,-45.3493 55.5755,-41.4277"/>
<polygon fill="black" stroke="black" points="58.3124,-43.6216 62.4879,-33.8842 53.1515,-38.8924 58.3124,-43.6216"/>
<text text-anchor="middle" x="74.5467" y="-57.8" font-family="Times,serif" font-size="14.00">1 Ch 2:17</text>
</g>
<!-- jether -->
<g id="node3" class="node"><title>jether</title>
<g id="a_node3"><a xlink:href="jether.html" xlink:title="Jether" target="_top">
<ellipse fill="none" stroke="blue" cx="124.047" cy="-105" rx="31.6951" ry="18"/>
<text text-anchor="middle" x="124.047" y="-101.3" font-family="Times,serif" font-size="14.00">Jether</text>
</a>
</g>
</g>
<!-- jether&#45;&gt;amasa -->
<g id="edge2" class="edge"><title>jether&#45;&gt;amasa</title>
<path fill="none" stroke="black" d="M117.314,-87.0423C113.236,-77.2231 107.736,-64.7231 102.047,-54 100.295,-50.6993 98.3464,-47.2936 96.3527,-43.962"/>
<polygon fill="black" stroke="black" points="99.3159,-42.0992 91.0757,-35.4396 93.3645,-45.7843 99.3159,-42.0992"/>
<text text-anchor="middle" x="137.547" y="-57.8" font-family="Times,serif" font-size="14.00">1 Ch 2:17</text>
</g>
</g>
</svg>
