<?xml version="1.0" encoding="UTF-8" standalone="no"?>
<!DOCTYPE svg PUBLIC "-//W3C//DTD SVG 1.1//EN"
 "http://www.w3.org/Graphics/SVG/1.1/DTD/svg11.dtd">
<!-- Generated by graphviz version 2.38.0 (20140413.2041)
 -->
<!-- Title: ancestry Pages: 1 -->
<svg width="200pt" height="278pt"
 viewBox="0.00 0.00 199.95 278.00" xmlns="http://www.w3.org/2000/svg" xmlns:xlink="http://www.w3.org/1999/xlink">
<g id="graph0" class="graph" transform="scale(1 1) rotate(0) translate(4 274)">
<title>ancestry</title>
<polygon fill="white" stroke="none" points="-4,4 -4,-274 195.946,-274 195.946,4 -4,4"/>
<!-- admin -->
<g id="node1" class="node"><title>admin</title>
<g id="a_node1"><a xlink:href="admin.html" xlink:title="Admin" target="_top">
<ellipse fill="none" stroke="blue" cx="49.9464" cy="-252" rx="35.9954" ry="18"/>
<text text-anchor="middle" x="49.9464" y="-248.3" font-family="Times,serif" font-size="14.00">Admin</text>
</a>
</g>
</g>
<!-- amminadab -->
<g id="node2" class="node"><title>amminadab</title>
<g id="a_node2"><a xlink:href="amminadab.html" xlink:title="Amminadab" target="_top">
<ellipse fill="lightblue" stroke="blue" stroke-width="2" cx="90.9464" cy="-150" rx="55.4913" ry="18"/>
<text text-anchor="middle" x="90.9464" y="-146.3" font-family="Times,serif" font-size="14.00">Amminadab</text>
</a>
</g>
</g>
<!-- admin&#45;&gt;amminadab -->
<g id="edge1" class="edge"><title>admin&#45;&gt;amminadab</title>
<path fill="none" stroke="black" d="M49.9635,-233.947C50.5775,-220.371 52.8164,-201.194 59.9464,-186 61.6813,-182.303 63.9316,-178.707 66.4278,-175.316"/>
<polygon fill="black" stroke="black" points="69.3228,-177.306 72.9856,-167.365 63.9226,-172.852 69.3228,-177.306"/>
<text text-anchor="middle" x="84.9464" y="-197.3" font-family="Times,serif" font-size="14.00">Luk 3:33</text>
</g>
<!-- elisheba -->
<g id="node3" class="node"><title>elisheba</title>
<g id="a_node3"><a xlink:href="elisheba.html" xlink:title="Elisheba" target="_top">
<ellipse fill="none" stroke="red" cx="40.9464" cy="-18" rx="40.8928" ry="18"/>
<text text-anchor="middle" x="40.9464" y="-14.3" font-family="Times,serif" font-size="14.00">Elisheba</text>
</a>
</g>
</g>
<!-- amminadab&#45;&gt;elisheba -->
<g id="edge2" class="edge"><title>amminadab&#45;&gt;elisheba</title>
<path fill="none" stroke="black" d="M84.0478,-131.935C81.765,-126.24 79.2263,-119.854 76.9464,-114 67.9402,-90.8738 57.9583,-64.4692 50.7943,-45.3769"/>
<polygon fill="black" stroke="black" points="54.0122,-43.9898 47.2267,-35.853 47.457,-46.4454 54.0122,-43.9898"/>
<text text-anchor="middle" x="98.4464" y="-80.3" font-family="Times,serif" font-size="14.00">Ex 6:23</text>
</g>
<!-- nahshon -->
<g id="node4" class="node"><title>nahshon</title>
<g id="a_node4"><a xlink:href="nahshon.html" xlink:title="Nahshon" target="_top">
<ellipse fill="none" stroke="blue" cx="141.946" cy="-18" rx="42.4939" ry="18"/>
<text text-anchor="middle" x="141.946" y="-14.3" font-family="Times,serif" font-size="14.00">Nahshon</text>
</a>
</g>
</g>
<!-- amminadab&#45;&gt;nahshon -->
<g id="edge3" class="edge"><title>amminadab&#45;&gt;nahshon</title>
<path fill="none" stroke="black" d="M107.134,-132.677C111.871,-127.132 116.655,-120.648 119.946,-114 130.531,-92.6222 136.129,-65.9968 139.023,-46.3771"/>
<polygon fill="black" stroke="black" points="142.517,-46.6501 140.367,-36.2759 135.578,-45.7268 142.517,-46.6501"/>
<text text-anchor="middle" x="164.446" y="-102.8" font-family="Times,serif" font-size="14.00">1 Ch 2:10</text>
<text text-anchor="middle" x="164.446" y="-87.8" font-family="Times,serif" font-size="14.00">Ex 6:23</text>
<text text-anchor="middle" x="164.446" y="-72.8" font-family="Times,serif" font-size="14.00">Luk 3:33</text>
<text text-anchor="middle" x="164.446" y="-57.8" font-family="Times,serif" font-size="14.00">Mat 1:4</text>
</g>
<!-- ram -->
<g id="node5" class="node"><title>ram</title>
<g id="a_node5"><a xlink:href="ram.html" xlink:title="Ram" target="_top">
<ellipse fill="none" stroke="blue" cx="131.946" cy="-252" rx="27.8951" ry="18"/>
<text text-anchor="middle" x="131.946" y="-248.3" font-family="Times,serif" font-size="14.00">Ram</text>
</a>
</g>
</g>
<!-- ram&#45;&gt;amminadab -->
<g id="edge4" class="edge"><title>ram&#45;&gt;amminadab</title>
<path fill="none" stroke="black" d="M127.108,-234.139C123.086,-220.84 116.909,-201.939 109.946,-186 108.618,-182.959 107.12,-179.828 105.562,-176.747"/>
<polygon fill="black" stroke="black" points="108.595,-174.996 100.821,-167.798 102.41,-178.273 108.595,-174.996"/>
<text text-anchor="middle" x="149.446" y="-204.8" font-family="Times,serif" font-size="14.00">1 Ch 2:10</text>
<text text-anchor="middle" x="149.446" y="-189.8" font-family="Times,serif" font-size="14.00">Mat 1:4</text>
</g>
</g>
</svg>
