<?xml version="1.0" encoding="UTF-8" standalone="no"?>
<!DOCTYPE svg PUBLIC "-//W3C//DTD SVG 1.1//EN"
 "http://www.w3.org/Graphics/SVG/1.1/DTD/svg11.dtd">
<!-- Generated by graphviz version 2.38.0 (20140413.2041)
 -->
<!-- Title: ancestry Pages: 1 -->
<svg width="249pt" height="218pt"
 viewBox="0.00 0.00 248.60 218.00" xmlns="http://www.w3.org/2000/svg" xmlns:xlink="http://www.w3.org/1999/xlink">
<g id="graph0" class="graph" transform="scale(1 1) rotate(0) translate(4 214)">
<title>ancestry</title>
<polygon fill="white" stroke="none" points="-4,4 -4,-214 244.597,-214 244.597,4 -4,4"/>
<!-- amorites -->
<g id="node1" class="node"><title>amorites</title>
<g id="a_node1"><a xlink:href="amorites.html" xlink:title="Amorites" target="_top">
<ellipse fill="lightgrey" stroke="black" stroke-width="2" cx="109.597" cy="-105" rx="44.393" ry="18"/>
<text text-anchor="middle" x="109.597" y="-101.3" font-family="Times,serif" font-size="14.00">Amorites</text>
</a>
</g>
</g>
<!-- aner -->
<g id="node2" class="node"><title>aner</title>
<g id="a_node2"><a xlink:href="aner.html" xlink:title="Aner" target="_top">
<ellipse fill="none" stroke="black" cx="28.5975" cy="-18" rx="28.6953" ry="18"/>
<text text-anchor="middle" x="28.5975" y="-14.3" font-family="Times,serif" font-size="14.00">Aner</text>
</a>
</g>
</g>
<!-- amorites&#45;&gt;aner -->
<g id="edge3" class="edge"><title>amorites&#45;&gt;aner</title>
<path fill="none" stroke="black" stroke-dasharray="1,5" d="M78.8431,-91.9461C67.7805,-86.3529 55.9769,-78.7486 47.5975,-69 41.9794,-62.464 37.9376,-54.0951 35.0676,-46.0815"/>
<polygon fill="black" stroke="black" points="38.3344,-44.7994 32.0284,-36.2857 31.6488,-46.8737 38.3344,-44.7994"/>
<text text-anchor="middle" x="76.5975" y="-57.8" font-family="Times,serif" font-size="14.00">Gen 14:13</text>
</g>
<!-- eshcol -->
<g id="node4" class="node"><title>eshcol</title>
<g id="a_node4"><a xlink:href="eshcol.html" xlink:title="Eshcol" target="_top">
<ellipse fill="none" stroke="black" cx="109.597" cy="-18" rx="34.394" ry="18"/>
<text text-anchor="middle" x="109.597" y="-14.3" font-family="Times,serif" font-size="14.00">Eshcol</text>
</a>
</g>
</g>
<!-- amorites&#45;&gt;eshcol -->
<g id="edge2" class="edge"><title>amorites&#45;&gt;eshcol</title>
<path fill="none" stroke="black" stroke-dasharray="1,5" d="M109.597,-86.799C109.597,-75.1626 109.597,-59.5479 109.597,-46.2368"/>
<polygon fill="black" stroke="black" points="113.098,-46.1754 109.597,-36.1754 106.098,-46.1755 113.098,-46.1754"/>
<text text-anchor="middle" x="138.597" y="-57.8" font-family="Times,serif" font-size="14.00">Gen 14:13</text>
</g>
<!-- mamre -->
<g id="node5" class="node"><title>mamre</title>
<g id="a_node5"><a xlink:href="mamre.html" xlink:title="Mamre" target="_top">
<ellipse fill="none" stroke="black" cx="198.597" cy="-18" rx="37.0935" ry="18"/>
<text text-anchor="middle" x="198.597" y="-14.3" font-family="Times,serif" font-size="14.00">Mamre</text>
</a>
</g>
</g>
<!-- amorites&#45;&gt;mamre -->
<g id="edge1" class="edge"><title>amorites&#45;&gt;mamre</title>
<path fill="none" stroke="black" stroke-dasharray="1,5" d="M139.375,-91.5023C150.443,-85.8155 162.507,-78.2631 171.597,-69 178.325,-62.1449 183.841,-53.2721 188.093,-44.9079"/>
<polygon fill="black" stroke="black" points="191.28,-46.3553 192.355,-35.8151 184.942,-43.3845 191.28,-46.3553"/>
<text text-anchor="middle" x="211.597" y="-57.8" font-family="Times,serif" font-size="14.00">Gen 14:13</text>
</g>
<!-- canaan -->
<g id="node3" class="node"><title>canaan</title>
<g id="a_node3"><a xlink:href="canaan.html" xlink:title="Canaan" target="_top">
<ellipse fill="none" stroke="blue" cx="109.597" cy="-192" rx="37.0935" ry="18"/>
<text text-anchor="middle" x="109.597" y="-188.3" font-family="Times,serif" font-size="14.00">Canaan</text>
</a>
</g>
</g>
<!-- canaan&#45;&gt;amorites -->
<g id="edge4" class="edge"><title>canaan&#45;&gt;amorites</title>
<path fill="none" stroke="black" stroke-dasharray="1,5" d="M109.597,-173.799C109.597,-162.163 109.597,-146.548 109.597,-133.237"/>
<polygon fill="black" stroke="black" points="113.098,-133.175 109.597,-123.175 106.098,-133.175 113.098,-133.175"/>
<text text-anchor="middle" x="138.597" y="-144.8" font-family="Times,serif" font-size="14.00">Gen 10:16</text>
</g>
</g>
</svg>
