<?xml version="1.0" encoding="UTF-8" standalone="no"?>
<!DOCTYPE svg PUBLIC "-//W3C//DTD SVG 1.1//EN"
 "http://www.w3.org/Graphics/SVG/1.1/DTD/svg11.dtd">
<!-- Generated by graphviz version 2.38.0 (20140413.2041)
 -->
<!-- Title: ancestry Pages: 1 -->
<svg width="229pt" height="218pt"
 viewBox="0.00 0.00 229.45 218.00" xmlns="http://www.w3.org/2000/svg" xmlns:xlink="http://www.w3.org/1999/xlink">
<g id="graph0" class="graph" transform="scale(1 1) rotate(0) translate(4 214)">
<title>ancestry</title>
<polygon fill="white" stroke="none" points="-4,4 -4,-214 225.445,-214 225.445,4 -4,4"/>
<!-- aaron -->
<g id="node1" class="node"><title>aaron</title>
<g id="a_node1"><a xlink:href="aaron.html" xlink:title="Aaron" target="_top">
<ellipse fill="none" stroke="blue" cx="57.4453" cy="-18" rx="32.4942" ry="18"/>
<text text-anchor="middle" x="57.4453" y="-14.3" font-family="Times,serif" font-size="14.00">Aaron</text>
</a>
</g>
</g>
<!-- amram -->
<g id="node2" class="node"><title>amram</title>
<g id="a_node2"><a xlink:href="amram.html" xlink:title="Amram" target="_top">
<ellipse fill="lightblue" stroke="blue" stroke-width="2" cx="41.4453" cy="-105" rx="38.1938" ry="18"/>
<text text-anchor="middle" x="41.4453" y="-101.3" font-family="Times,serif" font-size="14.00">Amram</text>
</a>
</g>
</g>
<!-- amram&#45;&gt;aaron -->
<g id="edge1" class="edge"><title>amram&#45;&gt;aaron</title>
<path fill="none" stroke="black" d="M19.2938,-90.2028C6.86717,-80.6112 -4.81243,-67.2212 2.44527,-54 7.00489,-45.6939 14.4643,-39.0773 22.4393,-33.9335"/>
<polygon fill="black" stroke="black" points="24.2488,-36.9305 31.1825,-28.9197 20.7665,-30.8581 24.2488,-36.9305"/>
<text text-anchor="middle" x="23.9453" y="-57.8" font-family="Times,serif" font-size="14.00">Ex 6:20</text>
</g>
<!-- jochebed -->
<g id="node3" class="node"><title>jochebed</title>
<g id="a_node3"><a xlink:href="jochebed.html" xlink:title="Jochebed" target="_top">
<ellipse fill="none" stroke="red" cx="158.445" cy="-105" rx="43.5923" ry="18"/>
<text text-anchor="middle" x="158.445" y="-101.3" font-family="Times,serif" font-size="14.00">Jochebed</text>
</a>
</g>
</g>
<!-- amram&#45;&gt;jochebed -->
<g id="edge6" class="edge"><title>amram&#45;&gt;jochebed</title>
<path fill="none" stroke="red" d="M79.8359,-105C91.5045,-105 103.173,-105 114.842,-105"/>
</g>
<!-- moses -->
<g id="node5" class="node"><title>moses</title>
<g id="a_node5"><a xlink:href="moses.html" xlink:title="Moses" target="_top">
<ellipse fill="none" stroke="blue" cx="170.445" cy="-18" rx="34.394" ry="18"/>
<text text-anchor="middle" x="170.445" y="-14.3" font-family="Times,serif" font-size="14.00">Moses</text>
</a>
</g>
</g>
<!-- amram&#45;&gt;moses -->
<g id="edge2" class="edge"><title>amram&#45;&gt;moses</title>
<path fill="none" stroke="black" d="M45.4814,-87.0484C48.8702,-76.229 54.7558,-62.6589 64.4453,-54 74.3959,-45.1077 104.317,-35.6537 129.843,-28.8158"/>
<polygon fill="black" stroke="black" points="130.926,-32.1504 139.718,-26.2385 129.158,-25.3772 130.926,-32.1504"/>
<text text-anchor="middle" x="85.9453" y="-57.8" font-family="Times,serif" font-size="14.00">Ex 6:20</text>
</g>
<!-- jochebed&#45;&gt;aaron -->
<g id="edge3" class="edge"><title>jochebed&#45;&gt;aaron</title>
<path fill="none" stroke="black" d="M144.946,-87.7278C136.002,-77.4515 123.7,-64.2317 111.445,-54 104.218,-47.9652 95.8959,-42.1104 87.9841,-36.9712"/>
<polygon fill="black" stroke="black" points="89.6318,-33.8725 79.3057,-31.5015 85.8994,-39.7945 89.6318,-33.8725"/>
<text text-anchor="middle" x="148.945" y="-57.8" font-family="Times,serif" font-size="14.00">Ex 6:20</text>
</g>
<!-- jochebed&#45;&gt;moses -->
<g id="edge4" class="edge"><title>jochebed&#45;&gt;moses</title>
<path fill="none" stroke="black" d="M169.72,-87.259C172.859,-81.6914 175.846,-75.2992 177.445,-69 179.344,-61.5239 179.11,-53.2794 177.985,-45.6782"/>
<polygon fill="black" stroke="black" points="181.411,-44.9625 176.016,-35.8442 174.548,-46.3368 181.411,-44.9625"/>
<text text-anchor="middle" x="199.945" y="-57.8" font-family="Times,serif" font-size="14.00">Ex 6:20</text>
</g>
<!-- kohath -->
<g id="node4" class="node"><title>kohath</title>
<g id="a_node4"><a xlink:href="kohath.html" xlink:title="Kohath" target="_top">
<ellipse fill="none" stroke="blue" cx="41.4453" cy="-192" rx="36.2938" ry="18"/>
<text text-anchor="middle" x="41.4453" y="-188.3" font-family="Times,serif" font-size="14.00">Kohath</text>
</a>
</g>
</g>
<!-- kohath&#45;&gt;amram -->
<g id="edge5" class="edge"><title>kohath&#45;&gt;amram</title>
<path fill="none" stroke="black" d="M41.4453,-173.799C41.4453,-162.163 41.4453,-146.548 41.4453,-133.237"/>
<polygon fill="black" stroke="black" points="44.9454,-133.175 41.4453,-123.175 37.9454,-133.175 44.9454,-133.175"/>
<text text-anchor="middle" x="62.9453" y="-144.8" font-family="Times,serif" font-size="14.00">Ex 6:18</text>
</g>
</g>
</svg>
