<?xml version="1.0" encoding="UTF-8" standalone="no"?>
<!DOCTYPE svg PUBLIC "-//W3C//DTD SVG 1.1//EN"
 "http://www.w3.org/Graphics/SVG/1.1/DTD/svg11.dtd">
<!-- Generated by graphviz version 2.38.0 (20140413.2041)
 -->
<!-- Title: ancestry Pages: 1 -->
<svg width="103pt" height="218pt"
 viewBox="0.00 0.00 102.65 218.00" xmlns="http://www.w3.org/2000/svg" xmlns:xlink="http://www.w3.org/1999/xlink">
<g id="graph0" class="graph" transform="scale(1 1) rotate(0) translate(4 214)">
<title>ancestry</title>
<polygon fill="white" stroke="none" points="-4,4 -4,-214 98.6465,-214 98.6465,4 -4,4"/>
<!-- appaim -->
<g id="node1" class="node"><title>appaim</title>
<g id="a_node1"><a xlink:href="appaim.html" xlink:title="Appaim" target="_top">
<ellipse fill="lightblue" stroke="blue" stroke-width="2" cx="39.6465" cy="-105" rx="39.7935" ry="18"/>
<text text-anchor="middle" x="39.6465" y="-101.3" font-family="Times,serif" font-size="14.00">Appaim</text>
</a>
</g>
</g>
<!-- ishi -->
<g id="node2" class="node"><title>ishi</title>
<g id="a_node2"><a xlink:href="ishi.html" xlink:title="Ishi" target="_top">
<ellipse fill="none" stroke="blue" cx="39.6465" cy="-18" rx="27" ry="18"/>
<text text-anchor="middle" x="39.6465" y="-14.3" font-family="Times,serif" font-size="14.00">Ishi</text>
</a>
</g>
</g>
<!-- appaim&#45;&gt;ishi -->
<g id="edge1" class="edge"><title>appaim&#45;&gt;ishi</title>
<path fill="none" stroke="black" d="M39.6465,-86.799C39.6465,-75.1626 39.6465,-59.5479 39.6465,-46.2368"/>
<polygon fill="black" stroke="black" points="43.1466,-46.1754 39.6465,-36.1754 36.1466,-46.1755 43.1466,-46.1754"/>
<text text-anchor="middle" x="67.1465" y="-57.8" font-family="Times,serif" font-size="14.00">1 Ch 2:31</text>
</g>
<!-- shammais_nadab -->
<g id="node3" class="node"><title>shammais_nadab</title>
<g id="a_node3"><a xlink:href="shammais_nadab.html" xlink:title="Nadab" target="_top">
<ellipse fill="none" stroke="blue" cx="39.6465" cy="-192" rx="33.5952" ry="18"/>
<text text-anchor="middle" x="39.6465" y="-188.3" font-family="Times,serif" font-size="14.00">Nadab</text>
</a>
</g>
</g>
<!-- shammais_nadab&#45;&gt;appaim -->
<g id="edge2" class="edge"><title>shammais_nadab&#45;&gt;appaim</title>
<path fill="none" stroke="black" d="M39.6465,-173.799C39.6465,-162.163 39.6465,-146.548 39.6465,-133.237"/>
<polygon fill="black" stroke="black" points="43.1466,-133.175 39.6465,-123.175 36.1466,-133.175 43.1466,-133.175"/>
<text text-anchor="middle" x="67.1465" y="-144.8" font-family="Times,serif" font-size="14.00">1 Ch 2:30</text>
</g>
</g>
</svg>
