<?xml version="1.0" encoding="UTF-8" standalone="no"?>
<!DOCTYPE svg PUBLIC "-//W3C//DTD SVG 1.1//EN"
 "http://www.w3.org/Graphics/SVG/1.1/DTD/svg11.dtd">
<!-- Generated by graphviz version 2.38.0 (20140413.2041)
 -->
<!-- Title: ancestry Pages: 1 -->
<svg width="324pt" height="218pt"
 viewBox="0.00 0.00 324.45 218.00" xmlns="http://www.w3.org/2000/svg" xmlns:xlink="http://www.w3.org/1999/xlink">
<g id="graph0" class="graph" transform="scale(1 1) rotate(0) translate(4 214)">
<title>ancestry</title>
<polygon fill="white" stroke="none" points="-4,4 -4,-214 320.447,-214 320.447,4 -4,4"/>
<!-- aram -->
<g id="node1" class="node"><title>aram</title>
<g id="a_node1"><a xlink:href="aram.html" xlink:title="Aram" target="_top">
<ellipse fill="lightblue" stroke="blue" stroke-width="2" cx="155.447" cy="-105" rx="31.3957" ry="18"/>
<text text-anchor="middle" x="155.447" y="-101.3" font-family="Times,serif" font-size="14.00">Aram</text>
</a>
</g>
</g>
<!-- gether -->
<g id="node2" class="node"><title>gether</title>
<g id="a_node2"><a xlink:href="gether.html" xlink:title="Gether" target="_top">
<ellipse fill="none" stroke="blue" cx="34.4469" cy="-18" rx="34.394" ry="18"/>
<text text-anchor="middle" x="34.4469" y="-14.3" font-family="Times,serif" font-size="14.00">Gether</text>
</a>
</g>
</g>
<!-- aram&#45;&gt;gether -->
<g id="edge1" class="edge"><title>aram&#45;&gt;gether</title>
<path fill="none" stroke="black" d="M124.779,-100.965C101.777,-97.1407 71.0099,-88.5023 51.4469,-69 45.2611,-62.8334 41.325,-54.3323 38.8208,-46.0881"/>
<polygon fill="black" stroke="black" points="42.2088,-45.2082 36.4215,-36.3336 35.4114,-46.8802 42.2088,-45.2082"/>
<text text-anchor="middle" x="80.4469" y="-57.8" font-family="Times,serif" font-size="14.00">Gen 10:23</text>
</g>
<!-- hul -->
<g id="node3" class="node"><title>hul</title>
<g id="a_node3"><a xlink:href="hul.html" xlink:title="Hul" target="_top">
<ellipse fill="none" stroke="blue" cx="115.447" cy="-18" rx="27" ry="18"/>
<text text-anchor="middle" x="115.447" y="-14.3" font-family="Times,serif" font-size="14.00">Hul</text>
</a>
</g>
</g>
<!-- aram&#45;&gt;hul -->
<g id="edge2" class="edge"><title>aram&#45;&gt;hul</title>
<path fill="none" stroke="black" d="M135.107,-91.0622C127.841,-85.2743 120.464,-77.7668 116.447,-69 113.214,-61.9456 112.117,-53.7226 112.058,-46.0068"/>
<polygon fill="black" stroke="black" points="115.557,-46.1067 112.518,-35.957 108.564,-45.7865 115.557,-46.1067"/>
<text text-anchor="middle" x="145.447" y="-57.8" font-family="Times,serif" font-size="14.00">Gen 10:23</text>
</g>
<!-- mash -->
<g id="node4" class="node"><title>mash</title>
<g id="a_node4"><a xlink:href="mash.html" xlink:title="Mash" target="_top">
<ellipse fill="none" stroke="blue" cx="196.447" cy="-18" rx="30.5947" ry="18"/>
<text text-anchor="middle" x="196.447" y="-14.3" font-family="Times,serif" font-size="14.00">Mash</text>
</a>
</g>
</g>
<!-- aram&#45;&gt;mash -->
<g id="edge3" class="edge"><title>aram&#45;&gt;mash</title>
<path fill="none" stroke="black" d="M164.623,-87.7649C167.838,-81.9063 171.403,-75.2078 174.447,-69 178.205,-61.3365 182.04,-52.8816 185.433,-45.1389"/>
<polygon fill="black" stroke="black" points="188.703,-46.3937 189.456,-35.8256 182.277,-43.6181 188.703,-46.3937"/>
<text text-anchor="middle" x="211.447" y="-57.8" font-family="Times,serif" font-size="14.00">Gen 10:23</text>
</g>
<!-- uz -->
<g id="node6" class="node"><title>uz</title>
<g id="a_node6"><a xlink:href="uz.html" xlink:title="Uz" target="_top">
<ellipse fill="none" stroke="blue" cx="277.447" cy="-18" rx="27" ry="18"/>
<text text-anchor="middle" x="277.447" y="-14.3" font-family="Times,serif" font-size="14.00">Uz</text>
</a>
</g>
</g>
<!-- aram&#45;&gt;uz -->
<g id="edge4" class="edge"><title>aram&#45;&gt;uz</title>
<path fill="none" stroke="black" d="M184.217,-97.51C202.882,-92.2063 226.904,-83.2169 244.447,-69 252.723,-62.293 259.659,-52.9493 265.003,-44.1523"/>
<polygon fill="black" stroke="black" points="268.122,-45.7462 269.984,-35.3163 262.024,-42.3085 268.122,-45.7462"/>
<text text-anchor="middle" x="287.447" y="-57.8" font-family="Times,serif" font-size="14.00">Gen 10:23</text>
</g>
<!-- shem -->
<g id="node5" class="node"><title>shem</title>
<g id="a_node5"><a xlink:href="shem.html" xlink:title="Shem" target="_top">
<ellipse fill="none" stroke="blue" cx="155.447" cy="-192" rx="31.3957" ry="18"/>
<text text-anchor="middle" x="155.447" y="-188.3" font-family="Times,serif" font-size="14.00">Shem</text>
</a>
</g>
</g>
<!-- shem&#45;&gt;aram -->
<g id="edge5" class="edge"><title>shem&#45;&gt;aram</title>
<path fill="none" stroke="black" d="M155.447,-173.799C155.447,-162.163 155.447,-146.548 155.447,-133.237"/>
<polygon fill="black" stroke="black" points="158.947,-133.175 155.447,-123.175 151.947,-133.175 158.947,-133.175"/>
<text text-anchor="middle" x="184.447" y="-144.8" font-family="Times,serif" font-size="14.00">Gen 10:22</text>
</g>
</g>
</svg>
