<?xml version="1.0" encoding="UTF-8" standalone="no"?>
<!DOCTYPE svg PUBLIC "-//W3C//DTD SVG 1.1//EN"
 "http://www.w3.org/Graphics/SVG/1.1/DTD/svg11.dtd">
<!-- Generated by graphviz version 2.38.0 (20140413.2041)
 -->
<!-- Title: ancestry Pages: 1 -->
<svg width="175pt" height="131pt"
 viewBox="0.00 0.00 175.35 131.00" xmlns="http://www.w3.org/2000/svg" xmlns:xlink="http://www.w3.org/1999/xlink">
<g id="graph0" class="graph" transform="scale(1 1) rotate(0) translate(4 127)">
<title>ancestry</title>
<polygon fill="white" stroke="none" points="-4,4 -4,-127 171.347,-127 171.347,4 -4,4"/>
<!-- ardon -->
<g id="node1" class="node"><title>ardon</title>
<g id="a_node1"><a xlink:href="ardon.html" xlink:title="Ardon" target="_top">
<ellipse fill="lightblue" stroke="blue" stroke-width="2" cx="82.3466" cy="-18" rx="33.2948" ry="18"/>
<text text-anchor="middle" x="82.3466" y="-14.3" font-family="Times,serif" font-size="14.00">Ardon</text>
</a>
</g>
</g>
<!-- azubah -->
<g id="node2" class="node"><title>azubah</title>
<g id="a_node2"><a xlink:href="azubah.html" xlink:title="Azubah" target="_top">
<ellipse fill="none" stroke="red" cx="38.3466" cy="-105" rx="38.1938" ry="18"/>
<text text-anchor="middle" x="38.3466" y="-101.3" font-family="Times,serif" font-size="14.00">Azubah</text>
</a>
</g>
</g>
<!-- azubah&#45;&gt;ardon -->
<g id="edge1" class="edge"><title>azubah&#45;&gt;ardon</title>
<path fill="none" stroke="black" d="M39.7934,-87.0097C41.1945,-76.9493 43.9467,-64.2152 49.3466,-54 51.7725,-49.4108 54.9658,-44.9868 58.4108,-40.9184"/>
<polygon fill="black" stroke="black" points="60.9791,-43.2961 65.2102,-33.5828 55.8453,-38.5375 60.9791,-43.2961"/>
<text text-anchor="middle" x="76.8466" y="-57.8" font-family="Times,serif" font-size="14.00">1 Ch 2:18</text>
</g>
<!-- caleb -->
<g id="node3" class="node"><title>caleb</title>
<g id="a_node3"><a xlink:href="caleb.html" xlink:title="Caleb" target="_top">
<ellipse fill="none" stroke="blue" cx="126.347" cy="-105" rx="31.3957" ry="18"/>
<text text-anchor="middle" x="126.347" y="-101.3" font-family="Times,serif" font-size="14.00">Caleb</text>
</a>
</g>
</g>
<!-- caleb&#45;&gt;ardon -->
<g id="edge2" class="edge"><title>caleb&#45;&gt;ardon</title>
<path fill="none" stroke="black" d="M119.614,-87.0423C115.536,-77.2231 110.036,-64.7231 104.347,-54 102.559,-50.6319 100.567,-47.1545 98.5305,-43.7581"/>
<polygon fill="black" stroke="black" points="101.397,-41.7398 93.1508,-35.0879 95.4491,-45.4304 101.397,-41.7398"/>
<text text-anchor="middle" x="139.847" y="-57.8" font-family="Times,serif" font-size="14.00">1 Ch 2:18</text>
</g>
</g>
</svg>
