<?xml version="1.0" encoding="UTF-8" standalone="no"?>
<!DOCTYPE svg PUBLIC "-//W3C//DTD SVG 1.1//EN"
 "http://www.w3.org/Graphics/SVG/1.1/DTD/svg11.dtd">
<!-- Generated by graphviz version 2.38.0 (20140413.2041)
 -->
<!-- Title: ancestry Pages: 1 -->
<svg width="111pt" height="278pt"
 viewBox="0.00 0.00 111.50 278.00" xmlns="http://www.w3.org/2000/svg" xmlns:xlink="http://www.w3.org/1999/xlink">
<g id="graph0" class="graph" transform="scale(1 1) rotate(0) translate(4 274)">
<title>ancestry</title>
<polygon fill="white" stroke="none" points="-4,4 -4,-274 107.496,-274 107.496,4 -4,4"/>
<!-- arphaxad -->
<g id="node1" class="node"><title>arphaxad</title>
<g id="a_node1"><a xlink:href="arphaxad.html" xlink:title="Arphaxad" target="_top">
<ellipse fill="lightblue" stroke="blue" stroke-width="2" cx="45.496" cy="-135" rx="45.4919" ry="18"/>
<text text-anchor="middle" x="45.496" y="-131.3" font-family="Times,serif" font-size="14.00">Arphaxad</text>
</a>
</g>
</g>
<!-- shelah -->
<g id="node2" class="node"><title>shelah</title>
<g id="a_node2"><a xlink:href="shelah.html" xlink:title="Shelah" target="_top">
<ellipse fill="none" stroke="blue" cx="45.496" cy="-18" rx="34.394" ry="18"/>
<text text-anchor="middle" x="45.496" y="-14.3" font-family="Times,serif" font-size="14.00">Shelah</text>
</a>
</g>
</g>
<!-- arphaxad&#45;&gt;shelah -->
<g id="edge1" class="edge"><title>arphaxad&#45;&gt;shelah</title>
<path fill="none" stroke="black" d="M45.496,-116.534C45.496,-97.9357 45.496,-68.2442 45.496,-46.5014"/>
<polygon fill="black" stroke="black" points="48.9961,-46.2536 45.496,-36.2536 41.9961,-46.2536 48.9961,-46.2536"/>
<text text-anchor="middle" x="74.496" y="-87.8" font-family="Times,serif" font-size="14.00">Gen 10:24</text>
<text text-anchor="middle" x="74.496" y="-72.8" font-family="Times,serif" font-size="14.00">Gen 11:12</text>
<text text-anchor="middle" x="74.496" y="-57.8" font-family="Times,serif" font-size="14.00">Luk 3:36</text>
</g>
<!-- shem -->
<g id="node3" class="node"><title>shem</title>
<g id="a_node3"><a xlink:href="shem.html" xlink:title="Shem" target="_top">
<ellipse fill="none" stroke="blue" cx="45.496" cy="-252" rx="31.3957" ry="18"/>
<text text-anchor="middle" x="45.496" y="-248.3" font-family="Times,serif" font-size="14.00">Shem</text>
</a>
</g>
</g>
<!-- shem&#45;&gt;arphaxad -->
<g id="edge2" class="edge"><title>shem&#45;&gt;arphaxad</title>
<path fill="none" stroke="black" d="M45.496,-233.534C45.496,-214.936 45.496,-185.244 45.496,-163.501"/>
<polygon fill="black" stroke="black" points="48.9961,-163.254 45.496,-153.254 41.9961,-163.254 48.9961,-163.254"/>
<text text-anchor="middle" x="74.496" y="-204.8" font-family="Times,serif" font-size="14.00">Gen 10:22</text>
<text text-anchor="middle" x="74.496" y="-189.8" font-family="Times,serif" font-size="14.00">Gen 11:10</text>
<text text-anchor="middle" x="74.496" y="-174.8" font-family="Times,serif" font-size="14.00">Luk 3:36</text>
</g>
</g>
</svg>
