<?xml version="1.0" encoding="UTF-8" standalone="no"?>
<!DOCTYPE svg PUBLIC "-//W3C//DTD SVG 1.1//EN"
 "http://www.w3.org/Graphics/SVG/1.1/DTD/svg11.dtd">
<!-- Generated by graphviz version 2.38.0 (20140413.2041)
 -->
<!-- Title: ancestry Pages: 1 -->
<svg width="185pt" height="146pt"
 viewBox="0.00 0.00 184.55 146.00" xmlns="http://www.w3.org/2000/svg" xmlns:xlink="http://www.w3.org/1999/xlink">
<g id="graph0" class="graph" transform="scale(1 1) rotate(0) translate(4 142)">
<title>ancestry</title>
<polygon fill="white" stroke="none" points="-4,4 -4,-142 180.547,-142 180.547,4 -4,4"/>
<!-- asher -->
<g id="node1" class="node"><title>asher</title>
<g id="a_node1"><a xlink:href="asher.html" xlink:title="Asher" target="_top">
<ellipse fill="lightblue" stroke="blue" stroke-width="2" cx="75.5473" cy="-18" rx="31.6951" ry="18"/>
<text text-anchor="middle" x="75.5473" y="-14.3" font-family="Times,serif" font-size="14.00">Asher</text>
</a>
</g>
</g>
<!-- jacob -->
<g id="node2" class="node"><title>jacob</title>
<g id="a_node2"><a xlink:href="jacob.html" xlink:title="Jacob" target="_top">
<ellipse fill="none" stroke="blue" cx="30.5473" cy="-120" rx="30.5947" ry="18"/>
<text text-anchor="middle" x="30.5473" y="-116.3" font-family="Times,serif" font-size="14.00">Jacob</text>
</a>
</g>
</g>
<!-- jacob&#45;&gt;asher -->
<g id="edge1" class="edge"><title>jacob&#45;&gt;asher</title>
<path fill="none" stroke="black" d="M32.2152,-101.948C34.0653,-88.3727 37.8719,-69.1961 45.5473,-54 47.675,-49.7875 50.4142,-45.6586 53.3704,-41.7983"/>
<polygon fill="black" stroke="black" points="56.2929,-43.7602 60.0353,-33.8483 50.9286,-39.263 56.2929,-43.7602"/>
<text text-anchor="middle" x="74.5473" y="-72.8" font-family="Times,serif" font-size="14.00">1 Ch 2:2</text>
<text text-anchor="middle" x="74.5473" y="-57.8" font-family="Times,serif" font-size="14.00">Gen 30:12</text>
</g>
<!-- zilpah -->
<g id="node3" class="node"><title>zilpah</title>
<g id="a_node3"><a xlink:href="zilpah.html" xlink:title="Zilpah" target="_top">
<ellipse fill="none" stroke="red" cx="130.547" cy="-120" rx="33.5952" ry="18"/>
<text text-anchor="middle" x="130.547" y="-116.3" font-family="Times,serif" font-size="14.00">Zilpah</text>
</a>
</g>
</g>
<!-- jacob&#45;&gt;zilpah -->
<g id="edge3" class="edge"><title>jacob&#45;&gt;zilpah</title>
<path fill="none" stroke="red" d="M61.4067,-120C73.1102,-120 84.8136,-120 96.5171,-120"/>
</g>
<!-- zilpah&#45;&gt;asher -->
<g id="edge2" class="edge"><title>zilpah&#45;&gt;asher</title>
<path fill="none" stroke="black" d="M125.005,-102.091C120.238,-88.5974 112.693,-69.4599 103.547,-54 101.211,-50.0507 98.4651,-46.0637 95.6227,-42.2659"/>
<polygon fill="black" stroke="black" points="98.3106,-40.0222 89.3668,-34.3424 92.8166,-44.3599 98.3106,-40.0222"/>
<text text-anchor="middle" x="147.547" y="-65.3" font-family="Times,serif" font-size="14.00">Gen 30:12</text>
</g>
</g>
</svg>
