<?xml version="1.0" encoding="UTF-8" standalone="no"?>
<!DOCTYPE svg PUBLIC "-//W3C//DTD SVG 1.1//EN"
 "http://www.w3.org/Graphics/SVG/1.1/DTD/svg11.dtd">
<!-- Generated by graphviz version 2.38.0 (20140413.2041)
 -->
<!-- Title: ancestry Pages: 1 -->
<svg width="168pt" height="218pt"
 viewBox="0.00 0.00 168.20 218.00" xmlns="http://www.w3.org/2000/svg" xmlns:xlink="http://www.w3.org/1999/xlink">
<g id="graph0" class="graph" transform="scale(1 1) rotate(0) translate(4 214)">
<title>ancestry</title>
<polygon fill="white" stroke="none" points="-4,4 -4,-214 164.197,-214 164.197,4 -4,4"/>
<!-- ashur -->
<g id="node1" class="node"><title>ashur</title>
<g id="a_node1"><a xlink:href="ashur.html" xlink:title="Ashur" target="_top">
<ellipse fill="lightblue" stroke="blue" stroke-width="2" cx="75.1972" cy="-105" rx="32.4942" ry="18"/>
<text text-anchor="middle" x="75.1972" y="-101.3" font-family="Times,serif" font-size="14.00">Ashur</text>
</a>
</g>
</g>
<!-- tekoa -->
<g id="node4" class="node"><title>tekoa</title>
<g id="a_node4"><a xlink:href="tekoa.html" xlink:title="Tekoa" target="_top">
<ellipse fill="none" stroke="blue" cx="75.1972" cy="-18" rx="32.4942" ry="18"/>
<text text-anchor="middle" x="75.1972" y="-14.3" font-family="Times,serif" font-size="14.00">Tekoa</text>
</a>
</g>
</g>
<!-- ashur&#45;&gt;tekoa -->
<g id="edge1" class="edge"><title>ashur&#45;&gt;tekoa</title>
<path fill="none" stroke="black" d="M75.1972,-86.799C75.1972,-75.1626 75.1972,-59.5479 75.1972,-46.2368"/>
<polygon fill="black" stroke="black" points="78.6973,-46.1754 75.1972,-36.1754 71.6973,-46.1755 78.6973,-46.1754"/>
<text text-anchor="middle" x="102.697" y="-57.8" font-family="Times,serif" font-size="14.00">1 Ch 2:24</text>
</g>
<!-- caleb -->
<g id="node2" class="node"><title>caleb</title>
<g id="a_node2"><a xlink:href="caleb.html" xlink:title="Caleb" target="_top">
<ellipse fill="none" stroke="blue" cx="31.1972" cy="-192" rx="31.3957" ry="18"/>
<text text-anchor="middle" x="31.1972" y="-188.3" font-family="Times,serif" font-size="14.00">Caleb</text>
</a>
</g>
</g>
<!-- caleb&#45;&gt;ashur -->
<g id="edge2" class="edge"><title>caleb&#45;&gt;ashur</title>
<path fill="none" stroke="black" d="M32.644,-174.01C34.0451,-163.949 36.7974,-151.215 42.1972,-141 44.6231,-136.411 47.8164,-131.987 51.2614,-127.918"/>
<polygon fill="black" stroke="black" points="53.8297,-130.296 58.0609,-120.583 48.6959,-125.537 53.8297,-130.296"/>
<text text-anchor="middle" x="69.6972" y="-144.8" font-family="Times,serif" font-size="14.00">1 Ch 2:24</text>
</g>
<!-- hezrons_wife_ephrath -->
<g id="node3" class="node"><title>hezrons_wife_ephrath</title>
<g id="a_node3"><a xlink:href="hezrons_wife_ephrath.html" xlink:title="Ephrath" target="_top">
<ellipse fill="none" stroke="red" cx="119.197" cy="-192" rx="38.1938" ry="18"/>
<text text-anchor="middle" x="119.197" y="-188.3" font-family="Times,serif" font-size="14.00">Ephrath</text>
</a>
</g>
</g>
<!-- hezrons_wife_ephrath&#45;&gt;ashur -->
<g id="edge3" class="edge"><title>hezrons_wife_ephrath&#45;&gt;ashur</title>
<path fill="none" stroke="black" d="M112.465,-174.042C108.387,-164.223 102.887,-151.723 97.1972,-141 95.4101,-137.632 93.4173,-134.155 91.3811,-130.758"/>
<polygon fill="black" stroke="black" points="94.2479,-128.74 86.0015,-122.088 88.2998,-132.43 94.2479,-128.74"/>
<text text-anchor="middle" x="132.697" y="-144.8" font-family="Times,serif" font-size="14.00">1 Ch 2:24</text>
</g>
</g>
</svg>
