<?xml version="1.0" encoding="UTF-8" standalone="no"?>
<!DOCTYPE svg PUBLIC "-//W3C//DTD SVG 1.1//EN"
 "http://www.w3.org/Graphics/SVG/1.1/DTD/svg11.dtd">
<!-- Generated by graphviz version 2.38.0 (20140413.2041)
 -->
<!-- Title: ancestry Pages: 1 -->
<svg width="206pt" height="131pt"
 viewBox="0.00 0.00 206.24 131.00" xmlns="http://www.w3.org/2000/svg" xmlns:xlink="http://www.w3.org/1999/xlink">
<g id="graph0" class="graph" transform="scale(1 1) rotate(0) translate(4 127)">
<title>ancestry</title>
<polygon fill="white" stroke="none" points="-4,4 -4,-127 202.243,-127 202.243,4 -4,4"/>
<!-- atarah -->
<g id="node1" class="node"><title>atarah</title>
<g id="a_node1"><a xlink:href="atarah.html" xlink:title="Atarah" target="_top">
<ellipse fill="lightpink" stroke="red" stroke-width="2" cx="163.796" cy="-105" rx="34.394" ry="18"/>
<text text-anchor="middle" x="163.796" y="-101.3" font-family="Times,serif" font-size="14.00">Atarah</text>
</a>
</g>
</g>
<!-- onam -->
<g id="node3" class="node"><title>onam</title>
<g id="a_node3"><a xlink:href="onam.html" xlink:title="Onam" target="_top">
<ellipse fill="none" stroke="blue" cx="109.796" cy="-18" rx="32.4942" ry="18"/>
<text text-anchor="middle" x="109.796" y="-14.3" font-family="Times,serif" font-size="14.00">Onam</text>
</a>
</g>
</g>
<!-- atarah&#45;&gt;onam -->
<g id="edge1" class="edge"><title>atarah&#45;&gt;onam</title>
<path fill="none" stroke="black" d="M153.384,-87.6111C145.54,-75.2642 134.646,-58.1167 125.712,-44.0534"/>
<polygon fill="black" stroke="black" points="128.492,-41.9024 120.176,-35.3385 122.584,-45.6561 128.492,-41.9024"/>
<text text-anchor="middle" x="167.296" y="-57.8" font-family="Times,serif" font-size="14.00">1 Ch 2:26</text>
</g>
<!-- jerahmeel -->
<g id="node2" class="node"><title>jerahmeel</title>
<g id="a_node2"><a xlink:href="jerahmeel.html" xlink:title="Jerahmeel" target="_top">
<ellipse fill="none" stroke="blue" cx="46.7958" cy="-105" rx="46.5926" ry="18"/>
<text text-anchor="middle" x="46.7958" y="-101.3" font-family="Times,serif" font-size="14.00">Jerahmeel</text>
</a>
</g>
</g>
<!-- jerahmeel&#45;&gt;atarah -->
<g id="edge3" class="edge"><title>jerahmeel&#45;&gt;atarah</title>
<path fill="none" stroke="red" d="M93.8701,-105C105.615,-105 117.361,-105 129.106,-105"/>
</g>
<!-- jerahmeel&#45;&gt;onam -->
<g id="edge2" class="edge"><title>jerahmeel&#45;&gt;onam</title>
<path fill="none" stroke="black" d="M54.3589,-87.0209C59.2202,-76.9644 66.0619,-64.2306 73.7958,-54 77.2127,-49.4802 81.2153,-44.9992 85.2859,-40.8287"/>
<polygon fill="black" stroke="black" points="87.8622,-43.2049 92.5746,-33.7158 82.9732,-38.1951 87.8622,-43.2049"/>
<text text-anchor="middle" x="101.296" y="-57.8" font-family="Times,serif" font-size="14.00">1 Ch 2:26</text>
</g>
</g>
</svg>
