<?xml version="1.0" encoding="UTF-8" standalone="no"?>
<!DOCTYPE svg PUBLIC "-//W3C//DTD SVG 1.1//EN"
 "http://www.w3.org/Graphics/SVG/1.1/DTD/svg11.dtd">
<!-- Generated by graphviz version 2.38.0 (20140413.2041)
 -->
<!-- Title: ancestry Pages: 1 -->
<svg width="167pt" height="218pt"
 viewBox="0.00 0.00 167.25 218.00" xmlns="http://www.w3.org/2000/svg" xmlns:xlink="http://www.w3.org/1999/xlink">
<g id="graph0" class="graph" transform="scale(1 1) rotate(0) translate(4 214)">
<title>ancestry</title>
<polygon fill="white" stroke="none" points="-4,4 -4,-214 163.247,-214 163.247,4 -4,4"/>
<!-- ahlai -->
<g id="node1" class="node"><title>ahlai</title>
<g id="a_node1"><a xlink:href="ahlai.html" xlink:title="Ahlai" target="_top">
<ellipse fill="none" stroke="red" cx="124.247" cy="-192" rx="30.5947" ry="18"/>
<text text-anchor="middle" x="124.247" y="-188.3" font-family="Times,serif" font-size="14.00">Ahlai</text>
</a>
</g>
</g>
<!-- attai -->
<g id="node2" class="node"><title>attai</title>
<g id="a_node2"><a xlink:href="attai.html" xlink:title="Attai" target="_top">
<ellipse fill="lightblue" stroke="blue" stroke-width="2" cx="78.2474" cy="-105" rx="28.6953" ry="18"/>
<text text-anchor="middle" x="78.2474" y="-101.3" font-family="Times,serif" font-size="14.00">Attai</text>
</a>
</g>
</g>
<!-- ahlai&#45;&gt;attai -->
<g id="edge1" class="edge"><title>ahlai&#45;&gt;attai</title>
<path fill="none" stroke="black" d="M115.378,-174.611C108.76,-162.382 99.593,-145.443 92.0236,-131.456"/>
<polygon fill="black" stroke="black" points="94.9271,-129.467 87.0894,-122.339 88.7708,-132.799 94.9271,-129.467"/>
<text text-anchor="middle" x="131.747" y="-144.8" font-family="Times,serif" font-size="14.00">1 Ch 2:35</text>
</g>
<!-- attais_nathan -->
<g id="node3" class="node"><title>attais_nathan</title>
<g id="a_node3"><a xlink:href="attais_nathan.html" xlink:title="Nathan" target="_top">
<ellipse fill="none" stroke="blue" cx="78.2474" cy="-18" rx="36.2938" ry="18"/>
<text text-anchor="middle" x="78.2474" y="-14.3" font-family="Times,serif" font-size="14.00">Nathan</text>
</a>
</g>
</g>
<!-- attai&#45;&gt;attais_nathan -->
<g id="edge2" class="edge"><title>attai&#45;&gt;attais_nathan</title>
<path fill="none" stroke="black" d="M78.2474,-86.799C78.2474,-75.1626 78.2474,-59.5479 78.2474,-46.2368"/>
<polygon fill="black" stroke="black" points="81.7475,-46.1754 78.2474,-36.1754 74.7475,-46.1755 81.7475,-46.1754"/>
<text text-anchor="middle" x="105.747" y="-57.8" font-family="Times,serif" font-size="14.00">1 Ch 2:36</text>
</g>
<!-- jarha -->
<g id="node4" class="node"><title>jarha</title>
<g id="a_node4"><a xlink:href="jarha.html" xlink:title="Jarha" target="_top">
<ellipse fill="none" stroke="blue" cx="29.2474" cy="-192" rx="29.4969" ry="18"/>
<text text-anchor="middle" x="29.2474" y="-188.3" font-family="Times,serif" font-size="14.00">Jarha</text>
</a>
</g>
</g>
<!-- jarha&#45;&gt;ahlai -->
<g id="edge4" class="edge"><title>jarha&#45;&gt;ahlai</title>
<path fill="none" stroke="red" d="M58.5638,-192C70.1953,-192 81.8268,-192 93.4582,-192"/>
</g>
<!-- jarha&#45;&gt;attai -->
<g id="edge3" class="edge"><title>jarha&#45;&gt;attai</title>
<path fill="none" stroke="black" d="M30.4351,-173.867C31.7444,-163.756 34.491,-151.019 40.2474,-141 43.3389,-135.619 47.535,-130.591 52.0128,-126.117"/>
<polygon fill="black" stroke="black" points="54.6306,-128.467 59.6693,-119.147 49.9183,-123.29 54.6306,-128.467"/>
<text text-anchor="middle" x="67.7474" y="-144.8" font-family="Times,serif" font-size="14.00">1 Ch 2:35</text>
</g>
</g>
</svg>
