<?xml version="1.0" encoding="UTF-8" standalone="no"?>
<!DOCTYPE svg PUBLIC "-//W3C//DTD SVG 1.1//EN"
 "http://www.w3.org/Graphics/SVG/1.1/DTD/svg11.dtd">
<!-- Generated by graphviz version 2.38.0 (20140413.2041)
 -->
<!-- Title: ancestry Pages: 1 -->
<svg width="86pt" height="218pt"
 viewBox="0.00 0.00 86.35 218.00" xmlns="http://www.w3.org/2000/svg" xmlns:xlink="http://www.w3.org/1999/xlink">
<g id="graph0" class="graph" transform="scale(1 1) rotate(0) translate(4 214)">
<title>ancestry</title>
<polygon fill="white" stroke="none" points="-4,4 -4,-214 82.3466,-214 82.3466,4 -4,4"/>
<!-- azariah -->
<g id="node1" class="node"><title>azariah</title>
<g id="a_node1"><a xlink:href="azariah.html" xlink:title="Azariah" target="_top">
<ellipse fill="lightblue" stroke="blue" stroke-width="2" cx="38.3466" cy="-105" rx="38.1938" ry="18"/>
<text text-anchor="middle" x="38.3466" y="-101.3" font-family="Times,serif" font-size="14.00">Azariah</text>
</a>
</g>
</g>
<!-- seraiah -->
<g id="node3" class="node"><title>seraiah</title>
<g id="a_node3"><a xlink:href="seraiah.html" xlink:title="Seraiah" target="_top">
<ellipse fill="none" stroke="blue" cx="38.3466" cy="-18" rx="37.0935" ry="18"/>
<text text-anchor="middle" x="38.3466" y="-14.3" font-family="Times,serif" font-size="14.00">Seraiah</text>
</a>
</g>
</g>
<!-- azariah&#45;&gt;seraiah -->
<g id="edge1" class="edge"><title>azariah&#45;&gt;seraiah</title>
<path fill="none" stroke="black" d="M38.3466,-86.799C38.3466,-75.1626 38.3466,-59.5479 38.3466,-46.2368"/>
<polygon fill="black" stroke="black" points="41.8467,-46.1754 38.3466,-36.1754 34.8467,-46.1755 41.8467,-46.1754"/>
<text text-anchor="middle" x="58.3466" y="-57.8" font-family="Times,serif" font-size="14.00">Ezr 7:1</text>
</g>
<!-- hilkiah -->
<g id="node2" class="node"><title>hilkiah</title>
<g id="a_node2"><a xlink:href="hilkiah.html" xlink:title="Hilkiah" target="_top">
<ellipse fill="none" stroke="blue" cx="38.3466" cy="-192" rx="37.0935" ry="18"/>
<text text-anchor="middle" x="38.3466" y="-188.3" font-family="Times,serif" font-size="14.00">Hilkiah</text>
</a>
</g>
</g>
<!-- hilkiah&#45;&gt;azariah -->
<g id="edge2" class="edge"><title>hilkiah&#45;&gt;azariah</title>
<path fill="none" stroke="black" d="M38.3466,-173.799C38.3466,-162.163 38.3466,-146.548 38.3466,-133.237"/>
<polygon fill="black" stroke="black" points="41.8467,-133.175 38.3466,-123.175 34.8467,-133.175 41.8467,-133.175"/>
<text text-anchor="middle" x="58.3466" y="-144.8" font-family="Times,serif" font-size="14.00">Ezr 7:1</text>
</g>
</g>
</svg>
