<?xml version="1.0" encoding="UTF-8" standalone="no"?>
<!DOCTYPE svg PUBLIC "-//W3C//DTD SVG 1.1//EN"
 "http://www.w3.org/Graphics/SVG/1.1/DTD/svg11.dtd">
<!-- Generated by graphviz version 2.38.0 (20140413.2041)
 -->
<!-- Title: ancestry Pages: 1 -->
<svg width="98pt" height="218pt"
 viewBox="0.00 0.00 98.00 218.00" xmlns="http://www.w3.org/2000/svg" xmlns:xlink="http://www.w3.org/1999/xlink">
<g id="graph0" class="graph" transform="scale(1 1) rotate(0) translate(4 214)">
<title>ancestry</title>
<polygon fill="white" stroke="none" points="-4,4 -4,-214 93.9965,-214 93.9965,4 -4,4"/>
<!-- abiuds_eliakim -->
<g id="node1" class="node"><title>abiuds_eliakim</title>
<g id="a_node1"><a xlink:href="abiuds_eliakim.html" xlink:title="Eliakim" target="_top">
<ellipse fill="none" stroke="blue" cx="38.9965" cy="-192" rx="38.9931" ry="18"/>
<text text-anchor="middle" x="38.9965" y="-188.3" font-family="Times,serif" font-size="14.00">Eliakim</text>
</a>
</g>
</g>
<!-- azor -->
<g id="node2" class="node"><title>azor</title>
<g id="a_node2"><a xlink:href="azor.html" xlink:title="Azor" target="_top">
<ellipse fill="lightblue" stroke="blue" stroke-width="2" cx="38.9965" cy="-105" rx="28.6953" ry="18"/>
<text text-anchor="middle" x="38.9965" y="-101.3" font-family="Times,serif" font-size="14.00">Azor</text>
</a>
</g>
</g>
<!-- abiuds_eliakim&#45;&gt;azor -->
<g id="edge1" class="edge"><title>abiuds_eliakim&#45;&gt;azor</title>
<path fill="none" stroke="black" d="M38.9965,-173.799C38.9965,-162.163 38.9965,-146.548 38.9965,-133.237"/>
<polygon fill="black" stroke="black" points="42.4966,-133.175 38.9965,-123.175 35.4966,-133.175 42.4966,-133.175"/>
<text text-anchor="middle" x="64.4965" y="-144.8" font-family="Times,serif" font-size="14.00">Mat 1:13</text>
</g>
<!-- zadok -->
<g id="node3" class="node"><title>zadok</title>
<g id="a_node3"><a xlink:href="zadok.html" xlink:title="Zadok" target="_top">
<ellipse fill="none" stroke="blue" cx="38.9965" cy="-18" rx="33.2948" ry="18"/>
<text text-anchor="middle" x="38.9965" y="-14.3" font-family="Times,serif" font-size="14.00">Zadok</text>
</a>
</g>
</g>
<!-- azor&#45;&gt;zadok -->
<g id="edge2" class="edge"><title>azor&#45;&gt;zadok</title>
<path fill="none" stroke="black" d="M38.9965,-86.799C38.9965,-75.1626 38.9965,-59.5479 38.9965,-46.2368"/>
<polygon fill="black" stroke="black" points="42.4966,-46.1754 38.9965,-36.1754 35.4966,-46.1755 42.4966,-46.1754"/>
<text text-anchor="middle" x="64.4965" y="-57.8" font-family="Times,serif" font-size="14.00">Mat 1:14</text>
</g>
</g>
</svg>
