<?xml version="1.0" encoding="UTF-8" standalone="no"?>
<!DOCTYPE svg PUBLIC "-//W3C//DTD SVG 1.1//EN"
 "http://www.w3.org/Graphics/SVG/1.1/DTD/svg11.dtd">
<!-- Generated by graphviz version 2.38.0 (20140413.2041)
 -->
<!-- Title: ancestry Pages: 1 -->
<svg width="251pt" height="131pt"
 viewBox="0.00 0.00 251.15 131.00" xmlns="http://www.w3.org/2000/svg" xmlns:xlink="http://www.w3.org/1999/xlink">
<g id="graph0" class="graph" transform="scale(1 1) rotate(0) translate(4 127)">
<title>ancestry</title>
<polygon fill="white" stroke="none" points="-4,4 -4,-127 247.147,-127 247.147,4 -4,4"/>
<!-- ardon -->
<g id="node1" class="node"><title>ardon</title>
<g id="a_node1"><a xlink:href="ardon.html" xlink:title="Ardon" target="_top">
<ellipse fill="none" stroke="blue" cx="33.1471" cy="-18" rx="33.2948" ry="18"/>
<text text-anchor="middle" x="33.1471" y="-14.3" font-family="Times,serif" font-size="14.00">Ardon</text>
</a>
</g>
</g>
<!-- azubah -->
<g id="node2" class="node"><title>azubah</title>
<g id="a_node2"><a xlink:href="azubah.html" xlink:title="Azubah" target="_top">
<ellipse fill="lightpink" stroke="red" stroke-width="2" cx="117.147" cy="-105" rx="38.1938" ry="18"/>
<text text-anchor="middle" x="117.147" y="-101.3" font-family="Times,serif" font-size="14.00">Azubah</text>
</a>
</g>
</g>
<!-- azubah&#45;&gt;ardon -->
<g id="edge1" class="edge"><title>azubah&#45;&gt;ardon</title>
<path fill="none" stroke="black" d="M90.1745,-92.1906C79.2207,-86.4007 67.0724,-78.59 58.1471,-69 51.7789,-62.1576 46.6639,-53.3866 42.7604,-45.1066"/>
<polygon fill="black" stroke="black" points="45.9035,-43.5561 38.7322,-35.7572 39.4748,-46.326 45.9035,-43.5561"/>
<text text-anchor="middle" x="85.6471" y="-57.8" font-family="Times,serif" font-size="14.00">1 Ch 2:18</text>
</g>
<!-- jesher -->
<g id="node3" class="node"><title>jesher</title>
<g id="a_node3"><a xlink:href="jesher.html" xlink:title="Jesher" target="_top">
<ellipse fill="none" stroke="blue" cx="117.147" cy="-18" rx="32.4942" ry="18"/>
<text text-anchor="middle" x="117.147" y="-14.3" font-family="Times,serif" font-size="14.00">Jesher</text>
</a>
</g>
</g>
<!-- azubah&#45;&gt;jesher -->
<g id="edge2" class="edge"><title>azubah&#45;&gt;jesher</title>
<path fill="none" stroke="black" d="M117.147,-86.799C117.147,-75.1626 117.147,-59.5479 117.147,-46.2368"/>
<polygon fill="black" stroke="black" points="120.647,-46.1754 117.147,-36.1754 113.647,-46.1755 120.647,-46.1754"/>
<text text-anchor="middle" x="144.647" y="-57.8" font-family="Times,serif" font-size="14.00">1 Ch 2:18</text>
</g>
<!-- shobab -->
<g id="node4" class="node"><title>shobab</title>
<g id="a_node4"><a xlink:href="shobab.html" xlink:title="Shobab" target="_top">
<ellipse fill="none" stroke="blue" cx="205.147" cy="-18" rx="37.0935" ry="18"/>
<text text-anchor="middle" x="205.147" y="-14.3" font-family="Times,serif" font-size="14.00">Shobab</text>
</a>
</g>
</g>
<!-- azubah&#45;&gt;shobab -->
<g id="edge3" class="edge"><title>azubah&#45;&gt;shobab</title>
<path fill="none" stroke="black" d="M143.834,-91.9164C154.74,-86.0803 166.929,-78.3091 176.147,-69 183.021,-62.0577 188.861,-53.1641 193.46,-44.8074"/>
<polygon fill="black" stroke="black" points="196.664,-46.2287 198.112,-35.7333 190.435,-43.0348 196.664,-46.2287"/>
<text text-anchor="middle" x="215.647" y="-57.8" font-family="Times,serif" font-size="14.00">1 Ch 2:18</text>
</g>
</g>
</svg>
