<?xml version="1.0" encoding="UTF-8" standalone="no"?>
<!DOCTYPE svg PUBLIC "-//W3C//DTD SVG 1.1//EN"
 "http://www.w3.org/Graphics/SVG/1.1/DTD/svg11.dtd">
<!-- Generated by graphviz version 2.38.0 (20140413.2041)
 -->
<!-- Title: ancestry Pages: 1 -->
<svg width="207pt" height="131pt"
 viewBox="0.00 0.00 206.95 131.00" xmlns="http://www.w3.org/2000/svg" xmlns:xlink="http://www.w3.org/1999/xlink">
<g id="graph0" class="graph" transform="scale(1 1) rotate(0) translate(4 127)">
<title>ancestry</title>
<polygon fill="white" stroke="none" points="-4,4 -4,-127 202.948,-127 202.948,4 -4,4"/>
<!-- bashemath -->
<g id="node1" class="node"><title>bashemath</title>
<g id="a_node1"><a xlink:href="bashemath.html" xlink:title="Bashemath" target="_top">
<ellipse fill="lightpink" stroke="red" stroke-width="2" cx="140.948" cy="-18" rx="50.0912" ry="18"/>
<text text-anchor="middle" x="140.948" y="-14.3" font-family="Times,serif" font-size="14.00">Bashemath</text>
</a>
</g>
</g>
<!-- elon -->
<g id="node2" class="node"><title>elon</title>
<g id="a_node2"><a xlink:href="elon.html" xlink:title="Elon" target="_top">
<ellipse fill="none" stroke="blue" cx="140.948" cy="-105" rx="27.0966" ry="18"/>
<text text-anchor="middle" x="140.948" y="-101.3" font-family="Times,serif" font-size="14.00">Elon</text>
</a>
</g>
</g>
<!-- elon&#45;&gt;bashemath -->
<g id="edge1" class="edge"><title>elon&#45;&gt;bashemath</title>
<path fill="none" stroke="black" d="M140.948,-86.799C140.948,-75.1626 140.948,-59.5479 140.948,-46.2368"/>
<polygon fill="black" stroke="black" points="144.448,-46.1754 140.948,-36.1754 137.448,-46.1755 144.448,-46.1754"/>
<text text-anchor="middle" x="169.948" y="-57.8" font-family="Times,serif" font-size="14.00">Gen 26:34</text>
</g>
<!-- esau -->
<g id="node3" class="node"><title>esau</title>
<g id="a_node3"><a xlink:href="esau.html" xlink:title="Esau" target="_top">
<ellipse fill="none" stroke="blue" cx="27.9475" cy="-18" rx="27.8951" ry="18"/>
<text text-anchor="middle" x="27.9475" y="-14.3" font-family="Times,serif" font-size="14.00">Esau</text>
</a>
</g>
</g>
<!-- esau&#45;&gt;bashemath -->
<g id="edge2" class="edge"><title>esau&#45;&gt;bashemath</title>
<path fill="none" stroke="red" d="M56.1975,-18C67.6741,-18 79.1506,-18 90.6272,-18"/>
</g>
</g>
</svg>
