<?xml version="1.0" encoding="UTF-8" standalone="no"?>
<!DOCTYPE svg PUBLIC "-//W3C//DTD SVG 1.1//EN"
 "http://www.w3.org/Graphics/SVG/1.1/DTD/svg11.dtd">
<!-- Generated by graphviz version 2.38.0 (20140413.2041)
 -->
<!-- Title: ancestry Pages: 1 -->
<svg width="199pt" height="131pt"
 viewBox="0.00 0.00 198.99 131.00" xmlns="http://www.w3.org/2000/svg" xmlns:xlink="http://www.w3.org/1999/xlink">
<g id="graph0" class="graph" transform="scale(1 1) rotate(0) translate(4 127)">
<title>ancestry</title>
<polygon fill="white" stroke="none" points="-4,4 -4,-127 194.993,-127 194.993,4 -4,4"/>
<!-- bathsheba -->
<g id="node1" class="node"><title>bathsheba</title>
<g id="a_node1"><a xlink:href="bathsheba.html" xlink:title="Bathsheba" target="_top">
<ellipse fill="lightpink" stroke="red" stroke-width="2" cx="143.547" cy="-105" rx="47.3916" ry="18"/>
<text text-anchor="middle" x="143.547" y="-101.3" font-family="Times,serif" font-size="14.00">Bathsheba</text>
</a>
</g>
</g>
<!-- solomon -->
<g id="node2" class="node"><title>solomon</title>
<g id="a_node2"><a xlink:href="solomon.html" xlink:title="Solomon" target="_top">
<ellipse fill="none" stroke="blue" cx="143.547" cy="-18" rx="42.7926" ry="18"/>
<text text-anchor="middle" x="143.547" y="-14.3" font-family="Times,serif" font-size="14.00">Solomon</text>
</a>
</g>
</g>
<!-- bathsheba&#45;&gt;solomon -->
<g id="edge1" class="edge"><title>bathsheba&#45;&gt;solomon</title>
<path fill="none" stroke="black" d="M143.547,-86.799C143.547,-75.1626 143.547,-59.5479 143.547,-46.2368"/>
<polygon fill="black" stroke="black" points="147.047,-46.1754 143.547,-36.1754 140.047,-46.1755 147.047,-46.1754"/>
<text text-anchor="middle" x="165.547" y="-57.8" font-family="Times,serif" font-size="14.00">Mat 1:6</text>
</g>
<!-- uriah -->
<g id="node3" class="node"><title>uriah</title>
<g id="a_node3"><a xlink:href="uriah.html" xlink:title="Uriah" target="_top">
<ellipse fill="none" stroke="blue" cx="30.5473" cy="-105" rx="30.5947" ry="18"/>
<text text-anchor="middle" x="30.5473" y="-101.3" font-family="Times,serif" font-size="14.00">Uriah</text>
</a>
</g>
</g>
<!-- uriah&#45;&gt;bathsheba -->
<g id="edge2" class="edge"><title>uriah&#45;&gt;bathsheba</title>
<path fill="none" stroke="red" d="M61.4457,-105C72.9913,-105 84.5368,-105 96.0823,-105"/>
</g>
</g>
</svg>
