<?xml version="1.0" encoding="UTF-8" standalone="no"?>
<!DOCTYPE svg PUBLIC "-//W3C//DTD SVG 1.1//EN"
 "http://www.w3.org/Graphics/SVG/1.1/DTD/svg11.dtd">
<!-- Generated by graphviz version 2.38.0 (20140413.2041)
 -->
<!-- Title: ancestry Pages: 1 -->
<svg width="226pt" height="218pt"
 viewBox="0.00 0.00 225.90 218.00" xmlns="http://www.w3.org/2000/svg" xmlns:xlink="http://www.w3.org/1999/xlink">
<g id="graph0" class="graph" transform="scale(1 1) rotate(0) translate(4 214)">
<title>ancestry</title>
<polygon fill="white" stroke="none" points="-4,4 -4,-214 221.897,-214 221.897,4 -4,4"/>
<!-- bathshua -->
<g id="node1" class="node"><title>bathshua</title>
<g id="a_node1"><a xlink:href="bathshua.html" xlink:title="Bathshua" target="_top">
<ellipse fill="lightpink" stroke="red" stroke-width="2" cx="106" cy="-105" rx="43.5923" ry="18"/>
<text text-anchor="middle" x="106" y="-101.3" font-family="Times,serif" font-size="14.00">Bathshua</text>
</a>
</g>
</g>
<!-- er -->
<g id="node3" class="node"><title>er</title>
<g id="a_node3"><a xlink:href="er.html" xlink:title="Er" target="_top">
<ellipse fill="none" stroke="blue" cx="27" cy="-18" rx="27" ry="18"/>
<text text-anchor="middle" x="27" y="-14.3" font-family="Times,serif" font-size="14.00">Er</text>
</a>
</g>
</g>
<!-- bathshua&#45;&gt;er -->
<g id="edge1" class="edge"><title>bathshua&#45;&gt;er</title>
<path fill="none" stroke="black" d="M80.5497,-90.3343C71.4196,-84.5891 61.531,-77.3018 54,-69 47.5467,-61.8861 42.0967,-52.9514 37.8203,-44.6098"/>
<polygon fill="black" stroke="black" points="40.9707,-43.0849 33.4998,-35.5724 34.6553,-46.1041 40.9707,-43.0849"/>
<text text-anchor="middle" x="78" y="-57.8" font-family="Times,serif" font-size="14.00">1 Ch 2:3</text>
</g>
<!-- judahs_shelah -->
<g id="node4" class="node"><title>judahs_shelah</title>
<g id="a_node4"><a xlink:href="judahs_shelah.html" xlink:title="Shelah" target="_top">
<ellipse fill="none" stroke="blue" cx="106" cy="-18" rx="34.394" ry="18"/>
<text text-anchor="middle" x="106" y="-14.3" font-family="Times,serif" font-size="14.00">Shelah</text>
</a>
</g>
</g>
<!-- bathshua&#45;&gt;judahs_shelah -->
<g id="edge2" class="edge"><title>bathshua&#45;&gt;judahs_shelah</title>
<path fill="none" stroke="black" d="M106,-86.799C106,-75.1626 106,-59.5479 106,-46.2368"/>
<polygon fill="black" stroke="black" points="109.5,-46.1754 106,-36.1754 102.5,-46.1755 109.5,-46.1754"/>
<text text-anchor="middle" x="130" y="-57.8" font-family="Times,serif" font-size="14.00">1 Ch 2:3</text>
</g>
<!-- onan -->
<g id="node5" class="node"><title>onan</title>
<g id="a_node5"><a xlink:href="onan.html" xlink:title="Onan" target="_top">
<ellipse fill="none" stroke="blue" cx="188" cy="-18" rx="29.795" ry="18"/>
<text text-anchor="middle" x="188" y="-14.3" font-family="Times,serif" font-size="14.00">Onan</text>
</a>
</g>
</g>
<!-- bathshua&#45;&gt;onan -->
<g id="edge3" class="edge"><title>bathshua&#45;&gt;onan</title>
<path fill="none" stroke="black" d="M131.251,-90.1493C140.358,-84.3827 150.283,-77.1292 158,-69 164.786,-61.852 170.749,-52.9091 175.534,-44.5705"/>
<polygon fill="black" stroke="black" points="178.739,-46.0016 180.417,-35.5404 172.582,-42.6719 178.739,-46.0016"/>
<text text-anchor="middle" x="192" y="-57.8" font-family="Times,serif" font-size="14.00">1 Ch 2:3</text>
</g>
<!-- canaan -->
<g id="node2" class="node"><title>canaan</title>
<g id="a_node2"><a xlink:href="canaan.html" xlink:title="Canaan" target="_top">
<ellipse fill="none" stroke="blue" cx="106" cy="-192" rx="37.0935" ry="18"/>
<text text-anchor="middle" x="106" y="-188.3" font-family="Times,serif" font-size="14.00">Canaan</text>
</a>
</g>
</g>
<!-- canaan&#45;&gt;bathshua -->
<g id="edge4" class="edge"><title>canaan&#45;&gt;bathshua</title>
<path fill="none" stroke="black" stroke-dasharray="1,5" d="M106,-173.799C106,-162.163 106,-146.548 106,-133.237"/>
<polygon fill="black" stroke="black" points="109.5,-133.175 106,-123.175 102.5,-133.175 109.5,-133.175"/>
<text text-anchor="middle" x="130" y="-144.8" font-family="Times,serif" font-size="14.00">1 Ch 2:3</text>
</g>
</g>
</svg>
