<?xml version="1.0" encoding="UTF-8" standalone="no"?>
<!DOCTYPE svg PUBLIC "-//W3C//DTD SVG 1.1//EN"
 "http://www.w3.org/Graphics/SVG/1.1/DTD/svg11.dtd">
<!-- Generated by graphviz version 2.38.0 (20140413.2041)
 -->
<!-- Title: ancestry Pages: 1 -->
<svg width="252pt" height="305pt"
 viewBox="0.00 0.00 252.29 305.00" xmlns="http://www.w3.org/2000/svg" xmlns:xlink="http://www.w3.org/1999/xlink">
<g id="graph0" class="graph" transform="scale(1 1) rotate(0) translate(4 301)">
<title>ancestry</title>
<polygon fill="white" stroke="none" points="-4,4 -4,-301 248.29,-301 248.29,4 -4,4"/>
<!-- ammonites -->
<g id="node1" class="node"><title>ammonites</title>
<g id="a_node1"><a xlink:href="ammonites.html" xlink:title="Ammonites" target="_top">
<ellipse fill="none" stroke="black" cx="52.6453" cy="-18" rx="52.7911" ry="18"/>
<text text-anchor="middle" x="52.6453" y="-14.3" font-family="Times,serif" font-size="14.00">Ammonites</text>
</a>
</g>
</g>
<!-- benammi -->
<g id="node2" class="node"><title>benammi</title>
<g id="a_node2"><a xlink:href="benammi.html" xlink:title="Benammi" target="_top">
<ellipse fill="lightblue" stroke="blue" stroke-width="2" cx="52.6453" cy="-105" rx="46.2923" ry="18"/>
<text text-anchor="middle" x="52.6453" y="-101.3" font-family="Times,serif" font-size="14.00">Benammi</text>
</a>
</g>
</g>
<!-- benammi&#45;&gt;ammonites -->
<g id="edge4" class="edge"><title>benammi&#45;&gt;ammonites</title>
<path fill="none" stroke="black" stroke-dasharray="1,5" d="M52.6453,-86.799C52.6453,-75.1626 52.6453,-59.5479 52.6453,-46.2368"/>
<polygon fill="black" stroke="black" points="56.1454,-46.1754 52.6453,-36.1754 49.1454,-46.1755 56.1454,-46.1754"/>
<text text-anchor="middle" x="81.6453" y="-57.8" font-family="Times,serif" font-size="14.00">Gen 19:38</text>
</g>
<!-- lot -->
<g id="node3" class="node"><title>lot</title>
<g id="a_node3"><a xlink:href="lot.html" xlink:title="Lot" target="_top">
<ellipse fill="none" stroke="blue" cx="79.6453" cy="-279" rx="27" ry="18"/>
<text text-anchor="middle" x="79.6453" y="-275.3" font-family="Times,serif" font-size="14.00">Lot</text>
</a>
</g>
</g>
<!-- lot&#45;&gt;benammi -->
<g id="edge1" class="edge"><title>lot&#45;&gt;benammi</title>
<path fill="none" stroke="black" d="M69.1595,-262.323C60.9403,-249.036 50.1638,-229.14 45.6453,-210 39.5988,-184.386 42.6812,-154.311 46.4718,-133.11"/>
<polygon fill="black" stroke="black" points="49.9277,-133.674 48.4132,-123.188 43.058,-132.33 49.9277,-133.674"/>
<text text-anchor="middle" x="74.6453" y="-188.3" font-family="Times,serif" font-size="14.00">Gen 19:38</text>
</g>
<!-- lots_daughter2 -->
<g id="node4" class="node"><title>lots_daughter2</title>
<g id="a_node4"><a xlink:href="lots_daughter2.html" xlink:title="Lots_daughter2" target="_top">
<ellipse fill="none" stroke="red" cx="178.645" cy="-192" rx="65.7887" ry="18"/>
<text text-anchor="middle" x="178.645" y="-188.3" font-family="Times,serif" font-size="14.00">Lots_daughter2</text>
</a>
</g>
</g>
<!-- lot&#45;&gt;lots_daughter2 -->
<g id="edge2" class="edge"><title>lot&#45;&gt;lots_daughter2</title>
<path fill="none" stroke="black" d="M95.5514,-264.343C110.719,-251.321 133.855,-231.457 151.865,-215.993"/>
<polygon fill="black" stroke="black" points="154.426,-218.408 159.733,-209.238 149.866,-213.097 154.426,-218.408"/>
<text text-anchor="middle" x="160.145" y="-231.8" font-family="Times,serif" font-size="14.00">Gen 19:8</text>
</g>
<!-- lots_daughter2&#45;&gt;benammi -->
<g id="edge3" class="edge"><title>lots_daughter2&#45;&gt;benammi</title>
<path fill="none" stroke="black" d="M154.946,-175.012C134.681,-161.342 105.384,-141.578 83.331,-126.701"/>
<polygon fill="black" stroke="black" points="85.2172,-123.751 74.9698,-121.06 81.3024,-129.554 85.2172,-123.751"/>
<text text-anchor="middle" x="151.645" y="-144.8" font-family="Times,serif" font-size="14.00">Gen 19:38</text>
</g>
</g>
</svg>
