<?xml version="1.0" encoding="UTF-8" standalone="no"?>
<!DOCTYPE svg PUBLIC "-//W3C//DTD SVG 1.1//EN"
 "http://www.w3.org/Graphics/SVG/1.1/DTD/svg11.dtd">
<!-- Generated by graphviz version 2.38.0 (20140413.2041)
 -->
<!-- Title: ancestry Pages: 1 -->
<svg width="102pt" height="218pt"
 viewBox="0.00 0.00 102.40 218.00" xmlns="http://www.w3.org/2000/svg" xmlns:xlink="http://www.w3.org/1999/xlink">
<g id="graph0" class="graph" transform="scale(1 1) rotate(0) translate(4 214)">
<title>ancestry</title>
<polygon fill="white" stroke="none" points="-4,4 -4,-214 98.3968,-214 98.3968,4 -4,4"/>
<!-- berri -->
<g id="node1" class="node"><title>berri</title>
<g id="a_node1"><a xlink:href="berri.html" xlink:title="Berri" target="_top">
<ellipse fill="lightblue" stroke="blue" stroke-width="2" cx="36.3968" cy="-105" rx="28.6953" ry="18"/>
<text text-anchor="middle" x="36.3968" y="-101.3" font-family="Times,serif" font-size="14.00">Berri</text>
</a>
</g>
</g>
<!-- judith -->
<g id="node3" class="node"><title>judith</title>
<g id="a_node3"><a xlink:href="judith.html" xlink:title="Judith" target="_top">
<ellipse fill="none" stroke="red" cx="36.3968" cy="-18" rx="32.4942" ry="18"/>
<text text-anchor="middle" x="36.3968" y="-14.3" font-family="Times,serif" font-size="14.00">Judith</text>
</a>
</g>
</g>
<!-- berri&#45;&gt;judith -->
<g id="edge1" class="edge"><title>berri&#45;&gt;judith</title>
<path fill="none" stroke="black" d="M36.3968,-86.799C36.3968,-75.1626 36.3968,-59.5479 36.3968,-46.2368"/>
<polygon fill="black" stroke="black" points="39.8969,-46.1754 36.3968,-36.1754 32.8969,-46.1755 39.8969,-46.1754"/>
<text text-anchor="middle" x="65.3968" y="-57.8" font-family="Times,serif" font-size="14.00">Gen 26:34</text>
</g>
<!-- hittites -->
<g id="node2" class="node"><title>hittites</title>
<g id="a_node2"><a xlink:href="hittites.html" xlink:title="Hittites" target="_top">
<ellipse fill="none" stroke="black" cx="36.3968" cy="-192" rx="36.2938" ry="18"/>
<text text-anchor="middle" x="36.3968" y="-188.3" font-family="Times,serif" font-size="14.00">Hittites</text>
</a>
</g>
</g>
<!-- hittites&#45;&gt;berri -->
<g id="edge2" class="edge"><title>hittites&#45;&gt;berri</title>
<path fill="none" stroke="black" stroke-dasharray="1,5" d="M36.3968,-173.799C36.3968,-162.163 36.3968,-146.548 36.3968,-133.237"/>
<polygon fill="black" stroke="black" points="39.8969,-133.175 36.3968,-123.175 32.8969,-133.175 39.8969,-133.175"/>
<text text-anchor="middle" x="65.3968" y="-144.8" font-family="Times,serif" font-size="14.00">Gen 26:34</text>
</g>
</g>
</svg>
