<?xml version="1.0" encoding="UTF-8" standalone="no"?>
<!DOCTYPE svg PUBLIC "-//W3C//DTD SVG 1.1//EN"
 "http://www.w3.org/Graphics/SVG/1.1/DTD/svg11.dtd">
<!-- Generated by graphviz version 2.38.0 (20140413.2041)
 -->
<!-- Title: ancestry Pages: 1 -->
<svg width="182pt" height="218pt"
 viewBox="0.00 0.00 182.50 218.00" xmlns="http://www.w3.org/2000/svg" xmlns:xlink="http://www.w3.org/1999/xlink">
<g id="graph0" class="graph" transform="scale(1 1) rotate(0) translate(4 214)">
<title>ancestry</title>
<polygon fill="white" stroke="none" points="-4,4 -4,-214 178.497,-214 178.497,4 -4,4"/>
<!-- bethuel -->
<g id="node1" class="node"><title>bethuel</title>
<g id="a_node1"><a xlink:href="bethuel.html" xlink:title="Bethuel" target="_top">
<ellipse fill="lightblue" stroke="blue" stroke-width="2" cx="84.4971" cy="-105" rx="38.1938" ry="18"/>
<text text-anchor="middle" x="84.4971" y="-101.3" font-family="Times,serif" font-size="14.00">Bethuel</text>
</a>
</g>
</g>
<!-- laban -->
<g id="node2" class="node"><title>laban</title>
<g id="a_node2"><a xlink:href="laban.html" xlink:title="Laban" target="_top">
<ellipse fill="none" stroke="blue" cx="38.4971" cy="-18" rx="32.4942" ry="18"/>
<text text-anchor="middle" x="38.4971" y="-14.3" font-family="Times,serif" font-size="14.00">Laban</text>
</a>
</g>
</g>
<!-- bethuel&#45;&gt;laban -->
<g id="edge1" class="edge"><title>bethuel&#45;&gt;laban</title>
<path fill="none" stroke="black" d="M66.2052,-88.7714C60.4217,-83.1065 54.5008,-76.2728 50.4971,-69 46.6494,-62.0105 44.0257,-53.8071 42.2404,-46.0893"/>
<polygon fill="black" stroke="black" points="45.6287,-45.1766 40.2892,-36.0257 38.7566,-46.5091 45.6287,-45.1766"/>
<text text-anchor="middle" x="79.4971" y="-57.8" font-family="Times,serif" font-size="14.00">Gen 24:29</text>
</g>
<!-- rebekah -->
<g id="node4" class="node"><title>rebekah</title>
<g id="a_node4"><a xlink:href="rebekah.html" xlink:title="Rebekah" target="_top">
<ellipse fill="none" stroke="red" cx="130.497" cy="-18" rx="41.6928" ry="18"/>
<text text-anchor="middle" x="130.497" y="-14.3" font-family="Times,serif" font-size="14.00">Rebekah</text>
</a>
</g>
</g>
<!-- bethuel&#45;&gt;rebekah -->
<g id="edge2" class="edge"><title>bethuel&#45;&gt;rebekah</title>
<path fill="none" stroke="black" d="M96.6265,-87.6704C100.646,-81.9172 104.986,-75.3093 108.497,-69 112.647,-61.5417 116.599,-53.1477 119.978,-45.3977"/>
<polygon fill="black" stroke="black" points="123.261,-46.6185 123.924,-36.0444 116.812,-43.8974 123.261,-46.6185"/>
<text text-anchor="middle" x="145.497" y="-57.8" font-family="Times,serif" font-size="14.00">Gen 22:23</text>
</g>
<!-- milcah -->
<g id="node3" class="node"><title>milcah</title>
<g id="a_node3"><a xlink:href="milcah.html" xlink:title="Milcah" target="_top">
<ellipse fill="none" stroke="red" cx="136.497" cy="-192" rx="36.2938" ry="18"/>
<text text-anchor="middle" x="136.497" y="-188.3" font-family="Times,serif" font-size="14.00">Milcah</text>
</a>
</g>
</g>
<!-- milcah&#45;&gt;bethuel -->
<g id="edge3" class="edge"><title>milcah&#45;&gt;bethuel</title>
<path fill="none" stroke="black" d="M126.471,-174.611C118.966,-162.343 108.562,-145.336 99.9896,-131.324"/>
<polygon fill="black" stroke="black" points="102.874,-129.332 94.6699,-122.629 96.9029,-132.985 102.874,-129.332"/>
<text text-anchor="middle" x="143.497" y="-144.8" font-family="Times,serif" font-size="14.00">Gen 22:22</text>
</g>
<!-- terahs_nahor -->
<g id="node5" class="node"><title>terahs_nahor</title>
<g id="a_node5"><a xlink:href="terahs_nahor.html" xlink:title="Nahor" target="_top">
<ellipse fill="none" stroke="blue" cx="32.4971" cy="-192" rx="32.4942" ry="18"/>
<text text-anchor="middle" x="32.4971" y="-188.3" font-family="Times,serif" font-size="14.00">Nahor</text>
</a>
</g>
</g>
<!-- terahs_nahor&#45;&gt;bethuel -->
<g id="edge4" class="edge"><title>terahs_nahor&#45;&gt;bethuel</title>
<path fill="none" stroke="black" d="M34.4382,-173.824C36.176,-163.697 39.4336,-150.959 45.4971,-141 48.454,-136.143 52.2917,-131.572 56.4038,-127.436"/>
<polygon fill="black" stroke="black" points="58.9682,-129.833 63.9712,-120.494 54.2361,-124.675 58.9682,-129.833"/>
<text text-anchor="middle" x="74.4971" y="-144.8" font-family="Times,serif" font-size="14.00">Gen 22:22</text>
</g>
<!-- terahs_nahor&#45;&gt;milcah -->
<g id="edge5" class="edge"><title>terahs_nahor&#45;&gt;milcah</title>
<path fill="none" stroke="red" d="M64.9971,-192C76.6345,-192 88.2719,-192 99.9092,-192"/>
</g>
</g>
</svg>
