<?xml version="1.0" encoding="UTF-8" standalone="no"?>
<!DOCTYPE svg PUBLIC "-//W3C//DTD SVG 1.1//EN"
 "http://www.w3.org/Graphics/SVG/1.1/DTD/svg11.dtd">
<!-- Generated by graphviz version 2.38.0 (20140413.2041)
 -->
<!-- Title: ancestry Pages: 1 -->
<svg width="266pt" height="146pt"
 viewBox="0.00 0.00 265.55 146.00" xmlns="http://www.w3.org/2000/svg" xmlns:xlink="http://www.w3.org/1999/xlink">
<g id="graph0" class="graph" transform="scale(1 1) rotate(0) translate(4 142)">
<title>ancestry</title>
<polygon fill="white" stroke="none" points="-4,4 -4,-142 261.551,-142 261.551,4 -4,4"/>
<!-- bilhah -->
<g id="node1" class="node"><title>bilhah</title>
<g id="a_node1"><a xlink:href="bilhah.html" xlink:title="Bilhah" target="_top">
<ellipse fill="lightpink" stroke="red" stroke-width="2" cx="164.551" cy="-120" rx="34.394" ry="18"/>
<text text-anchor="middle" x="164.551" y="-116.3" font-family="Times,serif" font-size="14.00">Bilhah</text>
</a>
</g>
</g>
<!-- dan -->
<g id="node2" class="node"><title>dan</title>
<g id="a_node2"><a xlink:href="dan.html" xlink:title="Dan" target="_top">
<ellipse fill="none" stroke="blue" cx="37.5506" cy="-18" rx="27" ry="18"/>
<text text-anchor="middle" x="37.5506" y="-14.3" font-family="Times,serif" font-size="14.00">Dan</text>
</a>
</g>
</g>
<!-- bilhah&#45;&gt;dan -->
<g id="edge1" class="edge"><title>bilhah&#45;&gt;dan</title>
<path fill="none" stroke="black" d="M157.158,-102.225C149.445,-85.3571 137.402,-60.8892 129.551,-54 113.727,-40.1159 91.8286,-31.4895 73.3664,-26.2757"/>
<polygon fill="black" stroke="black" points="74.0823,-22.8455 63.5235,-23.7185 72.3221,-29.6206 74.0823,-22.8455"/>
<text text-anchor="middle" x="174.051" y="-65.3" font-family="Times,serif" font-size="14.00">Gen 30:5</text>
</g>
<!-- naphtali -->
<g id="node4" class="node"><title>naphtali</title>
<g id="a_node4"><a xlink:href="naphtali.html" xlink:title="Naphtali" target="_top">
<ellipse fill="none" stroke="blue" cx="191.551" cy="-18" rx="40.8928" ry="18"/>
<text text-anchor="middle" x="191.551" y="-14.3" font-family="Times,serif" font-size="14.00">Naphtali</text>
</a>
</g>
</g>
<!-- bilhah&#45;&gt;naphtali -->
<g id="edge2" class="edge"><title>bilhah&#45;&gt;naphtali</title>
<path fill="none" stroke="black" d="M185.805,-105.441C192.81,-99.7519 199.769,-92.4742 203.551,-84 208.957,-71.8831 207.032,-57.4518 203.295,-45.2686"/>
<polygon fill="black" stroke="black" points="206.521,-43.8954 199.851,-35.6637 199.932,-46.2582 206.521,-43.8954"/>
<text text-anchor="middle" x="232.051" y="-65.3" font-family="Times,serif" font-size="14.00">Gen 30:7</text>
</g>
<!-- jacob -->
<g id="node3" class="node"><title>jacob</title>
<g id="a_node3"><a xlink:href="jacob.html" xlink:title="Jacob" target="_top">
<ellipse fill="none" stroke="blue" cx="64.5506" cy="-120" rx="30.5947" ry="18"/>
<text text-anchor="middle" x="64.5506" y="-116.3" font-family="Times,serif" font-size="14.00">Jacob</text>
</a>
</g>
</g>
<!-- jacob&#45;&gt;bilhah -->
<g id="edge5" class="edge"><title>jacob&#45;&gt;bilhah</title>
<path fill="none" stroke="red" d="M95.41,-120C106.933,-120 118.457,-120 129.98,-120"/>
</g>
<!-- jacob&#45;&gt;dan -->
<g id="edge3" class="edge"><title>jacob&#45;&gt;dan</title>
<path fill="none" stroke="black" d="M38.1553,-110.622C25.6199,-105.164 11.8183,-96.6532 4.5506,-84 -2.0902,-72.4381 -0.370195,-66.3921 4.5506,-54 6.63107,-48.7608 9.90867,-43.8511 13.6075,-39.4615"/>
<polygon fill="black" stroke="black" points="16.1946,-41.82 20.5526,-32.1629 11.1235,-36.9945 16.1946,-41.82"/>
<text text-anchor="middle" x="30.0506" y="-72.8" font-family="Times,serif" font-size="14.00">1 Ch 2:2</text>
<text text-anchor="middle" x="30.0506" y="-57.8" font-family="Times,serif" font-size="14.00">Gen 30:5</text>
</g>
<!-- jacob&#45;&gt;naphtali -->
<g id="edge4" class="edge"><title>jacob&#45;&gt;naphtali</title>
<path fill="none" stroke="black" d="M62.5184,-102.014C61.7659,-87.5495 63.1545,-67.0885 74.5506,-54 91.0444,-35.0567 117.329,-26.1507 140.81,-22.0489"/>
<polygon fill="black" stroke="black" points="141.635,-25.4646 151.009,-20.5266 140.602,-18.5413 141.635,-25.4646"/>
<text text-anchor="middle" x="100.051" y="-72.8" font-family="Times,serif" font-size="14.00">1 Ch 2:2</text>
<text text-anchor="middle" x="100.051" y="-57.8" font-family="Times,serif" font-size="14.00">Gen 30:7</text>
</g>
</g>
</svg>
