<?xml version="1.0" encoding="UTF-8" standalone="no"?>
<!DOCTYPE svg PUBLIC "-//W3C//DTD SVG 1.1//EN"
 "http://www.w3.org/Graphics/SVG/1.1/DTD/svg11.dtd">
<!-- Generated by graphviz version 2.38.0 (20140413.2041)
 -->
<!-- Title: ancestry Pages: 1 -->
<svg width="177pt" height="278pt"
 viewBox="0.00 0.00 177.15 278.00" xmlns="http://www.w3.org/2000/svg" xmlns:xlink="http://www.w3.org/1999/xlink">
<g id="graph0" class="graph" transform="scale(1 1) rotate(0) translate(4 274)">
<title>ancestry</title>
<polygon fill="white" stroke="none" points="-4,4 -4,-274 173.147,-274 173.147,4 -4,4"/>
<!-- boaz -->
<g id="node1" class="node"><title>boaz</title>
<g id="a_node1"><a xlink:href="boaz.html" xlink:title="Boaz" target="_top">
<ellipse fill="lightblue" stroke="blue" stroke-width="2" cx="77.1471" cy="-135" rx="28.6953" ry="18"/>
<text text-anchor="middle" x="77.1471" y="-131.3" font-family="Times,serif" font-size="14.00">Boaz</text>
</a>
</g>
</g>
<!-- obed -->
<g id="node2" class="node"><title>obed</title>
<g id="a_node2"><a xlink:href="obed.html" xlink:title="Obed" target="_top">
<ellipse fill="none" stroke="blue" cx="77.1471" cy="-18" rx="29.795" ry="18"/>
<text text-anchor="middle" x="77.1471" y="-14.3" font-family="Times,serif" font-size="14.00">Obed</text>
</a>
</g>
</g>
<!-- boaz&#45;&gt;obed -->
<g id="edge1" class="edge"><title>boaz&#45;&gt;obed</title>
<path fill="none" stroke="black" d="M77.1471,-116.534C77.1471,-97.9357 77.1471,-68.2442 77.1471,-46.5014"/>
<polygon fill="black" stroke="black" points="80.6472,-46.2536 77.1471,-36.2536 73.6472,-46.2536 80.6472,-46.2536"/>
<text text-anchor="middle" x="104.647" y="-87.8" font-family="Times,serif" font-size="14.00">1 Ch 2:12</text>
<text text-anchor="middle" x="104.647" y="-72.8" font-family="Times,serif" font-size="14.00">Luk 3:32</text>
<text text-anchor="middle" x="104.647" y="-57.8" font-family="Times,serif" font-size="14.00">Mat 1:5</text>
</g>
<!-- rahab -->
<g id="node3" class="node"><title>rahab</title>
<g id="a_node3"><a xlink:href="rahab.html" xlink:title="Rahab" target="_top">
<ellipse fill="none" stroke="red" cx="33.1471" cy="-252" rx="33.2948" ry="18"/>
<text text-anchor="middle" x="33.1471" y="-248.3" font-family="Times,serif" font-size="14.00">Rahab</text>
</a>
</g>
</g>
<!-- rahab&#45;&gt;boaz -->
<g id="edge2" class="edge"><title>rahab&#45;&gt;boaz</title>
<path fill="none" stroke="black" d="M36.675,-234.011C40.4145,-217.505 47.0416,-191.939 56.1471,-171 57.6483,-167.548 59.4308,-164.021 61.3132,-160.599"/>
<polygon fill="black" stroke="black" points="64.3683,-162.309 66.4047,-151.911 58.3289,-158.769 64.3683,-162.309"/>
<text text-anchor="middle" x="78.1471" y="-189.8" font-family="Times,serif" font-size="14.00">Mat 1:5</text>
</g>
<!-- salmon -->
<g id="node4" class="node"><title>salmon</title>
<g id="a_node4"><a xlink:href="salmon.html" xlink:title="Salmon" target="_top">
<ellipse fill="none" stroke="blue" cx="122.147" cy="-252" rx="38.1938" ry="18"/>
<text text-anchor="middle" x="122.147" y="-248.3" font-family="Times,serif" font-size="14.00">Salmon</text>
</a>
</g>
</g>
<!-- salmon&#45;&gt;boaz -->
<g id="edge3" class="edge"><title>salmon&#45;&gt;boaz</title>
<path fill="none" stroke="black" d="M119.068,-233.921C115.71,-217.349 109.528,-191.736 100.147,-171 98.5548,-167.481 96.633,-163.915 94.5868,-160.473"/>
<polygon fill="black" stroke="black" points="97.3578,-158.31 89.0215,-151.771 91.4606,-162.081 97.3578,-158.31"/>
<text text-anchor="middle" x="141.647" y="-204.8" font-family="Times,serif" font-size="14.00">1 Ch 2:11</text>
<text text-anchor="middle" x="141.647" y="-189.8" font-family="Times,serif" font-size="14.00">Luk 3:32</text>
<text text-anchor="middle" x="141.647" y="-174.8" font-family="Times,serif" font-size="14.00">Mat 1:5</text>
</g>
</g>
</svg>
