<?xml version="1.0" encoding="UTF-8" standalone="no"?>
<!DOCTYPE svg PUBLIC "-//W3C//DTD SVG 1.1//EN"
 "http://www.w3.org/Graphics/SVG/1.1/DTD/svg11.dtd">
<!-- Generated by graphviz version 2.38.0 (20140413.2041)
 -->
<!-- Title: ancestry Pages: 1 -->
<svg width="89pt" height="218pt"
 viewBox="0.00 0.00 88.59 218.00" xmlns="http://www.w3.org/2000/svg" xmlns:xlink="http://www.w3.org/1999/xlink">
<g id="graph0" class="graph" transform="scale(1 1) rotate(0) translate(4 214)">
<title>ancestry</title>
<polygon fill="white" stroke="none" points="-4,4 -4,-214 84.5928,-214 84.5928,4 -4,4"/>
<!-- abishua -->
<g id="node1" class="node"><title>abishua</title>
<g id="a_node1"><a xlink:href="abishua.html" xlink:title="Abishua" target="_top">
<ellipse fill="none" stroke="blue" cx="40.2964" cy="-192" rx="40.0939" ry="18"/>
<text text-anchor="middle" x="40.2964" y="-188.3" font-family="Times,serif" font-size="14.00">Abishua</text>
</a>
</g>
</g>
<!-- bukki -->
<g id="node2" class="node"><title>bukki</title>
<g id="a_node2"><a xlink:href="bukki.html" xlink:title="Bukki" target="_top">
<ellipse fill="lightblue" stroke="blue" stroke-width="2" cx="40.2964" cy="-105" rx="32.4942" ry="18"/>
<text text-anchor="middle" x="40.2964" y="-101.3" font-family="Times,serif" font-size="14.00">Bukki</text>
</a>
</g>
</g>
<!-- abishua&#45;&gt;bukki -->
<g id="edge1" class="edge"><title>abishua&#45;&gt;bukki</title>
<path fill="none" stroke="black" d="M40.2964,-173.799C40.2964,-162.163 40.2964,-146.548 40.2964,-133.237"/>
<polygon fill="black" stroke="black" points="43.7965,-133.175 40.2964,-123.175 36.7965,-133.175 43.7965,-133.175"/>
<text text-anchor="middle" x="60.2964" y="-144.8" font-family="Times,serif" font-size="14.00">Ezr 7:5</text>
</g>
<!-- uzzi -->
<g id="node3" class="node"><title>uzzi</title>
<g id="a_node3"><a xlink:href="uzzi.html" xlink:title="Uzzi" target="_top">
<ellipse fill="none" stroke="blue" cx="40.2964" cy="-18" rx="27.0966" ry="18"/>
<text text-anchor="middle" x="40.2964" y="-14.3" font-family="Times,serif" font-size="14.00">Uzzi</text>
</a>
</g>
</g>
<!-- bukki&#45;&gt;uzzi -->
<g id="edge2" class="edge"><title>bukki&#45;&gt;uzzi</title>
<path fill="none" stroke="black" d="M40.2964,-86.799C40.2964,-75.1626 40.2964,-59.5479 40.2964,-46.2368"/>
<polygon fill="black" stroke="black" points="43.7965,-46.1754 40.2964,-36.1754 36.7965,-46.1755 43.7965,-46.1754"/>
<text text-anchor="middle" x="60.2964" y="-57.8" font-family="Times,serif" font-size="14.00">Ezr 7:4</text>
</g>
</g>
</svg>
