<?xml version="1.0" encoding="UTF-8" standalone="no"?>
<!DOCTYPE svg PUBLIC "-//W3C//DTD SVG 1.1//EN"
 "http://www.w3.org/Graphics/SVG/1.1/DTD/svg11.dtd">
<!-- Generated by graphviz version 2.38.0 (20140413.2041)
 -->
<!-- Title: ancestry Pages: 1 -->
<svg width="181pt" height="131pt"
 viewBox="0.00 0.00 180.89 131.00" xmlns="http://www.w3.org/2000/svg" xmlns:xlink="http://www.w3.org/1999/xlink">
<g id="graph0" class="graph" transform="scale(1 1) rotate(0) translate(4 127)">
<title>ancestry</title>
<polygon fill="white" stroke="none" points="-4,4 -4,-127 176.894,-127 176.894,4 -4,4"/>
<!-- buz -->
<g id="node1" class="node"><title>buz</title>
<g id="a_node1"><a xlink:href="buz.html" xlink:title="Buz" target="_top">
<ellipse fill="lightblue" stroke="blue" stroke-width="2" cx="84.4971" cy="-18" rx="27" ry="18"/>
<text text-anchor="middle" x="84.4971" y="-14.3" font-family="Times,serif" font-size="14.00">Buz</text>
</a>
</g>
</g>
<!-- milcah -->
<g id="node2" class="node"><title>milcah</title>
<g id="a_node2"><a xlink:href="milcah.html" xlink:title="Milcah" target="_top">
<ellipse fill="none" stroke="red" cx="136.497" cy="-105" rx="36.2938" ry="18"/>
<text text-anchor="middle" x="136.497" y="-101.3" font-family="Times,serif" font-size="14.00">Milcah</text>
</a>
</g>
</g>
<!-- milcah&#45;&gt;buz -->
<g id="edge1" class="edge"><title>milcah&#45;&gt;buz</title>
<path fill="none" stroke="black" d="M126.471,-87.6111C118.869,-75.185 108.293,-57.8967 99.6587,-43.7833"/>
<polygon fill="black" stroke="black" points="102.52,-41.7541 94.3161,-35.0503 96.5491,-45.4071 102.52,-41.7541"/>
<text text-anchor="middle" x="143.497" y="-57.8" font-family="Times,serif" font-size="14.00">Gen 22:21</text>
</g>
<!-- terahs_nahor -->
<g id="node3" class="node"><title>terahs_nahor</title>
<g id="a_node3"><a xlink:href="terahs_nahor.html" xlink:title="Nahor" target="_top">
<ellipse fill="none" stroke="blue" cx="32.4971" cy="-105" rx="32.4942" ry="18"/>
<text text-anchor="middle" x="32.4971" y="-101.3" font-family="Times,serif" font-size="14.00">Nahor</text>
</a>
</g>
</g>
<!-- terahs_nahor&#45;&gt;buz -->
<g id="edge2" class="edge"><title>terahs_nahor&#45;&gt;buz</title>
<path fill="none" stroke="black" d="M34.4382,-86.8238C36.176,-76.6974 39.4336,-63.9593 45.4971,-54 48.9744,-48.2885 53.6698,-42.9716 58.5972,-38.2934"/>
<polygon fill="black" stroke="black" points="61.1499,-40.7114 66.3896,-31.5029 56.551,-35.4341 61.1499,-40.7114"/>
<text text-anchor="middle" x="74.4971" y="-57.8" font-family="Times,serif" font-size="14.00">Gen 22:21</text>
</g>
<!-- terahs_nahor&#45;&gt;milcah -->
<g id="edge3" class="edge"><title>terahs_nahor&#45;&gt;milcah</title>
<path fill="none" stroke="red" d="M64.9971,-105C76.6345,-105 88.2719,-105 99.9092,-105"/>
</g>
</g>
</svg>
