<?xml version="1.0" encoding="UTF-8" standalone="no"?>
<!DOCTYPE svg PUBLIC "-//W3C//DTD SVG 1.1//EN"
 "http://www.w3.org/Graphics/SVG/1.1/DTD/svg11.dtd">
<!-- Generated by graphviz version 2.38.0 (20140413.2041)
 -->
<!-- Title: ancestry Pages: 1 -->
<svg width="199pt" height="218pt"
 viewBox="0.00 0.00 198.99 218.00" xmlns="http://www.w3.org/2000/svg" xmlns:xlink="http://www.w3.org/1999/xlink">
<g id="graph0" class="graph" transform="scale(1 1) rotate(0) translate(4 214)">
<title>ancestry</title>
<polygon fill="white" stroke="none" points="-4,4 -4,-214 194.993,-214 194.993,4 -4,4"/>
<!-- cain -->
<g id="node1" class="node"><title>cain</title>
<g id="a_node1"><a xlink:href="cain.html" xlink:title="Cain" target="_top">
<ellipse fill="none" stroke="blue" cx="27.2976" cy="-192" rx="27.0966" ry="18"/>
<text text-anchor="middle" x="27.2976" y="-188.3" font-family="Times,serif" font-size="14.00">Cain</text>
</a>
</g>
</g>
<!-- cains_enoch -->
<g id="node2" class="node"><title>cains_enoch</title>
<g id="a_node2"><a xlink:href="cains_enoch.html" xlink:title="Enoch" target="_top">
<ellipse fill="lightblue" stroke="blue" stroke-width="2" cx="83.2976" cy="-105" rx="33.2948" ry="18"/>
<text text-anchor="middle" x="83.2976" y="-101.3" font-family="Times,serif" font-size="14.00">Enoch</text>
</a>
</g>
</g>
<!-- cain&#45;&gt;cains_enoch -->
<g id="edge1" class="edge"><title>cain&#45;&gt;cains_enoch</title>
<path fill="none" stroke="black" d="M36.3645,-174.989C42.123,-165.052 49.8668,-152.106 57.2976,-141 59.7127,-137.39 62.3512,-133.641 64.9917,-129.995"/>
<polygon fill="black" stroke="black" points="67.9249,-131.915 71.0523,-121.792 62.2948,-127.755 67.9249,-131.915"/>
<text text-anchor="middle" x="82.7976" y="-144.8" font-family="Times,serif" font-size="14.00">Gen 4:17</text>
</g>
<!-- cains_wife -->
<g id="node3" class="node"><title>cains_wife</title>
<g id="a_node3"><a xlink:href="cains_wife.html" xlink:title="Cains_wife" target="_top">
<ellipse fill="none" stroke="red" cx="140.298" cy="-192" rx="50.8918" ry="18"/>
<text text-anchor="middle" x="140.298" y="-188.3" font-family="Times,serif" font-size="14.00">Cains_wife</text>
</a>
</g>
</g>
<!-- cain&#45;&gt;cains_wife -->
<g id="edge4" class="edge"><title>cain&#45;&gt;cains_wife</title>
<path fill="none" stroke="red" d="M54.6648,-192C66.2609,-192 77.857,-192 89.4531,-192"/>
</g>
<!-- irad -->
<g id="node4" class="node"><title>irad</title>
<g id="a_node4"><a xlink:href="irad.html" xlink:title="Irad" target="_top">
<ellipse fill="none" stroke="blue" cx="83.2976" cy="-18" rx="27" ry="18"/>
<text text-anchor="middle" x="83.2976" y="-14.3" font-family="Times,serif" font-size="14.00">Irad</text>
</a>
</g>
</g>
<!-- cains_enoch&#45;&gt;irad -->
<g id="edge2" class="edge"><title>cains_enoch&#45;&gt;irad</title>
<path fill="none" stroke="black" d="M83.2976,-86.799C83.2976,-75.1626 83.2976,-59.5479 83.2976,-46.2368"/>
<polygon fill="black" stroke="black" points="86.7977,-46.1754 83.2976,-36.1754 79.7977,-46.1755 86.7977,-46.1754"/>
<text text-anchor="middle" x="108.798" y="-57.8" font-family="Times,serif" font-size="14.00">Gen 4:18</text>
</g>
<!-- cains_wife&#45;&gt;cains_enoch -->
<g id="edge3" class="edge"><title>cains_wife&#45;&gt;cains_enoch</title>
<path fill="none" stroke="black" d="M129.841,-174.195C123.689,-164.426 115.689,-151.926 108.298,-141 105.897,-137.451 103.317,-133.735 100.758,-130.105"/>
<polygon fill="black" stroke="black" points="103.573,-128.024 94.9205,-121.91 97.8712,-132.086 103.573,-128.024"/>
<text text-anchor="middle" x="143.798" y="-144.8" font-family="Times,serif" font-size="14.00">Gen 4:17</text>
</g>
</g>
</svg>
