<?xml version="1.0" encoding="UTF-8" standalone="no"?>
<!DOCTYPE svg PUBLIC "-//W3C//DTD SVG 1.1//EN"
 "http://www.w3.org/Graphics/SVG/1.1/DTD/svg11.dtd">
<!-- Generated by graphviz version 2.38.0 (20140413.2041)
 -->
<!-- Title: ancestry Pages: 1 -->
<svg width="199pt" height="131pt"
 viewBox="0.00 0.00 198.99 131.00" xmlns="http://www.w3.org/2000/svg" xmlns:xlink="http://www.w3.org/1999/xlink">
<g id="graph0" class="graph" transform="scale(1 1) rotate(0) translate(4 127)">
<title>ancestry</title>
<polygon fill="white" stroke="none" points="-4,4 -4,-127 194.993,-127 194.993,4 -4,4"/>
<!-- cain -->
<g id="node1" class="node"><title>cain</title>
<g id="a_node1"><a xlink:href="cain.html" xlink:title="Cain" target="_top">
<ellipse fill="none" stroke="blue" cx="27.2976" cy="-105" rx="27.0966" ry="18"/>
<text text-anchor="middle" x="27.2976" y="-101.3" font-family="Times,serif" font-size="14.00">Cain</text>
</a>
</g>
</g>
<!-- cains_enoch -->
<g id="node2" class="node"><title>cains_enoch</title>
<g id="a_node2"><a xlink:href="cains_enoch.html" xlink:title="Enoch" target="_top">
<ellipse fill="none" stroke="blue" cx="83.2976" cy="-18" rx="33.2948" ry="18"/>
<text text-anchor="middle" x="83.2976" y="-14.3" font-family="Times,serif" font-size="14.00">Enoch</text>
</a>
</g>
</g>
<!-- cain&#45;&gt;cains_enoch -->
<g id="edge1" class="edge"><title>cain&#45;&gt;cains_enoch</title>
<path fill="none" stroke="black" d="M36.3645,-87.9885C42.123,-78.0524 49.8668,-65.106 57.2976,-54 59.7127,-50.3904 62.3512,-46.6407 64.9917,-42.9951"/>
<polygon fill="black" stroke="black" points="67.9249,-44.9149 71.0523,-34.7921 62.2948,-40.7552 67.9249,-44.9149"/>
<text text-anchor="middle" x="82.7976" y="-57.8" font-family="Times,serif" font-size="14.00">Gen 4:17</text>
</g>
<!-- cains_wife -->
<g id="node3" class="node"><title>cains_wife</title>
<g id="a_node3"><a xlink:href="cains_wife.html" xlink:title="Cains_wife" target="_top">
<ellipse fill="lightpink" stroke="red" stroke-width="2" cx="140.298" cy="-105" rx="50.8918" ry="18"/>
<text text-anchor="middle" x="140.298" y="-101.3" font-family="Times,serif" font-size="14.00">Cains_wife</text>
</a>
</g>
</g>
<!-- cain&#45;&gt;cains_wife -->
<g id="edge3" class="edge"><title>cain&#45;&gt;cains_wife</title>
<path fill="none" stroke="red" d="M54.6648,-105C66.2609,-105 77.857,-105 89.4531,-105"/>
</g>
<!-- cains_wife&#45;&gt;cains_enoch -->
<g id="edge2" class="edge"><title>cains_wife&#45;&gt;cains_enoch</title>
<path fill="none" stroke="black" d="M129.841,-87.1948C123.689,-77.4264 115.689,-64.9264 108.298,-54 105.897,-50.4514 103.317,-46.7354 100.758,-43.1052"/>
<polygon fill="black" stroke="black" points="103.573,-41.0245 94.9205,-34.9098 97.8712,-45.0855 103.573,-41.0245"/>
<text text-anchor="middle" x="143.798" y="-57.8" font-family="Times,serif" font-size="14.00">Gen 4:17</text>
</g>
</g>
</svg>
