<?xml version="1.0" encoding="UTF-8" standalone="no"?>
<!DOCTYPE svg PUBLIC "-//W3C//DTD SVG 1.1//EN"
 "http://www.w3.org/Graphics/SVG/1.1/DTD/svg11.dtd">
<!-- Generated by graphviz version 2.38.0 (20140413.2041)
 -->
<!-- Title: ancestry Pages: 1 -->
<svg width="251pt" height="218pt"
 viewBox="0.00 0.00 251.19 218.00" xmlns="http://www.w3.org/2000/svg" xmlns:xlink="http://www.w3.org/1999/xlink">
<g id="graph0" class="graph" transform="scale(1 1) rotate(0) translate(4 214)">
<title>ancestry</title>
<polygon fill="white" stroke="none" points="-4,4 -4,-214 247.193,-214 247.193,4 -4,4"/>
<!-- adam -->
<g id="node1" class="node"><title>adam</title>
<g id="a_node1"><a xlink:href="adam.html" xlink:title="Adam" target="_top">
<ellipse fill="none" stroke="blue" cx="32.4971" cy="-192" rx="32.4942" ry="18"/>
<text text-anchor="middle" x="32.4971" y="-188.3" font-family="Times,serif" font-size="14.00">Adam</text>
</a>
</g>
</g>
<!-- cain -->
<g id="node2" class="node"><title>cain</title>
<g id="a_node2"><a xlink:href="cain.html" xlink:title="Cain" target="_top">
<ellipse fill="lightblue" stroke="blue" stroke-width="2" cx="79.4971" cy="-105" rx="27.0966" ry="18"/>
<text text-anchor="middle" x="79.4971" y="-101.3" font-family="Times,serif" font-size="14.00">Cain</text>
</a>
</g>
</g>
<!-- adam&#45;&gt;cain -->
<g id="edge1" class="edge"><title>adam&#45;&gt;cain</title>
<path fill="none" stroke="black" d="M38.9941,-173.913C42.9931,-164.05 48.4931,-151.55 54.4971,-141 56.6577,-137.203 59.1364,-133.314 61.6748,-129.573"/>
<polygon fill="black" stroke="black" points="64.663,-131.41 67.5851,-121.226 58.95,-127.365 64.663,-131.41"/>
<text text-anchor="middle" x="76.4971" y="-144.8" font-family="Times,serif" font-size="14.00">Gen 4:1</text>
</g>
<!-- eve -->
<g id="node5" class="node"><title>eve</title>
<g id="a_node5"><a xlink:href="eve.html" xlink:title="Eve" target="_top">
<ellipse fill="none" stroke="red" cx="127.497" cy="-192" rx="27" ry="18"/>
<text text-anchor="middle" x="127.497" y="-188.3" font-family="Times,serif" font-size="14.00">Eve</text>
</a>
</g>
</g>
<!-- adam&#45;&gt;eve -->
<g id="edge5" class="edge"><title>adam&#45;&gt;eve</title>
<path fill="none" stroke="red" d="M65.1534,-192C76.8428,-192 88.5323,-192 100.222,-192"/>
</g>
<!-- cains_enoch -->
<g id="node3" class="node"><title>cains_enoch</title>
<g id="a_node3"><a xlink:href="cains_enoch.html" xlink:title="Enoch" target="_top">
<ellipse fill="none" stroke="blue" cx="140.497" cy="-18" rx="33.2948" ry="18"/>
<text text-anchor="middle" x="140.497" y="-14.3" font-family="Times,serif" font-size="14.00">Enoch</text>
</a>
</g>
</g>
<!-- cain&#45;&gt;cains_enoch -->
<g id="edge2" class="edge"><title>cain&#45;&gt;cains_enoch</title>
<path fill="none" stroke="black" d="M87.3711,-87.6228C92.5242,-77.5491 99.7257,-64.5864 107.497,-54 110.629,-49.7335 114.233,-45.4344 117.883,-41.3804"/>
<polygon fill="black" stroke="black" points="120.556,-43.6465 124.847,-33.9593 115.452,-38.8564 120.556,-43.6465"/>
<text text-anchor="middle" x="132.997" y="-57.8" font-family="Times,serif" font-size="14.00">Gen 4:17</text>
</g>
<!-- cains_wife -->
<g id="node4" class="node"><title>cains_wife</title>
<g id="a_node4"><a xlink:href="cains_wife.html" xlink:title="Cains_wife" target="_top">
<ellipse fill="none" stroke="red" cx="192.497" cy="-105" rx="50.8918" ry="18"/>
<text text-anchor="middle" x="192.497" y="-101.3" font-family="Times,serif" font-size="14.00">Cains_wife</text>
</a>
</g>
</g>
<!-- cain&#45;&gt;cains_wife -->
<g id="edge6" class="edge"><title>cain&#45;&gt;cains_wife</title>
<path fill="none" stroke="red" d="M106.864,-105C118.46,-105 130.057,-105 141.653,-105"/>
</g>
<!-- cains_wife&#45;&gt;cains_enoch -->
<g id="edge3" class="edge"><title>cains_wife&#45;&gt;cains_enoch</title>
<path fill="none" stroke="black" d="M182.224,-87.2067C174.648,-74.824 164.22,-57.7776 155.684,-43.8242"/>
<polygon fill="black" stroke="black" points="158.601,-41.8855 150.396,-35.1817 152.629,-45.5385 158.601,-41.8855"/>
<text text-anchor="middle" x="194.997" y="-57.8" font-family="Times,serif" font-size="14.00">Gen 4:17</text>
</g>
<!-- eve&#45;&gt;cain -->
<g id="edge4" class="edge"><title>eve&#45;&gt;cain</title>
<path fill="none" stroke="black" d="M118.469,-175.012C111.474,-162.625 101.653,-145.235 93.6209,-131.011"/>
<polygon fill="black" stroke="black" points="96.6132,-129.192 88.6483,-122.205 90.5179,-132.634 96.6132,-129.192"/>
<text text-anchor="middle" x="128.497" y="-144.8" font-family="Times,serif" font-size="14.00">Gen 4:1</text>
</g>
</g>
</svg>
