<?xml version="1.0" encoding="UTF-8" standalone="no"?>
<!DOCTYPE svg PUBLIC "-//W3C//DTD SVG 1.1//EN"
 "http://www.w3.org/Graphics/SVG/1.1/DTD/svg11.dtd">
<!-- Generated by graphviz version 2.38.0 (20140413.2041)
 -->
<!-- Title: ancestry Pages: 1 -->
<svg width="1448pt" height="218pt"
 viewBox="0.00 0.00 1448.05 218.00" xmlns="http://www.w3.org/2000/svg" xmlns:xlink="http://www.w3.org/1999/xlink">
<g id="graph0" class="graph" transform="scale(1 1) rotate(0) translate(4 214)">
<title>ancestry</title>
<polygon fill="white" stroke="none" points="-4,4 -4,-214 1444.05,-214 1444.05,4 -4,4"/>
<!-- achsah -->
<g id="node1" class="node"><title>achsah</title>
<g id="a_node1"><a xlink:href="achsah.html" xlink:title="Achsah" target="_top">
<ellipse fill="none" stroke="red" cx="37.0467" cy="-18" rx="37.0935" ry="18"/>
<text text-anchor="middle" x="37.0467" y="-14.3" font-family="Times,serif" font-size="14.00">Achsah</text>
</a>
</g>
</g>
<!-- ardon -->
<g id="node2" class="node"><title>ardon</title>
<g id="a_node2"><a xlink:href="ardon.html" xlink:title="Ardon" target="_top">
<ellipse fill="none" stroke="blue" cx="125.047" cy="-18" rx="33.2948" ry="18"/>
<text text-anchor="middle" x="125.047" y="-14.3" font-family="Times,serif" font-size="14.00">Ardon</text>
</a>
</g>
</g>
<!-- ashur -->
<g id="node3" class="node"><title>ashur</title>
<g id="a_node3"><a xlink:href="ashur.html" xlink:title="Ashur" target="_top">
<ellipse fill="none" stroke="blue" cx="209.047" cy="-18" rx="32.4942" ry="18"/>
<text text-anchor="middle" x="209.047" y="-14.3" font-family="Times,serif" font-size="14.00">Ashur</text>
</a>
</g>
</g>
<!-- caleb -->
<g id="node4" class="node"><title>caleb</title>
<g id="a_node4"><a xlink:href="caleb.html" xlink:title="Caleb" target="_top">
<ellipse fill="lightblue" stroke="blue" stroke-width="2" cx="739.047" cy="-105" rx="31.3957" ry="18"/>
<text text-anchor="middle" x="739.047" y="-101.3" font-family="Times,serif" font-size="14.00">Caleb</text>
</a>
</g>
</g>
<!-- caleb&#45;&gt;achsah -->
<g id="edge1" class="edge"><title>caleb&#45;&gt;achsah</title>
<path fill="none" stroke="black" d="M707.583,-103.301C587.641,-100.493 162.963,-89.2074 106.047,-69 89.2357,-63.0315 72.9524,-51.5919 60.4297,-41.1597"/>
<polygon fill="black" stroke="black" points="62.6223,-38.4283 52.7758,-34.5174 58.0343,-43.7151 62.6223,-38.4283"/>
<text text-anchor="middle" x="133.547" y="-57.8" font-family="Times,serif" font-size="14.00">1 Ch 2:49</text>
</g>
<!-- caleb&#45;&gt;ardon -->
<g id="edge2" class="edge"><title>caleb&#45;&gt;ardon</title>
<path fill="none" stroke="black" d="M707.645,-104.384C605.816,-105.261 285.811,-105.011 190.047,-69 174.022,-62.9741 158.71,-51.5771 146.977,-41.1845"/>
<polygon fill="black" stroke="black" points="149.177,-38.4521 139.461,-34.2284 144.423,-43.5896 149.177,-38.4521"/>
<text text-anchor="middle" x="217.547" y="-57.8" font-family="Times,serif" font-size="14.00">1 Ch 2:18</text>
</g>
<!-- caleb&#45;&gt;ashur -->
<g id="edge3" class="edge"><title>caleb&#45;&gt;ashur</title>
<path fill="none" stroke="black" d="M707.743,-103.962C616.732,-103.487 353.629,-99.4476 274.047,-69 258.057,-62.8824 242.747,-51.4798 231.006,-41.1071"/>
<polygon fill="black" stroke="black" points="233.207,-38.3758 223.484,-34.1681 228.461,-43.521 233.207,-38.3758"/>
<text text-anchor="middle" x="301.547" y="-57.8" font-family="Times,serif" font-size="14.00">1 Ch 2:24</text>
</g>
<!-- calebs_haran -->
<g id="node5" class="node"><title>calebs_haran</title>
<g id="a_node5"><a xlink:href="calebs_haran.html" xlink:title="Haran" target="_top">
<ellipse fill="none" stroke="blue" cx="292.047" cy="-18" rx="32.4942" ry="18"/>
<text text-anchor="middle" x="292.047" y="-14.3" font-family="Times,serif" font-size="14.00">Haran</text>
</a>
</g>
</g>
<!-- caleb&#45;&gt;calebs_haran -->
<g id="edge4" class="edge"><title>caleb&#45;&gt;calebs_haran</title>
<path fill="none" stroke="black" d="M707.846,-103.332C628.662,-101.29 421.68,-93.6787 358.047,-69 341.93,-62.7496 326.392,-51.339 314.445,-40.9951"/>
<polygon fill="black" stroke="black" points="316.553,-38.1829 306.784,-34.0808 311.863,-43.3793 316.553,-38.1829"/>
<text text-anchor="middle" x="385.547" y="-57.8" font-family="Times,serif" font-size="14.00">1 Ch 2:46</text>
</g>
<!-- ephrath -->
<g id="node6" class="node"><title>ephrath</title>
<g id="a_node6"><a xlink:href="ephrath.html" xlink:title="Ephrath" target="_top">
<ellipse fill="none" stroke="red" cx="1120.05" cy="-105" rx="38.1938" ry="18"/>
<text text-anchor="middle" x="1120.05" y="-101.3" font-family="Times,serif" font-size="14.00">Ephrath</text>
</a>
</g>
</g>
<!-- caleb&#45;&gt;ephrath -->
<g id="edge19" class="edge"><title>caleb&#45;&gt;ephrath</title>
<path fill="none" stroke="red" d="M770.301,-105C874.018,-105 977.735,-105 1081.45,-105"/>
</g>
<!-- gazez -->
<g id="node7" class="node"><title>gazez</title>
<g id="a_node7"><a xlink:href="gazez.html" xlink:title="Gazez" target="_top">
<ellipse fill="none" stroke="blue" cx="375.047" cy="-18" rx="32.4942" ry="18"/>
<text text-anchor="middle" x="375.047" y="-14.3" font-family="Times,serif" font-size="14.00">Gazez</text>
</a>
</g>
</g>
<!-- caleb&#45;&gt;gazez -->
<g id="edge5" class="edge"><title>caleb&#45;&gt;gazez</title>
<path fill="none" stroke="black" d="M708.072,-102.383C642.116,-98.6122 489.916,-88.0755 442.047,-69 425.943,-62.5828 410.282,-51.27 398.156,-41.0265"/>
<polygon fill="black" stroke="black" points="400.185,-38.1508 390.363,-34.179 395.565,-43.4091 400.185,-38.1508"/>
<text text-anchor="middle" x="469.547" y="-57.8" font-family="Times,serif" font-size="14.00">1 Ch 2:46</text>
</g>
<!-- hur -->
<g id="node8" class="node"><title>hur</title>
<g id="a_node8"><a xlink:href="hur.html" xlink:title="Hur" target="_top">
<ellipse fill="none" stroke="blue" cx="1378.05" cy="-18" rx="27" ry="18"/>
<text text-anchor="middle" x="1378.05" y="-14.3" font-family="Times,serif" font-size="14.00">Hur</text>
</a>
</g>
</g>
<!-- caleb&#45;&gt;hur -->
<g id="edge6" class="edge"><title>caleb&#45;&gt;hur</title>
<path fill="none" stroke="black" d="M770.074,-102.348C881.52,-96.3697 1256.31,-75.8511 1281.05,-69 1306.15,-62.0461 1332.27,-48.1379 1351.07,-36.7519"/>
<polygon fill="black" stroke="black" points="1353.03,-39.6561 1359.68,-31.4066 1349.34,-33.7098 1353.03,-39.6561"/>
<text text-anchor="middle" x="1345.55" y="-57.8" font-family="Times,serif" font-size="14.00">1 Ch 2:19</text>
</g>
<!-- jahdai -->
<g id="node9" class="node"><title>jahdai</title>
<g id="a_node9"><a xlink:href="jahdai.html" xlink:title="Jahdai" target="_top">
<ellipse fill="none" stroke="black" cx="459.047" cy="-18" rx="33.2948" ry="18"/>
<text text-anchor="middle" x="459.047" y="-14.3" font-family="Times,serif" font-size="14.00">Jahdai</text>
</a>
</g>
</g>
<!-- caleb&#45;&gt;jahdai -->
<g id="edge18" class="edge"><title>caleb&#45;&gt;jahdai</title>
<path fill="none" stroke="black" stroke-dasharray="1,5" d="M707.791,-103.457C665.102,-101.71 586.918,-94.8785 526.047,-69 510.093,-62.2177 494.442,-50.8804 482.284,-40.7148"/>
<polygon fill="black" stroke="black" points="484.312,-37.841 474.464,-33.9346 479.727,-43.1299 484.312,-37.841"/>
<text text-anchor="middle" x="553.547" y="-57.8" font-family="Times,serif" font-size="14.00">1 Ch 2:47</text>
</g>
<!-- jesher -->
<g id="node10" class="node"><title>jesher</title>
<g id="a_node10"><a xlink:href="jesher.html" xlink:title="Jesher" target="_top">
<ellipse fill="none" stroke="blue" cx="543.047" cy="-18" rx="32.4942" ry="18"/>
<text text-anchor="middle" x="543.047" y="-14.3" font-family="Times,serif" font-size="14.00">Jesher</text>
</a>
</g>
</g>
<!-- caleb&#45;&gt;jesher -->
<g id="edge7" class="edge"><title>caleb&#45;&gt;jesher</title>
<path fill="none" stroke="black" d="M709.244,-99.4946C681.89,-94.571 640.768,-85.1461 608.047,-69 593.005,-61.5778 578.042,-50.3977 566.27,-40.4903"/>
<polygon fill="black" stroke="black" points="568.516,-37.8054 558.669,-33.8966 563.929,-43.0932 568.516,-37.8054"/>
<text text-anchor="middle" x="635.547" y="-57.8" font-family="Times,serif" font-size="14.00">1 Ch 2:18</text>
</g>
<!-- marashah -->
<g id="node11" class="node"><title>marashah</title>
<g id="a_node11"><a xlink:href="marashah.html" xlink:title="Marashah" target="_top">
<ellipse fill="none" stroke="blue" cx="640.047" cy="-18" rx="46.2923" ry="18"/>
<text text-anchor="middle" x="640.047" y="-14.3" font-family="Times,serif" font-size="14.00">Marashah</text>
</a>
</g>
</g>
<!-- caleb&#45;&gt;marashah -->
<g id="edge8" class="edge"><title>caleb&#45;&gt;marashah</title>
<path fill="none" stroke="black" d="M715.916,-92.8016C704.469,-86.6544 690.831,-78.3779 680.047,-69 671.616,-61.6691 663.64,-52.3883 657.061,-43.8183"/>
<polygon fill="black" stroke="black" points="659.738,-41.5506 650.983,-35.5838 654.106,-45.7079 659.738,-41.5506"/>
<text text-anchor="middle" x="707.547" y="-57.8" font-family="Times,serif" font-size="14.00">1 Ch 2:42</text>
</g>
<!-- mesha -->
<g id="node12" class="node"><title>mesha</title>
<g id="a_node12"><a xlink:href="mesha.html" xlink:title="Mesha" target="_top">
<ellipse fill="none" stroke="blue" cx="739.047" cy="-18" rx="34.394" ry="18"/>
<text text-anchor="middle" x="739.047" y="-14.3" font-family="Times,serif" font-size="14.00">Mesha</text>
</a>
</g>
</g>
<!-- caleb&#45;&gt;mesha -->
<g id="edge9" class="edge"><title>caleb&#45;&gt;mesha</title>
<path fill="none" stroke="black" d="M739.047,-86.799C739.047,-75.1626 739.047,-59.5479 739.047,-46.2368"/>
<polygon fill="black" stroke="black" points="742.547,-46.1754 739.047,-36.1754 735.547,-46.1755 742.547,-46.1754"/>
<text text-anchor="middle" x="766.547" y="-57.8" font-family="Times,serif" font-size="14.00">1 Ch 2:42</text>
</g>
<!-- moza -->
<g id="node13" class="node"><title>moza</title>
<g id="a_node13"><a xlink:href="moza.html" xlink:title="Moza" target="_top">
<ellipse fill="none" stroke="blue" cx="823.047" cy="-18" rx="31.3957" ry="18"/>
<text text-anchor="middle" x="823.047" y="-14.3" font-family="Times,serif" font-size="14.00">Moza</text>
</a>
</g>
</g>
<!-- caleb&#45;&gt;moza -->
<g id="edge10" class="edge"><title>caleb&#45;&gt;moza</title>
<path fill="none" stroke="black" d="M763.357,-93.571C774.964,-87.6669 788.391,-79.3747 798.047,-69 804.415,-62.1576 809.53,-53.3866 813.433,-45.1066"/>
<polygon fill="black" stroke="black" points="816.719,-46.326 817.462,-35.7572 810.29,-43.5561 816.719,-46.326"/>
<text text-anchor="middle" x="836.547" y="-57.8" font-family="Times,serif" font-size="14.00">1 Ch 2:46</text>
</g>
<!-- shaaph -->
<g id="node15" class="node"><title>shaaph</title>
<g id="a_node15"><a xlink:href="shaaph.html" xlink:title="Shaaph" target="_top">
<ellipse fill="none" stroke="blue" cx="909.047" cy="-18" rx="36.2938" ry="18"/>
<text text-anchor="middle" x="909.047" y="-14.3" font-family="Times,serif" font-size="14.00">Shaaph</text>
</a>
</g>
</g>
<!-- caleb&#45;&gt;shaaph -->
<g id="edge11" class="edge"><title>caleb&#45;&gt;shaaph</title>
<path fill="none" stroke="black" d="M769.609,-101.044C797.194,-97.1964 837.949,-88.4816 868.047,-69 877.902,-62.6209 886.547,-53.1096 893.327,-44.0898"/>
<polygon fill="black" stroke="black" points="896.332,-45.9008 899.233,-35.7108 890.611,-41.8676 896.332,-45.9008"/>
<text text-anchor="middle" x="911.547" y="-57.8" font-family="Times,serif" font-size="14.00">1 Ch 2:49</text>
</g>
<!-- sheber -->
<g id="node16" class="node"><title>sheber</title>
<g id="a_node16"><a xlink:href="sheber.html" xlink:title="Sheber" target="_top">
<ellipse fill="none" stroke="blue" cx="998.047" cy="-18" rx="35.194" ry="18"/>
<text text-anchor="middle" x="998.047" y="-14.3" font-family="Times,serif" font-size="14.00">Sheber</text>
</a>
</g>
</g>
<!-- caleb&#45;&gt;sheber -->
<g id="edge12" class="edge"><title>caleb&#45;&gt;sheber</title>
<path fill="none" stroke="black" d="M770.417,-103.986C811.952,-102.803 886.528,-96.5713 943.047,-69 956.042,-62.6605 968.198,-52.292 977.76,-42.6359"/>
<polygon fill="black" stroke="black" points="980.52,-44.8101 984.838,-35.1352 975.429,-40.0057 980.52,-44.8101"/>
<text text-anchor="middle" x="992.547" y="-57.8" font-family="Times,serif" font-size="14.00">1 Ch 2:48</text>
</g>
<!-- sheva -->
<g id="node17" class="node"><title>sheva</title>
<g id="a_node17"><a xlink:href="sheva.html" xlink:title="Sheva" target="_top">
<ellipse fill="none" stroke="blue" cx="1084.05" cy="-18" rx="32.4942" ry="18"/>
<text text-anchor="middle" x="1084.05" y="-14.3" font-family="Times,serif" font-size="14.00">Sheva</text>
</a>
</g>
</g>
<!-- caleb&#45;&gt;sheva -->
<g id="edge13" class="edge"><title>caleb&#45;&gt;sheva</title>
<path fill="none" stroke="black" d="M770.302,-102.388C834.504,-98.7163 978.983,-88.5039 1024.05,-69 1038.67,-62.6725 1052.5,-51.6221 1063.2,-41.5164"/>
<polygon fill="black" stroke="black" points="1065.74,-43.9236 1070.4,-34.4059 1060.82,-38.9437 1065.74,-43.9236"/>
<text text-anchor="middle" x="1075.55" y="-57.8" font-family="Times,serif" font-size="14.00">1 Ch 2:49</text>
</g>
<!-- shobab -->
<g id="node18" class="node"><title>shobab</title>
<g id="a_node18"><a xlink:href="shobab.html" xlink:title="Shobab" target="_top">
<ellipse fill="none" stroke="blue" cx="1172.05" cy="-18" rx="37.0935" ry="18"/>
<text text-anchor="middle" x="1172.05" y="-14.3" font-family="Times,serif" font-size="14.00">Shobab</text>
</a>
</g>
</g>
<!-- caleb&#45;&gt;shobab -->
<g id="edge14" class="edge"><title>caleb&#45;&gt;shobab</title>
<path fill="none" stroke="black" d="M770.321,-103.241C847.651,-101.011 1045.99,-93.0511 1107.05,-69 1122.76,-62.81 1137.87,-51.6206 1149.56,-41.3942"/>
<polygon fill="black" stroke="black" points="1152.04,-43.8668 1157.07,-34.5415 1147.32,-38.6953 1152.04,-43.8668"/>
<text text-anchor="middle" x="1160.55" y="-57.8" font-family="Times,serif" font-size="14.00">1 Ch 2:18</text>
</g>
<!-- tirhanah -->
<g id="node19" class="node"><title>tirhanah</title>
<g id="a_node19"><a xlink:href="tirhanah.html" xlink:title="Tirhanah" target="_top">
<ellipse fill="none" stroke="blue" cx="1269.05" cy="-18" rx="42.4939" ry="18"/>
<text text-anchor="middle" x="1269.05" y="-14.3" font-family="Times,serif" font-size="14.00">Tirhanah</text>
</a>
</g>
</g>
<!-- caleb&#45;&gt;tirhanah -->
<g id="edge15" class="edge"><title>caleb&#45;&gt;tirhanah</title>
<path fill="none" stroke="black" d="M770.064,-102.493C865.754,-97.7197 1152.31,-82.4566 1192.05,-69 1210.42,-62.7765 1228.74,-51.1656 1242.89,-40.6984"/>
<polygon fill="black" stroke="black" points="1245.32,-43.2472 1251.13,-34.3872 1241.06,-37.6906 1245.32,-43.2472"/>
<text text-anchor="middle" x="1249.55" y="-57.8" font-family="Times,serif" font-size="14.00">1 Ch 2:48</text>
</g>
<!-- ephrath&#45;&gt;hur -->
<g id="edge16" class="edge"><title>ephrath&#45;&gt;hur</title>
<path fill="none" stroke="black" d="M1158.44,-104.698C1223.44,-104.967 1350.87,-101.243 1379.05,-69 1384.51,-62.7485 1385.75,-54.1909 1385.16,-45.9223"/>
<polygon fill="black" stroke="black" points="1388.59,-45.157 1383.62,-35.7986 1381.67,-46.2118 1388.59,-45.157"/>
<text text-anchor="middle" x="1412.55" y="-57.8" font-family="Times,serif" font-size="14.00">1 Ch 2:19</text>
</g>
<!-- perezs_hezron -->
<g id="node14" class="node"><title>perezs_hezron</title>
<g id="a_node14"><a xlink:href="perezs_hezron.html" xlink:title="Hezron" target="_top">
<ellipse fill="none" stroke="blue" cx="739.047" cy="-192" rx="36.2938" ry="18"/>
<text text-anchor="middle" x="739.047" y="-188.3" font-family="Times,serif" font-size="14.00">Hezron</text>
</a>
</g>
</g>
<!-- perezs_hezron&#45;&gt;caleb -->
<g id="edge17" class="edge"><title>perezs_hezron&#45;&gt;caleb</title>
<path fill="none" stroke="black" d="M739.047,-173.799C739.047,-162.163 739.047,-146.548 739.047,-133.237"/>
<polygon fill="black" stroke="black" points="742.547,-133.175 739.047,-123.175 735.547,-133.175 742.547,-133.175"/>
<text text-anchor="middle" x="763.047" y="-144.8" font-family="Times,serif" font-size="14.00">1 Ch 2:9</text>
</g>
</g>
</svg>
