<?xml version="1.0" encoding="UTF-8" standalone="no"?>
<!DOCTYPE svg PUBLIC "-//W3C//DTD SVG 1.1//EN"
 "http://www.w3.org/Graphics/SVG/1.1/DTD/svg11.dtd">
<!-- Generated by graphviz version 2.38.0 (20140413.2041)
 -->
<!-- Title: ancestry Pages: 1 -->
<svg width="248pt" height="131pt"
 viewBox="0.00 0.00 248.50 131.00" xmlns="http://www.w3.org/2000/svg" xmlns:xlink="http://www.w3.org/1999/xlink">
<g id="graph0" class="graph" transform="scale(1 1) rotate(0) translate(4 127)">
<title>ancestry</title>
<polygon fill="white" stroke="none" points="-4,4 -4,-127 244.497,-127 244.497,4 -4,4"/>
<!-- calebs_ephah -->
<g id="node1" class="node"><title>calebs_ephah</title>
<g id="a_node1"><a xlink:href="calebs_ephah.html" xlink:title="Ephah" target="_top">
<ellipse fill="lightpink" stroke="red" stroke-width="2" cx="115.497" cy="-105" rx="33.2948" ry="18"/>
<text text-anchor="middle" x="115.497" y="-101.3" font-family="Times,serif" font-size="14.00">Ephah</text>
</a>
</g>
</g>
<!-- calebs_haran -->
<g id="node2" class="node"><title>calebs_haran</title>
<g id="a_node2"><a xlink:href="calebs_haran.html" xlink:title="Haran" target="_top">
<ellipse fill="none" stroke="blue" cx="32.4971" cy="-18" rx="32.4942" ry="18"/>
<text text-anchor="middle" x="32.4971" y="-14.3" font-family="Times,serif" font-size="14.00">Haran</text>
</a>
</g>
</g>
<!-- calebs_ephah&#45;&gt;calebs_haran -->
<g id="edge1" class="edge"><title>calebs_ephah&#45;&gt;calebs_haran</title>
<path fill="none" stroke="black" d="M90.2321,-93.1877C78.8161,-87.3302 65.8274,-79.1887 56.4971,-69 50.3275,-62.2628 45.4346,-53.6519 41.7193,-45.4814"/>
<polygon fill="black" stroke="black" points="44.9496,-44.1338 37.8931,-36.2309 38.4811,-46.8094 44.9496,-44.1338"/>
<text text-anchor="middle" x="83.9971" y="-57.8" font-family="Times,serif" font-size="14.00">1 Ch 2:46</text>
</g>
<!-- gazez -->
<g id="node3" class="node"><title>gazez</title>
<g id="a_node3"><a xlink:href="gazez.html" xlink:title="Gazez" target="_top">
<ellipse fill="none" stroke="blue" cx="115.497" cy="-18" rx="32.4942" ry="18"/>
<text text-anchor="middle" x="115.497" y="-14.3" font-family="Times,serif" font-size="14.00">Gazez</text>
</a>
</g>
</g>
<!-- calebs_ephah&#45;&gt;gazez -->
<g id="edge2" class="edge"><title>calebs_ephah&#45;&gt;gazez</title>
<path fill="none" stroke="black" d="M115.497,-86.799C115.497,-75.1626 115.497,-59.5479 115.497,-46.2368"/>
<polygon fill="black" stroke="black" points="118.997,-46.1754 115.497,-36.1754 111.997,-46.1755 118.997,-46.1754"/>
<text text-anchor="middle" x="142.997" y="-57.8" font-family="Times,serif" font-size="14.00">1 Ch 2:46</text>
</g>
<!-- moza -->
<g id="node4" class="node"><title>moza</title>
<g id="a_node4"><a xlink:href="moza.html" xlink:title="Moza" target="_top">
<ellipse fill="none" stroke="blue" cx="197.497" cy="-18" rx="31.3957" ry="18"/>
<text text-anchor="middle" x="197.497" y="-14.3" font-family="Times,serif" font-size="14.00">Moza</text>
</a>
</g>
</g>
<!-- calebs_ephah&#45;&gt;moza -->
<g id="edge3" class="edge"><title>calebs_ephah&#45;&gt;moza</title>
<path fill="none" stroke="black" d="M140.837,-93.256C152.27,-87.4134 165.251,-79.2648 174.497,-69 180.498,-62.3378 185.191,-53.841 188.727,-45.75"/>
<polygon fill="black" stroke="black" points="192.067,-46.8195 192.478,-36.2326 185.555,-44.253 192.067,-46.8195"/>
<text text-anchor="middle" x="212.997" y="-57.8" font-family="Times,serif" font-size="14.00">1 Ch 2:46</text>
</g>
</g>
</svg>
