<?xml version="1.0" encoding="UTF-8" standalone="no"?>
<!DOCTYPE svg PUBLIC "-//W3C//DTD SVG 1.1//EN"
 "http://www.w3.org/Graphics/SVG/1.1/DTD/svg11.dtd">
<!-- Generated by graphviz version 2.38.0 (20140413.2041)
 -->
<!-- Title: ancestry Pages: 1 -->
<svg width="161pt" height="218pt"
 viewBox="0.00 0.00 161.20 218.00" xmlns="http://www.w3.org/2000/svg" xmlns:xlink="http://www.w3.org/1999/xlink">
<g id="graph0" class="graph" transform="scale(1 1) rotate(0) translate(4 214)">
<title>ancestry</title>
<polygon fill="white" stroke="none" points="-4,4 -4,-214 157.197,-214 157.197,4 -4,4"/>
<!-- caleb -->
<g id="node1" class="node"><title>caleb</title>
<g id="a_node1"><a xlink:href="caleb.html" xlink:title="Caleb" target="_top">
<ellipse fill="none" stroke="blue" cx="31.1972" cy="-192" rx="31.3957" ry="18"/>
<text text-anchor="middle" x="31.1972" y="-188.3" font-family="Times,serif" font-size="14.00">Caleb</text>
</a>
</g>
</g>
<!-- calebs_haran -->
<g id="node3" class="node"><title>calebs_haran</title>
<g id="a_node3"><a xlink:href="calebs_haran.html" xlink:title="Haran" target="_top">
<ellipse fill="lightblue" stroke="blue" stroke-width="2" cx="72.1972" cy="-105" rx="32.4942" ry="18"/>
<text text-anchor="middle" x="72.1972" y="-101.3" font-family="Times,serif" font-size="14.00">Haran</text>
</a>
</g>
</g>
<!-- caleb&#45;&gt;calebs_haran -->
<g id="edge1" class="edge"><title>caleb&#45;&gt;calebs_haran</title>
<path fill="none" stroke="black" d="M30.0568,-174.009C30.0563,-163.948 31.2686,-151.214 36.1972,-141 38.6596,-135.897 42.1924,-131.129 46.0933,-126.855"/>
<polygon fill="black" stroke="black" points="48.6709,-129.229 53.3608,-119.729 43.7701,-124.231 48.6709,-129.229"/>
<text text-anchor="middle" x="63.6972" y="-144.8" font-family="Times,serif" font-size="14.00">1 Ch 2:46</text>
</g>
<!-- calebs_ephah -->
<g id="node2" class="node"><title>calebs_ephah</title>
<g id="a_node2"><a xlink:href="calebs_ephah.html" xlink:title="Ephah" target="_top">
<ellipse fill="none" stroke="red" cx="113.197" cy="-192" rx="33.2948" ry="18"/>
<text text-anchor="middle" x="113.197" y="-188.3" font-family="Times,serif" font-size="14.00">Ephah</text>
</a>
</g>
</g>
<!-- calebs_ephah&#45;&gt;calebs_haran -->
<g id="edge2" class="edge"><title>calebs_ephah&#45;&gt;calebs_haran</title>
<path fill="none" stroke="black" d="M106.206,-174.174C102.042,-164.399 96.542,-151.899 91.1972,-141 89.7056,-137.958 88.0889,-134.799 86.4496,-131.678"/>
<polygon fill="black" stroke="black" points="89.3822,-129.741 81.5667,-122.588 83.2156,-133.053 89.3822,-129.741"/>
<text text-anchor="middle" x="125.697" y="-144.8" font-family="Times,serif" font-size="14.00">1 Ch 2:46</text>
</g>
<!-- harans_gazez -->
<g id="node4" class="node"><title>harans_gazez</title>
<g id="a_node4"><a xlink:href="harans_gazez.html" xlink:title="Gazez" target="_top">
<ellipse fill="none" stroke="blue" cx="72.1972" cy="-18" rx="32.4942" ry="18"/>
<text text-anchor="middle" x="72.1972" y="-14.3" font-family="Times,serif" font-size="14.00">Gazez</text>
</a>
</g>
</g>
<!-- calebs_haran&#45;&gt;harans_gazez -->
<g id="edge3" class="edge"><title>calebs_haran&#45;&gt;harans_gazez</title>
<path fill="none" stroke="black" d="M72.1972,-86.799C72.1972,-75.1626 72.1972,-59.5479 72.1972,-46.2368"/>
<polygon fill="black" stroke="black" points="75.6973,-46.1754 72.1972,-36.1754 68.6973,-46.1755 75.6973,-46.1754"/>
<text text-anchor="middle" x="99.6972" y="-57.8" font-family="Times,serif" font-size="14.00">1 Ch 2:46</text>
</g>
</g>
</svg>
