<?xml version="1.0" encoding="UTF-8" standalone="no"?>
<!DOCTYPE svg PUBLIC "-//W3C//DTD SVG 1.1//EN"
 "http://www.w3.org/Graphics/SVG/1.1/DTD/svg11.dtd">
<!-- Generated by graphviz version 2.38.0 (20140413.2041)
 -->
<!-- Title: ancestry Pages: 1 -->
<svg width="1321pt" height="233pt"
 viewBox="0.00 0.00 1321.34 233.00" xmlns="http://www.w3.org/2000/svg" xmlns:xlink="http://www.w3.org/1999/xlink">
<g id="graph0" class="graph" transform="scale(1 1) rotate(0) translate(4 229)">
<title>ancestry</title>
<polygon fill="white" stroke="none" points="-4,4 -4,-229 1317.34,-229 1317.34,4 -4,4"/>
<!-- amorites -->
<g id="node1" class="node"><title>amorites</title>
<g id="a_node1"><a xlink:href="amorites.html" xlink:title="Amorites" target="_top">
<ellipse fill="none" stroke="black" cx="44.1961" cy="-18" rx="44.393" ry="18"/>
<text text-anchor="middle" x="44.1961" y="-14.3" font-family="Times,serif" font-size="14.00">Amorites</text>
</a>
</g>
</g>
<!-- arkites -->
<g id="node2" class="node"><title>arkites</title>
<g id="a_node2"><a xlink:href="arkites.html" xlink:title="Arkites" target="_top">
<ellipse fill="none" stroke="black" cx="143.196" cy="-18" rx="36.2938" ry="18"/>
<text text-anchor="middle" x="143.196" y="-14.3" font-family="Times,serif" font-size="14.00">Arkites</text>
</a>
</g>
</g>
<!-- arvadites -->
<g id="node3" class="node"><title>arvadites</title>
<g id="a_node3"><a xlink:href="arvadites.html" xlink:title="Arvadites" target="_top">
<ellipse fill="none" stroke="black" cx="242.196" cy="-18" rx="44.6926" ry="18"/>
<text text-anchor="middle" x="242.196" y="-14.3" font-family="Times,serif" font-size="14.00">Arvadites</text>
</a>
</g>
</g>
<!-- bathshua -->
<g id="node4" class="node"><title>bathshua</title>
<g id="a_node4"><a xlink:href="bathshua.html" xlink:title="Bathshua" target="_top">
<ellipse fill="none" stroke="red" cx="348.196" cy="-18" rx="43.5923" ry="18"/>
<text text-anchor="middle" x="348.196" y="-14.3" font-family="Times,serif" font-size="14.00">Bathshua</text>
</a>
</g>
</g>
<!-- canaan -->
<g id="node5" class="node"><title>canaan</title>
<g id="a_node5"><a xlink:href="canaan.html" xlink:title="Canaan" target="_top">
<ellipse fill="lightblue" stroke="blue" stroke-width="2" cx="668.196" cy="-105" rx="37.0935" ry="18"/>
<text text-anchor="middle" x="668.196" y="-101.3" font-family="Times,serif" font-size="14.00">Canaan</text>
</a>
</g>
</g>
<!-- canaan&#45;&gt;amorites -->
<g id="edge7" class="edge"><title>canaan&#45;&gt;amorites</title>
<path fill="none" stroke="black" stroke-dasharray="1,5" d="M631.077,-103.28C528.241,-101.002 241.254,-92.6498 150.196,-69 124.408,-62.3022 97.2676,-49.3744 76.9057,-38.3424"/>
<polygon fill="black" stroke="black" points="78.4993,-35.2241 68.0564,-33.4363 75.1052,-41.3462 78.4993,-35.2241"/>
<text text-anchor="middle" x="179.196" y="-57.8" font-family="Times,serif" font-size="14.00">Gen 10:16</text>
</g>
<!-- canaan&#45;&gt;arkites -->
<g id="edge10" class="edge"><title>canaan&#45;&gt;arkites</title>
<path fill="none" stroke="black" stroke-dasharray="1,5" d="M631.468,-102.56C543.466,-98.8448 322.571,-87.8848 251.196,-69 224.227,-61.8642 195.663,-48.347 174.689,-37.1646"/>
<polygon fill="black" stroke="black" points="176.362,-34.0905 165.906,-32.3819 173.015,-40.2381 176.362,-34.0905"/>
<text text-anchor="middle" x="280.196" y="-57.8" font-family="Times,serif" font-size="14.00">Gen 10:17</text>
</g>
<!-- canaan&#45;&gt;arvadites -->
<g id="edge12" class="edge"><title>canaan&#45;&gt;arvadites</title>
<path fill="none" stroke="black" stroke-dasharray="1,5" d="M631.122,-103.601C571.511,-102.138 451.12,-95.7792 353.196,-69 326.38,-61.6666 297.817,-48.6691 276.381,-37.7641"/>
<polygon fill="black" stroke="black" points="277.85,-34.5834 267.362,-33.0855 274.627,-40.7971 277.85,-34.5834"/>
<text text-anchor="middle" x="382.196" y="-57.8" font-family="Times,serif" font-size="14.00">Gen 10:18</text>
</g>
<!-- canaan&#45;&gt;bathshua -->
<g id="edge3" class="edge"><title>canaan&#45;&gt;bathshua</title>
<path fill="none" stroke="black" stroke-dasharray="1,5" d="M631.716,-101.226C588.357,-97.2108 514.199,-88.0641 453.196,-69 428.241,-61.2013 401.667,-48.499 381.496,-37.8494"/>
<polygon fill="black" stroke="black" points="382.891,-34.6257 372.426,-32.9717 379.575,-40.7907 382.891,-34.6257"/>
<text text-anchor="middle" x="477.196" y="-57.8" font-family="Times,serif" font-size="14.00">1 Ch 2:3</text>
</g>
<!-- girgasites -->
<g id="node6" class="node"><title>girgasites</title>
<g id="a_node6"><a xlink:href="girgasites.html" xlink:title="Girgasites" target="_top">
<ellipse fill="none" stroke="black" cx="456.196" cy="-18" rx="46.2923" ry="18"/>
<text text-anchor="middle" x="456.196" y="-14.3" font-family="Times,serif" font-size="14.00">Girgasites</text>
</a>
</g>
</g>
<!-- canaan&#45;&gt;girgasites -->
<g id="edge8" class="edge"><title>canaan&#45;&gt;girgasites</title>
<path fill="none" stroke="black" stroke-dasharray="1,5" d="M633.627,-98.5152C605.262,-93.2351 564.496,-83.8336 531.196,-69 514.545,-61.5826 497.519,-50.5633 483.906,-40.7556"/>
<polygon fill="black" stroke="black" points="485.614,-37.6657 475.492,-34.5355 481.453,-43.2946 485.614,-37.6657"/>
<text text-anchor="middle" x="560.196" y="-57.8" font-family="Times,serif" font-size="14.00">Gen 10:16</text>
</g>
<!-- hamathites -->
<g id="node8" class="node"><title>hamathites</title>
<g id="a_node8"><a xlink:href="hamathites.html" xlink:title="Hamathites" target="_top">
<ellipse fill="none" stroke="black" cx="571.196" cy="-18" rx="51.1914" ry="18"/>
<text text-anchor="middle" x="571.196" y="-14.3" font-family="Times,serif" font-size="14.00">Hamathites</text>
</a>
</g>
</g>
<!-- canaan&#45;&gt;hamathites -->
<g id="edge14" class="edge"><title>canaan&#45;&gt;hamathites</title>
<path fill="none" stroke="black" stroke-dasharray="1,5" d="M641.762,-92.3816C630.066,-86.4465 616.63,-78.4701 606.196,-69 598.393,-61.9178 591.37,-52.7921 585.699,-44.2796"/>
<polygon fill="black" stroke="black" points="588.604,-42.325 580.303,-35.7419 582.687,-46.065 588.604,-42.325"/>
<text text-anchor="middle" x="635.196" y="-57.8" font-family="Times,serif" font-size="14.00">Gen 10:18</text>
</g>
<!-- heth -->
<g id="node9" class="node"><title>heth</title>
<g id="a_node9"><a xlink:href="heth.html" xlink:title="Heth" target="_top">
<ellipse fill="none" stroke="black" cx="668.196" cy="-18" rx="27.8951" ry="18"/>
<text text-anchor="middle" x="668.196" y="-14.3" font-family="Times,serif" font-size="14.00">Heth</text>
</a>
</g>
</g>
<!-- canaan&#45;&gt;heth -->
<g id="edge5" class="edge"><title>canaan&#45;&gt;heth</title>
<path fill="none" stroke="black" stroke-dasharray="1,5" d="M668.196,-86.799C668.196,-75.1626 668.196,-59.5479 668.196,-46.2368"/>
<polygon fill="black" stroke="black" points="671.696,-46.1754 668.196,-36.1754 664.696,-46.1755 671.696,-46.1754"/>
<text text-anchor="middle" x="697.196" y="-57.8" font-family="Times,serif" font-size="14.00">Gen 10:15</text>
</g>
<!-- hivites -->
<g id="node10" class="node"><title>hivites</title>
<g id="a_node10"><a xlink:href="hivites.html" xlink:title="Hivites" target="_top">
<ellipse fill="none" stroke="black" cx="750.196" cy="-18" rx="36.2938" ry="18"/>
<text text-anchor="middle" x="750.196" y="-14.3" font-family="Times,serif" font-size="14.00">Hivites</text>
</a>
</g>
</g>
<!-- canaan&#45;&gt;hivites -->
<g id="edge9" class="edge"><title>canaan&#45;&gt;hivites</title>
<path fill="none" stroke="black" stroke-dasharray="1,5" d="M695.559,-92.6464C706.819,-86.8938 719.283,-78.9872 728.196,-69 734.122,-62.3598 738.66,-53.869 742.03,-45.7766"/>
<polygon fill="black" stroke="black" points="745.367,-46.8472 745.578,-36.2545 738.807,-44.4031 745.367,-46.8472"/>
<text text-anchor="middle" x="767.196" y="-57.8" font-family="Times,serif" font-size="14.00">Gen 10:17</text>
</g>
<!-- jebusites -->
<g id="node11" class="node"><title>jebusites</title>
<g id="a_node11"><a xlink:href="jebusites.html" xlink:title="Jebusites" target="_top">
<ellipse fill="none" stroke="black" cx="847.196" cy="-18" rx="42.4939" ry="18"/>
<text text-anchor="middle" x="847.196" y="-14.3" font-family="Times,serif" font-size="14.00">Jebusites</text>
</a>
</g>
</g>
<!-- canaan&#45;&gt;jebusites -->
<g id="edge6" class="edge"><title>canaan&#45;&gt;jebusites</title>
<path fill="none" stroke="black" stroke-dasharray="1,5" d="M703.899,-99.9875C731.714,-95.6205 770.467,-86.7298 800.196,-69 811.117,-62.4868 821.102,-52.7132 829.032,-43.53"/>
<polygon fill="black" stroke="black" points="831.811,-45.6611 835.445,-35.7088 826.398,-41.223 831.811,-45.6611"/>
<text text-anchor="middle" x="847.196" y="-57.8" font-family="Times,serif" font-size="14.00">Gen 10:16</text>
</g>
<!-- shauls_mother -->
<g id="node12" class="node"><title>shauls_mother</title>
<g id="a_node12"><a xlink:href="shauls_mother.html" xlink:title="Shauls_mother" target="_top">
<ellipse fill="none" stroke="red" cx="971.196" cy="-18" rx="63.8893" ry="18"/>
<text text-anchor="middle" x="971.196" y="-14.3" font-family="Times,serif" font-size="14.00">Shauls_mother</text>
</a>
</g>
</g>
<!-- canaan&#45;&gt;shauls_mother -->
<g id="edge2" class="edge"><title>canaan&#45;&gt;shauls_mother</title>
<path fill="none" stroke="black" stroke-dasharray="1,5" d="M704.747,-101.73C747.743,-98.2095 820.793,-89.5478 880.196,-69 900.607,-61.9397 921.846,-50.5361 938.666,-40.4011"/>
<polygon fill="black" stroke="black" points="940.85,-43.1662 947.523,-34.9367 937.174,-37.2089 940.85,-43.1662"/>
<text text-anchor="middle" x="935.696" y="-57.8" font-family="Times,serif" font-size="14.00">Ex 6:15</text>
</g>
<!-- sidon -->
<g id="node13" class="node"><title>sidon</title>
<g id="a_node13"><a xlink:href="sidon.html" xlink:title="Sidon" target="_top">
<ellipse fill="none" stroke="black" cx="1084.2" cy="-18" rx="31.3957" ry="18"/>
<text text-anchor="middle" x="1084.2" y="-14.3" font-family="Times,serif" font-size="14.00">Sidon</text>
</a>
</g>
</g>
<!-- canaan&#45;&gt;sidon -->
<g id="edge4" class="edge"><title>canaan&#45;&gt;sidon</title>
<path fill="none" stroke="black" stroke-dasharray="1,5" d="M705.299,-102.647C761.463,-99.9118 871.074,-91.8833 961.196,-69 993.149,-60.8868 1027.79,-46.2338 1052.14,-34.88"/>
<polygon fill="black" stroke="black" points="1053.73,-38.0016 1061.26,-30.5561 1050.73,-31.6761 1053.73,-38.0016"/>
<text text-anchor="middle" x="1036.2" y="-57.8" font-family="Times,serif" font-size="14.00">Gen 10:15</text>
</g>
<!-- sinites -->
<g id="node14" class="node"><title>sinites</title>
<g id="a_node14"><a xlink:href="sinites.html" xlink:title="Sinites" target="_top">
<ellipse fill="none" stroke="black" cx="1168.2" cy="-18" rx="34.394" ry="18"/>
<text text-anchor="middle" x="1168.2" y="-14.3" font-family="Times,serif" font-size="14.00">Sinites</text>
</a>
</g>
</g>
<!-- canaan&#45;&gt;sinites -->
<g id="edge11" class="edge"><title>canaan&#45;&gt;sinites</title>
<path fill="none" stroke="black" stroke-dasharray="1,5" d="M705.134,-102.565C790.887,-98.9453 1001.31,-88.3272 1069.2,-69 1093.71,-62.022 1119.33,-48.8961 1138.37,-37.8436"/>
<polygon fill="black" stroke="black" points="1140.35,-40.7401 1147.15,-32.6205 1136.77,-34.7235 1140.35,-40.7401"/>
<text text-anchor="middle" x="1135.2" y="-57.8" font-family="Times,serif" font-size="14.00">Gen 10:17</text>
</g>
<!-- zemarites -->
<g id="node15" class="node"><title>zemarites</title>
<g id="a_node15"><a xlink:href="zemarites.html" xlink:title="Zemarites" target="_top">
<ellipse fill="none" stroke="black" cx="1267.2" cy="-18" rx="46.2923" ry="18"/>
<text text-anchor="middle" x="1267.2" y="-14.3" font-family="Times,serif" font-size="14.00">Zemarites</text>
</a>
</g>
</g>
<!-- canaan&#45;&gt;zemarites -->
<g id="edge13" class="edge"><title>canaan&#45;&gt;zemarites</title>
<path fill="none" stroke="black" stroke-dasharray="1,5" d="M705.137,-103.305C805.399,-101.118 1080.95,-93.0327 1168.2,-69 1191.97,-62.4525 1216.73,-49.9457 1235.54,-39.0792"/>
<polygon fill="black" stroke="black" points="1237.44,-42.0177 1244.26,-33.9098 1233.88,-35.995 1237.44,-42.0177"/>
<text text-anchor="middle" x="1234.2" y="-57.8" font-family="Times,serif" font-size="14.00">Gen 10:18</text>
</g>
<!-- ham -->
<g id="node7" class="node"><title>ham</title>
<g id="a_node7"><a xlink:href="ham.html" xlink:title="Ham" target="_top">
<ellipse fill="none" stroke="blue" cx="668.196" cy="-207" rx="28.6953" ry="18"/>
<text text-anchor="middle" x="668.196" y="-203.3" font-family="Times,serif" font-size="14.00">Ham</text>
</a>
</g>
</g>
<!-- ham&#45;&gt;canaan -->
<g id="edge1" class="edge"><title>ham&#45;&gt;canaan</title>
<path fill="none" stroke="black" d="M668.196,-188.581C668.196,-173.382 668.196,-151.067 668.196,-133.464"/>
<polygon fill="black" stroke="black" points="671.696,-133.219 668.196,-123.219 664.696,-133.219 671.696,-133.219"/>
<text text-anchor="middle" x="693.696" y="-159.8" font-family="Times,serif" font-size="14.00">Gen 9:18</text>
<text text-anchor="middle" x="693.696" y="-144.8" font-family="Times,serif" font-size="14.00">Gen 10:6</text>
</g>
</g>
</svg>
