<?xml version="1.0" encoding="UTF-8" standalone="no"?>
<!DOCTYPE svg PUBLIC "-//W3C//DTD SVG 1.1//EN"
 "http://www.w3.org/Graphics/SVG/1.1/DTD/svg11.dtd">
<!-- Generated by graphviz version 2.38.0 (20140413.2041)
 -->
<!-- Title: ancestry Pages: 1 -->
<svg width="94pt" height="218pt"
 viewBox="0.00 0.00 93.70 218.00" xmlns="http://www.w3.org/2000/svg" xmlns:xlink="http://www.w3.org/1999/xlink">
<g id="graph0" class="graph" transform="scale(1 1) rotate(0) translate(4 214)">
<title>ancestry</title>
<polygon fill="white" stroke="none" points="-4,4 -4,-214 89.6967,-214 89.6967,4 -4,4"/>
<!-- achan -->
<g id="node1" class="node"><title>achan</title>
<g id="a_node1"><a xlink:href="achan.html" xlink:title="Achan" target="_top">
<ellipse fill="none" stroke="blue" cx="37.6967" cy="-18" rx="33.5952" ry="18"/>
<text text-anchor="middle" x="37.6967" y="-14.3" font-family="Times,serif" font-size="14.00">Achan</text>
</a>
</g>
</g>
<!-- carmi -->
<g id="node2" class="node"><title>carmi</title>
<g id="a_node2"><a xlink:href="carmi.html" xlink:title="Carmi" target="_top">
<ellipse fill="lightblue" stroke="blue" stroke-width="2" cx="37.6967" cy="-105" rx="33.2948" ry="18"/>
<text text-anchor="middle" x="37.6967" y="-101.3" font-family="Times,serif" font-size="14.00">Carmi</text>
</a>
</g>
</g>
<!-- carmi&#45;&gt;achan -->
<g id="edge1" class="edge"><title>carmi&#45;&gt;achan</title>
<path fill="none" stroke="black" d="M37.6967,-86.799C37.6967,-75.1626 37.6967,-59.5479 37.6967,-46.2368"/>
<polygon fill="black" stroke="black" points="41.1968,-46.1754 37.6967,-36.1754 34.1968,-46.1755 41.1968,-46.1754"/>
<text text-anchor="middle" x="61.6967" y="-57.8" font-family="Times,serif" font-size="14.00">1 Ch 2:7</text>
</g>
<!-- reuben -->
<g id="node3" class="node"><title>reuben</title>
<g id="a_node3"><a xlink:href="reuben.html" xlink:title="Reuben" target="_top">
<ellipse fill="none" stroke="blue" cx="37.6967" cy="-192" rx="37.8943" ry="18"/>
<text text-anchor="middle" x="37.6967" y="-188.3" font-family="Times,serif" font-size="14.00">Reuben</text>
</a>
</g>
</g>
<!-- reuben&#45;&gt;carmi -->
<g id="edge2" class="edge"><title>reuben&#45;&gt;carmi</title>
<path fill="none" stroke="black" d="M37.6967,-173.799C37.6967,-162.163 37.6967,-146.548 37.6967,-133.237"/>
<polygon fill="black" stroke="black" points="41.1968,-133.175 37.6967,-123.175 34.1968,-133.175 41.1968,-133.175"/>
<text text-anchor="middle" x="59.1967" y="-144.8" font-family="Times,serif" font-size="14.00">Ex 6:14</text>
</g>
</g>
</svg>
