<?xml version="1.0" encoding="UTF-8" standalone="no"?>
<!DOCTYPE svg PUBLIC "-//W3C//DTD SVG 1.1//EN"
 "http://www.w3.org/Graphics/SVG/1.1/DTD/svg11.dtd">
<!-- Generated by graphviz version 2.38.0 (20140413.2041)
 -->
<!-- Title: ancestry Pages: 1 -->
<svg width="111pt" height="218pt"
 viewBox="0.00 0.00 110.85 218.00" xmlns="http://www.w3.org/2000/svg" xmlns:xlink="http://www.w3.org/1999/xlink">
<g id="graph0" class="graph" transform="scale(1 1) rotate(0) translate(4 214)">
<title>ancestry</title>
<polygon fill="white" stroke="none" points="-4,4 -4,-214 106.846,-214 106.846,4 -4,4"/>
<!-- casluhim -->
<g id="node1" class="node"><title>casluhim</title>
<g id="a_node1"><a xlink:href="casluhim.html" xlink:title="Casluhim" target="_top">
<ellipse fill="lightgrey" stroke="black" stroke-width="2" cx="44.846" cy="-105" rx="44.6926" ry="18"/>
<text text-anchor="middle" x="44.846" y="-101.3" font-family="Times,serif" font-size="14.00">Casluhim</text>
</a>
</g>
</g>
<!-- philistim -->
<g id="node3" class="node"><title>philistim</title>
<g id="a_node3"><a xlink:href="philistim.html" xlink:title="Philistim" target="_top">
<ellipse fill="none" stroke="black" cx="44.846" cy="-18" rx="42.7926" ry="18"/>
<text text-anchor="middle" x="44.846" y="-14.3" font-family="Times,serif" font-size="14.00">Philistim</text>
</a>
</g>
</g>
<!-- casluhim&#45;&gt;philistim -->
<g id="edge1" class="edge"><title>casluhim&#45;&gt;philistim</title>
<path fill="none" stroke="black" stroke-dasharray="1,5" d="M44.846,-86.799C44.846,-75.1626 44.846,-59.5479 44.846,-46.2368"/>
<polygon fill="black" stroke="black" points="48.3461,-46.1754 44.846,-36.1754 41.3461,-46.1755 48.3461,-46.1754"/>
<text text-anchor="middle" x="73.846" y="-57.8" font-family="Times,serif" font-size="14.00">Gen 10:14</text>
</g>
<!-- mizraim -->
<g id="node2" class="node"><title>mizraim</title>
<g id="a_node2"><a xlink:href="mizraim.html" xlink:title="Mizraim" target="_top">
<ellipse fill="none" stroke="blue" cx="44.846" cy="-192" rx="42.4939" ry="18"/>
<text text-anchor="middle" x="44.846" y="-188.3" font-family="Times,serif" font-size="14.00">Mizraim</text>
</a>
</g>
</g>
<!-- mizraim&#45;&gt;casluhim -->
<g id="edge2" class="edge"><title>mizraim&#45;&gt;casluhim</title>
<path fill="none" stroke="black" stroke-dasharray="1,5" d="M44.846,-173.799C44.846,-162.163 44.846,-146.548 44.846,-133.237"/>
<polygon fill="black" stroke="black" points="48.3461,-133.175 44.846,-123.175 41.3461,-133.175 48.3461,-133.175"/>
<text text-anchor="middle" x="73.846" y="-144.8" font-family="Times,serif" font-size="14.00">Gen 10:14</text>
</g>
</g>
</svg>
