<?xml version="1.0" encoding="UTF-8" standalone="no"?>
<!DOCTYPE svg PUBLIC "-//W3C//DTD SVG 1.1//EN"
 "http://www.w3.org/Graphics/SVG/1.1/DTD/svg11.dtd">
<!-- Generated by graphviz version 2.38.0 (20140413.2041)
 -->
<!-- Title: ancestry Pages: 1 -->
<svg width="551pt" height="218pt"
 viewBox="0.00 0.00 551.29 218.00" xmlns="http://www.w3.org/2000/svg" xmlns:xlink="http://www.w3.org/1999/xlink">
<g id="graph0" class="graph" transform="scale(1 1) rotate(0) translate(4 214)">
<title>ancestry</title>
<polygon fill="white" stroke="none" points="-4,4 -4,-214 547.294,-214 547.294,4 -4,4"/>
<!-- cush -->
<g id="node1" class="node"><title>cush</title>
<g id="a_node1"><a xlink:href="cush.html" xlink:title="Cush" target="_top">
<ellipse fill="lightblue" stroke="blue" stroke-width="2" cx="276.347" cy="-105" rx="28.6953" ry="18"/>
<text text-anchor="middle" x="276.347" y="-101.3" font-family="Times,serif" font-size="14.00">Cush</text>
</a>
</g>
</g>
<!-- cushes_havilah -->
<g id="node2" class="node"><title>cushes_havilah</title>
<g id="a_node2"><a xlink:href="cushes_havilah.html" xlink:title="Havilah" target="_top">
<ellipse fill="none" stroke="blue" cx="38.3466" cy="-18" rx="38.1938" ry="18"/>
<text text-anchor="middle" x="38.3466" y="-14.3" font-family="Times,serif" font-size="14.00">Havilah</text>
</a>
</g>
</g>
<!-- cush&#45;&gt;cushes_havilah -->
<g id="edge1" class="edge"><title>cush&#45;&gt;cushes_havilah</title>
<path fill="none" stroke="black" d="M248.176,-101.104C215.091,-96.9886 159.053,-87.7618 114.347,-69 96.8592,-61.6612 79.0559,-50.2063 65.0805,-40.1114"/>
<polygon fill="black" stroke="black" points="67.0273,-37.1976 56.9106,-34.0506 62.8567,-42.8196 67.0273,-37.1976"/>
<text text-anchor="middle" x="139.847" y="-57.8" font-family="Times,serif" font-size="14.00">Gen 10:7</text>
</g>
<!-- nimrod -->
<g id="node4" class="node"><title>nimrod</title>
<g id="a_node4"><a xlink:href="nimrod.html" xlink:title="Nimrod" target="_top">
<ellipse fill="none" stroke="blue" cx="133.347" cy="-18" rx="38.1938" ry="18"/>
<text text-anchor="middle" x="133.347" y="-14.3" font-family="Times,serif" font-size="14.00">Nimrod</text>
</a>
</g>
</g>
<!-- cush&#45;&gt;nimrod -->
<g id="edge7" class="edge"><title>cush&#45;&gt;nimrod</title>
<path fill="none" stroke="black" stroke-dasharray="1,5" d="M250.931,-96.5903C232.709,-90.6492 208.011,-81.2787 188.347,-69 176.428,-61.5575 164.697,-51.4001 155.151,-42.1839"/>
<polygon fill="black" stroke="black" points="157.558,-39.6409 148.002,-35.0644 152.618,-44.6009 157.558,-39.6409"/>
<text text-anchor="middle" x="213.847" y="-57.8" font-family="Times,serif" font-size="14.00">Gen 10:8</text>
</g>
<!-- raamah -->
<g id="node5" class="node"><title>raamah</title>
<g id="a_node5"><a xlink:href="raamah.html" xlink:title="Raamah" target="_top">
<ellipse fill="none" stroke="blue" cx="230.347" cy="-18" rx="40.0939" ry="18"/>
<text text-anchor="middle" x="230.347" y="-14.3" font-family="Times,serif" font-size="14.00">Raamah</text>
</a>
</g>
</g>
<!-- cush&#45;&gt;raamah -->
<g id="edge2" class="edge"><title>cush&#45;&gt;raamah</title>
<path fill="none" stroke="black" d="M263.53,-88.5579C259.007,-82.6648 254.114,-75.7395 250.347,-69 246.241,-61.6553 242.55,-53.295 239.49,-45.541"/>
<polygon fill="black" stroke="black" points="242.761,-44.2955 235.967,-36.1656 236.208,-46.7577 242.761,-44.2955"/>
<text text-anchor="middle" x="275.847" y="-57.8" font-family="Times,serif" font-size="14.00">Gen 10:7</text>
</g>
<!-- sabtah -->
<g id="node6" class="node"><title>sabtah</title>
<g id="a_node6"><a xlink:href="sabtah.html" xlink:title="Sabtah" target="_top">
<ellipse fill="none" stroke="blue" cx="323.347" cy="-18" rx="34.394" ry="18"/>
<text text-anchor="middle" x="323.347" y="-14.3" font-family="Times,serif" font-size="14.00">Sabtah</text>
</a>
</g>
</g>
<!-- cush&#45;&gt;sabtah -->
<g id="edge3" class="edge"><title>cush&#45;&gt;sabtah</title>
<path fill="none" stroke="black" d="M288.513,-88.4279C292.845,-82.5207 297.579,-75.6198 301.347,-69 305.568,-61.5818 309.541,-53.1997 312.917,-45.4483"/>
<polygon fill="black" stroke="black" points="316.203,-46.6624 316.85,-36.0873 309.75,-43.9513 316.203,-46.6624"/>
<text text-anchor="middle" x="334.847" y="-57.8" font-family="Times,serif" font-size="14.00">Gen 10:7</text>
</g>
<!-- sabtechah -->
<g id="node7" class="node"><title>sabtechah</title>
<g id="a_node7"><a xlink:href="sabtechah.html" xlink:title="Sabtechah" target="_top">
<ellipse fill="none" stroke="blue" cx="422.347" cy="-18" rx="46.5926" ry="18"/>
<text text-anchor="middle" x="422.347" y="-14.3" font-family="Times,serif" font-size="14.00">Sabtechah</text>
</a>
</g>
</g>
<!-- cush&#45;&gt;sabtechah -->
<g id="edge4" class="edge"><title>cush&#45;&gt;sabtechah</title>
<path fill="none" stroke="black" d="M301.665,-96.4328C319.84,-90.4155 344.522,-81.0185 364.347,-69 376.726,-61.4951 389.068,-51.3283 399.164,-42.1221"/>
<polygon fill="black" stroke="black" points="401.841,-44.4095 406.738,-35.0139 397.051,-39.3053 401.841,-44.4095"/>
<text text-anchor="middle" x="410.847" y="-57.8" font-family="Times,serif" font-size="14.00">Gen 10:7</text>
</g>
<!-- seba -->
<g id="node8" class="node"><title>seba</title>
<g id="a_node8"><a xlink:href="seba.html" xlink:title="Seba" target="_top">
<ellipse fill="none" stroke="blue" cx="515.347" cy="-18" rx="27.8951" ry="18"/>
<text text-anchor="middle" x="515.347" y="-14.3" font-family="Times,serif" font-size="14.00">Seba</text>
</a>
</g>
</g>
<!-- cush&#45;&gt;seba -->
<g id="edge5" class="edge"><title>cush&#45;&gt;seba</title>
<path fill="none" stroke="black" d="M304.588,-101.246C338.061,-97.2493 395.012,-88.1207 440.347,-69 458.377,-61.3952 476.688,-49.2899 490.703,-38.8952"/>
<polygon fill="black" stroke="black" points="493.001,-41.5446 498.834,-32.6997 488.758,-35.9769 493.001,-41.5446"/>
<text text-anchor="middle" x="492.847" y="-57.8" font-family="Times,serif" font-size="14.00">Gen 10:7</text>
</g>
<!-- ham -->
<g id="node3" class="node"><title>ham</title>
<g id="a_node3"><a xlink:href="ham.html" xlink:title="Ham" target="_top">
<ellipse fill="none" stroke="blue" cx="276.347" cy="-192" rx="28.6953" ry="18"/>
<text text-anchor="middle" x="276.347" y="-188.3" font-family="Times,serif" font-size="14.00">Ham</text>
</a>
</g>
</g>
<!-- ham&#45;&gt;cush -->
<g id="edge6" class="edge"><title>ham&#45;&gt;cush</title>
<path fill="none" stroke="black" d="M276.347,-173.799C276.347,-162.163 276.347,-146.548 276.347,-133.237"/>
<polygon fill="black" stroke="black" points="279.847,-133.175 276.347,-123.175 272.847,-133.175 279.847,-133.175"/>
<text text-anchor="middle" x="301.847" y="-144.8" font-family="Times,serif" font-size="14.00">Gen 10:6</text>
</g>
</g>
</svg>
