<?xml version="1.0" encoding="UTF-8" standalone="no"?>
<!DOCTYPE svg PUBLIC "-//W3C//DTD SVG 1.1//EN"
 "http://www.w3.org/Graphics/SVG/1.1/DTD/svg11.dtd">
<!-- Generated by graphviz version 2.38.0 (20140413.2041)
 -->
<!-- Title: ancestry Pages: 1 -->
<svg width="173pt" height="146pt"
 viewBox="0.00 0.00 172.99 146.00" xmlns="http://www.w3.org/2000/svg" xmlns:xlink="http://www.w3.org/1999/xlink">
<g id="graph0" class="graph" transform="scale(1 1) rotate(0) translate(4 142)">
<title>ancestry</title>
<polygon fill="white" stroke="none" points="-4,4 -4,-142 168.994,-142 168.994,4 -4,4"/>
<!-- bilhah -->
<g id="node1" class="node"><title>bilhah</title>
<g id="a_node1"><a xlink:href="bilhah.html" xlink:title="Bilhah" target="_top">
<ellipse fill="none" stroke="red" cx="130.547" cy="-120" rx="34.394" ry="18"/>
<text text-anchor="middle" x="130.547" y="-116.3" font-family="Times,serif" font-size="14.00">Bilhah</text>
</a>
</g>
</g>
<!-- dan -->
<g id="node2" class="node"><title>dan</title>
<g id="a_node2"><a xlink:href="dan.html" xlink:title="Dan" target="_top">
<ellipse fill="lightblue" stroke="blue" stroke-width="2" cx="83.5473" cy="-18" rx="27" ry="18"/>
<text text-anchor="middle" x="83.5473" y="-14.3" font-family="Times,serif" font-size="14.00">Dan</text>
</a>
</g>
</g>
<!-- bilhah&#45;&gt;dan -->
<g id="edge1" class="edge"><title>bilhah&#45;&gt;dan</title>
<path fill="none" stroke="black" d="M122.574,-102.036C115.194,-86.3328 104.114,-62.7597 95.644,-44.7377"/>
<polygon fill="black" stroke="black" points="98.668,-42.9432 91.2467,-35.3818 92.3328,-45.9208 98.668,-42.9432"/>
<text text-anchor="middle" x="139.047" y="-65.3" font-family="Times,serif" font-size="14.00">Gen 30:5</text>
</g>
<!-- jacob -->
<g id="node3" class="node"><title>jacob</title>
<g id="a_node3"><a xlink:href="jacob.html" xlink:title="Jacob" target="_top">
<ellipse fill="none" stroke="blue" cx="30.5473" cy="-120" rx="30.5947" ry="18"/>
<text text-anchor="middle" x="30.5473" y="-116.3" font-family="Times,serif" font-size="14.00">Jacob</text>
</a>
</g>
</g>
<!-- jacob&#45;&gt;bilhah -->
<g id="edge3" class="edge"><title>jacob&#45;&gt;bilhah</title>
<path fill="none" stroke="red" d="M61.4067,-120C72.9301,-120 84.4535,-120 95.977,-120"/>
</g>
<!-- jacob&#45;&gt;dan -->
<g id="edge2" class="edge"><title>jacob&#45;&gt;dan</title>
<path fill="none" stroke="black" d="M31.7038,-101.967C33.2648,-88.2274 36.9321,-68.8179 45.5473,-54 48.8016,-48.4027 53.2421,-43.1791 57.9411,-38.5634"/>
<polygon fill="black" stroke="black" points="60.3143,-41.1364 65.4047,-31.8445 55.6309,-35.9339 60.3143,-41.1364"/>
<text text-anchor="middle" x="71.0473" y="-72.8" font-family="Times,serif" font-size="14.00">1 Ch 2:2</text>
<text text-anchor="middle" x="71.0473" y="-57.8" font-family="Times,serif" font-size="14.00">Gen 30:5</text>
</g>
</g>
</svg>
