<?xml version="1.0" encoding="UTF-8" standalone="no"?>
<!DOCTYPE svg PUBLIC "-//W3C//DTD SVG 1.1//EN"
 "http://www.w3.org/Graphics/SVG/1.1/DTD/svg11.dtd">
<!-- Generated by graphviz version 2.38.0 (20140413.2041)
 -->
<!-- Title: ancestry Pages: 1 -->
<svg width="184pt" height="248pt"
 viewBox="0.00 0.00 184.29 248.00" xmlns="http://www.w3.org/2000/svg" xmlns:xlink="http://www.w3.org/1999/xlink">
<g id="graph0" class="graph" transform="scale(1 1) rotate(0) translate(4 244)">
<title>ancestry</title>
<polygon fill="white" stroke="none" points="-4,4 -4,-244 180.293,-244 180.293,4 -4,4"/>
<!-- david -->
<g id="node1" class="node"><title>david</title>
<g id="a_node1"><a xlink:href="david.html" xlink:title="David" target="_top">
<ellipse fill="lightblue" stroke="blue" stroke-width="2" cx="84.3968" cy="-105" rx="32.4942" ry="18"/>
<text text-anchor="middle" x="84.3968" y="-101.3" font-family="Times,serif" font-size="14.00">David</text>
</a>
</g>
</g>
<!-- nathan -->
<g id="node3" class="node"><title>nathan</title>
<g id="a_node3"><a xlink:href="nathan.html" xlink:title="Nathan" target="_top">
<ellipse fill="none" stroke="blue" cx="36.3968" cy="-18" rx="36.2938" ry="18"/>
<text text-anchor="middle" x="36.3968" y="-14.3" font-family="Times,serif" font-size="14.00">Nathan</text>
</a>
</g>
</g>
<!-- david&#45;&gt;nathan -->
<g id="edge1" class="edge"><title>david&#45;&gt;nathan</title>
<path fill="none" stroke="black" d="M73.2259,-87.8686C69.3287,-82.0197 65.0254,-75.3008 61.3968,-69 56.9892,-61.3467 52.5562,-52.8166 48.6728,-45"/>
<polygon fill="black" stroke="black" points="51.7767,-43.3798 44.2471,-35.9262 45.4852,-46.4485 51.7767,-43.3798"/>
<text text-anchor="middle" x="86.3968" y="-57.8" font-family="Times,serif" font-size="14.00">Luk 3:31</text>
</g>
<!-- solomon -->
<g id="node4" class="node"><title>solomon</title>
<g id="a_node4"><a xlink:href="solomon.html" xlink:title="Solomon" target="_top">
<ellipse fill="none" stroke="blue" cx="133.397" cy="-18" rx="42.7926" ry="18"/>
<text text-anchor="middle" x="133.397" y="-14.3" font-family="Times,serif" font-size="14.00">Solomon</text>
</a>
</g>
</g>
<!-- david&#45;&gt;solomon -->
<g id="edge2" class="edge"><title>david&#45;&gt;solomon</title>
<path fill="none" stroke="black" d="M97.615,-88.5485C102.302,-82.6544 107.401,-75.7309 111.397,-69 115.754,-61.6608 119.767,-53.3021 123.139,-45.548"/>
<polygon fill="black" stroke="black" points="126.43,-46.7485 127.045,-36.1715 119.968,-44.0567 126.43,-46.7485"/>
<text text-anchor="middle" x="140.397" y="-57.8" font-family="Times,serif" font-size="14.00">Mat 1:6</text>
</g>
<!-- jesse -->
<g id="node2" class="node"><title>jesse</title>
<g id="a_node2"><a xlink:href="jesse.html" xlink:title="Jesse" target="_top">
<ellipse fill="none" stroke="blue" cx="84.3968" cy="-222" rx="28.6953" ry="18"/>
<text text-anchor="middle" x="84.3968" y="-218.3" font-family="Times,serif" font-size="14.00">Jesse</text>
</a>
</g>
</g>
<!-- jesse&#45;&gt;david -->
<g id="edge3" class="edge"><title>jesse&#45;&gt;david</title>
<path fill="none" stroke="black" d="M84.3968,-203.534C84.3968,-184.936 84.3968,-155.244 84.3968,-133.501"/>
<polygon fill="black" stroke="black" points="87.8969,-133.254 84.3968,-123.254 80.8969,-133.254 87.8969,-133.254"/>
<text text-anchor="middle" x="111.897" y="-174.8" font-family="Times,serif" font-size="14.00">1 Ch 2:15</text>
<text text-anchor="middle" x="111.897" y="-159.8" font-family="Times,serif" font-size="14.00">Luk 3:32</text>
<text text-anchor="middle" x="111.897" y="-144.8" font-family="Times,serif" font-size="14.00">Mat 1:6</text>
</g>
</g>
</svg>
