<?xml version="1.0" encoding="UTF-8" standalone="no"?>
<!DOCTYPE svg PUBLIC "-//W3C//DTD SVG 1.1//EN"
 "http://www.w3.org/Graphics/SVG/1.1/DTD/svg11.dtd">
<!-- Generated by graphviz version 2.38.0 (20140413.2041)
 -->
<!-- Title: ancestry Pages: 1 -->
<svg width="175pt" height="131pt"
 viewBox="0.00 0.00 174.55 131.00" xmlns="http://www.w3.org/2000/svg" xmlns:xlink="http://www.w3.org/1999/xlink">
<g id="graph0" class="graph" transform="scale(1 1) rotate(0) translate(4 127)">
<title>ancestry</title>
<polygon fill="white" stroke="none" points="-4,4 -4,-127 170.547,-127 170.547,4 -4,4"/>
<!-- dinah -->
<g id="node1" class="node"><title>dinah</title>
<g id="a_node1"><a xlink:href="dinah.html" xlink:title="Dinah" target="_top">
<ellipse fill="lightpink" stroke="red" stroke-width="2" cx="73.5473" cy="-18" rx="32.4942" ry="18"/>
<text text-anchor="middle" x="73.5473" y="-14.3" font-family="Times,serif" font-size="14.00">Dinah</text>
</a>
</g>
</g>
<!-- jacob -->
<g id="node2" class="node"><title>jacob</title>
<g id="a_node2"><a xlink:href="jacob.html" xlink:title="Jacob" target="_top">
<ellipse fill="none" stroke="blue" cx="30.5473" cy="-105" rx="30.5947" ry="18"/>
<text text-anchor="middle" x="30.5473" y="-101.3" font-family="Times,serif" font-size="14.00">Jacob</text>
</a>
</g>
</g>
<!-- jacob&#45;&gt;dinah -->
<g id="edge1" class="edge"><title>jacob&#45;&gt;dinah</title>
<path fill="none" stroke="black" d="M32.1177,-86.5739C33.5578,-76.5985 36.3078,-64.0985 41.5473,-54 43.8437,-49.574 46.8444,-45.2833 50.0878,-41.3116"/>
<polygon fill="black" stroke="black" points="52.8717,-43.4495 56.9381,-33.666 47.6582,-38.7783 52.8717,-43.4495"/>
<text text-anchor="middle" x="70.5473" y="-57.8" font-family="Times,serif" font-size="14.00">Gen 30:21</text>
</g>
<!-- leah -->
<g id="node3" class="node"><title>leah</title>
<g id="a_node3"><a xlink:href="leah.html" xlink:title="Leah" target="_top">
<ellipse fill="none" stroke="red" cx="125.547" cy="-105" rx="28.6953" ry="18"/>
<text text-anchor="middle" x="125.547" y="-101.3" font-family="Times,serif" font-size="14.00">Leah</text>
</a>
</g>
</g>
<!-- jacob&#45;&gt;leah -->
<g id="edge3" class="edge"><title>jacob&#45;&gt;leah</title>
<path fill="none" stroke="red" d="M61.3481,-105C73.1346,-105 84.9212,-105 96.7078,-105"/>
</g>
<!-- leah&#45;&gt;dinah -->
<g id="edge2" class="edge"><title>leah&#45;&gt;dinah</title>
<path fill="none" stroke="black" d="M117.756,-87.4215C112.894,-77.5069 106.295,-64.7817 99.5473,-54 97.2432,-50.3186 94.666,-46.5292 92.0537,-42.8653"/>
<polygon fill="black" stroke="black" points="94.7547,-40.6306 86.0069,-34.6535 89.118,-44.7812 94.7547,-40.6306"/>
<text text-anchor="middle" x="137.547" y="-57.8" font-family="Times,serif" font-size="14.00">Gen 30:21</text>
</g>
</g>
</svg>
