<?xml version="1.0" encoding="UTF-8" standalone="no"?>
<!DOCTYPE svg PUBLIC "-//W3C//DTD SVG 1.1//EN"
 "http://www.w3.org/Graphics/SVG/1.1/DTD/svg11.dtd">
<!-- Generated by graphviz version 2.38.0 (20140413.2041)
 -->
<!-- Title: ancestry Pages: 1 -->
<svg width="177pt" height="278pt"
 viewBox="0.00 0.00 177.45 278.00" xmlns="http://www.w3.org/2000/svg" xmlns:xlink="http://www.w3.org/1999/xlink">
<g id="graph0" class="graph" transform="scale(1 1) rotate(0) translate(4 274)">
<title>ancestry</title>
<polygon fill="white" stroke="none" points="-4,4 -4,-274 173.447,-274 173.447,4 -4,4"/>
<!-- eber -->
<g id="node1" class="node"><title>eber</title>
<g id="a_node1"><a xlink:href="eber.html" xlink:title="Eber" target="_top">
<ellipse fill="lightblue" stroke="blue" stroke-width="2" cx="76.4469" cy="-135" rx="27.0966" ry="18"/>
<text text-anchor="middle" x="76.4469" y="-131.3" font-family="Times,serif" font-size="14.00">Eber</text>
</a>
</g>
</g>
<!-- joktan -->
<g id="node2" class="node"><title>joktan</title>
<g id="a_node2"><a xlink:href="joktan.html" xlink:title="Joktan" target="_top">
<ellipse fill="none" stroke="blue" cx="35.4469" cy="-18" rx="33.5952" ry="18"/>
<text text-anchor="middle" x="35.4469" y="-14.3" font-family="Times,serif" font-size="14.00">Joktan</text>
</a>
</g>
</g>
<!-- eber&#45;&gt;joktan -->
<g id="edge1" class="edge"><title>eber&#45;&gt;joktan</title>
<path fill="none" stroke="black" d="M57.361,-122.018C49.7133,-116.108 41.7149,-108.252 37.4469,-99 29.929,-82.7021 29.4894,-62.4805 30.8987,-46.4457"/>
<polygon fill="black" stroke="black" points="34.4217,-46.4518 32.1055,-36.1133 27.469,-45.6397 34.4217,-46.4518"/>
<text text-anchor="middle" x="66.4469" y="-72.8" font-family="Times,serif" font-size="14.00">Gen 10:25</text>
</g>
<!-- peleg -->
<g id="node3" class="node"><title>peleg</title>
<g id="a_node3"><a xlink:href="peleg.html" xlink:title="Peleg" target="_top">
<ellipse fill="none" stroke="blue" cx="117.447" cy="-18" rx="30.5947" ry="18"/>
<text text-anchor="middle" x="117.447" y="-14.3" font-family="Times,serif" font-size="14.00">Peleg</text>
</a>
</g>
</g>
<!-- eber&#45;&gt;peleg -->
<g id="edge2" class="edge"><title>eber&#45;&gt;peleg</title>
<path fill="none" stroke="black" d="M86.1371,-117.994C89.3999,-112.157 92.8641,-105.413 95.4469,-99 102.355,-81.847 107.867,-61.7799 111.646,-46.0347"/>
<polygon fill="black" stroke="black" points="115.143,-46.4446 113.981,-35.9137 108.322,-44.8708 115.143,-46.4446"/>
<text text-anchor="middle" x="139.447" y="-87.8" font-family="Times,serif" font-size="14.00">Gen 10:25</text>
<text text-anchor="middle" x="139.447" y="-72.8" font-family="Times,serif" font-size="14.00">Gen 11:16</text>
<text text-anchor="middle" x="139.447" y="-57.8" font-family="Times,serif" font-size="14.00">Luk 3:35</text>
</g>
<!-- shelah -->
<g id="node4" class="node"><title>shelah</title>
<g id="a_node4"><a xlink:href="shelah.html" xlink:title="Shelah" target="_top">
<ellipse fill="none" stroke="blue" cx="34.4469" cy="-252" rx="34.394" ry="18"/>
<text text-anchor="middle" x="34.4469" y="-248.3" font-family="Times,serif" font-size="14.00">Shelah</text>
</a>
</g>
</g>
<!-- shelah&#45;&gt;eber -->
<g id="edge3" class="edge"><title>shelah&#45;&gt;eber</title>
<path fill="none" stroke="black" d="M31.6936,-233.871C29.794,-217.033 29.0648,-191.022 38.4469,-171 41.1943,-165.137 45.4137,-159.798 50.0567,-155.153"/>
<polygon fill="black" stroke="black" points="52.4305,-157.725 57.5505,-148.45 47.7637,-152.508 52.4305,-157.725"/>
<text text-anchor="middle" x="67.4469" y="-204.8" font-family="Times,serif" font-size="14.00">Gen 10:24</text>
<text text-anchor="middle" x="67.4469" y="-189.8" font-family="Times,serif" font-size="14.00">Gen 11:14</text>
<text text-anchor="middle" x="67.4469" y="-174.8" font-family="Times,serif" font-size="14.00">Luk 3:35</text>
</g>
<!-- shem -->
<g id="node5" class="node"><title>shem</title>
<g id="a_node5"><a xlink:href="shem.html" xlink:title="Shem" target="_top">
<ellipse fill="none" stroke="blue" cx="118.447" cy="-252" rx="31.3957" ry="18"/>
<text text-anchor="middle" x="118.447" y="-248.3" font-family="Times,serif" font-size="14.00">Shem</text>
</a>
</g>
</g>
<!-- shem&#45;&gt;eber -->
<g id="edge4" class="edge"><title>shem&#45;&gt;eber</title>
<path fill="none" stroke="black" stroke-dasharray="1,5" d="M115.082,-234.045C111.512,-217.565 105.179,-192.017 96.4469,-171 95.0625,-167.668 93.4243,-164.258 91.6909,-160.937"/>
<polygon fill="black" stroke="black" points="94.6091,-158.983 86.6847,-151.951 88.4941,-162.39 94.6091,-158.983"/>
<text text-anchor="middle" x="140.447" y="-189.8" font-family="Times,serif" font-size="14.00">Gen 10:21</text>
</g>
</g>
</svg>
