<?xml version="1.0" encoding="UTF-8" standalone="no"?>
<!DOCTYPE svg PUBLIC "-//W3C//DTD SVG 1.1//EN"
 "http://www.w3.org/Graphics/SVG/1.1/DTD/svg11.dtd">
<!-- Generated by graphviz version 2.38.0 (20140413.2041)
 -->
<!-- Title: ancestry Pages: 1 -->
<svg width="238pt" height="233pt"
 viewBox="0.00 0.00 238.49 233.00" xmlns="http://www.w3.org/2000/svg" xmlns:xlink="http://www.w3.org/1999/xlink">
<g id="graph0" class="graph" transform="scale(1 1) rotate(0) translate(4 229)">
<title>ancestry</title>
<polygon fill="white" stroke="none" points="-4,4 -4,-229 234.491,-229 234.491,4 -4,4"/>
<!-- eleazar -->
<g id="node1" class="node"><title>eleazar</title>
<g id="a_node1"><a xlink:href="eleazar.html" xlink:title="Eleazar" target="_top">
<ellipse fill="none" stroke="blue" cx="37.0467" cy="-120" rx="37.0935" ry="18"/>
<text text-anchor="middle" x="37.0467" y="-116.3" font-family="Times,serif" font-size="14.00">Eleazar</text>
</a>
</g>
</g>
<!-- eleazars_wife -->
<g id="node2" class="node"><title>eleazars_wife</title>
<g id="a_node2"><a xlink:href="eleazars_wife.html" xlink:title="Eleazars_wife" target="_top">
<ellipse fill="lightpink" stroke="red" stroke-width="2" cx="170.047" cy="-120" rx="60.3893" ry="18"/>
<text text-anchor="middle" x="170.047" y="-116.3" font-family="Times,serif" font-size="14.00">Eleazars_wife</text>
</a>
</g>
</g>
<!-- eleazar&#45;&gt;eleazars_wife -->
<g id="edge4" class="edge"><title>eleazar&#45;&gt;eleazars_wife</title>
<path fill="none" stroke="red" d="M74.1932,-120C85.9253,-120 97.6573,-120 109.389,-120"/>
</g>
<!-- phinehas -->
<g id="node3" class="node"><title>phinehas</title>
<g id="a_node3"><a xlink:href="phinehas.html" xlink:title="Phinehas" target="_top">
<ellipse fill="none" stroke="blue" cx="111.047" cy="-18" rx="42.4939" ry="18"/>
<text text-anchor="middle" x="111.047" y="-14.3" font-family="Times,serif" font-size="14.00">Phinehas</text>
</a>
</g>
</g>
<!-- eleazar&#45;&gt;phinehas -->
<g id="edge1" class="edge"><title>eleazar&#45;&gt;phinehas</title>
<path fill="none" stroke="black" d="M48.4981,-102.872C57.9311,-89.6569 71.7127,-70.512 84.0467,-54 86.6301,-50.5415 89.3817,-46.9131 92.103,-43.3564"/>
<polygon fill="black" stroke="black" points="94.9774,-45.3603 98.304,-35.3012 89.4305,-41.0902 94.9774,-45.3603"/>
<text text-anchor="middle" x="105.547" y="-72.8" font-family="Times,serif" font-size="14.00">Ex 6:25</text>
<text text-anchor="middle" x="105.547" y="-57.8" font-family="Times,serif" font-size="14.00">Ezr 7:5</text>
</g>
<!-- eleazars_wife&#45;&gt;phinehas -->
<g id="edge2" class="edge"><title>eleazars_wife&#45;&gt;phinehas</title>
<path fill="none" stroke="black" d="M160.038,-102.036C150.743,-86.2823 136.775,-62.6081 126.129,-44.564"/>
<polygon fill="black" stroke="black" points="129.003,-42.5473 120.907,-35.7131 122.975,-46.1044 129.003,-42.5473"/>
<text text-anchor="middle" x="170.547" y="-65.3" font-family="Times,serif" font-size="14.00">Ex 6:25</text>
</g>
<!-- putiel -->
<g id="node4" class="node"><title>putiel</title>
<g id="a_node4"><a xlink:href="putiel.html" xlink:title="Putiel" target="_top">
<ellipse fill="none" stroke="black" cx="170.047" cy="-207" rx="31.3957" ry="18"/>
<text text-anchor="middle" x="170.047" y="-203.3" font-family="Times,serif" font-size="14.00">Putiel</text>
</a>
</g>
</g>
<!-- putiel&#45;&gt;eleazars_wife -->
<g id="edge3" class="edge"><title>putiel&#45;&gt;eleazars_wife</title>
<path fill="none" stroke="black" d="M170.047,-188.799C170.047,-177.163 170.047,-161.548 170.047,-148.237"/>
<polygon fill="black" stroke="black" points="173.547,-148.175 170.047,-138.175 166.547,-148.175 173.547,-148.175"/>
<text text-anchor="middle" x="191.547" y="-159.8" font-family="Times,serif" font-size="14.00">Ex 6:25</text>
</g>
</g>
</svg>
