<?xml version="1.0" encoding="UTF-8" standalone="no"?>
<!DOCTYPE svg PUBLIC "-//W3C//DTD SVG 1.1//EN"
 "http://www.w3.org/Graphics/SVG/1.1/DTD/svg11.dtd">
<!-- Generated by graphviz version 2.38.0 (20140413.2041)
 -->
<!-- Title: ancestry Pages: 1 -->
<svg width="288pt" height="248pt"
 viewBox="0.00 0.00 287.94 248.00" xmlns="http://www.w3.org/2000/svg" xmlns:xlink="http://www.w3.org/1999/xlink">
<g id="graph0" class="graph" transform="scale(1 1) rotate(0) translate(4 244)">
<title>ancestry</title>
<polygon fill="white" stroke="none" points="-4,4 -4,-244 283.942,-244 283.942,4 -4,4"/>
<!-- aaron -->
<g id="node1" class="node"><title>aaron</title>
<g id="a_node1"><a xlink:href="aaron.html" xlink:title="Aaron" target="_top">
<ellipse fill="none" stroke="blue" cx="32.4971" cy="-222" rx="32.4942" ry="18"/>
<text text-anchor="middle" x="32.4971" y="-218.3" font-family="Times,serif" font-size="14.00">Aaron</text>
</a>
</g>
</g>
<!-- eleazar -->
<g id="node2" class="node"><title>eleazar</title>
<g id="a_node2"><a xlink:href="eleazar.html" xlink:title="Eleazar" target="_top">
<ellipse fill="lightblue" stroke="blue" stroke-width="2" cx="86.4971" cy="-120" rx="37.0935" ry="18"/>
<text text-anchor="middle" x="86.4971" y="-116.3" font-family="Times,serif" font-size="14.00">Eleazar</text>
</a>
</g>
</g>
<!-- aaron&#45;&gt;eleazar -->
<g id="edge1" class="edge"><title>aaron&#45;&gt;eleazar</title>
<path fill="none" stroke="black" d="M40.4542,-204.538C46.95,-191.296 56.4947,-172.281 65.4971,-156 67.2298,-152.866 69.0967,-149.606 70.9773,-146.391"/>
<polygon fill="black" stroke="black" points="74.106,-147.978 76.2135,-137.595 68.091,-144.397 74.106,-147.978"/>
<text text-anchor="middle" x="86.9971" y="-174.8" font-family="Times,serif" font-size="14.00">Ex 6:23</text>
<text text-anchor="middle" x="86.9971" y="-159.8" font-family="Times,serif" font-size="14.00">Ezr 7:5</text>
</g>
<!-- elisheba -->
<g id="node4" class="node"><title>elisheba</title>
<g id="a_node4"><a xlink:href="elisheba.html" xlink:title="Elisheba" target="_top">
<ellipse fill="none" stroke="red" cx="141.497" cy="-222" rx="40.8928" ry="18"/>
<text text-anchor="middle" x="141.497" y="-218.3" font-family="Times,serif" font-size="14.00">Elisheba</text>
</a>
</g>
</g>
<!-- aaron&#45;&gt;elisheba -->
<g id="edge5" class="edge"><title>aaron&#45;&gt;elisheba</title>
<path fill="none" stroke="red" d="M65.2823,-222C76.9924,-222 88.7025,-222 100.413,-222"/>
</g>
<!-- eleazars_wife -->
<g id="node3" class="node"><title>eleazars_wife</title>
<g id="a_node3"><a xlink:href="eleazars_wife.html" xlink:title="Eleazars_wife" target="_top">
<ellipse fill="none" stroke="red" cx="219.497" cy="-120" rx="60.3893" ry="18"/>
<text text-anchor="middle" x="219.497" y="-116.3" font-family="Times,serif" font-size="14.00">Eleazars_wife</text>
</a>
</g>
</g>
<!-- eleazar&#45;&gt;eleazars_wife -->
<g id="edge6" class="edge"><title>eleazar&#45;&gt;eleazars_wife</title>
<path fill="none" stroke="red" d="M123.644,-120C135.376,-120 147.108,-120 158.84,-120"/>
</g>
<!-- phinehas -->
<g id="node5" class="node"><title>phinehas</title>
<g id="a_node5"><a xlink:href="phinehas.html" xlink:title="Phinehas" target="_top">
<ellipse fill="none" stroke="blue" cx="160.497" cy="-18" rx="42.4939" ry="18"/>
<text text-anchor="middle" x="160.497" y="-14.3" font-family="Times,serif" font-size="14.00">Phinehas</text>
</a>
</g>
</g>
<!-- eleazar&#45;&gt;phinehas -->
<g id="edge2" class="edge"><title>eleazar&#45;&gt;phinehas</title>
<path fill="none" stroke="black" d="M97.9485,-102.872C107.382,-89.6569 121.163,-70.512 133.497,-54 136.08,-50.5415 138.832,-46.9131 141.553,-43.3564"/>
<polygon fill="black" stroke="black" points="144.428,-45.3603 147.754,-35.3012 138.881,-41.0902 144.428,-45.3603"/>
<text text-anchor="middle" x="154.997" y="-72.8" font-family="Times,serif" font-size="14.00">Ex 6:25</text>
<text text-anchor="middle" x="154.997" y="-57.8" font-family="Times,serif" font-size="14.00">Ezr 7:5</text>
</g>
<!-- eleazars_wife&#45;&gt;phinehas -->
<g id="edge3" class="edge"><title>eleazars_wife&#45;&gt;phinehas</title>
<path fill="none" stroke="black" d="M209.489,-102.036C200.194,-86.2823 186.226,-62.6081 175.58,-44.564"/>
<polygon fill="black" stroke="black" points="178.454,-42.5473 170.358,-35.7131 172.425,-46.1044 178.454,-42.5473"/>
<text text-anchor="middle" x="219.997" y="-65.3" font-family="Times,serif" font-size="14.00">Ex 6:25</text>
</g>
<!-- elisheba&#45;&gt;eleazar -->
<g id="edge4" class="edge"><title>elisheba&#45;&gt;eleazar</title>
<path fill="none" stroke="black" d="M133.5,-204.215C127.058,-190.957 117.605,-172.076 108.497,-156 106.655,-152.749 104.653,-149.373 102.631,-146.057"/>
<polygon fill="black" stroke="black" points="105.588,-144.185 97.3314,-137.546 99.6464,-147.885 105.588,-144.185"/>
<text text-anchor="middle" x="145.997" y="-167.3" font-family="Times,serif" font-size="14.00">Ex 6:23</text>
</g>
</g>
</svg>
