<?xml version="1.0" encoding="UTF-8" standalone="no"?>
<!DOCTYPE svg PUBLIC "-//W3C//DTD SVG 1.1//EN"
 "http://www.w3.org/Graphics/SVG/1.1/DTD/svg11.dtd">
<!-- Generated by graphviz version 2.38.0 (20140413.2041)
 -->
<!-- Title: ancestry Pages: 1 -->
<svg width="198pt" height="131pt"
 viewBox="0.00 0.00 198.34 131.00" xmlns="http://www.w3.org/2000/svg" xmlns:xlink="http://www.w3.org/1999/xlink">
<g id="graph0" class="graph" transform="scale(1 1) rotate(0) translate(4 127)">
<title>ancestry</title>
<polygon fill="white" stroke="none" points="-4,4 -4,-127 194.343,-127 194.343,4 -4,4"/>
<!-- eliezer -->
<g id="node1" class="node"><title>eliezer</title>
<g id="a_node1"><a xlink:href="eliezer.html" xlink:title="Eliezer" target="_top">
<ellipse fill="lightblue" stroke="blue" stroke-width="2" cx="79.4469" cy="-18" rx="35.9954" ry="18"/>
<text text-anchor="middle" x="79.4469" y="-14.3" font-family="Times,serif" font-size="14.00">Eliezer</text>
</a>
</g>
</g>
<!-- moses -->
<g id="node2" class="node"><title>moses</title>
<g id="a_node2"><a xlink:href="moses.html" xlink:title="Moses" target="_top">
<ellipse fill="none" stroke="blue" cx="34.4469" cy="-105" rx="34.394" ry="18"/>
<text text-anchor="middle" x="34.4469" y="-101.3" font-family="Times,serif" font-size="14.00">Moses</text>
</a>
</g>
</g>
<!-- moses&#45;&gt;eliezer -->
<g id="edge1" class="edge"><title>moses&#45;&gt;eliezer</title>
<path fill="none" stroke="black" d="M43.3375,-87.2067C49.789,-75.0205 58.6318,-58.3176 65.9517,-44.491"/>
<polygon fill="black" stroke="black" points="69.1423,-45.9447 70.728,-35.4692 62.9558,-42.6694 69.1423,-45.9447"/>
<text text-anchor="middle" x="81.9469" y="-57.8" font-family="Times,serif" font-size="14.00">Ex 18:4</text>
</g>
<!-- zipporah -->
<g id="node3" class="node"><title>zipporah</title>
<g id="a_node3"><a xlink:href="zipporah.html" xlink:title="Zipporah" target="_top">
<ellipse fill="none" stroke="red" cx="147.447" cy="-105" rx="42.7926" ry="18"/>
<text text-anchor="middle" x="147.447" y="-101.3" font-family="Times,serif" font-size="14.00">Zipporah</text>
</a>
</g>
</g>
<!-- moses&#45;&gt;zipporah -->
<g id="edge3" class="edge"><title>moses&#45;&gt;zipporah</title>
<path fill="none" stroke="red" d="M69.318,-105C81.017,-105 92.716,-105 104.415,-105"/>
</g>
<!-- zipporah&#45;&gt;eliezer -->
<g id="edge2" class="edge"><title>zipporah&#45;&gt;eliezer</title>
<path fill="none" stroke="black" d="M134.336,-87.6111C124.206,-74.9483 110.036,-57.2363 98.6312,-42.9803"/>
<polygon fill="black" stroke="black" points="101.267,-40.6725 92.2872,-35.0503 95.8011,-45.0454 101.267,-40.6725"/>
<text text-anchor="middle" x="139.947" y="-57.8" font-family="Times,serif" font-size="14.00">Ex 18:4</text>
</g>
</g>
</svg>
