<?xml version="1.0" encoding="UTF-8" standalone="no"?>
<!DOCTYPE svg PUBLIC "-//W3C//DTD SVG 1.1//EN"
 "http://www.w3.org/Graphics/SVG/1.1/DTD/svg11.dtd">
<!-- Generated by graphviz version 2.38.0 (20140413.2041)
 -->
<!-- Title: ancestry Pages: 1 -->
<svg width="116pt" height="218pt"
 viewBox="0.00 0.00 116.05 218.00" xmlns="http://www.w3.org/2000/svg" xmlns:xlink="http://www.w3.org/1999/xlink">
<g id="graph0" class="graph" transform="scale(1 1) rotate(0) translate(4 214)">
<title>ancestry</title>
<polygon fill="white" stroke="none" points="-4,4 -4,-214 112.046,-214 112.046,4 -4,4"/>
<!-- bashemath -->
<g id="node1" class="node"><title>bashemath</title>
<g id="a_node1"><a xlink:href="bashemath.html" xlink:title="Bashemath" target="_top">
<ellipse fill="none" stroke="red" cx="50.0456" cy="-18" rx="50.0912" ry="18"/>
<text text-anchor="middle" x="50.0456" y="-14.3" font-family="Times,serif" font-size="14.00">Bashemath</text>
</a>
</g>
</g>
<!-- elon -->
<g id="node2" class="node"><title>elon</title>
<g id="a_node2"><a xlink:href="elon.html" xlink:title="Elon" target="_top">
<ellipse fill="lightblue" stroke="blue" stroke-width="2" cx="50.0456" cy="-105" rx="27.0966" ry="18"/>
<text text-anchor="middle" x="50.0456" y="-101.3" font-family="Times,serif" font-size="14.00">Elon</text>
</a>
</g>
</g>
<!-- elon&#45;&gt;bashemath -->
<g id="edge1" class="edge"><title>elon&#45;&gt;bashemath</title>
<path fill="none" stroke="black" d="M50.0456,-86.799C50.0456,-75.1626 50.0456,-59.5479 50.0456,-46.2368"/>
<polygon fill="black" stroke="black" points="53.5457,-46.1754 50.0456,-36.1754 46.5457,-46.1755 53.5457,-46.1754"/>
<text text-anchor="middle" x="79.0456" y="-57.8" font-family="Times,serif" font-size="14.00">Gen 26:34</text>
</g>
<!-- hittites -->
<g id="node3" class="node"><title>hittites</title>
<g id="a_node3"><a xlink:href="hittites.html" xlink:title="Hittites" target="_top">
<ellipse fill="none" stroke="black" cx="50.0456" cy="-192" rx="36.2938" ry="18"/>
<text text-anchor="middle" x="50.0456" y="-188.3" font-family="Times,serif" font-size="14.00">Hittites</text>
</a>
</g>
</g>
<!-- hittites&#45;&gt;elon -->
<g id="edge2" class="edge"><title>hittites&#45;&gt;elon</title>
<path fill="none" stroke="black" stroke-dasharray="1,5" d="M50.0456,-173.799C50.0456,-162.163 50.0456,-146.548 50.0456,-133.237"/>
<polygon fill="black" stroke="black" points="53.5457,-133.175 50.0456,-123.175 46.5457,-133.175 53.5457,-133.175"/>
<text text-anchor="middle" x="79.0456" y="-144.8" font-family="Times,serif" font-size="14.00">Gen 26:34</text>
</g>
</g>
</svg>
