<?xml version="1.0" encoding="UTF-8" standalone="no"?>
<!DOCTYPE svg PUBLIC "-//W3C//DTD SVG 1.1//EN"
 "http://www.w3.org/Graphics/SVG/1.1/DTD/svg11.dtd">
<!-- Generated by graphviz version 2.38.0 (20140413.2041)
 -->
<!-- Title: ancestry Pages: 1 -->
<svg width="93pt" height="263pt"
 viewBox="0.00 0.00 92.80 263.00" xmlns="http://www.w3.org/2000/svg" xmlns:xlink="http://www.w3.org/1999/xlink">
<g id="graph0" class="graph" transform="scale(1 1) rotate(0) translate(4 259)">
<title>ancestry</title>
<polygon fill="white" stroke="none" points="-4,4 -4,-259 88.797,-259 88.797,4 -4,4"/>
<!-- enosh -->
<g id="node1" class="node"><title>enosh</title>
<g id="a_node1"><a xlink:href="enosh.html" xlink:title="Enosh" target="_top">
<ellipse fill="lightblue" stroke="blue" stroke-width="2" cx="33.797" cy="-120" rx="32.4942" ry="18"/>
<text text-anchor="middle" x="33.797" y="-116.3" font-family="Times,serif" font-size="14.00">Enosh</text>
</a>
</g>
</g>
<!-- kenan -->
<g id="node2" class="node"><title>kenan</title>
<g id="a_node2"><a xlink:href="kenan.html" xlink:title="Kenan" target="_top">
<ellipse fill="none" stroke="blue" cx="33.797" cy="-18" rx="33.5952" ry="18"/>
<text text-anchor="middle" x="33.797" y="-14.3" font-family="Times,serif" font-size="14.00">Kenan</text>
</a>
</g>
</g>
<!-- enosh&#45;&gt;kenan -->
<g id="edge1" class="edge"><title>enosh&#45;&gt;kenan</title>
<path fill="none" stroke="black" d="M33.797,-101.581C33.797,-86.3816 33.797,-64.0669 33.797,-46.4644"/>
<polygon fill="black" stroke="black" points="37.2971,-46.219 33.797,-36.2191 30.2971,-46.2191 37.2971,-46.219"/>
<text text-anchor="middle" x="58.797" y="-72.8" font-family="Times,serif" font-size="14.00">Gen 5:9</text>
<text text-anchor="middle" x="58.797" y="-57.8" font-family="Times,serif" font-size="14.00">Luk 3:38</text>
</g>
<!-- seth -->
<g id="node3" class="node"><title>seth</title>
<g id="a_node3"><a xlink:href="seth.html" xlink:title="Seth" target="_top">
<ellipse fill="none" stroke="blue" cx="33.797" cy="-237" rx="27" ry="18"/>
<text text-anchor="middle" x="33.797" y="-233.3" font-family="Times,serif" font-size="14.00">Seth</text>
</a>
</g>
</g>
<!-- seth&#45;&gt;enosh -->
<g id="edge2" class="edge"><title>seth&#45;&gt;enosh</title>
<path fill="none" stroke="black" d="M33.797,-218.534C33.797,-199.936 33.797,-170.244 33.797,-148.501"/>
<polygon fill="black" stroke="black" points="37.2971,-148.254 33.797,-138.254 30.2971,-148.254 37.2971,-148.254"/>
<text text-anchor="middle" x="59.297" y="-189.8" font-family="Times,serif" font-size="14.00">Gen 4:26</text>
<text text-anchor="middle" x="59.297" y="-174.8" font-family="Times,serif" font-size="14.00">Gen 5:6</text>
<text text-anchor="middle" x="59.297" y="-159.8" font-family="Times,serif" font-size="14.00">Luk 3:38</text>
</g>
</g>
</svg>
