<?xml version="1.0" encoding="UTF-8" standalone="no"?>
<!DOCTYPE svg PUBLIC "-//W3C//DTD SVG 1.1//EN"
 "http://www.w3.org/Graphics/SVG/1.1/DTD/svg11.dtd">
<!-- Generated by graphviz version 2.38.0 (20140413.2041)
 -->
<!-- Title: ancestry Pages: 1 -->
<svg width="97pt" height="218pt"
 viewBox="0.00 0.00 96.80 218.00" xmlns="http://www.w3.org/2000/svg" xmlns:xlink="http://www.w3.org/1999/xlink">
<g id="graph0" class="graph" transform="scale(1 1) rotate(0) translate(4 214)">
<title>ancestry</title>
<polygon fill="white" stroke="none" points="-4,4 -4,-214 92.797,-214 92.797,4 -4,4"/>
<!-- ephial -->
<g id="node1" class="node"><title>ephial</title>
<g id="a_node1"><a xlink:href="ephial.html" xlink:title="Ephial" target="_top">
<ellipse fill="lightblue" stroke="blue" stroke-width="2" cx="33.797" cy="-105" rx="33.5952" ry="18"/>
<text text-anchor="middle" x="33.797" y="-101.3" font-family="Times,serif" font-size="14.00">Ephial</text>
</a>
</g>
</g>
<!-- ephials_obed -->
<g id="node2" class="node"><title>ephials_obed</title>
<g id="a_node2"><a xlink:href="ephials_obed.html" xlink:title="Obed" target="_top">
<ellipse fill="none" stroke="blue" cx="33.797" cy="-18" rx="29.795" ry="18"/>
<text text-anchor="middle" x="33.797" y="-14.3" font-family="Times,serif" font-size="14.00">Obed</text>
</a>
</g>
</g>
<!-- ephial&#45;&gt;ephials_obed -->
<g id="edge1" class="edge"><title>ephial&#45;&gt;ephials_obed</title>
<path fill="none" stroke="black" d="M33.797,-86.799C33.797,-75.1626 33.797,-59.5479 33.797,-46.2368"/>
<polygon fill="black" stroke="black" points="37.2971,-46.1754 33.797,-36.1754 30.2971,-46.1755 37.2971,-46.1754"/>
<text text-anchor="middle" x="61.297" y="-57.8" font-family="Times,serif" font-size="14.00">1 Ch 2:37</text>
</g>
<!-- zabad -->
<g id="node3" class="node"><title>zabad</title>
<g id="a_node3"><a xlink:href="zabad.html" xlink:title="Zabad" target="_top">
<ellipse fill="none" stroke="blue" cx="33.797" cy="-192" rx="32.4942" ry="18"/>
<text text-anchor="middle" x="33.797" y="-188.3" font-family="Times,serif" font-size="14.00">Zabad</text>
</a>
</g>
</g>
<!-- zabad&#45;&gt;ephial -->
<g id="edge2" class="edge"><title>zabad&#45;&gt;ephial</title>
<path fill="none" stroke="black" d="M33.797,-173.799C33.797,-162.163 33.797,-146.548 33.797,-133.237"/>
<polygon fill="black" stroke="black" points="37.2971,-133.175 33.797,-123.175 30.2971,-133.175 37.2971,-133.175"/>
<text text-anchor="middle" x="61.297" y="-144.8" font-family="Times,serif" font-size="14.00">1 Ch 2:37</text>
</g>
</g>
</svg>
