<?xml version="1.0" encoding="UTF-8" standalone="no"?>
<!DOCTYPE svg PUBLIC "-//W3C//DTD SVG 1.1//EN"
 "http://www.w3.org/Graphics/SVG/1.1/DTD/svg11.dtd">
<!-- Generated by graphviz version 2.38.0 (20140413.2041)
 -->
<!-- Title: ancestry Pages: 1 -->
<svg width="183pt" height="131pt"
 viewBox="0.00 0.00 182.54 131.00" xmlns="http://www.w3.org/2000/svg" xmlns:xlink="http://www.w3.org/1999/xlink">
<g id="graph0" class="graph" transform="scale(1 1) rotate(0) translate(4 127)">
<title>ancestry</title>
<polygon fill="white" stroke="none" points="-4,4 -4,-127 178.544,-127 178.544,4 -4,4"/>
<!-- caleb -->
<g id="node1" class="node"><title>caleb</title>
<g id="a_node1"><a xlink:href="caleb.html" xlink:title="Caleb" target="_top">
<ellipse fill="none" stroke="blue" cx="31.1972" cy="-105" rx="31.3957" ry="18"/>
<text text-anchor="middle" x="31.1972" y="-101.3" font-family="Times,serif" font-size="14.00">Caleb</text>
</a>
</g>
</g>
<!-- ephrath -->
<g id="node2" class="node"><title>ephrath</title>
<g id="a_node2"><a xlink:href="ephrath.html" xlink:title="Ephrath" target="_top">
<ellipse fill="lightpink" stroke="red" stroke-width="2" cx="136.197" cy="-105" rx="38.1938" ry="18"/>
<text text-anchor="middle" x="136.197" y="-101.3" font-family="Times,serif" font-size="14.00">Ephrath</text>
</a>
</g>
</g>
<!-- caleb&#45;&gt;ephrath -->
<g id="edge3" class="edge"><title>caleb&#45;&gt;ephrath</title>
<path fill="none" stroke="red" d="M62.7793,-105C74.442,-105 86.1048,-105 97.7675,-105"/>
</g>
<!-- hur -->
<g id="node3" class="node"><title>hur</title>
<g id="a_node3"><a xlink:href="hur.html" xlink:title="Hur" target="_top">
<ellipse fill="none" stroke="blue" cx="83.1972" cy="-18" rx="27" ry="18"/>
<text text-anchor="middle" x="83.1972" y="-14.3" font-family="Times,serif" font-size="14.00">Hur</text>
</a>
</g>
</g>
<!-- caleb&#45;&gt;hur -->
<g id="edge1" class="edge"><title>caleb&#45;&gt;hur</title>
<path fill="none" stroke="black" d="M36.7168,-87.1164C40.3692,-77.0937 45.6828,-64.362 52.1972,-54 54.9879,-49.5612 58.3439,-45.1341 61.8022,-40.9954"/>
<polygon fill="black" stroke="black" points="64.4578,-43.2758 68.4572,-33.4648 59.2125,-38.6404 64.4578,-43.2758"/>
<text text-anchor="middle" x="79.6972" y="-57.8" font-family="Times,serif" font-size="14.00">1 Ch 2:19</text>
</g>
<!-- ephrath&#45;&gt;hur -->
<g id="edge2" class="edge"><title>ephrath&#45;&gt;hur</title>
<path fill="none" stroke="black" d="M126.842,-87.145C121.306,-77.36 114.056,-64.86 107.197,-54 104.896,-50.3559 102.393,-46.5495 99.9005,-42.8454"/>
<polygon fill="black" stroke="black" points="102.737,-40.7934 94.2051,-34.5125 96.9583,-44.7433 102.737,-40.7934"/>
<text text-anchor="middle" x="144.697" y="-57.8" font-family="Times,serif" font-size="14.00">1 Ch 2:19</text>
</g>
</g>
</svg>
