<?xml version="1.0" encoding="UTF-8" standalone="no"?>
<!DOCTYPE svg PUBLIC "-//W3C//DTD SVG 1.1//EN"
 "http://www.w3.org/Graphics/SVG/1.1/DTD/svg11.dtd">
<!-- Generated by graphviz version 2.38.0 (20140413.2041)
 -->
<!-- Title: ancestry Pages: 1 -->
<svg width="179pt" height="131pt"
 viewBox="0.00 0.00 178.55 131.00" xmlns="http://www.w3.org/2000/svg" xmlns:xlink="http://www.w3.org/1999/xlink">
<g id="graph0" class="graph" transform="scale(1 1) rotate(0) translate(4 127)">
<title>ancestry</title>
<polygon fill="white" stroke="none" points="-4,4 -4,-127 174.546,-127 174.546,4 -4,4"/>
<!-- bathshua -->
<g id="node1" class="node"><title>bathshua</title>
<g id="a_node1"><a xlink:href="bathshua.html" xlink:title="Bathshua" target="_top">
<ellipse fill="none" stroke="red" cx="43.5461" cy="-105" rx="43.5923" ry="18"/>
<text text-anchor="middle" x="43.5461" y="-101.3" font-family="Times,serif" font-size="14.00">Bathshua</text>
</a>
</g>
</g>
<!-- er -->
<g id="node2" class="node"><title>er</title>
<g id="a_node2"><a xlink:href="er.html" xlink:title="Er" target="_top">
<ellipse fill="lightblue" stroke="blue" stroke-width="2" cx="89.5461" cy="-18" rx="27" ry="18"/>
<text text-anchor="middle" x="89.5461" y="-14.3" font-family="Times,serif" font-size="14.00">Er</text>
</a>
</g>
</g>
<!-- bathshua&#45;&gt;er -->
<g id="edge1" class="edge"><title>bathshua&#45;&gt;er</title>
<path fill="none" stroke="black" d="M50.5982,-87.0221C54.8655,-77.1962 60.6155,-64.6962 66.5461,-54 68.5128,-50.4529 70.7145,-46.7899 72.9553,-43.2298"/>
<polygon fill="black" stroke="black" points="75.9741,-45.0078 78.4947,-34.7172 70.1069,-41.1899 75.9741,-45.0078"/>
<text text-anchor="middle" x="90.5461" y="-57.8" font-family="Times,serif" font-size="14.00">1 Ch 2:3</text>
</g>
<!-- judah -->
<g id="node3" class="node"><title>judah</title>
<g id="a_node3"><a xlink:href="judah.html" xlink:title="Judah" target="_top">
<ellipse fill="none" stroke="blue" cx="136.546" cy="-105" rx="31.3957" ry="18"/>
<text text-anchor="middle" x="136.546" y="-101.3" font-family="Times,serif" font-size="14.00">Judah</text>
</a>
</g>
</g>
<!-- judah&#45;&gt;er -->
<g id="edge2" class="edge"><title>judah&#45;&gt;er</title>
<path fill="none" stroke="black" d="M130.049,-86.9127C126.05,-77.0503 120.55,-64.5503 114.546,-54 112.386,-50.2034 109.907,-46.3142 107.368,-42.5731"/>
<polygon fill="black" stroke="black" points="110.093,-40.3646 101.458,-34.2257 104.38,-44.4097 110.093,-40.3646"/>
<text text-anchor="middle" x="146.546" y="-57.8" font-family="Times,serif" font-size="14.00">1 Ch 2:3</text>
</g>
</g>
</svg>
