<?xml version="1.0" encoding="UTF-8" standalone="no"?>
<!DOCTYPE svg PUBLIC "-//W3C//DTD SVG 1.1//EN"
 "http://www.w3.org/Graphics/SVG/1.1/DTD/svg11.dtd">
<!-- Generated by graphviz version 2.38.0 (20140413.2041)
 -->
<!-- Title: ancestry Pages: 1 -->
<svg width="437pt" height="218pt"
 viewBox="0.00 0.00 436.64 218.00" xmlns="http://www.w3.org/2000/svg" xmlns:xlink="http://www.w3.org/1999/xlink">
<g id="graph0" class="graph" transform="scale(1 1) rotate(0) translate(4 214)">
<title>ancestry</title>
<polygon fill="white" stroke="none" points="-4,4 -4,-214 432.643,-214 432.643,4 -4,4"/>
<!-- bashemath -->
<g id="node1" class="node"><title>bashemath</title>
<g id="a_node1"><a xlink:href="bashemath.html" xlink:title="Bashemath" target="_top">
<ellipse fill="none" stroke="red" cx="378.597" cy="-105" rx="50.0912" ry="18"/>
<text text-anchor="middle" x="378.597" y="-101.3" font-family="Times,serif" font-size="14.00">Bashemath</text>
</a>
</g>
</g>
<!-- edomites -->
<g id="node2" class="node"><title>edomites</title>
<g id="a_node2"><a xlink:href="edomites.html" xlink:title="Edomites" target="_top">
<ellipse fill="none" stroke="black" cx="74.5975" cy="-18" rx="44.393" ry="18"/>
<text text-anchor="middle" x="74.5975" y="-14.3" font-family="Times,serif" font-size="14.00">Edomites</text>
</a>
</g>
</g>
<!-- esau -->
<g id="node3" class="node"><title>esau</title>
<g id="a_node3"><a xlink:href="esau.html" xlink:title="Esau" target="_top">
<ellipse fill="lightblue" stroke="blue" stroke-width="2" cx="74.5975" cy="-105" rx="27.8951" ry="18"/>
<text text-anchor="middle" x="74.5975" y="-101.3" font-family="Times,serif" font-size="14.00">Esau</text>
</a>
</g>
</g>
<!-- esau&#45;&gt;bashemath -->
<g id="edge6" class="edge"><title>esau&#45;&gt;bashemath</title>
<path fill="none" stroke="red" d="M90.521,-119.858C102.667,-130.12 120.364,-142.89 138.597,-148.5 211.237,-170.849 236.584,-169.594 309.597,-148.5 327.828,-143.233 345.878,-131.562 358.942,-121.633"/>
</g>
<!-- esau&#45;&gt;edomites -->
<g id="edge3" class="edge"><title>esau&#45;&gt;edomites</title>
<path fill="none" stroke="black" stroke-dasharray="1,5" d="M74.5975,-86.799C74.5975,-75.1626 74.5975,-59.5479 74.5975,-46.2368"/>
<polygon fill="black" stroke="black" points="78.0976,-46.1754 74.5975,-36.1754 71.0976,-46.1755 78.0976,-46.1754"/>
<text text-anchor="middle" x="103.597" y="-57.8" font-family="Times,serif" font-size="14.00">Gen 25:30</text>
</g>
<!-- judith -->
<g id="node5" class="node"><title>judith</title>
<g id="a_node5"><a xlink:href="judith.html" xlink:title="Judith" target="_top">
<ellipse fill="none" stroke="red" cx="277.597" cy="-105" rx="32.4942" ry="18"/>
<text text-anchor="middle" x="277.597" y="-101.3" font-family="Times,serif" font-size="14.00">Judith</text>
</a>
</g>
</g>
<!-- esau&#45;&gt;judith -->
<g id="edge5" class="edge"><title>esau&#45;&gt;judith</title>
<path fill="none" stroke="red" d="M90.521,-119.858C102.667,-130.12 120.364,-142.89 138.597,-148.5 175.979,-160.001 189.899,-162.025 226.597,-148.5 241.23,-143.107 254.517,-131.442 263.858,-121.548"/>
</g>
<!-- mahalath -->
<g id="node6" class="node"><title>mahalath</title>
<g id="a_node6"><a xlink:href="mahalath.html" xlink:title="Mahalath" target="_top">
<ellipse fill="none" stroke="red" cx="182.597" cy="-105" rx="44.393" ry="18"/>
<text text-anchor="middle" x="182.597" y="-101.3" font-family="Times,serif" font-size="14.00">Mahalath</text>
</a>
</g>
</g>
<!-- esau&#45;&gt;mahalath -->
<g id="edge7" class="edge"><title>esau&#45;&gt;mahalath</title>
<path fill="none" stroke="red" d="M102.863,-105C114.699,-105 126.534,-105 138.37,-105"/>
</g>
<!-- isaac -->
<g id="node4" class="node"><title>isaac</title>
<g id="a_node4"><a xlink:href="isaac.html" xlink:title="Isaac" target="_top">
<ellipse fill="none" stroke="blue" cx="28.5975" cy="-192" rx="28.6953" ry="18"/>
<text text-anchor="middle" x="28.5975" y="-188.3" font-family="Times,serif" font-size="14.00">Isaac</text>
</a>
</g>
</g>
<!-- isaac&#45;&gt;esau -->
<g id="edge1" class="edge"><title>isaac&#45;&gt;esau</title>
<path fill="none" stroke="black" d="M33.5911,-174.242C36.8955,-164.264 41.703,-151.535 47.5975,-141 49.8504,-136.973 52.5345,-132.907 55.3228,-129.043"/>
<polygon fill="black" stroke="black" points="58.1789,-131.07 61.4667,-120.998 52.6157,-126.821 58.1789,-131.07"/>
<text text-anchor="middle" x="76.5975" y="-144.8" font-family="Times,serif" font-size="14.00">Gen 25:25</text>
</g>
<!-- rebekah -->
<g id="node7" class="node"><title>rebekah</title>
<g id="a_node7"><a xlink:href="rebekah.html" xlink:title="Rebekah" target="_top">
<ellipse fill="none" stroke="red" cx="134.597" cy="-192" rx="41.6928" ry="18"/>
<text text-anchor="middle" x="134.597" y="-188.3" font-family="Times,serif" font-size="14.00">Rebekah</text>
</a>
</g>
</g>
<!-- isaac&#45;&gt;rebekah -->
<g id="edge4" class="edge"><title>isaac&#45;&gt;rebekah</title>
<path fill="none" stroke="red" d="M57.5818,-192C69.3147,-192 81.0475,-192 92.7804,-192"/>
</g>
<!-- rebekah&#45;&gt;esau -->
<g id="edge2" class="edge"><title>rebekah&#45;&gt;esau</title>
<path fill="none" stroke="black" d="M125.986,-174.273C120.592,-164.306 113.233,-151.578 105.597,-141 102.529,-136.749 99.035,-132.414 95.5261,-128.31"/>
<polygon fill="black" stroke="black" points="98.1144,-125.953 88.8675,-120.782 92.8711,-130.591 98.1144,-125.953"/>
<text text-anchor="middle" x="144.597" y="-144.8" font-family="Times,serif" font-size="14.00">Gen 25:25</text>
</g>
</g>
</svg>
