<?xml version="1.0" encoding="UTF-8" standalone="no"?>
<!DOCTYPE svg PUBLIC "-//W3C//DTD SVG 1.1//EN"
 "http://www.w3.org/Graphics/SVG/1.1/DTD/svg11.dtd">
<!-- Generated by graphviz version 2.38.0 (20140413.2041)
 -->
<!-- Title: ancestry Pages: 1 -->
<svg width="95pt" height="218pt"
 viewBox="0.00 0.00 95.05 218.00" xmlns="http://www.w3.org/2000/svg" xmlns:xlink="http://www.w3.org/1999/xlink">
<g id="graph0" class="graph" transform="scale(1 1) rotate(0) translate(4 214)">
<title>ancestry</title>
<polygon fill="white" stroke="none" points="-4,4 -4,-214 91.0467,-214 91.0467,4 -4,4"/>
<!-- esli -->
<g id="node1" class="node"><title>esli</title>
<g id="a_node1"><a xlink:href="esli.html" xlink:title="Esli" target="_top">
<ellipse fill="lightblue" stroke="blue" stroke-width="2" cx="37.0467" cy="-105" rx="27" ry="18"/>
<text text-anchor="middle" x="37.0467" y="-101.3" font-family="Times,serif" font-size="14.00">Esli</text>
</a>
</g>
</g>
<!-- nahum -->
<g id="node3" class="node"><title>nahum</title>
<g id="a_node3"><a xlink:href="nahum.html" xlink:title="Nahum" target="_top">
<ellipse fill="none" stroke="blue" cx="37.0467" cy="-18" rx="37.0935" ry="18"/>
<text text-anchor="middle" x="37.0467" y="-14.3" font-family="Times,serif" font-size="14.00">Nahum</text>
</a>
</g>
</g>
<!-- esli&#45;&gt;nahum -->
<g id="edge1" class="edge"><title>esli&#45;&gt;nahum</title>
<path fill="none" stroke="black" d="M37.0467,-86.799C37.0467,-75.1626 37.0467,-59.5479 37.0467,-46.2368"/>
<polygon fill="black" stroke="black" points="40.5468,-46.1754 37.0467,-36.1754 33.5468,-46.1755 40.5468,-46.1754"/>
<text text-anchor="middle" x="62.0467" y="-57.8" font-family="Times,serif" font-size="14.00">Luk 3:25</text>
</g>
<!-- naggai -->
<g id="node2" class="node"><title>naggai</title>
<g id="a_node2"><a xlink:href="naggai.html" xlink:title="Naggai" target="_top">
<ellipse fill="none" stroke="blue" cx="37.0467" cy="-192" rx="36.2938" ry="18"/>
<text text-anchor="middle" x="37.0467" y="-188.3" font-family="Times,serif" font-size="14.00">Naggai</text>
</a>
</g>
</g>
<!-- naggai&#45;&gt;esli -->
<g id="edge2" class="edge"><title>naggai&#45;&gt;esli</title>
<path fill="none" stroke="black" d="M37.0467,-173.799C37.0467,-162.163 37.0467,-146.548 37.0467,-133.237"/>
<polygon fill="black" stroke="black" points="40.5468,-133.175 37.0467,-123.175 33.5468,-133.175 40.5468,-133.175"/>
<text text-anchor="middle" x="62.0467" y="-144.8" font-family="Times,serif" font-size="14.00">Luk 3:25</text>
</g>
</g>
</svg>
