<?xml version="1.0" encoding="UTF-8" standalone="no"?>
<!DOCTYPE svg PUBLIC "-//W3C//DTD SVG 1.1//EN"
 "http://www.w3.org/Graphics/SVG/1.1/DTD/svg11.dtd">
<!-- Generated by graphviz version 2.38.0 (20140413.2041)
 -->
<!-- Title: ancestry Pages: 1 -->
<svg width="189pt" height="131pt"
 viewBox="0.00 0.00 188.79 131.00" xmlns="http://www.w3.org/2000/svg" xmlns:xlink="http://www.w3.org/1999/xlink">
<g id="graph0" class="graph" transform="scale(1 1) rotate(0) translate(4 127)">
<title>ancestry</title>
<polygon fill="white" stroke="none" points="-4,4 -4,-127 184.794,-127 184.794,4 -4,4"/>
<!-- geham -->
<g id="node1" class="node"><title>geham</title>
<g id="a_node1"><a xlink:href="geham.html" xlink:title="Geham" target="_top">
<ellipse fill="lightblue" stroke="blue" stroke-width="2" cx="86.4971" cy="-18" rx="36.2938" ry="18"/>
<text text-anchor="middle" x="86.4971" y="-14.3" font-family="Times,serif" font-size="14.00">Geham</text>
</a>
</g>
</g>
<!-- reumah -->
<g id="node2" class="node"><title>reumah</title>
<g id="a_node2"><a xlink:href="reumah.html" xlink:title="Reumah" target="_top">
<ellipse fill="none" stroke="red" cx="140.497" cy="-105" rx="40.0939" ry="18"/>
<text text-anchor="middle" x="140.497" y="-101.3" font-family="Times,serif" font-size="14.00">Reumah</text>
</a>
</g>
</g>
<!-- reumah&#45;&gt;geham -->
<g id="edge1" class="edge"><title>reumah&#45;&gt;geham</title>
<path fill="none" stroke="black" d="M130.085,-87.6111C122.241,-75.2642 111.348,-58.1167 102.413,-44.0534"/>
<polygon fill="black" stroke="black" points="105.194,-41.9024 96.8769,-35.3385 99.285,-45.6561 105.194,-41.9024"/>
<text text-anchor="middle" x="146.497" y="-57.8" font-family="Times,serif" font-size="14.00">Gen 22:24</text>
</g>
<!-- terahs_nahor -->
<g id="node3" class="node"><title>terahs_nahor</title>
<g id="a_node3"><a xlink:href="terahs_nahor.html" xlink:title="Nahor" target="_top">
<ellipse fill="none" stroke="blue" cx="32.4971" cy="-105" rx="32.4942" ry="18"/>
<text text-anchor="middle" x="32.4971" y="-101.3" font-family="Times,serif" font-size="14.00">Nahor</text>
</a>
</g>
</g>
<!-- terahs_nahor&#45;&gt;geham -->
<g id="edge2" class="edge"><title>terahs_nahor&#45;&gt;geham</title>
<path fill="none" stroke="black" d="M35.6769,-86.8442C38.0961,-76.725 42.1224,-63.9874 48.4971,-54 51.5734,-49.1803 55.4741,-44.5905 59.5977,-40.4151"/>
<polygon fill="black" stroke="black" points="62.2069,-42.7676 67.1313,-33.3867 57.4317,-37.6492 62.2069,-42.7676"/>
<text text-anchor="middle" x="77.4971" y="-57.8" font-family="Times,serif" font-size="14.00">Gen 22:24</text>
</g>
<!-- terahs_nahor&#45;&gt;reumah -->
<g id="edge3" class="edge"><title>terahs_nahor&#45;&gt;reumah</title>
<path fill="none" stroke="red" d="M65.4034,-105C76.9412,-105 88.4791,-105 100.017,-105"/>
</g>
</g>
</svg>
