<?xml version="1.0" encoding="UTF-8" standalone="no"?>
<!DOCTYPE svg PUBLIC "-//W3C//DTD SVG 1.1//EN"
 "http://www.w3.org/Graphics/SVG/1.1/DTD/svg11.dtd">
<!-- Generated by graphviz version 2.38.0 (20140413.2041)
 -->
<!-- Title: ancestry Pages: 1 -->
<svg width="198pt" height="146pt"
 viewBox="0.00 0.00 198.34 146.00" xmlns="http://www.w3.org/2000/svg" xmlns:xlink="http://www.w3.org/1999/xlink">
<g id="graph0" class="graph" transform="scale(1 1) rotate(0) translate(4 142)">
<title>ancestry</title>
<polygon fill="white" stroke="none" points="-4,4 -4,-142 194.343,-142 194.343,4 -4,4"/>
<!-- gershom -->
<g id="node1" class="node"><title>gershom</title>
<g id="a_node1"><a xlink:href="gershom.html" xlink:title="Gershom" target="_top">
<ellipse fill="lightblue" stroke="blue" stroke-width="2" cx="79.4469" cy="-18" rx="43.5923" ry="18"/>
<text text-anchor="middle" x="79.4469" y="-14.3" font-family="Times,serif" font-size="14.00">Gershom</text>
</a>
</g>
</g>
<!-- moses -->
<g id="node2" class="node"><title>moses</title>
<g id="a_node2"><a xlink:href="moses.html" xlink:title="Moses" target="_top">
<ellipse fill="none" stroke="blue" cx="34.4469" cy="-120" rx="34.394" ry="18"/>
<text text-anchor="middle" x="34.4469" y="-116.3" font-family="Times,serif" font-size="14.00">Moses</text>
</a>
</g>
</g>
<!-- moses&#45;&gt;gershom -->
<g id="edge1" class="edge"><title>moses&#45;&gt;gershom</title>
<path fill="none" stroke="black" d="M42.0806,-102.036C49.0626,-86.5208 59.5015,-63.3232 67.5725,-45.3876"/>
<polygon fill="black" stroke="black" points="70.8639,-46.6024 71.7759,-36.0469 64.4804,-43.7298 70.8639,-46.6024"/>
<text text-anchor="middle" x="85.9469" y="-72.8" font-family="Times,serif" font-size="14.00">Ex 2:22</text>
<text text-anchor="middle" x="85.9469" y="-57.8" font-family="Times,serif" font-size="14.00">Ex 18:3</text>
</g>
<!-- zipporah -->
<g id="node3" class="node"><title>zipporah</title>
<g id="a_node3"><a xlink:href="zipporah.html" xlink:title="Zipporah" target="_top">
<ellipse fill="none" stroke="red" cx="147.447" cy="-120" rx="42.7926" ry="18"/>
<text text-anchor="middle" x="147.447" y="-116.3" font-family="Times,serif" font-size="14.00">Zipporah</text>
</a>
</g>
</g>
<!-- moses&#45;&gt;zipporah -->
<g id="edge3" class="edge"><title>moses&#45;&gt;zipporah</title>
<path fill="none" stroke="red" d="M69.318,-120C81.017,-120 92.716,-120 104.415,-120"/>
</g>
<!-- zipporah&#45;&gt;gershom -->
<g id="edge2" class="edge"><title>zipporah&#45;&gt;gershom</title>
<path fill="none" stroke="black" d="M139.445,-102.058C132.742,-88.5445 122.515,-69.3979 111.447,-54 108.724,-50.2123 105.64,-46.3868 102.486,-42.7259"/>
<polygon fill="black" stroke="black" points="104.876,-40.149 95.5874,-35.0526 99.6705,-44.8291 104.876,-40.149"/>
<text text-anchor="middle" x="151.947" y="-72.8" font-family="Times,serif" font-size="14.00">Ex 2:22</text>
<text text-anchor="middle" x="151.947" y="-57.8" font-family="Times,serif" font-size="14.00">Ex 18:3</text>
</g>
</g>
</svg>
