<?xml version="1.0" encoding="UTF-8" standalone="no"?>
<!DOCTYPE svg PUBLIC "-//W3C//DTD SVG 1.1//EN"
 "http://www.w3.org/Graphics/SVG/1.1/DTD/svg11.dtd">
<!-- Generated by graphviz version 2.38.0 (20140413.2041)
 -->
<!-- Title: ancestry Pages: 1 -->
<svg width="158pt" height="218pt"
 viewBox="0.00 0.00 158.29 218.00" xmlns="http://www.w3.org/2000/svg" xmlns:xlink="http://www.w3.org/1999/xlink">
<g id="graph0" class="graph" transform="scale(1 1) rotate(0) translate(4 214)">
<title>ancestry</title>
<polygon fill="white" stroke="none" points="-4,4 -4,-214 154.294,-214 154.294,4 -4,4"/>
<!-- gershon -->
<g id="node1" class="node"><title>gershon</title>
<g id="a_node1"><a xlink:href="gershon.html" xlink:title="Gershon" target="_top">
<ellipse fill="lightblue" stroke="blue" stroke-width="2" cx="71.8973" cy="-105" rx="40.0939" ry="18"/>
<text text-anchor="middle" x="71.8973" y="-101.3" font-family="Times,serif" font-size="14.00">Gershon</text>
</a>
</g>
</g>
<!-- libni -->
<g id="node3" class="node"><title>libni</title>
<g id="a_node3"><a xlink:href="libni.html" xlink:title="Libni" target="_top">
<ellipse fill="none" stroke="blue" cx="29.8973" cy="-18" rx="29.795" ry="18"/>
<text text-anchor="middle" x="29.8973" y="-14.3" font-family="Times,serif" font-size="14.00">Libni</text>
</a>
</g>
</g>
<!-- gershon&#45;&gt;libni -->
<g id="edge1" class="edge"><title>gershon&#45;&gt;libni</title>
<path fill="none" stroke="black" d="M60.1326,-87.7118C56.269,-81.9619 52.1388,-75.3456 48.8973,-69 45.1377,-61.64 41.6958,-53.3542 38.805,-45.676"/>
<polygon fill="black" stroke="black" points="42.0236,-44.2834 35.342,-36.0611 35.4378,-46.6555 42.0236,-44.2834"/>
<text text-anchor="middle" x="70.3973" y="-57.8" font-family="Times,serif" font-size="14.00">Ex 6:17</text>
</g>
<!-- shimei -->
<g id="node4" class="node"><title>shimei</title>
<g id="a_node4"><a xlink:href="shimei.html" xlink:title="Shimei" target="_top">
<ellipse fill="none" stroke="blue" cx="113.897" cy="-18" rx="36.2938" ry="18"/>
<text text-anchor="middle" x="113.897" y="-14.3" font-family="Times,serif" font-size="14.00">Shimei</text>
</a>
</g>
</g>
<!-- gershon&#45;&gt;shimei -->
<g id="edge2" class="edge"><title>gershon&#45;&gt;shimei</title>
<path fill="none" stroke="black" d="M81.8212,-87.4593C85.1563,-81.6892 88.8106,-75.1247 91.8973,-69 95.7387,-61.378 99.5982,-52.9354 102.988,-45.1912"/>
<polygon fill="black" stroke="black" points="106.261,-46.4393 106.995,-35.8698 99.8304,-43.675 106.261,-46.4393"/>
<text text-anchor="middle" x="120.397" y="-57.8" font-family="Times,serif" font-size="14.00">Ex 6:17</text>
</g>
<!-- levi -->
<g id="node2" class="node"><title>levi</title>
<g id="a_node2"><a xlink:href="levi.html" xlink:title="Levi" target="_top">
<ellipse fill="none" stroke="blue" cx="71.8973" cy="-192" rx="27" ry="18"/>
<text text-anchor="middle" x="71.8973" y="-188.3" font-family="Times,serif" font-size="14.00">Levi</text>
</a>
</g>
</g>
<!-- levi&#45;&gt;gershon -->
<g id="edge3" class="edge"><title>levi&#45;&gt;gershon</title>
<path fill="none" stroke="black" d="M71.8973,-173.799C71.8973,-162.163 71.8973,-146.548 71.8973,-133.237"/>
<polygon fill="black" stroke="black" points="75.3974,-133.175 71.8973,-123.175 68.3974,-133.175 75.3974,-133.175"/>
<text text-anchor="middle" x="93.3973" y="-144.8" font-family="Times,serif" font-size="14.00">Ex 6:16</text>
</g>
</g>
</svg>
