<?xml version="1.0" encoding="UTF-8" standalone="no"?>
<!DOCTYPE svg PUBLIC "-//W3C//DTD SVG 1.1//EN"
 "http://www.w3.org/Graphics/SVG/1.1/DTD/svg11.dtd">
<!-- Generated by graphviz version 2.38.0 (20140413.2041)
 -->
<!-- Title: ancestry Pages: 1 -->
<svg width="307pt" height="218pt"
 viewBox="0.00 0.00 306.94 218.00" xmlns="http://www.w3.org/2000/svg" xmlns:xlink="http://www.w3.org/1999/xlink">
<g id="graph0" class="graph" transform="scale(1 1) rotate(0) translate(4 214)">
<title>ancestry</title>
<polygon fill="white" stroke="none" points="-4,4 -4,-214 302.942,-214 302.942,4 -4,4"/>
<!-- ashkenaz -->
<g id="node1" class="node"><title>ashkenaz</title>
<g id="a_node1"><a xlink:href="ashkenaz.html" xlink:title="Ashkenaz" target="_top">
<ellipse fill="none" stroke="blue" cx="45.496" cy="-18" rx="45.4919" ry="18"/>
<text text-anchor="middle" x="45.496" y="-14.3" font-family="Times,serif" font-size="14.00">Ashkenaz</text>
</a>
</g>
</g>
<!-- gomer -->
<g id="node2" class="node"><title>gomer</title>
<g id="a_node2"><a xlink:href="gomer.html" xlink:title="Gomer" target="_top">
<ellipse fill="lightblue" stroke="blue" stroke-width="2" cx="147.496" cy="-105" rx="35.9954" ry="18"/>
<text text-anchor="middle" x="147.496" y="-101.3" font-family="Times,serif" font-size="14.00">Gomer</text>
</a>
</g>
</g>
<!-- gomer&#45;&gt;ashkenaz -->
<g id="edge1" class="edge"><title>gomer&#45;&gt;ashkenaz</title>
<path fill="none" stroke="black" d="M124.406,-91.0725C114.218,-84.9311 102.347,-77.1559 92.496,-69 83.0812,-61.2055 73.664,-51.6281 65.7584,-42.9487"/>
<polygon fill="black" stroke="black" points="68.2259,-40.4564 58.9666,-35.3071 62.9938,-45.1067 68.2259,-40.4564"/>
<text text-anchor="middle" x="117.996" y="-57.8" font-family="Times,serif" font-size="14.00">Gen 10:3</text>
</g>
<!-- riphath -->
<g id="node4" class="node"><title>riphath</title>
<g id="a_node4"><a xlink:href="riphath.html" xlink:title="Riphath" target="_top">
<ellipse fill="none" stroke="blue" cx="147.496" cy="-18" rx="38.1938" ry="18"/>
<text text-anchor="middle" x="147.496" y="-14.3" font-family="Times,serif" font-size="14.00">Riphath</text>
</a>
</g>
</g>
<!-- gomer&#45;&gt;riphath -->
<g id="edge2" class="edge"><title>gomer&#45;&gt;riphath</title>
<path fill="none" stroke="black" d="M147.496,-86.799C147.496,-75.1626 147.496,-59.5479 147.496,-46.2368"/>
<polygon fill="black" stroke="black" points="150.996,-46.1754 147.496,-36.1754 143.996,-46.1755 150.996,-46.1754"/>
<text text-anchor="middle" x="172.996" y="-57.8" font-family="Times,serif" font-size="14.00">Gen 10:3</text>
</g>
<!-- togarmah -->
<g id="node5" class="node"><title>togarmah</title>
<g id="a_node5"><a xlink:href="togarmah.html" xlink:title="Togarmah" target="_top">
<ellipse fill="none" stroke="blue" cx="251.496" cy="-18" rx="47.3916" ry="18"/>
<text text-anchor="middle" x="251.496" y="-14.3" font-family="Times,serif" font-size="14.00">Togarmah</text>
</a>
</g>
</g>
<!-- gomer&#45;&gt;togarmah -->
<g id="edge3" class="edge"><title>gomer&#45;&gt;togarmah</title>
<path fill="none" stroke="black" d="M170.507,-90.9761C180.68,-84.8161 192.56,-77.053 202.496,-69 212.282,-61.0685 222.175,-51.3641 230.485,-42.6222"/>
<polygon fill="black" stroke="black" points="233.089,-44.962 237.338,-35.2565 227.964,-40.1939 233.089,-44.962"/>
<text text-anchor="middle" x="243.996" y="-57.8" font-family="Times,serif" font-size="14.00">Gen 10:3</text>
</g>
<!-- japheth -->
<g id="node3" class="node"><title>japheth</title>
<g id="a_node3"><a xlink:href="japheth.html" xlink:title="Japheth" target="_top">
<ellipse fill="none" stroke="blue" cx="147.496" cy="-192" rx="37.8943" ry="18"/>
<text text-anchor="middle" x="147.496" y="-188.3" font-family="Times,serif" font-size="14.00">Japheth</text>
</a>
</g>
</g>
<!-- japheth&#45;&gt;gomer -->
<g id="edge4" class="edge"><title>japheth&#45;&gt;gomer</title>
<path fill="none" stroke="black" d="M147.496,-173.799C147.496,-162.163 147.496,-146.548 147.496,-133.237"/>
<polygon fill="black" stroke="black" points="150.996,-133.175 147.496,-123.175 143.996,-133.175 150.996,-133.175"/>
<text text-anchor="middle" x="172.996" y="-144.8" font-family="Times,serif" font-size="14.00">Gen 10:2</text>
</g>
</g>
</svg>
