<?xml version="1.0" encoding="UTF-8" standalone="no"?>
<!DOCTYPE svg PUBLIC "-//W3C//DTD SVG 1.1//EN"
 "http://www.w3.org/Graphics/SVG/1.1/DTD/svg11.dtd">
<!-- Generated by graphviz version 2.38.0 (20140413.2041)
 -->
<!-- Title: ancestry Pages: 1 -->
<svg width="313pt" height="218pt"
 viewBox="0.00 0.00 312.94 218.00" xmlns="http://www.w3.org/2000/svg" xmlns:xlink="http://www.w3.org/1999/xlink">
<g id="graph0" class="graph" transform="scale(1 1) rotate(0) translate(4 214)">
<title>ancestry</title>
<polygon fill="white" stroke="none" points="-4,4 -4,-214 308.942,-214 308.942,4 -4,4"/>
<!-- abram -->
<g id="node1" class="node"><title>abram</title>
<g id="a_node1"><a xlink:href="abram.html" xlink:title="Abraham (was Abram)" target="_top">
<ellipse fill="none" stroke="blue" cx="92.9418" cy="-105" rx="92.8835" ry="18"/>
<text text-anchor="middle" x="92.9418" y="-101.3" font-family="Times,serif" font-size="14.00">Abraham (was Abram)</text>
</a>
</g>
</g>
<!-- hagar -->
<g id="node2" class="node"><title>hagar</title>
<g id="a_node2"><a xlink:href="hagar.html" xlink:title="Hagar" target="_top">
<ellipse fill="lightpink" stroke="red" stroke-width="2" cx="253.942" cy="-105" rx="32.4942" ry="18"/>
<text text-anchor="middle" x="253.942" y="-101.3" font-family="Times,serif" font-size="14.00">Hagar</text>
</a>
</g>
</g>
<!-- abram&#45;&gt;hagar -->
<g id="edge4" class="edge"><title>abram&#45;&gt;hagar</title>
<path fill="none" stroke="red" d="M186.02,-105C197.782,-105 209.545,-105 221.307,-105"/>
</g>
<!-- ishmael -->
<g id="node3" class="node"><title>ishmael</title>
<g id="a_node3"><a xlink:href="ishmael.html" xlink:title="Ishmael" target="_top">
<ellipse fill="none" stroke="blue" cx="182.942" cy="-18" rx="38.9931" ry="18"/>
<text text-anchor="middle" x="182.942" y="-14.3" font-family="Times,serif" font-size="14.00">Ishmael</text>
</a>
</g>
</g>
<!-- abram&#45;&gt;ishmael -->
<g id="edge1" class="edge"><title>abram&#45;&gt;ishmael</title>
<path fill="none" stroke="black" d="M110.723,-87.2067C124.508,-74.1874 143.752,-56.0127 158.909,-41.698"/>
<polygon fill="black" stroke="black" points="161.544,-44.0228 166.411,-34.612 156.738,-38.9337 161.544,-44.0228"/>
<text text-anchor="middle" x="172.942" y="-57.8" font-family="Times,serif" font-size="14.00">Gen 16:15</text>
</g>
<!-- hagar&#45;&gt;ishmael -->
<g id="edge2" class="edge"><title>hagar&#45;&gt;ishmael</title>
<path fill="none" stroke="black" d="M240.919,-88.4097C230.344,-75.7494 215.248,-57.677 203.112,-43.147"/>
<polygon fill="black" stroke="black" points="205.461,-40.5001 196.364,-35.069 200.089,-44.9876 205.461,-40.5001"/>
<text text-anchor="middle" x="250.942" y="-57.8" font-family="Times,serif" font-size="14.00">Gen 16:15</text>
</g>
<!-- mizraim -->
<g id="node4" class="node"><title>mizraim</title>
<g id="a_node4"><a xlink:href="mizraim.html" xlink:title="Mizraim" target="_top">
<ellipse fill="none" stroke="blue" cx="253.942" cy="-192" rx="42.4939" ry="18"/>
<text text-anchor="middle" x="253.942" y="-188.3" font-family="Times,serif" font-size="14.00">Mizraim</text>
</a>
</g>
</g>
<!-- mizraim&#45;&gt;hagar -->
<g id="edge3" class="edge"><title>mizraim&#45;&gt;hagar</title>
<path fill="none" stroke="black" stroke-dasharray="1,5" d="M253.942,-173.799C253.942,-162.163 253.942,-146.548 253.942,-133.237"/>
<polygon fill="black" stroke="black" points="257.442,-133.175 253.942,-123.175 250.442,-133.175 257.442,-133.175"/>
<text text-anchor="middle" x="279.442" y="-144.8" font-family="Times,serif" font-size="14.00">Gen 16:1</text>
</g>
</g>
</svg>
