<?xml version="1.0" encoding="UTF-8" standalone="no"?>
<!DOCTYPE svg PUBLIC "-//W3C//DTD SVG 1.1//EN"
 "http://www.w3.org/Graphics/SVG/1.1/DTD/svg11.dtd">
<!-- Generated by graphviz version 2.38.0 (20140413.2041)
 -->
<!-- Title: ancestry Pages: 1 -->
<svg width="339pt" height="233pt"
 viewBox="0.00 0.00 339.05 233.00" xmlns="http://www.w3.org/2000/svg" xmlns:xlink="http://www.w3.org/1999/xlink">
<g id="graph0" class="graph" transform="scale(1 1) rotate(0) translate(4 229)">
<title>ancestry</title>
<polygon fill="white" stroke="none" points="-4,4 -4,-229 335.047,-229 335.047,4 -4,4"/>
<!-- canaan -->
<g id="node1" class="node"><title>canaan</title>
<g id="a_node1"><a xlink:href="canaan.html" xlink:title="Canaan" target="_top">
<ellipse fill="none" stroke="blue" cx="37.0467" cy="-18" rx="37.0935" ry="18"/>
<text text-anchor="middle" x="37.0467" y="-14.3" font-family="Times,serif" font-size="14.00">Canaan</text>
</a>
</g>
</g>
<!-- cush -->
<g id="node2" class="node"><title>cush</title>
<g id="a_node2"><a xlink:href="cush.html" xlink:title="Cush" target="_top">
<ellipse fill="none" stroke="blue" cx="121.047" cy="-18" rx="28.6953" ry="18"/>
<text text-anchor="middle" x="121.047" y="-14.3" font-family="Times,serif" font-size="14.00">Cush</text>
</a>
</g>
</g>
<!-- ham -->
<g id="node3" class="node"><title>ham</title>
<g id="a_node3"><a xlink:href="ham.html" xlink:title="Ham" target="_top">
<ellipse fill="lightblue" stroke="blue" stroke-width="2" cx="165.047" cy="-120" rx="28.6953" ry="18"/>
<text text-anchor="middle" x="165.047" y="-116.3" font-family="Times,serif" font-size="14.00">Ham</text>
</a>
</g>
</g>
<!-- ham&#45;&gt;canaan -->
<g id="edge1" class="edge"><title>ham&#45;&gt;canaan</title>
<path fill="none" stroke="black" d="M137.959,-114.153C117.837,-109.381 90.7492,-100.351 72.0467,-84 60.2823,-73.715 51.7849,-58.4833 46.1111,-45.3495"/>
<polygon fill="black" stroke="black" points="49.2707,-43.8237 42.3153,-35.8316 42.7687,-46.4167 49.2707,-43.8237"/>
<text text-anchor="middle" x="97.5467" y="-72.8" font-family="Times,serif" font-size="14.00">Gen 9:18</text>
<text text-anchor="middle" x="97.5467" y="-57.8" font-family="Times,serif" font-size="14.00">Gen 10:6</text>
</g>
<!-- ham&#45;&gt;cush -->
<g id="edge2" class="edge"><title>ham&#45;&gt;cush</title>
<path fill="none" stroke="black" d="M150.94,-104.313C145.917,-98.396 140.625,-91.2586 137.047,-84 131.204,-72.1489 127.395,-58.0035 124.966,-45.9394"/>
<polygon fill="black" stroke="black" points="128.39,-45.2031 123.17,-35.9833 121.501,-46.4458 128.39,-45.2031"/>
<text text-anchor="middle" x="162.547" y="-65.3" font-family="Times,serif" font-size="14.00">Gen 10:6</text>
</g>
<!-- mizraim -->
<g id="node4" class="node"><title>mizraim</title>
<g id="a_node4"><a xlink:href="mizraim.html" xlink:title="Mizraim" target="_top">
<ellipse fill="none" stroke="blue" cx="210.047" cy="-18" rx="42.4939" ry="18"/>
<text text-anchor="middle" x="210.047" y="-14.3" font-family="Times,serif" font-size="14.00">Mizraim</text>
</a>
</g>
</g>
<!-- ham&#45;&gt;mizraim -->
<g id="edge3" class="edge"><title>ham&#45;&gt;mizraim</title>
<path fill="none" stroke="black" d="M176.472,-103.478C180.483,-97.5758 184.795,-90.6655 188.047,-84 193.945,-71.909 198.921,-57.8376 202.639,-45.8856"/>
<polygon fill="black" stroke="black" points="206.074,-46.6139 205.576,-36.0308 199.366,-44.6149 206.074,-46.6139"/>
<text text-anchor="middle" x="225.547" y="-65.3" font-family="Times,serif" font-size="14.00">Gen 10:6</text>
</g>
<!-- phut -->
<g id="node6" class="node"><title>phut</title>
<g id="a_node6"><a xlink:href="phut.html" xlink:title="Phut" target="_top">
<ellipse fill="none" stroke="blue" cx="297.047" cy="-18" rx="27" ry="18"/>
<text text-anchor="middle" x="297.047" y="-14.3" font-family="Times,serif" font-size="14.00">Phut</text>
</a>
</g>
</g>
<!-- ham&#45;&gt;phut -->
<g id="edge4" class="edge"><title>ham&#45;&gt;phut</title>
<path fill="none" stroke="black" d="M191.717,-113.309C210.923,-108.167 236.596,-99.0433 255.047,-84 267.951,-73.479 278.204,-57.9128 285.348,-44.6511"/>
<polygon fill="black" stroke="black" points="288.585,-46.0076 289.995,-35.507 282.344,-42.8365 288.585,-46.0076"/>
<text text-anchor="middle" x="305.547" y="-65.3" font-family="Times,serif" font-size="14.00">Gen 10:6</text>
</g>
<!-- noah -->
<g id="node5" class="node"><title>noah</title>
<g id="a_node5"><a xlink:href="noah.html" xlink:title="Noah" target="_top">
<ellipse fill="none" stroke="blue" cx="165.047" cy="-207" rx="29.795" ry="18"/>
<text text-anchor="middle" x="165.047" y="-203.3" font-family="Times,serif" font-size="14.00">Noah</text>
</a>
</g>
</g>
<!-- noah&#45;&gt;ham -->
<g id="edge5" class="edge"><title>noah&#45;&gt;ham</title>
<path fill="none" stroke="black" d="M165.047,-188.799C165.047,-177.163 165.047,-161.548 165.047,-148.237"/>
<polygon fill="black" stroke="black" points="168.547,-148.175 165.047,-138.175 161.547,-148.175 168.547,-148.175"/>
<text text-anchor="middle" x="190.547" y="-159.8" font-family="Times,serif" font-size="14.00">Gen 5:32</text>
</g>
</g>
</svg>
