<?xml version="1.0" encoding="UTF-8" standalone="no"?>
<!DOCTYPE svg PUBLIC "-//W3C//DTD SVG 1.1//EN"
 "http://www.w3.org/Graphics/SVG/1.1/DTD/svg11.dtd">
<!-- Generated by graphviz version 2.38.0 (20140413.2041)
 -->
<!-- Title: ancestry Pages: 1 -->
<svg width="244pt" height="218pt"
 viewBox="0.00 0.00 244.25 218.00" xmlns="http://www.w3.org/2000/svg" xmlns:xlink="http://www.w3.org/1999/xlink">
<g id="graph0" class="graph" transform="scale(1 1) rotate(0) translate(4 214)">
<title>ancestry</title>
<polygon fill="white" stroke="none" points="-4,4 -4,-214 240.247,-214 240.247,4 -4,4"/>
<!-- haran -->
<g id="node1" class="node"><title>haran</title>
<g id="a_node1"><a xlink:href="haran.html" xlink:title="Haran" target="_top">
<ellipse fill="lightblue" stroke="blue" stroke-width="2" cx="110.247" cy="-105" rx="32.4942" ry="18"/>
<text text-anchor="middle" x="110.247" y="-101.3" font-family="Times,serif" font-size="14.00">Haran</text>
</a>
</g>
</g>
<!-- iscah -->
<g id="node2" class="node"><title>iscah</title>
<g id="a_node2"><a xlink:href="iscah.html" xlink:title="Iscah" target="_top">
<ellipse fill="none" stroke="black" cx="29.2474" cy="-18" rx="29.4969" ry="18"/>
<text text-anchor="middle" x="29.2474" y="-14.3" font-family="Times,serif" font-size="14.00">Iscah</text>
</a>
</g>
</g>
<!-- haran&#45;&gt;iscah -->
<g id="edge1" class="edge"><title>haran&#45;&gt;iscah</title>
<path fill="none" stroke="black" d="M83.9102,-94.0959C71.6703,-88.3613 57.7548,-80.061 48.2474,-69 42.6294,-62.464 38.5875,-54.0951 35.7175,-46.0815"/>
<polygon fill="black" stroke="black" points="38.9844,-44.7994 32.6783,-36.2857 32.2988,-46.8737 38.9844,-44.7994"/>
<text text-anchor="middle" x="77.2474" y="-57.8" font-family="Times,serif" font-size="14.00">Gen 11:29</text>
</g>
<!-- lot -->
<g id="node3" class="node"><title>lot</title>
<g id="a_node3"><a xlink:href="lot.html" xlink:title="Lot" target="_top">
<ellipse fill="none" stroke="blue" cx="110.247" cy="-18" rx="27" ry="18"/>
<text text-anchor="middle" x="110.247" y="-14.3" font-family="Times,serif" font-size="14.00">Lot</text>
</a>
</g>
</g>
<!-- haran&#45;&gt;lot -->
<g id="edge2" class="edge"><title>haran&#45;&gt;lot</title>
<path fill="none" stroke="black" d="M110.247,-86.799C110.247,-75.1626 110.247,-59.5479 110.247,-46.2368"/>
<polygon fill="black" stroke="black" points="113.748,-46.1754 110.247,-36.1754 106.748,-46.1755 113.748,-46.1754"/>
<text text-anchor="middle" x="139.247" y="-57.8" font-family="Times,serif" font-size="14.00">Gen 11:27</text>
</g>
<!-- milcah -->
<g id="node4" class="node"><title>milcah</title>
<g id="a_node4"><a xlink:href="milcah.html" xlink:title="Milcah" target="_top">
<ellipse fill="none" stroke="red" cx="191.247" cy="-18" rx="36.2938" ry="18"/>
<text text-anchor="middle" x="191.247" y="-14.3" font-family="Times,serif" font-size="14.00">Milcah</text>
</a>
</g>
</g>
<!-- haran&#45;&gt;milcah -->
<g id="edge3" class="edge"><title>haran&#45;&gt;milcah</title>
<path fill="none" stroke="black" d="M135.369,-93.4749C146.89,-87.6375 160.008,-79.4305 169.247,-69 175.149,-62.3381 179.68,-53.8415 183.052,-45.7505"/>
<polygon fill="black" stroke="black" points="186.387,-46.8256 186.606,-36.233 179.829,-44.3773 186.387,-46.8256"/>
<text text-anchor="middle" x="207.247" y="-57.8" font-family="Times,serif" font-size="14.00">Gen 11:29</text>
</g>
<!-- terah -->
<g id="node5" class="node"><title>terah</title>
<g id="a_node5"><a xlink:href="terah.html" xlink:title="Terah" target="_top">
<ellipse fill="none" stroke="blue" cx="110.247" cy="-192" rx="31.3957" ry="18"/>
<text text-anchor="middle" x="110.247" y="-188.3" font-family="Times,serif" font-size="14.00">Terah</text>
</a>
</g>
</g>
<!-- terah&#45;&gt;haran -->
<g id="edge4" class="edge"><title>terah&#45;&gt;haran</title>
<path fill="none" stroke="black" d="M110.247,-173.799C110.247,-162.163 110.247,-146.548 110.247,-133.237"/>
<polygon fill="black" stroke="black" points="113.748,-133.175 110.247,-123.175 106.748,-133.175 113.748,-133.175"/>
<text text-anchor="middle" x="139.247" y="-144.8" font-family="Times,serif" font-size="14.00">Gen 11:27</text>
</g>
</g>
</svg>
