<?xml version="1.0" encoding="UTF-8" standalone="no"?>
<!DOCTYPE svg PUBLIC "-//W3C//DTD SVG 1.1//EN"
 "http://www.w3.org/Graphics/SVG/1.1/DTD/svg11.dtd">
<!-- Generated by graphviz version 2.38.0 (20140413.2041)
 -->
<!-- Title: ancestry Pages: 1 -->
<svg width="115pt" height="218pt"
 viewBox="0.00 0.00 115.00 218.00" xmlns="http://www.w3.org/2000/svg" xmlns:xlink="http://www.w3.org/1999/xlink">
<g id="graph0" class="graph" transform="scale(1 1) rotate(0) translate(4 214)">
<title>ancestry</title>
<polygon fill="white" stroke="none" points="-4,4 -4,-214 110.995,-214 110.995,4 -4,4"/>
<!-- beth_gader -->
<g id="node1" class="node"><title>beth_gader</title>
<g id="a_node1"><a xlink:href="beth_gader.html" xlink:title="Beth&#45;Gader" target="_top">
<ellipse fill="none" stroke="blue" cx="51.9954" cy="-18" rx="51.9908" ry="18"/>
<text text-anchor="middle" x="51.9954" y="-14.3" font-family="Times,serif" font-size="14.00">Beth&#45;Gader</text>
</a>
</g>
</g>
<!-- hareph -->
<g id="node2" class="node"><title>hareph</title>
<g id="a_node2"><a xlink:href="hareph.html" xlink:title="Hareph" target="_top">
<ellipse fill="lightblue" stroke="blue" stroke-width="2" cx="51.9954" cy="-105" rx="36.2938" ry="18"/>
<text text-anchor="middle" x="51.9954" y="-101.3" font-family="Times,serif" font-size="14.00">Hareph</text>
</a>
</g>
</g>
<!-- hareph&#45;&gt;beth_gader -->
<g id="edge1" class="edge"><title>hareph&#45;&gt;beth_gader</title>
<path fill="none" stroke="black" d="M51.9954,-86.799C51.9954,-75.1626 51.9954,-59.5479 51.9954,-46.2368"/>
<polygon fill="black" stroke="black" points="55.4955,-46.1754 51.9954,-36.1754 48.4955,-46.1755 55.4955,-46.1754"/>
<text text-anchor="middle" x="79.4954" y="-57.8" font-family="Times,serif" font-size="14.00">1 Ch 2:51</text>
</g>
<!-- hur -->
<g id="node3" class="node"><title>hur</title>
<g id="a_node3"><a xlink:href="hur.html" xlink:title="Hur" target="_top">
<ellipse fill="none" stroke="blue" cx="51.9954" cy="-192" rx="27" ry="18"/>
<text text-anchor="middle" x="51.9954" y="-188.3" font-family="Times,serif" font-size="14.00">Hur</text>
</a>
</g>
</g>
<!-- hur&#45;&gt;hareph -->
<g id="edge2" class="edge"><title>hur&#45;&gt;hareph</title>
<path fill="none" stroke="black" d="M51.9954,-173.799C51.9954,-162.163 51.9954,-146.548 51.9954,-133.237"/>
<polygon fill="black" stroke="black" points="55.4955,-133.175 51.9954,-123.175 48.4955,-133.175 55.4955,-133.175"/>
<text text-anchor="middle" x="79.4954" y="-144.8" font-family="Times,serif" font-size="14.00">1 Ch 2:51</text>
</g>
</g>
</svg>
