<?xml version="1.0" encoding="UTF-8" standalone="no"?>
<!DOCTYPE svg PUBLIC "-//W3C//DTD SVG 1.1//EN"
 "http://www.w3.org/Graphics/SVG/1.1/DTD/svg11.dtd">
<!-- Generated by graphviz version 2.38.0 (20140413.2041)
 -->
<!-- Title: ancestry Pages: 1 -->
<svg width="1015pt" height="218pt"
 viewBox="0.00 0.00 1015.40 218.00" xmlns="http://www.w3.org/2000/svg" xmlns:xlink="http://www.w3.org/1999/xlink">
<g id="graph0" class="graph" transform="scale(1 1) rotate(0) translate(4 214)">
<title>ancestry</title>
<polygon fill="white" stroke="none" points="-4,4 -4,-214 1011.4,-214 1011.4,4 -4,4"/>
<!-- heli -->
<g id="node1" class="node"><title>heli</title>
<g id="a_node1"><a xlink:href="heli.html" xlink:title="Heli" target="_top">
<ellipse fill="lightblue" stroke="blue" stroke-width="2" cx="489.401" cy="-105" rx="27" ry="18"/>
<text text-anchor="middle" x="489.401" y="-101.3" font-family="Times,serif" font-size="14.00">Heli</text>
</a>
</g>
</g>
<!-- joseph_carpenter -->
<g id="node2" class="node"><title>joseph_carpenter</title>
<g id="a_node2"><a xlink:href="joseph_carpenter.html" xlink:title="Joseph" target="_top">
<ellipse fill="none" stroke="blue" cx="439.401" cy="-18" rx="34.394" ry="18"/>
<text text-anchor="middle" x="439.401" y="-14.3" font-family="Times,serif" font-size="14.00">Joseph</text>
</a>
</g>
</g>
<!-- heli&#45;&gt;joseph_carpenter -->
<g id="edge3" class="edge"><title>heli&#45;&gt;joseph_carpenter</title>
<path fill="none" stroke="black" stroke-dasharray="5,2" d="M462.195,-104.147C364.395,-104.396 34.7726,-102.712 3.40117,-69 -1.14041,-64.1196 -1.12034,-58.899 3.40117,-54 29.5689,-25.6474 288.973,-20.2533 394.8,-19.2343"/>
<polygon fill="black" stroke="black" points="394.878,-22.7338 404.847,-19.1463 394.817,-15.7341 394.878,-22.7338"/>
<text text-anchor="middle" x="478.901" y="-57.8" font-family="Times,serif" font-size="14.00">Luk 3:23, http://creation.com/jesus&#45;genealogies, &quot;If Heli had only daughters, Joseph could have become Heli’s heir by adoption, especially if Joseph became his son&#45;in&#45;law.&quot;</text>
</g>
<!-- mary -->
<g id="node4" class="node"><title>mary</title>
<g id="a_node4"><a xlink:href="mary.html" xlink:title="Mary" target="_top">
<ellipse fill="none" stroke="red" cx="757.401" cy="-18" rx="30.5947" ry="18"/>
<text text-anchor="middle" x="757.401" y="-14.3" font-family="Times,serif" font-size="14.00">Mary</text>
</a>
</g>
</g>
<!-- heli&#45;&gt;mary -->
<g id="edge1" class="edge"><title>heli&#45;&gt;mary</title>
<path fill="none" stroke="black" d="M516.409,-104.053C611.189,-103.959 924.534,-101.2 954.401,-69 958.935,-64.1122 958.683,-59.1097 954.401,-54 934.885,-30.7105 850.04,-22.9069 798.271,-20.3"/>
<polygon fill="black" stroke="black" points="798.224,-16.7943 788.074,-19.8319 797.903,-23.7869 798.224,-16.7943"/>
<text text-anchor="middle" x="982.401" y="-57.8" font-family="Times,serif" font-size="14.00">Luk 3:23</text>
</g>
<!-- joseph_carpenter&#45;&gt;mary -->
<g id="edge4" class="edge"><title>joseph_carpenter&#45;&gt;mary</title>
<path fill="none" stroke="red" d="M473.872,-18C558.137,-18 642.402,-18 726.667,-18"/>
</g>
<!-- levis_melchis_matthat -->
<g id="node3" class="node"><title>levis_melchis_matthat</title>
<g id="a_node3"><a xlink:href="levis_melchis_matthat.html" xlink:title="Matthat" target="_top">
<ellipse fill="none" stroke="blue" cx="489.401" cy="-192" rx="38.1938" ry="18"/>
<text text-anchor="middle" x="489.401" y="-188.3" font-family="Times,serif" font-size="14.00">Matthat</text>
</a>
</g>
</g>
<!-- levis_melchis_matthat&#45;&gt;heli -->
<g id="edge2" class="edge"><title>levis_melchis_matthat&#45;&gt;heli</title>
<path fill="none" stroke="black" d="M489.401,-173.799C489.401,-162.163 489.401,-146.548 489.401,-133.237"/>
<polygon fill="black" stroke="black" points="492.901,-133.175 489.401,-123.175 485.901,-133.175 492.901,-133.175"/>
<text text-anchor="middle" x="514.401" y="-144.8" font-family="Times,serif" font-size="14.00">Luk 3:24</text>
</g>
</g>
</svg>
