<?xml version="1.0" encoding="UTF-8" standalone="no"?>
<!DOCTYPE svg PUBLIC "-//W3C//DTD SVG 1.1//EN"
 "http://www.w3.org/Graphics/SVG/1.1/DTD/svg11.dtd">
<!-- Generated by graphviz version 2.38.0 (20140413.2041)
 -->
<!-- Title: ancestry Pages: 1 -->
<svg width="209pt" height="131pt"
 viewBox="0.00 0.00 209.40 131.00" xmlns="http://www.w3.org/2000/svg" xmlns:xlink="http://www.w3.org/1999/xlink">
<g id="graph0" class="graph" transform="scale(1 1) rotate(0) translate(4 127)">
<title>ancestry</title>
<polygon fill="white" stroke="none" points="-4,4 -4,-127 205.397,-127 205.397,4 -4,4"/>
<!-- ashur -->
<g id="node1" class="node"><title>ashur</title>
<g id="a_node1"><a xlink:href="ashur.html" xlink:title="Ashur" target="_top">
<ellipse fill="none" stroke="blue" cx="146.397" cy="-18" rx="32.4942" ry="18"/>
<text text-anchor="middle" x="146.397" y="-14.3" font-family="Times,serif" font-size="14.00">Ashur</text>
</a>
</g>
</g>
<!-- hezrons_wife_ephrath -->
<g id="node2" class="node"><title>hezrons_wife_ephrath</title>
<g id="a_node2"><a xlink:href="hezrons_wife_ephrath.html" xlink:title="Ephrath" target="_top">
<ellipse fill="lightpink" stroke="red" stroke-width="2" cx="146.397" cy="-105" rx="38.1938" ry="18"/>
<text text-anchor="middle" x="146.397" y="-101.3" font-family="Times,serif" font-size="14.00">Ephrath</text>
</a>
</g>
</g>
<!-- hezrons_wife_ephrath&#45;&gt;ashur -->
<g id="edge1" class="edge"><title>hezrons_wife_ephrath&#45;&gt;ashur</title>
<path fill="none" stroke="black" d="M146.397,-86.799C146.397,-75.1626 146.397,-59.5479 146.397,-46.2368"/>
<polygon fill="black" stroke="black" points="149.897,-46.1754 146.397,-36.1754 142.897,-46.1755 149.897,-46.1754"/>
<text text-anchor="middle" x="173.897" y="-57.8" font-family="Times,serif" font-size="14.00">1 Ch 2:24</text>
</g>
<!-- perezs_hezron -->
<g id="node3" class="node"><title>perezs_hezron</title>
<g id="a_node3"><a xlink:href="perezs_hezron.html" xlink:title="Hezron" target="_top">
<ellipse fill="none" stroke="blue" cx="36.3968" cy="-105" rx="36.2938" ry="18"/>
<text text-anchor="middle" x="36.3968" y="-101.3" font-family="Times,serif" font-size="14.00">Hezron</text>
</a>
</g>
</g>
<!-- perezs_hezron&#45;&gt;hezrons_wife_ephrath -->
<g id="edge2" class="edge"><title>perezs_hezron&#45;&gt;hezrons_wife_ephrath</title>
<path fill="none" stroke="red" d="M72.9202,-105C84.5923,-105 96.2643,-105 107.936,-105"/>
</g>
</g>
</svg>
