<?xml version="1.0" encoding="UTF-8" standalone="no"?>
<!DOCTYPE svg PUBLIC "-//W3C//DTD SVG 1.1//EN"
 "http://www.w3.org/Graphics/SVG/1.1/DTD/svg11.dtd">
<!-- Generated by graphviz version 2.38.0 (20140413.2041)
 -->
<!-- Title: ancestry Pages: 1 -->
<svg width="162pt" height="218pt"
 viewBox="0.00 0.00 162.24 218.00" xmlns="http://www.w3.org/2000/svg" xmlns:xlink="http://www.w3.org/1999/xlink">
<g id="graph0" class="graph" transform="scale(1 1) rotate(0) translate(4 214)">
<title>ancestry</title>
<polygon fill="white" stroke="none" points="-4,4 -4,-214 158.244,-214 158.244,4 -4,4"/>
<!-- arni -->
<g id="node1" class="node"><title>arni</title>
<g id="a_node1"><a xlink:href="arni.html" xlink:title="Arni" target="_top">
<ellipse fill="none" stroke="blue" cx="73.5473" cy="-18" rx="27" ry="18"/>
<text text-anchor="middle" x="73.5473" y="-14.3" font-family="Times,serif" font-size="14.00">Arni</text>
</a>
</g>
</g>
<!-- hezron -->
<g id="node2" class="node"><title>hezron</title>
<g id="a_node2"><a xlink:href="hezron.html" xlink:title="Hezron" target="_top">
<ellipse fill="lightblue" stroke="blue" stroke-width="2" cx="73.5473" cy="-105" rx="36.2938" ry="18"/>
<text text-anchor="middle" x="73.5473" y="-101.3" font-family="Times,serif" font-size="14.00">Hezron</text>
</a>
</g>
</g>
<!-- hezron&#45;&gt;arni -->
<g id="edge1" class="edge"><title>hezron&#45;&gt;arni</title>
<path fill="none" stroke="black" d="M73.5473,-86.799C73.5473,-75.1626 73.5473,-59.5479 73.5473,-46.2368"/>
<polygon fill="black" stroke="black" points="77.0474,-46.1754 73.5473,-36.1754 70.0474,-46.1755 77.0474,-46.1754"/>
<text text-anchor="middle" x="98.5473" y="-57.8" font-family="Times,serif" font-size="14.00">Luk 3:33</text>
</g>
<!-- perez -->
<g id="node3" class="node"><title>perez</title>
<g id="a_node3"><a xlink:href="perez.html" xlink:title="Perez" target="_top">
<ellipse fill="none" stroke="blue" cx="30.5473" cy="-192" rx="30.5947" ry="18"/>
<text text-anchor="middle" x="30.5473" y="-188.3" font-family="Times,serif" font-size="14.00">Perez</text>
</a>
</g>
</g>
<!-- perez&#45;&gt;hezron -->
<g id="edge2" class="edge"><title>perez&#45;&gt;hezron</title>
<path fill="none" stroke="black" d="M33.5322,-173.666C35.6939,-163.721 39.1939,-151.221 44.5473,-141 46.5655,-137.147 49.0593,-133.33 51.7301,-129.712"/>
<polygon fill="black" stroke="black" points="54.6202,-131.703 58.1432,-121.711 49.1581,-127.325 54.6202,-131.703"/>
<text text-anchor="middle" x="69.5473" y="-144.8" font-family="Times,serif" font-size="14.00">Luk 3:33</text>
</g>
<!-- reuben -->
<g id="node4" class="node"><title>reuben</title>
<g id="a_node4"><a xlink:href="reuben.html" xlink:title="Reuben" target="_top">
<ellipse fill="none" stroke="blue" cx="116.547" cy="-192" rx="37.8943" ry="18"/>
<text text-anchor="middle" x="116.547" y="-188.3" font-family="Times,serif" font-size="14.00">Reuben</text>
</a>
</g>
</g>
<!-- reuben&#45;&gt;hezron -->
<g id="edge3" class="edge"><title>reuben&#45;&gt;hezron</title>
<path fill="none" stroke="black" d="M109.731,-174.086C105.626,-164.282 100.126,-151.782 94.5473,-141 92.9018,-137.82 91.0878,-134.531 89.2358,-131.301"/>
<polygon fill="black" stroke="black" points="92.1281,-129.316 84.0243,-122.491 86.1033,-132.88 92.1281,-129.316"/>
<text text-anchor="middle" x="123.047" y="-144.8" font-family="Times,serif" font-size="14.00">Ex 6:14</text>
</g>
</g>
</svg>
