<?xml version="1.0" encoding="UTF-8" standalone="no"?>
<!DOCTYPE svg PUBLIC "-//W3C//DTD SVG 1.1//EN"
 "http://www.w3.org/Graphics/SVG/1.1/DTD/svg11.dtd">
<!-- Generated by graphviz version 2.38.0 (20140413.2041)
 -->
<!-- Title: ancestry Pages: 1 -->
<svg width="162pt" height="218pt"
 viewBox="0.00 0.00 161.60 218.00" xmlns="http://www.w3.org/2000/svg" xmlns:xlink="http://www.w3.org/1999/xlink">
<g id="graph0" class="graph" transform="scale(1 1) rotate(0) translate(4 214)">
<title>ancestry</title>
<polygon fill="white" stroke="none" points="-4,4 -4,-214 157.597,-214 157.597,4 -4,4"/>
<!-- berri -->
<g id="node1" class="node"><title>berri</title>
<g id="a_node1"><a xlink:href="berri.html" xlink:title="Berri" target="_top">
<ellipse fill="none" stroke="blue" cx="28.5975" cy="-18" rx="28.6953" ry="18"/>
<text text-anchor="middle" x="28.5975" y="-14.3" font-family="Times,serif" font-size="14.00">Berri</text>
</a>
</g>
</g>
<!-- elon -->
<g id="node2" class="node"><title>elon</title>
<g id="a_node2"><a xlink:href="elon.html" xlink:title="Elon" target="_top">
<ellipse fill="none" stroke="blue" cx="109.597" cy="-18" rx="27.0966" ry="18"/>
<text text-anchor="middle" x="109.597" y="-14.3" font-family="Times,serif" font-size="14.00">Elon</text>
</a>
</g>
</g>
<!-- heth -->
<g id="node3" class="node"><title>heth</title>
<g id="a_node3"><a xlink:href="heth.html" xlink:title="Heth" target="_top">
<ellipse fill="none" stroke="black" cx="68.5975" cy="-192" rx="27.8951" ry="18"/>
<text text-anchor="middle" x="68.5975" y="-188.3" font-family="Times,serif" font-size="14.00">Heth</text>
</a>
</g>
</g>
<!-- hittites -->
<g id="node4" class="node"><title>hittites</title>
<g id="a_node4"><a xlink:href="hittites.html" xlink:title="Hittites" target="_top">
<ellipse fill="lightgrey" stroke="black" stroke-width="2" cx="68.5975" cy="-105" rx="36.2938" ry="18"/>
<text text-anchor="middle" x="68.5975" y="-101.3" font-family="Times,serif" font-size="14.00">Hittites</text>
</a>
</g>
</g>
<!-- heth&#45;&gt;hittites -->
<g id="edge3" class="edge"><title>heth&#45;&gt;hittites</title>
<path fill="none" stroke="black" stroke-dasharray="1,5" d="M68.5975,-173.799C68.5975,-162.163 68.5975,-146.548 68.5975,-133.237"/>
<polygon fill="black" stroke="black" points="72.0976,-133.175 68.5975,-123.175 65.0976,-133.175 72.0976,-133.175"/>
<text text-anchor="middle" x="97.5975" y="-144.8" font-family="Times,serif" font-size="14.00">Gen 27:46</text>
</g>
<!-- hittites&#45;&gt;berri -->
<g id="edge1" class="edge"><title>hittites&#45;&gt;berri</title>
<path fill="none" stroke="black" stroke-dasharray="1,5" d="M47.0232,-90.0629C40.1675,-84.4203 33.3875,-77.2706 29.5975,-69 26.3648,-61.9456 25.2674,-53.7226 25.2084,-46.0068"/>
<polygon fill="black" stroke="black" points="28.7074,-46.1067 25.6685,-35.957 21.7147,-45.7865 28.7074,-46.1067"/>
<text text-anchor="middle" x="58.5975" y="-57.8" font-family="Times,serif" font-size="14.00">Gen 26:34</text>
</g>
<!-- hittites&#45;&gt;elon -->
<g id="edge2" class="edge"><title>hittites&#45;&gt;elon</title>
<path fill="none" stroke="black" stroke-dasharray="1,5" d="M77.967,-87.4124C81.1306,-81.6385 84.6142,-75.0836 87.5975,-69 91.3555,-61.3365 95.1903,-52.8816 98.5834,-45.1389"/>
<polygon fill="black" stroke="black" points="101.854,-46.3937 102.606,-35.8256 95.4277,-43.6181 101.854,-46.3937"/>
<text text-anchor="middle" x="124.597" y="-57.8" font-family="Times,serif" font-size="14.00">Gen 26:34</text>
</g>
</g>
</svg>
