<?xml version="1.0" encoding="UTF-8" standalone="no"?>
<!DOCTYPE svg PUBLIC "-//W3C//DTD SVG 1.1//EN"
 "http://www.w3.org/Graphics/SVG/1.1/DTD/svg11.dtd">
<!-- Generated by graphviz version 2.38.0 (20140413.2041)
 -->
<!-- Title: ancestry Pages: 1 -->
<svg width="332pt" height="218pt"
 viewBox="0.00 0.00 332.40 218.00" xmlns="http://www.w3.org/2000/svg" xmlns:xlink="http://www.w3.org/1999/xlink">
<g id="graph0" class="graph" transform="scale(1 1) rotate(0) translate(4 214)">
<title>ancestry</title>
<polygon fill="white" stroke="none" points="-4,4 -4,-214 328.397,-214 328.397,4 -4,4"/>
<!-- caleb -->
<g id="node1" class="node"><title>caleb</title>
<g id="a_node1"><a xlink:href="caleb.html" xlink:title="Caleb" target="_top">
<ellipse fill="none" stroke="blue" cx="115.397" cy="-192" rx="31.3957" ry="18"/>
<text text-anchor="middle" x="115.397" y="-188.3" font-family="Times,serif" font-size="14.00">Caleb</text>
</a>
</g>
</g>
<!-- ephrath -->
<g id="node2" class="node"><title>ephrath</title>
<g id="a_node2"><a xlink:href="ephrath.html" xlink:title="Ephrath" target="_top">
<ellipse fill="none" stroke="red" cx="220.397" cy="-192" rx="38.1938" ry="18"/>
<text text-anchor="middle" x="220.397" y="-188.3" font-family="Times,serif" font-size="14.00">Ephrath</text>
</a>
</g>
</g>
<!-- caleb&#45;&gt;ephrath -->
<g id="edge7" class="edge"><title>caleb&#45;&gt;ephrath</title>
<path fill="none" stroke="red" d="M146.979,-192C158.642,-192 170.304,-192 181.967,-192"/>
</g>
<!-- hur -->
<g id="node4" class="node"><title>hur</title>
<g id="a_node4"><a xlink:href="hur.html" xlink:title="Hur" target="_top">
<ellipse fill="lightblue" stroke="blue" stroke-width="2" cx="167.397" cy="-105" rx="27" ry="18"/>
<text text-anchor="middle" x="167.397" y="-101.3" font-family="Times,serif" font-size="14.00">Hur</text>
</a>
</g>
</g>
<!-- caleb&#45;&gt;hur -->
<g id="edge1" class="edge"><title>caleb&#45;&gt;hur</title>
<path fill="none" stroke="black" d="M120.916,-174.116C124.569,-164.094 129.882,-151.362 136.397,-141 139.187,-136.561 142.543,-132.134 146.002,-127.995"/>
<polygon fill="black" stroke="black" points="148.657,-130.276 152.657,-120.465 143.412,-125.64 148.657,-130.276"/>
<text text-anchor="middle" x="163.897" y="-144.8" font-family="Times,serif" font-size="14.00">1 Ch 2:19</text>
</g>
<!-- ephrath&#45;&gt;hur -->
<g id="edge2" class="edge"><title>ephrath&#45;&gt;hur</title>
<path fill="none" stroke="black" d="M211.041,-174.145C205.506,-164.36 198.256,-151.86 191.397,-141 189.095,-137.356 186.592,-133.55 184.1,-129.845"/>
<polygon fill="black" stroke="black" points="186.937,-127.793 178.405,-121.512 181.158,-131.743 186.937,-127.793"/>
<text text-anchor="middle" x="228.897" y="-144.8" font-family="Times,serif" font-size="14.00">1 Ch 2:19</text>
</g>
<!-- hareph -->
<g id="node3" class="node"><title>hareph</title>
<g id="a_node3"><a xlink:href="hareph.html" xlink:title="Hareph" target="_top">
<ellipse fill="none" stroke="blue" cx="36.3968" cy="-18" rx="36.2938" ry="18"/>
<text text-anchor="middle" x="36.3968" y="-14.3" font-family="Times,serif" font-size="14.00">Hareph</text>
</a>
</g>
</g>
<!-- hur&#45;&gt;hareph -->
<g id="edge3" class="edge"><title>hur&#45;&gt;hareph</title>
<path fill="none" stroke="black" d="M141.447,-99.476C120.3,-94.746 90.576,-85.6153 69.3968,-69 61.137,-62.5201 54.2604,-53.377 48.9603,-44.6782"/>
<polygon fill="black" stroke="black" points="51.9746,-42.8978 44.0159,-35.9041 45.8762,-46.3344 51.9746,-42.8978"/>
<text text-anchor="middle" x="96.8968" y="-57.8" font-family="Times,serif" font-size="14.00">1 Ch 2:51</text>
</g>
<!-- hurs_salma -->
<g id="node5" class="node"><title>hurs_salma</title>
<g id="a_node5"><a xlink:href="hurs_salma.html" xlink:title="Salma" target="_top">
<ellipse fill="none" stroke="blue" cx="124.397" cy="-18" rx="33.2948" ry="18"/>
<text text-anchor="middle" x="124.397" y="-14.3" font-family="Times,serif" font-size="14.00">Salma</text>
</a>
</g>
</g>
<!-- hur&#45;&gt;hurs_salma -->
<g id="edge4" class="edge"><title>hur&#45;&gt;hurs_salma</title>
<path fill="none" stroke="black" d="M150.636,-90.592C144.281,-84.6392 137.577,-77.1384 133.397,-69 129.795,-61.988 127.611,-53.7778 126.294,-46.0606"/>
<polygon fill="black" stroke="black" points="129.747,-45.4659 124.984,-36.0018 122.805,-46.3702 129.747,-45.4659"/>
<text text-anchor="middle" x="160.897" y="-57.8" font-family="Times,serif" font-size="14.00">1 Ch 2:51</text>
</g>
<!-- shobal -->
<g id="node6" class="node"><title>shobal</title>
<g id="a_node6"><a xlink:href="shobal.html" xlink:title="Shobal" target="_top">
<ellipse fill="none" stroke="blue" cx="210.397" cy="-18" rx="35.194" ry="18"/>
<text text-anchor="middle" x="210.397" y="-14.3" font-family="Times,serif" font-size="14.00">Shobal</text>
</a>
</g>
</g>
<!-- hur&#45;&gt;shobal -->
<g id="edge5" class="edge"><title>hur&#45;&gt;shobal</title>
<path fill="none" stroke="black" d="M177.446,-88.2106C181.067,-82.2799 185.075,-75.4196 188.397,-69 192.319,-61.4192 196.203,-52.9889 199.59,-45.2433"/>
<polygon fill="black" stroke="black" points="202.866,-46.4846 203.58,-35.9139 196.43,-43.7315 202.866,-46.4846"/>
<text text-anchor="middle" x="223.897" y="-57.8" font-family="Times,serif" font-size="14.00">1 Ch 2:50</text>
</g>
<!-- uri -->
<g id="node7" class="node"><title>uri</title>
<g id="a_node7"><a xlink:href="uri.html" xlink:title="Uri" target="_top">
<ellipse fill="none" stroke="blue" cx="290.397" cy="-18" rx="27" ry="18"/>
<text text-anchor="middle" x="290.397" y="-14.3" font-family="Times,serif" font-size="14.00">Uri</text>
</a>
</g>
</g>
<!-- hur&#45;&gt;uri -->
<g id="edge6" class="edge"><title>hur&#45;&gt;uri</title>
<path fill="none" stroke="black" d="M192.528,-98.1993C211.306,-92.9277 236.829,-83.6897 255.397,-69 263.908,-62.2666 271.211,-52.9176 276.911,-44.1238"/>
<polygon fill="black" stroke="black" points="280.071,-45.6614 282.253,-35.2936 274.082,-42.0379 280.071,-45.6614"/>
<text text-anchor="middle" x="296.897" y="-57.8" font-family="Times,serif" font-size="14.00">1 Ch 2:20</text>
</g>
</g>
</svg>
