<?xml version="1.0" encoding="UTF-8" standalone="no"?>
<!DOCTYPE svg PUBLIC "-//W3C//DTD SVG 1.1//EN"
 "http://www.w3.org/Graphics/SVG/1.1/DTD/svg11.dtd">
<!-- Generated by graphviz version 2.38.0 (20140413.2041)
 -->
<!-- Title: ancestry Pages: 1 -->
<svg width="978pt" height="233pt"
 viewBox="0.00 0.00 978.24 233.00" xmlns="http://www.w3.org/2000/svg" xmlns:xlink="http://www.w3.org/1999/xlink">
<g id="graph0" class="graph" transform="scale(1 1) rotate(0) translate(4 229)">
<title>ancestry</title>
<polygon fill="white" stroke="none" points="-4,4 -4,-229 974.24,-229 974.24,4 -4,4"/>
<!-- atroth_beth_joab -->
<g id="node1" class="node"><title>atroth_beth_joab</title>
<g id="a_node1"><a xlink:href="atroth_beth_joab.html" xlink:title="Atroth Beth&#45;Joab" target="_top">
<ellipse fill="none" stroke="blue" cx="71.4937" cy="-18" rx="71.4873" ry="18"/>
<text text-anchor="middle" x="71.4937" y="-14.3" font-family="Times,serif" font-size="14.00">Atroth Beth&#45;Joab</text>
</a>
</g>
</g>
<!-- bethlehem -->
<g id="node2" class="node"><title>bethlehem</title>
<g id="a_node2"><a xlink:href="bethlehem.html" xlink:title="Bethlehem" target="_top">
<ellipse fill="none" stroke="blue" cx="210.494" cy="-18" rx="49.2915" ry="18"/>
<text text-anchor="middle" x="210.494" y="-14.3" font-family="Times,serif" font-size="14.00">Bethlehem</text>
</a>
</g>
</g>
<!-- hur -->
<g id="node3" class="node"><title>hur</title>
<g id="a_node3"><a xlink:href="hur.html" xlink:title="Hur" target="_top">
<ellipse fill="none" stroke="blue" cx="539.494" cy="-207" rx="27" ry="18"/>
<text text-anchor="middle" x="539.494" y="-203.3" font-family="Times,serif" font-size="14.00">Hur</text>
</a>
</g>
</g>
<!-- hurs_salma -->
<g id="node4" class="node"><title>hurs_salma</title>
<g id="a_node4"><a xlink:href="hurs_salma.html" xlink:title="Salma" target="_top">
<ellipse fill="lightblue" stroke="blue" stroke-width="2" cx="539.494" cy="-120" rx="33.2948" ry="18"/>
<text text-anchor="middle" x="539.494" y="-116.3" font-family="Times,serif" font-size="14.00">Salma</text>
</a>
</g>
</g>
<!-- hur&#45;&gt;hurs_salma -->
<g id="edge1" class="edge"><title>hur&#45;&gt;hurs_salma</title>
<path fill="none" stroke="black" d="M539.494,-188.799C539.494,-177.163 539.494,-161.548 539.494,-148.237"/>
<polygon fill="black" stroke="black" points="542.994,-148.175 539.494,-138.175 535.994,-148.175 542.994,-148.175"/>
<text text-anchor="middle" x="566.994" y="-159.8" font-family="Times,serif" font-size="14.00">1 Ch 2:51</text>
</g>
<!-- hurs_salma&#45;&gt;atroth_beth_joab -->
<g id="edge2" class="edge"><title>hurs_salma&#45;&gt;atroth_beth_joab</title>
<path fill="none" stroke="black" d="M506.171,-119.24C445.402,-118.863 313.02,-114.254 206.494,-84 170.791,-73.8602 132.951,-54.8325 106.446,-39.9736"/>
<polygon fill="black" stroke="black" points="107.987,-36.8233 97.566,-34.9131 104.521,-42.9052 107.987,-36.8233"/>
<text text-anchor="middle" x="233.994" y="-65.3" font-family="Times,serif" font-size="14.00">1 Ch 2:54</text>
</g>
<!-- hurs_salma&#45;&gt;bethlehem -->
<g id="edge3" class="edge"><title>hurs_salma&#45;&gt;bethlehem</title>
<path fill="none" stroke="black" d="M506.674,-117.075C464.262,-113.805 388.61,-105.301 327.494,-84 296.5,-73.1981 264.089,-54.5279 241.261,-39.9606"/>
<polygon fill="black" stroke="black" points="242.996,-36.9139 232.702,-34.4044 239.184,-42.7852 242.996,-36.9139"/>
<text text-anchor="middle" x="354.994" y="-72.8" font-family="Times,serif" font-size="14.00">1 Ch 2:51</text>
<text text-anchor="middle" x="354.994" y="-57.8" font-family="Times,serif" font-size="14.00">1 Ch 2:54</text>
</g>
<!-- manahathites -->
<g id="node5" class="node"><title>manahathites</title>
<g id="a_node5"><a xlink:href="manahathites.html" xlink:title="Manahathites" target="_top">
<ellipse fill="none" stroke="black" cx="336.494" cy="-18" rx="58.4896" ry="18"/>
<text text-anchor="middle" x="336.494" y="-14.3" font-family="Times,serif" font-size="14.00">Manahathites</text>
</a>
</g>
</g>
<!-- hurs_salma&#45;&gt;manahathites -->
<g id="edge5" class="edge"><title>hurs_salma&#45;&gt;manahathites</title>
<path fill="none" stroke="black" stroke-dasharray="1,5" d="M510.618,-111.125C489.78,-104.959 461.25,-95.5105 437.494,-84 412.157,-71.7236 385.451,-54.3156 365.868,-40.6041"/>
<polygon fill="black" stroke="black" points="367.851,-37.7196 357.67,-34.7883 363.801,-43.4289 367.851,-37.7196"/>
<text text-anchor="middle" x="464.994" y="-65.3" font-family="Times,serif" font-size="14.00">1 Ch 2:54</text>
</g>
<!-- netophathites -->
<g id="node6" class="node"><title>netophathites</title>
<g id="a_node6"><a xlink:href="netophathites.html" xlink:title="Netophathites" target="_top">
<ellipse fill="none" stroke="black" cx="472.494" cy="-18" rx="59.5901" ry="18"/>
<text text-anchor="middle" x="472.494" y="-14.3" font-family="Times,serif" font-size="14.00">Netophathites</text>
</a>
</g>
</g>
<!-- hurs_salma&#45;&gt;netophathites -->
<g id="edge4" class="edge"><title>hurs_salma&#45;&gt;netophathites</title>
<path fill="none" stroke="black" stroke-dasharray="1,5" d="M528.729,-102.933C518.111,-87.0862 501.725,-62.6285 489.374,-44.1949"/>
<polygon fill="black" stroke="black" points="492.152,-42.0533 483.678,-35.6938 486.337,-45.9496 492.152,-42.0533"/>
<text text-anchor="middle" x="543.994" y="-65.3" font-family="Times,serif" font-size="14.00">1 Ch 2:54</text>
</g>
<!-- shimeathites -->
<g id="node7" class="node"><title>shimeathites</title>
<g id="a_node7"><a xlink:href="shimeathites.html" xlink:title="Shimeathites" target="_top">
<ellipse fill="none" stroke="black" cx="606.494" cy="-18" rx="56.59" ry="18"/>
<text text-anchor="middle" x="606.494" y="-14.3" font-family="Times,serif" font-size="14.00">Shimeathites</text>
</a>
</g>
</g>
<!-- hurs_salma&#45;&gt;shimeathites -->
<g id="edge8" class="edge"><title>hurs_salma&#45;&gt;shimeathites</title>
<path fill="none" stroke="black" stroke-dasharray="1,5" d="M556.908,-104.427C563.277,-98.524 570.21,-91.3664 575.494,-84 584.004,-72.1361 591.201,-57.57 596.512,-45.2358"/>
<polygon fill="black" stroke="black" points="599.778,-46.4959 600.355,-35.9168 593.307,-43.8267 599.778,-46.4959"/>
<text text-anchor="middle" x="619.994" y="-65.3" font-family="Times,serif" font-size="14.00">1 Ch 2:55</text>
</g>
<!-- sucathites -->
<g id="node8" class="node"><title>sucathites</title>
<g id="a_node8"><a xlink:href="sucathites.html" xlink:title="Sucathites" target="_top">
<ellipse fill="none" stroke="black" cx="727.494" cy="-18" rx="46.5926" ry="18"/>
<text text-anchor="middle" x="727.494" y="-14.3" font-family="Times,serif" font-size="14.00">Sucathites</text>
</a>
</g>
</g>
<!-- hurs_salma&#45;&gt;sucathites -->
<g id="edge9" class="edge"><title>hurs_salma&#45;&gt;sucathites</title>
<path fill="none" stroke="black" stroke-dasharray="1,5" d="M570.308,-112.917C593.594,-107.498 625.823,-98.1981 651.494,-84 671.363,-73.0103 690.766,-56.2853 704.994,-42.5529"/>
<polygon fill="black" stroke="black" points="707.69,-44.8091 712.335,-35.2872 702.766,-39.8337 707.69,-44.8091"/>
<text text-anchor="middle" x="718.994" y="-65.3" font-family="Times,serif" font-size="14.00">1 Ch 2:55</text>
</g>
<!-- tirathites -->
<g id="node9" class="node"><title>tirathites</title>
<g id="a_node9"><a xlink:href="tirathites.html" xlink:title="Tirathites" target="_top">
<ellipse fill="none" stroke="black" cx="836.494" cy="-18" rx="44.393" ry="18"/>
<text text-anchor="middle" x="836.494" y="-14.3" font-family="Times,serif" font-size="14.00">Tirathites</text>
</a>
</g>
</g>
<!-- hurs_salma&#45;&gt;tirathites -->
<g id="edge7" class="edge"><title>hurs_salma&#45;&gt;tirathites</title>
<path fill="none" stroke="black" stroke-dasharray="1,5" d="M572.668,-118.362C615.425,-116.468 691.301,-109.432 750.494,-84 773.99,-73.9051 796.904,-56.0686 813.164,-41.6307"/>
<polygon fill="black" stroke="black" points="815.554,-44.1886 820.585,-34.8647 810.837,-39.0157 815.554,-44.1886"/>
<text text-anchor="middle" x="825.994" y="-65.3" font-family="Times,serif" font-size="14.00">1 Ch 2:55</text>
</g>
<!-- zorites -->
<g id="node10" class="node"><title>zorites</title>
<g id="a_node10"><a xlink:href="zorites.html" xlink:title="Zorites" target="_top">
<ellipse fill="none" stroke="black" cx="934.494" cy="-18" rx="35.9954" ry="18"/>
<text text-anchor="middle" x="934.494" y="-14.3" font-family="Times,serif" font-size="14.00">Zorites</text>
</a>
</g>
</g>
<!-- hurs_salma&#45;&gt;zorites -->
<g id="edge6" class="edge"><title>hurs_salma&#45;&gt;zorites</title>
<path fill="none" stroke="black" stroke-dasharray="1,5" d="M572.482,-117.797C643.134,-114.831 806.772,-105.766 857.494,-84 879.398,-74.6004 899.798,-56.794 914.089,-42.192"/>
<polygon fill="black" stroke="black" points="916.65,-44.5784 920.982,-34.9097 911.566,-39.7665 916.65,-44.5784"/>
<text text-anchor="middle" x="927.994" y="-65.3" font-family="Times,serif" font-size="14.00">1 Ch 2:54</text>
</g>
</g>
</svg>
