<?xml version="1.0" encoding="UTF-8" standalone="no"?>
<!DOCTYPE svg PUBLIC "-//W3C//DTD SVG 1.1//EN"
 "http://www.w3.org/Graphics/SVG/1.1/DTD/svg11.dtd">
<!-- Generated by graphviz version 2.38.0 (20140413.2041)
 -->
<!-- Title: ancestry Pages: 1 -->
<svg width="103pt" height="218pt"
 viewBox="0.00 0.00 103.20 218.00" xmlns="http://www.w3.org/2000/svg" xmlns:xlink="http://www.w3.org/1999/xlink">
<g id="graph0" class="graph" transform="scale(1 1) rotate(0) translate(4 214)">
<title>ancestry</title>
<polygon fill="white" stroke="none" points="-4,4 -4,-214 99.1961,-214 99.1961,4 -4,4"/>
<!-- cains_enoch -->
<g id="node1" class="node"><title>cains_enoch</title>
<g id="a_node1"><a xlink:href="cains_enoch.html" xlink:title="Enoch" target="_top">
<ellipse fill="none" stroke="blue" cx="44.1961" cy="-192" rx="33.2948" ry="18"/>
<text text-anchor="middle" x="44.1961" y="-188.3" font-family="Times,serif" font-size="14.00">Enoch</text>
</a>
</g>
</g>
<!-- irad -->
<g id="node2" class="node"><title>irad</title>
<g id="a_node2"><a xlink:href="irad.html" xlink:title="Irad" target="_top">
<ellipse fill="lightblue" stroke="blue" stroke-width="2" cx="44.1961" cy="-105" rx="27" ry="18"/>
<text text-anchor="middle" x="44.1961" y="-101.3" font-family="Times,serif" font-size="14.00">Irad</text>
</a>
</g>
</g>
<!-- cains_enoch&#45;&gt;irad -->
<g id="edge1" class="edge"><title>cains_enoch&#45;&gt;irad</title>
<path fill="none" stroke="black" d="M44.1961,-173.799C44.1961,-162.163 44.1961,-146.548 44.1961,-133.237"/>
<polygon fill="black" stroke="black" points="47.6962,-133.175 44.1961,-123.175 40.6962,-133.175 47.6962,-133.175"/>
<text text-anchor="middle" x="69.6961" y="-144.8" font-family="Times,serif" font-size="14.00">Gen 4:18</text>
</g>
<!-- mehujael -->
<g id="node3" class="node"><title>mehujael</title>
<g id="a_node3"><a xlink:href="mehujael.html" xlink:title="Mehujael" target="_top">
<ellipse fill="none" stroke="blue" cx="44.1961" cy="-18" rx="44.393" ry="18"/>
<text text-anchor="middle" x="44.1961" y="-14.3" font-family="Times,serif" font-size="14.00">Mehujael</text>
</a>
</g>
</g>
<!-- irad&#45;&gt;mehujael -->
<g id="edge2" class="edge"><title>irad&#45;&gt;mehujael</title>
<path fill="none" stroke="black" d="M44.1961,-86.799C44.1961,-75.1626 44.1961,-59.5479 44.1961,-46.2368"/>
<polygon fill="black" stroke="black" points="47.6962,-46.1754 44.1961,-36.1754 40.6962,-46.1755 47.6962,-46.1754"/>
<text text-anchor="middle" x="69.6961" y="-57.8" font-family="Times,serif" font-size="14.00">Gen 4:18</text>
</g>
</g>
</svg>
