<?xml version="1.0" encoding="UTF-8" standalone="no"?>
<!DOCTYPE svg PUBLIC "-//W3C//DTD SVG 1.1//EN"
 "http://www.w3.org/Graphics/SVG/1.1/DTD/svg11.dtd">
<!-- Generated by graphviz version 2.38.0 (20140413.2041)
 -->
<!-- Title: ancestry Pages: 1 -->
<svg width="420pt" height="278pt"
 viewBox="0.00 0.00 419.94 278.00" xmlns="http://www.w3.org/2000/svg" xmlns:xlink="http://www.w3.org/1999/xlink">
<g id="graph0" class="graph" transform="scale(1 1) rotate(0) translate(4 274)">
<title>ancestry</title>
<polygon fill="white" stroke="none" points="-4,4 -4,-274 415.942,-274 415.942,4 -4,4"/>
<!-- abram -->
<g id="node1" class="node"><title>abram</title>
<g id="a_node1"><a xlink:href="abram.html" xlink:title="Abraham (was Abram)" target="_top">
<ellipse fill="none" stroke="blue" cx="92.9418" cy="-252" rx="92.8835" ry="18"/>
<text text-anchor="middle" x="92.9418" y="-248.3" font-family="Times,serif" font-size="14.00">Abraham (was Abram)</text>
</a>
</g>
</g>
<!-- isaac -->
<g id="node3" class="node"><title>isaac</title>
<g id="a_node3"><a xlink:href="isaac.html" xlink:title="Isaac" target="_top">
<ellipse fill="lightblue" stroke="blue" stroke-width="2" cx="193.942" cy="-135" rx="28.6953" ry="18"/>
<text text-anchor="middle" x="193.942" y="-131.3" font-family="Times,serif" font-size="14.00">Isaac</text>
</a>
</g>
</g>
<!-- abram&#45;&gt;isaac -->
<g id="edge1" class="edge"><title>abram&#45;&gt;isaac</title>
<path fill="none" stroke="black" d="M107.845,-234.031C125.34,-214.11 154.435,-180.983 173.897,-158.824"/>
<polygon fill="black" stroke="black" points="176.622,-161.024 180.592,-151.201 171.363,-156.405 176.622,-161.024"/>
<text text-anchor="middle" x="187.442" y="-204.8" font-family="Times,serif" font-size="14.00">Gen 21:2</text>
<text text-anchor="middle" x="187.442" y="-189.8" font-family="Times,serif" font-size="14.00">Luk 3:34</text>
<text text-anchor="middle" x="187.442" y="-174.8" font-family="Times,serif" font-size="14.00">Mat 1:2</text>
</g>
<!-- sarai -->
<g id="node6" class="node"><title>sarai</title>
<g id="a_node6"><a xlink:href="sarai.html" xlink:title="Sarah (was Sarai)" target="_top">
<ellipse fill="none" stroke="red" cx="294.942" cy="-252" rx="73.387" ry="18"/>
<text text-anchor="middle" x="294.942" y="-248.3" font-family="Times,serif" font-size="14.00">Sarah (was Sarai)</text>
</a>
</g>
</g>
<!-- abram&#45;&gt;sarai -->
<g id="edge7" class="edge"><title>abram&#45;&gt;sarai</title>
<path fill="none" stroke="red" d="M186.051,-252C197.819,-252 209.587,-252 221.356,-252"/>
</g>
<!-- esau -->
<g id="node2" class="node"><title>esau</title>
<g id="a_node2"><a xlink:href="esau.html" xlink:title="Esau" target="_top">
<ellipse fill="none" stroke="blue" cx="207.942" cy="-18" rx="27.8951" ry="18"/>
<text text-anchor="middle" x="207.942" y="-14.3" font-family="Times,serif" font-size="14.00">Esau</text>
</a>
</g>
</g>
<!-- isaac&#45;&gt;esau -->
<g id="edge2" class="edge"><title>isaac&#45;&gt;esau</title>
<path fill="none" stroke="black" d="M167.651,-127.514C152.921,-122.389 135.782,-113.592 126.942,-99 116.579,-81.8943 115.957,-70.7132 126.942,-54 136.766,-39.0521 154.48,-30.4587 170.842,-25.5328"/>
<polygon fill="black" stroke="black" points="171.995,-28.8486 180.773,-22.9157 170.211,-22.0798 171.995,-28.8486"/>
<text text-anchor="middle" x="155.942" y="-72.8" font-family="Times,serif" font-size="14.00">Gen 25:25</text>
</g>
<!-- jacob -->
<g id="node4" class="node"><title>jacob</title>
<g id="a_node4"><a xlink:href="jacob.html" xlink:title="Jacob" target="_top">
<ellipse fill="none" stroke="blue" cx="285.942" cy="-18" rx="30.5947" ry="18"/>
<text text-anchor="middle" x="285.942" y="-14.3" font-family="Times,serif" font-size="14.00">Jacob</text>
</a>
</g>
</g>
<!-- isaac&#45;&gt;jacob -->
<g id="edge3" class="edge"><title>isaac&#45;&gt;jacob</title>
<path fill="none" stroke="black" d="M192.545,-116.855C192.036,-99.2763 193.917,-72.0291 207.942,-54 209.505,-51.9899 231.816,-42.0733 252.176,-33.3067"/>
<polygon fill="black" stroke="black" points="253.799,-36.4192 261.613,-29.264 251.043,-29.9848 253.799,-36.4192"/>
<text text-anchor="middle" x="236.942" y="-87.8" font-family="Times,serif" font-size="14.00">Gen 25:26</text>
<text text-anchor="middle" x="236.942" y="-72.8" font-family="Times,serif" font-size="14.00">Luk 3:34</text>
<text text-anchor="middle" x="236.942" y="-57.8" font-family="Times,serif" font-size="14.00">Mat 1:2</text>
</g>
<!-- rebekah -->
<g id="node5" class="node"><title>rebekah</title>
<g id="a_node5"><a xlink:href="rebekah.html" xlink:title="Rebekah" target="_top">
<ellipse fill="none" stroke="red" cx="299.942" cy="-135" rx="41.6928" ry="18"/>
<text text-anchor="middle" x="299.942" y="-131.3" font-family="Times,serif" font-size="14.00">Rebekah</text>
</a>
</g>
</g>
<!-- isaac&#45;&gt;rebekah -->
<g id="edge8" class="edge"><title>isaac&#45;&gt;rebekah</title>
<path fill="none" stroke="red" d="M222.926,-135C234.659,-135 246.392,-135 258.125,-135"/>
</g>
<!-- rebekah&#45;&gt;esau -->
<g id="edge4" class="edge"><title>rebekah&#45;&gt;esau</title>
<path fill="none" stroke="black" d="M292.599,-116.918C290.157,-111.222 287.426,-104.84 284.942,-99 276.444,-79.0228 280.153,-70.4116 265.942,-54 258.707,-45.6456 248.969,-38.7086 239.54,-33.2741"/>
<polygon fill="black" stroke="black" points="241.153,-30.1678 230.686,-28.5269 237.845,-36.3369 241.153,-30.1678"/>
<text text-anchor="middle" x="313.942" y="-72.8" font-family="Times,serif" font-size="14.00">Gen 25:25</text>
</g>
<!-- rebekah&#45;&gt;jacob -->
<g id="edge5" class="edge"><title>rebekah&#45;&gt;jacob</title>
<path fill="none" stroke="black" d="M326.439,-120.642C334.532,-115.127 342.468,-107.91 346.942,-99 355.917,-81.1267 356.965,-71.307 346.942,-54 341.226,-44.131 331.561,-36.8043 321.588,-31.4784"/>
<polygon fill="black" stroke="black" points="322.983,-28.266 312.449,-27.1344 319.978,-34.5883 322.983,-28.266"/>
<text text-anchor="middle" x="382.942" y="-72.8" font-family="Times,serif" font-size="14.00">Gen 25:26</text>
</g>
<!-- sarai&#45;&gt;isaac -->
<g id="edge6" class="edge"><title>sarai&#45;&gt;isaac</title>
<path fill="none" stroke="black" d="M280.039,-234.031C262.543,-214.11 233.449,-180.983 213.987,-158.824"/>
<polygon fill="black" stroke="black" points="216.521,-156.405 207.292,-151.201 211.261,-161.024 216.521,-156.405"/>
<text text-anchor="middle" x="288.442" y="-189.8" font-family="Times,serif" font-size="14.00">Gen 21:2</text>
</g>
</g>
</svg>
