<?xml version="1.0" encoding="UTF-8" standalone="no"?>
<!DOCTYPE svg PUBLIC "-//W3C//DTD SVG 1.1//EN"
 "http://www.w3.org/Graphics/SVG/1.1/DTD/svg11.dtd">
<!-- Generated by graphviz version 2.38.0 (20140413.2041)
 -->
<!-- Title: ancestry Pages: 1 -->
<svg width="307pt" height="131pt"
 viewBox="0.00 0.00 306.94 131.00" xmlns="http://www.w3.org/2000/svg" xmlns:xlink="http://www.w3.org/1999/xlink">
<g id="graph0" class="graph" transform="scale(1 1) rotate(0) translate(4 127)">
<title>ancestry</title>
<polygon fill="white" stroke="none" points="-4,4 -4,-127 302.938,-127 302.938,4 -4,4"/>
<!-- abram -->
<g id="node1" class="node"><title>abram</title>
<g id="a_node1"><a xlink:href="abram.html" xlink:title="Abraham (was Abram)" target="_top">
<ellipse fill="none" stroke="blue" cx="92.9418" cy="-105" rx="92.8835" ry="18"/>
<text text-anchor="middle" x="92.9418" y="-101.3" font-family="Times,serif" font-size="14.00">Abraham (was Abram)</text>
</a>
</g>
</g>
<!-- ishbak -->
<g id="node2" class="node"><title>ishbak</title>
<g id="a_node2"><a xlink:href="ishbak.html" xlink:title="Ishbak" target="_top">
<ellipse fill="lightblue" stroke="blue" stroke-width="2" cx="175.942" cy="-18" rx="34.394" ry="18"/>
<text text-anchor="middle" x="175.942" y="-14.3" font-family="Times,serif" font-size="14.00">Ishbak</text>
</a>
</g>
</g>
<!-- abram&#45;&gt;ishbak -->
<g id="edge1" class="edge"><title>abram&#45;&gt;ishbak</title>
<path fill="none" stroke="black" d="M109.34,-87.2067C122.016,-74.2252 139.697,-56.1182 153.656,-41.8228"/>
<polygon fill="black" stroke="black" points="156.49,-43.9298 160.973,-34.3298 151.482,-39.0393 156.49,-43.9298"/>
<text text-anchor="middle" x="165.442" y="-57.8" font-family="Times,serif" font-size="14.00">Gen 25:2</text>
</g>
<!-- keturah -->
<g id="node3" class="node"><title>keturah</title>
<g id="a_node3"><a xlink:href="keturah.html" xlink:title="Keturah" target="_top">
<ellipse fill="none" stroke="red" cx="259.942" cy="-105" rx="38.9931" ry="18"/>
<text text-anchor="middle" x="259.942" y="-101.3" font-family="Times,serif" font-size="14.00">Keturah</text>
</a>
</g>
</g>
<!-- abram&#45;&gt;keturah -->
<g id="edge3" class="edge"><title>abram&#45;&gt;keturah</title>
<path fill="none" stroke="red" d="M185.901,-105C197.566,-105 209.231,-105 220.897,-105"/>
</g>
<!-- keturah&#45;&gt;ishbak -->
<g id="edge2" class="edge"><title>keturah&#45;&gt;ishbak</title>
<path fill="none" stroke="black" d="M244.535,-88.4097C231.548,-75.2679 212.797,-56.2945 198.182,-41.505"/>
<polygon fill="black" stroke="black" points="200.487,-38.8581 190.968,-34.2055 195.508,-43.7785 200.487,-38.8581"/>
<text text-anchor="middle" x="249.442" y="-57.8" font-family="Times,serif" font-size="14.00">Gen 25:2</text>
</g>
</g>
</svg>
