<?xml version="1.0" encoding="UTF-8" standalone="no"?>
<!DOCTYPE svg PUBLIC "-//W3C//DTD SVG 1.1//EN"
 "http://www.w3.org/Graphics/SVG/1.1/DTD/svg11.dtd">
<!-- Generated by graphviz version 2.38.0 (20140413.2041)
 -->
<!-- Title: ancestry Pages: 1 -->
<svg width="246pt" height="131pt"
 viewBox="0.00 0.00 246.39 131.00" xmlns="http://www.w3.org/2000/svg" xmlns:xlink="http://www.w3.org/1999/xlink">
<g id="graph0" class="graph" transform="scale(1 1) rotate(0) translate(4 127)">
<title>ancestry</title>
<polygon fill="white" stroke="none" points="-4,4 -4,-127 242.391,-127 242.391,4 -4,4"/>
<!-- ishmael -->
<g id="node1" class="node"><title>ishmael</title>
<g id="a_node1"><a xlink:href="ishmael.html" xlink:title="Ishmael" target="_top">
<ellipse fill="none" stroke="blue" cx="38.9965" cy="-18" rx="38.9931" ry="18"/>
<text text-anchor="middle" x="38.9965" y="-14.3" font-family="Times,serif" font-size="14.00">Ishmael</text>
</a>
</g>
</g>
<!-- ishmaels_wife -->
<g id="node2" class="node"><title>ishmaels_wife</title>
<g id="a_node2"><a xlink:href="ishmaels_wife.html" xlink:title="Ishmaels_wife" target="_top">
<ellipse fill="lightpink" stroke="red" stroke-width="2" cx="175.997" cy="-18" rx="62.2891" ry="18"/>
<text text-anchor="middle" x="175.997" y="-14.3" font-family="Times,serif" font-size="14.00">Ishmaels_wife</text>
</a>
</g>
</g>
<!-- ishmael&#45;&gt;ishmaels_wife -->
<g id="edge2" class="edge"><title>ishmael&#45;&gt;ishmaels_wife</title>
<path fill="none" stroke="red" d="M78.0629,-18C89.7946,-18 101.526,-18 113.258,-18"/>
</g>
<!-- mizraim -->
<g id="node3" class="node"><title>mizraim</title>
<g id="a_node3"><a xlink:href="mizraim.html" xlink:title="Mizraim" target="_top">
<ellipse fill="none" stroke="blue" cx="175.997" cy="-105" rx="42.4939" ry="18"/>
<text text-anchor="middle" x="175.997" y="-101.3" font-family="Times,serif" font-size="14.00">Mizraim</text>
</a>
</g>
</g>
<!-- mizraim&#45;&gt;ishmaels_wife -->
<g id="edge1" class="edge"><title>mizraim&#45;&gt;ishmaels_wife</title>
<path fill="none" stroke="black" stroke-dasharray="1,5" d="M175.997,-86.799C175.997,-75.1626 175.997,-59.5479 175.997,-46.2368"/>
<polygon fill="black" stroke="black" points="179.497,-46.1754 175.997,-36.1754 172.497,-46.1755 179.497,-46.1754"/>
<text text-anchor="middle" x="204.997" y="-57.8" font-family="Times,serif" font-size="14.00">Gen 21:21</text>
</g>
</g>
</svg>
