<?xml version="1.0" encoding="UTF-8" standalone="no"?>
<!DOCTYPE svg PUBLIC "-//W3C//DTD SVG 1.1//EN"
 "http://www.w3.org/Graphics/SVG/1.1/DTD/svg11.dtd">
<!-- Generated by graphviz version 2.38.0 (20140413.2041)
 -->
<!-- Title: ancestry Pages: 1 -->
<svg width="1265pt" height="218pt"
 viewBox="0.00 0.00 1264.59 218.00" xmlns="http://www.w3.org/2000/svg" xmlns:xlink="http://www.w3.org/1999/xlink">
<g id="graph0" class="graph" transform="scale(1 1) rotate(0) translate(4 214)">
<title>ancestry</title>
<polygon fill="white" stroke="none" points="-4,4 -4,-214 1260.59,-214 1260.59,4 -4,4"/>
<!-- abram -->
<g id="node1" class="node"><title>abram</title>
<g id="a_node1"><a xlink:href="abram.html" xlink:title="Abraham (was Abram)" target="_top">
<ellipse fill="none" stroke="blue" cx="512.397" cy="-192" rx="92.8835" ry="18"/>
<text text-anchor="middle" x="512.397" y="-188.3" font-family="Times,serif" font-size="14.00">Abraham (was Abram)</text>
</a>
</g>
</g>
<!-- hagar -->
<g id="node6" class="node"><title>hagar</title>
<g id="a_node6"><a xlink:href="hagar.html" xlink:title="Hagar" target="_top">
<ellipse fill="none" stroke="red" cx="673.397" cy="-192" rx="32.4942" ry="18"/>
<text text-anchor="middle" x="673.397" y="-188.3" font-family="Times,serif" font-size="14.00">Hagar</text>
</a>
</g>
</g>
<!-- abram&#45;&gt;hagar -->
<g id="edge17" class="edge"><title>abram&#45;&gt;hagar</title>
<path fill="none" stroke="red" d="M605.475,-192C617.237,-192 629,-192 640.762,-192"/>
</g>
<!-- ishmael -->
<g id="node7" class="node"><title>ishmael</title>
<g id="a_node7"><a xlink:href="ishmael.html" xlink:title="Ishmael" target="_top">
<ellipse fill="lightblue" stroke="blue" stroke-width="2" cx="592.397" cy="-105" rx="38.9931" ry="18"/>
<text text-anchor="middle" x="592.397" y="-101.3" font-family="Times,serif" font-size="14.00">Ishmael</text>
</a>
</g>
</g>
<!-- abram&#45;&gt;ishmael -->
<g id="edge1" class="edge"><title>abram&#45;&gt;ishmael</title>
<path fill="none" stroke="black" d="M528.202,-174.207C540.266,-161.389 557.034,-143.573 570.407,-129.364"/>
<polygon fill="black" stroke="black" points="573.131,-131.577 577.436,-121.896 568.034,-126.779 573.131,-131.577"/>
<text text-anchor="middle" x="586.397" y="-144.8" font-family="Times,serif" font-size="14.00">Gen 16:15</text>
</g>
<!-- adbeel -->
<g id="node2" class="node"><title>adbeel</title>
<g id="a_node2"><a xlink:href="adbeel.html" xlink:title="Adbeel" target="_top">
<ellipse fill="none" stroke="blue" cx="36.3968" cy="-18" rx="36.2938" ry="18"/>
<text text-anchor="middle" x="36.3968" y="-14.3" font-family="Times,serif" font-size="14.00">Adbeel</text>
</a>
</g>
</g>
<!-- dumah -->
<g id="node3" class="node"><title>dumah</title>
<g id="a_node3"><a xlink:href="dumah.html" xlink:title="Dumah" target="_top">
<ellipse fill="none" stroke="blue" cx="127.397" cy="-18" rx="37.0935" ry="18"/>
<text text-anchor="middle" x="127.397" y="-14.3" font-family="Times,serif" font-size="14.00">Dumah</text>
</a>
</g>
</g>
<!-- edar -->
<g id="node4" class="node"><title>edar</title>
<g id="a_node4"><a xlink:href="edar.html" xlink:title="Edar" target="_top">
<ellipse fill="none" stroke="blue" cx="209.397" cy="-18" rx="27.0966" ry="18"/>
<text text-anchor="middle" x="209.397" y="-14.3" font-family="Times,serif" font-size="14.00">Edar</text>
</a>
</g>
</g>
<!-- hadar -->
<g id="node5" class="node"><title>hadar</title>
<g id="a_node5"><a xlink:href="hadar.html" xlink:title="Hadar" target="_top">
<ellipse fill="none" stroke="blue" cx="288.397" cy="-18" rx="32.4942" ry="18"/>
<text text-anchor="middle" x="288.397" y="-14.3" font-family="Times,serif" font-size="14.00">Hadar</text>
</a>
</g>
</g>
<!-- hagar&#45;&gt;ishmael -->
<g id="edge2" class="edge"><title>hagar&#45;&gt;ishmael</title>
<path fill="none" stroke="black" d="M658.916,-175.804C646.516,-162.791 628.472,-143.857 614.305,-128.99"/>
<polygon fill="black" stroke="black" points="616.733,-126.465 607.301,-121.64 611.666,-131.294 616.733,-126.465"/>
<text text-anchor="middle" x="667.397" y="-144.8" font-family="Times,serif" font-size="14.00">Gen 16:15</text>
</g>
<!-- ishmael&#45;&gt;adbeel -->
<g id="edge3" class="edge"><title>ishmael&#45;&gt;adbeel</title>
<path fill="none" stroke="black" d="M553.392,-104.402C451.089,-104.961 177.238,-103.131 94.3968,-69 80.2915,-63.1886 67.178,-52.5409 57.0011,-42.5603"/>
<polygon fill="black" stroke="black" points="59.2947,-39.8976 49.8235,-35.1493 54.2664,-44.7676 59.2947,-39.8976"/>
<text text-anchor="middle" x="123.397" y="-57.8" font-family="Times,serif" font-size="14.00">Gen 25:13</text>
</g>
<!-- ishmael&#45;&gt;dumah -->
<g id="edge4" class="edge"><title>ishmael&#45;&gt;dumah</title>
<path fill="none" stroke="black" d="M553.403,-104.199C462.973,-104.11 241.635,-100.57 175.397,-69 163.346,-63.2565 152.726,-53.1013 144.559,-43.4366"/>
<polygon fill="black" stroke="black" points="147.254,-41.2022 138.299,-35.5412 141.769,-45.5514 147.254,-41.2022"/>
<text text-anchor="middle" x="204.397" y="-57.8" font-family="Times,serif" font-size="14.00">Gen 25:14</text>
</g>
<!-- ishmael&#45;&gt;edar -->
<g id="edge5" class="edge"><title>ishmael&#45;&gt;edar</title>
<path fill="none" stroke="black" d="M553.28,-103.317C476.198,-101.425 307.7,-94.4215 256.397,-69 244.388,-63.0492 233.857,-52.6727 225.824,-42.9094"/>
<polygon fill="black" stroke="black" points="228.569,-40.7379 219.687,-34.9631 223.029,-45.0168 228.569,-40.7379"/>
<text text-anchor="middle" x="285.397" y="-57.8" font-family="Times,serif" font-size="14.00">Gen 25:13</text>
</g>
<!-- ishmael&#45;&gt;hadar -->
<g id="edge6" class="edge"><title>ishmael&#45;&gt;hadar</title>
<path fill="none" stroke="black" d="M553.629,-101.679C492.126,-97.4961 375.37,-87.3722 338.397,-69 326.201,-62.9397 315.185,-52.7423 306.618,-43.1314"/>
<polygon fill="black" stroke="black" points="309.142,-40.6957 300.024,-35.3 303.787,-45.2041 309.142,-40.6957"/>
<text text-anchor="middle" x="367.397" y="-57.8" font-family="Times,serif" font-size="14.00">Gen 25:15</text>
</g>
<!-- ishmaels_wife -->
<g id="node8" class="node"><title>ishmaels_wife</title>
<g id="a_node8"><a xlink:href="ishmaels_wife.html" xlink:title="Ishmaels_wife" target="_top">
<ellipse fill="none" stroke="red" cx="729.397" cy="-105" rx="62.2891" ry="18"/>
<text text-anchor="middle" x="729.397" y="-101.3" font-family="Times,serif" font-size="14.00">Ishmaels_wife</text>
</a>
</g>
</g>
<!-- ishmael&#45;&gt;ishmaels_wife -->
<g id="edge18" class="edge"><title>ishmael&#45;&gt;ishmaels_wife</title>
<path fill="none" stroke="red" d="M631.463,-105C643.195,-105 654.926,-105 666.658,-105"/>
</g>
<!-- jether -->
<g id="node9" class="node"><title>jether</title>
<g id="a_node9"><a xlink:href="jether.html" xlink:title="Jether" target="_top">
<ellipse fill="none" stroke="blue" cx="370.397" cy="-18" rx="31.6951" ry="18"/>
<text text-anchor="middle" x="370.397" y="-14.3" font-family="Times,serif" font-size="14.00">Jether</text>
</a>
</g>
</g>
<!-- ishmael&#45;&gt;jether -->
<g id="edge16" class="edge"><title>ishmael&#45;&gt;jether</title>
<path fill="none" stroke="black" stroke-dasharray="1,5" d="M553.683,-102.478C517.333,-99.6277 462.406,-91.5735 420.397,-69 408.4,-62.5537 397.411,-52.3048 388.81,-42.7596"/>
<polygon fill="black" stroke="black" points="391.337,-40.3293 382.176,-35.006 386.018,-44.88 391.337,-40.3293"/>
<text text-anchor="middle" x="447.897" y="-57.8" font-family="Times,serif" font-size="14.00">1 Ch 2:17</text>
</g>
<!-- jetur -->
<g id="node10" class="node"><title>jetur</title>
<g id="a_node10"><a xlink:href="jetur.html" xlink:title="Jetur" target="_top">
<ellipse fill="none" stroke="blue" cx="448.397" cy="-18" rx="27.8951" ry="18"/>
<text text-anchor="middle" x="448.397" y="-14.3" font-family="Times,serif" font-size="14.00">Jetur</text>
</a>
</g>
</g>
<!-- ishmael&#45;&gt;jetur -->
<g id="edge7" class="edge"><title>ishmael&#45;&gt;jetur</title>
<path fill="none" stroke="black" d="M558.663,-95.8002C539.419,-90.1503 515.419,-81.4003 496.397,-69 485.482,-61.8845 475.213,-51.843 466.996,-42.6237"/>
<polygon fill="black" stroke="black" points="469.494,-40.1597 460.339,-34.8279 464.171,-44.7054 469.494,-40.1597"/>
<text text-anchor="middle" x="525.397" y="-57.8" font-family="Times,serif" font-size="14.00">Gen 25:15</text>
</g>
<!-- kedemah -->
<g id="node11" class="node"><title>kedemah</title>
<g id="a_node11"><a xlink:href="kedemah.html" xlink:title="Kedemah" target="_top">
<ellipse fill="none" stroke="blue" cx="539.397" cy="-18" rx="44.6926" ry="18"/>
<text text-anchor="middle" x="539.397" y="-14.3" font-family="Times,serif" font-size="14.00">Kedemah</text>
</a>
</g>
</g>
<!-- ishmael&#45;&gt;kedemah -->
<g id="edge8" class="edge"><title>ishmael&#45;&gt;kedemah</title>
<path fill="none" stroke="black" d="M579.729,-87.9623C575.319,-82.1222 570.463,-75.3849 566.397,-69 561.575,-61.4275 556.769,-52.9207 552.578,-45.1006"/>
<polygon fill="black" stroke="black" points="555.555,-43.2411 547.81,-36.0114 549.356,-46.4929 555.555,-43.2411"/>
<text text-anchor="middle" x="595.397" y="-57.8" font-family="Times,serif" font-size="14.00">Gen 25:15</text>
</g>
<!-- mahalath -->
<g id="node12" class="node"><title>mahalath</title>
<g id="a_node12"><a xlink:href="mahalath.html" xlink:title="Mahalath" target="_top">
<ellipse fill="none" stroke="red" cx="646.397" cy="-18" rx="44.393" ry="18"/>
<text text-anchor="middle" x="646.397" y="-14.3" font-family="Times,serif" font-size="14.00">Mahalath</text>
</a>
</g>
</g>
<!-- ishmael&#45;&gt;mahalath -->
<g id="edge9" class="edge"><title>ishmael&#45;&gt;mahalath</title>
<path fill="none" stroke="black" d="M608.555,-88.5336C614.035,-82.7472 619.901,-75.8977 624.397,-69 629.13,-61.7375 633.288,-53.2868 636.678,-45.4223"/>
<polygon fill="black" stroke="black" points="640.022,-46.4895 640.547,-35.9076 633.538,-43.8527 640.022,-46.4895"/>
<text text-anchor="middle" x="658.897" y="-57.8" font-family="Times,serif" font-size="14.00">Gen 28:9</text>
</g>
<!-- massa -->
<g id="node13" class="node"><title>massa</title>
<g id="a_node13"><a xlink:href="massa.html" xlink:title="Massa" target="_top">
<ellipse fill="none" stroke="blue" cx="742.397" cy="-18" rx="33.5952" ry="18"/>
<text text-anchor="middle" x="742.397" y="-14.3" font-family="Times,serif" font-size="14.00">Massa</text>
</a>
</g>
</g>
<!-- ishmael&#45;&gt;massa -->
<g id="edge10" class="edge"><title>ishmael&#45;&gt;massa</title>
<path fill="none" stroke="black" d="M625.863,-95.3765C645.018,-89.5853 669.018,-80.8353 688.397,-69 700.442,-61.6434 712.147,-51.3254 721.563,-41.9716"/>
<polygon fill="black" stroke="black" points="724.122,-44.3605 728.586,-34.7519 719.104,-39.4796 724.122,-44.3605"/>
<text text-anchor="middle" x="737.397" y="-57.8" font-family="Times,serif" font-size="14.00">Gen 25:14</text>
</g>
<!-- mibsam -->
<g id="node14" class="node"><title>mibsam</title>
<g id="a_node14"><a xlink:href="mibsam.html" xlink:title="Mibsam" target="_top">
<ellipse fill="none" stroke="blue" cx="834.397" cy="-18" rx="40.0939" ry="18"/>
<text text-anchor="middle" x="834.397" y="-14.3" font-family="Times,serif" font-size="14.00">Mibsam</text>
</a>
</g>
</g>
<!-- ishmael&#45;&gt;mibsam -->
<g id="edge11" class="edge"><title>ishmael&#45;&gt;mibsam</title>
<path fill="none" stroke="black" d="M625.156,-94.9225C635.718,-92.1676 647.509,-89.272 658.397,-87 707.75,-76.7011 724.184,-89.1555 770.397,-69 785.373,-62.4683 799.904,-51.6055 811.324,-41.6708"/>
<polygon fill="black" stroke="black" points="813.987,-43.9815 819.052,-34.6759 809.289,-38.7916 813.987,-43.9815"/>
<text text-anchor="middle" x="824.397" y="-57.8" font-family="Times,serif" font-size="14.00">Gen 25:13</text>
</g>
<!-- mishma -->
<g id="node15" class="node"><title>mishma</title>
<g id="a_node15"><a xlink:href="mishma.html" xlink:title="Mishma" target="_top">
<ellipse fill="none" stroke="blue" cx="933.397" cy="-18" rx="40.0939" ry="18"/>
<text text-anchor="middle" x="933.397" y="-14.3" font-family="Times,serif" font-size="14.00">Mishma</text>
</a>
</g>
</g>
<!-- ishmael&#45;&gt;mishma -->
<g id="edge12" class="edge"><title>ishmael&#45;&gt;mishma</title>
<path fill="none" stroke="black" d="M624.397,-94.6461C635.124,-91.8089 647.204,-88.9346 658.397,-87 745.905,-71.8749 773.559,-98.2851 857.397,-69 875.548,-62.6597 893.622,-51.0432 907.587,-40.602"/>
<polygon fill="black" stroke="black" points="909.95,-43.1991 915.716,-34.3105 905.666,-37.6634 909.95,-43.1991"/>
<text text-anchor="middle" x="916.397" y="-57.8" font-family="Times,serif" font-size="14.00">Gen 25:14</text>
</g>
<!-- naphish -->
<g id="node16" class="node"><title>naphish</title>
<g id="a_node16"><a xlink:href="naphish.html" xlink:title="Naphish" target="_top">
<ellipse fill="none" stroke="blue" cx="1032.4" cy="-18" rx="40.0939" ry="18"/>
<text text-anchor="middle" x="1032.4" y="-14.3" font-family="Times,serif" font-size="14.00">Naphish</text>
</a>
</g>
</g>
<!-- ishmael&#45;&gt;naphish -->
<g id="edge13" class="edge"><title>ishmael&#45;&gt;naphish</title>
<path fill="none" stroke="black" d="M624.366,-94.4594C635.091,-91.6098 647.177,-88.7753 658.397,-87 786.385,-66.7475 825.68,-107.539 949.397,-69 969.402,-62.7683 989.588,-50.7644 1005.04,-40.0803"/>
<polygon fill="black" stroke="black" points="1007.46,-42.657 1013.56,-33.9959 1003.39,-36.9613 1007.46,-42.657"/>
<text text-anchor="middle" x="1010.4" y="-57.8" font-family="Times,serif" font-size="14.00">Gen 25:15</text>
</g>
<!-- nebajoth -->
<g id="node17" class="node"><title>nebajoth</title>
<g id="a_node17"><a xlink:href="nebajoth.html" xlink:title="Nebajoth" target="_top">
<ellipse fill="none" stroke="blue" cx="1133.4" cy="-18" rx="42.7926" ry="18"/>
<text text-anchor="middle" x="1133.4" y="-14.3" font-family="Times,serif" font-size="14.00">Nebajoth</text>
</a>
</g>
</g>
<!-- ishmael&#45;&gt;nebajoth -->
<g id="edge14" class="edge"><title>ishmael&#45;&gt;nebajoth</title>
<path fill="none" stroke="black" d="M624.016,-94.4496C634.823,-91.5629 647.047,-88.7084 658.397,-87 743.092,-74.2509 961.011,-92.415 1043.4,-69 1065.01,-62.8567 1087.1,-50.6888 1103.99,-39.8951"/>
<polygon fill="black" stroke="black" points="1106.38,-42.5134 1112.8,-34.0869 1102.52,-36.6693 1106.38,-42.5134"/>
<text text-anchor="middle" x="1106.4" y="-57.8" font-family="Times,serif" font-size="14.00">Gen 25:13</text>
</g>
<!-- tema -->
<g id="node18" class="node"><title>tema</title>
<g id="a_node18"><a xlink:href="tema.html" xlink:title="Tema" target="_top">
<ellipse fill="none" stroke="blue" cx="1225.4" cy="-18" rx="31.3957" ry="18"/>
<text text-anchor="middle" x="1225.4" y="-14.3" font-family="Times,serif" font-size="14.00">Tema</text>
</a>
</g>
</g>
<!-- ishmael&#45;&gt;tema -->
<g id="edge15" class="edge"><title>ishmael&#45;&gt;tema</title>
<path fill="none" stroke="black" d="M624.007,-94.3884C634.813,-91.4972 647.039,-88.6556 658.397,-87 764.242,-71.571 1036.66,-98.7672 1139.4,-69 1160.95,-62.7548 1182.78,-49.9681 1199.05,-38.8893"/>
<polygon fill="black" stroke="black" points="1201.32,-41.5766 1207.48,-32.9625 1197.29,-35.8499 1201.32,-41.5766"/>
<text text-anchor="middle" x="1203.4" y="-57.8" font-family="Times,serif" font-size="14.00">Gen 25:15</text>
</g>
</g>
</svg>
