<?xml version="1.0" encoding="UTF-8" standalone="no"?>
<!DOCTYPE svg PUBLIC "-//W3C//DTD SVG 1.1//EN"
 "http://www.w3.org/Graphics/SVG/1.1/DTD/svg11.dtd">
<!-- Generated by graphviz version 2.38.0 (20140413.2041)
 -->
<!-- Title: ancestry Pages: 1 -->
<svg width="180pt" height="146pt"
 viewBox="0.00 0.00 179.55 146.00" xmlns="http://www.w3.org/2000/svg" xmlns:xlink="http://www.w3.org/1999/xlink">
<g id="graph0" class="graph" transform="scale(1 1) rotate(0) translate(4 142)">
<title>ancestry</title>
<polygon fill="white" stroke="none" points="-4,4 -4,-142 175.547,-142 175.547,4 -4,4"/>
<!-- issachar -->
<g id="node1" class="node"><title>issachar</title>
<g id="a_node1"><a xlink:href="issachar.html" xlink:title="Issachar" target="_top">
<ellipse fill="lightblue" stroke="blue" stroke-width="2" cx="73.5473" cy="-18" rx="39.7935" ry="18"/>
<text text-anchor="middle" x="73.5473" y="-14.3" font-family="Times,serif" font-size="14.00">Issachar</text>
</a>
</g>
</g>
<!-- jacob -->
<g id="node2" class="node"><title>jacob</title>
<g id="a_node2"><a xlink:href="jacob.html" xlink:title="Jacob" target="_top">
<ellipse fill="none" stroke="blue" cx="30.5473" cy="-120" rx="30.5947" ry="18"/>
<text text-anchor="middle" x="30.5473" y="-116.3" font-family="Times,serif" font-size="14.00">Jacob</text>
</a>
</g>
</g>
<!-- jacob&#45;&gt;issachar -->
<g id="edge1" class="edge"><title>jacob&#45;&gt;issachar</title>
<path fill="none" stroke="black" d="M30.8175,-101.906C31.6351,-88.307 34.1665,-69.119 41.5473,-54 43.5937,-49.8082 46.3016,-45.7575 49.278,-41.9907"/>
<polygon fill="black" stroke="black" points="52.1031,-44.0779 56.0703,-34.2538 46.8426,-39.4597 52.1031,-44.0779"/>
<text text-anchor="middle" x="70.5473" y="-72.8" font-family="Times,serif" font-size="14.00">1 Ch 2:1</text>
<text text-anchor="middle" x="70.5473" y="-57.8" font-family="Times,serif" font-size="14.00">Gen 30:17</text>
</g>
<!-- leah -->
<g id="node3" class="node"><title>leah</title>
<g id="a_node3"><a xlink:href="leah.html" xlink:title="Leah" target="_top">
<ellipse fill="none" stroke="red" cx="125.547" cy="-120" rx="28.6953" ry="18"/>
<text text-anchor="middle" x="125.547" y="-116.3" font-family="Times,serif" font-size="14.00">Leah</text>
</a>
</g>
</g>
<!-- jacob&#45;&gt;leah -->
<g id="edge3" class="edge"><title>jacob&#45;&gt;leah</title>
<path fill="none" stroke="red" d="M61.3481,-120C73.1346,-120 84.9212,-120 96.7078,-120"/>
</g>
<!-- leah&#45;&gt;issachar -->
<g id="edge2" class="edge"><title>leah&#45;&gt;issachar</title>
<path fill="none" stroke="black" d="M120.162,-102.165C115.544,-88.7127 108.265,-69.5953 99.5473,-54 97.5679,-50.4589 95.2777,-46.8665 92.8937,-43.3994"/>
<polygon fill="black" stroke="black" points="95.6049,-41.1763 86.8977,-35.1401 89.9402,-45.2887 95.6049,-41.1763"/>
<text text-anchor="middle" x="142.547" y="-65.3" font-family="Times,serif" font-size="14.00">Gen 30:17</text>
</g>
</g>
</svg>
