<?xml version="1.0" encoding="UTF-8" standalone="no"?>
<!DOCTYPE svg PUBLIC "-//W3C//DTD SVG 1.1//EN"
 "http://www.w3.org/Graphics/SVG/1.1/DTD/svg11.dtd">
<!-- Generated by graphviz version 2.38.0 (20140413.2041)
 -->
<!-- Title: ancestry Pages: 1 -->
<svg width="243pt" height="218pt"
 viewBox="0.00 0.00 243.09 218.00" xmlns="http://www.w3.org/2000/svg" xmlns:xlink="http://www.w3.org/1999/xlink">
<g id="graph0" class="graph" transform="scale(1 1) rotate(0) translate(4 214)">
<title>ancestry</title>
<polygon fill="white" stroke="none" points="-4,4 -4,-214 239.095,-214 239.095,4 -4,4"/>
<!-- izhar -->
<g id="node1" class="node"><title>izhar</title>
<g id="a_node1"><a xlink:href="izhar.html" xlink:title="Izhar" target="_top">
<ellipse fill="lightblue" stroke="blue" stroke-width="2" cx="121.497" cy="-105" rx="28.6953" ry="18"/>
<text text-anchor="middle" x="121.497" y="-101.3" font-family="Times,serif" font-size="14.00">Izhar</text>
</a>
</g>
</g>
<!-- korah -->
<g id="node3" class="node"><title>korah</title>
<g id="a_node3"><a xlink:href="korah.html" xlink:title="Korah" target="_top">
<ellipse fill="none" stroke="blue" cx="32.4971" cy="-18" rx="32.4942" ry="18"/>
<text text-anchor="middle" x="32.4971" y="-14.3" font-family="Times,serif" font-size="14.00">Korah</text>
</a>
</g>
</g>
<!-- izhar&#45;&gt;korah -->
<g id="edge1" class="edge"><title>izhar&#45;&gt;korah</title>
<path fill="none" stroke="black" d="M102.405,-91.311C93.5378,-85.0423 83.0828,-77.097 74.4971,-69 66.122,-61.1016 57.7827,-51.602 50.7685,-43.0143"/>
<polygon fill="black" stroke="black" points="53.4626,-40.779 44.4917,-35.1422 47.9894,-45.143 53.4626,-40.779"/>
<text text-anchor="middle" x="95.9971" y="-57.8" font-family="Times,serif" font-size="14.00">Ex 6:21</text>
</g>
<!-- nepheg -->
<g id="node4" class="node"><title>nepheg</title>
<g id="a_node4"><a xlink:href="nepheg.html" xlink:title="Nepheg" target="_top">
<ellipse fill="none" stroke="blue" cx="121.497" cy="-18" rx="38.1938" ry="18"/>
<text text-anchor="middle" x="121.497" y="-14.3" font-family="Times,serif" font-size="14.00">Nepheg</text>
</a>
</g>
</g>
<!-- izhar&#45;&gt;nepheg -->
<g id="edge2" class="edge"><title>izhar&#45;&gt;nepheg</title>
<path fill="none" stroke="black" d="M121.497,-86.799C121.497,-75.1626 121.497,-59.5479 121.497,-46.2368"/>
<polygon fill="black" stroke="black" points="124.997,-46.1754 121.497,-36.1754 117.997,-46.1755 124.997,-46.1754"/>
<text text-anchor="middle" x="142.997" y="-57.8" font-family="Times,serif" font-size="14.00">Ex 6:21</text>
</g>
<!-- zikri -->
<g id="node5" class="node"><title>zikri</title>
<g id="a_node5"><a xlink:href="zikri.html" xlink:title="Zikri" target="_top">
<ellipse fill="none" stroke="blue" cx="206.497" cy="-18" rx="28.6953" ry="18"/>
<text text-anchor="middle" x="206.497" y="-14.3" font-family="Times,serif" font-size="14.00">Zikri</text>
</a>
</g>
</g>
<!-- izhar&#45;&gt;zikri -->
<g id="edge3" class="edge"><title>izhar&#45;&gt;zikri</title>
<path fill="none" stroke="black" d="M140.768,-91.4967C149.675,-85.2688 160.112,-77.304 168.497,-69 176.283,-61.2899 183.812,-51.9275 190.086,-43.3984"/>
<polygon fill="black" stroke="black" points="192.948,-45.4131 195.905,-35.2392 187.249,-41.3487 192.948,-45.4131"/>
<text text-anchor="middle" x="202.997" y="-57.8" font-family="Times,serif" font-size="14.00">Ex 6:21</text>
</g>
<!-- kohath -->
<g id="node2" class="node"><title>kohath</title>
<g id="a_node2"><a xlink:href="kohath.html" xlink:title="Kohath" target="_top">
<ellipse fill="none" stroke="blue" cx="121.497" cy="-192" rx="36.2938" ry="18"/>
<text text-anchor="middle" x="121.497" y="-188.3" font-family="Times,serif" font-size="14.00">Kohath</text>
</a>
</g>
</g>
<!-- kohath&#45;&gt;izhar -->
<g id="edge4" class="edge"><title>kohath&#45;&gt;izhar</title>
<path fill="none" stroke="black" d="M121.497,-173.799C121.497,-162.163 121.497,-146.548 121.497,-133.237"/>
<polygon fill="black" stroke="black" points="124.997,-133.175 121.497,-123.175 117.997,-133.175 124.997,-133.175"/>
<text text-anchor="middle" x="142.997" y="-144.8" font-family="Times,serif" font-size="14.00">Ex 6:18</text>
</g>
</g>
</svg>
