<?xml version="1.0" encoding="UTF-8" standalone="no"?>
<!DOCTYPE svg PUBLIC "-//W3C//DTD SVG 1.1//EN"
 "http://www.w3.org/Graphics/SVG/1.1/DTD/svg11.dtd">
<!-- Generated by graphviz version 2.38.0 (20140413.2041)
 -->
<!-- Title: ancestry Pages: 1 -->
<svg width="2004pt" height="293pt"
 viewBox="0.00 0.00 2004.50 293.00" xmlns="http://www.w3.org/2000/svg" xmlns:xlink="http://www.w3.org/1999/xlink">
<g id="graph0" class="graph" transform="scale(1 1) rotate(0) translate(4 289)">
<title>ancestry</title>
<polygon fill="white" stroke="none" points="-4,4 -4,-289 2000.5,-289 2000.5,4 -4,4"/>
<!-- asher -->
<g id="node1" class="node"><title>asher</title>
<g id="a_node1"><a xlink:href="asher.html" xlink:title="Asher" target="_top">
<ellipse fill="none" stroke="blue" cx="216.496" cy="-18" rx="31.6951" ry="18"/>
<text text-anchor="middle" x="216.496" y="-14.3" font-family="Times,serif" font-size="14.00">Asher</text>
</a>
</g>
</g>
<!-- benjamin -->
<g id="node2" class="node"><title>benjamin</title>
<g id="a_node2"><a xlink:href="benjamin.html" xlink:title="Benjamin" target="_top">
<ellipse fill="none" stroke="blue" cx="45.496" cy="-18" rx="45.4919" ry="18"/>
<text text-anchor="middle" x="45.496" y="-14.3" font-family="Times,serif" font-size="14.00">Benjamin</text>
</a>
</g>
</g>
<!-- bilhah -->
<g id="node3" class="node"><title>bilhah</title>
<g id="a_node3"><a xlink:href="bilhah.html" xlink:title="Bilhah" target="_top">
<ellipse fill="none" stroke="red" cx="1884.5" cy="-150" rx="34.394" ry="18"/>
<text text-anchor="middle" x="1884.5" y="-146.3" font-family="Times,serif" font-size="14.00">Bilhah</text>
</a>
</g>
</g>
<!-- dan -->
<g id="node4" class="node"><title>dan</title>
<g id="a_node4"><a xlink:href="dan.html" xlink:title="Dan" target="_top">
<ellipse fill="none" stroke="blue" cx="1884.5" cy="-18" rx="27" ry="18"/>
<text text-anchor="middle" x="1884.5" y="-14.3" font-family="Times,serif" font-size="14.00">Dan</text>
</a>
</g>
</g>
<!-- bilhah&#45;&gt;dan -->
<g id="edge1" class="edge"><title>bilhah&#45;&gt;dan</title>
<path fill="none" stroke="black" d="M1910.46,-138.143C1920.48,-132.515 1930.87,-124.567 1936.5,-114 1949.03,-90.4609 1949.03,-77.5391 1936.5,-54 1931.91,-45.3937 1924.17,-38.5245 1916.04,-33.2306"/>
<polygon fill="black" stroke="black" points="1917.6,-30.09 1907.19,-28.0968 1914.09,-36.144 1917.6,-30.09"/>
<text text-anchor="middle" x="1971" y="-80.3" font-family="Times,serif" font-size="14.00">Gen 30:5</text>
</g>
<!-- naphtali -->
<g id="node14" class="node"><title>naphtali</title>
<g id="a_node14"><a xlink:href="naphtali.html" xlink:title="Naphtali" target="_top">
<ellipse fill="none" stroke="blue" cx="1726.5" cy="-18" rx="40.8928" ry="18"/>
<text text-anchor="middle" x="1726.5" y="-14.3" font-family="Times,serif" font-size="14.00">Naphtali</text>
</a>
</g>
</g>
<!-- bilhah&#45;&gt;naphtali -->
<g id="edge2" class="edge"><title>bilhah&#45;&gt;naphtali</title>
<path fill="none" stroke="black" d="M1882.64,-131.736C1879.69,-107.441 1873.14,-64.9041 1862.5,-54 1840.58,-31.5453 1806.33,-22.822 1777.68,-19.6989"/>
<polygon fill="black" stroke="black" points="1777.69,-16.1855 1767.42,-18.7866 1777.07,-23.158 1777.69,-16.1855"/>
<text text-anchor="middle" x="1906" y="-80.3" font-family="Times,serif" font-size="14.00">Gen 30:7</text>
</g>
<!-- dinah -->
<g id="node5" class="node"><title>dinah</title>
<g id="a_node5"><a xlink:href="dinah.html" xlink:title="Dinah" target="_top">
<ellipse fill="none" stroke="red" cx="757.496" cy="-18" rx="32.4942" ry="18"/>
<text text-anchor="middle" x="757.496" y="-14.3" font-family="Times,serif" font-size="14.00">Dinah</text>
</a>
</g>
</g>
<!-- gad -->
<g id="node6" class="node"><title>gad</title>
<g id="a_node6"><a xlink:href="gad.html" xlink:title="Gad" target="_top">
<ellipse fill="none" stroke="blue" cx="322.496" cy="-18" rx="27" ry="18"/>
<text text-anchor="middle" x="322.496" y="-14.3" font-family="Times,serif" font-size="14.00">Gad</text>
</a>
</g>
</g>
<!-- isaac -->
<g id="node7" class="node"><title>isaac</title>
<g id="a_node7"><a xlink:href="isaac.html" xlink:title="Isaac" target="_top">
<ellipse fill="none" stroke="blue" cx="815.496" cy="-267" rx="28.6953" ry="18"/>
<text text-anchor="middle" x="815.496" y="-263.3" font-family="Times,serif" font-size="14.00">Isaac</text>
</a>
</g>
</g>
<!-- jacob -->
<g id="node9" class="node"><title>jacob</title>
<g id="a_node9"><a xlink:href="jacob.html" xlink:title="Jacob" target="_top">
<ellipse fill="lightblue" stroke="blue" stroke-width="2" cx="861.496" cy="-150" rx="30.5947" ry="18"/>
<text text-anchor="middle" x="861.496" y="-146.3" font-family="Times,serif" font-size="14.00">Jacob</text>
</a>
</g>
</g>
<!-- isaac&#45;&gt;jacob -->
<g id="edge3" class="edge"><title>isaac&#45;&gt;jacob</title>
<path fill="none" stroke="black" d="M817.448,-248.755C819.823,-232.059 824.784,-206.357 834.496,-186 836.392,-182.026 838.794,-178.075 841.381,-174.337"/>
<polygon fill="black" stroke="black" points="844.374,-176.181 847.598,-166.089 838.784,-171.967 844.374,-176.181"/>
<text text-anchor="middle" x="863.496" y="-219.8" font-family="Times,serif" font-size="14.00">Gen 25:26</text>
<text text-anchor="middle" x="863.496" y="-204.8" font-family="Times,serif" font-size="14.00">Luk 3:34</text>
<text text-anchor="middle" x="863.496" y="-189.8" font-family="Times,serif" font-size="14.00">Mat 1:2</text>
</g>
<!-- rebekah -->
<g id="node16" class="node"><title>rebekah</title>
<g id="a_node16"><a xlink:href="rebekah.html" xlink:title="Rebekah" target="_top">
<ellipse fill="none" stroke="red" cx="921.496" cy="-267" rx="41.6928" ry="18"/>
<text text-anchor="middle" x="921.496" y="-263.3" font-family="Times,serif" font-size="14.00">Rebekah</text>
</a>
</g>
</g>
<!-- isaac&#45;&gt;rebekah -->
<g id="edge28" class="edge"><title>isaac&#45;&gt;rebekah</title>
<path fill="none" stroke="red" d="M844.48,-267C856.213,-267 867.946,-267 879.679,-267"/>
</g>
<!-- issachar -->
<g id="node8" class="node"><title>issachar</title>
<g id="a_node8"><a xlink:href="issachar.html" xlink:title="Issachar" target="_top">
<ellipse fill="none" stroke="blue" cx="1073.5" cy="-18" rx="39.7935" ry="18"/>
<text text-anchor="middle" x="1073.5" y="-14.3" font-family="Times,serif" font-size="14.00">Issachar</text>
</a>
</g>
</g>
<!-- jacob&#45;&gt;asher -->
<g id="edge4" class="edge"><title>jacob&#45;&gt;asher</title>
<path fill="none" stroke="black" d="M830.988,-148.713C694.95,-147.286 149.249,-139.956 124.496,-114 106.092,-94.7018 109.359,-75.9541 124.496,-54 136.008,-37.304 156.616,-28.5662 175.414,-23.996"/>
<polygon fill="black" stroke="black" points="176.246,-27.3978 185.311,-21.9138 174.805,-20.5478 176.246,-27.3978"/>
<text text-anchor="middle" x="153.496" y="-87.8" font-family="Times,serif" font-size="14.00">1 Ch 2:2</text>
<text text-anchor="middle" x="153.496" y="-72.8" font-family="Times,serif" font-size="14.00">Gen 30:12</text>
</g>
<!-- jacob&#45;&gt;benjamin -->
<g id="edge5" class="edge"><title>jacob&#45;&gt;benjamin</title>
<path fill="none" stroke="black" d="M830.867,-148.736C687.648,-147.368 89.7289,-140.105 60.496,-114 41.8728,-97.3696 39.8878,-67.7549 41.4578,-45.9983"/>
<polygon fill="black" stroke="black" points="44.941,-46.3399 42.4568,-36.0404 37.976,-45.641 44.941,-46.3399"/>
<text text-anchor="middle" x="84.496" y="-80.3" font-family="Times,serif" font-size="14.00">1 Ch 2:2</text>
</g>
<!-- jacob&#45;&gt;bilhah -->
<g id="edge31" class="edge"><title>jacob&#45;&gt;bilhah</title>
<path fill="none" stroke="red" d="M874.08,-166.477C886.044,-180.665 905.45,-200.136 927.496,-208.5 1040.11,-251.224 1349.35,-216.927 1469.5,-208.5 1613.03,-198.433 1782.44,-169.012 1852.11,-156.144"/>
</g>
<!-- jacob&#45;&gt;dan -->
<g id="edge6" class="edge"><title>jacob&#45;&gt;dan</title>
<path fill="none" stroke="black" d="M886.979,-139.805C896.708,-136.719 907.988,-133.646 918.496,-132 965.928,-124.572 1742.83,-141.046 1782.5,-114 1806.36,-97.7259 1787.4,-74.7501 1807.5,-54 1818.95,-42.1738 1835.14,-33.9929 1849.73,-28.5328"/>
<polygon fill="black" stroke="black" points="1851.17,-31.7382 1859.49,-25.176 1848.89,-25.1187 1851.17,-31.7382"/>
<text text-anchor="middle" x="1833" y="-87.8" font-family="Times,serif" font-size="14.00">1 Ch 2:2</text>
<text text-anchor="middle" x="1833" y="-72.8" font-family="Times,serif" font-size="14.00">Gen 30:5</text>
</g>
<!-- jacob&#45;&gt;dinah -->
<g id="edge7" class="edge"><title>jacob&#45;&gt;dinah</title>
<path fill="none" stroke="black" d="M830.965,-147.487C785.32,-144.515 702.691,-136.145 684.496,-114 667.567,-93.3959 670.289,-76.5671 684.496,-54 692.014,-42.0574 704.865,-34.0988 717.708,-28.8362"/>
<polygon fill="black" stroke="black" points="719.226,-32.009 727.44,-25.3161 716.845,-25.4264 719.226,-32.009"/>
<text text-anchor="middle" x="713.496" y="-80.3" font-family="Times,serif" font-size="14.00">Gen 30:21</text>
</g>
<!-- jacob&#45;&gt;gad -->
<g id="edge8" class="edge"><title>jacob&#45;&gt;gad</title>
<path fill="none" stroke="black" d="M830.683,-148.54C702.929,-146.485 220.509,-137.206 198.496,-114 180.144,-94.6532 182.403,-75.2636 198.496,-54 199.9,-52.1454 251.843,-37.9209 288.048,-28.1867"/>
<polygon fill="black" stroke="black" points="289.036,-31.5456 297.788,-25.5742 287.222,-24.7846 289.036,-31.5456"/>
<text text-anchor="middle" x="227.496" y="-87.8" font-family="Times,serif" font-size="14.00">1 Ch 2:2</text>
<text text-anchor="middle" x="227.496" y="-72.8" font-family="Times,serif" font-size="14.00">Gen 30:10</text>
</g>
<!-- jacob&#45;&gt;issachar -->
<g id="edge9" class="edge"><title>jacob&#45;&gt;issachar</title>
<path fill="none" stroke="black" d="M888.13,-140.892C897.69,-138.026 908.561,-134.816 918.496,-132 948.161,-123.593 963.217,-135.315 985.496,-114 1005.71,-94.6631 986.39,-75.3213 1004.5,-54 1011.95,-45.2204 1022.15,-38.3955 1032.43,-33.2008"/>
<polygon fill="black" stroke="black" points="1034.19,-36.2435 1041.8,-28.8793 1031.26,-29.8861 1034.19,-36.2435"/>
<text text-anchor="middle" x="1033.5" y="-87.8" font-family="Times,serif" font-size="14.00">1 Ch 2:1</text>
<text text-anchor="middle" x="1033.5" y="-72.8" font-family="Times,serif" font-size="14.00">Gen 30:17</text>
</g>
<!-- joseph -->
<g id="node10" class="node"><title>joseph</title>
<g id="a_node10"><a xlink:href="joseph.html" xlink:title="Joseph" target="_top">
<ellipse fill="none" stroke="blue" cx="1563.5" cy="-18" rx="34.394" ry="18"/>
<text text-anchor="middle" x="1563.5" y="-14.3" font-family="Times,serif" font-size="14.00">Joseph</text>
</a>
</g>
</g>
<!-- jacob&#45;&gt;joseph -->
<g id="edge10" class="edge"><title>jacob&#45;&gt;joseph</title>
<path fill="none" stroke="black" d="M886.99,-139.873C896.72,-136.795 907.998,-133.709 918.496,-132 948.506,-127.115 1440.48,-131.28 1465.5,-114 1489.27,-97.5822 1470.61,-74.9545 1490.5,-54 1499.81,-44.1859 1512.44,-36.8036 1524.58,-31.412"/>
<polygon fill="black" stroke="black" points="1526.2,-34.5299 1534.13,-27.5063 1523.55,-28.0503 1526.2,-34.5299"/>
<text text-anchor="middle" x="1519.5" y="-87.8" font-family="Times,serif" font-size="14.00">1 Ch 2:2</text>
<text text-anchor="middle" x="1519.5" y="-72.8" font-family="Times,serif" font-size="14.00">Gen 30:23</text>
</g>
<!-- judah -->
<g id="node11" class="node"><title>judah</title>
<g id="a_node11"><a xlink:href="judah.html" xlink:title="Judah" target="_top">
<ellipse fill="none" stroke="blue" cx="914.496" cy="-18" rx="31.3957" ry="18"/>
<text text-anchor="middle" x="914.496" y="-14.3" font-family="Times,serif" font-size="14.00">Judah</text>
</a>
</g>
</g>
<!-- jacob&#45;&gt;judah -->
<g id="edge11" class="edge"><title>jacob&#45;&gt;judah</title>
<path fill="none" stroke="black" d="M852.716,-132.597C843.315,-112.574 831.627,-78.3756 846.496,-54 853.316,-42.8198 864.975,-35.0591 876.731,-29.7427"/>
<polygon fill="black" stroke="black" points="878.115,-32.9588 886.09,-25.9844 875.506,-26.463 878.115,-32.9588"/>
<text text-anchor="middle" x="875.496" y="-102.8" font-family="Times,serif" font-size="14.00">1 Ch 2:1</text>
<text text-anchor="middle" x="875.496" y="-87.8" font-family="Times,serif" font-size="14.00">Gen 29:35</text>
<text text-anchor="middle" x="875.496" y="-72.8" font-family="Times,serif" font-size="14.00">Luk 3:34</text>
<text text-anchor="middle" x="875.496" y="-57.8" font-family="Times,serif" font-size="14.00">Mat 1:2</text>
</g>
<!-- leah -->
<g id="node12" class="node"><title>leah</title>
<g id="a_node12"><a xlink:href="leah.html" xlink:title="Leah" target="_top">
<ellipse fill="none" stroke="red" cx="1057.5" cy="-150" rx="28.6953" ry="18"/>
<text text-anchor="middle" x="1057.5" y="-146.3" font-family="Times,serif" font-size="14.00">Leah</text>
</a>
</g>
</g>
<!-- jacob&#45;&gt;leah -->
<g id="edge29" class="edge"><title>jacob&#45;&gt;leah</title>
<path fill="none" stroke="red" d="M874.08,-166.477C886.044,-180.665 905.45,-200.136 927.496,-208.5 955.753,-219.22 967.409,-219.659 995.496,-208.5 1016.54,-200.14 1034.57,-180.877 1045.68,-166.73"/>
</g>
<!-- levi -->
<g id="node13" class="node"><title>levi</title>
<g id="a_node13"><a xlink:href="levi.html" xlink:title="Levi" target="_top">
<ellipse fill="none" stroke="blue" cx="600.496" cy="-18" rx="27" ry="18"/>
<text text-anchor="middle" x="600.496" y="-14.3" font-family="Times,serif" font-size="14.00">Levi</text>
</a>
</g>
</g>
<!-- jacob&#45;&gt;levi -->
<g id="edge12" class="edge"><title>jacob&#45;&gt;levi</title>
<path fill="none" stroke="black" d="M830.958,-148.134C751.489,-145.566 542.98,-136.708 522.496,-114 504.634,-94.1992 508.005,-76.3856 522.496,-54 531.825,-39.5886 548.647,-31.055 564.286,-26.0297"/>
<polygon fill="black" stroke="black" points="565.626,-29.2885 574.302,-23.2075 563.727,-22.5509 565.626,-29.2885"/>
<text text-anchor="middle" x="551.496" y="-87.8" font-family="Times,serif" font-size="14.00">1 Ch 2:1</text>
<text text-anchor="middle" x="551.496" y="-72.8" font-family="Times,serif" font-size="14.00">Gen 29:34</text>
</g>
<!-- jacob&#45;&gt;naphtali -->
<g id="edge13" class="edge"><title>jacob&#45;&gt;naphtali</title>
<path fill="none" stroke="black" d="M886.983,-139.83C896.713,-136.747 907.991,-133.669 918.496,-132 957.464,-125.807 1596.11,-136.533 1628.5,-114 1652.07,-97.5981 1632.82,-74.9214 1652.5,-54 1661.09,-44.8608 1672.56,-37.8626 1683.9,-32.6157"/>
<polygon fill="black" stroke="black" points="1685.49,-35.7429 1693.32,-28.6116 1682.75,-29.3002 1685.49,-35.7429"/>
<text text-anchor="middle" x="1678" y="-87.8" font-family="Times,serif" font-size="14.00">1 Ch 2:2</text>
<text text-anchor="middle" x="1678" y="-72.8" font-family="Times,serif" font-size="14.00">Gen 30:7</text>
</g>
<!-- rachel -->
<g id="node15" class="node"><title>rachel</title>
<g id="a_node15"><a xlink:href="rachel.html" xlink:title="Rachel" target="_top">
<ellipse fill="none" stroke="red" cx="1434.5" cy="-150" rx="35.194" ry="18"/>
<text text-anchor="middle" x="1434.5" y="-146.3" font-family="Times,serif" font-size="14.00">Rachel</text>
</a>
</g>
</g>
<!-- jacob&#45;&gt;rachel -->
<g id="edge30" class="edge"><title>jacob&#45;&gt;rachel</title>
<path fill="none" stroke="red" d="M874.08,-166.477C886.044,-180.665 905.45,-200.136 927.496,-208.5 1101.05,-274.346 1330.09,-193.242 1407.57,-161.607"/>
</g>
<!-- reuben -->
<g id="node17" class="node"><title>reuben</title>
<g id="a_node17"><a xlink:href="reuben.html" xlink:title="Reuben" target="_top">
<ellipse fill="none" stroke="blue" cx="1402.5" cy="-18" rx="37.8943" ry="18"/>
<text text-anchor="middle" x="1402.5" y="-14.3" font-family="Times,serif" font-size="14.00">Reuben</text>
</a>
</g>
</g>
<!-- jacob&#45;&gt;reuben -->
<g id="edge14" class="edge"><title>jacob&#45;&gt;reuben</title>
<path fill="none" stroke="black" d="M887.003,-139.95C896.735,-136.881 908.01,-133.781 918.496,-132 960.716,-124.827 1268.43,-138.581 1303.5,-114 1327.15,-97.4183 1308.55,-74.9019 1328.5,-54 1337.55,-44.5071 1349.7,-37.3092 1361.53,-31.9855"/>
<polygon fill="black" stroke="black" points="1362.99,-35.1704 1370.89,-28.1099 1360.31,-28.7033 1362.99,-35.1704"/>
<text text-anchor="middle" x="1357.5" y="-87.8" font-family="Times,serif" font-size="14.00">1 Ch 2:1</text>
<text text-anchor="middle" x="1357.5" y="-72.8" font-family="Times,serif" font-size="14.00">Gen 29:32</text>
</g>
<!-- simeon -->
<g id="node18" class="node"><title>simeon</title>
<g id="a_node18"><a xlink:href="simeon.html" xlink:title="Simeon" target="_top">
<ellipse fill="none" stroke="blue" cx="420.496" cy="-18" rx="38.1938" ry="18"/>
<text text-anchor="middle" x="420.496" y="-14.3" font-family="Times,serif" font-size="14.00">Simeon</text>
</a>
</g>
</g>
<!-- jacob&#45;&gt;simeon -->
<g id="edge15" class="edge"><title>jacob&#45;&gt;simeon</title>
<path fill="none" stroke="black" d="M830.976,-149.226C727.2,-149.677 392.608,-148.433 360.496,-114 342.309,-94.4978 347.214,-77.1238 360.496,-54 365.26,-45.7061 372.831,-39.1919 381.012,-34.1507"/>
<polygon fill="black" stroke="black" points="382.917,-37.0992 390.026,-29.2441 379.57,-30.9511 382.917,-37.0992"/>
<text text-anchor="middle" x="389.496" y="-87.8" font-family="Times,serif" font-size="14.00">1 Ch 2:1</text>
<text text-anchor="middle" x="389.496" y="-72.8" font-family="Times,serif" font-size="14.00">Gen 29:33</text>
</g>
<!-- zebulun -->
<g id="node19" class="node"><title>zebulun</title>
<g id="a_node19"><a xlink:href="zebulun.html" xlink:title="Zebulun" target="_top">
<ellipse fill="none" stroke="blue" cx="1237.5" cy="-18" rx="40.0939" ry="18"/>
<text text-anchor="middle" x="1237.5" y="-14.3" font-family="Times,serif" font-size="14.00">Zebulun</text>
</a>
</g>
</g>
<!-- jacob&#45;&gt;zebulun -->
<g id="edge16" class="edge"><title>jacob&#45;&gt;zebulun</title>
<path fill="none" stroke="black" d="M887.322,-140.058C896.992,-137.039 908.144,-133.945 918.496,-132 966.704,-122.941 1098.23,-142.016 1138.5,-114 1162.65,-97.1926 1145.91,-75.0295 1166.5,-54 1174.82,-45.4927 1185.64,-38.7353 1196.32,-33.5175"/>
<polygon fill="black" stroke="black" points="1197.92,-36.6326 1205.59,-29.3234 1195.04,-30.2543 1197.92,-36.6326"/>
<text text-anchor="middle" x="1195.5" y="-87.8" font-family="Times,serif" font-size="14.00">1 Ch 2:1</text>
<text text-anchor="middle" x="1195.5" y="-72.8" font-family="Times,serif" font-size="14.00">Gen 30:19</text>
</g>
<!-- zilpah -->
<g id="node20" class="node"><title>zilpah</title>
<g id="a_node20"><a xlink:href="zilpah.html" xlink:title="Zilpah" target="_top">
<ellipse fill="none" stroke="red" cx="961.496" cy="-150" rx="33.5952" ry="18"/>
<text text-anchor="middle" x="961.496" y="-146.3" font-family="Times,serif" font-size="14.00">Zilpah</text>
</a>
</g>
</g>
<!-- jacob&#45;&gt;zilpah -->
<g id="edge32" class="edge"><title>jacob&#45;&gt;zilpah</title>
<path fill="none" stroke="red" d="M892.355,-150C904.059,-150 915.762,-150 927.466,-150"/>
</g>
<!-- leah&#45;&gt;dinah -->
<g id="edge17" class="edge"><title>leah&#45;&gt;dinah</title>
<path fill="none" stroke="black" d="M1032.83,-140.57C1023.95,-137.673 1013.82,-134.526 1004.5,-132 968.901,-122.358 950.695,-138.904 923.496,-114 902.866,-95.1102 924.983,-73.0448 904.496,-54 889.348,-39.9182 837.094,-29.9054 799.189,-24.2913"/>
<polygon fill="black" stroke="black" points="799.316,-20.7739 788.922,-22.8247 798.326,-27.7036 799.316,-20.7739"/>
<text text-anchor="middle" x="952.496" y="-80.3" font-family="Times,serif" font-size="14.00">Gen 30:21</text>
</g>
<!-- leah&#45;&gt;issachar -->
<g id="edge18" class="edge"><title>leah&#45;&gt;issachar</title>
<path fill="none" stroke="black" d="M1085.93,-147.403C1129.8,-144.278 1210.82,-135.658 1228.5,-114 1245.36,-93.3396 1245.15,-74.8296 1228.5,-54 1221.64,-45.4218 1163.34,-33.9737 1120.25,-26.5448"/>
<polygon fill="black" stroke="black" points="1120.66,-23.0642 1110.22,-24.8391 1119.49,-29.9652 1120.66,-23.0642"/>
<text text-anchor="middle" x="1270.5" y="-80.3" font-family="Times,serif" font-size="14.00">Gen 30:17</text>
</g>
<!-- leah&#45;&gt;judah -->
<g id="edge19" class="edge"><title>leah&#45;&gt;judah</title>
<path fill="none" stroke="black" d="M1065.35,-132.589C1073.96,-111.926 1084.34,-76.425 1066.5,-54 1059.47,-45.1673 997.103,-32.9914 954.474,-25.5752"/>
<polygon fill="black" stroke="black" points="954.822,-22.0838 944.375,-23.8423 953.639,-28.983 954.822,-22.0838"/>
<text text-anchor="middle" x="1105.5" y="-80.3" font-family="Times,serif" font-size="14.00">Gen 29:35</text>
</g>
<!-- leah&#45;&gt;levi -->
<g id="edge20" class="edge"><title>leah&#45;&gt;levi</title>
<path fill="none" stroke="black" d="M1033.53,-140.017C1024.54,-136.994 1014.17,-133.908 1004.5,-132 954.85,-122.207 820.345,-140.919 777.496,-114 751.355,-97.577 767.218,-72.4909 742.496,-54 712.031,-31.2136 668.584,-23.1108 637.787,-20.309"/>
<polygon fill="black" stroke="black" points="637.7,-16.7924 627.464,-19.5237 637.169,-23.7722 637.7,-16.7924"/>
<text text-anchor="middle" x="806.496" y="-80.3" font-family="Times,serif" font-size="14.00">Gen 29:34</text>
</g>
<!-- leah&#45;&gt;reuben -->
<g id="edge21" class="edge"><title>leah&#45;&gt;reuben</title>
<path fill="none" stroke="black" d="M1086.09,-147.502C1190.36,-141.974 1544.48,-122.598 1552.5,-114 1570.68,-94.4902 1569.07,-74.889 1552.5,-54 1539.75,-37.9438 1488.48,-28.5665 1449.4,-23.6269"/>
<polygon fill="black" stroke="black" points="1449.59,-20.1253 1439.25,-22.4073 1448.76,-27.0753 1449.59,-20.1253"/>
<text text-anchor="middle" x="1595.5" y="-80.3" font-family="Times,serif" font-size="14.00">Gen 29:32</text>
</g>
<!-- leah&#45;&gt;simeon -->
<g id="edge22" class="edge"><title>leah&#45;&gt;simeon</title>
<path fill="none" stroke="black" d="M1033.56,-139.841C1024.58,-136.799 1014.2,-133.746 1004.5,-132 961.475,-124.257 648.301,-137.583 611.496,-114 586.223,-97.8067 604.307,-72.2755 580.496,-54 548.709,-29.6024 503.434,-21.4595 469.153,-19.0688"/>
<polygon fill="black" stroke="black" points="469.073,-15.559 458.894,-18.4999 468.685,-22.5483 469.073,-15.559"/>
<text text-anchor="middle" x="640.496" y="-80.3" font-family="Times,serif" font-size="14.00">Gen 29:33</text>
</g>
<!-- leah&#45;&gt;zebulun -->
<g id="edge23" class="edge"><title>leah&#45;&gt;zebulun</title>
<path fill="none" stroke="black" d="M1086.09,-148.139C1163.08,-145.529 1370.27,-136.464 1390.5,-114 1408.34,-94.1828 1407.12,-74.8529 1390.5,-54 1377.65,-37.8776 1326.53,-28.5859 1286.87,-23.683"/>
<polygon fill="black" stroke="black" points="1287.15,-20.1916 1276.81,-22.5007 1286.33,-27.1438 1287.15,-20.1916"/>
<text text-anchor="middle" x="1432.5" y="-80.3" font-family="Times,serif" font-size="14.00">Gen 30:19</text>
</g>
<!-- rachel&#45;&gt;joseph -->
<g id="edge24" class="edge"><title>rachel&#45;&gt;joseph</title>
<path fill="none" stroke="black" d="M1469.37,-147.063C1539.44,-142.813 1691.99,-131.622 1707.5,-114 1725.11,-93.9808 1723.98,-74.965 1707.5,-54 1695.18,-38.3309 1645.03,-28.8082 1607.35,-23.7315"/>
<polygon fill="black" stroke="black" points="1607.46,-20.2169 1597.09,-22.4161 1606.57,-27.16 1607.46,-20.2169"/>
<text text-anchor="middle" x="1749.5" y="-80.3" font-family="Times,serif" font-size="14.00">Gen 30:23</text>
</g>
<!-- rebekah&#45;&gt;jacob -->
<g id="edge25" class="edge"><title>rebekah&#45;&gt;jacob</title>
<path fill="none" stroke="black" d="M917.33,-248.944C912.779,-232.162 904.498,-206.192 892.496,-186 889.935,-181.691 886.806,-177.425 883.531,-173.431"/>
<polygon fill="black" stroke="black" points="885.967,-170.9 876.742,-165.69 880.704,-175.516 885.967,-170.9"/>
<text text-anchor="middle" x="941.496" y="-204.8" font-family="Times,serif" font-size="14.00">Gen 25:26</text>
</g>
<!-- zilpah&#45;&gt;asher -->
<g id="edge26" class="edge"><title>zilpah&#45;&gt;asher</title>
<path fill="none" stroke="black" d="M933.73,-139.59C923.693,-136.601 912.197,-133.647 901.496,-132 867.767,-126.809 316.38,-132.174 287.496,-114 262.091,-98.0153 275.004,-77.6304 256.496,-54 252.463,-48.8512 247.598,-43.8707 242.669,-39.3599"/>
<polygon fill="black" stroke="black" points="244.834,-36.6042 234.984,-32.7014 240.25,-41.8948 244.834,-36.6042"/>
<text text-anchor="middle" x="316.496" y="-80.3" font-family="Times,serif" font-size="14.00">Gen 30:12</text>
</g>
<!-- zilpah&#45;&gt;gad -->
<g id="edge27" class="edge"><title>zilpah&#45;&gt;gad</title>
<path fill="none" stroke="black" d="M933.72,-139.652C923.682,-136.669 912.188,-133.703 901.496,-132 851.75,-124.079 490.812,-141.328 448.496,-114 423.451,-97.8252 440.745,-73.8461 418.496,-54 415.976,-51.752 382.478,-39.7916 355.752,-30.4704"/>
<polygon fill="black" stroke="black" points="356.877,-27.156 346.282,-27.1786 354.579,-33.768 356.877,-27.156"/>
<text text-anchor="middle" x="477.496" y="-80.3" font-family="Times,serif" font-size="14.00">Gen 30:10</text>
</g>
</g>
</svg>
