<?xml version="1.0" encoding="UTF-8" standalone="no"?>
<!DOCTYPE svg PUBLIC "-//W3C//DTD SVG 1.1//EN"
 "http://www.w3.org/Graphics/SVG/1.1/DTD/svg11.dtd">
<!-- Generated by graphviz version 2.38.0 (20140413.2041)
 -->
<!-- Title: ancestry Pages: 1 -->
<svg width="174pt" height="218pt"
 viewBox="0.00 0.00 174.09 218.00" xmlns="http://www.w3.org/2000/svg" xmlns:xlink="http://www.w3.org/1999/xlink">
<g id="graph0" class="graph" transform="scale(1 1) rotate(0) translate(4 214)">
<title>ancestry</title>
<polygon fill="white" stroke="none" points="-4,4 -4,-214 170.093,-214 170.093,4 -4,4"/>
<!-- jada -->
<g id="node1" class="node"><title>jada</title>
<g id="a_node1"><a xlink:href="jada.html" xlink:title="Jada" target="_top">
<ellipse fill="lightblue" stroke="blue" stroke-width="2" cx="77.8472" cy="-105" rx="27" ry="18"/>
<text text-anchor="middle" x="77.8472" y="-101.3" font-family="Times,serif" font-size="14.00">Jada</text>
</a>
</g>
</g>
<!-- jadas_jether -->
<g id="node2" class="node"><title>jadas_jether</title>
<g id="a_node2"><a xlink:href="jadas_jether.html" xlink:title="Jether" target="_top">
<ellipse fill="none" stroke="blue" cx="31.8472" cy="-18" rx="31.6951" ry="18"/>
<text text-anchor="middle" x="31.8472" y="-14.3" font-family="Times,serif" font-size="14.00">Jether</text>
</a>
</g>
</g>
<!-- jada&#45;&gt;jadas_jether -->
<g id="edge1" class="edge"><title>jada&#45;&gt;jadas_jether</title>
<path fill="none" stroke="black" d="M62.7024,-89.7749C57.0682,-83.8096 51.0337,-76.5169 46.8472,-69 42.8612,-61.8432 39.82,-53.5068 37.5533,-45.7161"/>
<polygon fill="black" stroke="black" points="40.9129,-44.7287 35.0053,-35.9338 34.139,-46.4932 40.9129,-44.7287"/>
<text text-anchor="middle" x="74.3472" y="-57.8" font-family="Times,serif" font-size="14.00">1 Ch 2:32</text>
</g>
<!-- jadas_jonathan -->
<g id="node3" class="node"><title>jadas_jonathan</title>
<g id="a_node3"><a xlink:href="jadas_jonathan.html" xlink:title="Jonathan" target="_top">
<ellipse fill="none" stroke="blue" cx="123.847" cy="-18" rx="42.4939" ry="18"/>
<text text-anchor="middle" x="123.847" y="-14.3" font-family="Times,serif" font-size="14.00">Jonathan</text>
</a>
</g>
</g>
<!-- jada&#45;&gt;jadas_jonathan -->
<g id="edge2" class="edge"><title>jada&#45;&gt;jadas_jonathan</title>
<path fill="none" stroke="black" d="M89.486,-88.3705C93.6407,-82.4571 98.193,-75.5668 101.847,-69 105.997,-61.5417 109.949,-53.1477 113.328,-45.3977"/>
<polygon fill="black" stroke="black" points="116.611,-46.6185 117.274,-36.0444 110.162,-43.8974 116.611,-46.6185"/>
<text text-anchor="middle" x="136.347" y="-57.8" font-family="Times,serif" font-size="14.00">1 Ch 2:32</text>
</g>
<!-- onam -->
<g id="node4" class="node"><title>onam</title>
<g id="a_node4"><a xlink:href="onam.html" xlink:title="Onam" target="_top">
<ellipse fill="none" stroke="blue" cx="77.8472" cy="-192" rx="32.4942" ry="18"/>
<text text-anchor="middle" x="77.8472" y="-188.3" font-family="Times,serif" font-size="14.00">Onam</text>
</a>
</g>
</g>
<!-- onam&#45;&gt;jada -->
<g id="edge3" class="edge"><title>onam&#45;&gt;jada</title>
<path fill="none" stroke="black" d="M77.8472,-173.799C77.8472,-162.163 77.8472,-146.548 77.8472,-133.237"/>
<polygon fill="black" stroke="black" points="81.3473,-133.175 77.8472,-123.175 74.3473,-133.175 81.3473,-133.175"/>
<text text-anchor="middle" x="105.347" y="-144.8" font-family="Times,serif" font-size="14.00">1 Ch 2:28</text>
</g>
</g>
</svg>
