<?xml version="1.0" encoding="UTF-8" standalone="no"?>
<!DOCTYPE svg PUBLIC "-//W3C//DTD SVG 1.1//EN"
 "http://www.w3.org/Graphics/SVG/1.1/DTD/svg11.dtd">
<!-- Generated by graphviz version 2.38.0 (20140413.2041)
 -->
<!-- Title: ancestry Pages: 1 -->
<svg width="157pt" height="218pt"
 viewBox="0.00 0.00 157.50 218.00" xmlns="http://www.w3.org/2000/svg" xmlns:xlink="http://www.w3.org/1999/xlink">
<g id="graph0" class="graph" transform="scale(1 1) rotate(0) translate(4 214)">
<title>ancestry</title>
<polygon fill="white" stroke="none" points="-4,4 -4,-214 153.497,-214 153.497,4 -4,4"/>
<!-- jada -->
<g id="node1" class="node"><title>jada</title>
<g id="a_node1"><a xlink:href="jada.html" xlink:title="Jada" target="_top">
<ellipse fill="none" stroke="blue" cx="71.4971" cy="-192" rx="27" ry="18"/>
<text text-anchor="middle" x="71.4971" y="-188.3" font-family="Times,serif" font-size="14.00">Jada</text>
</a>
</g>
</g>
<!-- jadas_jonathan -->
<g id="node2" class="node"><title>jadas_jonathan</title>
<g id="a_node2"><a xlink:href="jadas_jonathan.html" xlink:title="Jonathan" target="_top">
<ellipse fill="lightblue" stroke="blue" stroke-width="2" cx="71.4971" cy="-105" rx="42.4939" ry="18"/>
<text text-anchor="middle" x="71.4971" y="-101.3" font-family="Times,serif" font-size="14.00">Jonathan</text>
</a>
</g>
</g>
<!-- jada&#45;&gt;jadas_jonathan -->
<g id="edge1" class="edge"><title>jada&#45;&gt;jadas_jonathan</title>
<path fill="none" stroke="black" d="M71.4971,-173.799C71.4971,-162.163 71.4971,-146.548 71.4971,-133.237"/>
<polygon fill="black" stroke="black" points="74.9972,-133.175 71.4971,-123.175 67.9972,-133.175 74.9972,-133.175"/>
<text text-anchor="middle" x="98.9971" y="-144.8" font-family="Times,serif" font-size="14.00">1 Ch 2:32</text>
</g>
<!-- peleth -->
<g id="node3" class="node"><title>peleth</title>
<g id="a_node3"><a xlink:href="peleth.html" xlink:title="Peleth" target="_top">
<ellipse fill="none" stroke="blue" cx="32.4971" cy="-18" rx="32.4942" ry="18"/>
<text text-anchor="middle" x="32.4971" y="-14.3" font-family="Times,serif" font-size="14.00">Peleth</text>
</a>
</g>
</g>
<!-- jadas_jonathan&#45;&gt;peleth -->
<g id="edge2" class="edge"><title>jadas_jonathan&#45;&gt;peleth</title>
<path fill="none" stroke="black" d="M49.6648,-89.2742C43.2614,-83.7352 37.0335,-76.8507 33.4971,-69 30.3101,-61.9249 29.2265,-53.6956 29.1661,-45.9805"/>
<polygon fill="black" stroke="black" points="32.6649,-46.0819 29.6164,-35.9351 25.672,-45.7683 32.6649,-46.0819"/>
<text text-anchor="middle" x="60.9971" y="-57.8" font-family="Times,serif" font-size="14.00">1 Ch 2:33</text>
</g>
<!-- zaca -->
<g id="node4" class="node"><title>zaca</title>
<g id="a_node4"><a xlink:href="zaca.html" xlink:title="Zaca" target="_top">
<ellipse fill="none" stroke="blue" cx="110.497" cy="-18" rx="27.8951" ry="18"/>
<text text-anchor="middle" x="110.497" y="-14.3" font-family="Times,serif" font-size="14.00">Zaca</text>
</a>
</g>
</g>
<!-- jadas_jonathan&#45;&gt;zaca -->
<g id="edge3" class="edge"><title>jadas_jonathan&#45;&gt;zaca</title>
<path fill="none" stroke="black" d="M79.7541,-87.3263C82.5746,-81.5455 85.7174,-75.0082 88.4971,-69 92.0811,-61.2536 95.8642,-52.7741 99.2634,-45.0343"/>
<polygon fill="black" stroke="black" points="102.529,-46.3024 103.32,-35.7372 96.1129,-43.503 102.529,-46.3024"/>
<text text-anchor="middle" x="121.997" y="-57.8" font-family="Times,serif" font-size="14.00">1 Ch 2:33</text>
</g>
</g>
</svg>
