<?xml version="1.0" encoding="UTF-8" standalone="no"?>
<!DOCTYPE svg PUBLIC "-//W3C//DTD SVG 1.1//EN"
 "http://www.w3.org/Graphics/SVG/1.1/DTD/svg11.dtd">
<!-- Generated by graphviz version 2.38.0 (20140413.2041)
 -->
<!-- Title: ancestry Pages: 1 -->
<svg width="514pt" height="218pt"
 viewBox="0.00 0.00 514.44 218.00" xmlns="http://www.w3.org/2000/svg" xmlns:xlink="http://www.w3.org/1999/xlink">
<g id="graph0" class="graph" transform="scale(1 1) rotate(0) translate(4 214)">
<title>ancestry</title>
<polygon fill="white" stroke="none" points="-4,4 -4,-214 510.443,-214 510.443,4 -4,4"/>
<!-- caleb -->
<g id="node1" class="node"><title>caleb</title>
<g id="a_node1"><a xlink:href="caleb.html" xlink:title="Caleb" target="_top">
<ellipse fill="none" stroke="blue" cx="258.047" cy="-192" rx="31.3957" ry="18"/>
<text text-anchor="middle" x="258.047" y="-188.3" font-family="Times,serif" font-size="14.00">Caleb</text>
</a>
</g>
</g>
<!-- jahdai -->
<g id="node3" class="node"><title>jahdai</title>
<g id="a_node3"><a xlink:href="jahdai.html" xlink:title="Jahdai" target="_top">
<ellipse fill="lightgrey" stroke="black" stroke-width="2" cx="258.047" cy="-105" rx="33.2948" ry="18"/>
<text text-anchor="middle" x="258.047" y="-101.3" font-family="Times,serif" font-size="14.00">Jahdai</text>
</a>
</g>
</g>
<!-- caleb&#45;&gt;jahdai -->
<g id="edge7" class="edge"><title>caleb&#45;&gt;jahdai</title>
<path fill="none" stroke="black" stroke-dasharray="1,5" d="M258.047,-173.799C258.047,-162.163 258.047,-146.548 258.047,-133.237"/>
<polygon fill="black" stroke="black" points="261.547,-133.175 258.047,-123.175 254.547,-133.175 261.547,-133.175"/>
<text text-anchor="middle" x="285.547" y="-144.8" font-family="Times,serif" font-size="14.00">1 Ch 2:47</text>
</g>
<!-- geshan -->
<g id="node2" class="node"><title>geshan</title>
<g id="a_node2"><a xlink:href="geshan.html" xlink:title="Geshan" target="_top">
<ellipse fill="none" stroke="blue" cx="37.0467" cy="-18" rx="37.0935" ry="18"/>
<text text-anchor="middle" x="37.0467" y="-14.3" font-family="Times,serif" font-size="14.00">Geshan</text>
</a>
</g>
</g>
<!-- jahdai&#45;&gt;geshan -->
<g id="edge1" class="edge"><title>jahdai&#45;&gt;geshan</title>
<path fill="none" stroke="black" d="M225.099,-102.564C189.65,-99.83 132.519,-91.9092 89.0467,-69 76.6322,-62.4577 65.1235,-52.064 56.1059,-42.4436"/>
<polygon fill="black" stroke="black" points="58.7114,-40.1066 49.4383,-34.9823 53.4919,-44.771 58.7114,-40.1066"/>
<text text-anchor="middle" x="116.547" y="-57.8" font-family="Times,serif" font-size="14.00">1 Ch 2:47</text>
</g>
<!-- jahdais_ephah -->
<g id="node4" class="node"><title>jahdais_ephah</title>
<g id="a_node4"><a xlink:href="jahdais_ephah.html" xlink:title="Ephah" target="_top">
<ellipse fill="none" stroke="blue" cx="125.047" cy="-18" rx="33.2948" ry="18"/>
<text text-anchor="middle" x="125.047" y="-14.3" font-family="Times,serif" font-size="14.00">Ephah</text>
</a>
</g>
</g>
<!-- jahdai&#45;&gt;jahdais_ephah -->
<g id="edge2" class="edge"><title>jahdai&#45;&gt;jahdais_ephah</title>
<path fill="none" stroke="black" d="M227.281,-97.6572C207.26,-92.4157 181.374,-83.4402 162.047,-69 153.093,-62.3103 145.331,-52.8571 139.261,-43.9684"/>
<polygon fill="black" stroke="black" points="142.111,-41.9284 133.774,-35.391 136.215,-45.7009 142.111,-41.9284"/>
<text text-anchor="middle" x="189.547" y="-57.8" font-family="Times,serif" font-size="14.00">1 Ch 2:47</text>
</g>
<!-- jahdais_shaaph -->
<g id="node5" class="node"><title>jahdais_shaaph</title>
<g id="a_node5"><a xlink:href="jahdais_shaaph.html" xlink:title="Shaaph" target="_top">
<ellipse fill="none" stroke="blue" cx="213.047" cy="-18" rx="36.2938" ry="18"/>
<text text-anchor="middle" x="213.047" y="-14.3" font-family="Times,serif" font-size="14.00">Shaaph</text>
</a>
</g>
</g>
<!-- jahdai&#45;&gt;jahdais_shaaph -->
<g id="edge3" class="edge"><title>jahdai&#45;&gt;jahdais_shaaph</title>
<path fill="none" stroke="black" d="M242.19,-89.134C236.734,-83.3032 231.008,-76.2701 227.047,-69 223.251,-62.0344 220.411,-53.9494 218.317,-46.3378"/>
<polygon fill="black" stroke="black" points="221.665,-45.2938 215.906,-36.4011 214.863,-46.9445 221.665,-45.2938"/>
<text text-anchor="middle" x="254.547" y="-57.8" font-family="Times,serif" font-size="14.00">1 Ch 2:47</text>
</g>
<!-- jotham -->
<g id="node6" class="node"><title>jotham</title>
<g id="a_node6"><a xlink:href="jotham.html" xlink:title="Jotham" target="_top">
<ellipse fill="none" stroke="blue" cx="304.047" cy="-18" rx="36.2938" ry="18"/>
<text text-anchor="middle" x="304.047" y="-14.3" font-family="Times,serif" font-size="14.00">Jotham</text>
</a>
</g>
</g>
<!-- jahdai&#45;&gt;jotham -->
<g id="edge4" class="edge"><title>jahdai&#45;&gt;jotham</title>
<path fill="none" stroke="black" d="M269.93,-88.0215C274.018,-82.187 278.464,-75.4381 282.047,-69 286.197,-61.5417 290.148,-53.1477 293.527,-45.3977"/>
<polygon fill="black" stroke="black" points="296.811,-46.6185 297.474,-36.0444 290.362,-43.8974 296.811,-46.6185"/>
<text text-anchor="middle" x="317.547" y="-57.8" font-family="Times,serif" font-size="14.00">1 Ch 2:47</text>
</g>
<!-- pelet -->
<g id="node7" class="node"><title>pelet</title>
<g id="a_node7"><a xlink:href="pelet.html" xlink:title="Pelet" target="_top">
<ellipse fill="none" stroke="blue" cx="387.047" cy="-18" rx="28.6953" ry="18"/>
<text text-anchor="middle" x="387.047" y="-14.3" font-family="Times,serif" font-size="14.00">Pelet</text>
</a>
</g>
</g>
<!-- jahdai&#45;&gt;pelet -->
<g id="edge5" class="edge"><title>jahdai&#45;&gt;pelet</title>
<path fill="none" stroke="black" d="M287.992,-97.0088C306.826,-91.5703 330.909,-82.6192 349.047,-69 358.071,-62.2243 366.009,-52.7546 372.265,-43.8767"/>
<polygon fill="black" stroke="black" points="375.331,-45.5869 377.938,-35.3179 369.496,-41.7197 375.331,-45.5869"/>
<text text-anchor="middle" x="391.547" y="-57.8" font-family="Times,serif" font-size="14.00">1 Ch 2:47</text>
</g>
<!-- regem -->
<g id="node8" class="node"><title>regem</title>
<g id="a_node8"><a xlink:href="regem.html" xlink:title="Regem" target="_top">
<ellipse fill="none" stroke="blue" cx="470.047" cy="-18" rx="36.2938" ry="18"/>
<text text-anchor="middle" x="470.047" y="-14.3" font-family="Times,serif" font-size="14.00">Regem</text>
</a>
</g>
</g>
<!-- jahdai&#45;&gt;regem -->
<g id="edge6" class="edge"><title>jahdai&#45;&gt;regem</title>
<path fill="none" stroke="black" d="M291.084,-102.768C325.932,-100.2 381.452,-92.4126 423.047,-69 434.288,-62.6724 444.429,-52.7523 452.388,-43.4108"/>
<polygon fill="black" stroke="black" points="455.249,-45.4392 458.795,-35.4554 449.797,-41.0488 455.249,-45.4392"/>
<text text-anchor="middle" x="470.547" y="-57.8" font-family="Times,serif" font-size="14.00">1 Ch 2:47</text>
</g>
</g>
</svg>
