<?xml version="1.0" encoding="UTF-8" standalone="no"?>
<!DOCTYPE svg PUBLIC "-//W3C//DTD SVG 1.1//EN"
 "http://www.w3.org/Graphics/SVG/1.1/DTD/svg11.dtd">
<!-- Generated by graphviz version 2.38.0 (20140413.2041)
 -->
<!-- Title: ancestry Pages: 1 -->
<svg width="593pt" height="218pt"
 viewBox="0.00 0.00 592.94 218.00" xmlns="http://www.w3.org/2000/svg" xmlns:xlink="http://www.w3.org/1999/xlink">
<g id="graph0" class="graph" transform="scale(1 1) rotate(0) translate(4 214)">
<title>ancestry</title>
<polygon fill="white" stroke="none" points="-4,4 -4,-214 588.944,-214 588.944,4 -4,4"/>
<!-- gomer -->
<g id="node1" class="node"><title>gomer</title>
<g id="a_node1"><a xlink:href="gomer.html" xlink:title="Gomer" target="_top">
<ellipse fill="none" stroke="blue" cx="35.7468" cy="-18" rx="35.9954" ry="18"/>
<text text-anchor="middle" x="35.7468" y="-14.3" font-family="Times,serif" font-size="14.00">Gomer</text>
</a>
</g>
</g>
<!-- japheth -->
<g id="node2" class="node"><title>japheth</title>
<g id="a_node2"><a xlink:href="japheth.html" xlink:title="Japheth" target="_top">
<ellipse fill="lightblue" stroke="blue" stroke-width="2" cx="289.747" cy="-105" rx="37.8943" ry="18"/>
<text text-anchor="middle" x="289.747" y="-101.3" font-family="Times,serif" font-size="14.00">Japheth</text>
</a>
</g>
</g>
<!-- japheth&#45;&gt;gomer -->
<g id="edge1" class="edge"><title>japheth&#45;&gt;gomer</title>
<path fill="none" stroke="black" d="M252.296,-102.884C211.922,-100.424 146.609,-92.735 95.7468,-69 81.5088,-62.3558 67.8673,-51.4824 57.1993,-41.5697"/>
<polygon fill="black" stroke="black" points="59.6116,-39.0335 49.991,-34.5957 54.7443,-44.0644 59.6116,-39.0335"/>
<text text-anchor="middle" x="121.247" y="-57.8" font-family="Times,serif" font-size="14.00">Gen 10:2</text>
</g>
<!-- javan -->
<g id="node3" class="node"><title>javan</title>
<g id="a_node3"><a xlink:href="javan.html" xlink:title="Javan" target="_top">
<ellipse fill="none" stroke="blue" cx="119.747" cy="-18" rx="30.5947" ry="18"/>
<text text-anchor="middle" x="119.747" y="-14.3" font-family="Times,serif" font-size="14.00">Javan</text>
</a>
</g>
</g>
<!-- japheth&#45;&gt;javan -->
<g id="edge2" class="edge"><title>japheth&#45;&gt;javan</title>
<path fill="none" stroke="black" d="M254.188,-98.6783C228.994,-93.7616 195.123,-84.758 168.747,-69 157.172,-62.0847 146.427,-51.7733 137.967,-42.3078"/>
<polygon fill="black" stroke="black" points="140.584,-39.9825 131.429,-34.6489 135.259,-44.5271 140.584,-39.9825"/>
<text text-anchor="middle" x="194.247" y="-57.8" font-family="Times,serif" font-size="14.00">Gen 10:2</text>
</g>
<!-- madai -->
<g id="node4" class="node"><title>madai</title>
<g id="a_node4"><a xlink:href="madai.html" xlink:title="Madai" target="_top">
<ellipse fill="none" stroke="blue" cx="201.747" cy="-18" rx="33.5952" ry="18"/>
<text text-anchor="middle" x="201.747" y="-14.3" font-family="Times,serif" font-size="14.00">Madai</text>
</a>
</g>
</g>
<!-- japheth&#45;&gt;madai -->
<g id="edge3" class="edge"><title>japheth&#45;&gt;madai</title>
<path fill="none" stroke="black" d="M265.146,-91.3512C255.026,-85.4195 243.623,-77.7298 234.747,-69 227.45,-61.8233 220.886,-52.7758 215.571,-44.3564"/>
<polygon fill="black" stroke="black" points="218.458,-42.3655 210.317,-35.5851 212.453,-45.9624 218.458,-42.3655"/>
<text text-anchor="middle" x="260.247" y="-57.8" font-family="Times,serif" font-size="14.00">Gen 10:2</text>
</g>
<!-- magog -->
<g id="node5" class="node"><title>magog</title>
<g id="a_node5"><a xlink:href="magog.html" xlink:title="Magog" target="_top">
<ellipse fill="none" stroke="blue" cx="289.747" cy="-18" rx="36.2938" ry="18"/>
<text text-anchor="middle" x="289.747" y="-14.3" font-family="Times,serif" font-size="14.00">Magog</text>
</a>
</g>
</g>
<!-- japheth&#45;&gt;magog -->
<g id="edge4" class="edge"><title>japheth&#45;&gt;magog</title>
<path fill="none" stroke="black" d="M289.747,-86.799C289.747,-75.1626 289.747,-59.5479 289.747,-46.2368"/>
<polygon fill="black" stroke="black" points="293.247,-46.1754 289.747,-36.1754 286.247,-46.1755 293.247,-46.1754"/>
<text text-anchor="middle" x="315.247" y="-57.8" font-family="Times,serif" font-size="14.00">Gen 10:2</text>
</g>
<!-- meshech -->
<g id="node6" class="node"><title>meshech</title>
<g id="a_node6"><a xlink:href="meshech.html" xlink:title="Meshech" target="_top">
<ellipse fill="none" stroke="blue" cx="386.747" cy="-18" rx="42.7926" ry="18"/>
<text text-anchor="middle" x="386.747" y="-14.3" font-family="Times,serif" font-size="14.00">Meshech</text>
</a>
</g>
</g>
<!-- japheth&#45;&gt;meshech -->
<g id="edge5" class="edge"><title>japheth&#45;&gt;meshech</title>
<path fill="none" stroke="black" d="M313.598,-91.0018C323.702,-84.9581 335.297,-77.2785 344.747,-69 353.406,-61.414 361.804,-51.979 368.786,-43.3555"/>
<polygon fill="black" stroke="black" points="371.59,-45.4515 375.008,-35.4231 366.082,-41.1313 371.59,-45.4515"/>
<text text-anchor="middle" x="384.247" y="-57.8" font-family="Times,serif" font-size="14.00">Gen 10:2</text>
</g>
<!-- tiras -->
<g id="node8" class="node"><title>tiras</title>
<g id="a_node8"><a xlink:href="tiras.html" xlink:title="Tiras" target="_top">
<ellipse fill="none" stroke="blue" cx="475.747" cy="-18" rx="28.6953" ry="18"/>
<text text-anchor="middle" x="475.747" y="-14.3" font-family="Times,serif" font-size="14.00">Tiras</text>
</a>
</g>
</g>
<!-- japheth&#45;&gt;tiras -->
<g id="edge6" class="edge"><title>japheth&#45;&gt;tiras</title>
<path fill="none" stroke="black" d="M324.557,-98.089C350.214,-92.8186 385.427,-83.6313 413.747,-69 428.18,-61.543 442.424,-50.3999 453.612,-40.5244"/>
<polygon fill="black" stroke="black" points="456.145,-42.9515 461.178,-33.6284 451.429,-37.7781 456.145,-42.9515"/>
<text text-anchor="middle" x="462.247" y="-57.8" font-family="Times,serif" font-size="14.00">Gen 10:2</text>
</g>
<!-- tubai -->
<g id="node9" class="node"><title>tubai</title>
<g id="a_node9"><a xlink:href="tubai.html" xlink:title="Tubai" target="_top">
<ellipse fill="none" stroke="blue" cx="553.747" cy="-18" rx="31.3957" ry="18"/>
<text text-anchor="middle" x="553.747" y="-14.3" font-family="Times,serif" font-size="14.00">Tubai</text>
</a>
</g>
</g>
<!-- japheth&#45;&gt;tubai -->
<g id="edge7" class="edge"><title>japheth&#45;&gt;tubai</title>
<path fill="none" stroke="black" d="M327.513,-103.079C369.382,-100.804 438.085,-93.2937 491.747,-69 506.547,-62.2999 520.82,-51.2189 531.934,-41.1892"/>
<polygon fill="black" stroke="black" points="534.536,-43.5464 539.43,-34.1494 529.744,-38.4438 534.536,-43.5464"/>
<text text-anchor="middle" x="542.247" y="-57.8" font-family="Times,serif" font-size="14.00">Gen 10:2</text>
</g>
<!-- noah -->
<g id="node7" class="node"><title>noah</title>
<g id="a_node7"><a xlink:href="noah.html" xlink:title="Noah" target="_top">
<ellipse fill="none" stroke="blue" cx="289.747" cy="-192" rx="29.795" ry="18"/>
<text text-anchor="middle" x="289.747" y="-188.3" font-family="Times,serif" font-size="14.00">Noah</text>
</a>
</g>
</g>
<!-- noah&#45;&gt;japheth -->
<g id="edge8" class="edge"><title>noah&#45;&gt;japheth</title>
<path fill="none" stroke="black" d="M289.747,-173.799C289.747,-162.163 289.747,-146.548 289.747,-133.237"/>
<polygon fill="black" stroke="black" points="293.247,-133.175 289.747,-123.175 286.247,-133.175 293.247,-133.175"/>
<text text-anchor="middle" x="315.247" y="-144.8" font-family="Times,serif" font-size="14.00">Gen 5:32</text>
</g>
</g>
</svg>
