<?xml version="1.0" encoding="UTF-8" standalone="no"?>
<!DOCTYPE svg PUBLIC "-//W3C//DTD SVG 1.1//EN"
 "http://www.w3.org/Graphics/SVG/1.1/DTD/svg11.dtd">
<!-- Generated by graphviz version 2.38.0 (20140413.2041)
 -->
<!-- Title: ancestry Pages: 1 -->
<svg width="105pt" height="248pt"
 viewBox="0.00 0.00 105.15 248.00" xmlns="http://www.w3.org/2000/svg" xmlns:xlink="http://www.w3.org/1999/xlink">
<g id="graph0" class="graph" transform="scale(1 1) rotate(0) translate(4 244)">
<title>ancestry</title>
<polygon fill="white" stroke="none" points="-4,4 -4,-244 101.146,-244 101.146,4 -4,4"/>
<!-- enoch -->
<g id="node1" class="node"><title>enoch</title>
<g id="a_node1"><a xlink:href="enoch.html" xlink:title="Enoch" target="_top">
<ellipse fill="none" stroke="blue" cx="46.1459" cy="-18" rx="33.2948" ry="18"/>
<text text-anchor="middle" x="46.1459" y="-14.3" font-family="Times,serif" font-size="14.00">Enoch</text>
</a>
</g>
</g>
<!-- jared -->
<g id="node2" class="node"><title>jared</title>
<g id="a_node2"><a xlink:href="jared.html" xlink:title="Jared" target="_top">
<ellipse fill="lightblue" stroke="blue" stroke-width="2" cx="46.1459" cy="-120" rx="29.4969" ry="18"/>
<text text-anchor="middle" x="46.1459" y="-116.3" font-family="Times,serif" font-size="14.00">Jared</text>
</a>
</g>
</g>
<!-- jared&#45;&gt;enoch -->
<g id="edge1" class="edge"><title>jared&#45;&gt;enoch</title>
<path fill="none" stroke="black" d="M46.1459,-101.581C46.1459,-86.3816 46.1459,-64.0669 46.1459,-46.4644"/>
<polygon fill="black" stroke="black" points="49.646,-46.219 46.1459,-36.2191 42.646,-46.2191 49.646,-46.219"/>
<text text-anchor="middle" x="71.6459" y="-72.8" font-family="Times,serif" font-size="14.00">Gen 5:18</text>
<text text-anchor="middle" x="71.6459" y="-57.8" font-family="Times,serif" font-size="14.00">Luk 3:37</text>
</g>
<!-- mahalalel -->
<g id="node3" class="node"><title>mahalalel</title>
<g id="a_node3"><a xlink:href="mahalalel.html" xlink:title="Mahalalel" target="_top">
<ellipse fill="none" stroke="blue" cx="46.1459" cy="-222" rx="46.2923" ry="18"/>
<text text-anchor="middle" x="46.1459" y="-218.3" font-family="Times,serif" font-size="14.00">Mahalalel</text>
</a>
</g>
</g>
<!-- mahalalel&#45;&gt;jared -->
<g id="edge2" class="edge"><title>mahalalel&#45;&gt;jared</title>
<path fill="none" stroke="black" d="M46.1459,-203.581C46.1459,-188.382 46.1459,-166.067 46.1459,-148.464"/>
<polygon fill="black" stroke="black" points="49.646,-148.219 46.1459,-138.219 42.646,-148.219 49.646,-148.219"/>
<text text-anchor="middle" x="71.6459" y="-174.8" font-family="Times,serif" font-size="14.00">Gen 5:15</text>
<text text-anchor="middle" x="71.6459" y="-159.8" font-family="Times,serif" font-size="14.00">Luk 3:37</text>
</g>
</g>
</svg>
