<?xml version="1.0" encoding="UTF-8" standalone="no"?>
<!DOCTYPE svg PUBLIC "-//W3C//DTD SVG 1.1//EN"
 "http://www.w3.org/Graphics/SVG/1.1/DTD/svg11.dtd">
<!-- Generated by graphviz version 2.38.0 (20140413.2041)
 -->
<!-- Title: ancestry Pages: 1 -->
<svg width="180pt" height="218pt"
 viewBox="0.00 0.00 180.25 218.00" xmlns="http://www.w3.org/2000/svg" xmlns:xlink="http://www.w3.org/1999/xlink">
<g id="graph0" class="graph" transform="scale(1 1) rotate(0) translate(4 214)">
<title>ancestry</title>
<polygon fill="white" stroke="none" points="-4,4 -4,-214 176.246,-214 176.246,4 -4,4"/>
<!-- ahlai -->
<g id="node1" class="node"><title>ahlai</title>
<g id="a_node1"><a xlink:href="ahlai.html" xlink:title="Ahlai" target="_top">
<ellipse fill="none" stroke="red" cx="137.246" cy="-105" rx="30.5947" ry="18"/>
<text text-anchor="middle" x="137.246" y="-101.3" font-family="Times,serif" font-size="14.00">Ahlai</text>
</a>
</g>
</g>
<!-- attai -->
<g id="node2" class="node"><title>attai</title>
<g id="a_node2"><a xlink:href="attai.html" xlink:title="Attai" target="_top">
<ellipse fill="none" stroke="blue" cx="91.2463" cy="-18" rx="28.6953" ry="18"/>
<text text-anchor="middle" x="91.2463" y="-14.3" font-family="Times,serif" font-size="14.00">Attai</text>
</a>
</g>
</g>
<!-- ahlai&#45;&gt;attai -->
<g id="edge1" class="edge"><title>ahlai&#45;&gt;attai</title>
<path fill="none" stroke="black" d="M128.377,-87.6111C121.759,-75.3817 112.592,-58.4429 105.022,-44.456"/>
<polygon fill="black" stroke="black" points="107.926,-42.4674 100.088,-35.3385 101.77,-45.7991 107.926,-42.4674"/>
<text text-anchor="middle" x="144.746" y="-57.8" font-family="Times,serif" font-size="14.00">1 Ch 2:35</text>
</g>
<!-- jarha -->
<g id="node3" class="node"><title>jarha</title>
<g id="a_node3"><a xlink:href="jarha.html" xlink:title="Jarha" target="_top">
<ellipse fill="lightblue" stroke="blue" stroke-width="2" cx="42.2463" cy="-105" rx="29.4969" ry="18"/>
<text text-anchor="middle" x="42.2463" y="-101.3" font-family="Times,serif" font-size="14.00">Jarha</text>
</a>
</g>
</g>
<!-- jarha&#45;&gt;ahlai -->
<g id="edge4" class="edge"><title>jarha&#45;&gt;ahlai</title>
<path fill="none" stroke="red" d="M71.5627,-105C83.1941,-105 94.8256,-105 106.457,-105"/>
</g>
<!-- jarha&#45;&gt;attai -->
<g id="edge2" class="edge"><title>jarha&#45;&gt;attai</title>
<path fill="none" stroke="black" d="M43.4339,-86.8669C44.7432,-76.7557 47.4899,-64.0186 53.2463,-54 56.3378,-48.6194 60.5339,-43.5906 65.0117,-39.1166"/>
<polygon fill="black" stroke="black" points="67.6295,-41.4666 72.6681,-32.1466 62.9172,-36.2902 67.6295,-41.4666"/>
<text text-anchor="middle" x="80.7463" y="-57.8" font-family="Times,serif" font-size="14.00">1 Ch 2:35</text>
</g>
<!-- mizraim -->
<g id="node4" class="node"><title>mizraim</title>
<g id="a_node4"><a xlink:href="mizraim.html" xlink:title="Mizraim" target="_top">
<ellipse fill="none" stroke="blue" cx="42.2463" cy="-192" rx="42.4939" ry="18"/>
<text text-anchor="middle" x="42.2463" y="-188.3" font-family="Times,serif" font-size="14.00">Mizraim</text>
</a>
</g>
</g>
<!-- mizraim&#45;&gt;jarha -->
<g id="edge3" class="edge"><title>mizraim&#45;&gt;jarha</title>
<path fill="none" stroke="black" stroke-dasharray="1,5" d="M42.2463,-173.799C42.2463,-162.163 42.2463,-146.548 42.2463,-133.237"/>
<polygon fill="black" stroke="black" points="45.7464,-133.175 42.2463,-123.175 38.7464,-133.175 45.7464,-133.175"/>
<text text-anchor="middle" x="69.7463" y="-144.8" font-family="Times,serif" font-size="14.00">1 Ch 2:34</text>
</g>
</g>
</svg>
