<?xml version="1.0" encoding="UTF-8" standalone="no"?>
<!DOCTYPE svg PUBLIC "-//W3C//DTD SVG 1.1//EN"
 "http://www.w3.org/Graphics/SVG/1.1/DTD/svg11.dtd">
<!-- Generated by graphviz version 2.38.0 (20140413.2041)
 -->
<!-- Title: ancestry Pages: 1 -->
<svg width="374pt" height="218pt"
 viewBox="0.00 0.00 374.14 218.00" xmlns="http://www.w3.org/2000/svg" xmlns:xlink="http://www.w3.org/1999/xlink">
<g id="graph0" class="graph" transform="scale(1 1) rotate(0) translate(4 214)">
<title>ancestry</title>
<polygon fill="white" stroke="none" points="-4,4 -4,-214 370.142,-214 370.142,4 -4,4"/>
<!-- dodanim -->
<g id="node1" class="node"><title>dodanim</title>
<g id="a_node1"><a xlink:href="dodanim.html" xlink:title="Dodanim" target="_top">
<ellipse fill="none" stroke="blue" cx="44.1961" cy="-18" rx="44.393" ry="18"/>
<text text-anchor="middle" x="44.1961" y="-14.3" font-family="Times,serif" font-size="14.00">Dodanim</text>
</a>
</g>
</g>
<!-- elishah -->
<g id="node2" class="node"><title>elishah</title>
<g id="a_node2"><a xlink:href="elishah.html" xlink:title="Elishah" target="_top">
<ellipse fill="none" stroke="blue" cx="143.196" cy="-18" rx="37.0935" ry="18"/>
<text text-anchor="middle" x="143.196" y="-14.3" font-family="Times,serif" font-size="14.00">Elishah</text>
</a>
</g>
</g>
<!-- japheth -->
<g id="node3" class="node"><title>japheth</title>
<g id="a_node3"><a xlink:href="japheth.html" xlink:title="Japheth" target="_top">
<ellipse fill="none" stroke="blue" cx="187.196" cy="-192" rx="37.8943" ry="18"/>
<text text-anchor="middle" x="187.196" y="-188.3" font-family="Times,serif" font-size="14.00">Japheth</text>
</a>
</g>
</g>
<!-- javan -->
<g id="node4" class="node"><title>javan</title>
<g id="a_node4"><a xlink:href="javan.html" xlink:title="Javan" target="_top">
<ellipse fill="lightblue" stroke="blue" stroke-width="2" cx="187.196" cy="-105" rx="30.5947" ry="18"/>
<text text-anchor="middle" x="187.196" y="-101.3" font-family="Times,serif" font-size="14.00">Javan</text>
</a>
</g>
</g>
<!-- japheth&#45;&gt;javan -->
<g id="edge1" class="edge"><title>japheth&#45;&gt;javan</title>
<path fill="none" stroke="black" d="M187.196,-173.799C187.196,-162.163 187.196,-146.548 187.196,-133.237"/>
<polygon fill="black" stroke="black" points="190.696,-133.175 187.196,-123.175 183.696,-133.175 190.696,-133.175"/>
<text text-anchor="middle" x="212.696" y="-144.8" font-family="Times,serif" font-size="14.00">Gen 10:2</text>
</g>
<!-- javan&#45;&gt;dodanim -->
<g id="edge2" class="edge"><title>javan&#45;&gt;dodanim</title>
<path fill="none" stroke="black" d="M160.267,-96.3143C141.945,-90.4052 117.599,-81.1867 98.1961,-69 86.5313,-61.6735 75.1141,-51.6499 65.8048,-42.5004"/>
<polygon fill="black" stroke="black" points="68.0302,-39.7719 58.5216,-35.0988 63.0407,-44.6816 68.0302,-39.7719"/>
<text text-anchor="middle" x="123.696" y="-57.8" font-family="Times,serif" font-size="14.00">Gen 10:4</text>
</g>
<!-- javan&#45;&gt;elishah -->
<g id="edge3" class="edge"><title>javan&#45;&gt;elishah</title>
<path fill="none" stroke="black" d="M173.061,-88.8352C168.154,-82.9721 162.947,-75.9949 159.196,-69 155.363,-61.8514 152.261,-53.63 149.845,-45.9458"/>
<polygon fill="black" stroke="black" points="153.194,-44.9282 147.061,-36.2891 146.468,-46.8673 153.194,-44.9282"/>
<text text-anchor="middle" x="184.696" y="-57.8" font-family="Times,serif" font-size="14.00">Gen 10:4</text>
</g>
<!-- kittim -->
<g id="node5" class="node"><title>kittim</title>
<g id="a_node5"><a xlink:href="kittim.html" xlink:title="Kittim" target="_top">
<ellipse fill="none" stroke="blue" cx="232.196" cy="-18" rx="34.394" ry="18"/>
<text text-anchor="middle" x="232.196" y="-14.3" font-family="Times,serif" font-size="14.00">Kittim</text>
</a>
</g>
</g>
<!-- javan&#45;&gt;kittim -->
<g id="edge4" class="edge"><title>javan&#45;&gt;kittim</title>
<path fill="none" stroke="black" d="M198.541,-87.9658C202.454,-82.126 206.723,-75.388 210.196,-69 214.273,-61.5012 218.202,-53.0951 221.584,-45.3466"/>
<polygon fill="black" stroke="black" points="224.865,-46.5743 225.544,-36.0012 218.42,-43.8428 224.865,-46.5743"/>
<text text-anchor="middle" x="242.696" y="-57.8" font-family="Times,serif" font-size="14.00">Gen 10:4</text>
</g>
<!-- tarshish -->
<g id="node6" class="node"><title>tarshish</title>
<g id="a_node6"><a xlink:href="tarshish.html" xlink:title="Tarshish" target="_top">
<ellipse fill="none" stroke="blue" cx="325.196" cy="-18" rx="40.8928" ry="18"/>
<text text-anchor="middle" x="325.196" y="-14.3" font-family="Times,serif" font-size="14.00">Tarshish</text>
</a>
</g>
</g>
<!-- javan&#45;&gt;tarshish -->
<g id="edge5" class="edge"><title>javan&#45;&gt;tarshish</title>
<path fill="none" stroke="black" d="M213.698,-95.9004C231.114,-89.9171 253.964,-80.7752 272.196,-69 283.653,-61.601 294.86,-51.566 303.995,-42.4276"/>
<polygon fill="black" stroke="black" points="306.705,-44.6606 311.142,-35.0397 301.674,-39.7935 306.705,-44.6606"/>
<text text-anchor="middle" x="316.696" y="-57.8" font-family="Times,serif" font-size="14.00">Gen 10:4</text>
</g>
</g>
</svg>
