<?xml version="1.0" encoding="UTF-8" standalone="no"?>
<!DOCTYPE svg PUBLIC "-//W3C//DTD SVG 1.1//EN"
 "http://www.w3.org/Graphics/SVG/1.1/DTD/svg11.dtd">
<!-- Generated by graphviz version 2.38.0 (20140413.2041)
 -->
<!-- Title: ancestry Pages: 1 -->
<svg width="237pt" height="218pt"
 viewBox="0.00 0.00 237.30 218.00" xmlns="http://www.w3.org/2000/svg" xmlns:xlink="http://www.w3.org/1999/xlink">
<g id="graph0" class="graph" transform="scale(1 1) rotate(0) translate(4 214)">
<title>ancestry</title>
<polygon fill="white" stroke="none" points="-4,4 -4,-214 233.298,-214 233.298,4 -4,4"/>
<!-- eker -->
<g id="node1" class="node"><title>eker</title>
<g id="a_node1"><a xlink:href="eker.html" xlink:title="Eker" target="_top">
<ellipse fill="none" stroke="blue" cx="27.2976" cy="-18" rx="27.0966" ry="18"/>
<text text-anchor="middle" x="27.2976" y="-14.3" font-family="Times,serif" font-size="14.00">Eker</text>
</a>
</g>
</g>
<!-- jerahmeel -->
<g id="node2" class="node"><title>jerahmeel</title>
<g id="a_node2"><a xlink:href="jerahmeel.html" xlink:title="Jerahmeel" target="_top">
<ellipse fill="none" stroke="blue" cx="105.298" cy="-192" rx="46.5926" ry="18"/>
<text text-anchor="middle" x="105.298" y="-188.3" font-family="Times,serif" font-size="14.00">Jerahmeel</text>
</a>
</g>
</g>
<!-- jerahmeels_ram -->
<g id="node3" class="node"><title>jerahmeels_ram</title>
<g id="a_node3"><a xlink:href="jerahmeels_ram.html" xlink:title="Ram" target="_top">
<ellipse fill="lightblue" stroke="blue" stroke-width="2" cx="105.298" cy="-105" rx="27.8951" ry="18"/>
<text text-anchor="middle" x="105.298" y="-101.3" font-family="Times,serif" font-size="14.00">Ram</text>
</a>
</g>
</g>
<!-- jerahmeel&#45;&gt;jerahmeels_ram -->
<g id="edge1" class="edge"><title>jerahmeel&#45;&gt;jerahmeels_ram</title>
<path fill="none" stroke="black" d="M105.298,-173.799C105.298,-162.163 105.298,-146.548 105.298,-133.237"/>
<polygon fill="black" stroke="black" points="108.798,-133.175 105.298,-123.175 101.798,-133.175 108.798,-133.175"/>
<text text-anchor="middle" x="132.798" y="-144.8" font-family="Times,serif" font-size="14.00">1 Ch 2:25</text>
</g>
<!-- jerahmeels_ram&#45;&gt;eker -->
<g id="edge2" class="edge"><title>jerahmeels_ram&#45;&gt;eker</title>
<path fill="none" stroke="black" d="M81.9969,-94.6948C69.9427,-88.8672 55.8031,-80.3023 46.2976,-69 40.7501,-62.4039 36.7277,-54.0186 33.8537,-46.0083"/>
<polygon fill="black" stroke="black" points="37.1206,-44.7279 30.7992,-36.2256 30.4388,-46.8143 37.1206,-44.7279"/>
<text text-anchor="middle" x="73.7976" y="-57.8" font-family="Times,serif" font-size="14.00">1 Ch 2:27</text>
</g>
<!-- maaz -->
<g id="node4" class="node"><title>maaz</title>
<g id="a_node4"><a xlink:href="maaz.html" xlink:title="Maaz" target="_top">
<ellipse fill="none" stroke="blue" cx="105.298" cy="-18" rx="30.5947" ry="18"/>
<text text-anchor="middle" x="105.298" y="-14.3" font-family="Times,serif" font-size="14.00">Maaz</text>
</a>
</g>
</g>
<!-- jerahmeels_ram&#45;&gt;maaz -->
<g id="edge3" class="edge"><title>jerahmeels_ram&#45;&gt;maaz</title>
<path fill="none" stroke="black" d="M105.298,-86.799C105.298,-75.1626 105.298,-59.5479 105.298,-46.2368"/>
<polygon fill="black" stroke="black" points="108.798,-46.1754 105.298,-36.1754 101.798,-46.1755 108.798,-46.1754"/>
<text text-anchor="middle" x="132.798" y="-57.8" font-family="Times,serif" font-size="14.00">1 Ch 2:27</text>
</g>
<!-- rams_jamin -->
<g id="node5" class="node"><title>rams_jamin</title>
<g id="a_node5"><a xlink:href="rams_jamin.html" xlink:title="Jamin" target="_top">
<ellipse fill="none" stroke="blue" cx="186.298" cy="-18" rx="32.4942" ry="18"/>
<text text-anchor="middle" x="186.298" y="-14.3" font-family="Times,serif" font-size="14.00">Jamin</text>
</a>
</g>
</g>
<!-- jerahmeels_ram&#45;&gt;rams_jamin -->
<g id="edge4" class="edge"><title>jerahmeels_ram&#45;&gt;rams_jamin</title>
<path fill="none" stroke="black" d="M128.369,-94.4971C140.356,-88.6116 154.505,-80.0545 164.298,-69 170.199,-62.3381 174.73,-53.8415 178.103,-45.7505"/>
<polygon fill="black" stroke="black" points="181.437,-46.8256 181.656,-36.233 174.879,-44.3773 181.437,-46.8256"/>
<text text-anchor="middle" x="201.798" y="-57.8" font-family="Times,serif" font-size="14.00">1 Ch 2:27</text>
</g>
</g>
</svg>
