<?xml version="1.0" encoding="UTF-8" standalone="no"?>
<!DOCTYPE svg PUBLIC "-//W3C//DTD SVG 1.1//EN"
 "http://www.w3.org/Graphics/SVG/1.1/DTD/svg11.dtd">
<!-- Generated by graphviz version 2.38.0 (20140413.2041)
 -->
<!-- Title: ancestry Pages: 1 -->
<svg width="559pt" height="218pt"
 viewBox="0.00 0.00 559.45 218.00" xmlns="http://www.w3.org/2000/svg" xmlns:xlink="http://www.w3.org/1999/xlink">
<g id="graph0" class="graph" transform="scale(1 1) rotate(0) translate(4 214)">
<title>ancestry</title>
<polygon fill="white" stroke="none" points="-4,4 -4,-214 555.447,-214 555.447,4 -4,4"/>
<!-- ahijah -->
<g id="node1" class="node"><title>ahijah</title>
<g id="a_node1"><a xlink:href="ahijah.html" xlink:title="Ahijah" target="_top">
<ellipse fill="none" stroke="blue" cx="34.4469" cy="-18" rx="34.394" ry="18"/>
<text text-anchor="middle" x="34.4469" y="-14.3" font-family="Times,serif" font-size="14.00">Ahijah</text>
</a>
</g>
</g>
<!-- atarah -->
<g id="node2" class="node"><title>atarah</title>
<g id="a_node2"><a xlink:href="atarah.html" xlink:title="Atarah" target="_top">
<ellipse fill="none" stroke="red" cx="457.447" cy="-105" rx="34.394" ry="18"/>
<text text-anchor="middle" x="457.447" y="-101.3" font-family="Times,serif" font-size="14.00">Atarah</text>
</a>
</g>
</g>
<!-- onam -->
<g id="node7" class="node"><title>onam</title>
<g id="a_node7"><a xlink:href="onam.html" xlink:title="Onam" target="_top">
<ellipse fill="none" stroke="blue" cx="477.447" cy="-18" rx="32.4942" ry="18"/>
<text text-anchor="middle" x="477.447" y="-14.3" font-family="Times,serif" font-size="14.00">Onam</text>
</a>
</g>
</g>
<!-- atarah&#45;&gt;onam -->
<g id="edge1" class="edge"><title>atarah&#45;&gt;onam</title>
<path fill="none" stroke="black" d="M477.634,-90.2345C484.282,-84.5228 490.88,-77.2838 494.447,-69 497.85,-61.0973 496.473,-52.2696 493.364,-44.2569"/>
<polygon fill="black" stroke="black" points="496.404,-42.5015 488.917,-35.0045 490.095,-45.5337 496.404,-42.5015"/>
<text text-anchor="middle" x="523.947" y="-57.8" font-family="Times,serif" font-size="14.00">1 Ch 2:26</text>
</g>
<!-- bunah -->
<g id="node3" class="node"><title>bunah</title>
<g id="a_node3"><a xlink:href="bunah.html" xlink:title="Bunah" target="_top">
<ellipse fill="none" stroke="blue" cx="120.447" cy="-18" rx="33.5952" ry="18"/>
<text text-anchor="middle" x="120.447" y="-14.3" font-family="Times,serif" font-size="14.00">Bunah</text>
</a>
</g>
</g>
<!-- jerahmeel -->
<g id="node4" class="node"><title>jerahmeel</title>
<g id="a_node4"><a xlink:href="jerahmeel.html" xlink:title="Jerahmeel" target="_top">
<ellipse fill="lightblue" stroke="blue" stroke-width="2" cx="282.447" cy="-105" rx="46.5926" ry="18"/>
<text text-anchor="middle" x="282.447" y="-101.3" font-family="Times,serif" font-size="14.00">Jerahmeel</text>
</a>
</g>
</g>
<!-- jerahmeel&#45;&gt;ahijah -->
<g id="edge2" class="edge"><title>jerahmeel&#45;&gt;ahijah</title>
<path fill="none" stroke="black" d="M235.725,-103.934C193.407,-102.054 130.512,-94.608 82.4469,-69 70.6655,-62.7231 60.081,-52.4968 51.8685,-42.9228"/>
<polygon fill="black" stroke="black" points="54.5706,-40.698 45.5537,-35.135 49.1334,-45.1068 54.5706,-40.698"/>
<text text-anchor="middle" x="109.947" y="-57.8" font-family="Times,serif" font-size="14.00">1 Ch 2:25</text>
</g>
<!-- jerahmeel&#45;&gt;atarah -->
<g id="edge9" class="edge"><title>jerahmeel&#45;&gt;atarah</title>
<path fill="none" stroke="red" d="M329.273,-105C360.482,-105 391.691,-105 422.9,-105"/>
</g>
<!-- jerahmeel&#45;&gt;bunah -->
<g id="edge3" class="edge"><title>jerahmeel&#45;&gt;bunah</title>
<path fill="none" stroke="black" d="M237.79,-99.316C211.861,-94.8319 179.646,-86.0757 155.447,-69 146.486,-62.6771 139.05,-53.2941 133.371,-44.3588"/>
<polygon fill="black" stroke="black" points="136.368,-42.5519 128.285,-35.7028 130.333,-46.0978 136.368,-42.5519"/>
<text text-anchor="middle" x="182.947" y="-57.8" font-family="Times,serif" font-size="14.00">1 Ch 2:25</text>
</g>
<!-- jerahmeels_ozem -->
<g id="node5" class="node"><title>jerahmeels_ozem</title>
<g id="a_node5"><a xlink:href="jerahmeels_ozem.html" xlink:title="Ozem" target="_top">
<ellipse fill="none" stroke="blue" cx="204.447" cy="-18" rx="32.4942" ry="18"/>
<text text-anchor="middle" x="204.447" y="-14.3" font-family="Times,serif" font-size="14.00">Ozem</text>
</a>
</g>
</g>
<!-- jerahmeel&#45;&gt;jerahmeels_ozem -->
<g id="edge4" class="edge"><title>jerahmeel&#45;&gt;jerahmeels_ozem</title>
<path fill="none" stroke="black" d="M252.266,-91.1695C242.006,-85.5957 231.189,-78.2059 223.447,-69 217.899,-62.4039 213.877,-54.0186 211.003,-46.0083"/>
<polygon fill="black" stroke="black" points="214.27,-44.7279 207.949,-36.2256 207.588,-46.8143 214.27,-44.7279"/>
<text text-anchor="middle" x="250.947" y="-57.8" font-family="Times,serif" font-size="14.00">1 Ch 2:25</text>
</g>
<!-- jerahmeels_ram -->
<g id="node6" class="node"><title>jerahmeels_ram</title>
<g id="a_node6"><a xlink:href="jerahmeels_ram.html" xlink:title="Ram" target="_top">
<ellipse fill="none" stroke="blue" cx="282.447" cy="-18" rx="27.8951" ry="18"/>
<text text-anchor="middle" x="282.447" y="-14.3" font-family="Times,serif" font-size="14.00">Ram</text>
</a>
</g>
</g>
<!-- jerahmeel&#45;&gt;jerahmeels_ram -->
<g id="edge5" class="edge"><title>jerahmeel&#45;&gt;jerahmeels_ram</title>
<path fill="none" stroke="black" d="M282.447,-86.799C282.447,-75.1626 282.447,-59.5479 282.447,-46.2368"/>
<polygon fill="black" stroke="black" points="285.947,-46.1754 282.447,-36.1754 278.947,-46.1755 285.947,-46.1754"/>
<text text-anchor="middle" x="309.947" y="-57.8" font-family="Times,serif" font-size="14.00">1 Ch 2:25</text>
</g>
<!-- jerahmeel&#45;&gt;onam -->
<g id="edge6" class="edge"><title>jerahmeel&#45;&gt;onam</title>
<path fill="none" stroke="black" d="M323.419,-96.2999C348.467,-90.6852 380.719,-81.8001 407.447,-69 423.579,-61.2743 439.938,-49.8339 452.78,-39.8453"/>
<polygon fill="black" stroke="black" points="455.041,-42.5185 460.674,-33.5448 450.675,-37.0475 455.041,-42.5185"/>
<text text-anchor="middle" x="459.947" y="-57.8" font-family="Times,serif" font-size="14.00">1 Ch 2:26</text>
</g>
<!-- oren -->
<g id="node8" class="node"><title>oren</title>
<g id="a_node8"><a xlink:href="oren.html" xlink:title="Oren" target="_top">
<ellipse fill="none" stroke="blue" cx="360.447" cy="-18" rx="28.6953" ry="18"/>
<text text-anchor="middle" x="360.447" y="-14.3" font-family="Times,serif" font-size="14.00">Oren</text>
</a>
</g>
</g>
<!-- jerahmeel&#45;&gt;oren -->
<g id="edge7" class="edge"><title>jerahmeel&#45;&gt;oren</title>
<path fill="none" stroke="black" d="M310.842,-90.6748C320.555,-85.0511 330.87,-77.7561 338.447,-69 344.271,-62.2702 348.781,-53.7554 352.158,-45.6687"/>
<polygon fill="black" stroke="black" points="355.488,-46.7578 355.728,-36.1657 348.935,-44.2962 355.488,-46.7578"/>
<text text-anchor="middle" x="375.947" y="-57.8" font-family="Times,serif" font-size="14.00">1 Ch 2:25</text>
</g>
<!-- perezs_hezron -->
<g id="node9" class="node"><title>perezs_hezron</title>
<g id="a_node9"><a xlink:href="perezs_hezron.html" xlink:title="Hezron" target="_top">
<ellipse fill="none" stroke="blue" cx="282.447" cy="-192" rx="36.2938" ry="18"/>
<text text-anchor="middle" x="282.447" y="-188.3" font-family="Times,serif" font-size="14.00">Hezron</text>
</a>
</g>
</g>
<!-- perezs_hezron&#45;&gt;jerahmeel -->
<g id="edge8" class="edge"><title>perezs_hezron&#45;&gt;jerahmeel</title>
<path fill="none" stroke="black" d="M282.447,-173.799C282.447,-162.163 282.447,-146.548 282.447,-133.237"/>
<polygon fill="black" stroke="black" points="285.947,-133.175 282.447,-123.175 278.947,-133.175 285.947,-133.175"/>
<text text-anchor="middle" x="306.447" y="-144.8" font-family="Times,serif" font-size="14.00">1 Ch 2:9</text>
</g>
</g>
</svg>
