<?xml version="1.0" encoding="UTF-8" standalone="no"?>
<!DOCTYPE svg PUBLIC "-//W3C//DTD SVG 1.1//EN"
 "http://www.w3.org/Graphics/SVG/1.1/DTD/svg11.dtd">
<!-- Generated by graphviz version 2.38.0 (20140413.2041)
 -->
<!-- Title: ancestry Pages: 1 -->
<svg width="817pt" height="278pt"
 viewBox="0.00 0.00 817.05 278.00" xmlns="http://www.w3.org/2000/svg" xmlns:xlink="http://www.w3.org/1999/xlink">
<g id="graph0" class="graph" transform="scale(1 1) rotate(0) translate(4 274)">
<title>ancestry</title>
<polygon fill="white" stroke="none" points="-4,4 -4,-274 813.047,-274 813.047,4 -4,4"/>
<!-- abigail -->
<g id="node1" class="node"><title>abigail</title>
<g id="a_node1"><a xlink:href="abigail.html" xlink:title="Abigail" target="_top">
<ellipse fill="none" stroke="red" cx="37.0467" cy="-18" rx="37.0935" ry="18"/>
<text text-anchor="middle" x="37.0467" y="-14.3" font-family="Times,serif" font-size="14.00">Abigail</text>
</a>
</g>
</g>
<!-- abinadab -->
<g id="node2" class="node"><title>abinadab</title>
<g id="a_node2"><a xlink:href="abinadab.html" xlink:title="Abinadab" target="_top">
<ellipse fill="none" stroke="blue" cx="137.047" cy="-18" rx="44.6926" ry="18"/>
<text text-anchor="middle" x="137.047" y="-14.3" font-family="Times,serif" font-size="14.00">Abinadab</text>
</a>
</g>
</g>
<!-- david -->
<g id="node3" class="node"><title>david</title>
<g id="a_node3"><a xlink:href="david.html" xlink:title="David" target="_top">
<ellipse fill="none" stroke="blue" cx="232.047" cy="-18" rx="32.4942" ry="18"/>
<text text-anchor="middle" x="232.047" y="-14.3" font-family="Times,serif" font-size="14.00">David</text>
</a>
</g>
</g>
<!-- eliab -->
<g id="node4" class="node"><title>eliab</title>
<g id="a_node4"><a xlink:href="eliab.html" xlink:title="Eliab" target="_top">
<ellipse fill="none" stroke="blue" cx="312.047" cy="-18" rx="29.4969" ry="18"/>
<text text-anchor="middle" x="312.047" y="-14.3" font-family="Times,serif" font-size="14.00">Eliab</text>
</a>
</g>
</g>
<!-- jesse -->
<g id="node5" class="node"><title>jesse</title>
<g id="a_node5"><a xlink:href="jesse.html" xlink:title="Jesse" target="_top">
<ellipse fill="lightblue" stroke="blue" stroke-width="2" cx="401.047" cy="-135" rx="28.6953" ry="18"/>
<text text-anchor="middle" x="401.047" y="-131.3" font-family="Times,serif" font-size="14.00">Jesse</text>
</a>
</g>
</g>
<!-- jesse&#45;&gt;abigail -->
<g id="edge1" class="edge"><title>jesse&#45;&gt;abigail</title>
<path fill="none" stroke="black" d="M372.268,-133.855C304.31,-133.029 136.065,-128.026 89.0467,-99 69.0933,-86.6821 55.3069,-63.5254 46.9684,-45.2833"/>
<polygon fill="black" stroke="black" points="50.1527,-43.828 42.9963,-36.0153 43.7187,-46.5855 50.1527,-43.828"/>
<text text-anchor="middle" x="116.547" y="-72.8" font-family="Times,serif" font-size="14.00">1 Ch 2:16</text>
</g>
<!-- jesse&#45;&gt;abinadab -->
<g id="edge2" class="edge"><title>jesse&#45;&gt;abinadab</title>
<path fill="none" stroke="black" d="M372.48,-132.646C319.716,-129.643 209.571,-120.877 179.047,-99 161.271,-86.2601 150.4,-63.6702 144.185,-45.737"/>
<polygon fill="black" stroke="black" points="147.483,-44.5587 141.122,-36.0862 140.812,-46.6764 147.483,-44.5587"/>
<text text-anchor="middle" x="206.547" y="-72.8" font-family="Times,serif" font-size="14.00">1 Ch 2:13</text>
</g>
<!-- jesse&#45;&gt;david -->
<g id="edge3" class="edge"><title>jesse&#45;&gt;david</title>
<path fill="none" stroke="black" d="M372.188,-134.373C341.027,-133.226 291.74,-126.69 261.047,-99 246.149,-85.5602 238.897,-63.8646 235.37,-46.4555"/>
<polygon fill="black" stroke="black" points="238.765,-45.5442 233.621,-36.2819 231.866,-46.7304 238.765,-45.5442"/>
<text text-anchor="middle" x="288.547" y="-87.8" font-family="Times,serif" font-size="14.00">1 Ch 2:15</text>
<text text-anchor="middle" x="288.547" y="-72.8" font-family="Times,serif" font-size="14.00">Luk 3:32</text>
<text text-anchor="middle" x="288.547" y="-57.8" font-family="Times,serif" font-size="14.00">Mat 1:6</text>
</g>
<!-- jesse&#45;&gt;eliab -->
<g id="edge4" class="edge"><title>jesse&#45;&gt;eliab</title>
<path fill="none" stroke="black" d="M377.434,-124.57C365.439,-118.75 351.451,-110.232 342.047,-99 329.271,-83.7423 321.647,-62.506 317.283,-45.7475"/>
<polygon fill="black" stroke="black" points="320.682,-44.909 314.971,-35.985 313.87,-46.5225 320.682,-44.909"/>
<text text-anchor="middle" x="369.547" y="-72.8" font-family="Times,serif" font-size="14.00">1 Ch 2:13</text>
</g>
<!-- nethanel -->
<g id="node6" class="node"><title>nethanel</title>
<g id="a_node6"><a xlink:href="nethanel.html" xlink:title="Nethanel" target="_top">
<ellipse fill="none" stroke="blue" cx="401.047" cy="-18" rx="42.4939" ry="18"/>
<text text-anchor="middle" x="401.047" y="-14.3" font-family="Times,serif" font-size="14.00">Nethanel</text>
</a>
</g>
</g>
<!-- jesse&#45;&gt;nethanel -->
<g id="edge5" class="edge"><title>jesse&#45;&gt;nethanel</title>
<path fill="none" stroke="black" d="M401.047,-116.534C401.047,-97.9357 401.047,-68.2442 401.047,-46.5014"/>
<polygon fill="black" stroke="black" points="404.547,-46.2536 401.047,-36.2536 397.547,-46.2536 404.547,-46.2536"/>
<text text-anchor="middle" x="428.547" y="-72.8" font-family="Times,serif" font-size="14.00">1 Ch 2:14</text>
</g>
<!-- ozem -->
<g id="node8" class="node"><title>ozem</title>
<g id="a_node8"><a xlink:href="ozem.html" xlink:title="Ozem" target="_top">
<ellipse fill="none" stroke="blue" cx="494.047" cy="-18" rx="32.4942" ry="18"/>
<text text-anchor="middle" x="494.047" y="-14.3" font-family="Times,serif" font-size="14.00">Ozem</text>
</a>
</g>
</g>
<!-- jesse&#45;&gt;ozem -->
<g id="edge6" class="edge"><title>jesse&#45;&gt;ozem</title>
<path fill="none" stroke="black" d="M424.465,-124.404C436.406,-118.537 450.403,-110.027 460.047,-99 473.376,-83.7608 482.072,-62.5236 487.33,-45.76"/>
<polygon fill="black" stroke="black" points="490.739,-46.5737 490.171,-35.994 484.017,-44.6185 490.739,-46.5737"/>
<text text-anchor="middle" x="512.547" y="-72.8" font-family="Times,serif" font-size="14.00">1 Ch 2:15</text>
</g>
<!-- raddai -->
<g id="node9" class="node"><title>raddai</title>
<g id="a_node9"><a xlink:href="raddai.html" xlink:title="Raddai" target="_top">
<ellipse fill="none" stroke="blue" cx="580.047" cy="-18" rx="35.9954" ry="18"/>
<text text-anchor="middle" x="580.047" y="-14.3" font-family="Times,serif" font-size="14.00">Raddai</text>
</a>
</g>
</g>
<!-- jesse&#45;&gt;raddai -->
<g id="edge7" class="edge"><title>jesse&#45;&gt;raddai</title>
<path fill="none" stroke="black" d="M429.834,-134.114C461.291,-132.757 511.53,-126.056 544.047,-99 560.195,-85.5636 569.393,-63.3826 574.442,-45.7804"/>
<polygon fill="black" stroke="black" points="577.844,-46.6039 576.957,-36.0463 571.067,-44.8529 577.844,-46.6039"/>
<text text-anchor="middle" x="599.547" y="-72.8" font-family="Times,serif" font-size="14.00">1 Ch 2:14</text>
</g>
<!-- shimea -->
<g id="node10" class="node"><title>shimea</title>
<g id="a_node10"><a xlink:href="shimea.html" xlink:title="Shimea" target="_top">
<ellipse fill="none" stroke="blue" cx="671.047" cy="-18" rx="37.8943" ry="18"/>
<text text-anchor="middle" x="671.047" y="-14.3" font-family="Times,serif" font-size="14.00">Shimea</text>
</a>
</g>
</g>
<!-- jesse&#45;&gt;shimea -->
<g id="edge8" class="edge"><title>jesse&#45;&gt;shimea</title>
<path fill="none" stroke="black" d="M429.83,-132.872C484.214,-130.224 599.45,-121.993 631.047,-99 648.551,-86.2619 658.853,-63.6719 664.606,-45.7381"/>
<polygon fill="black" stroke="black" points="667.981,-46.6669 667.419,-36.087 661.261,-44.7079 667.981,-46.6669"/>
<text text-anchor="middle" x="689.547" y="-72.8" font-family="Times,serif" font-size="14.00">1 Ch 2:13</text>
</g>
<!-- zeruiah -->
<g id="node11" class="node"><title>zeruiah</title>
<g id="a_node11"><a xlink:href="zeruiah.html" xlink:title="Zeruiah" target="_top">
<ellipse fill="none" stroke="red" cx="765.047" cy="-18" rx="38.1938" ry="18"/>
<text text-anchor="middle" x="765.047" y="-14.3" font-family="Times,serif" font-size="14.00">Zeruiah</text>
</a>
</g>
</g>
<!-- jesse&#45;&gt;zeruiah -->
<g id="edge9" class="edge"><title>jesse&#45;&gt;zeruiah</title>
<path fill="none" stroke="black" d="M429.678,-134.171C499.009,-134.071 673.688,-130.603 721.047,-99 739.625,-86.6025 751.082,-63.616 757.628,-45.4531"/>
<polygon fill="black" stroke="black" points="760.952,-46.5501 760.774,-35.9567 754.307,-44.3488 760.952,-46.5501"/>
<text text-anchor="middle" x="781.547" y="-72.8" font-family="Times,serif" font-size="14.00">1 Ch 2:16</text>
</g>
<!-- obed -->
<g id="node7" class="node"><title>obed</title>
<g id="a_node7"><a xlink:href="obed.html" xlink:title="Obed" target="_top">
<ellipse fill="none" stroke="blue" cx="401.047" cy="-252" rx="29.795" ry="18"/>
<text text-anchor="middle" x="401.047" y="-248.3" font-family="Times,serif" font-size="14.00">Obed</text>
</a>
</g>
</g>
<!-- obed&#45;&gt;jesse -->
<g id="edge10" class="edge"><title>obed&#45;&gt;jesse</title>
<path fill="none" stroke="black" d="M401.047,-233.534C401.047,-214.936 401.047,-185.244 401.047,-163.501"/>
<polygon fill="black" stroke="black" points="404.547,-163.254 401.047,-153.254 397.547,-163.254 404.547,-163.254"/>
<text text-anchor="middle" x="428.547" y="-204.8" font-family="Times,serif" font-size="14.00">1 Ch 2:12</text>
<text text-anchor="middle" x="428.547" y="-189.8" font-family="Times,serif" font-size="14.00">Luk 3:32</text>
<text text-anchor="middle" x="428.547" y="-174.8" font-family="Times,serif" font-size="14.00">Mat 1:5</text>
</g>
</g>
</svg>
