<?xml version="1.0" encoding="UTF-8" standalone="no"?>
<!DOCTYPE svg PUBLIC "-//W3C//DTD SVG 1.1//EN"
 "http://www.w3.org/Graphics/SVG/1.1/DTD/svg11.dtd">
<!-- Generated by graphviz version 2.38.0 (20140413.2041)
 -->
<!-- Title: ancestry Pages: 1 -->
<svg width="174pt" height="131pt"
 viewBox="0.00 0.00 174.45 131.00" xmlns="http://www.w3.org/2000/svg" xmlns:xlink="http://www.w3.org/1999/xlink">
<g id="graph0" class="graph" transform="scale(1 1) rotate(0) translate(4 127)">
<title>ancestry</title>
<polygon fill="white" stroke="none" points="-4,4 -4,-127 170.447,-127 170.447,4 -4,4"/>
<!-- jesus -->
<g id="node1" class="node"><title>jesus</title>
<g id="a_node1"><a xlink:href="jesus.html" xlink:title="Jesus" target="_top">
<ellipse fill="lightblue" stroke="blue" stroke-width="2" cx="77.4469" cy="-18" rx="29.4969" ry="18"/>
<text text-anchor="middle" x="77.4469" y="-14.3" font-family="Times,serif" font-size="14.00">Jesus</text>
</a>
</g>
</g>
<!-- joseph_carpenter -->
<g id="node2" class="node"><title>joseph_carpenter</title>
<g id="a_node2"><a xlink:href="joseph_carpenter.html" xlink:title="Joseph" target="_top">
<ellipse fill="none" stroke="blue" cx="34.4469" cy="-105" rx="34.394" ry="18"/>
<text text-anchor="middle" x="34.4469" y="-101.3" font-family="Times,serif" font-size="14.00">Joseph</text>
</a>
</g>
</g>
<!-- joseph_carpenter&#45;&gt;jesus -->
<g id="edge2" class="edge"><title>joseph_carpenter&#45;&gt;jesus</title>
<path fill="none" stroke="black" stroke-dasharray="5,2" d="M40.778,-87.0196C44.6384,-77.1928 49.8884,-64.6928 55.4469,-54 57.2056,-50.617 59.1817,-47.1308 61.2094,-43.7299"/>
<polygon fill="black" stroke="black" points="64.2916,-45.4006 66.583,-35.0565 58.341,-41.714 64.2916,-45.4006"/>
<text text-anchor="middle" x="80.4469" y="-57.8" font-family="Times,serif" font-size="14.00">Luk 3:23</text>
</g>
<!-- mary -->
<g id="node3" class="node"><title>mary</title>
<g id="a_node3"><a xlink:href="mary.html" xlink:title="Mary" target="_top">
<ellipse fill="none" stroke="red" cx="134.447" cy="-105" rx="30.5947" ry="18"/>
<text text-anchor="middle" x="134.447" y="-101.3" font-family="Times,serif" font-size="14.00">Mary</text>
</a>
</g>
</g>
<!-- joseph_carpenter&#45;&gt;mary -->
<g id="edge3" class="edge"><title>joseph_carpenter&#45;&gt;mary</title>
<path fill="none" stroke="red" d="M69.2126,-105C80.7645,-105 92.3164,-105 103.868,-105"/>
</g>
<!-- mary&#45;&gt;jesus -->
<g id="edge1" class="edge"><title>mary&#45;&gt;jesus</title>
<path fill="none" stroke="black" d="M125.641,-87.4098C120.178,-77.4911 112.815,-64.7657 105.447,-54 102.805,-50.139 99.8588,-46.1609 96.8981,-42.3338"/>
<polygon fill="black" stroke="black" points="99.4704,-39.9454 90.5043,-34.3008 93.9934,-44.3047 99.4704,-39.9454"/>
<text text-anchor="middle" x="140.947" y="-57.8" font-family="Times,serif" font-size="14.00">Mat 1:16</text>
</g>
</g>
</svg>
