<?xml version="1.0" encoding="UTF-8" standalone="no"?>
<!DOCTYPE svg PUBLIC "-//W3C//DTD SVG 1.1//EN"
 "http://www.w3.org/Graphics/SVG/1.1/DTD/svg11.dtd">
<!-- Generated by graphviz version 2.38.0 (20140413.2041)
 -->
<!-- Title: ancestry Pages: 1 -->
<svg width="93pt" height="218pt"
 viewBox="0.00 0.00 93.10 218.00" xmlns="http://www.w3.org/2000/svg" xmlns:xlink="http://www.w3.org/1999/xlink">
<g id="graph0" class="graph" transform="scale(1 1) rotate(0) translate(4 214)">
<title>ancestry</title>
<polygon fill="white" stroke="none" points="-4,4 -4,-214 89.0969,-214 89.0969,4 -4,4"/>
<!-- joanan -->
<g id="node1" class="node"><title>joanan</title>
<g id="a_node1"><a xlink:href="joanan.html" xlink:title="Joanan" target="_top">
<ellipse fill="none" stroke="blue" cx="35.0969" cy="-192" rx="35.194" ry="18"/>
<text text-anchor="middle" x="35.0969" y="-188.3" font-family="Times,serif" font-size="14.00">Joanan</text>
</a>
</g>
</g>
<!-- joda -->
<g id="node2" class="node"><title>joda</title>
<g id="a_node2"><a xlink:href="joda.html" xlink:title="Joda" target="_top">
<ellipse fill="lightblue" stroke="blue" stroke-width="2" cx="35.0969" cy="-105" rx="27" ry="18"/>
<text text-anchor="middle" x="35.0969" y="-101.3" font-family="Times,serif" font-size="14.00">Joda</text>
</a>
</g>
</g>
<!-- joanan&#45;&gt;joda -->
<g id="edge1" class="edge"><title>joanan&#45;&gt;joda</title>
<path fill="none" stroke="black" d="M35.0969,-173.799C35.0969,-162.163 35.0969,-146.548 35.0969,-133.237"/>
<polygon fill="black" stroke="black" points="38.597,-133.175 35.0969,-123.175 31.597,-133.175 38.597,-133.175"/>
<text text-anchor="middle" x="60.0969" y="-144.8" font-family="Times,serif" font-size="14.00">Luk 3:27</text>
</g>
<!-- josech -->
<g id="node3" class="node"><title>josech</title>
<g id="a_node3"><a xlink:href="josech.html" xlink:title="Josech" target="_top">
<ellipse fill="none" stroke="blue" cx="35.0969" cy="-18" rx="34.394" ry="18"/>
<text text-anchor="middle" x="35.0969" y="-14.3" font-family="Times,serif" font-size="14.00">Josech</text>
</a>
</g>
</g>
<!-- joda&#45;&gt;josech -->
<g id="edge2" class="edge"><title>joda&#45;&gt;josech</title>
<path fill="none" stroke="black" d="M35.0969,-86.799C35.0969,-75.1626 35.0969,-59.5479 35.0969,-46.2368"/>
<polygon fill="black" stroke="black" points="38.597,-46.1754 35.0969,-36.1754 31.597,-46.1755 38.597,-46.1754"/>
<text text-anchor="middle" x="60.0969" y="-57.8" font-family="Times,serif" font-size="14.00">Luk 3:26</text>
</g>
</g>
</svg>
