<?xml version="1.0" encoding="UTF-8" standalone="no"?>
<!DOCTYPE svg PUBLIC "-//W3C//DTD SVG 1.1//EN"
 "http://www.w3.org/Graphics/SVG/1.1/DTD/svg11.dtd">
<!-- Generated by graphviz version 2.38.0 (20140413.2041)
 -->
<!-- Title: ancestry Pages: 1 -->
<svg width="316pt" height="218pt"
 viewBox="0.00 0.00 315.64 218.00" xmlns="http://www.w3.org/2000/svg" xmlns:xlink="http://www.w3.org/1999/xlink">
<g id="graph0" class="graph" transform="scale(1 1) rotate(0) translate(4 214)">
<title>ancestry</title>
<polygon fill="white" stroke="none" points="-4,4 -4,-214 311.642,-214 311.642,4 -4,4"/>
<!-- asshurim -->
<g id="node1" class="node"><title>asshurim</title>
<g id="a_node1"><a xlink:href="asshurim.html" xlink:title="Asshurim" target="_top">
<ellipse fill="none" stroke="blue" cx="45.496" cy="-18" rx="45.4919" ry="18"/>
<text text-anchor="middle" x="45.496" y="-14.3" font-family="Times,serif" font-size="14.00">Asshurim</text>
</a>
</g>
</g>
<!-- jokshan -->
<g id="node2" class="node"><title>jokshan</title>
<g id="a_node2"><a xlink:href="jokshan.html" xlink:title="Jokshan" target="_top">
<ellipse fill="none" stroke="blue" cx="153.496" cy="-192" rx="38.9931" ry="18"/>
<text text-anchor="middle" x="153.496" y="-188.3" font-family="Times,serif" font-size="14.00">Jokshan</text>
</a>
</g>
</g>
<!-- jokshans_dedan -->
<g id="node3" class="node"><title>jokshans_dedan</title>
<g id="a_node3"><a xlink:href="jokshans_dedan.html" xlink:title="Dedan" target="_top">
<ellipse fill="lightblue" stroke="blue" stroke-width="2" cx="153.496" cy="-105" rx="33.5952" ry="18"/>
<text text-anchor="middle" x="153.496" y="-101.3" font-family="Times,serif" font-size="14.00">Dedan</text>
</a>
</g>
</g>
<!-- jokshan&#45;&gt;jokshans_dedan -->
<g id="edge1" class="edge"><title>jokshan&#45;&gt;jokshans_dedan</title>
<path fill="none" stroke="black" d="M153.496,-173.799C153.496,-162.163 153.496,-146.548 153.496,-133.237"/>
<polygon fill="black" stroke="black" points="156.996,-133.175 153.496,-123.175 149.996,-133.175 156.996,-133.175"/>
<text text-anchor="middle" x="178.996" y="-144.8" font-family="Times,serif" font-size="14.00">Gen 25:3</text>
</g>
<!-- jokshans_dedan&#45;&gt;asshurim -->
<g id="edge2" class="edge"><title>jokshans_dedan&#45;&gt;asshurim</title>
<path fill="none" stroke="black" d="M131.435,-91.2825C121.12,-85.0076 108.856,-77.0652 98.496,-69 88.0465,-60.8649 77.2803,-51.0219 68.2038,-42.2282"/>
<polygon fill="black" stroke="black" points="70.6,-39.6757 61.021,-35.1488 65.6863,-44.6612 70.6,-39.6757"/>
<text text-anchor="middle" x="123.996" y="-57.8" font-family="Times,serif" font-size="14.00">Gen 25:3</text>
</g>
<!-- letushim -->
<g id="node4" class="node"><title>letushim</title>
<g id="a_node4"><a xlink:href="letushim.html" xlink:title="Letushim" target="_top">
<ellipse fill="none" stroke="blue" cx="153.496" cy="-18" rx="44.393" ry="18"/>
<text text-anchor="middle" x="153.496" y="-14.3" font-family="Times,serif" font-size="14.00">Letushim</text>
</a>
</g>
</g>
<!-- jokshans_dedan&#45;&gt;letushim -->
<g id="edge3" class="edge"><title>jokshans_dedan&#45;&gt;letushim</title>
<path fill="none" stroke="black" d="M153.496,-86.799C153.496,-75.1626 153.496,-59.5479 153.496,-46.2368"/>
<polygon fill="black" stroke="black" points="156.996,-46.1754 153.496,-36.1754 149.996,-46.1755 156.996,-46.1754"/>
<text text-anchor="middle" x="178.996" y="-57.8" font-family="Times,serif" font-size="14.00">Gen 25:3</text>
</g>
<!-- leummin -->
<g id="node5" class="node"><title>leummin</title>
<g id="a_node5"><a xlink:href="leummin.html" xlink:title="Leummin" target="_top">
<ellipse fill="none" stroke="blue" cx="261.496" cy="-18" rx="46.2923" ry="18"/>
<text text-anchor="middle" x="261.496" y="-14.3" font-family="Times,serif" font-size="14.00">Leummin</text>
</a>
</g>
</g>
<!-- jokshans_dedan&#45;&gt;leummin -->
<g id="edge4" class="edge"><title>jokshans_dedan&#45;&gt;leummin</title>
<path fill="none" stroke="black" d="M175.557,-91.2825C185.872,-85.0076 198.136,-77.0652 208.496,-69 218.945,-60.8649 229.712,-51.0219 238.788,-42.2282"/>
<polygon fill="black" stroke="black" points="241.306,-44.6612 245.971,-35.1488 236.392,-39.6757 241.306,-44.6612"/>
<text text-anchor="middle" x="250.996" y="-57.8" font-family="Times,serif" font-size="14.00">Gen 25:3</text>
</g>
</g>
</svg>
