<?xml version="1.0" encoding="UTF-8" standalone="no"?>
<!DOCTYPE svg PUBLIC "-//W3C//DTD SVG 1.1//EN"
 "http://www.w3.org/Graphics/SVG/1.1/DTD/svg11.dtd">
<!-- Generated by graphviz version 2.38.0 (20140413.2041)
 -->
<!-- Title: ancestry Pages: 1 -->
<svg width="307pt" height="218pt"
 viewBox="0.00 0.00 306.94 218.00" xmlns="http://www.w3.org/2000/svg" xmlns:xlink="http://www.w3.org/1999/xlink">
<g id="graph0" class="graph" transform="scale(1 1) rotate(0) translate(4 214)">
<title>ancestry</title>
<polygon fill="white" stroke="none" points="-4,4 -4,-214 302.938,-214 302.938,4 -4,4"/>
<!-- abram -->
<g id="node1" class="node"><title>abram</title>
<g id="a_node1"><a xlink:href="abram.html" xlink:title="Abraham (was Abram)" target="_top">
<ellipse fill="none" stroke="blue" cx="92.9418" cy="-192" rx="92.8835" ry="18"/>
<text text-anchor="middle" x="92.9418" y="-188.3" font-family="Times,serif" font-size="14.00">Abraham (was Abram)</text>
</a>
</g>
</g>
<!-- jokshan -->
<g id="node2" class="node"><title>jokshan</title>
<g id="a_node2"><a xlink:href="jokshan.html" xlink:title="Jokshan" target="_top">
<ellipse fill="lightblue" stroke="blue" stroke-width="2" cx="175.942" cy="-105" rx="38.9931" ry="18"/>
<text text-anchor="middle" x="175.942" y="-101.3" font-family="Times,serif" font-size="14.00">Jokshan</text>
</a>
</g>
</g>
<!-- abram&#45;&gt;jokshan -->
<g id="edge1" class="edge"><title>abram&#45;&gt;jokshan</title>
<path fill="none" stroke="black" d="M109.34,-174.207C121.936,-161.307 139.475,-143.346 153.392,-129.093"/>
<polygon fill="black" stroke="black" points="156.215,-131.212 160.697,-121.612 151.207,-126.321 156.215,-131.212"/>
<text text-anchor="middle" x="165.442" y="-144.8" font-family="Times,serif" font-size="14.00">Gen 25:2</text>
</g>
<!-- keturah -->
<g id="node4" class="node"><title>keturah</title>
<g id="a_node4"><a xlink:href="keturah.html" xlink:title="Keturah" target="_top">
<ellipse fill="none" stroke="red" cx="259.942" cy="-192" rx="38.9931" ry="18"/>
<text text-anchor="middle" x="259.942" y="-188.3" font-family="Times,serif" font-size="14.00">Keturah</text>
</a>
</g>
</g>
<!-- abram&#45;&gt;keturah -->
<g id="edge5" class="edge"><title>abram&#45;&gt;keturah</title>
<path fill="none" stroke="red" d="M185.901,-192C197.566,-192 209.231,-192 220.897,-192"/>
</g>
<!-- jokshans_dedan -->
<g id="node3" class="node"><title>jokshans_dedan</title>
<g id="a_node3"><a xlink:href="jokshans_dedan.html" xlink:title="Dedan" target="_top">
<ellipse fill="none" stroke="blue" cx="133.942" cy="-18" rx="33.5952" ry="18"/>
<text text-anchor="middle" x="133.942" y="-14.3" font-family="Times,serif" font-size="14.00">Dedan</text>
</a>
</g>
</g>
<!-- jokshan&#45;&gt;jokshans_dedan -->
<g id="edge2" class="edge"><title>jokshan&#45;&gt;jokshans_dedan</title>
<path fill="none" stroke="black" d="M159.215,-88.5621C153.938,-82.8804 148.549,-76.0897 144.942,-69 141.395,-62.0291 138.986,-53.9424 137.353,-46.3309"/>
<polygon fill="black" stroke="black" points="140.782,-45.6209 135.572,-36.3953 133.891,-46.856 140.782,-45.6209"/>
<text text-anchor="middle" x="170.442" y="-57.8" font-family="Times,serif" font-size="14.00">Gen 25:3</text>
</g>
<!-- sheba -->
<g id="node5" class="node"><title>sheba</title>
<g id="a_node5"><a xlink:href="sheba.html" xlink:title="Sheba" target="_top">
<ellipse fill="none" stroke="blue" cx="217.942" cy="-18" rx="32.4942" ry="18"/>
<text text-anchor="middle" x="217.942" y="-14.3" font-family="Times,serif" font-size="14.00">Sheba</text>
</a>
</g>
</g>
<!-- jokshan&#45;&gt;sheba -->
<g id="edge3" class="edge"><title>jokshan&#45;&gt;sheba</title>
<path fill="none" stroke="black" d="M185.866,-87.4593C189.201,-81.6892 192.855,-75.1247 195.942,-69 199.783,-61.378 203.643,-52.9354 207.033,-45.1912"/>
<polygon fill="black" stroke="black" points="210.306,-46.4393 211.039,-35.8698 203.875,-43.675 210.306,-46.4393"/>
<text text-anchor="middle" x="229.442" y="-57.8" font-family="Times,serif" font-size="14.00">Gen 25:3</text>
</g>
<!-- keturah&#45;&gt;jokshan -->
<g id="edge4" class="edge"><title>keturah&#45;&gt;jokshan</title>
<path fill="none" stroke="black" d="M244.535,-175.41C231.709,-162.431 213.262,-143.765 198.729,-129.058"/>
<polygon fill="black" stroke="black" points="201.054,-126.432 191.535,-121.779 196.075,-131.352 201.054,-126.432"/>
<text text-anchor="middle" x="249.442" y="-144.8" font-family="Times,serif" font-size="14.00">Gen 25:2</text>
</g>
</g>
</svg>
