<?xml version="1.0" encoding="UTF-8" standalone="no"?>
<!DOCTYPE svg PUBLIC "-//W3C//DTD SVG 1.1//EN"
 "http://www.w3.org/Graphics/SVG/1.1/DTD/svg11.dtd">
<!-- Generated by graphviz version 2.38.0 (20140413.2041)
 -->
<!-- Title: ancestry Pages: 1 -->
<svg width="1185pt" height="218pt"
 viewBox="0.00 0.00 1184.60 218.00" xmlns="http://www.w3.org/2000/svg" xmlns:xlink="http://www.w3.org/1999/xlink">
<g id="graph0" class="graph" transform="scale(1 1) rotate(0) translate(4 214)">
<title>ancestry</title>
<polygon fill="white" stroke="none" points="-4,4 -4,-214 1180.6,-214 1180.6,4 -4,4"/>
<!-- abimael -->
<g id="node1" class="node"><title>abimael</title>
<g id="a_node1"><a xlink:href="abimael.html" xlink:title="Abimael" target="_top">
<ellipse fill="none" stroke="blue" cx="41.5963" cy="-18" rx="41.6928" ry="18"/>
<text text-anchor="middle" x="41.5963" y="-14.3" font-family="Times,serif" font-size="14.00">Abimael</text>
</a>
</g>
</g>
<!-- almodad -->
<g id="node2" class="node"><title>almodad</title>
<g id="a_node2"><a xlink:href="almodad.html" xlink:title="Almodad" target="_top">
<ellipse fill="none" stroke="blue" cx="145.596" cy="-18" rx="44.393" ry="18"/>
<text text-anchor="middle" x="145.596" y="-14.3" font-family="Times,serif" font-size="14.00">Almodad</text>
</a>
</g>
</g>
<!-- diklah -->
<g id="node3" class="node"><title>diklah</title>
<g id="a_node3"><a xlink:href="diklah.html" xlink:title="Diklah" target="_top">
<ellipse fill="none" stroke="blue" cx="242.596" cy="-18" rx="34.394" ry="18"/>
<text text-anchor="middle" x="242.596" y="-14.3" font-family="Times,serif" font-size="14.00">Diklah</text>
</a>
</g>
</g>
<!-- eber -->
<g id="node4" class="node"><title>eber</title>
<g id="a_node4"><a xlink:href="eber.html" xlink:title="Eber" target="_top">
<ellipse fill="none" stroke="blue" cx="645.596" cy="-192" rx="27.0966" ry="18"/>
<text text-anchor="middle" x="645.596" y="-188.3" font-family="Times,serif" font-size="14.00">Eber</text>
</a>
</g>
</g>
<!-- joktan -->
<g id="node9" class="node"><title>joktan</title>
<g id="a_node9"><a xlink:href="joktan.html" xlink:title="Joktan" target="_top">
<ellipse fill="lightblue" stroke="blue" stroke-width="2" cx="645.596" cy="-105" rx="33.5952" ry="18"/>
<text text-anchor="middle" x="645.596" y="-101.3" font-family="Times,serif" font-size="14.00">Joktan</text>
</a>
</g>
</g>
<!-- eber&#45;&gt;joktan -->
<g id="edge1" class="edge"><title>eber&#45;&gt;joktan</title>
<path fill="none" stroke="black" d="M645.596,-173.799C645.596,-162.163 645.596,-146.548 645.596,-133.237"/>
<polygon fill="black" stroke="black" points="649.096,-133.175 645.596,-123.175 642.096,-133.175 649.096,-133.175"/>
<text text-anchor="middle" x="674.596" y="-144.8" font-family="Times,serif" font-size="14.00">Gen 10:25</text>
</g>
<!-- hadoram -->
<g id="node5" class="node"><title>hadoram</title>
<g id="a_node5"><a xlink:href="hadoram.html" xlink:title="Hadoram" target="_top">
<ellipse fill="none" stroke="blue" cx="339.596" cy="-18" rx="44.393" ry="18"/>
<text text-anchor="middle" x="339.596" y="-14.3" font-family="Times,serif" font-size="14.00">Hadoram</text>
</a>
</g>
</g>
<!-- hazarmaveth -->
<g id="node6" class="node"><title>hazarmaveth</title>
<g id="a_node6"><a xlink:href="hazarmaveth.html" xlink:title="Hazarmaveth" target="_top">
<ellipse fill="none" stroke="blue" cx="459.596" cy="-18" rx="57.6901" ry="18"/>
<text text-anchor="middle" x="459.596" y="-14.3" font-family="Times,serif" font-size="14.00">Hazarmaveth</text>
</a>
</g>
</g>
<!-- jerah -->
<g id="node7" class="node"><title>jerah</title>
<g id="a_node7"><a xlink:href="jerah.html" xlink:title="Jerah" target="_top">
<ellipse fill="none" stroke="blue" cx="564.596" cy="-18" rx="29.4969" ry="18"/>
<text text-anchor="middle" x="564.596" y="-14.3" font-family="Times,serif" font-size="14.00">Jerah</text>
</a>
</g>
</g>
<!-- jobab -->
<g id="node8" class="node"><title>jobab</title>
<g id="a_node8"><a xlink:href="jobab.html" xlink:title="Jobab" target="_top">
<ellipse fill="none" stroke="blue" cx="642.596" cy="-18" rx="31.3957" ry="18"/>
<text text-anchor="middle" x="642.596" y="-14.3" font-family="Times,serif" font-size="14.00">Jobab</text>
</a>
</g>
</g>
<!-- joktan&#45;&gt;abimael -->
<g id="edge2" class="edge"><title>joktan&#45;&gt;abimael</title>
<path fill="none" stroke="black" d="M611.655,-103.352C513.625,-101.209 231.418,-93.0641 142.596,-69 117.979,-62.3305 92.2439,-49.4889 72.9126,-38.4903"/>
<polygon fill="black" stroke="black" points="74.6418,-35.447 64.2398,-33.4351 71.1168,-41.4947 74.6418,-35.447"/>
<text text-anchor="middle" x="171.596" y="-57.8" font-family="Times,serif" font-size="14.00">Gen 10:28</text>
</g>
<!-- joktan&#45;&gt;almodad -->
<g id="edge3" class="edge"><title>joktan&#45;&gt;almodad</title>
<path fill="none" stroke="black" d="M611.956,-102.834C527.652,-99.6345 309.138,-89.5571 239.596,-69 217.105,-62.3513 193.817,-50.0105 176.047,-39.2534"/>
<polygon fill="black" stroke="black" points="177.632,-36.1174 167.291,-33.8109 173.937,-42.0626 177.632,-36.1174"/>
<text text-anchor="middle" x="268.596" y="-57.8" font-family="Times,serif" font-size="14.00">Gen 10:26</text>
</g>
<!-- joktan&#45;&gt;diklah -->
<g id="edge4" class="edge"><title>joktan&#45;&gt;diklah</title>
<path fill="none" stroke="black" d="M611.708,-104.329C553.766,-103.985 432.527,-99.2885 335.596,-69 312.8,-61.8765 289.118,-49.0529 271.358,-38.1762"/>
<polygon fill="black" stroke="black" points="272.976,-35.0596 262.646,-32.7064 269.254,-40.988 272.976,-35.0596"/>
<text text-anchor="middle" x="364.596" y="-57.8" font-family="Times,serif" font-size="14.00">Gen 10:27</text>
</g>
<!-- joktan&#45;&gt;hadoram -->
<g id="edge5" class="edge"><title>joktan&#45;&gt;hadoram</title>
<path fill="none" stroke="black" d="M612.128,-102.003C569.279,-98.6674 493.211,-90.1025 431.596,-69 410.068,-61.6267 387.596,-49.5091 370.251,-39.0498"/>
<polygon fill="black" stroke="black" points="372.029,-36.0343 361.68,-33.7654 368.355,-41.9929 372.029,-36.0343"/>
<text text-anchor="middle" x="460.596" y="-57.8" font-family="Times,serif" font-size="14.00">Gen 10:27</text>
</g>
<!-- joktan&#45;&gt;hazarmaveth -->
<g id="edge6" class="edge"><title>joktan&#45;&gt;hazarmaveth</title>
<path fill="none" stroke="black" d="M613.013,-100.042C584.996,-95.592 544.222,-86.5577 512.596,-69 500.673,-62.3803 489.392,-52.4682 480.327,-43.211"/>
<polygon fill="black" stroke="black" points="482.66,-40.5812 473.269,-35.6755 477.551,-45.3666 482.66,-40.5812"/>
<text text-anchor="middle" x="541.596" y="-57.8" font-family="Times,serif" font-size="14.00">Gen 10:26</text>
</g>
<!-- joktan&#45;&gt;jerah -->
<g id="edge7" class="edge"><title>joktan&#45;&gt;jerah</title>
<path fill="none" stroke="black" d="M618.432,-94.1138C606.053,-88.422 592.079,-80.1528 582.596,-69 577.05,-62.4764 573.159,-54.111 570.453,-46.0967"/>
<polygon fill="black" stroke="black" points="573.76,-44.934 567.622,-36.2981 567.035,-46.8766 573.76,-44.934"/>
<text text-anchor="middle" x="611.596" y="-57.8" font-family="Times,serif" font-size="14.00">Gen 10:26</text>
</g>
<!-- joktan&#45;&gt;jobab -->
<g id="edge8" class="edge"><title>joktan&#45;&gt;jobab</title>
<path fill="none" stroke="black" d="M644.989,-86.799C644.579,-75.1626 644.027,-59.5479 643.558,-46.2368"/>
<polygon fill="black" stroke="black" points="647.053,-46.0457 643.203,-36.1754 640.057,-46.2927 647.053,-46.0457"/>
<text text-anchor="middle" x="673.596" y="-57.8" font-family="Times,serif" font-size="14.00">Gen 10:29</text>
</g>
<!-- joktans_havilah -->
<g id="node10" class="node"><title>joktans_havilah</title>
<g id="a_node10"><a xlink:href="joktans_havilah.html" xlink:title="Havilah" target="_top">
<ellipse fill="none" stroke="blue" cx="730.596" cy="-18" rx="38.1938" ry="18"/>
<text text-anchor="middle" x="730.596" y="-14.3" font-family="Times,serif" font-size="14.00">Havilah</text>
</a>
</g>
</g>
<!-- joktan&#45;&gt;joktans_havilah -->
<g id="edge9" class="edge"><title>joktan&#45;&gt;joktans_havilah</title>
<path fill="none" stroke="black" d="M671.723,-93.3554C683.527,-87.5346 696.956,-79.3756 706.596,-69 712.815,-62.3077 717.72,-53.7084 721.432,-45.5348"/>
<polygon fill="black" stroke="black" points="724.674,-46.8542 725.248,-36.2749 718.202,-44.187 724.674,-46.8542"/>
<text text-anchor="middle" x="746.596" y="-57.8" font-family="Times,serif" font-size="14.00">Gen 10:29</text>
</g>
<!-- joktans_sheba -->
<g id="node11" class="node"><title>joktans_sheba</title>
<g id="a_node11"><a xlink:href="joktans_sheba.html" xlink:title="Sheba" target="_top">
<ellipse fill="none" stroke="blue" cx="819.596" cy="-18" rx="32.4942" ry="18"/>
<text text-anchor="middle" x="819.596" y="-14.3" font-family="Times,serif" font-size="14.00">Sheba</text>
</a>
</g>
</g>
<!-- joktan&#45;&gt;joktans_sheba -->
<g id="edge10" class="edge"><title>joktan&#45;&gt;joktans_sheba</title>
<path fill="none" stroke="black" d="M678.796,-101.217C707.449,-97.5071 748.941,-88.8994 779.596,-69 789.489,-62.5784 798.052,-52.8918 804.688,-43.7494"/>
<polygon fill="black" stroke="black" points="807.72,-45.5145 810.441,-35.2751 801.929,-41.5828 807.72,-45.5145"/>
<text text-anchor="middle" x="824.596" y="-57.8" font-family="Times,serif" font-size="14.00">Gen 10:28</text>
</g>
<!-- obal -->
<g id="node12" class="node"><title>obal</title>
<g id="a_node12"><a xlink:href="obal.html" xlink:title="Obal" target="_top">
<ellipse fill="none" stroke="blue" cx="897.596" cy="-18" rx="27.8951" ry="18"/>
<text text-anchor="middle" x="897.596" y="-14.3" font-family="Times,serif" font-size="14.00">Obal</text>
</a>
</g>
</g>
<!-- joktan&#45;&gt;obal -->
<g id="edge11" class="edge"><title>joktan&#45;&gt;obal</title>
<path fill="none" stroke="black" d="M679.022,-101.404C730.894,-96.8945 827.902,-86.3919 857.596,-69 868.025,-62.8919 876.81,-52.9541 883.467,-43.541"/>
<polygon fill="black" stroke="black" points="886.402,-45.4481 888.968,-35.1687 880.551,-41.6042 886.402,-45.4481"/>
<text text-anchor="middle" x="904.596" y="-57.8" font-family="Times,serif" font-size="14.00">Gen 10:28</text>
</g>
<!-- ophir -->
<g id="node13" class="node"><title>ophir</title>
<g id="a_node13"><a xlink:href="ophir.html" xlink:title="Ophir" target="_top">
<ellipse fill="none" stroke="blue" cx="974.596" cy="-18" rx="31.3957" ry="18"/>
<text text-anchor="middle" x="974.596" y="-14.3" font-family="Times,serif" font-size="14.00">Ophir</text>
</a>
</g>
</g>
<!-- joktan&#45;&gt;ophir -->
<g id="edge12" class="edge"><title>joktan&#45;&gt;ophir</title>
<path fill="none" stroke="black" d="M679.326,-103.269C746.531,-101.284 894.392,-94.1121 937.596,-69 947.502,-63.2427 955.552,-53.6698 961.583,-44.4328"/>
<polygon fill="black" stroke="black" points="964.608,-46.1929 966.741,-35.815 958.602,-42.5975 964.608,-46.1929"/>
<text text-anchor="middle" x="983.596" y="-57.8" font-family="Times,serif" font-size="14.00">Gen 10:29</text>
</g>
<!-- sheleph -->
<g id="node14" class="node"><title>sheleph</title>
<g id="a_node14"><a xlink:href="sheleph.html" xlink:title="Sheleph" target="_top">
<ellipse fill="none" stroke="blue" cx="1062.6" cy="-18" rx="38.9931" ry="18"/>
<text text-anchor="middle" x="1062.6" y="-14.3" font-family="Times,serif" font-size="14.00">Sheleph</text>
</a>
</g>
</g>
<!-- joktan&#45;&gt;sheleph -->
<g id="edge13" class="edge"><title>joktan&#45;&gt;sheleph</title>
<path fill="none" stroke="black" d="M679.449,-103.871C759.444,-103.08 957.845,-98.1488 1016.6,-69 1028.2,-63.2424 1038.32,-53.2223 1046.08,-43.6567"/>
<polygon fill="black" stroke="black" points="1049.02,-45.5683 1052.28,-35.4862 1043.45,-41.3372 1049.02,-45.5683"/>
<text text-anchor="middle" x="1065.6" y="-57.8" font-family="Times,serif" font-size="14.00">Gen 10:26</text>
</g>
<!-- uzal -->
<g id="node15" class="node"><title>uzal</title>
<g id="a_node15"><a xlink:href="uzal.html" xlink:title="Uzal" target="_top">
<ellipse fill="none" stroke="blue" cx="1146.6" cy="-18" rx="27.0966" ry="18"/>
<text text-anchor="middle" x="1146.6" y="-14.3" font-family="Times,serif" font-size="14.00">Uzal</text>
</a>
</g>
</g>
<!-- joktan&#45;&gt;uzal -->
<g id="edge14" class="edge"><title>joktan&#45;&gt;uzal</title>
<path fill="none" stroke="black" d="M679.579,-104.467C771.732,-105.249 1024.43,-104.05 1098.6,-69 1110.84,-63.2161 1121.59,-52.8598 1129.8,-43.0667"/>
<polygon fill="black" stroke="black" points="1132.64,-45.1107 1136.07,-35.0858 1127.14,-40.7848 1132.64,-45.1107"/>
<text text-anchor="middle" x="1147.6" y="-57.8" font-family="Times,serif" font-size="14.00">Gen 10:27</text>
</g>
</g>
</svg>
