<?xml version="1.0" encoding="UTF-8" standalone="no"?>
<!DOCTYPE svg PUBLIC "-//W3C//DTD SVG 1.1//EN"
 "http://www.w3.org/Graphics/SVG/1.1/DTD/svg11.dtd">
<!-- Generated by graphviz version 2.38.0 (20140413.2041)
 -->
<!-- Title: ancestry Pages: 1 -->
<svg width="92pt" height="218pt"
 viewBox="0.00 0.00 92.45 218.00" xmlns="http://www.w3.org/2000/svg" xmlns:xlink="http://www.w3.org/1999/xlink">
<g id="graph0" class="graph" transform="scale(1 1) rotate(0) translate(4 214)">
<title>ancestry</title>
<polygon fill="white" stroke="none" points="-4,4 -4,-214 88.4469,-214 88.4469,4 -4,4"/>
<!-- jonam -->
<g id="node1" class="node"><title>jonam</title>
<g id="a_node1"><a xlink:href="jonam.html" xlink:title="Jonam" target="_top">
<ellipse fill="none" stroke="blue" cx="34.4469" cy="-192" rx="34.394" ry="18"/>
<text text-anchor="middle" x="34.4469" y="-188.3" font-family="Times,serif" font-size="14.00">Jonam</text>
</a>
</g>
</g>
<!-- jonams_joseph -->
<g id="node2" class="node"><title>jonams_joseph</title>
<g id="a_node2"><a xlink:href="jonams_joseph.html" xlink:title="Joseph" target="_top">
<ellipse fill="lightblue" stroke="blue" stroke-width="2" cx="34.4469" cy="-105" rx="34.394" ry="18"/>
<text text-anchor="middle" x="34.4469" y="-101.3" font-family="Times,serif" font-size="14.00">Joseph</text>
</a>
</g>
</g>
<!-- jonam&#45;&gt;jonams_joseph -->
<g id="edge1" class="edge"><title>jonam&#45;&gt;jonams_joseph</title>
<path fill="none" stroke="black" d="M34.4469,-173.799C34.4469,-162.163 34.4469,-146.548 34.4469,-133.237"/>
<polygon fill="black" stroke="black" points="37.947,-133.175 34.4469,-123.175 30.947,-133.175 37.947,-133.175"/>
<text text-anchor="middle" x="59.4469" y="-144.8" font-family="Times,serif" font-size="14.00">Luk 3:30</text>
</g>
<!-- josephs_judah -->
<g id="node3" class="node"><title>josephs_judah</title>
<g id="a_node3"><a xlink:href="josephs_judah.html" xlink:title="Judah" target="_top">
<ellipse fill="none" stroke="blue" cx="34.4469" cy="-18" rx="31.3957" ry="18"/>
<text text-anchor="middle" x="34.4469" y="-14.3" font-family="Times,serif" font-size="14.00">Judah</text>
</a>
</g>
</g>
<!-- jonams_joseph&#45;&gt;josephs_judah -->
<g id="edge2" class="edge"><title>jonams_joseph&#45;&gt;josephs_judah</title>
<path fill="none" stroke="black" d="M34.4469,-86.799C34.4469,-75.1626 34.4469,-59.5479 34.4469,-46.2368"/>
<polygon fill="black" stroke="black" points="37.947,-46.1754 34.4469,-36.1754 30.947,-46.1755 37.947,-46.1754"/>
<text text-anchor="middle" x="59.4469" y="-57.8" font-family="Times,serif" font-size="14.00">Luk 3:30</text>
</g>
</g>
</svg>
