<?xml version="1.0" encoding="UTF-8" standalone="no"?>
<!DOCTYPE svg PUBLIC "-//W3C//DTD SVG 1.1//EN"
 "http://www.w3.org/Graphics/SVG/1.1/DTD/svg11.dtd">
<!-- Generated by graphviz version 2.38.0 (20140413.2041)
 -->
<!-- Title: ancestry Pages: 1 -->
<svg width="116pt" height="218pt"
 viewBox="0.00 0.00 115.89 218.00" xmlns="http://www.w3.org/2000/svg" xmlns:xlink="http://www.w3.org/1999/xlink">
<g id="graph0" class="graph" transform="scale(1 1) rotate(0) translate(4 214)">
<title>ancestry</title>
<polygon fill="white" stroke="none" points="-4,4 -4,-214 111.89,-214 111.89,4 -4,4"/>
<!-- jehoshaphat -->
<g id="node1" class="node"><title>jehoshaphat</title>
<g id="a_node1"><a xlink:href="jehoshaphat.html" xlink:title="Jehoshaphat" target="_top">
<ellipse fill="none" stroke="blue" cx="53.9452" cy="-192" rx="53.8905" ry="18"/>
<text text-anchor="middle" x="53.9452" y="-188.3" font-family="Times,serif" font-size="14.00">Jehoshaphat</text>
</a>
</g>
</g>
<!-- joram -->
<g id="node2" class="node"><title>joram</title>
<g id="a_node2"><a xlink:href="joram.html" xlink:title="Joram" target="_top">
<ellipse fill="lightblue" stroke="blue" stroke-width="2" cx="53.9452" cy="-105" rx="32.4942" ry="18"/>
<text text-anchor="middle" x="53.9452" y="-101.3" font-family="Times,serif" font-size="14.00">Joram</text>
</a>
</g>
</g>
<!-- jehoshaphat&#45;&gt;joram -->
<g id="edge1" class="edge"><title>jehoshaphat&#45;&gt;joram</title>
<path fill="none" stroke="black" d="M53.9452,-173.799C53.9452,-162.163 53.9452,-146.548 53.9452,-133.237"/>
<polygon fill="black" stroke="black" points="57.4453,-133.175 53.9452,-123.175 50.4453,-133.175 57.4453,-133.175"/>
<text text-anchor="middle" x="75.9452" y="-144.8" font-family="Times,serif" font-size="14.00">Mat 1:8</text>
</g>
<!-- uzziah -->
<g id="node3" class="node"><title>uzziah</title>
<g id="a_node3"><a xlink:href="uzziah.html" xlink:title="Uzziah" target="_top">
<ellipse fill="none" stroke="blue" cx="53.9452" cy="-18" rx="35.9954" ry="18"/>
<text text-anchor="middle" x="53.9452" y="-14.3" font-family="Times,serif" font-size="14.00">Uzziah</text>
</a>
</g>
</g>
<!-- joram&#45;&gt;uzziah -->
<g id="edge2" class="edge"><title>joram&#45;&gt;uzziah</title>
<path fill="none" stroke="black" d="M53.9452,-86.799C53.9452,-75.1626 53.9452,-59.5479 53.9452,-46.2368"/>
<polygon fill="black" stroke="black" points="57.4453,-46.1754 53.9452,-36.1754 50.4453,-46.1755 57.4453,-46.1754"/>
<text text-anchor="middle" x="75.9452" y="-57.8" font-family="Times,serif" font-size="14.00">Mat 1:8</text>
</g>
</g>
</svg>
