<?xml version="1.0" encoding="UTF-8" standalone="no"?>
<!DOCTYPE svg PUBLIC "-//W3C//DTD SVG 1.1//EN"
 "http://www.w3.org/Graphics/SVG/1.1/DTD/svg11.dtd">
<!-- Generated by graphviz version 2.38.0 (20140413.2041)
 -->
<!-- Title: ancestry Pages: 1 -->
<svg width="96pt" height="218pt"
 viewBox="0.00 0.00 96.35 218.00" xmlns="http://www.w3.org/2000/svg" xmlns:xlink="http://www.w3.org/1999/xlink">
<g id="graph0" class="graph" transform="scale(1 1) rotate(0) translate(4 214)">
<title>ancestry</title>
<polygon fill="white" stroke="none" points="-4,4 -4,-214 92.3466,-214 92.3466,4 -4,4"/>
<!-- jorim -->
<g id="node1" class="node"><title>jorim</title>
<g id="a_node1"><a xlink:href="jorim.html" xlink:title="Jorim" target="_top">
<ellipse fill="lightblue" stroke="blue" stroke-width="2" cx="38.3466" cy="-105" rx="31.3957" ry="18"/>
<text text-anchor="middle" x="38.3466" y="-101.3" font-family="Times,serif" font-size="14.00">Jorim</text>
</a>
</g>
</g>
<!-- jorims_eliezer -->
<g id="node2" class="node"><title>jorims_eliezer</title>
<g id="a_node2"><a xlink:href="jorims_eliezer.html" xlink:title="Eliezer" target="_top">
<ellipse fill="none" stroke="blue" cx="38.3466" cy="-18" rx="35.9954" ry="18"/>
<text text-anchor="middle" x="38.3466" y="-14.3" font-family="Times,serif" font-size="14.00">Eliezer</text>
</a>
</g>
</g>
<!-- jorim&#45;&gt;jorims_eliezer -->
<g id="edge1" class="edge"><title>jorim&#45;&gt;jorims_eliezer</title>
<path fill="none" stroke="black" d="M38.3466,-86.799C38.3466,-75.1626 38.3466,-59.5479 38.3466,-46.2368"/>
<polygon fill="black" stroke="black" points="41.8467,-46.1754 38.3466,-36.1754 34.8467,-46.1755 41.8467,-46.1754"/>
<text text-anchor="middle" x="63.3466" y="-57.8" font-family="Times,serif" font-size="14.00">Luk 3:29</text>
</g>
<!-- levis_simeons_matthat -->
<g id="node3" class="node"><title>levis_simeons_matthat</title>
<g id="a_node3"><a xlink:href="levis_simeons_matthat.html" xlink:title="Matthat" target="_top">
<ellipse fill="none" stroke="blue" cx="38.3466" cy="-192" rx="38.1938" ry="18"/>
<text text-anchor="middle" x="38.3466" y="-188.3" font-family="Times,serif" font-size="14.00">Matthat</text>
</a>
</g>
</g>
<!-- levis_simeons_matthat&#45;&gt;jorim -->
<g id="edge2" class="edge"><title>levis_simeons_matthat&#45;&gt;jorim</title>
<path fill="none" stroke="black" d="M38.3466,-173.799C38.3466,-162.163 38.3466,-146.548 38.3466,-133.237"/>
<polygon fill="black" stroke="black" points="41.8467,-133.175 38.3466,-123.175 34.8467,-133.175 41.8467,-133.175"/>
<text text-anchor="middle" x="63.3466" y="-144.8" font-family="Times,serif" font-size="14.00">Luk 3:29</text>
</g>
</g>
</svg>
