<?xml version="1.0" encoding="UTF-8" standalone="no"?>
<!DOCTYPE svg PUBLIC "-//W3C//DTD SVG 1.1//EN"
 "http://www.w3.org/Graphics/SVG/1.1/DTD/svg11.dtd">
<!-- Generated by graphviz version 2.38.0 (20140413.2041)
 -->
<!-- Title: ancestry Pages: 1 -->
<svg width="185pt" height="146pt"
 viewBox="0.00 0.00 184.55 146.00" xmlns="http://www.w3.org/2000/svg" xmlns:xlink="http://www.w3.org/1999/xlink">
<g id="graph0" class="graph" transform="scale(1 1) rotate(0) translate(4 142)">
<title>ancestry</title>
<polygon fill="white" stroke="none" points="-4,4 -4,-142 180.547,-142 180.547,4 -4,4"/>
<!-- jacob -->
<g id="node1" class="node"><title>jacob</title>
<g id="a_node1"><a xlink:href="jacob.html" xlink:title="Jacob" target="_top">
<ellipse fill="none" stroke="blue" cx="30.5473" cy="-120" rx="30.5947" ry="18"/>
<text text-anchor="middle" x="30.5473" y="-116.3" font-family="Times,serif" font-size="14.00">Jacob</text>
</a>
</g>
</g>
<!-- joseph -->
<g id="node2" class="node"><title>joseph</title>
<g id="a_node2"><a xlink:href="joseph.html" xlink:title="Joseph" target="_top">
<ellipse fill="lightblue" stroke="blue" stroke-width="2" cx="80.5473" cy="-18" rx="34.394" ry="18"/>
<text text-anchor="middle" x="80.5473" y="-14.3" font-family="Times,serif" font-size="14.00">Joseph</text>
</a>
</g>
</g>
<!-- jacob&#45;&gt;joseph -->
<g id="edge1" class="edge"><title>jacob&#45;&gt;joseph</title>
<path fill="none" stroke="black" d="M32.2747,-101.81C34.2189,-88.1562 38.2652,-68.9419 46.5473,-54 49.1,-49.3946 52.4175,-44.9623 55.9778,-40.8905"/>
<polygon fill="black" stroke="black" points="58.6096,-43.2025 62.9866,-33.554 53.5481,-38.367 58.6096,-43.2025"/>
<text text-anchor="middle" x="75.5473" y="-72.8" font-family="Times,serif" font-size="14.00">1 Ch 2:2</text>
<text text-anchor="middle" x="75.5473" y="-57.8" font-family="Times,serif" font-size="14.00">Gen 30:23</text>
</g>
<!-- rachel -->
<g id="node3" class="node"><title>rachel</title>
<g id="a_node3"><a xlink:href="rachel.html" xlink:title="Rachel" target="_top">
<ellipse fill="none" stroke="red" cx="131.547" cy="-120" rx="35.194" ry="18"/>
<text text-anchor="middle" x="131.547" y="-116.3" font-family="Times,serif" font-size="14.00">Rachel</text>
</a>
</g>
</g>
<!-- jacob&#45;&gt;rachel -->
<g id="edge3" class="edge"><title>jacob&#45;&gt;rachel</title>
<path fill="none" stroke="red" d="M61.3207,-120C73.0252,-120 84.7296,-120 96.434,-120"/>
</g>
<!-- rachel&#45;&gt;joseph -->
<g id="edge2" class="edge"><title>rachel&#45;&gt;joseph</title>
<path fill="none" stroke="black" d="M125.591,-101.995C120.644,-88.6157 113.06,-69.6789 104.547,-54 102.625,-50.459 100.428,-46.8336 98.163,-43.3216"/>
<polygon fill="black" stroke="black" points="101,-41.2692 92.5058,-34.9373 95.1978,-45.1845 101,-41.2692"/>
<text text-anchor="middle" x="147.547" y="-65.3" font-family="Times,serif" font-size="14.00">Gen 30:23</text>
</g>
</g>
</svg>
