<?xml version="1.0" encoding="UTF-8" standalone="no"?>
<!DOCTYPE svg PUBLIC "-//W3C//DTD SVG 1.1//EN"
 "http://www.w3.org/Graphics/SVG/1.1/DTD/svg11.dtd">
<!-- Generated by graphviz version 2.38.0 (20140413.2041)
 -->
<!-- Title: ancestry Pages: 1 -->
<svg width="1118pt" height="218pt"
 viewBox="0.00 0.00 1117.55 218.00" xmlns="http://www.w3.org/2000/svg" xmlns:xlink="http://www.w3.org/1999/xlink">
<g id="graph0" class="graph" transform="scale(1 1) rotate(0) translate(4 214)">
<title>ancestry</title>
<polygon fill="white" stroke="none" points="-4,4 -4,-214 1113.55,-214 1113.55,4 -4,4"/>
<!-- heli -->
<g id="node1" class="node"><title>heli</title>
<g id="a_node1"><a xlink:href="heli.html" xlink:title="Heli" target="_top">
<ellipse fill="none" stroke="blue" cx="592.547" cy="-192" rx="27" ry="18"/>
<text text-anchor="middle" x="592.547" y="-188.3" font-family="Times,serif" font-size="14.00">Heli</text>
</a>
</g>
</g>
<!-- joseph_carpenter -->
<g id="node4" class="node"><title>joseph_carpenter</title>
<g id="a_node4"><a xlink:href="joseph_carpenter.html" xlink:title="Joseph" target="_top">
<ellipse fill="lightblue" stroke="blue" stroke-width="2" cx="104.547" cy="-105" rx="34.394" ry="18"/>
<text text-anchor="middle" x="104.547" y="-101.3" font-family="Times,serif" font-size="14.00">Joseph</text>
</a>
</g>
</g>
<!-- heli&#45;&gt;joseph_carpenter -->
<g id="edge5" class="edge"><title>heli&#45;&gt;joseph_carpenter</title>
<path fill="none" stroke="black" stroke-dasharray="5,2" d="M565.402,-191.168C467.023,-191.499 133.289,-190.084 101.547,-156 95.8171,-149.847 94.8433,-141.209 95.8504,-132.842"/>
<polygon fill="black" stroke="black" points="99.2978,-133.453 97.8747,-122.954 92.44,-132.049 99.2978,-133.453"/>
<text text-anchor="middle" x="577.047" y="-144.8" font-family="Times,serif" font-size="14.00">Luk 3:23, http://creation.com/jesus&#45;genealogies, &quot;If Heli had only daughters, Joseph could have become Heli’s heir by adoption, especially if Joseph became his son&#45;in&#45;law.&quot;</text>
</g>
<!-- mary -->
<g id="node5" class="node"><title>mary</title>
<g id="a_node5"><a xlink:href="mary.html" xlink:title="Mary" target="_top">
<ellipse fill="none" stroke="red" cx="204.547" cy="-105" rx="30.5947" ry="18"/>
<text text-anchor="middle" x="204.547" y="-101.3" font-family="Times,serif" font-size="14.00">Mary</text>
</a>
</g>
</g>
<!-- heli&#45;&gt;mary -->
<g id="edge1" class="edge"><title>heli&#45;&gt;mary</title>
<path fill="none" stroke="black" d="M619.825,-191.048C714.794,-190.932 1026.78,-188.097 1056.55,-156 1061.08,-151.112 1061.16,-145.81 1056.55,-141 1028.18,-111.442 411.682,-106.832 245.501,-106.125"/>
<polygon fill="black" stroke="black" points="245.231,-102.624 235.217,-106.084 245.203,-109.624 245.231,-102.624"/>
<text text-anchor="middle" x="1084.55" y="-144.8" font-family="Times,serif" font-size="14.00">Luk 3:23</text>
</g>
<!-- jacob_father_of_joseph -->
<g id="node2" class="node"><title>jacob_father_of_joseph</title>
<g id="a_node2"><a xlink:href="jacob_father_of_joseph.html" xlink:title="Jacob" target="_top">
<ellipse fill="none" stroke="blue" cx="30.5473" cy="-192" rx="30.5947" ry="18"/>
<text text-anchor="middle" x="30.5473" y="-188.3" font-family="Times,serif" font-size="14.00">Jacob</text>
</a>
</g>
</g>
<!-- jacob_father_of_joseph&#45;&gt;joseph_carpenter -->
<g id="edge2" class="edge"><title>jacob_father_of_joseph&#45;&gt;joseph_carpenter</title>
<path fill="none" stroke="black" d="M26.6582,-173.955C25.2728,-163.629 25.3448,-150.637 31.5473,-141 38.9423,-129.51 51.2485,-121.699 63.6693,-116.43"/>
<polygon fill="black" stroke="black" points="64.9838,-119.675 73.1105,-112.878 62.5185,-113.124 64.9838,-119.675"/>
<text text-anchor="middle" x="57.0473" y="-144.8" font-family="Times,serif" font-size="14.00">Mat 1:16</text>
</g>
<!-- jesus -->
<g id="node3" class="node"><title>jesus</title>
<g id="a_node3"><a xlink:href="jesus.html" xlink:title="Jesus" target="_top">
<ellipse fill="none" stroke="blue" cx="157.547" cy="-18" rx="29.4969" ry="18"/>
<text text-anchor="middle" x="157.547" y="-14.3" font-family="Times,serif" font-size="14.00">Jesus</text>
</a>
</g>
</g>
<!-- joseph_carpenter&#45;&gt;jesus -->
<g id="edge4" class="edge"><title>joseph_carpenter&#45;&gt;jesus</title>
<path fill="none" stroke="black" stroke-dasharray="5,2" d="M109.112,-86.9862C112.265,-76.9173 117.063,-64.1828 123.547,-54 126.562,-49.266 130.293,-44.6382 134.168,-40.3787"/>
<polygon fill="black" stroke="black" points="136.718,-42.7774 141.175,-33.1659 131.697,-37.8997 136.718,-42.7774"/>
<text text-anchor="middle" x="148.547" y="-57.8" font-family="Times,serif" font-size="14.00">Luk 3:23</text>
</g>
<!-- joseph_carpenter&#45;&gt;mary -->
<g id="edge6" class="edge"><title>joseph_carpenter&#45;&gt;mary</title>
<path fill="none" stroke="red" d="M139.313,-105C150.865,-105 162.417,-105 173.969,-105"/>
</g>
<!-- mary&#45;&gt;jesus -->
<g id="edge3" class="edge"><title>mary&#45;&gt;jesus</title>
<path fill="none" stroke="black" d="M195.485,-87.6111C188.723,-75.3817 179.357,-58.4429 171.623,-44.456"/>
<polygon fill="black" stroke="black" points="174.483,-42.3962 166.582,-35.3385 168.358,-45.7835 174.483,-42.3962"/>
<text text-anchor="middle" x="209.047" y="-57.8" font-family="Times,serif" font-size="14.00">Mat 1:16</text>
</g>
</g>
</svg>
