<?xml version="1.0" encoding="UTF-8" standalone="no"?>
<!DOCTYPE svg PUBLIC "-//W3C//DTD SVG 1.1//EN"
 "http://www.w3.org/Graphics/SVG/1.1/DTD/svg11.dtd">
<!-- Generated by graphviz version 2.38.0 (20140413.2041)
 -->
<!-- Title: ancestry Pages: 1 -->
<svg width="94pt" height="218pt"
 viewBox="0.00 0.00 93.75 218.00" xmlns="http://www.w3.org/2000/svg" xmlns:xlink="http://www.w3.org/1999/xlink">
<g id="graph0" class="graph" transform="scale(1 1) rotate(0) translate(4 214)">
<title>ancestry</title>
<polygon fill="white" stroke="none" points="-4,4 -4,-214 89.7468,-214 89.7468,4 -4,4"/>
<!-- jorims_eliezer -->
<g id="node1" class="node"><title>jorims_eliezer</title>
<g id="a_node1"><a xlink:href="jorims_eliezer.html" xlink:title="Eliezer" target="_top">
<ellipse fill="none" stroke="blue" cx="35.7468" cy="-192" rx="35.9954" ry="18"/>
<text text-anchor="middle" x="35.7468" y="-188.3" font-family="Times,serif" font-size="14.00">Eliezer</text>
</a>
</g>
</g>
<!-- joshua -->
<g id="node2" class="node"><title>joshua</title>
<g id="a_node2"><a xlink:href="joshua.html" xlink:title="Joshua" target="_top">
<ellipse fill="lightblue" stroke="blue" stroke-width="2" cx="35.7468" cy="-105" rx="34.394" ry="18"/>
<text text-anchor="middle" x="35.7468" y="-101.3" font-family="Times,serif" font-size="14.00">Joshua</text>
</a>
</g>
</g>
<!-- jorims_eliezer&#45;&gt;joshua -->
<g id="edge1" class="edge"><title>jorims_eliezer&#45;&gt;joshua</title>
<path fill="none" stroke="black" d="M35.7468,-173.799C35.7468,-162.163 35.7468,-146.548 35.7468,-133.237"/>
<polygon fill="black" stroke="black" points="39.2469,-133.175 35.7468,-123.175 32.2469,-133.175 39.2469,-133.175"/>
<text text-anchor="middle" x="60.7468" y="-144.8" font-family="Times,serif" font-size="14.00">Luk 3:29</text>
</g>
<!-- joshuas_er -->
<g id="node3" class="node"><title>joshuas_er</title>
<g id="a_node3"><a xlink:href="joshuas_er.html" xlink:title="Er" target="_top">
<ellipse fill="none" stroke="blue" cx="35.7468" cy="-18" rx="27" ry="18"/>
<text text-anchor="middle" x="35.7468" y="-14.3" font-family="Times,serif" font-size="14.00">Er</text>
</a>
</g>
</g>
<!-- joshua&#45;&gt;joshuas_er -->
<g id="edge2" class="edge"><title>joshua&#45;&gt;joshuas_er</title>
<path fill="none" stroke="black" d="M35.7468,-86.799C35.7468,-75.1626 35.7468,-59.5479 35.7468,-46.2368"/>
<polygon fill="black" stroke="black" points="39.2469,-46.1754 35.7468,-36.1754 32.2469,-46.1755 39.2469,-46.1754"/>
<text text-anchor="middle" x="60.7468" y="-57.8" font-family="Times,serif" font-size="14.00">Luk 3:29</text>
</g>
</g>
</svg>
