<?xml version="1.0" encoding="UTF-8" standalone="no"?>
<!DOCTYPE svg PUBLIC "-//W3C//DTD SVG 1.1//EN"
 "http://www.w3.org/Graphics/SVG/1.1/DTD/svg11.dtd">
<!-- Generated by graphviz version 2.38.0 (20140413.2041)
 -->
<!-- Title: ancestry Pages: 1 -->
<svg width="103pt" height="218pt"
 viewBox="0.00 0.00 103.50 218.00" xmlns="http://www.w3.org/2000/svg" xmlns:xlink="http://www.w3.org/1999/xlink">
<g id="graph0" class="graph" transform="scale(1 1) rotate(0) translate(4 214)">
<title>ancestry</title>
<polygon fill="white" stroke="none" points="-4,4 -4,-214 99.496,-214 99.496,4 -4,4"/>
<!-- elmadam -->
<g id="node1" class="node"><title>elmadam</title>
<g id="a_node1"><a xlink:href="elmadam.html" xlink:title="Elmadam" target="_top">
<ellipse fill="none" stroke="blue" cx="45.496" cy="-18" rx="45.4919" ry="18"/>
<text text-anchor="middle" x="45.496" y="-14.3" font-family="Times,serif" font-size="14.00">Elmadam</text>
</a>
</g>
</g>
<!-- joshua -->
<g id="node2" class="node"><title>joshua</title>
<g id="a_node2"><a xlink:href="joshua.html" xlink:title="Joshua" target="_top">
<ellipse fill="none" stroke="blue" cx="45.496" cy="-192" rx="34.394" ry="18"/>
<text text-anchor="middle" x="45.496" y="-188.3" font-family="Times,serif" font-size="14.00">Joshua</text>
</a>
</g>
</g>
<!-- joshuas_er -->
<g id="node3" class="node"><title>joshuas_er</title>
<g id="a_node3"><a xlink:href="joshuas_er.html" xlink:title="Er" target="_top">
<ellipse fill="lightblue" stroke="blue" stroke-width="2" cx="45.496" cy="-105" rx="27" ry="18"/>
<text text-anchor="middle" x="45.496" y="-101.3" font-family="Times,serif" font-size="14.00">Er</text>
</a>
</g>
</g>
<!-- joshua&#45;&gt;joshuas_er -->
<g id="edge1" class="edge"><title>joshua&#45;&gt;joshuas_er</title>
<path fill="none" stroke="black" d="M45.496,-173.799C45.496,-162.163 45.496,-146.548 45.496,-133.237"/>
<polygon fill="black" stroke="black" points="48.9961,-133.175 45.496,-123.175 41.9961,-133.175 48.9961,-133.175"/>
<text text-anchor="middle" x="70.496" y="-144.8" font-family="Times,serif" font-size="14.00">Luk 3:29</text>
</g>
<!-- joshuas_er&#45;&gt;elmadam -->
<g id="edge2" class="edge"><title>joshuas_er&#45;&gt;elmadam</title>
<path fill="none" stroke="black" d="M45.496,-86.799C45.496,-75.1626 45.496,-59.5479 45.496,-46.2368"/>
<polygon fill="black" stroke="black" points="48.9961,-46.1754 45.496,-36.1754 41.9961,-46.1755 48.9961,-46.1754"/>
<text text-anchor="middle" x="70.496" y="-57.8" font-family="Times,serif" font-size="14.00">Luk 3:28</text>
</g>
</g>
</svg>
