<?xml version="1.0" encoding="UTF-8" standalone="no"?>
<!DOCTYPE svg PUBLIC "-//W3C//DTD SVG 1.1//EN"
 "http://www.w3.org/Graphics/SVG/1.1/DTD/svg11.dtd">
<!-- Generated by graphviz version 2.38.0 (20140413.2041)
 -->
<!-- Title: ancestry Pages: 1 -->
<svg width="105pt" height="218pt"
 viewBox="0.00 0.00 105.15 218.00" xmlns="http://www.w3.org/2000/svg" xmlns:xlink="http://www.w3.org/1999/xlink">
<g id="graph0" class="graph" transform="scale(1 1) rotate(0) translate(4 214)">
<title>ancestry</title>
<polygon fill="white" stroke="none" points="-4,4 -4,-214 101.146,-214 101.146,4 -4,4"/>
<!-- jechoniah -->
<g id="node1" class="node"><title>jechoniah</title>
<g id="a_node1"><a xlink:href="jechoniah.html" xlink:title="Jechoniah" target="_top">
<ellipse fill="none" stroke="blue" cx="46.1459" cy="-18" rx="46.2923" ry="18"/>
<text text-anchor="middle" x="46.1459" y="-14.3" font-family="Times,serif" font-size="14.00">Jechoniah</text>
</a>
</g>
</g>
<!-- josiah -->
<g id="node2" class="node"><title>josiah</title>
<g id="a_node2"><a xlink:href="josiah.html" xlink:title="Josiah" target="_top">
<ellipse fill="lightblue" stroke="blue" stroke-width="2" cx="46.1459" cy="-105" rx="32.4942" ry="18"/>
<text text-anchor="middle" x="46.1459" y="-101.3" font-family="Times,serif" font-size="14.00">Josiah</text>
</a>
</g>
</g>
<!-- josiah&#45;&gt;jechoniah -->
<g id="edge1" class="edge"><title>josiah&#45;&gt;jechoniah</title>
<path fill="none" stroke="black" d="M46.1459,-86.799C46.1459,-75.1626 46.1459,-59.5479 46.1459,-46.2368"/>
<polygon fill="black" stroke="black" points="49.646,-46.1754 46.1459,-36.1754 42.646,-46.1755 49.646,-46.1754"/>
<text text-anchor="middle" x="71.6459" y="-57.8" font-family="Times,serif" font-size="14.00">Mat 1:11</text>
</g>
<!-- manassehs_amos -->
<g id="node3" class="node"><title>manassehs_amos</title>
<g id="a_node3"><a xlink:href="manassehs_amos.html" xlink:title="Amos" target="_top">
<ellipse fill="none" stroke="blue" cx="46.1459" cy="-192" rx="32.4942" ry="18"/>
<text text-anchor="middle" x="46.1459" y="-188.3" font-family="Times,serif" font-size="14.00">Amos</text>
</a>
</g>
</g>
<!-- manassehs_amos&#45;&gt;josiah -->
<g id="edge2" class="edge"><title>manassehs_amos&#45;&gt;josiah</title>
<path fill="none" stroke="black" d="M46.1459,-173.799C46.1459,-162.163 46.1459,-146.548 46.1459,-133.237"/>
<polygon fill="black" stroke="black" points="49.646,-133.175 46.1459,-123.175 42.646,-133.175 49.646,-133.175"/>
<text text-anchor="middle" x="71.6459" y="-144.8" font-family="Times,serif" font-size="14.00">Mat 1:10</text>
</g>
</g>
</svg>
