<?xml version="1.0" encoding="UTF-8" standalone="no"?>
<!DOCTYPE svg PUBLIC "-//W3C//DTD SVG 1.1//EN"
 "http://www.w3.org/Graphics/SVG/1.1/DTD/svg11.dtd">
<!-- Generated by graphviz version 2.38.0 (20140413.2041)
 -->
<!-- Title: ancestry Pages: 1 -->
<svg width="183pt" height="131pt"
 viewBox="0.00 0.00 182.54 131.00" xmlns="http://www.w3.org/2000/svg" xmlns:xlink="http://www.w3.org/1999/xlink">
<g id="graph0" class="graph" transform="scale(1 1) rotate(0) translate(4 127)">
<title>ancestry</title>
<polygon fill="white" stroke="none" points="-4,4 -4,-127 178.544,-127 178.544,4 -4,4"/>
<!-- adah -->
<g id="node1" class="node"><title>adah</title>
<g id="a_node1"><a xlink:href="adah.html" xlink:title="Adah" target="_top">
<ellipse fill="none" stroke="red" cx="144.646" cy="-105" rx="29.795" ry="18"/>
<text text-anchor="middle" x="144.646" y="-101.3" font-family="Times,serif" font-size="14.00">Adah</text>
</a>
</g>
</g>
<!-- jubal -->
<g id="node2" class="node"><title>jubal</title>
<g id="a_node2"><a xlink:href="jubal.html" xlink:title="Jubal" target="_top">
<ellipse fill="lightblue" stroke="blue" stroke-width="2" cx="95.6465" cy="-18" rx="29.4969" ry="18"/>
<text text-anchor="middle" x="95.6465" y="-14.3" font-family="Times,serif" font-size="14.00">Jubal</text>
</a>
</g>
</g>
<!-- adah&#45;&gt;jubal -->
<g id="edge1" class="edge"><title>adah&#45;&gt;jubal</title>
<path fill="none" stroke="black" d="M135.199,-87.6111C128.081,-75.2642 118.196,-58.1167 110.089,-44.0534"/>
<polygon fill="black" stroke="black" points="113.092,-42.2541 105.065,-35.3385 107.027,-45.7501 113.092,-42.2541"/>
<text text-anchor="middle" x="148.146" y="-57.8" font-family="Times,serif" font-size="14.00">Gen 4:21</text>
</g>
<!-- mehujaels_lamech -->
<g id="node3" class="node"><title>mehujaels_lamech</title>
<g id="a_node3"><a xlink:href="mehujaels_lamech.html" xlink:title="Lamech" target="_top">
<ellipse fill="none" stroke="blue" cx="39.6465" cy="-105" rx="39.7935" ry="18"/>
<text text-anchor="middle" x="39.6465" y="-101.3" font-family="Times,serif" font-size="14.00">Lamech</text>
</a>
</g>
</g>
<!-- mehujaels_lamech&#45;&gt;adah -->
<g id="edge3" class="edge"><title>mehujaels_lamech&#45;&gt;adah</title>
<path fill="none" stroke="red" d="M79.4316,-105C91.1499,-105 102.868,-105 114.587,-105"/>
</g>
<!-- mehujaels_lamech&#45;&gt;jubal -->
<g id="edge2" class="edge"><title>mehujaels_lamech&#45;&gt;jubal</title>
<path fill="none" stroke="black" d="M45.3836,-87.0175C49.1939,-76.9598 54.7595,-64.2259 61.6465,-54 64.7816,-49.345 68.5711,-44.7552 72.4663,-40.5088"/>
<polygon fill="black" stroke="black" points="75.0157,-42.9075 79.4733,-33.296 69.9948,-38.0299 75.0157,-42.9075"/>
<text text-anchor="middle" x="87.1465" y="-57.8" font-family="Times,serif" font-size="14.00">Gen 4:21</text>
</g>
</g>
</svg>
