<?xml version="1.0" encoding="UTF-8" standalone="no"?>
<!DOCTYPE svg PUBLIC "-//W3C//DTD SVG 1.1//EN"
 "http://www.w3.org/Graphics/SVG/1.1/DTD/svg11.dtd">
<!-- Generated by graphviz version 2.38.0 (20140413.2041)
 -->
<!-- Title: ancestry Pages: 1 -->
<svg width="395pt" height="293pt"
 viewBox="0.00 0.00 395.00 293.00" xmlns="http://www.w3.org/2000/svg" xmlns:xlink="http://www.w3.org/1999/xlink">
<g id="graph0" class="graph" transform="scale(1 1) rotate(0) translate(4 289)">
<title>ancestry</title>
<polygon fill="white" stroke="none" points="-4,4 -4,-289 391,-289 391,4 -4,4"/>
<!-- er -->
<g id="node1" class="node"><title>er</title>
<g id="a_node1"><a xlink:href="er.html" xlink:title="Er" target="_top">
<ellipse fill="none" stroke="blue" cx="27" cy="-18" rx="27" ry="18"/>
<text text-anchor="middle" x="27" y="-14.3" font-family="Times,serif" font-size="14.00">Er</text>
</a>
</g>
</g>
<!-- jacob -->
<g id="node2" class="node"><title>jacob</title>
<g id="a_node2"><a xlink:href="jacob.html" xlink:title="Jacob" target="_top">
<ellipse fill="none" stroke="blue" cx="145" cy="-267" rx="30.5947" ry="18"/>
<text text-anchor="middle" x="145" y="-263.3" font-family="Times,serif" font-size="14.00">Jacob</text>
</a>
</g>
</g>
<!-- judah -->
<g id="node3" class="node"><title>judah</title>
<g id="a_node3"><a xlink:href="judah.html" xlink:title="Judah" target="_top">
<ellipse fill="lightblue" stroke="blue" stroke-width="2" cx="188" cy="-135" rx="31.3957" ry="18"/>
<text text-anchor="middle" x="188" y="-131.3" font-family="Times,serif" font-size="14.00">Judah</text>
</a>
</g>
</g>
<!-- jacob&#45;&gt;judah -->
<g id="edge1" class="edge"><title>jacob&#45;&gt;judah</title>
<path fill="none" stroke="black" d="M143.892,-248.684C143.318,-228.968 144.493,-196.227 156,-171 158.069,-166.463 160.951,-162.114 164.144,-158.118"/>
<polygon fill="black" stroke="black" points="166.928,-160.255 170.976,-150.464 161.706,-155.594 166.928,-160.255"/>
<text text-anchor="middle" x="185" y="-219.8" font-family="Times,serif" font-size="14.00">1 Ch 2:1</text>
<text text-anchor="middle" x="185" y="-204.8" font-family="Times,serif" font-size="14.00">Gen 29:35</text>
<text text-anchor="middle" x="185" y="-189.8" font-family="Times,serif" font-size="14.00">Luk 3:34</text>
<text text-anchor="middle" x="185" y="-174.8" font-family="Times,serif" font-size="14.00">Mat 1:2</text>
</g>
<!-- leah -->
<g id="node5" class="node"><title>leah</title>
<g id="a_node5"><a xlink:href="leah.html" xlink:title="Leah" target="_top">
<ellipse fill="none" stroke="red" cx="240" cy="-267" rx="28.6953" ry="18"/>
<text text-anchor="middle" x="240" y="-263.3" font-family="Times,serif" font-size="14.00">Leah</text>
</a>
</g>
</g>
<!-- jacob&#45;&gt;leah -->
<g id="edge8" class="edge"><title>jacob&#45;&gt;leah</title>
<path fill="none" stroke="red" d="M175.801,-267C187.587,-267 199.374,-267 211.161,-267"/>
</g>
<!-- judah&#45;&gt;er -->
<g id="edge2" class="edge"><title>judah&#45;&gt;er</title>
<path fill="none" stroke="black" d="M157.079,-132.566C129.458,-129.755 89.394,-121.708 63,-99 47.0755,-85.2992 37.8603,-63.1387 32.7474,-45.6117"/>
<polygon fill="black" stroke="black" points="36.1273,-44.7022 30.1914,-35.9264 29.3591,-46.4885 36.1273,-44.7022"/>
<text text-anchor="middle" x="87" y="-72.8" font-family="Times,serif" font-size="14.00">1 Ch 2:3</text>
</g>
<!-- judahs_shelah -->
<g id="node4" class="node"><title>judahs_shelah</title>
<g id="a_node4"><a xlink:href="judahs_shelah.html" xlink:title="Shelah" target="_top">
<ellipse fill="none" stroke="blue" cx="106" cy="-18" rx="34.394" ry="18"/>
<text text-anchor="middle" x="106" y="-14.3" font-family="Times,serif" font-size="14.00">Shelah</text>
</a>
</g>
</g>
<!-- judah&#45;&gt;judahs_shelah -->
<g id="edge3" class="edge"><title>judah&#45;&gt;judahs_shelah</title>
<path fill="none" stroke="black" d="M164.849,-122.626C154.843,-116.74 143.69,-108.735 136,-99 123.857,-83.6272 116.258,-62.8239 111.747,-46.2847"/>
<polygon fill="black" stroke="black" points="115.03,-44.986 109.212,-36.1318 108.239,-46.6819 115.03,-44.986"/>
<text text-anchor="middle" x="160" y="-72.8" font-family="Times,serif" font-size="14.00">1 Ch 2:3</text>
</g>
<!-- onan -->
<g id="node6" class="node"><title>onan</title>
<g id="a_node6"><a xlink:href="onan.html" xlink:title="Onan" target="_top">
<ellipse fill="none" stroke="blue" cx="188" cy="-18" rx="29.795" ry="18"/>
<text text-anchor="middle" x="188" y="-14.3" font-family="Times,serif" font-size="14.00">Onan</text>
</a>
</g>
</g>
<!-- judah&#45;&gt;onan -->
<g id="edge4" class="edge"><title>judah&#45;&gt;onan</title>
<path fill="none" stroke="black" d="M188,-116.534C188,-97.9357 188,-68.2442 188,-46.5014"/>
<polygon fill="black" stroke="black" points="191.5,-46.2536 188,-36.2536 184.5,-46.2536 191.5,-46.2536"/>
<text text-anchor="middle" x="212" y="-72.8" font-family="Times,serif" font-size="14.00">1 Ch 2:3</text>
</g>
<!-- perez -->
<g id="node7" class="node"><title>perez</title>
<g id="a_node7"><a xlink:href="perez.html" xlink:title="Perez" target="_top">
<ellipse fill="none" stroke="blue" cx="266" cy="-18" rx="30.5947" ry="18"/>
<text text-anchor="middle" x="266" y="-14.3" font-family="Times,serif" font-size="14.00">Perez</text>
</a>
</g>
</g>
<!-- judah&#45;&gt;perez -->
<g id="edge5" class="edge"><title>judah&#45;&gt;perez</title>
<path fill="none" stroke="black" d="M211.352,-122.782C221.4,-116.928 232.529,-108.904 240,-99 251.616,-83.6024 258.166,-62.7999 261.786,-46.2673"/>
<polygon fill="black" stroke="black" points="265.287,-46.6045 263.766,-36.1193 258.416,-45.2642 265.287,-46.6045"/>
<text text-anchor="middle" x="285" y="-87.8" font-family="Times,serif" font-size="14.00">1 Ch 2:4</text>
<text text-anchor="middle" x="285" y="-72.8" font-family="Times,serif" font-size="14.00">Luk 3:33</text>
<text text-anchor="middle" x="285" y="-57.8" font-family="Times,serif" font-size="14.00">Mat 1:3</text>
</g>
<!-- zerah -->
<g id="node8" class="node"><title>zerah</title>
<g id="a_node8"><a xlink:href="zerah.html" xlink:title="Zerah" target="_top">
<ellipse fill="none" stroke="blue" cx="346" cy="-18" rx="31.3957" ry="18"/>
<text text-anchor="middle" x="346" y="-14.3" font-family="Times,serif" font-size="14.00">Zerah</text>
</a>
</g>
</g>
<!-- judah&#45;&gt;zerah -->
<g id="edge6" class="edge"><title>judah&#45;&gt;zerah</title>
<path fill="none" stroke="black" d="M219.124,-132.921C247.129,-130.361 287.792,-122.483 314,-99 329.131,-85.4426 337.213,-63.7541 341.468,-46.3777"/>
<polygon fill="black" stroke="black" points="344.97,-46.7393 343.651,-36.2269 338.127,-45.2674 344.97,-46.7393"/>
<text text-anchor="middle" x="363" y="-80.3" font-family="Times,serif" font-size="14.00">1 Ch 2:4</text>
<text text-anchor="middle" x="363" y="-65.3" font-family="Times,serif" font-size="14.00">Mat 1:3</text>
</g>
<!-- leah&#45;&gt;judah -->
<g id="edge7" class="edge"><title>leah&#45;&gt;judah</title>
<path fill="none" stroke="black" d="M237.29,-248.847C233.755,-229.28 226.499,-196.676 214,-171 212.136,-167.172 209.836,-163.336 207.382,-159.681"/>
<polygon fill="black" stroke="black" points="210.207,-157.615 201.507,-151.569 204.538,-161.721 210.207,-157.615"/>
<text text-anchor="middle" x="263" y="-197.3" font-family="Times,serif" font-size="14.00">Gen 29:35</text>
</g>
</g>
</svg>
