<?xml version="1.0" encoding="UTF-8" standalone="no"?>
<!DOCTYPE svg PUBLIC "-//W3C//DTD SVG 1.1//EN"
 "http://www.w3.org/Graphics/SVG/1.1/DTD/svg11.dtd">
<!-- Generated by graphviz version 2.38.0 (20140413.2041)
 -->
<!-- Title: ancestry Pages: 1 -->
<svg width="179pt" height="131pt"
 viewBox="0.00 0.00 178.55 131.00" xmlns="http://www.w3.org/2000/svg" xmlns:xlink="http://www.w3.org/1999/xlink">
<g id="graph0" class="graph" transform="scale(1 1) rotate(0) translate(4 127)">
<title>ancestry</title>
<polygon fill="white" stroke="none" points="-4,4 -4,-127 174.546,-127 174.546,4 -4,4"/>
<!-- bathshua -->
<g id="node1" class="node"><title>bathshua</title>
<g id="a_node1"><a xlink:href="bathshua.html" xlink:title="Bathshua" target="_top">
<ellipse fill="none" stroke="red" cx="43.5461" cy="-105" rx="43.5923" ry="18"/>
<text text-anchor="middle" x="43.5461" y="-101.3" font-family="Times,serif" font-size="14.00">Bathshua</text>
</a>
</g>
</g>
<!-- judahs_shelah -->
<g id="node3" class="node"><title>judahs_shelah</title>
<g id="a_node3"><a xlink:href="judahs_shelah.html" xlink:title="Shelah" target="_top">
<ellipse fill="lightblue" stroke="blue" stroke-width="2" cx="89.5461" cy="-18" rx="34.394" ry="18"/>
<text text-anchor="middle" x="89.5461" y="-14.3" font-family="Times,serif" font-size="14.00">Shelah</text>
</a>
</g>
</g>
<!-- bathshua&#45;&gt;judahs_shelah -->
<g id="edge1" class="edge"><title>bathshua&#45;&gt;judahs_shelah</title>
<path fill="none" stroke="black" d="M50.5982,-87.0221C54.8655,-77.1962 60.6155,-64.6962 66.5461,-54 68.4192,-50.6218 70.5053,-47.1385 72.6355,-43.7391"/>
<polygon fill="black" stroke="black" points="75.7552,-45.361 78.2606,-35.0667 69.8824,-41.5517 75.7552,-45.361"/>
<text text-anchor="middle" x="90.5461" y="-57.8" font-family="Times,serif" font-size="14.00">1 Ch 2:3</text>
</g>
<!-- judah -->
<g id="node2" class="node"><title>judah</title>
<g id="a_node2"><a xlink:href="judah.html" xlink:title="Judah" target="_top">
<ellipse fill="none" stroke="blue" cx="136.546" cy="-105" rx="31.3957" ry="18"/>
<text text-anchor="middle" x="136.546" y="-101.3" font-family="Times,serif" font-size="14.00">Judah</text>
</a>
</g>
</g>
<!-- judah&#45;&gt;judahs_shelah -->
<g id="edge2" class="edge"><title>judah&#45;&gt;judahs_shelah</title>
<path fill="none" stroke="black" d="M130.049,-86.9127C126.05,-77.0503 120.55,-64.5503 114.546,-54 112.526,-50.4508 110.229,-46.8208 107.864,-43.3064"/>
<polygon fill="black" stroke="black" points="110.583,-41.088 101.968,-34.9207 104.856,-45.1142 110.583,-41.088"/>
<text text-anchor="middle" x="146.546" y="-57.8" font-family="Times,serif" font-size="14.00">1 Ch 2:3</text>
</g>
</g>
</svg>
