<?xml version="1.0" encoding="UTF-8" standalone="no"?>
<!DOCTYPE svg PUBLIC "-//W3C//DTD SVG 1.1//EN"
 "http://www.w3.org/Graphics/SVG/1.1/DTD/svg11.dtd">
<!-- Generated by graphviz version 2.38.0 (20140413.2041)
 -->
<!-- Title: ancestry Pages: 1 -->
<svg width="190pt" height="131pt"
 viewBox="0.00 0.00 189.95 131.00" xmlns="http://www.w3.org/2000/svg" xmlns:xlink="http://www.w3.org/1999/xlink">
<g id="graph0" class="graph" transform="scale(1 1) rotate(0) translate(4 127)">
<title>ancestry</title>
<polygon fill="white" stroke="none" points="-4,4 -4,-127 185.948,-127 185.948,4 -4,4"/>
<!-- berri -->
<g id="node1" class="node"><title>berri</title>
<g id="a_node1"><a xlink:href="berri.html" xlink:title="Berri" target="_top">
<ellipse fill="none" stroke="blue" cx="123.948" cy="-105" rx="28.6953" ry="18"/>
<text text-anchor="middle" x="123.948" y="-101.3" font-family="Times,serif" font-size="14.00">Berri</text>
</a>
</g>
</g>
<!-- judith -->
<g id="node3" class="node"><title>judith</title>
<g id="a_node3"><a xlink:href="judith.html" xlink:title="Judith" target="_top">
<ellipse fill="lightpink" stroke="red" stroke-width="2" cx="123.948" cy="-18" rx="32.4942" ry="18"/>
<text text-anchor="middle" x="123.948" y="-14.3" font-family="Times,serif" font-size="14.00">Judith</text>
</a>
</g>
</g>
<!-- berri&#45;&gt;judith -->
<g id="edge1" class="edge"><title>berri&#45;&gt;judith</title>
<path fill="none" stroke="black" d="M123.948,-86.799C123.948,-75.1626 123.948,-59.5479 123.948,-46.2368"/>
<polygon fill="black" stroke="black" points="127.448,-46.1754 123.948,-36.1754 120.448,-46.1755 127.448,-46.1754"/>
<text text-anchor="middle" x="152.948" y="-57.8" font-family="Times,serif" font-size="14.00">Gen 26:34</text>
</g>
<!-- esau -->
<g id="node2" class="node"><title>esau</title>
<g id="a_node2"><a xlink:href="esau.html" xlink:title="Esau" target="_top">
<ellipse fill="none" stroke="blue" cx="27.9475" cy="-18" rx="27.8951" ry="18"/>
<text text-anchor="middle" x="27.9475" y="-14.3" font-family="Times,serif" font-size="14.00">Esau</text>
</a>
</g>
</g>
<!-- esau&#45;&gt;judith -->
<g id="edge2" class="edge"><title>esau&#45;&gt;judith</title>
<path fill="none" stroke="red" d="M56.0725,-18C67.8269,-18 79.5813,-18 91.3357,-18"/>
</g>
</g>
</svg>
