<?xml version="1.0" encoding="UTF-8" standalone="no"?>
<!DOCTYPE svg PUBLIC "-//W3C//DTD SVG 1.1//EN"
 "http://www.w3.org/Graphics/SVG/1.1/DTD/svg11.dtd">
<!-- Generated by graphviz version 2.38.0 (20140413.2041)
 -->
<!-- Title: ancestry Pages: 1 -->
<svg width="181pt" height="218pt"
 viewBox="0.00 0.00 180.89 218.00" xmlns="http://www.w3.org/2000/svg" xmlns:xlink="http://www.w3.org/1999/xlink">
<g id="graph0" class="graph" transform="scale(1 1) rotate(0) translate(4 214)">
<title>ancestry</title>
<polygon fill="white" stroke="none" points="-4,4 -4,-214 176.894,-214 176.894,4 -4,4"/>
<!-- kemuel -->
<g id="node1" class="node"><title>kemuel</title>
<g id="a_node1"><a xlink:href="kemuel.html" xlink:title="Kemuel" target="_top">
<ellipse fill="lightblue" stroke="blue" stroke-width="2" cx="84.4971" cy="-105" rx="38.9931" ry="18"/>
<text text-anchor="middle" x="84.4971" y="-101.3" font-family="Times,serif" font-size="14.00">Kemuel</text>
</a>
</g>
</g>
<!-- kemuels_aram -->
<g id="node2" class="node"><title>kemuels_aram</title>
<g id="a_node2"><a xlink:href="kemuels_aram.html" xlink:title="Aram" target="_top">
<ellipse fill="none" stroke="blue" cx="84.4971" cy="-18" rx="31.3957" ry="18"/>
<text text-anchor="middle" x="84.4971" y="-14.3" font-family="Times,serif" font-size="14.00">Aram</text>
</a>
</g>
</g>
<!-- kemuel&#45;&gt;kemuels_aram -->
<g id="edge1" class="edge"><title>kemuel&#45;&gt;kemuels_aram</title>
<path fill="none" stroke="black" d="M84.4971,-86.799C84.4971,-75.1626 84.4971,-59.5479 84.4971,-46.2368"/>
<polygon fill="black" stroke="black" points="87.9972,-46.1754 84.4971,-36.1754 80.9972,-46.1755 87.9972,-46.1754"/>
<text text-anchor="middle" x="113.497" y="-57.8" font-family="Times,serif" font-size="14.00">Gen 22:21</text>
</g>
<!-- milcah -->
<g id="node3" class="node"><title>milcah</title>
<g id="a_node3"><a xlink:href="milcah.html" xlink:title="Milcah" target="_top">
<ellipse fill="none" stroke="red" cx="136.497" cy="-192" rx="36.2938" ry="18"/>
<text text-anchor="middle" x="136.497" y="-188.3" font-family="Times,serif" font-size="14.00">Milcah</text>
</a>
</g>
</g>
<!-- milcah&#45;&gt;kemuel -->
<g id="edge2" class="edge"><title>milcah&#45;&gt;kemuel</title>
<path fill="none" stroke="black" d="M126.471,-174.611C118.966,-162.343 108.562,-145.336 99.9896,-131.324"/>
<polygon fill="black" stroke="black" points="102.874,-129.332 94.6699,-122.629 96.9029,-132.985 102.874,-129.332"/>
<text text-anchor="middle" x="143.497" y="-144.8" font-family="Times,serif" font-size="14.00">Gen 22:21</text>
</g>
<!-- terahs_nahor -->
<g id="node4" class="node"><title>terahs_nahor</title>
<g id="a_node4"><a xlink:href="terahs_nahor.html" xlink:title="Nahor" target="_top">
<ellipse fill="none" stroke="blue" cx="32.4971" cy="-192" rx="32.4942" ry="18"/>
<text text-anchor="middle" x="32.4971" y="-188.3" font-family="Times,serif" font-size="14.00">Nahor</text>
</a>
</g>
</g>
<!-- terahs_nahor&#45;&gt;kemuel -->
<g id="edge3" class="edge"><title>terahs_nahor&#45;&gt;kemuel</title>
<path fill="none" stroke="black" d="M34.4382,-173.824C36.176,-163.697 39.4336,-150.959 45.4971,-141 48.454,-136.143 52.2917,-131.572 56.4038,-127.436"/>
<polygon fill="black" stroke="black" points="58.9682,-129.833 63.9712,-120.494 54.2361,-124.675 58.9682,-129.833"/>
<text text-anchor="middle" x="74.4971" y="-144.8" font-family="Times,serif" font-size="14.00">Gen 22:21</text>
</g>
<!-- terahs_nahor&#45;&gt;milcah -->
<g id="edge4" class="edge"><title>terahs_nahor&#45;&gt;milcah</title>
<path fill="none" stroke="red" d="M64.9971,-192C76.6345,-192 88.2719,-192 99.9092,-192"/>
</g>
</g>
</svg>
