<?xml version="1.0" encoding="UTF-8" standalone="no"?>
<!DOCTYPE svg PUBLIC "-//W3C//DTD SVG 1.1//EN"
 "http://www.w3.org/Graphics/SVG/1.1/DTD/svg11.dtd">
<!-- Generated by graphviz version 2.38.0 (20140413.2041)
 -->
<!-- Title: ancestry Pages: 1 -->
<svg width="860pt" height="131pt"
 viewBox="0.00 0.00 860.45 131.00" xmlns="http://www.w3.org/2000/svg" xmlns:xlink="http://www.w3.org/1999/xlink">
<g id="graph0" class="graph" transform="scale(1 1) rotate(0) translate(4 127)">
<title>ancestry</title>
<polygon fill="white" stroke="none" points="-4,4 -4,-127 856.447,-127 856.447,4 -4,4"/>
<!-- abram -->
<g id="node1" class="node"><title>abram</title>
<g id="a_node1"><a xlink:href="abram.html" xlink:title="Abraham (was Abram)" target="_top">
<ellipse fill="none" stroke="blue" cx="345.447" cy="-105" rx="92.8835" ry="18"/>
<text text-anchor="middle" x="345.447" y="-101.3" font-family="Times,serif" font-size="14.00">Abraham (was Abram)</text>
</a>
</g>
</g>
<!-- ishbak -->
<g id="node2" class="node"><title>ishbak</title>
<g id="a_node2"><a xlink:href="ishbak.html" xlink:title="Ishbak" target="_top">
<ellipse fill="none" stroke="blue" cx="34.4469" cy="-18" rx="34.394" ry="18"/>
<text text-anchor="middle" x="34.4469" y="-14.3" font-family="Times,serif" font-size="14.00">Ishbak</text>
</a>
</g>
</g>
<!-- abram&#45;&gt;ishbak -->
<g id="edge1" class="edge"><title>abram&#45;&gt;ishbak</title>
<path fill="none" stroke="black" d="M256.941,-99.4738C172.055,-94.249 54.5804,-84.3501 39.4469,-69 33.5902,-63.0594 31.4112,-54.5804 30.9796,-46.2883"/>
<polygon fill="black" stroke="black" points="34.4833,-46.1704 31.2222,-36.09 27.4853,-46.0039 34.4833,-46.1704"/>
<text text-anchor="middle" x="64.9469" y="-57.8" font-family="Times,serif" font-size="14.00">Gen 25:2</text>
</g>
<!-- jokshan -->
<g id="node3" class="node"><title>jokshan</title>
<g id="a_node3"><a xlink:href="jokshan.html" xlink:title="Jokshan" target="_top">
<ellipse fill="none" stroke="blue" cx="271.447" cy="-18" rx="38.9931" ry="18"/>
<text text-anchor="middle" x="271.447" y="-14.3" font-family="Times,serif" font-size="14.00">Jokshan</text>
</a>
</g>
</g>
<!-- abram&#45;&gt;jokshan -->
<g id="edge2" class="edge"><title>abram&#45;&gt;jokshan</title>
<path fill="none" stroke="black" d="M277.115,-92.7031C264.687,-87.5028 253.217,-79.9512 245.447,-69 239.612,-60.7759 242.689,-51.0698 248.449,-42.4079"/>
<polygon fill="black" stroke="black" points="251.217,-44.5496 254.589,-34.5056 245.689,-40.2547 251.217,-44.5496"/>
<text text-anchor="middle" x="270.947" y="-57.8" font-family="Times,serif" font-size="14.00">Gen 25:2</text>
</g>
<!-- keturah -->
<g id="node4" class="node"><title>keturah</title>
<g id="a_node4"><a xlink:href="keturah.html" xlink:title="Keturah" target="_top">
<ellipse fill="lightpink" stroke="red" stroke-width="2" cx="512.447" cy="-105" rx="38.9931" ry="18"/>
<text text-anchor="middle" x="512.447" y="-101.3" font-family="Times,serif" font-size="14.00">Keturah</text>
</a>
</g>
</g>
<!-- abram&#45;&gt;keturah -->
<g id="edge13" class="edge"><title>abram&#45;&gt;keturah</title>
<path fill="none" stroke="red" d="M438.406,-105C450.071,-105 461.737,-105 473.402,-105"/>
</g>
<!-- medan -->
<g id="node5" class="node"><title>medan</title>
<g id="a_node5"><a xlink:href="medan.html" xlink:title="Medan" target="_top">
<ellipse fill="none" stroke="blue" cx="421.447" cy="-18" rx="35.9954" ry="18"/>
<text text-anchor="middle" x="421.447" y="-14.3" font-family="Times,serif" font-size="14.00">Medan</text>
</a>
</g>
</g>
<!-- abram&#45;&gt;medan -->
<g id="edge3" class="edge"><title>abram&#45;&gt;medan</title>
<path fill="none" stroke="black" d="M360.462,-87.2067C371.996,-74.3069 388.055,-56.3458 400.799,-42.093"/>
<polygon fill="black" stroke="black" points="403.432,-44.3996 407.488,-34.612 398.213,-39.7338 403.432,-44.3996"/>
<text text-anchor="middle" x="413.947" y="-57.8" font-family="Times,serif" font-size="14.00">Gen 25:2</text>
</g>
<!-- midian -->
<g id="node6" class="node"><title>midian</title>
<g id="a_node6"><a xlink:href="midian.html" xlink:title="Midian" target="_top">
<ellipse fill="none" stroke="blue" cx="605.447" cy="-18" rx="36.2938" ry="18"/>
<text text-anchor="middle" x="605.447" y="-14.3" font-family="Times,serif" font-size="14.00">Midian</text>
</a>
</g>
</g>
<!-- abram&#45;&gt;midian -->
<g id="edge4" class="edge"><title>abram&#45;&gt;midian</title>
<path fill="none" stroke="black" d="M415.881,-93.1513C455.362,-86.4064 500.236,-77.4392 518.447,-69 528.209,-64.4763 528.4,-59.8223 537.447,-54 547.81,-47.3312 559.597,-40.8974 570.413,-35.4049"/>
<polygon fill="black" stroke="black" points="572.208,-38.421 579.608,-30.8381 569.095,-32.1516 572.208,-38.421"/>
<text text-anchor="middle" x="562.947" y="-57.8" font-family="Times,serif" font-size="14.00">Gen 25:2</text>
</g>
<!-- shuah -->
<g id="node7" class="node"><title>shuah</title>
<g id="a_node7"><a xlink:href="shuah.html" xlink:title="Shuah" target="_top">
<ellipse fill="none" stroke="blue" cx="143.447" cy="-18" rx="32.4942" ry="18"/>
<text text-anchor="middle" x="143.447" y="-14.3" font-family="Times,serif" font-size="14.00">Shuah</text>
</a>
</g>
</g>
<!-- abram&#45;&gt;shuah -->
<g id="edge5" class="edge"><title>abram&#45;&gt;shuah</title>
<path fill="none" stroke="black" d="M252.772,-103.181C191.003,-100.438 117.587,-92.1824 97.4469,-69 87.8375,-57.9392 98.3843,-45.8401 111.789,-36.3145"/>
<polygon fill="black" stroke="black" points="113.874,-39.1337 120.35,-30.7484 110.058,-33.265 113.874,-39.1337"/>
<text text-anchor="middle" x="122.947" y="-57.8" font-family="Times,serif" font-size="14.00">Gen 25:2</text>
</g>
<!-- zimran -->
<g id="node8" class="node"><title>zimran</title>
<g id="a_node8"><a xlink:href="zimran.html" xlink:title="Zimran" target="_top">
<ellipse fill="none" stroke="blue" cx="762.447" cy="-18" rx="37.0935" ry="18"/>
<text text-anchor="middle" x="762.447" y="-14.3" font-family="Times,serif" font-size="14.00">Zimran</text>
</a>
</g>
</g>
<!-- abram&#45;&gt;zimran -->
<g id="edge6" class="edge"><title>abram&#45;&gt;zimran</title>
<path fill="none" stroke="black" d="M416.482,-93.3016C432.256,-91.0796 448.905,-88.8532 464.447,-87 547.794,-77.062 571.353,-90.6631 652.447,-69 652.51,-68.9832 695.076,-49.6321 727.232,-35.0119"/>
<polygon fill="black" stroke="black" points="728.745,-38.1689 736.399,-30.8437 725.847,-31.7967 728.745,-38.1689"/>
<text text-anchor="middle" x="710.947" y="-57.8" font-family="Times,serif" font-size="14.00">Gen 25:2</text>
</g>
<!-- keturah&#45;&gt;ishbak -->
<g id="edge7" class="edge"><title>keturah&#45;&gt;ishbak</title>
<path fill="none" stroke="black" d="M480.632,-94.4125C470.153,-91.5955 458.382,-88.7924 447.447,-87 333.14,-68.2641 300.534,-94.0685 187.447,-69 169.316,-64.9808 166.001,-60.0623 148.447,-54 123.84,-45.502 95.9026,-36.908 73.843,-30.3626"/>
<polygon fill="black" stroke="black" points="74.7357,-26.977 64.1542,-27.5071 72.7568,-33.6914 74.7357,-26.977"/>
<text text-anchor="middle" x="212.947" y="-57.8" font-family="Times,serif" font-size="14.00">Gen 25:2</text>
</g>
<!-- keturah&#45;&gt;jokshan -->
<g id="edge8" class="edge"><title>keturah&#45;&gt;jokshan</title>
<path fill="none" stroke="black" d="M493.603,-88.9461C477.025,-75.9681 453.944,-58.6112 443.447,-54 421.363,-44.2988 360.818,-33.2116 317.825,-26.1624"/>
<polygon fill="black" stroke="black" points="318.283,-22.691 307.852,-24.5476 317.164,-29.601 318.283,-22.691"/>
<text text-anchor="middle" x="491.947" y="-57.8" font-family="Times,serif" font-size="14.00">Gen 25:2</text>
</g>
<!-- keturah&#45;&gt;medan -->
<g id="edge9" class="edge"><title>keturah&#45;&gt;medan</title>
<path fill="none" stroke="black" d="M546.653,-96.2117C575.147,-88.1234 608.653,-73.859 592.447,-54 576.894,-34.9416 512.292,-25.9796 467.109,-21.9731"/>
<polygon fill="black" stroke="black" points="467.193,-18.468 456.937,-21.1247 466.611,-25.4438 467.193,-18.468"/>
<text text-anchor="middle" x="622.947" y="-57.8" font-family="Times,serif" font-size="14.00">Gen 25:2</text>
</g>
<!-- keturah&#45;&gt;midian -->
<g id="edge10" class="edge"><title>keturah&#45;&gt;midian</title>
<path fill="none" stroke="black" d="M551.671,-103.868C610.329,-102.744 716.583,-96.8068 740.447,-69 744.789,-63.9409 744.527,-59.2725 740.447,-54 729.388,-39.7086 685.33,-30.184 650.513,-24.7261"/>
<polygon fill="black" stroke="black" points="650.922,-21.2484 640.514,-23.228 649.885,-28.1711 650.922,-21.2484"/>
<text text-anchor="middle" x="768.947" y="-57.8" font-family="Times,serif" font-size="14.00">Gen 25:2</text>
</g>
<!-- keturah&#45;&gt;shuah -->
<g id="edge11" class="edge"><title>keturah&#45;&gt;shuah</title>
<path fill="none" stroke="black" d="M480.21,-94.8171C469.809,-92.0566 458.192,-89.1843 447.447,-87 393.305,-75.9934 376.916,-86.3039 324.447,-69 311.04,-64.5784 309.668,-58.9515 296.447,-54 285.868,-50.038 224.796,-36.523 183.085,-27.4936"/>
<polygon fill="black" stroke="black" points="183.715,-24.049 173.202,-25.3595 182.238,-30.8913 183.715,-24.049"/>
<text text-anchor="middle" x="349.947" y="-57.8" font-family="Times,serif" font-size="14.00">Gen 25:2</text>
</g>
<!-- keturah&#45;&gt;zimran -->
<g id="edge12" class="edge"><title>keturah&#45;&gt;zimran</title>
<path fill="none" stroke="black" d="M550.956,-102.08C625.206,-97.9825 782.305,-87.2376 798.447,-69 806.525,-59.8726 800.279,-48.964 790.86,-39.6683"/>
<polygon fill="black" stroke="black" points="793.037,-36.922 783.223,-32.9305 788.406,-42.1711 793.037,-36.922"/>
<text text-anchor="middle" x="826.947" y="-57.8" font-family="Times,serif" font-size="14.00">Gen 25:2</text>
</g>
</g>
</svg>
