<?xml version="1.0" encoding="UTF-8" standalone="no"?>
<!DOCTYPE svg PUBLIC "-//W3C//DTD SVG 1.1//EN"
 "http://www.w3.org/Graphics/SVG/1.1/DTD/svg11.dtd">
<!-- Generated by graphviz version 2.38.0 (20140413.2041)
 -->
<!-- Title: ancestry Pages: 1 -->
<svg width="641pt" height="218pt"
 viewBox="0.00 0.00 640.59 218.00" xmlns="http://www.w3.org/2000/svg" xmlns:xlink="http://www.w3.org/1999/xlink">
<g id="graph0" class="graph" transform="scale(1 1) rotate(0) translate(4 214)">
<title>ancestry</title>
<polygon fill="white" stroke="none" points="-4,4 -4,-214 636.592,-214 636.592,4 -4,4"/>
<!-- eshtaolites -->
<g id="node1" class="node"><title>eshtaolites</title>
<g id="a_node1"><a xlink:href="eshtaolites.html" xlink:title="Eshtaolites" target="_top">
<ellipse fill="none" stroke="black" cx="49.3956" cy="-18" rx="49.2915" ry="18"/>
<text text-anchor="middle" x="49.3956" y="-14.3" font-family="Times,serif" font-size="14.00">Eshtaolites</text>
</a>
</g>
</g>
<!-- ithrites -->
<g id="node2" class="node"><title>ithrites</title>
<g id="a_node2"><a xlink:href="ithrites.html" xlink:title="Ithrites" target="_top">
<ellipse fill="none" stroke="black" cx="152.396" cy="-18" rx="35.9954" ry="18"/>
<text text-anchor="middle" x="152.396" y="-14.3" font-family="Times,serif" font-size="14.00">Ithrites</text>
</a>
</g>
</g>
<!-- kiriath_jearim -->
<g id="node3" class="node"><title>kiriath_jearim</title>
<g id="a_node3"><a xlink:href="kiriath_jearim.html" xlink:title="Kiriath Jearim" target="_top">
<ellipse fill="lightblue" stroke="blue" stroke-width="2" cx="306.396" cy="-105" rx="61.99" ry="18"/>
<text text-anchor="middle" x="306.396" y="-101.3" font-family="Times,serif" font-size="14.00">Kiriath Jearim</text>
</a>
</g>
</g>
<!-- kiriath_jearim&#45;&gt;eshtaolites -->
<g id="edge7" class="edge"><title>kiriath_jearim&#45;&gt;eshtaolites</title>
<path fill="none" stroke="black" stroke-dasharray="1,5" d="M250.078,-97.34C215.834,-92.1253 171.668,-83.2954 134.396,-69 115.153,-61.6198 95.2133,-50.1251 79.4864,-40.017"/>
<polygon fill="black" stroke="black" points="81.0279,-36.8415 70.7505,-34.2673 77.1794,-42.6887 81.0279,-36.8415"/>
<text text-anchor="middle" x="161.896" y="-57.8" font-family="Times,serif" font-size="14.00">1 Ch 2:53</text>
</g>
<!-- kiriath_jearim&#45;&gt;ithrites -->
<g id="edge2" class="edge"><title>kiriath_jearim&#45;&gt;ithrites</title>
<path fill="none" stroke="black" stroke-dasharray="1,5" d="M265.781,-91.3622C249.6,-85.5722 231.122,-77.9839 215.396,-69 201.639,-61.1414 187.701,-50.4271 176.445,-40.9322"/>
<polygon fill="black" stroke="black" points="178.618,-38.1841 168.764,-34.2922 174.04,-43.4797 178.618,-38.1841"/>
<text text-anchor="middle" x="242.896" y="-57.8" font-family="Times,serif" font-size="14.00">1 Ch 2:53</text>
</g>
<!-- mishraites -->
<g id="node4" class="node"><title>mishraites</title>
<g id="a_node4"><a xlink:href="mishraites.html" xlink:title="Mishraites" target="_top">
<ellipse fill="none" stroke="black" cx="254.396" cy="-18" rx="48.1917" ry="18"/>
<text text-anchor="middle" x="254.396" y="-14.3" font-family="Times,serif" font-size="14.00">Mishraites</text>
</a>
</g>
</g>
<!-- kiriath_jearim&#45;&gt;mishraites -->
<g id="edge5" class="edge"><title>kiriath_jearim&#45;&gt;mishraites</title>
<path fill="none" stroke="black" stroke-dasharray="1,5" d="M294.363,-87.1154C290.435,-81.4324 286.127,-75.0085 282.396,-69 277.566,-61.2246 272.592,-52.5802 268.2,-44.6957"/>
<polygon fill="black" stroke="black" points="271.242,-42.9627 263.356,-35.8865 265.108,-46.3356 271.242,-42.9627"/>
<text text-anchor="middle" x="309.896" y="-57.8" font-family="Times,serif" font-size="14.00">1 Ch 2:53</text>
</g>
<!-- puthites -->
<g id="node5" class="node"><title>puthites</title>
<g id="a_node5"><a xlink:href="puthites.html" xlink:title="Puthites" target="_top">
<ellipse fill="none" stroke="black" cx="359.396" cy="-18" rx="38.9931" ry="18"/>
<text text-anchor="middle" x="359.396" y="-14.3" font-family="Times,serif" font-size="14.00">Puthites</text>
</a>
</g>
</g>
<!-- kiriath_jearim&#45;&gt;puthites -->
<g id="edge3" class="edge"><title>kiriath_jearim&#45;&gt;puthites</title>
<path fill="none" stroke="black" stroke-dasharray="1,5" d="M322.982,-87.4101C328.007,-81.8507 333.28,-75.4251 337.396,-69 342.071,-61.7004 346.213,-53.239 349.605,-45.3762"/>
<polygon fill="black" stroke="black" points="352.947,-46.4504 353.486,-35.8693 346.466,-43.8049 352.947,-46.4504"/>
<text text-anchor="middle" x="372.896" y="-57.8" font-family="Times,serif" font-size="14.00">1 Ch 2:53</text>
</g>
<!-- shumathites -->
<g id="node7" class="node"><title>shumathites</title>
<g id="a_node7"><a xlink:href="shumathites.html" xlink:title="Shumathites" target="_top">
<ellipse fill="none" stroke="black" cx="471.396" cy="-18" rx="54.6905" ry="18"/>
<text text-anchor="middle" x="471.396" y="-14.3" font-family="Times,serif" font-size="14.00">Shumathites</text>
</a>
</g>
</g>
<!-- kiriath_jearim&#45;&gt;shumathites -->
<g id="edge4" class="edge"><title>kiriath_jearim&#45;&gt;shumathites</title>
<path fill="none" stroke="black" stroke-dasharray="1,5" d="M349.057,-91.8351C366.697,-86.0298 387.04,-78.3036 404.396,-69 418.739,-61.3115 433.37,-50.7663 445.286,-41.3416"/>
<polygon fill="black" stroke="black" points="447.495,-44.0571 453.065,-35.0448 443.09,-38.6162 447.495,-44.0571"/>
<text text-anchor="middle" x="455.896" y="-57.8" font-family="Times,serif" font-size="14.00">1 Ch 2:53</text>
</g>
<!-- zirathites -->
<g id="node8" class="node"><title>zirathites</title>
<g id="a_node8"><a xlink:href="zirathites.html" xlink:title="Zirathites" target="_top">
<ellipse fill="none" stroke="black" cx="588.396" cy="-18" rx="44.393" ry="18"/>
<text text-anchor="middle" x="588.396" y="-14.3" font-family="Times,serif" font-size="14.00">Zirathites</text>
</a>
</g>
</g>
<!-- kiriath_jearim&#45;&gt;zirathites -->
<g id="edge6" class="edge"><title>kiriath_jearim&#45;&gt;zirathites</title>
<path fill="none" stroke="black" stroke-dasharray="1,5" d="M362.04,-97.1903C398.359,-91.7887 446.455,-82.8108 487.396,-69 510.975,-61.0458 536.055,-48.6535 555.325,-38.1964"/>
<polygon fill="black" stroke="black" points="557.225,-41.1454 564.285,-33.2463 553.84,-35.0182 557.225,-41.1454"/>
<text text-anchor="middle" x="549.896" y="-57.8" font-family="Times,serif" font-size="14.00">1 Ch 2:53</text>
</g>
<!-- shobal -->
<g id="node6" class="node"><title>shobal</title>
<g id="a_node6"><a xlink:href="shobal.html" xlink:title="Shobal" target="_top">
<ellipse fill="none" stroke="blue" cx="306.396" cy="-192" rx="35.194" ry="18"/>
<text text-anchor="middle" x="306.396" y="-188.3" font-family="Times,serif" font-size="14.00">Shobal</text>
</a>
</g>
</g>
<!-- shobal&#45;&gt;kiriath_jearim -->
<g id="edge1" class="edge"><title>shobal&#45;&gt;kiriath_jearim</title>
<path fill="none" stroke="black" d="M306.396,-173.799C306.396,-162.163 306.396,-146.548 306.396,-133.237"/>
<polygon fill="black" stroke="black" points="309.896,-133.175 306.396,-123.175 302.896,-133.175 309.896,-133.175"/>
<text text-anchor="middle" x="333.896" y="-144.8" font-family="Times,serif" font-size="14.00">1 Ch 2:50</text>
</g>
</g>
</svg>
