<?xml version="1.0" encoding="UTF-8" standalone="no"?>
<!DOCTYPE svg PUBLIC "-//W3C//DTD SVG 1.1//EN"
 "http://www.w3.org/Graphics/SVG/1.1/DTD/svg11.dtd">
<!-- Generated by graphviz version 2.38.0 (20140413.2041)
 -->
<!-- Title: ancestry Pages: 1 -->
<svg width="337pt" height="218pt"
 viewBox="0.00 0.00 337.14 218.00" xmlns="http://www.w3.org/2000/svg" xmlns:xlink="http://www.w3.org/1999/xlink">
<g id="graph0" class="graph" transform="scale(1 1) rotate(0) translate(4 214)">
<title>ancestry</title>
<polygon fill="white" stroke="none" points="-4,4 -4,-214 333.144,-214 333.144,4 -4,4"/>
<!-- amram -->
<g id="node1" class="node"><title>amram</title>
<g id="a_node1"><a xlink:href="amram.html" xlink:title="Amram" target="_top">
<ellipse fill="none" stroke="blue" cx="38.3466" cy="-18" rx="38.1938" ry="18"/>
<text text-anchor="middle" x="38.3466" y="-14.3" font-family="Times,serif" font-size="14.00">Amram</text>
</a>
</g>
</g>
<!-- hebron -->
<g id="node2" class="node"><title>hebron</title>
<g id="a_node2"><a xlink:href="hebron.html" xlink:title="Hebron" target="_top">
<ellipse fill="none" stroke="blue" cx="131.347" cy="-18" rx="37.0935" ry="18"/>
<text text-anchor="middle" x="131.347" y="-14.3" font-family="Times,serif" font-size="14.00">Hebron</text>
</a>
</g>
</g>
<!-- izhar -->
<g id="node3" class="node"><title>izhar</title>
<g id="a_node3"><a xlink:href="izhar.html" xlink:title="Izhar" target="_top">
<ellipse fill="none" stroke="blue" cx="215.347" cy="-18" rx="28.6953" ry="18"/>
<text text-anchor="middle" x="215.347" y="-14.3" font-family="Times,serif" font-size="14.00">Izhar</text>
</a>
</g>
</g>
<!-- kohath -->
<g id="node4" class="node"><title>kohath</title>
<g id="a_node4"><a xlink:href="kohath.html" xlink:title="Kohath" target="_top">
<ellipse fill="lightblue" stroke="blue" stroke-width="2" cx="173.347" cy="-105" rx="36.2938" ry="18"/>
<text text-anchor="middle" x="173.347" y="-101.3" font-family="Times,serif" font-size="14.00">Kohath</text>
</a>
</g>
</g>
<!-- kohath&#45;&gt;amram -->
<g id="edge1" class="edge"><title>kohath&#45;&gt;amram</title>
<path fill="none" stroke="black" d="M145.323,-93.2495C130.548,-87.0559 112.415,-78.6011 97.3466,-69 84.8944,-61.066 72.2532,-50.722 61.8832,-41.5026"/>
<polygon fill="black" stroke="black" points="64.1895,-38.8691 54.4366,-34.7302 59.4797,-44.0477 64.1895,-38.8691"/>
<text text-anchor="middle" x="118.847" y="-57.8" font-family="Times,serif" font-size="14.00">Ex 6:18</text>
</g>
<!-- kohath&#45;&gt;hebron -->
<g id="edge2" class="edge"><title>kohath&#45;&gt;hebron</title>
<path fill="none" stroke="black" d="M161.582,-87.7118C157.718,-81.9619 153.588,-75.3456 150.347,-69 146.587,-61.64 143.145,-53.3542 140.254,-45.676"/>
<polygon fill="black" stroke="black" points="143.473,-44.2834 136.791,-36.0611 136.887,-46.6555 143.473,-44.2834"/>
<text text-anchor="middle" x="171.847" y="-57.8" font-family="Times,serif" font-size="14.00">Ex 6:18</text>
</g>
<!-- kohath&#45;&gt;izhar -->
<g id="edge3" class="edge"><title>kohath&#45;&gt;izhar</title>
<path fill="none" stroke="black" d="M183.27,-87.4593C186.606,-81.6892 190.26,-75.1247 193.347,-69 197.188,-61.378 201.047,-52.9354 204.438,-45.1912"/>
<polygon fill="black" stroke="black" points="207.711,-46.4393 208.444,-35.8698 201.28,-43.675 207.711,-46.4393"/>
<text text-anchor="middle" x="222.847" y="-57.8" font-family="Times,serif" font-size="14.00">Ex 6:18</text>
</g>
<!-- uzziel -->
<g id="node6" class="node"><title>uzziel</title>
<g id="a_node6"><a xlink:href="uzziel.html" xlink:title="Uzziel" target="_top">
<ellipse fill="none" stroke="blue" cx="295.347" cy="-18" rx="33.5952" ry="18"/>
<text text-anchor="middle" x="295.347" y="-14.3" font-family="Times,serif" font-size="14.00">Uzziel</text>
</a>
</g>
</g>
<!-- kohath&#45;&gt;uzziel -->
<g id="edge4" class="edge"><title>kohath&#45;&gt;uzziel</title>
<path fill="none" stroke="black" d="M201.809,-93.7183C216.446,-87.7084 234.146,-79.2777 248.347,-69 258.648,-61.5448 268.529,-51.6146 276.55,-42.5692"/>
<polygon fill="black" stroke="black" points="279.243,-44.8063 283.084,-34.9324 273.924,-40.2556 279.243,-44.8063"/>
<text text-anchor="middle" x="287.847" y="-57.8" font-family="Times,serif" font-size="14.00">Ex 6:18</text>
</g>
<!-- levi -->
<g id="node5" class="node"><title>levi</title>
<g id="a_node5"><a xlink:href="levi.html" xlink:title="Levi" target="_top">
<ellipse fill="none" stroke="blue" cx="173.347" cy="-192" rx="27" ry="18"/>
<text text-anchor="middle" x="173.347" y="-188.3" font-family="Times,serif" font-size="14.00">Levi</text>
</a>
</g>
</g>
<!-- levi&#45;&gt;kohath -->
<g id="edge5" class="edge"><title>levi&#45;&gt;kohath</title>
<path fill="none" stroke="black" d="M173.347,-173.799C173.347,-162.163 173.347,-146.548 173.347,-133.237"/>
<polygon fill="black" stroke="black" points="176.847,-133.175 173.347,-123.175 169.847,-133.175 176.847,-133.175"/>
<text text-anchor="middle" x="194.847" y="-144.8" font-family="Times,serif" font-size="14.00">Ex 6:16</text>
</g>
</g>
</svg>
