<?xml version="1.0" encoding="UTF-8" standalone="no"?>
<!DOCTYPE svg PUBLIC "-//W3C//DTD SVG 1.1//EN"
 "http://www.w3.org/Graphics/SVG/1.1/DTD/svg11.dtd">
<!-- Generated by graphviz version 2.38.0 (20140413.2041)
 -->
<!-- Title: ancestry Pages: 1 -->
<svg width="270pt" height="218pt"
 viewBox="0.00 0.00 269.84 218.00" xmlns="http://www.w3.org/2000/svg" xmlns:xlink="http://www.w3.org/1999/xlink">
<g id="graph0" class="graph" transform="scale(1 1) rotate(0) translate(4 214)">
<title>ancestry</title>
<polygon fill="white" stroke="none" points="-4,4 -4,-214 265.843,-214 265.843,4 -4,4"/>
<!-- abiasaph -->
<g id="node1" class="node"><title>abiasaph</title>
<g id="a_node1"><a xlink:href="abiasaph.html" xlink:title="Abiasaph" target="_top">
<ellipse fill="none" stroke="blue" cx="44.1961" cy="-18" rx="44.393" ry="18"/>
<text text-anchor="middle" x="44.1961" y="-14.3" font-family="Times,serif" font-size="14.00">Abiasaph</text>
</a>
</g>
</g>
<!-- assir -->
<g id="node2" class="node"><title>assir</title>
<g id="a_node2"><a xlink:href="assir.html" xlink:title="Assir" target="_top">
<ellipse fill="none" stroke="blue" cx="135.196" cy="-18" rx="29.4969" ry="18"/>
<text text-anchor="middle" x="135.196" y="-14.3" font-family="Times,serif" font-size="14.00">Assir</text>
</a>
</g>
</g>
<!-- elkanah -->
<g id="node3" class="node"><title>elkanah</title>
<g id="a_node3"><a xlink:href="elkanah.html" xlink:title="Elkanah" target="_top">
<ellipse fill="none" stroke="blue" cx="222.196" cy="-18" rx="39.7935" ry="18"/>
<text text-anchor="middle" x="222.196" y="-14.3" font-family="Times,serif" font-size="14.00">Elkanah</text>
</a>
</g>
</g>
<!-- izhar -->
<g id="node4" class="node"><title>izhar</title>
<g id="a_node4"><a xlink:href="izhar.html" xlink:title="Izhar" target="_top">
<ellipse fill="none" stroke="blue" cx="135.196" cy="-192" rx="28.6953" ry="18"/>
<text text-anchor="middle" x="135.196" y="-188.3" font-family="Times,serif" font-size="14.00">Izhar</text>
</a>
</g>
</g>
<!-- korah -->
<g id="node5" class="node"><title>korah</title>
<g id="a_node5"><a xlink:href="korah.html" xlink:title="Korah" target="_top">
<ellipse fill="lightblue" stroke="blue" stroke-width="2" cx="135.196" cy="-105" rx="32.4942" ry="18"/>
<text text-anchor="middle" x="135.196" y="-101.3" font-family="Times,serif" font-size="14.00">Korah</text>
</a>
</g>
</g>
<!-- izhar&#45;&gt;korah -->
<g id="edge1" class="edge"><title>izhar&#45;&gt;korah</title>
<path fill="none" stroke="black" d="M135.196,-173.799C135.196,-162.163 135.196,-146.548 135.196,-133.237"/>
<polygon fill="black" stroke="black" points="138.696,-133.175 135.196,-123.175 131.696,-133.175 138.696,-133.175"/>
<text text-anchor="middle" x="156.696" y="-144.8" font-family="Times,serif" font-size="14.00">Ex 6:21</text>
</g>
<!-- korah&#45;&gt;abiasaph -->
<g id="edge2" class="edge"><title>korah&#45;&gt;abiasaph</title>
<path fill="none" stroke="black" d="M115.266,-90.5656C106.618,-84.3864 96.575,-76.7219 88.1961,-69 79.6905,-61.1614 71.1139,-51.8144 63.8205,-43.3347"/>
<polygon fill="black" stroke="black" points="66.383,-40.944 57.2652,-35.548 61.0279,-45.4522 66.383,-40.944"/>
<text text-anchor="middle" x="109.696" y="-57.8" font-family="Times,serif" font-size="14.00">Ex 6:24</text>
</g>
<!-- korah&#45;&gt;assir -->
<g id="edge3" class="edge"><title>korah&#45;&gt;assir</title>
<path fill="none" stroke="black" d="M135.196,-86.799C135.196,-75.1626 135.196,-59.5479 135.196,-46.2368"/>
<polygon fill="black" stroke="black" points="138.696,-46.1754 135.196,-36.1754 131.696,-46.1755 138.696,-46.1754"/>
<text text-anchor="middle" x="156.696" y="-57.8" font-family="Times,serif" font-size="14.00">Ex 6:24</text>
</g>
<!-- korah&#45;&gt;elkanah -->
<g id="edge4" class="edge"><title>korah&#45;&gt;elkanah</title>
<path fill="none" stroke="black" d="M155.3,-90.7502C163.98,-84.6051 174.001,-76.9163 182.196,-69 190.112,-61.354 197.887,-52.1442 204.447,-43.7234"/>
<polygon fill="black" stroke="black" points="207.312,-45.7372 210.562,-35.6529 201.733,-41.5098 207.312,-45.7372"/>
<text text-anchor="middle" x="217.696" y="-57.8" font-family="Times,serif" font-size="14.00">Ex 6:24</text>
</g>
</g>
</svg>
