<?xml version="1.0" encoding="UTF-8" standalone="no"?>
<!DOCTYPE svg PUBLIC "-//W3C//DTD SVG 1.1//EN"
 "http://www.w3.org/Graphics/SVG/1.1/DTD/svg11.dtd">
<!-- Generated by graphviz version 2.38.0 (20140413.2041)
 -->
<!-- Title: ancestry Pages: 1 -->
<svg width="163pt" height="218pt"
 viewBox="0.00 0.00 162.60 218.00" xmlns="http://www.w3.org/2000/svg" xmlns:xlink="http://www.w3.org/1999/xlink">
<g id="graph0" class="graph" transform="scale(1 1) rotate(0) translate(4 214)">
<title>ancestry</title>
<polygon fill="white" stroke="none" points="-4,4 -4,-214 158.597,-214 158.597,4 -4,4"/>
<!-- bethuel -->
<g id="node1" class="node"><title>bethuel</title>
<g id="a_node1"><a xlink:href="bethuel.html" xlink:title="Bethuel" target="_top">
<ellipse fill="none" stroke="blue" cx="69.5975" cy="-192" rx="38.1938" ry="18"/>
<text text-anchor="middle" x="69.5975" y="-188.3" font-family="Times,serif" font-size="14.00">Bethuel</text>
</a>
</g>
</g>
<!-- laban -->
<g id="node2" class="node"><title>laban</title>
<g id="a_node2"><a xlink:href="laban.html" xlink:title="Laban" target="_top">
<ellipse fill="lightblue" stroke="blue" stroke-width="2" cx="69.5975" cy="-105" rx="32.4942" ry="18"/>
<text text-anchor="middle" x="69.5975" y="-101.3" font-family="Times,serif" font-size="14.00">Laban</text>
</a>
</g>
</g>
<!-- bethuel&#45;&gt;laban -->
<g id="edge1" class="edge"><title>bethuel&#45;&gt;laban</title>
<path fill="none" stroke="black" d="M69.5975,-173.799C69.5975,-162.163 69.5975,-146.548 69.5975,-133.237"/>
<polygon fill="black" stroke="black" points="73.0976,-133.175 69.5975,-123.175 66.0976,-133.175 73.0976,-133.175"/>
<text text-anchor="middle" x="98.5975" y="-144.8" font-family="Times,serif" font-size="14.00">Gen 24:29</text>
</g>
<!-- leah -->
<g id="node3" class="node"><title>leah</title>
<g id="a_node3"><a xlink:href="leah.html" xlink:title="Leah" target="_top">
<ellipse fill="none" stroke="red" cx="28.5975" cy="-18" rx="28.6953" ry="18"/>
<text text-anchor="middle" x="28.5975" y="-14.3" font-family="Times,serif" font-size="14.00">Leah</text>
</a>
</g>
</g>
<!-- laban&#45;&gt;leah -->
<g id="edge2" class="edge"><title>laban&#45;&gt;leah</title>
<path fill="none" stroke="black" d="M48.9368,-90.6907C41.8165,-84.9432 34.6248,-77.5616 30.5975,-69 27.2925,-61.9741 26.0514,-53.7597 25.8359,-46.043"/>
<polygon fill="black" stroke="black" points="29.3362,-46.0692 26.0804,-35.9871 22.3383,-45.8991 29.3362,-46.0692"/>
<text text-anchor="middle" x="59.5975" y="-57.8" font-family="Times,serif" font-size="14.00">Gen 29:16</text>
</g>
<!-- rachel -->
<g id="node4" class="node"><title>rachel</title>
<g id="a_node4"><a xlink:href="rachel.html" xlink:title="Rachel" target="_top">
<ellipse fill="none" stroke="red" cx="110.597" cy="-18" rx="35.194" ry="18"/>
<text text-anchor="middle" x="110.597" y="-14.3" font-family="Times,serif" font-size="14.00">Rachel</text>
</a>
</g>
</g>
<!-- laban&#45;&gt;rachel -->
<g id="edge3" class="edge"><title>laban&#45;&gt;rachel</title>
<path fill="none" stroke="black" d="M78.967,-87.4124C82.1306,-81.6385 85.6142,-75.0836 88.5975,-69 92.3555,-61.3365 96.1903,-52.8816 99.5834,-45.1389"/>
<polygon fill="black" stroke="black" points="102.854,-46.3937 103.606,-35.8256 96.4277,-43.6181 102.854,-46.3937"/>
<text text-anchor="middle" x="125.597" y="-57.8" font-family="Times,serif" font-size="14.00">Gen 29:16</text>
</g>
</g>
</svg>
