<?xml version="1.0" encoding="UTF-8" standalone="no"?>
<!DOCTYPE svg PUBLIC "-//W3C//DTD SVG 1.1//EN"
 "http://www.w3.org/Graphics/SVG/1.1/DTD/svg11.dtd">
<!-- Generated by graphviz version 2.38.0 (20140413.2041)
 -->
<!-- Title: ancestry Pages: 1 -->
<svg width="112pt" height="248pt"
 viewBox="0.00 0.00 111.99 248.00" xmlns="http://www.w3.org/2000/svg" xmlns:xlink="http://www.w3.org/1999/xlink">
<g id="graph0" class="graph" transform="scale(1 1) rotate(0) translate(4 244)">
<title>ancestry</title>
<polygon fill="white" stroke="none" points="-4,4 -4,-244 107.991,-244 107.991,4 -4,4"/>
<!-- lamech -->
<g id="node1" class="node"><title>lamech</title>
<g id="a_node1"><a xlink:href="lamech.html" xlink:title="Lamech" target="_top">
<ellipse fill="lightblue" stroke="blue" stroke-width="2" cx="51.9954" cy="-120" rx="39.7935" ry="18"/>
<text text-anchor="middle" x="51.9954" y="-116.3" font-family="Times,serif" font-size="14.00">Lamech</text>
</a>
</g>
</g>
<!-- noah -->
<g id="node3" class="node"><title>noah</title>
<g id="a_node3"><a xlink:href="noah.html" xlink:title="Noah" target="_top">
<ellipse fill="none" stroke="blue" cx="51.9954" cy="-18" rx="29.795" ry="18"/>
<text text-anchor="middle" x="51.9954" y="-14.3" font-family="Times,serif" font-size="14.00">Noah</text>
</a>
</g>
</g>
<!-- lamech&#45;&gt;noah -->
<g id="edge1" class="edge"><title>lamech&#45;&gt;noah</title>
<path fill="none" stroke="black" d="M51.9954,-101.581C51.9954,-86.3816 51.9954,-64.0669 51.9954,-46.4644"/>
<polygon fill="black" stroke="black" points="55.4955,-46.219 51.9954,-36.2191 48.4955,-46.2191 55.4955,-46.219"/>
<text text-anchor="middle" x="77.4954" y="-72.8" font-family="Times,serif" font-size="14.00">Gen 5:28</text>
<text text-anchor="middle" x="77.4954" y="-57.8" font-family="Times,serif" font-size="14.00">Luk 3:36</text>
</g>
<!-- methuselah -->
<g id="node2" class="node"><title>methuselah</title>
<g id="a_node2"><a xlink:href="methuselah.html" xlink:title="Methuselah" target="_top">
<ellipse fill="none" stroke="blue" cx="51.9954" cy="-222" rx="51.9908" ry="18"/>
<text text-anchor="middle" x="51.9954" y="-218.3" font-family="Times,serif" font-size="14.00">Methuselah</text>
</a>
</g>
</g>
<!-- methuselah&#45;&gt;lamech -->
<g id="edge2" class="edge"><title>methuselah&#45;&gt;lamech</title>
<path fill="none" stroke="black" d="M51.9954,-203.581C51.9954,-188.382 51.9954,-166.067 51.9954,-148.464"/>
<polygon fill="black" stroke="black" points="55.4955,-148.219 51.9954,-138.219 48.4955,-148.219 55.4955,-148.219"/>
<text text-anchor="middle" x="77.4954" y="-174.8" font-family="Times,serif" font-size="14.00">Gen 5:25</text>
<text text-anchor="middle" x="77.4954" y="-159.8" font-family="Times,serif" font-size="14.00">Luk 3:37</text>
</g>
</g>
</svg>
