<?xml version="1.0" encoding="UTF-8" standalone="no"?>
<!DOCTYPE svg PUBLIC "-//W3C//DTD SVG 1.1//EN"
 "http://www.w3.org/Graphics/SVG/1.1/DTD/svg11.dtd">
<!-- Generated by graphviz version 2.38.0 (20140413.2041)
 -->
<!-- Title: ancestry Pages: 1 -->
<svg width="1107pt" height="263pt"
 viewBox="0.00 0.00 1107.25 263.00" xmlns="http://www.w3.org/2000/svg" xmlns:xlink="http://www.w3.org/1999/xlink">
<g id="graph0" class="graph" transform="scale(1 1) rotate(0) translate(4 259)">
<title>ancestry</title>
<polygon fill="white" stroke="none" points="-4,4 -4,-259 1103.25,-259 1103.25,4 -4,4"/>
<!-- dinah -->
<g id="node1" class="node"><title>dinah</title>
<g id="a_node1"><a xlink:href="dinah.html" xlink:title="Dinah" target="_top">
<ellipse fill="none" stroke="red" cx="809.251" cy="-18" rx="32.4942" ry="18"/>
<text text-anchor="middle" x="809.251" y="-14.3" font-family="Times,serif" font-size="14.00">Dinah</text>
</a>
</g>
</g>
<!-- issachar -->
<g id="node2" class="node"><title>issachar</title>
<g id="a_node2"><a xlink:href="issachar.html" xlink:title="Issachar" target="_top">
<ellipse fill="none" stroke="blue" cx="480.251" cy="-18" rx="39.7935" ry="18"/>
<text text-anchor="middle" x="480.251" y="-14.3" font-family="Times,serif" font-size="14.00">Issachar</text>
</a>
</g>
</g>
<!-- jacob -->
<g id="node3" class="node"><title>jacob</title>
<g id="a_node3"><a xlink:href="jacob.html" xlink:title="Jacob" target="_top">
<ellipse fill="none" stroke="blue" cx="446.251" cy="-150" rx="30.5947" ry="18"/>
<text text-anchor="middle" x="446.251" y="-146.3" font-family="Times,serif" font-size="14.00">Jacob</text>
</a>
</g>
</g>
<!-- jacob&#45;&gt;dinah -->
<g id="edge1" class="edge"><title>jacob&#45;&gt;dinah</title>
<path fill="none" stroke="black" d="M475.692,-145.141C542.298,-136.388 698.974,-115.654 701.251,-114 725.209,-96.5869 708.963,-74.5929 730.251,-54 741.464,-43.1529 756.604,-35.3427 770.631,-29.8921"/>
<polygon fill="black" stroke="black" points="771.875,-33.1641 780.101,-26.4873 769.507,-26.5769 771.875,-33.1641"/>
<text text-anchor="middle" x="759.251" y="-80.3" font-family="Times,serif" font-size="14.00">Gen 30:21</text>
</g>
<!-- jacob&#45;&gt;issachar -->
<g id="edge2" class="edge"><title>jacob&#45;&gt;issachar</title>
<path fill="none" stroke="black" d="M427.359,-135.799C420.637,-129.975 413.847,-122.511 410.251,-114 399.873,-89.4357 396.231,-76.684 410.251,-54 416.438,-43.9879 426.454,-36.7441 436.997,-31.5414"/>
<polygon fill="black" stroke="black" points="438.55,-34.6828 446.316,-27.4766 435.751,-28.2666 438.55,-34.6828"/>
<text text-anchor="middle" x="439.251" y="-87.8" font-family="Times,serif" font-size="14.00">1 Ch 2:1</text>
<text text-anchor="middle" x="439.251" y="-72.8" font-family="Times,serif" font-size="14.00">Gen 30:17</text>
</g>
<!-- judah -->
<g id="node4" class="node"><title>judah</title>
<g id="a_node4"><a xlink:href="judah.html" xlink:title="Judah" target="_top">
<ellipse fill="none" stroke="blue" cx="80.2506" cy="-18" rx="31.3957" ry="18"/>
<text text-anchor="middle" x="80.2506" y="-14.3" font-family="Times,serif" font-size="14.00">Judah</text>
</a>
</g>
</g>
<!-- jacob&#45;&gt;judah -->
<g id="edge3" class="edge"><title>jacob&#45;&gt;judah</title>
<path fill="none" stroke="black" d="M415.608,-148.871C321.205,-148.158 39.5136,-143.55 12.2506,-114 -5.83181,-94.4006 -1.63598,-76.7656 12.2506,-54 19.0704,-42.8198 30.7292,-35.0591 42.486,-29.7427"/>
<polygon fill="black" stroke="black" points="43.8696,-32.9588 51.8451,-25.9844 41.261,-26.463 43.8696,-32.9588"/>
<text text-anchor="middle" x="41.2506" y="-102.8" font-family="Times,serif" font-size="14.00">1 Ch 2:1</text>
<text text-anchor="middle" x="41.2506" y="-87.8" font-family="Times,serif" font-size="14.00">Gen 29:35</text>
<text text-anchor="middle" x="41.2506" y="-72.8" font-family="Times,serif" font-size="14.00">Luk 3:34</text>
<text text-anchor="middle" x="41.2506" y="-57.8" font-family="Times,serif" font-size="14.00">Mat 1:2</text>
</g>
<!-- leah -->
<g id="node6" class="node"><title>leah</title>
<g id="a_node6"><a xlink:href="leah.html" xlink:title="Leah" target="_top">
<ellipse fill="lightpink" stroke="red" stroke-width="2" cx="615.251" cy="-150" rx="28.6953" ry="18"/>
<text text-anchor="middle" x="615.251" y="-146.3" font-family="Times,serif" font-size="14.00">Leah</text>
</a>
</g>
</g>
<!-- jacob&#45;&gt;leah -->
<g id="edge16" class="edge"><title>jacob&#45;&gt;leah</title>
<path fill="none" stroke="red" d="M476.948,-150C513.504,-150 550.061,-150 586.618,-150"/>
</g>
<!-- levi -->
<g id="node7" class="node"><title>levi</title>
<g id="a_node7"><a xlink:href="levi.html" xlink:title="Levi" target="_top">
<ellipse fill="none" stroke="blue" cx="158.251" cy="-18" rx="27" ry="18"/>
<text text-anchor="middle" x="158.251" y="-14.3" font-family="Times,serif" font-size="14.00">Levi</text>
</a>
</g>
</g>
<!-- jacob&#45;&gt;levi -->
<g id="edge4" class="edge"><title>jacob&#45;&gt;levi</title>
<path fill="none" stroke="black" d="M415.642,-148.328C332.674,-146.192 108.221,-138.21 86.2506,-114 68.33,-94.2526 72.1046,-76.6054 86.2506,-54 87.52,-51.9716 108.264,-41.9949 127.161,-33.2095"/>
<polygon fill="black" stroke="black" points="128.869,-36.2759 136.477,-28.9028 125.931,-29.9219 128.869,-36.2759"/>
<text text-anchor="middle" x="115.251" y="-87.8" font-family="Times,serif" font-size="14.00">1 Ch 2:1</text>
<text text-anchor="middle" x="115.251" y="-72.8" font-family="Times,serif" font-size="14.00">Gen 29:34</text>
</g>
<!-- reuben -->
<g id="node8" class="node"><title>reuben</title>
<g id="a_node8"><a xlink:href="reuben.html" xlink:title="Reuben" target="_top">
<ellipse fill="none" stroke="blue" cx="646.251" cy="-18" rx="37.8943" ry="18"/>
<text text-anchor="middle" x="646.251" y="-14.3" font-family="Times,serif" font-size="14.00">Reuben</text>
</a>
</g>
</g>
<!-- jacob&#45;&gt;reuben -->
<g id="edge5" class="edge"><title>jacob&#45;&gt;reuben</title>
<path fill="none" stroke="black" d="M476.273,-146.079C499.169,-142.314 529.958,-133.7 549.251,-114 568.822,-94.0155 549.642,-74.884 568.251,-54 577.614,-43.4916 590.743,-35.9658 603.564,-30.6549"/>
<polygon fill="black" stroke="black" points="605.114,-33.8112 613.24,-27.0126 602.648,-27.26 605.114,-33.8112"/>
<text text-anchor="middle" x="597.251" y="-87.8" font-family="Times,serif" font-size="14.00">1 Ch 2:1</text>
<text text-anchor="middle" x="597.251" y="-72.8" font-family="Times,serif" font-size="14.00">Gen 29:32</text>
</g>
<!-- simeon -->
<g id="node9" class="node"><title>simeon</title>
<g id="a_node9"><a xlink:href="simeon.html" xlink:title="Simeon" target="_top">
<ellipse fill="none" stroke="blue" cx="315.251" cy="-18" rx="38.1938" ry="18"/>
<text text-anchor="middle" x="315.251" y="-14.3" font-family="Times,serif" font-size="14.00">Simeon</text>
</a>
</g>
</g>
<!-- jacob&#45;&gt;simeon -->
<g id="edge6" class="edge"><title>jacob&#45;&gt;simeon</title>
<path fill="none" stroke="black" d="M415.825,-148.209C365.721,-146.194 269.281,-139.074 248.251,-114 231.114,-93.5685 234.433,-76.8075 248.251,-54 254.082,-44.3752 263.524,-37.2713 273.503,-32.0794"/>
<polygon fill="black" stroke="black" points="275.111,-35.1923 282.731,-27.8314 272.184,-28.8337 275.111,-35.1923"/>
<text text-anchor="middle" x="277.251" y="-87.8" font-family="Times,serif" font-size="14.00">1 Ch 2:1</text>
<text text-anchor="middle" x="277.251" y="-72.8" font-family="Times,serif" font-size="14.00">Gen 29:33</text>
</g>
<!-- zebulun -->
<g id="node10" class="node"><title>zebulun</title>
<g id="a_node10"><a xlink:href="zebulun.html" xlink:title="Zebulun" target="_top">
<ellipse fill="none" stroke="blue" cx="976.251" cy="-18" rx="40.0939" ry="18"/>
<text text-anchor="middle" x="976.251" y="-14.3" font-family="Times,serif" font-size="14.00">Zebulun</text>
</a>
</g>
</g>
<!-- jacob&#45;&gt;zebulun -->
<g id="edge7" class="edge"><title>jacob&#45;&gt;zebulun</title>
<path fill="none" stroke="black" d="M475.583,-144.621C502.09,-140.801 542.208,-135.357 577.251,-132 609.388,-128.921 840.956,-132.732 867.251,-114 890.779,-97.2381 871.823,-74.4275 892.251,-54 903.052,-43.1987 917.676,-35.5638 931.696,-30.2442"/>
<polygon fill="black" stroke="black" points="932.955,-33.512 941.25,-26.9209 930.655,-26.9005 932.955,-33.512"/>
<text text-anchor="middle" x="921.251" y="-87.8" font-family="Times,serif" font-size="14.00">1 Ch 2:1</text>
<text text-anchor="middle" x="921.251" y="-72.8" font-family="Times,serif" font-size="14.00">Gen 30:19</text>
</g>
<!-- laban -->
<g id="node5" class="node"><title>laban</title>
<g id="a_node5"><a xlink:href="laban.html" xlink:title="Laban" target="_top">
<ellipse fill="none" stroke="blue" cx="615.251" cy="-237" rx="32.4942" ry="18"/>
<text text-anchor="middle" x="615.251" y="-233.3" font-family="Times,serif" font-size="14.00">Laban</text>
</a>
</g>
</g>
<!-- laban&#45;&gt;leah -->
<g id="edge8" class="edge"><title>laban&#45;&gt;leah</title>
<path fill="none" stroke="black" d="M615.251,-218.799C615.251,-207.163 615.251,-191.548 615.251,-178.237"/>
<polygon fill="black" stroke="black" points="618.751,-178.175 615.251,-168.175 611.751,-178.175 618.751,-178.175"/>
<text text-anchor="middle" x="644.251" y="-189.8" font-family="Times,serif" font-size="14.00">Gen 29:16</text>
</g>
<!-- leah&#45;&gt;dinah -->
<g id="edge9" class="edge"><title>leah&#45;&gt;dinah</title>
<path fill="none" stroke="black" d="M643.799,-148.197C721.715,-145.715 933.593,-136.9 954.251,-114 972.112,-94.1992 970.747,-74.9519 954.251,-54 941.621,-37.959 889.542,-28.4004 851.4,-23.4242"/>
<polygon fill="black" stroke="black" points="851.411,-19.8988 841.056,-22.1406 850.549,-26.8455 851.411,-19.8988"/>
<text text-anchor="middle" x="996.251" y="-80.3" font-family="Times,serif" font-size="14.00">Gen 30:21</text>
</g>
<!-- leah&#45;&gt;issachar -->
<g id="edge10" class="edge"><title>leah&#45;&gt;issachar</title>
<path fill="none" stroke="black" d="M624.621,-132.653C635.044,-112.057 648.206,-76.6278 630.251,-54 617.7,-38.1842 567.765,-28.8488 528.915,-23.8517"/>
<polygon fill="black" stroke="black" points="529.151,-20.3546 518.8,-22.6144 528.301,-27.3028 529.151,-20.3546"/>
<text text-anchor="middle" x="668.251" y="-80.3" font-family="Times,serif" font-size="14.00">Gen 30:17</text>
</g>
<!-- leah&#45;&gt;judah -->
<g id="edge11" class="edge"><title>leah&#45;&gt;judah</title>
<path fill="none" stroke="black" d="M587.637,-144.765C561.562,-140.908 521.333,-135.322 486.251,-132 451.791,-128.737 204.282,-132.849 175.251,-114 150.076,-97.6548 165.224,-75.4727 144.251,-54 135.985,-45.5377 125.231,-38.5911 114.905,-33.1808"/>
<polygon fill="black" stroke="black" points="116.147,-29.892 105.625,-28.6446 113.072,-36.1808 116.147,-29.892"/>
<text text-anchor="middle" x="204.251" y="-80.3" font-family="Times,serif" font-size="14.00">Gen 29:35</text>
</g>
<!-- leah&#45;&gt;levi -->
<g id="edge12" class="edge"><title>leah&#45;&gt;levi</title>
<path fill="none" stroke="black" d="M587.58,-145.279C561.464,-141.784 521.209,-136.444 486.251,-132 453.603,-127.85 366.507,-132.444 339.251,-114 314.045,-96.9441 330.477,-72.4203 306.251,-54 288.96,-40.8534 232.762,-30.1482 194.809,-24.1766"/>
<polygon fill="black" stroke="black" points="195.051,-20.6729 184.636,-22.6198 193.992,-27.5923 195.051,-20.6729"/>
<text text-anchor="middle" x="368.251" y="-80.3" font-family="Times,serif" font-size="14.00">Gen 29:34</text>
</g>
<!-- leah&#45;&gt;reuben -->
<g id="edge13" class="edge"><title>leah&#45;&gt;reuben</title>
<path fill="none" stroke="black" d="M643.932,-147.606C689.157,-144.741 773.807,-136.448 792.251,-114 809.179,-93.3959 808.763,-74.939 792.251,-54 780.005,-38.4723 730.985,-29.0558 693.085,-23.9611"/>
<polygon fill="black" stroke="black" points="693.094,-20.4337 682.731,-22.6372 692.206,-27.3772 693.094,-20.4337"/>
<text text-anchor="middle" x="834.251" y="-80.3" font-family="Times,serif" font-size="14.00">Gen 29:32</text>
</g>
<!-- leah&#45;&gt;simeon -->
<g id="edge14" class="edge"><title>leah&#45;&gt;simeon</title>
<path fill="none" stroke="black" d="M586.501,-148.735C557.726,-146.918 513.994,-139.701 487.251,-114 467.082,-94.6181 488.822,-72.9539 468.251,-54 452.936,-39.8897 401.371,-30.1523 362.3,-24.5959"/>
<polygon fill="black" stroke="black" points="362.542,-21.0964 352.16,-23.2063 361.592,-28.0316 362.542,-21.0964"/>
<text text-anchor="middle" x="516.251" y="-80.3" font-family="Times,serif" font-size="14.00">Gen 29:33</text>
</g>
<!-- leah&#45;&gt;zebulun -->
<g id="edge15" class="edge"><title>leah&#45;&gt;zebulun</title>
<path fill="none" stroke="black" d="M643.853,-148.767C733.284,-147.743 1003.23,-142.314 1029.25,-114 1047.3,-94.3656 1041.88,-77.4838 1029.25,-54 1025.47,-46.9674 1019.58,-41.1127 1013.09,-36.3324"/>
<polygon fill="black" stroke="black" points="1014.94,-33.3618 1004.65,-30.8439 1011.12,-39.23 1014.94,-33.3618"/>
<text text-anchor="middle" x="1070.25" y="-80.3" font-family="Times,serif" font-size="14.00">Gen 30:19</text>
</g>
</g>
</svg>
