<?xml version="1.0" encoding="UTF-8" standalone="no"?>
<!DOCTYPE svg PUBLIC "-//W3C//DTD SVG 1.1//EN"
 "http://www.w3.org/Graphics/SVG/1.1/DTD/svg11.dtd">
<!-- Generated by graphviz version 2.38.0 (20140413.2041)
 -->
<!-- Title: ancestry Pages: 1 -->
<svg width="372pt" height="233pt"
 viewBox="0.00 0.00 372.39 233.00" xmlns="http://www.w3.org/2000/svg" xmlns:xlink="http://www.w3.org/1999/xlink">
<g id="graph0" class="graph" transform="scale(1 1) rotate(0) translate(4 229)">
<title>ancestry</title>
<polygon fill="white" stroke="none" points="-4,4 -4,-229 368.393,-229 368.393,4 -4,4"/>
<!-- gershon -->
<g id="node1" class="node"><title>gershon</title>
<g id="a_node1"><a xlink:href="gershon.html" xlink:title="Gershon" target="_top">
<ellipse fill="none" stroke="blue" cx="40.2964" cy="-18" rx="40.0939" ry="18"/>
<text text-anchor="middle" x="40.2964" y="-14.3" font-family="Times,serif" font-size="14.00">Gershon</text>
</a>
</g>
</g>
<!-- jacob -->
<g id="node2" class="node"><title>jacob</title>
<g id="a_node2"><a xlink:href="jacob.html" xlink:title="Jacob" target="_top">
<ellipse fill="none" stroke="blue" cx="148.296" cy="-207" rx="30.5947" ry="18"/>
<text text-anchor="middle" x="148.296" y="-203.3" font-family="Times,serif" font-size="14.00">Jacob</text>
</a>
</g>
</g>
<!-- leah -->
<g id="node5" class="node"><title>leah</title>
<g id="a_node5"><a xlink:href="leah.html" xlink:title="Leah" target="_top">
<ellipse fill="none" stroke="red" cx="243.296" cy="-207" rx="28.6953" ry="18"/>
<text text-anchor="middle" x="243.296" y="-203.3" font-family="Times,serif" font-size="14.00">Leah</text>
</a>
</g>
</g>
<!-- jacob&#45;&gt;leah -->
<g id="edge7" class="edge"><title>jacob&#45;&gt;leah</title>
<path fill="none" stroke="red" d="M179.097,-207C190.884,-207 202.67,-207 214.457,-207"/>
</g>
<!-- levi -->
<g id="node6" class="node"><title>levi</title>
<g id="a_node6"><a xlink:href="levi.html" xlink:title="Levi" target="_top">
<ellipse fill="lightblue" stroke="blue" stroke-width="2" cx="191.296" cy="-105" rx="27" ry="18"/>
<text text-anchor="middle" x="191.296" y="-101.3" font-family="Times,serif" font-size="14.00">Levi</text>
</a>
</g>
</g>
<!-- jacob&#45;&gt;levi -->
<g id="edge1" class="edge"><title>jacob&#45;&gt;levi</title>
<path fill="none" stroke="black" d="M148.567,-188.906C149.384,-175.307 151.916,-156.119 159.296,-141 161.629,-136.221 164.822,-131.625 168.293,-127.425"/>
<polygon fill="black" stroke="black" points="171.01,-129.64 175.155,-119.89 165.834,-124.926 171.01,-129.64"/>
<text text-anchor="middle" x="188.296" y="-159.8" font-family="Times,serif" font-size="14.00">1 Ch 2:1</text>
<text text-anchor="middle" x="188.296" y="-144.8" font-family="Times,serif" font-size="14.00">Gen 29:34</text>
</g>
<!-- jochebed -->
<g id="node3" class="node"><title>jochebed</title>
<g id="a_node3"><a xlink:href="jochebed.html" xlink:title="Jochebed" target="_top">
<ellipse fill="none" stroke="red" cx="142.296" cy="-18" rx="43.5923" ry="18"/>
<text text-anchor="middle" x="142.296" y="-14.3" font-family="Times,serif" font-size="14.00">Jochebed</text>
</a>
</g>
</g>
<!-- kohath -->
<g id="node4" class="node"><title>kohath</title>
<g id="a_node4"><a xlink:href="kohath.html" xlink:title="Kohath" target="_top">
<ellipse fill="none" stroke="blue" cx="240.296" cy="-18" rx="36.2938" ry="18"/>
<text text-anchor="middle" x="240.296" y="-14.3" font-family="Times,serif" font-size="14.00">Kohath</text>
</a>
</g>
</g>
<!-- leah&#45;&gt;levi -->
<g id="edge2" class="edge"><title>leah&#45;&gt;levi</title>
<path fill="none" stroke="black" d="M237.911,-189.165C233.293,-175.713 226.014,-156.595 217.296,-141 215.136,-137.135 212.605,-133.208 209.986,-129.451"/>
<polygon fill="black" stroke="black" points="212.589,-127.083 203.847,-121.097 206.948,-131.228 212.589,-127.083"/>
<text text-anchor="middle" x="260.296" y="-152.3" font-family="Times,serif" font-size="14.00">Gen 29:34</text>
</g>
<!-- levi&#45;&gt;gershon -->
<g id="edge3" class="edge"><title>levi&#45;&gt;gershon</title>
<path fill="none" stroke="black" d="M169.215,-94.4915C154.297,-87.8422 134.3,-78.4854 117.296,-69 101.043,-59.9329 83.5972,-48.735 69.4282,-39.2364"/>
<polygon fill="black" stroke="black" points="71.3121,-36.2852 61.0694,-33.5761 67.3871,-42.0813 71.3121,-36.2852"/>
<text text-anchor="middle" x="138.796" y="-57.8" font-family="Times,serif" font-size="14.00">Ex 6:16</text>
</g>
<!-- levi&#45;&gt;jochebed -->
<g id="edge4" class="edge"><title>levi&#45;&gt;jochebed</title>
<path fill="none" stroke="black" d="M182.08,-88.0122C175.03,-75.7828 165.169,-58.6772 157.029,-44.556"/>
<polygon fill="black" stroke="black" points="160.001,-42.7041 151.975,-35.7885 153.937,-46.2001 160.001,-42.7041"/>
<text text-anchor="middle" x="191.796" y="-57.8" font-family="Times,serif" font-size="14.00">Ex 6:20</text>
</g>
<!-- levi&#45;&gt;kohath -->
<g id="edge5" class="edge"><title>levi&#45;&gt;kohath</title>
<path fill="none" stroke="black" d="M203.665,-88.7982C208.239,-82.8183 213.283,-75.7722 217.296,-69 221.681,-61.6023 225.825,-53.2263 229.356,-45.4742"/>
<polygon fill="black" stroke="black" points="232.653,-46.6722 233.473,-36.1091 226.245,-43.8552 232.653,-46.6722"/>
<text text-anchor="middle" x="246.796" y="-57.8" font-family="Times,serif" font-size="14.00">Ex 6:16</text>
</g>
<!-- merari -->
<g id="node7" class="node"><title>merari</title>
<g id="a_node7"><a xlink:href="merari.html" xlink:title="Merari" target="_top">
<ellipse fill="none" stroke="blue" cx="329.296" cy="-18" rx="35.194" ry="18"/>
<text text-anchor="middle" x="329.296" y="-14.3" font-family="Times,serif" font-size="14.00">Merari</text>
</a>
</g>
</g>
<!-- levi&#45;&gt;merari -->
<g id="edge6" class="edge"><title>levi&#45;&gt;merari</title>
<path fill="none" stroke="black" d="M214.953,-96.0153C231.645,-89.857 254.171,-80.4643 272.296,-69 284.586,-61.2268 296.883,-50.8518 306.893,-41.5678"/>
<polygon fill="black" stroke="black" points="309.562,-43.8593 314.386,-34.4267 304.732,-38.7919 309.562,-43.8593"/>
<text text-anchor="middle" x="314.796" y="-57.8" font-family="Times,serif" font-size="14.00">Ex 6:16</text>
</g>
</g>
</svg>
