<?xml version="1.0" encoding="UTF-8" standalone="no"?>
<!DOCTYPE svg PUBLIC "-//W3C//DTD SVG 1.1//EN"
 "http://www.w3.org/Graphics/SVG/1.1/DTD/svg11.dtd">
<!-- Generated by graphviz version 2.38.0 (20140413.2041)
 -->
<!-- Title: ancestry Pages: 1 -->
<svg width="467pt" height="305pt"
 viewBox="0.00 0.00 467.15 305.00" xmlns="http://www.w3.org/2000/svg" xmlns:xlink="http://www.w3.org/1999/xlink">
<g id="graph0" class="graph" transform="scale(1 1) rotate(0) translate(4 301)">
<title>ancestry</title>
<polygon fill="white" stroke="none" points="-4,4 -4,-301 463.146,-301 463.146,4 -4,4"/>
<!-- benammi -->
<g id="node1" class="node"><title>benammi</title>
<g id="a_node1"><a xlink:href="benammi.html" xlink:title="Benammi" target="_top">
<ellipse fill="none" stroke="blue" cx="46.1459" cy="-18" rx="46.2923" ry="18"/>
<text text-anchor="middle" x="46.1459" y="-14.3" font-family="Times,serif" font-size="14.00">Benammi</text>
</a>
</g>
</g>
<!-- haran -->
<g id="node2" class="node"><title>haran</title>
<g id="a_node2"><a xlink:href="haran.html" xlink:title="Haran" target="_top">
<ellipse fill="none" stroke="blue" cx="245.146" cy="-279" rx="32.4942" ry="18"/>
<text text-anchor="middle" x="245.146" y="-275.3" font-family="Times,serif" font-size="14.00">Haran</text>
</a>
</g>
</g>
<!-- lot -->
<g id="node3" class="node"><title>lot</title>
<g id="a_node3"><a xlink:href="lot.html" xlink:title="Lot" target="_top">
<ellipse fill="lightblue" stroke="blue" stroke-width="2" cx="245.146" cy="-192" rx="27" ry="18"/>
<text text-anchor="middle" x="245.146" y="-188.3" font-family="Times,serif" font-size="14.00">Lot</text>
</a>
</g>
</g>
<!-- haran&#45;&gt;lot -->
<g id="edge1" class="edge"><title>haran&#45;&gt;lot</title>
<path fill="none" stroke="black" d="M245.146,-260.799C245.146,-249.163 245.146,-233.548 245.146,-220.237"/>
<polygon fill="black" stroke="black" points="248.646,-220.175 245.146,-210.175 241.646,-220.175 248.646,-220.175"/>
<text text-anchor="middle" x="274.146" y="-231.8" font-family="Times,serif" font-size="14.00">Gen 11:27</text>
</g>
<!-- lot&#45;&gt;benammi -->
<g id="edge2" class="edge"><title>lot&#45;&gt;benammi</title>
<path fill="none" stroke="black" d="M218.849,-187.331C163.158,-178.968 36.3554,-156.578 11.1459,-123 -6.70432,-99.2241 10.2164,-65.7866 26.1477,-43.3033"/>
<polygon fill="black" stroke="black" points="28.9672,-45.3772 32.1306,-35.2656 23.352,-41.1975 28.9672,-45.3772"/>
<text text-anchor="middle" x="40.1459" y="-101.3" font-family="Times,serif" font-size="14.00">Gen 19:38</text>
</g>
<!-- lots_daughter1 -->
<g id="node4" class="node"><title>lots_daughter1</title>
<g id="a_node4"><a xlink:href="lots_daughter1.html" xlink:title="Lots_daughter1" target="_top">
<ellipse fill="none" stroke="red" cx="388.146" cy="-105" rx="65.7887" ry="18"/>
<text text-anchor="middle" x="388.146" y="-101.3" font-family="Times,serif" font-size="14.00">Lots_daughter1</text>
</a>
</g>
</g>
<!-- lot&#45;&gt;lots_daughter1 -->
<g id="edge3" class="edge"><title>lot&#45;&gt;lots_daughter1</title>
<path fill="none" stroke="black" d="M253.105,-174.465C259.137,-163.544 268.389,-149.694 280.146,-141 293.532,-131.101 309.843,-123.924 325.691,-118.751"/>
<polygon fill="black" stroke="black" points="326.916,-122.036 335.468,-115.782 324.882,-115.338 326.916,-122.036"/>
<text text-anchor="middle" x="305.646" y="-144.8" font-family="Times,serif" font-size="14.00">Gen 19:8</text>
</g>
<!-- lots_daughter2 -->
<g id="node5" class="node"><title>lots_daughter2</title>
<g id="a_node5"><a xlink:href="lots_daughter2.html" xlink:title="Lots_daughter2" target="_top">
<ellipse fill="none" stroke="red" cx="144.146" cy="-105" rx="65.7887" ry="18"/>
<text text-anchor="middle" x="144.146" y="-101.3" font-family="Times,serif" font-size="14.00">Lots_daughter2</text>
</a>
</g>
</g>
<!-- lot&#45;&gt;lots_daughter2 -->
<g id="edge4" class="edge"><title>lot&#45;&gt;lots_daughter2</title>
<path fill="none" stroke="black" d="M222.914,-181.773C209.865,-175.676 193.555,-166.82 181.146,-156 173.172,-149.047 165.882,-140.093 159.921,-131.688"/>
<polygon fill="black" stroke="black" points="162.712,-129.566 154.217,-123.235 156.909,-133.482 162.712,-129.566"/>
<text text-anchor="middle" x="206.646" y="-144.8" font-family="Times,serif" font-size="14.00">Gen 19:8</text>
</g>
<!-- lots_wife -->
<g id="node6" class="node"><title>lots_wife</title>
<g id="a_node6"><a xlink:href="lots_wife.html" xlink:title="Lots_wife" target="_top">
<ellipse fill="none" stroke="red" cx="354.146" cy="-192" rx="46.2923" ry="18"/>
<text text-anchor="middle" x="354.146" y="-188.3" font-family="Times,serif" font-size="14.00">Lots_wife</text>
</a>
</g>
</g>
<!-- lot&#45;&gt;lots_wife -->
<g id="edge10" class="edge"><title>lot&#45;&gt;lots_wife</title>
<path fill="none" stroke="red" d="M272.396,-192C284.211,-192 296.027,-192 307.842,-192"/>
</g>
<!-- moab -->
<g id="node7" class="node"><title>moab</title>
<g id="a_node7"><a xlink:href="moab.html" xlink:title="Moab" target="_top">
<ellipse fill="none" stroke="blue" cx="289.146" cy="-18" rx="31.6951" ry="18"/>
<text text-anchor="middle" x="289.146" y="-14.3" font-family="Times,serif" font-size="14.00">Moab</text>
</a>
</g>
</g>
<!-- lot&#45;&gt;moab -->
<g id="edge5" class="edge"><title>lot&#45;&gt;moab</title>
<path fill="none" stroke="black" d="M244.891,-173.709C245.016,-152.774 246.632,-116.637 255.146,-87 259.444,-72.0386 266.998,-56.4302 273.896,-43.9464"/>
<polygon fill="black" stroke="black" points="277.046,-45.4886 278.978,-35.0714 270.971,-42.0102 277.046,-45.4886"/>
<text text-anchor="middle" x="284.146" y="-101.3" font-family="Times,serif" font-size="14.00">Gen 19:37</text>
</g>
<!-- lots_daughter1&#45;&gt;moab -->
<g id="edge6" class="edge"><title>lots_daughter1&#45;&gt;moab</title>
<path fill="none" stroke="black" d="M369.058,-87.6111C353.316,-74.0958 330.876,-54.8285 313.78,-40.1506"/>
<polygon fill="black" stroke="black" points="315.737,-37.2177 305.87,-33.359 311.177,-42.5288 315.737,-37.2177"/>
<text text-anchor="middle" x="374.146" y="-57.8" font-family="Times,serif" font-size="14.00">Gen 19:37</text>
</g>
<!-- lots_daughter2&#45;&gt;benammi -->
<g id="edge7" class="edge"><title>lots_daughter2&#45;&gt;benammi</title>
<path fill="none" stroke="black" d="M125.251,-87.6111C110.146,-74.5104 88.8106,-56.0051 72.1032,-41.5139"/>
<polygon fill="black" stroke="black" points="74.1683,-38.672 64.3206,-34.7638 69.5817,-43.9601 74.1683,-38.672"/>
<text text-anchor="middle" x="130.146" y="-57.8" font-family="Times,serif" font-size="14.00">Gen 19:38</text>
</g>
<!-- lots_wife&#45;&gt;lots_daughter1 -->
<g id="edge8" class="edge"><title>lots_wife&#45;&gt;lots_daughter1</title>
<path fill="none" stroke="black" d="M383.112,-177.933C391.795,-172.474 400.293,-165.217 405.146,-156 409.094,-148.502 407.976,-139.901 404.934,-131.971"/>
<polygon fill="black" stroke="black" points="407.982,-130.233 400.483,-122.75 401.678,-133.277 407.982,-130.233"/>
<text text-anchor="middle" x="433.646" y="-144.8" font-family="Times,serif" font-size="14.00">Gen 19:8</text>
</g>
<!-- lots_wife&#45;&gt;lots_daughter2 -->
<g id="edge9" class="edge"><title>lots_wife&#45;&gt;lots_daughter2</title>
<path fill="none" stroke="black" d="M350.665,-174.031C347.483,-162.916 341.618,-149.013 331.146,-141 292.848,-111.694 271.52,-132.014 224.146,-123 217.492,-121.734 210.54,-120.349 203.632,-118.935"/>
<polygon fill="black" stroke="black" points="204.085,-115.454 193.583,-116.85 202.663,-122.308 204.085,-115.454"/>
<text text-anchor="middle" x="369.646" y="-144.8" font-family="Times,serif" font-size="14.00">Gen 19:8</text>
</g>
</g>
</svg>
