<?xml version="1.0" encoding="UTF-8" standalone="no"?>
<!DOCTYPE svg PUBLIC "-//W3C//DTD SVG 1.1//EN"
 "http://www.w3.org/Graphics/SVG/1.1/DTD/svg11.dtd">
<!-- Generated by graphviz version 2.38.0 (20140413.2041)
 -->
<!-- Title: ancestry Pages: 1 -->
<svg width="219pt" height="218pt"
 viewBox="0.00 0.00 218.79 218.00" xmlns="http://www.w3.org/2000/svg" xmlns:xlink="http://www.w3.org/1999/xlink">
<g id="graph0" class="graph" transform="scale(1 1) rotate(0) translate(4 214)">
<title>ancestry</title>
<polygon fill="white" stroke="none" points="-4,4 -4,-214 214.79,-214 214.79,4 -4,4"/>
<!-- benammi -->
<g id="node1" class="node"><title>benammi</title>
<g id="a_node1"><a xlink:href="benammi.html" xlink:title="Benammi" target="_top">
<ellipse fill="none" stroke="blue" cx="46.1459" cy="-18" rx="46.2923" ry="18"/>
<text text-anchor="middle" x="46.1459" y="-14.3" font-family="Times,serif" font-size="14.00">Benammi</text>
</a>
</g>
</g>
<!-- lot -->
<g id="node2" class="node"><title>lot</title>
<g id="a_node2"><a xlink:href="lot.html" xlink:title="Lot" target="_top">
<ellipse fill="none" stroke="blue" cx="36.1459" cy="-192" rx="27" ry="18"/>
<text text-anchor="middle" x="36.1459" y="-188.3" font-family="Times,serif" font-size="14.00">Lot</text>
</a>
</g>
</g>
<!-- lot&#45;&gt;benammi -->
<g id="edge1" class="edge"><title>lot&#45;&gt;benammi</title>
<path fill="none" stroke="black" d="M27.7245,-174.776C18.1744,-154.304 4.82328,-118.019 12.1459,-87 15.674,-72.0546 23.0177,-56.6488 29.9802,-44.2879"/>
<polygon fill="black" stroke="black" points="33.1041,-45.8804 35.1606,-35.4871 27.0715,-42.3295 33.1041,-45.8804"/>
<text text-anchor="middle" x="41.1459" y="-101.3" font-family="Times,serif" font-size="14.00">Gen 19:38</text>
</g>
<!-- lots_daughter2 -->
<g id="node3" class="node"><title>lots_daughter2</title>
<g id="a_node3"><a xlink:href="lots_daughter2.html" xlink:title="Lots_daughter2" target="_top">
<ellipse fill="lightpink" stroke="red" stroke-width="2" cx="145.146" cy="-105" rx="65.7887" ry="18"/>
<text text-anchor="middle" x="145.146" y="-101.3" font-family="Times,serif" font-size="14.00">Lots_daughter2</text>
</a>
</g>
</g>
<!-- lot&#45;&gt;lots_daughter2 -->
<g id="edge2" class="edge"><title>lot&#45;&gt;lots_daughter2</title>
<path fill="none" stroke="black" d="M50.6347,-176.233C61.1586,-165.852 75.9805,-151.922 90.1459,-141 96.2464,-136.296 102.991,-131.62 109.605,-127.288"/>
<polygon fill="black" stroke="black" points="111.928,-129.958 118.472,-121.625 108.161,-124.058 111.928,-129.958"/>
<text text-anchor="middle" x="115.646" y="-144.8" font-family="Times,serif" font-size="14.00">Gen 19:8</text>
</g>
<!-- lots_wife -->
<g id="node4" class="node"><title>lots_wife</title>
<g id="a_node4"><a xlink:href="lots_wife.html" xlink:title="Lots_wife" target="_top">
<ellipse fill="none" stroke="red" cx="145.146" cy="-192" rx="46.2923" ry="18"/>
<text text-anchor="middle" x="145.146" y="-188.3" font-family="Times,serif" font-size="14.00">Lots_wife</text>
</a>
</g>
</g>
<!-- lot&#45;&gt;lots_wife -->
<g id="edge5" class="edge"><title>lot&#45;&gt;lots_wife</title>
<path fill="none" stroke="red" d="M63.3959,-192C75.2113,-192 87.0268,-192 98.8422,-192"/>
</g>
<!-- lots_daughter2&#45;&gt;benammi -->
<g id="edge3" class="edge"><title>lots_daughter2&#45;&gt;benammi</title>
<path fill="none" stroke="black" d="M126.058,-87.6111C110.799,-74.5104 89.246,-56.0051 72.368,-41.5139"/>
<polygon fill="black" stroke="black" points="74.3733,-38.6225 64.5061,-34.7638 69.8133,-43.9336 74.3733,-38.6225"/>
<text text-anchor="middle" x="131.146" y="-57.8" font-family="Times,serif" font-size="14.00">Gen 19:38</text>
</g>
<!-- lots_wife&#45;&gt;lots_daughter2 -->
<g id="edge4" class="edge"><title>lots_wife&#45;&gt;lots_daughter2</title>
<path fill="none" stroke="black" d="M145.146,-173.799C145.146,-162.163 145.146,-146.548 145.146,-133.237"/>
<polygon fill="black" stroke="black" points="148.646,-133.175 145.146,-123.175 141.646,-133.175 148.646,-133.175"/>
<text text-anchor="middle" x="170.646" y="-144.8" font-family="Times,serif" font-size="14.00">Gen 19:8</text>
</g>
</g>
</svg>
