<?xml version="1.0" encoding="UTF-8" standalone="no"?>
<!DOCTYPE svg PUBLIC "-//W3C//DTD SVG 1.1//EN"
 "http://www.w3.org/Graphics/SVG/1.1/DTD/svg11.dtd">
<!-- Generated by graphviz version 2.38.0 (20140413.2041)
 -->
<!-- Title: ancestry Pages: 1 -->
<svg width="210pt" height="218pt"
 viewBox="0.00 0.00 209.64 218.00" xmlns="http://www.w3.org/2000/svg" xmlns:xlink="http://www.w3.org/1999/xlink">
<g id="graph0" class="graph" transform="scale(1 1) rotate(0) translate(4 214)">
<title>ancestry</title>
<polygon fill="white" stroke="none" points="-4,4 -4,-214 205.644,-214 205.644,4 -4,4"/>
<!-- lot -->
<g id="node1" class="node"><title>lot</title>
<g id="a_node1"><a xlink:href="lot.html" xlink:title="Lot" target="_top">
<ellipse fill="none" stroke="blue" cx="27" cy="-192" rx="27" ry="18"/>
<text text-anchor="middle" x="27" y="-188.3" font-family="Times,serif" font-size="14.00">Lot</text>
</a>
</g>
</g>
<!-- lots_daughter1 -->
<g id="node2" class="node"><title>lots_daughter1</title>
<g id="a_node2"><a xlink:href="lots_daughter1.html" xlink:title="Lots_daughter1" target="_top">
<ellipse fill="lightpink" stroke="red" stroke-width="2" cx="136" cy="-105" rx="65.7887" ry="18"/>
<text text-anchor="middle" x="136" y="-101.3" font-family="Times,serif" font-size="14.00">Lots_daughter1</text>
</a>
</g>
</g>
<!-- lot&#45;&gt;lots_daughter1 -->
<g id="edge1" class="edge"><title>lot&#45;&gt;lots_daughter1</title>
<path fill="none" stroke="black" d="M41.4888,-176.233C52.0127,-165.852 66.8346,-151.922 81,-141 87.1005,-136.296 93.8448,-131.62 100.46,-127.288"/>
<polygon fill="black" stroke="black" points="102.782,-129.958 109.326,-121.625 99.0146,-124.058 102.782,-129.958"/>
<text text-anchor="middle" x="106.5" y="-144.8" font-family="Times,serif" font-size="14.00">Gen 19:8</text>
</g>
<!-- lots_wife -->
<g id="node3" class="node"><title>lots_wife</title>
<g id="a_node3"><a xlink:href="lots_wife.html" xlink:title="Lots_wife" target="_top">
<ellipse fill="none" stroke="red" cx="136" cy="-192" rx="46.2923" ry="18"/>
<text text-anchor="middle" x="136" y="-188.3" font-family="Times,serif" font-size="14.00">Lots_wife</text>
</a>
</g>
</g>
<!-- lot&#45;&gt;lots_wife -->
<g id="edge5" class="edge"><title>lot&#45;&gt;lots_wife</title>
<path fill="none" stroke="red" d="M54.25,-192C66.0654,-192 77.8809,-192 89.6963,-192"/>
</g>
<!-- moab -->
<g id="node4" class="node"><title>moab</title>
<g id="a_node4"><a xlink:href="moab.html" xlink:title="Moab" target="_top">
<ellipse fill="none" stroke="blue" cx="37" cy="-18" rx="31.6951" ry="18"/>
<text text-anchor="middle" x="37" y="-14.3" font-family="Times,serif" font-size="14.00">Moab</text>
</a>
</g>
</g>
<!-- lot&#45;&gt;moab -->
<g id="edge2" class="edge"><title>lot&#45;&gt;moab</title>
<path fill="none" stroke="black" d="M18.5786,-174.776C9.02851,-154.304 -4.32263,-118.019 3,-87 6.5523,-71.9522 13.9726,-56.4377 20.9773,-44.0344"/>
<polygon fill="black" stroke="black" points="24.1137,-45.6062 26.1818,-35.2151 18.0851,-42.0485 24.1137,-45.6062"/>
<text text-anchor="middle" x="32" y="-101.3" font-family="Times,serif" font-size="14.00">Gen 19:37</text>
</g>
<!-- lots_daughter1&#45;&gt;moab -->
<g id="edge3" class="edge"><title>lots_daughter1&#45;&gt;moab</title>
<path fill="none" stroke="black" d="M116.912,-87.6111C101.17,-74.0958 78.7297,-54.8285 61.6342,-40.1506"/>
<polygon fill="black" stroke="black" points="63.5912,-37.2177 53.724,-33.359 59.0312,-42.5288 63.5912,-37.2177"/>
<text text-anchor="middle" x="122" y="-57.8" font-family="Times,serif" font-size="14.00">Gen 19:37</text>
</g>
<!-- lots_wife&#45;&gt;lots_daughter1 -->
<g id="edge4" class="edge"><title>lots_wife&#45;&gt;lots_daughter1</title>
<path fill="none" stroke="black" d="M136,-173.799C136,-162.163 136,-146.548 136,-133.237"/>
<polygon fill="black" stroke="black" points="139.5,-133.175 136,-123.175 132.5,-133.175 139.5,-133.175"/>
<text text-anchor="middle" x="161.5" y="-144.8" font-family="Times,serif" font-size="14.00">Gen 19:8</text>
</g>
</g>
</svg>
