<?xml version="1.0" encoding="UTF-8" standalone="no"?>
<!DOCTYPE svg PUBLIC "-//W3C//DTD SVG 1.1//EN"
 "http://www.w3.org/Graphics/SVG/1.1/DTD/svg11.dtd">
<!-- Generated by graphviz version 2.38.0 (20140413.2041)
 -->
<!-- Title: ancestry Pages: 1 -->
<svg width="306pt" height="131pt"
 viewBox="0.00 0.00 306.29 131.00" xmlns="http://www.w3.org/2000/svg" xmlns:xlink="http://www.w3.org/1999/xlink">
<g id="graph0" class="graph" transform="scale(1 1) rotate(0) translate(4 127)">
<title>ancestry</title>
<polygon fill="white" stroke="none" points="-4,4 -4,-127 302.288,-127 302.288,4 -4,4"/>
<!-- lot -->
<g id="node1" class="node"><title>lot</title>
<g id="a_node1"><a xlink:href="lot.html" xlink:title="Lot" target="_top">
<ellipse fill="none" stroke="blue" cx="85.6442" cy="-105" rx="27" ry="18"/>
<text text-anchor="middle" x="85.6442" y="-101.3" font-family="Times,serif" font-size="14.00">Lot</text>
</a>
</g>
</g>
<!-- lots_daughter1 -->
<g id="node2" class="node"><title>lots_daughter1</title>
<g id="a_node2"><a xlink:href="lots_daughter1.html" xlink:title="Lots_daughter1" target="_top">
<ellipse fill="none" stroke="red" cx="65.6442" cy="-18" rx="65.7887" ry="18"/>
<text text-anchor="middle" x="65.6442" y="-14.3" font-family="Times,serif" font-size="14.00">Lots_daughter1</text>
</a>
</g>
</g>
<!-- lot&#45;&gt;lots_daughter1 -->
<g id="edge1" class="edge"><title>lot&#45;&gt;lots_daughter1</title>
<path fill="none" stroke="black" d="M62.5257,-95.6274C50.7247,-90.0372 37.4521,-81.4018 30.6442,-69 25.6983,-59.9902 29.5254,-50.6296 36.1873,-42.4776"/>
<polygon fill="black" stroke="black" points="38.8738,-44.7322 43.2493,-35.0831 33.8115,-39.8976 38.8738,-44.7322"/>
<text text-anchor="middle" x="56.1442" y="-57.8" font-family="Times,serif" font-size="14.00">Gen 19:8</text>
</g>
<!-- lots_daughter2 -->
<g id="node3" class="node"><title>lots_daughter2</title>
<g id="a_node3"><a xlink:href="lots_daughter2.html" xlink:title="Lots_daughter2" target="_top">
<ellipse fill="none" stroke="red" cx="232.644" cy="-18" rx="65.7887" ry="18"/>
<text text-anchor="middle" x="232.644" y="-14.3" font-family="Times,serif" font-size="14.00">Lots_daughter2</text>
</a>
</g>
</g>
<!-- lot&#45;&gt;lots_daughter2 -->
<g id="edge2" class="edge"><title>lot&#45;&gt;lots_daughter2</title>
<path fill="none" stroke="black" d="M86.605,-86.9922C88.1094,-76.1491 91.7893,-62.5736 100.644,-54 110.7,-44.2634 139.562,-36.0626 167.742,-30.0522"/>
<polygon fill="black" stroke="black" points="168.557,-33.458 177.649,-28.0187 167.15,-26.6009 168.557,-33.458"/>
<text text-anchor="middle" x="126.144" y="-57.8" font-family="Times,serif" font-size="14.00">Gen 19:8</text>
</g>
<!-- lots_wife -->
<g id="node4" class="node"><title>lots_wife</title>
<g id="a_node4"><a xlink:href="lots_wife.html" xlink:title="Lots_wife" target="_top">
<ellipse fill="lightpink" stroke="red" stroke-width="2" cx="194.644" cy="-105" rx="46.2923" ry="18"/>
<text text-anchor="middle" x="194.644" y="-101.3" font-family="Times,serif" font-size="14.00">Lots_wife</text>
</a>
</g>
</g>
<!-- lot&#45;&gt;lots_wife -->
<g id="edge5" class="edge"><title>lot&#45;&gt;lots_wife</title>
<path fill="none" stroke="red" d="M112.894,-105C124.71,-105 136.525,-105 148.34,-105"/>
</g>
<!-- lots_wife&#45;&gt;lots_daughter1 -->
<g id="edge3" class="edge"><title>lots_wife&#45;&gt;lots_daughter1</title>
<path fill="none" stroke="black" d="M184.888,-87.2317C177.913,-76.4896 167.657,-62.9368 155.644,-54 145.033,-46.1054 132.415,-39.7527 120.034,-34.7413"/>
<polygon fill="black" stroke="black" points="121.241,-31.4558 110.65,-31.1671 118.749,-37.9974 121.241,-31.4558"/>
<text text-anchor="middle" x="197.144" y="-57.8" font-family="Times,serif" font-size="14.00">Gen 19:8</text>
</g>
<!-- lots_wife&#45;&gt;lots_daughter2 -->
<g id="edge4" class="edge"><title>lots_wife&#45;&gt;lots_daughter2</title>
<path fill="none" stroke="black" d="M214.972,-88.5416C220.732,-83.0426 226.331,-76.3669 229.644,-69 232.748,-62.1001 234.088,-54.1153 234.506,-46.5799"/>
<polygon fill="black" stroke="black" points="238.007,-46.4078 234.569,-36.3863 231.007,-46.3645 238.007,-46.4078"/>
<text text-anchor="middle" x="259.144" y="-57.8" font-family="Times,serif" font-size="14.00">Gen 19:8</text>
</g>
</g>
</svg>
