<?xml version="1.0" encoding="UTF-8" standalone="no"?>
<!DOCTYPE svg PUBLIC "-//W3C//DTD SVG 1.1//EN"
 "http://www.w3.org/Graphics/SVG/1.1/DTD/svg11.dtd">
<!-- Generated by graphviz version 2.38.0 (20140413.2041)
 -->
<!-- Title: ancestry Pages: 1 -->
<svg width="355pt" height="131pt"
 viewBox="0.00 0.00 354.64 131.00" xmlns="http://www.w3.org/2000/svg" xmlns:xlink="http://www.w3.org/1999/xlink">
<g id="graph0" class="graph" transform="scale(1 1) rotate(0) translate(4 127)">
<title>ancestry</title>
<polygon fill="white" stroke="none" points="-4,4 -4,-127 350.643,-127 350.643,4 -4,4"/>
<!-- maacah -->
<g id="node1" class="node"><title>maacah</title>
<g id="a_node1"><a xlink:href="maacah.html" xlink:title="Maacah" target="_top">
<ellipse fill="lightpink" stroke="red" stroke-width="2" cx="168.397" cy="-105" rx="38.9931" ry="18"/>
<text text-anchor="middle" x="168.397" y="-101.3" font-family="Times,serif" font-size="14.00">Maacah</text>
</a>
</g>
</g>
<!-- shaaph -->
<g id="node2" class="node"><title>shaaph</title>
<g id="a_node2"><a xlink:href="shaaph.html" xlink:title="Shaaph" target="_top">
<ellipse fill="none" stroke="blue" cx="36.3968" cy="-18" rx="36.2938" ry="18"/>
<text text-anchor="middle" x="36.3968" y="-14.3" font-family="Times,serif" font-size="14.00">Shaaph</text>
</a>
</g>
</g>
<!-- maacah&#45;&gt;shaaph -->
<g id="edge1" class="edge"><title>maacah&#45;&gt;shaaph</title>
<path fill="none" stroke="black" d="M133.116,-97.1107C113.189,-91.8976 88.6891,-83.1476 70.3968,-69 62.0153,-62.5176 54.9575,-53.3739 49.4826,-44.6754"/>
<polygon fill="black" stroke="black" points="52.4252,-42.7736 44.361,-35.9019 46.3798,-46.3026 52.4252,-42.7736"/>
<text text-anchor="middle" x="97.8968" y="-57.8" font-family="Times,serif" font-size="14.00">1 Ch 2:49</text>
</g>
<!-- sheber -->
<g id="node3" class="node"><title>sheber</title>
<g id="a_node3"><a xlink:href="sheber.html" xlink:title="Sheber" target="_top">
<ellipse fill="none" stroke="blue" cx="125.397" cy="-18" rx="35.194" ry="18"/>
<text text-anchor="middle" x="125.397" y="-14.3" font-family="Times,serif" font-size="14.00">Sheber</text>
</a>
</g>
</g>
<!-- maacah&#45;&gt;sheber -->
<g id="edge2" class="edge"><title>maacah&#45;&gt;sheber</title>
<path fill="none" stroke="black" d="M149.864,-88.8994C144.061,-83.2447 138.19,-76.3848 134.397,-69 130.795,-61.988 128.611,-53.7778 127.294,-46.0606"/>
<polygon fill="black" stroke="black" points="130.747,-45.4659 125.984,-36.0018 123.805,-46.3702 130.747,-45.4659"/>
<text text-anchor="middle" x="161.897" y="-57.8" font-family="Times,serif" font-size="14.00">1 Ch 2:48</text>
</g>
<!-- sheva -->
<g id="node4" class="node"><title>sheva</title>
<g id="a_node4"><a xlink:href="sheva.html" xlink:title="Sheva" target="_top">
<ellipse fill="none" stroke="blue" cx="211.397" cy="-18" rx="32.4942" ry="18"/>
<text text-anchor="middle" x="211.397" y="-14.3" font-family="Times,serif" font-size="14.00">Sheva</text>
</a>
</g>
</g>
<!-- maacah&#45;&gt;sheva -->
<g id="edge3" class="edge"><title>maacah&#45;&gt;sheva</title>
<path fill="none" stroke="black" d="M178.874,-87.5087C182.38,-81.7425 186.206,-75.1679 189.397,-69 193.319,-61.4192 197.203,-52.9889 200.59,-45.2433"/>
<polygon fill="black" stroke="black" points="203.866,-46.4846 204.58,-35.9139 197.43,-43.7315 203.866,-46.4846"/>
<text text-anchor="middle" x="224.897" y="-57.8" font-family="Times,serif" font-size="14.00">1 Ch 2:49</text>
</g>
<!-- tirhanah -->
<g id="node5" class="node"><title>tirhanah</title>
<g id="a_node5"><a xlink:href="tirhanah.html" xlink:title="Tirhanah" target="_top">
<ellipse fill="none" stroke="blue" cx="304.397" cy="-18" rx="42.4939" ry="18"/>
<text text-anchor="middle" x="304.397" y="-14.3" font-family="Times,serif" font-size="14.00">Tirhanah</text>
</a>
</g>
</g>
<!-- maacah&#45;&gt;tirhanah -->
<g id="edge4" class="edge"><title>maacah&#45;&gt;tirhanah</title>
<path fill="none" stroke="black" d="M200.966,-94.7566C218.305,-88.9471 239.48,-80.3798 256.397,-69 266.899,-61.9351 276.874,-52.2345 284.983,-43.2569"/>
<polygon fill="black" stroke="black" points="287.684,-45.4848 291.595,-35.6381 282.397,-40.8969 287.684,-45.4848"/>
<text text-anchor="middle" x="301.897" y="-57.8" font-family="Times,serif" font-size="14.00">1 Ch 2:48</text>
</g>
</g>
</svg>
