<?xml version="1.0" encoding="UTF-8" standalone="no"?>
<!DOCTYPE svg PUBLIC "-//W3C//DTD SVG 1.1//EN"
 "http://www.w3.org/Graphics/SVG/1.1/DTD/svg11.dtd">
<!-- Generated by graphviz version 2.38.0 (20140413.2041)
 -->
<!-- Title: ancestry Pages: 1 -->
<svg width="189pt" height="131pt"
 viewBox="0.00 0.00 188.79 131.00" xmlns="http://www.w3.org/2000/svg" xmlns:xlink="http://www.w3.org/1999/xlink">
<g id="graph0" class="graph" transform="scale(1 1) rotate(0) translate(4 127)">
<title>ancestry</title>
<polygon fill="white" stroke="none" points="-4,4 -4,-127 184.794,-127 184.794,4 -4,4"/>
<!-- maachah -->
<g id="node1" class="node"><title>maachah</title>
<g id="a_node1"><a xlink:href="maachah.html" xlink:title="Maachah" target="_top">
<ellipse fill="lightblue" stroke="blue" stroke-width="2" cx="86.4971" cy="-18" rx="43.5923" ry="18"/>
<text text-anchor="middle" x="86.4971" y="-14.3" font-family="Times,serif" font-size="14.00">Maachah</text>
</a>
</g>
</g>
<!-- reumah -->
<g id="node2" class="node"><title>reumah</title>
<g id="a_node2"><a xlink:href="reumah.html" xlink:title="Reumah" target="_top">
<ellipse fill="none" stroke="red" cx="140.497" cy="-105" rx="40.0939" ry="18"/>
<text text-anchor="middle" x="140.497" y="-101.3" font-family="Times,serif" font-size="14.00">Reumah</text>
</a>
</g>
</g>
<!-- reumah&#45;&gt;maachah -->
<g id="edge1" class="edge"><title>reumah&#45;&gt;maachah</title>
<path fill="none" stroke="black" d="M130.085,-87.6111C122.292,-75.3433 111.487,-58.3364 102.585,-44.3242"/>
<polygon fill="black" stroke="black" points="105.378,-42.1925 97.0611,-35.6286 99.4693,-45.9461 105.378,-42.1925"/>
<text text-anchor="middle" x="146.497" y="-57.8" font-family="Times,serif" font-size="14.00">Gen 22:24</text>
</g>
<!-- terahs_nahor -->
<g id="node3" class="node"><title>terahs_nahor</title>
<g id="a_node3"><a xlink:href="terahs_nahor.html" xlink:title="Nahor" target="_top">
<ellipse fill="none" stroke="blue" cx="32.4971" cy="-105" rx="32.4942" ry="18"/>
<text text-anchor="middle" x="32.4971" y="-101.3" font-family="Times,serif" font-size="14.00">Nahor</text>
</a>
</g>
</g>
<!-- terahs_nahor&#45;&gt;maachah -->
<g id="edge2" class="edge"><title>terahs_nahor&#45;&gt;maachah</title>
<path fill="none" stroke="black" d="M35.6769,-86.8442C38.0961,-76.725 42.1224,-63.9874 48.4971,-54 51.3789,-49.485 54.9841,-45.1719 58.8183,-41.2122"/>
<polygon fill="black" stroke="black" points="61.498,-43.4944 66.3439,-34.0728 56.6803,-38.416 61.498,-43.4944"/>
<text text-anchor="middle" x="77.4971" y="-57.8" font-family="Times,serif" font-size="14.00">Gen 22:24</text>
</g>
<!-- terahs_nahor&#45;&gt;reumah -->
<g id="edge3" class="edge"><title>terahs_nahor&#45;&gt;reumah</title>
<path fill="none" stroke="red" d="M65.4034,-105C76.9412,-105 88.4791,-105 100.017,-105"/>
</g>
</g>
</svg>
