<?xml version="1.0" encoding="UTF-8" standalone="no"?>
<!DOCTYPE svg PUBLIC "-//W3C//DTD SVG 1.1//EN"
 "http://www.w3.org/Graphics/SVG/1.1/DTD/svg11.dtd">
<!-- Generated by graphviz version 2.38.0 (20140413.2041)
 -->
<!-- Title: ancestry Pages: 1 -->
<svg width="195pt" height="131pt"
 viewBox="0.00 0.00 194.95 131.00" xmlns="http://www.w3.org/2000/svg" xmlns:xlink="http://www.w3.org/1999/xlink">
<g id="graph0" class="graph" transform="scale(1 1) rotate(0) translate(4 127)">
<title>ancestry</title>
<polygon fill="white" stroke="none" points="-4,4 -4,-127 190.948,-127 190.948,4 -4,4"/>
<!-- esau -->
<g id="node1" class="node"><title>esau</title>
<g id="a_node1"><a xlink:href="esau.html" xlink:title="Esau" target="_top">
<ellipse fill="none" stroke="blue" cx="27.9475" cy="-18" rx="27.8951" ry="18"/>
<text text-anchor="middle" x="27.9475" y="-14.3" font-family="Times,serif" font-size="14.00">Esau</text>
</a>
</g>
</g>
<!-- mahalath -->
<g id="node3" class="node"><title>mahalath</title>
<g id="a_node3"><a xlink:href="mahalath.html" xlink:title="Mahalath" target="_top">
<ellipse fill="lightpink" stroke="red" stroke-width="2" cx="135.948" cy="-18" rx="44.393" ry="18"/>
<text text-anchor="middle" x="135.948" y="-14.3" font-family="Times,serif" font-size="14.00">Mahalath</text>
</a>
</g>
</g>
<!-- esau&#45;&gt;mahalath -->
<g id="edge2" class="edge"><title>esau&#45;&gt;mahalath</title>
<path fill="none" stroke="red" d="M56.2131,-18C68.0487,-18 79.8843,-18 91.7199,-18"/>
</g>
<!-- ishmael -->
<g id="node2" class="node"><title>ishmael</title>
<g id="a_node2"><a xlink:href="ishmael.html" xlink:title="Ishmael" target="_top">
<ellipse fill="none" stroke="blue" cx="135.948" cy="-105" rx="38.9931" ry="18"/>
<text text-anchor="middle" x="135.948" y="-101.3" font-family="Times,serif" font-size="14.00">Ishmael</text>
</a>
</g>
</g>
<!-- ishmael&#45;&gt;mahalath -->
<g id="edge1" class="edge"><title>ishmael&#45;&gt;mahalath</title>
<path fill="none" stroke="black" d="M135.948,-86.799C135.948,-75.1626 135.948,-59.5479 135.948,-46.2368"/>
<polygon fill="black" stroke="black" points="139.448,-46.1754 135.948,-36.1754 132.448,-46.1755 139.448,-46.1754"/>
<text text-anchor="middle" x="161.448" y="-57.8" font-family="Times,serif" font-size="14.00">Gen 28:9</text>
</g>
</g>
</svg>
