<?xml version="1.0" encoding="UTF-8" standalone="no"?>
<!DOCTYPE svg PUBLIC "-//W3C//DTD SVG 1.1//EN"
 "http://www.w3.org/Graphics/SVG/1.1/DTD/svg11.dtd">
<!-- Generated by graphviz version 2.38.0 (20140413.2041)
 -->
<!-- Title: ancestry Pages: 1 -->
<svg width="259pt" height="218pt"
 viewBox="0.00 0.00 258.89 218.00" xmlns="http://www.w3.org/2000/svg" xmlns:xlink="http://www.w3.org/1999/xlink">
<g id="graph0" class="graph" transform="scale(1 1) rotate(0) translate(4 214)">
<title>ancestry</title>
<polygon fill="white" stroke="none" points="-4,4 -4,-214 254.89,-214 254.89,4 -4,4"/>
<!-- makir -->
<g id="node1" class="node"><title>makir</title>
<g id="a_node1"><a xlink:href="makir.html" xlink:title="Makir" target="_top">
<ellipse fill="none" stroke="blue" cx="179.397" cy="-192" rx="32.4942" ry="18"/>
<text text-anchor="middle" x="179.397" y="-188.3" font-family="Times,serif" font-size="14.00">Makir</text>
</a>
</g>
</g>
<!-- makirs_daughter -->
<g id="node2" class="node"><title>makirs_daughter</title>
<g id="a_node2"><a xlink:href="makirs_daughter.html" xlink:title="Makirs_daughter" target="_top">
<ellipse fill="lightpink" stroke="red" stroke-width="2" cx="179.397" cy="-105" rx="71.4873" ry="18"/>
<text text-anchor="middle" x="179.397" y="-101.3" font-family="Times,serif" font-size="14.00">Makirs_daughter</text>
</a>
</g>
</g>
<!-- makir&#45;&gt;makirs_daughter -->
<g id="edge1" class="edge"><title>makir&#45;&gt;makirs_daughter</title>
<path fill="none" stroke="black" d="M179.397,-173.799C179.397,-162.163 179.397,-146.548 179.397,-133.237"/>
<polygon fill="black" stroke="black" points="182.897,-133.175 179.397,-123.175 175.897,-133.175 182.897,-133.175"/>
<text text-anchor="middle" x="206.897" y="-144.8" font-family="Times,serif" font-size="14.00">1 Ch 2:21</text>
</g>
<!-- segub -->
<g id="node4" class="node"><title>segub</title>
<g id="a_node4"><a xlink:href="segub.html" xlink:title="Segub" target="_top">
<ellipse fill="none" stroke="blue" cx="115.397" cy="-18" rx="32.4942" ry="18"/>
<text text-anchor="middle" x="115.397" y="-14.3" font-family="Times,serif" font-size="14.00">Segub</text>
</a>
</g>
</g>
<!-- makirs_daughter&#45;&gt;segub -->
<g id="edge2" class="edge"><title>makirs_daughter&#45;&gt;segub</title>
<path fill="none" stroke="black" d="M166.752,-87.2067C157.28,-74.6259 144.183,-57.2311 133.586,-43.1571"/>
<polygon fill="black" stroke="black" points="136.177,-40.7794 127.365,-34.8959 130.584,-44.9899 136.177,-40.7794"/>
<text text-anchor="middle" x="178.897" y="-57.8" font-family="Times,serif" font-size="14.00">1 Ch 2:21</text>
</g>
<!-- perezs_hezron -->
<g id="node3" class="node"><title>perezs_hezron</title>
<g id="a_node3"><a xlink:href="perezs_hezron.html" xlink:title="Hezron" target="_top">
<ellipse fill="none" stroke="blue" cx="36.3968" cy="-105" rx="36.2938" ry="18"/>
<text text-anchor="middle" x="36.3968" y="-101.3" font-family="Times,serif" font-size="14.00">Hezron</text>
</a>
</g>
</g>
<!-- perezs_hezron&#45;&gt;makirs_daughter -->
<g id="edge4" class="edge"><title>perezs_hezron&#45;&gt;makirs_daughter</title>
<path fill="none" stroke="red" d="M72.9847,-105C84.6235,-105 96.2623,-105 107.901,-105"/>
</g>
<!-- perezs_hezron&#45;&gt;segub -->
<g id="edge3" class="edge"><title>perezs_hezron&#45;&gt;segub</title>
<path fill="none" stroke="black" d="M50.8866,-88.4097C62.9135,-75.4693 80.1955,-56.8748 93.8456,-42.188"/>
<polygon fill="black" stroke="black" points="96.7547,-44.1991 100.999,-34.4915 91.6273,-39.4336 96.7547,-44.1991"/>
<text text-anchor="middle" x="108.897" y="-57.8" font-family="Times,serif" font-size="14.00">1 Ch 2:21</text>
</g>
</g>
</svg>
