<?xml version="1.0" encoding="UTF-8" standalone="no"?>
<!DOCTYPE svg PUBLIC "-//W3C//DTD SVG 1.1//EN"
 "http://www.w3.org/Graphics/SVG/1.1/DTD/svg11.dtd">
<!-- Generated by graphviz version 2.38.0 (20140413.2041)
 -->
<!-- Title: ancestry Pages: 1 -->
<svg width="238pt" height="131pt"
 viewBox="0.00 0.00 237.94 131.00" xmlns="http://www.w3.org/2000/svg" xmlns:xlink="http://www.w3.org/1999/xlink">
<g id="graph0" class="graph" transform="scale(1 1) rotate(0) translate(4 127)">
<title>ancestry</title>
<polygon fill="white" stroke="none" points="-4,4 -4,-127 233.941,-127 233.941,4 -4,4"/>
<!-- gilead -->
<g id="node1" class="node"><title>gilead</title>
<g id="a_node1"><a xlink:href="gilead.html" xlink:title="Gilead" target="_top">
<ellipse fill="none" stroke="blue" cx="34.4469" cy="-18" rx="34.394" ry="18"/>
<text text-anchor="middle" x="34.4469" y="-14.3" font-family="Times,serif" font-size="14.00">Gilead</text>
</a>
</g>
</g>
<!-- makir -->
<g id="node2" class="node"><title>makir</title>
<g id="a_node2"><a xlink:href="makir.html" xlink:title="Makir" target="_top">
<ellipse fill="lightblue" stroke="blue" stroke-width="2" cx="96.4469" cy="-105" rx="32.4942" ry="18"/>
<text text-anchor="middle" x="96.4469" y="-101.3" font-family="Times,serif" font-size="14.00">Makir</text>
</a>
</g>
</g>
<!-- makir&#45;&gt;gilead -->
<g id="edge1" class="edge"><title>makir&#45;&gt;gilead</title>
<path fill="none" stroke="black" d="M84.7852,-88.0122C75.6639,-75.5071 62.8235,-57.9033 52.3944,-43.6053"/>
<polygon fill="black" stroke="black" points="54.9879,-41.2217 46.2672,-35.2052 49.3325,-45.3469 54.9879,-41.2217"/>
<text text-anchor="middle" x="96.9469" y="-57.8" font-family="Times,serif" font-size="14.00">1 Ch 2:21</text>
</g>
<!-- makirs_daughter -->
<g id="node3" class="node"><title>makirs_daughter</title>
<g id="a_node3"><a xlink:href="makirs_daughter.html" xlink:title="Makirs_daughter" target="_top">
<ellipse fill="none" stroke="red" cx="158.447" cy="-18" rx="71.4873" ry="18"/>
<text text-anchor="middle" x="158.447" y="-14.3" font-family="Times,serif" font-size="14.00">Makirs_daughter</text>
</a>
</g>
</g>
<!-- makir&#45;&gt;makirs_daughter -->
<g id="edge2" class="edge"><title>makir&#45;&gt;makirs_daughter</title>
<path fill="none" stroke="black" d="M111.482,-88.8966C117.089,-82.9289 123.33,-75.8653 128.447,-69 134.013,-61.5328 139.453,-52.9751 144.138,-45.0752"/>
<polygon fill="black" stroke="black" points="147.288,-46.6189 149.255,-36.2081 141.225,-43.1204 147.288,-46.6189"/>
<text text-anchor="middle" x="165.947" y="-57.8" font-family="Times,serif" font-size="14.00">1 Ch 2:21</text>
</g>
</g>
</svg>
