<?xml version="1.0" encoding="UTF-8" standalone="no"?>
<!DOCTYPE svg PUBLIC "-//W3C//DTD SVG 1.1//EN"
 "http://www.w3.org/Graphics/SVG/1.1/DTD/svg11.dtd">
<!-- Generated by graphviz version 2.38.0 (20140413.2041)
 -->
<!-- Title: ancestry Pages: 1 -->
<svg width="163pt" height="131pt"
 viewBox="0.00 0.00 163.15 131.00" xmlns="http://www.w3.org/2000/svg" xmlns:xlink="http://www.w3.org/1999/xlink">
<g id="graph0" class="graph" transform="scale(1 1) rotate(0) translate(4 127)">
<title>ancestry</title>
<polygon fill="white" stroke="none" points="-4,4 -4,-127 159.147,-127 159.147,4 -4,4"/>
<!-- hurs_salma -->
<g id="node1" class="node"><title>hurs_salma</title>
<g id="a_node1"><a xlink:href="hurs_salma.html" xlink:title="Salma" target="_top">
<ellipse fill="none" stroke="blue" cx="33.1471" cy="-105" rx="33.2948" ry="18"/>
<text text-anchor="middle" x="33.1471" y="-101.3" font-family="Times,serif" font-size="14.00">Salma</text>
</a>
</g>
</g>
<!-- manahathites -->
<g id="node2" class="node"><title>manahathites</title>
<g id="a_node2"><a xlink:href="manahathites.html" xlink:title="Manahathites" target="_top">
<ellipse fill="lightgrey" stroke="black" stroke-width="2" cx="76.1471" cy="-18" rx="58.4896" ry="18"/>
<text text-anchor="middle" x="76.1471" y="-14.3" font-family="Times,serif" font-size="14.00">Manahathites</text>
</a>
</g>
</g>
<!-- hurs_salma&#45;&gt;manahathites -->
<g id="edge2" class="edge"><title>hurs_salma&#45;&gt;manahathites</title>
<path fill="none" stroke="black" stroke-dasharray="1,5" d="M30.5382,-86.969C29.7749,-76.8941 30.2135,-64.1592 35.1471,-54 37.3318,-49.5012 40.3909,-45.3556 43.8641,-41.6117"/>
<polygon fill="black" stroke="black" points="46.5356,-43.9042 51.4277,-34.5065 41.7428,-38.8023 46.5356,-43.9042"/>
<text text-anchor="middle" x="62.6471" y="-57.8" font-family="Times,serif" font-size="14.00">1 Ch 2:54</text>
</g>
<!-- shobal -->
<g id="node3" class="node"><title>shobal</title>
<g id="a_node3"><a xlink:href="shobal.html" xlink:title="Shobal" target="_top">
<ellipse fill="none" stroke="blue" cx="119.147" cy="-105" rx="35.194" ry="18"/>
<text text-anchor="middle" x="119.147" y="-101.3" font-family="Times,serif" font-size="14.00">Shobal</text>
</a>
</g>
</g>
<!-- shobal&#45;&gt;manahathites -->
<g id="edge1" class="edge"><title>shobal&#45;&gt;manahathites</title>
<path fill="none" stroke="black" stroke-dasharray="1,5" d="M110.652,-87.2067C104.566,-75.1778 96.2548,-58.7478 89.314,-45.0276"/>
<polygon fill="black" stroke="black" points="92.4093,-43.3926 84.772,-36.0493 86.163,-46.5525 92.4093,-43.3926"/>
<text text-anchor="middle" x="127.647" y="-57.8" font-family="Times,serif" font-size="14.00">1 Ch 2:52</text>
</g>
</g>
</svg>
