<?xml version="1.0" encoding="UTF-8" standalone="no"?>
<!DOCTYPE svg PUBLIC "-//W3C//DTD SVG 1.1//EN"
 "http://www.w3.org/Graphics/SVG/1.1/DTD/svg11.dtd">
<!-- Generated by graphviz version 2.38.0 (20140413.2041)
 -->
<!-- Title: ancestry Pages: 1 -->
<svg width="353pt" height="218pt"
 viewBox="0.00 0.00 353.09 218.00" xmlns="http://www.w3.org/2000/svg" xmlns:xlink="http://www.w3.org/1999/xlink">
<g id="graph0" class="graph" transform="scale(1 1) rotate(0) translate(4 214)">
<title>ancestry</title>
<polygon fill="white" stroke="none" points="-4,4 -4,-214 349.093,-214 349.093,4 -4,4"/>
<!-- hebrons_korah -->
<g id="node1" class="node"><title>hebrons_korah</title>
<g id="a_node1"><a xlink:href="hebrons_korah.html" xlink:title="Korah" target="_top">
<ellipse fill="none" stroke="blue" cx="32.4971" cy="-18" rx="32.4942" ry="18"/>
<text text-anchor="middle" x="32.4971" y="-14.3" font-family="Times,serif" font-size="14.00">Korah</text>
</a>
</g>
</g>
<!-- marashah -->
<g id="node2" class="node"><title>marashah</title>
<g id="a_node2"><a xlink:href="marashah.html" xlink:title="Marashah" target="_top">
<ellipse fill="none" stroke="blue" cx="163.497" cy="-192" rx="46.2923" ry="18"/>
<text text-anchor="middle" x="163.497" y="-188.3" font-family="Times,serif" font-size="14.00">Marashah</text>
</a>
</g>
</g>
<!-- marashahs_hebron -->
<g id="node3" class="node"><title>marashahs_hebron</title>
<g id="a_node3"><a xlink:href="marashahs_hebron.html" xlink:title="Hebron" target="_top">
<ellipse fill="lightblue" stroke="blue" stroke-width="2" cx="163.497" cy="-105" rx="37.0935" ry="18"/>
<text text-anchor="middle" x="163.497" y="-101.3" font-family="Times,serif" font-size="14.00">Hebron</text>
</a>
</g>
</g>
<!-- marashah&#45;&gt;marashahs_hebron -->
<g id="edge1" class="edge"><title>marashah&#45;&gt;marashahs_hebron</title>
<path fill="none" stroke="black" d="M163.497,-173.799C163.497,-162.163 163.497,-146.548 163.497,-133.237"/>
<polygon fill="black" stroke="black" points="166.997,-133.175 163.497,-123.175 159.997,-133.175 166.997,-133.175"/>
<text text-anchor="middle" x="190.997" y="-144.8" font-family="Times,serif" font-size="14.00">1 Ch 2:42</text>
</g>
<!-- marashahs_hebron&#45;&gt;hebrons_korah -->
<g id="edge2" class="edge"><title>marashahs_hebron&#45;&gt;hebrons_korah</title>
<path fill="none" stroke="black" d="M129.915,-97.1175C110.258,-91.8514 85.7884,-83.0453 67.4971,-69 59.0142,-62.4862 51.7795,-53.3359 46.1275,-44.6408"/>
<polygon fill="black" stroke="black" points="48.995,-42.6189 40.8244,-35.874 43.0055,-46.242 48.995,-42.6189"/>
<text text-anchor="middle" x="94.9971" y="-57.8" font-family="Times,serif" font-size="14.00">1 Ch 2:43</text>
</g>
<!-- rekem -->
<g id="node4" class="node"><title>rekem</title>
<g id="a_node4"><a xlink:href="rekem.html" xlink:title="Rekem" target="_top">
<ellipse fill="none" stroke="blue" cx="119.497" cy="-18" rx="36.2938" ry="18"/>
<text text-anchor="middle" x="119.497" y="-14.3" font-family="Times,serif" font-size="14.00">Rekem</text>
</a>
</g>
</g>
<!-- marashahs_hebron&#45;&gt;rekem -->
<g id="edge3" class="edge"><title>marashahs_hebron&#45;&gt;rekem</title>
<path fill="none" stroke="black" d="M146.632,-88.9503C141.085,-83.2031 135.358,-76.2718 131.497,-69 127.813,-62.0615 125.244,-53.9851 123.458,-46.3728"/>
<polygon fill="black" stroke="black" points="126.864,-45.5545 121.478,-36.4308 119.999,-46.9218 126.864,-45.5545"/>
<text text-anchor="middle" x="158.997" y="-57.8" font-family="Times,serif" font-size="14.00">1 Ch 2:43</text>
</g>
<!-- shema -->
<g id="node5" class="node"><title>shema</title>
<g id="a_node5"><a xlink:href="shema.html" xlink:title="Shema" target="_top">
<ellipse fill="none" stroke="blue" cx="208.497" cy="-18" rx="35.194" ry="18"/>
<text text-anchor="middle" x="208.497" y="-14.3" font-family="Times,serif" font-size="14.00">Shema</text>
</a>
</g>
</g>
<!-- marashahs_hebron&#45;&gt;shema -->
<g id="edge4" class="edge"><title>marashahs_hebron&#45;&gt;shema</title>
<path fill="none" stroke="black" d="M175.077,-87.6143C178.926,-81.8566 183.094,-75.2603 186.497,-69 190.574,-61.5012 194.503,-53.0951 197.885,-45.3466"/>
<polygon fill="black" stroke="black" points="201.166,-46.5743 201.846,-36.0012 194.721,-43.8428 201.166,-46.5743"/>
<text text-anchor="middle" x="221.997" y="-57.8" font-family="Times,serif" font-size="14.00">1 Ch 2:43</text>
</g>
<!-- tappuah -->
<g id="node6" class="node"><title>tappuah</title>
<g id="a_node6"><a xlink:href="tappuah.html" xlink:title="Tappuah" target="_top">
<ellipse fill="none" stroke="blue" cx="303.497" cy="-18" rx="41.6928" ry="18"/>
<text text-anchor="middle" x="303.497" y="-14.3" font-family="Times,serif" font-size="14.00">Tappuah</text>
</a>
</g>
</g>
<!-- marashahs_hebron&#45;&gt;tappuah -->
<g id="edge5" class="edge"><title>marashahs_hebron&#45;&gt;tappuah</title>
<path fill="none" stroke="black" d="M195.018,-95.2951C213.026,-89.4768 235.526,-80.7268 253.497,-69 264.47,-61.8397 274.985,-51.9585 283.516,-42.8699"/>
<polygon fill="black" stroke="black" points="286.36,-44.9431 290.464,-35.1754 281.164,-40.2518 286.36,-44.9431"/>
<text text-anchor="middle" x="299.997" y="-57.8" font-family="Times,serif" font-size="14.00">1 Ch 2:43</text>
</g>
</g>
</svg>
