<?xml version="1.0" encoding="UTF-8" standalone="no"?>
<!DOCTYPE svg PUBLIC "-//W3C//DTD SVG 1.1//EN"
 "http://www.w3.org/Graphics/SVG/1.1/DTD/svg11.dtd">
<!-- Generated by graphviz version 2.38.0 (20140413.2041)
 -->
<!-- Title: ancestry Pages: 1 -->
<svg width="1019pt" height="218pt"
 viewBox="0.00 0.00 1019.40 218.00" xmlns="http://www.w3.org/2000/svg" xmlns:xlink="http://www.w3.org/1999/xlink">
<g id="graph0" class="graph" transform="scale(1 1) rotate(0) translate(4 214)">
<title>ancestry</title>
<polygon fill="white" stroke="none" points="-4,4 -4,-214 1015.4,-214 1015.4,4 -4,4"/>
<!-- heli -->
<g id="node1" class="node"><title>heli</title>
<g id="a_node1"><a xlink:href="heli.html" xlink:title="Heli" target="_top">
<ellipse fill="none" stroke="blue" cx="493.402" cy="-192" rx="27" ry="18"/>
<text text-anchor="middle" x="493.402" y="-188.3" font-family="Times,serif" font-size="14.00">Heli</text>
</a>
</g>
</g>
<!-- joseph_carpenter -->
<g id="node3" class="node"><title>joseph_carpenter</title>
<g id="a_node3"><a xlink:href="joseph_carpenter.html" xlink:title="Joseph" target="_top">
<ellipse fill="none" stroke="blue" cx="443.402" cy="-105" rx="34.394" ry="18"/>
<text text-anchor="middle" x="443.402" y="-101.3" font-family="Times,serif" font-size="14.00">Joseph</text>
</a>
</g>
</g>
<!-- heli&#45;&gt;joseph_carpenter -->
<g id="edge4" class="edge"><title>heli&#45;&gt;joseph_carpenter</title>
<path fill="none" stroke="black" stroke-dasharray="5,2" d="M466.312,-191.164C368.133,-191.48 35.0769,-190.018 3.40233,-156 -1.14068,-151.121 -1.12096,-145.897 3.40233,-141 29.8504,-112.365 292.222,-107.138 398.774,-106.199"/>
<polygon fill="black" stroke="black" points="398.914,-109.698 408.886,-106.119 398.858,-102.698 398.914,-109.698"/>
<text text-anchor="middle" x="478.902" y="-144.8" font-family="Times,serif" font-size="14.00">Luk 3:23, http://creation.com/jesus&#45;genealogies, &quot;If Heli had only daughters, Joseph could have become Heli’s heir by adoption, especially if Joseph became his son&#45;in&#45;law.&quot;</text>
</g>
<!-- mary -->
<g id="node4" class="node"><title>mary</title>
<g id="a_node4"><a xlink:href="mary.html" xlink:title="Mary" target="_top">
<ellipse fill="lightpink" stroke="red" stroke-width="2" cx="543.402" cy="-105" rx="30.5947" ry="18"/>
<text text-anchor="middle" x="543.402" y="-101.3" font-family="Times,serif" font-size="14.00">Mary</text>
</a>
</g>
</g>
<!-- heli&#45;&gt;mary -->
<g id="edge1" class="edge"><title>heli&#45;&gt;mary</title>
<path fill="none" stroke="black" d="M520.411,-191.053C615.19,-190.959 928.535,-188.2 958.402,-156 962.936,-151.112 962.914,-145.908 958.402,-141 933.41,-113.811 683.989,-107.727 584.277,-106.379"/>
<polygon fill="black" stroke="black" points="584.035,-102.876 573.992,-106.25 583.947,-109.875 584.035,-102.876"/>
<text text-anchor="middle" x="986.402" y="-144.8" font-family="Times,serif" font-size="14.00">Luk 3:23</text>
</g>
<!-- jesus -->
<g id="node2" class="node"><title>jesus</title>
<g id="a_node2"><a xlink:href="jesus.html" xlink:title="Jesus" target="_top">
<ellipse fill="none" stroke="blue" cx="496.402" cy="-18" rx="29.4969" ry="18"/>
<text text-anchor="middle" x="496.402" y="-14.3" font-family="Times,serif" font-size="14.00">Jesus</text>
</a>
</g>
</g>
<!-- joseph_carpenter&#45;&gt;jesus -->
<g id="edge3" class="edge"><title>joseph_carpenter&#45;&gt;jesus</title>
<path fill="none" stroke="black" stroke-dasharray="5,2" d="M448.414,-87.0306C451.806,-76.9776 456.862,-64.2439 463.402,-54 466.305,-49.4533 469.844,-44.9728 473.514,-40.8145"/>
<polygon fill="black" stroke="black" points="476.296,-42.9649 480.597,-33.2824 471.197,-38.1693 476.296,-42.9649"/>
<text text-anchor="middle" x="488.402" y="-57.8" font-family="Times,serif" font-size="14.00">Luk 3:23</text>
</g>
<!-- joseph_carpenter&#45;&gt;mary -->
<g id="edge5" class="edge"><title>joseph_carpenter&#45;&gt;mary</title>
<path fill="none" stroke="red" d="M478.168,-105C489.72,-105 501.272,-105 512.824,-105"/>
</g>
<!-- mary&#45;&gt;jesus -->
<g id="edge2" class="edge"><title>mary&#45;&gt;jesus</title>
<path fill="none" stroke="black" d="M534.34,-87.6111C527.578,-75.3817 518.212,-58.4429 510.478,-44.456"/>
<polygon fill="black" stroke="black" points="513.339,-42.3962 505.437,-35.3385 507.213,-45.7835 513.339,-42.3962"/>
<text text-anchor="middle" x="548.902" y="-57.8" font-family="Times,serif" font-size="14.00">Mat 1:16</text>
</g>
</g>
</svg>
