<?xml version="1.0" encoding="UTF-8" standalone="no"?>
<!DOCTYPE svg PUBLIC "-//W3C//DTD SVG 1.1//EN"
 "http://www.w3.org/Graphics/SVG/1.1/DTD/svg11.dtd">
<!-- Generated by graphviz version 2.38.0 (20140413.2041)
 -->
<!-- Title: ancestry Pages: 1 -->
<svg width="543pt" height="218pt"
 viewBox="0.00 0.00 542.72 218.00" xmlns="http://www.w3.org/2000/svg" xmlns:xlink="http://www.w3.org/1999/xlink">
<g id="graph0" class="graph" transform="scale(1 1) rotate(0) translate(4 214)">
<title>ancestry</title>
<polygon fill="white" stroke="none" points="-4,4 -4,-214 538.724,-214 538.724,4 -4,4"/>
<!-- adah -->
<g id="node1" class="node"><title>adah</title>
<g id="a_node1"><a xlink:href="adah.html" xlink:title="Adah" target="_top">
<ellipse fill="none" stroke="red" cx="429.724" cy="-105" rx="29.795" ry="18"/>
<text text-anchor="middle" x="429.724" y="-101.3" font-family="Times,serif" font-size="14.00">Adah</text>
</a>
</g>
</g>
<!-- jabal -->
<g id="node2" class="node"><title>jabal</title>
<g id="a_node2"><a xlink:href="jabal.html" xlink:title="Jabal" target="_top">
<ellipse fill="none" stroke="blue" cx="278.724" cy="-18" rx="28.6953" ry="18"/>
<text text-anchor="middle" x="278.724" y="-14.3" font-family="Times,serif" font-size="14.00">Jabal</text>
</a>
</g>
</g>
<!-- adah&#45;&gt;jabal -->
<g id="edge1" class="edge"><title>adah&#45;&gt;jabal</title>
<path fill="none" stroke="black" d="M426.199,-86.8865C423.099,-75.9987 417.501,-62.4132 407.724,-54 382.692,-32.4573 345.624,-24.0501 317.638,-20.8314"/>
<polygon fill="black" stroke="black" points="317.693,-17.3203 307.401,-19.8353 317.015,-24.2874 317.693,-17.3203"/>
<text text-anchor="middle" x="444.224" y="-57.8" font-family="Times,serif" font-size="14.00">Gen 4:20</text>
</g>
<!-- jubal -->
<g id="node3" class="node"><title>jubal</title>
<g id="a_node3"><a xlink:href="jubal.html" xlink:title="Jubal" target="_top">
<ellipse fill="none" stroke="blue" cx="429.724" cy="-18" rx="29.4969" ry="18"/>
<text text-anchor="middle" x="429.724" y="-14.3" font-family="Times,serif" font-size="14.00">Jubal</text>
</a>
</g>
</g>
<!-- adah&#45;&gt;jubal -->
<g id="edge2" class="edge"><title>adah&#45;&gt;jubal</title>
<path fill="none" stroke="black" d="M453.628,-93.9111C471.182,-84.8988 490.552,-70.5828 481.724,-54 477.387,-45.853 470.217,-39.2626 462.566,-34.0916"/>
<polygon fill="black" stroke="black" points="463.882,-30.8004 453.505,-28.6651 460.286,-36.8058 463.882,-30.8004"/>
<text text-anchor="middle" x="509.224" y="-57.8" font-family="Times,serif" font-size="14.00">Gen 4:21</text>
</g>
<!-- mehujael -->
<g id="node4" class="node"><title>mehujael</title>
<g id="a_node4"><a xlink:href="mehujael.html" xlink:title="Mehujael" target="_top">
<ellipse fill="none" stroke="blue" cx="177.724" cy="-192" rx="44.393" ry="18"/>
<text text-anchor="middle" x="177.724" y="-188.3" font-family="Times,serif" font-size="14.00">Mehujael</text>
</a>
</g>
</g>
<!-- mehujaels_lamech -->
<g id="node5" class="node"><title>mehujaels_lamech</title>
<g id="a_node5"><a xlink:href="mehujaels_lamech.html" xlink:title="Lamech" target="_top">
<ellipse fill="lightblue" stroke="blue" stroke-width="2" cx="177.724" cy="-105" rx="39.7935" ry="18"/>
<text text-anchor="middle" x="177.724" y="-101.3" font-family="Times,serif" font-size="14.00">Lamech</text>
</a>
</g>
</g>
<!-- mehujael&#45;&gt;mehujaels_lamech -->
<g id="edge3" class="edge"><title>mehujael&#45;&gt;mehujaels_lamech</title>
<path fill="none" stroke="black" d="M177.724,-173.799C177.724,-162.163 177.724,-146.548 177.724,-133.237"/>
<polygon fill="black" stroke="black" points="181.225,-133.175 177.724,-123.175 174.225,-133.175 181.225,-133.175"/>
<text text-anchor="middle" x="203.224" y="-144.8" font-family="Times,serif" font-size="14.00">Gen 4:18</text>
</g>
<!-- mehujaels_lamech&#45;&gt;adah -->
<g id="edge10" class="edge"><title>mehujaels_lamech&#45;&gt;adah</title>
<path fill="none" stroke="red" d="M197.742,-120.547C212.145,-130.707 232.52,-143.065 252.724,-148.5 308.339,-163.461 374.338,-135.163 407.847,-117.553"/>
</g>
<!-- mehujaels_lamech&#45;&gt;jabal -->
<g id="edge4" class="edge"><title>mehujaels_lamech&#45;&gt;jabal</title>
<path fill="none" stroke="black" d="M185.248,-87.0423C190.595,-76.4925 198.615,-63.2257 208.724,-54 214.875,-48.3873 231.181,-40.1265 246.509,-33.0397"/>
<polygon fill="black" stroke="black" points="248.165,-36.1315 255.826,-28.813 245.274,-29.7567 248.165,-36.1315"/>
<text text-anchor="middle" x="234.224" y="-57.8" font-family="Times,serif" font-size="14.00">Gen 4:20</text>
</g>
<!-- mehujaels_lamech&#45;&gt;jubal -->
<g id="edge5" class="edge"><title>mehujaels_lamech&#45;&gt;jubal</title>
<path fill="none" stroke="black" d="M211.242,-95.1174C221.634,-92.4308 233.136,-89.525 243.724,-87 280.019,-78.3451 290.825,-82.1997 325.724,-69 338.564,-64.1437 340.466,-60.1786 352.724,-54 366.969,-46.8202 382.99,-39.4314 396.714,-33.3039"/>
<polygon fill="black" stroke="black" points="398.516,-36.334 406.244,-29.086 395.683,-29.933 398.516,-36.334"/>
<text text-anchor="middle" x="378.224" y="-57.8" font-family="Times,serif" font-size="14.00">Gen 4:21</text>
</g>
<!-- naamah -->
<g id="node6" class="node"><title>naamah</title>
<g id="a_node6"><a xlink:href="naamah.html" xlink:title="Naamah" target="_top">
<ellipse fill="none" stroke="red" cx="61.7245" cy="-18" rx="40.0939" ry="18"/>
<text text-anchor="middle" x="61.7245" y="-14.3" font-family="Times,serif" font-size="14.00">Naamah</text>
</a>
</g>
</g>
<!-- mehujaels_lamech&#45;&gt;naamah -->
<g id="edge6" class="edge"><title>mehujaels_lamech&#45;&gt;naamah</title>
<path fill="none" stroke="black" d="M138.436,-101.728C92.4444,-98.1522 20.416,-89.3833 3.7245,-69 -6.6515,-56.329 6.38855,-44.2749 22.7116,-35.178"/>
<polygon fill="black" stroke="black" points="24.6735,-38.1063 31.9899,-30.4433 21.4917,-31.8712 24.6735,-38.1063"/>
<text text-anchor="middle" x="29.2245" y="-57.8" font-family="Times,serif" font-size="14.00">Gen 4:22</text>
</g>
<!-- tubal_cain -->
<g id="node7" class="node"><title>tubal_cain</title>
<g id="a_node7"><a xlink:href="tubal_cain.html" xlink:title="Tubal_cain" target="_top">
<ellipse fill="none" stroke="blue" cx="177.724" cy="-18" rx="50.0912" ry="18"/>
<text text-anchor="middle" x="177.724" y="-14.3" font-family="Times,serif" font-size="14.00">Tubal_cain</text>
</a>
</g>
</g>
<!-- mehujaels_lamech&#45;&gt;tubal_cain -->
<g id="edge7" class="edge"><title>mehujaels_lamech&#45;&gt;tubal_cain</title>
<path fill="none" stroke="black" d="M138.062,-103.59C111.544,-100.984 78.389,-92.7222 60.7245,-69 56.7429,-63.6529 56.7429,-59.3471 60.7245,-54 62.9455,-51.0174 97.8806,-40.7898 129.001,-32.1551"/>
<polygon fill="black" stroke="black" points="130.215,-35.4511 138.925,-29.4189 128.354,-28.703 130.215,-35.4511"/>
<text text-anchor="middle" x="86.2245" y="-57.8" font-family="Times,serif" font-size="14.00">Gen 4:22</text>
</g>
<!-- zilah -->
<g id="node8" class="node"><title>zilah</title>
<g id="a_node8"><a xlink:href="zilah.html" xlink:title="Zilah" target="_top">
<ellipse fill="none" stroke="red" cx="281.724" cy="-105" rx="29.4969" ry="18"/>
<text text-anchor="middle" x="281.724" y="-101.3" font-family="Times,serif" font-size="14.00">Zilah</text>
</a>
</g>
</g>
<!-- mehujaels_lamech&#45;&gt;zilah -->
<g id="edge11" class="edge"><title>mehujaels_lamech&#45;&gt;zilah</title>
<path fill="none" stroke="red" d="M217.537,-105C229.154,-105 240.772,-105 252.389,-105"/>
</g>
<!-- zilah&#45;&gt;naamah -->
<g id="edge8" class="edge"><title>zilah&#45;&gt;naamah</title>
<path fill="none" stroke="black" d="M256.397,-95.6424C247.116,-92.7203 236.494,-89.5387 226.724,-87 189.35,-77.2882 177.533,-83.4538 141.724,-69 123.188,-61.518 104.143,-49.8057 89.2876,-39.5972"/>
<polygon fill="black" stroke="black" points="91.2518,-36.6997 81.0604,-33.8037 87.2214,-42.423 91.2518,-36.6997"/>
<text text-anchor="middle" x="167.224" y="-57.8" font-family="Times,serif" font-size="14.00">Gen 4:22</text>
</g>
<!-- zilah&#45;&gt;tubal_cain -->
<g id="edge9" class="edge"><title>zilah&#45;&gt;tubal_cain</title>
<path fill="none" stroke="black" d="M277.654,-86.845C274.364,-76.2165 268.76,-62.9361 259.724,-54 250.519,-44.8964 238.576,-38.0053 226.666,-32.8528"/>
<polygon fill="black" stroke="black" points="227.761,-29.5217 217.175,-29.0843 225.178,-36.0276 227.761,-29.5217"/>
<text text-anchor="middle" x="296.224" y="-57.8" font-family="Times,serif" font-size="14.00">Gen 4:22</text>
</g>
</g>
</svg>
