<?xml version="1.0" encoding="UTF-8" standalone="no"?>
<!DOCTYPE svg PUBLIC "-//W3C//DTD SVG 1.1//EN"
 "http://www.w3.org/Graphics/SVG/1.1/DTD/svg11.dtd">
<!-- Generated by graphviz version 2.38.0 (20140413.2041)
 -->
<!-- Title: ancestry Pages: 1 -->
<svg width="97pt" height="218pt"
 viewBox="0.00 0.00 97.00 218.00" xmlns="http://www.w3.org/2000/svg" xmlns:xlink="http://www.w3.org/1999/xlink">
<g id="graph0" class="graph" transform="scale(1 1) rotate(0) translate(4 214)">
<title>ancestry</title>
<polygon fill="white" stroke="none" points="-4,4 -4,-214 92.9965,-214 92.9965,4 -4,4"/>
<!-- melea -->
<g id="node1" class="node"><title>melea</title>
<g id="a_node1"><a xlink:href="melea.html" xlink:title="Melea" target="_top">
<ellipse fill="lightblue" stroke="blue" stroke-width="2" cx="38.9965" cy="-105" rx="33.2948" ry="18"/>
<text text-anchor="middle" x="38.9965" y="-101.3" font-family="Times,serif" font-size="14.00">Melea</text>
</a>
</g>
</g>
<!-- meleas_eliakim -->
<g id="node2" class="node"><title>meleas_eliakim</title>
<g id="a_node2"><a xlink:href="meleas_eliakim.html" xlink:title="Eliakim" target="_top">
<ellipse fill="none" stroke="blue" cx="38.9965" cy="-18" rx="38.9931" ry="18"/>
<text text-anchor="middle" x="38.9965" y="-14.3" font-family="Times,serif" font-size="14.00">Eliakim</text>
</a>
</g>
</g>
<!-- melea&#45;&gt;meleas_eliakim -->
<g id="edge1" class="edge"><title>melea&#45;&gt;meleas_eliakim</title>
<path fill="none" stroke="black" d="M38.9965,-86.799C38.9965,-75.1626 38.9965,-59.5479 38.9965,-46.2368"/>
<polygon fill="black" stroke="black" points="42.4966,-46.1754 38.9965,-36.1754 35.4966,-46.1755 42.4966,-46.1754"/>
<text text-anchor="middle" x="63.9965" y="-57.8" font-family="Times,serif" font-size="14.00">Luk 3:31</text>
</g>
<!-- menna -->
<g id="node3" class="node"><title>menna</title>
<g id="a_node3"><a xlink:href="menna.html" xlink:title="Menna" target="_top">
<ellipse fill="none" stroke="blue" cx="38.9965" cy="-192" rx="35.9954" ry="18"/>
<text text-anchor="middle" x="38.9965" y="-188.3" font-family="Times,serif" font-size="14.00">Menna</text>
</a>
</g>
</g>
<!-- menna&#45;&gt;melea -->
<g id="edge2" class="edge"><title>menna&#45;&gt;melea</title>
<path fill="none" stroke="black" d="M38.9965,-173.799C38.9965,-162.163 38.9965,-146.548 38.9965,-133.237"/>
<polygon fill="black" stroke="black" points="42.4966,-133.175 38.9965,-123.175 35.4966,-133.175 42.4966,-133.175"/>
<text text-anchor="middle" x="63.9965" y="-144.8" font-family="Times,serif" font-size="14.00">Luk 3:31</text>
</g>
</g>
</svg>
