<?xml version="1.0" encoding="UTF-8" standalone="no"?>
<!DOCTYPE svg PUBLIC "-//W3C//DTD SVG 1.1//EN"
 "http://www.w3.org/Graphics/SVG/1.1/DTD/svg11.dtd">
<!-- Generated by graphviz version 2.38.0 (20140413.2041)
 -->
<!-- Title: ancestry Pages: 1 -->
<svg width="95pt" height="218pt"
 viewBox="0.00 0.00 95.09 218.00" xmlns="http://www.w3.org/2000/svg" xmlns:xlink="http://www.w3.org/1999/xlink">
<g id="graph0" class="graph" transform="scale(1 1) rotate(0) translate(4 214)">
<title>ancestry</title>
<polygon fill="white" stroke="none" points="-4,4 -4,-214 91.0923,-214 91.0923,4 -4,4"/>
<!-- amariah -->
<g id="node1" class="node"><title>amariah</title>
<g id="a_node1"><a xlink:href="amariah.html" xlink:title="Amariah" target="_top">
<ellipse fill="none" stroke="blue" cx="43.5461" cy="-18" rx="42.4939" ry="18"/>
<text text-anchor="middle" x="43.5461" y="-14.3" font-family="Times,serif" font-size="14.00">Amariah</text>
</a>
</g>
</g>
<!-- meraioth -->
<g id="node2" class="node"><title>meraioth</title>
<g id="a_node2"><a xlink:href="meraioth.html" xlink:title="Meraioth" target="_top">
<ellipse fill="none" stroke="blue" cx="43.5461" cy="-192" rx="43.5923" ry="18"/>
<text text-anchor="middle" x="43.5461" y="-188.3" font-family="Times,serif" font-size="14.00">Meraioth</text>
</a>
</g>
</g>
<!-- meraioths_azariah -->
<g id="node3" class="node"><title>meraioths_azariah</title>
<g id="a_node3"><a xlink:href="meraioths_azariah.html" xlink:title="Azariah" target="_top">
<ellipse fill="lightblue" stroke="blue" stroke-width="2" cx="43.5461" cy="-105" rx="38.1938" ry="18"/>
<text text-anchor="middle" x="43.5461" y="-101.3" font-family="Times,serif" font-size="14.00">Azariah</text>
</a>
</g>
</g>
<!-- meraioth&#45;&gt;meraioths_azariah -->
<g id="edge1" class="edge"><title>meraioth&#45;&gt;meraioths_azariah</title>
<path fill="none" stroke="black" d="M43.5461,-173.799C43.5461,-162.163 43.5461,-146.548 43.5461,-133.237"/>
<polygon fill="black" stroke="black" points="47.0462,-133.175 43.5461,-123.175 40.0462,-133.175 47.0462,-133.175"/>
<text text-anchor="middle" x="63.5461" y="-144.8" font-family="Times,serif" font-size="14.00">Ezr 7:3</text>
</g>
<!-- meraioths_azariah&#45;&gt;amariah -->
<g id="edge2" class="edge"><title>meraioths_azariah&#45;&gt;amariah</title>
<path fill="none" stroke="black" d="M43.5461,-86.799C43.5461,-75.1626 43.5461,-59.5479 43.5461,-46.2368"/>
<polygon fill="black" stroke="black" points="47.0462,-46.1754 43.5461,-36.1754 40.0462,-46.1755 47.0462,-46.1754"/>
<text text-anchor="middle" x="63.5461" y="-57.8" font-family="Times,serif" font-size="14.00">Ezr 7:3</text>
</g>
</g>
</svg>
