<?xml version="1.0" encoding="UTF-8" standalone="no"?>
<!DOCTYPE svg PUBLIC "-//W3C//DTD SVG 1.1//EN"
 "http://www.w3.org/Graphics/SVG/1.1/DTD/svg11.dtd">
<!-- Generated by graphviz version 2.38.0 (20140413.2041)
 -->
<!-- Title: ancestry Pages: 1 -->
<svg width="158pt" height="218pt"
 viewBox="0.00 0.00 158.29 218.00" xmlns="http://www.w3.org/2000/svg" xmlns:xlink="http://www.w3.org/1999/xlink">
<g id="graph0" class="graph" transform="scale(1 1) rotate(0) translate(4 214)">
<title>ancestry</title>
<polygon fill="white" stroke="none" points="-4,4 -4,-214 154.294,-214 154.294,4 -4,4"/>
<!-- levi -->
<g id="node1" class="node"><title>levi</title>
<g id="a_node1"><a xlink:href="levi.html" xlink:title="Levi" target="_top">
<ellipse fill="none" stroke="blue" cx="74.4971" cy="-192" rx="27" ry="18"/>
<text text-anchor="middle" x="74.4971" y="-188.3" font-family="Times,serif" font-size="14.00">Levi</text>
</a>
</g>
</g>
<!-- merari -->
<g id="node3" class="node"><title>merari</title>
<g id="a_node3"><a xlink:href="merari.html" xlink:title="Merari" target="_top">
<ellipse fill="lightblue" stroke="blue" stroke-width="2" cx="74.4971" cy="-105" rx="35.194" ry="18"/>
<text text-anchor="middle" x="74.4971" y="-101.3" font-family="Times,serif" font-size="14.00">Merari</text>
</a>
</g>
</g>
<!-- levi&#45;&gt;merari -->
<g id="edge1" class="edge"><title>levi&#45;&gt;merari</title>
<path fill="none" stroke="black" d="M74.4971,-173.799C74.4971,-162.163 74.4971,-146.548 74.4971,-133.237"/>
<polygon fill="black" stroke="black" points="77.9972,-133.175 74.4971,-123.175 70.9972,-133.175 77.9972,-133.175"/>
<text text-anchor="middle" x="95.9971" y="-144.8" font-family="Times,serif" font-size="14.00">Ex 6:16</text>
</g>
<!-- mahli -->
<g id="node2" class="node"><title>mahli</title>
<g id="a_node2"><a xlink:href="mahli.html" xlink:title="Mahli" target="_top">
<ellipse fill="none" stroke="blue" cx="32.4971" cy="-18" rx="32.4942" ry="18"/>
<text text-anchor="middle" x="32.4971" y="-14.3" font-family="Times,serif" font-size="14.00">Mahli</text>
</a>
</g>
</g>
<!-- merari&#45;&gt;mahli -->
<g id="edge2" class="edge"><title>merari&#45;&gt;mahli</title>
<path fill="none" stroke="black" d="M62.7324,-87.7118C58.8688,-81.9619 54.7386,-75.3456 51.4971,-69 47.7375,-61.64 44.2955,-53.3542 41.4048,-45.676"/>
<polygon fill="black" stroke="black" points="44.6234,-44.2834 37.9418,-36.0611 38.0375,-46.6555 44.6234,-44.2834"/>
<text text-anchor="middle" x="72.9971" y="-57.8" font-family="Times,serif" font-size="14.00">Ex 6:19</text>
</g>
<!-- mushi -->
<g id="node4" class="node"><title>mushi</title>
<g id="a_node4"><a xlink:href="mushi.html" xlink:title="Mushi" target="_top">
<ellipse fill="none" stroke="blue" cx="116.497" cy="-18" rx="33.5952" ry="18"/>
<text text-anchor="middle" x="116.497" y="-14.3" font-family="Times,serif" font-size="14.00">Mushi</text>
</a>
</g>
</g>
<!-- merari&#45;&gt;mushi -->
<g id="edge3" class="edge"><title>merari&#45;&gt;mushi</title>
<path fill="none" stroke="black" d="M84.421,-87.4593C87.7561,-81.6892 91.4104,-75.1247 94.4971,-69 98.3385,-61.378 102.198,-52.9354 105.588,-45.1912"/>
<polygon fill="black" stroke="black" points="108.861,-46.4393 109.595,-35.8698 102.43,-43.675 108.861,-46.4393"/>
<text text-anchor="middle" x="122.997" y="-57.8" font-family="Times,serif" font-size="14.00">Ex 6:19</text>
</g>
</g>
</svg>
