<?xml version="1.0" encoding="UTF-8" standalone="no"?>
<!DOCTYPE svg PUBLIC "-//W3C//DTD SVG 1.1//EN"
 "http://www.w3.org/Graphics/SVG/1.1/DTD/svg11.dtd">
<!-- Generated by graphviz version 2.38.0 (20140413.2041)
 -->
<!-- Title: ancestry Pages: 1 -->
<svg width="509pt" height="218pt"
 viewBox="0.00 0.00 508.94 218.00" xmlns="http://www.w3.org/2000/svg" xmlns:xlink="http://www.w3.org/1999/xlink">
<g id="graph0" class="graph" transform="scale(1 1) rotate(0) translate(4 214)">
<title>ancestry</title>
<polygon fill="white" stroke="none" points="-4,4 -4,-214 504.944,-214 504.944,4 -4,4"/>
<!-- abram -->
<g id="node1" class="node"><title>abram</title>
<g id="a_node1"><a xlink:href="abram.html" xlink:title="Abraham (was Abram)" target="_top">
<ellipse fill="none" stroke="blue" cx="168.747" cy="-192" rx="92.8835" ry="18"/>
<text text-anchor="middle" x="168.747" y="-188.3" font-family="Times,serif" font-size="14.00">Abraham (was Abram)</text>
</a>
</g>
</g>
<!-- keturah -->
<g id="node7" class="node"><title>keturah</title>
<g id="a_node7"><a xlink:href="keturah.html" xlink:title="Keturah" target="_top">
<ellipse fill="none" stroke="red" cx="335.747" cy="-192" rx="38.9931" ry="18"/>
<text text-anchor="middle" x="335.747" y="-188.3" font-family="Times,serif" font-size="14.00">Keturah</text>
</a>
</g>
</g>
<!-- abram&#45;&gt;keturah -->
<g id="edge9" class="edge"><title>abram&#45;&gt;keturah</title>
<path fill="none" stroke="red" d="M261.706,-192C273.371,-192 285.036,-192 296.702,-192"/>
</g>
<!-- midian -->
<g id="node8" class="node"><title>midian</title>
<g id="a_node8"><a xlink:href="midian.html" xlink:title="Midian" target="_top">
<ellipse fill="lightblue" stroke="blue" stroke-width="2" cx="251.747" cy="-105" rx="36.2938" ry="18"/>
<text text-anchor="middle" x="251.747" y="-101.3" font-family="Times,serif" font-size="14.00">Midian</text>
</a>
</g>
</g>
<!-- abram&#45;&gt;midian -->
<g id="edge1" class="edge"><title>abram&#45;&gt;midian</title>
<path fill="none" stroke="black" d="M185.145,-174.207C197.741,-161.307 215.28,-143.346 229.197,-129.093"/>
<polygon fill="black" stroke="black" points="232.02,-131.212 236.502,-121.612 227.012,-126.321 232.02,-131.212"/>
<text text-anchor="middle" x="241.247" y="-144.8" font-family="Times,serif" font-size="14.00">Gen 25:2</text>
</g>
<!-- ebidah -->
<g id="node2" class="node"><title>ebidah</title>
<g id="a_node2"><a xlink:href="ebidah.html" xlink:title="Ebidah" target="_top">
<ellipse fill="none" stroke="blue" cx="35.7468" cy="-18" rx="35.9954" ry="18"/>
<text text-anchor="middle" x="35.7468" y="-14.3" font-family="Times,serif" font-size="14.00">Ebidah</text>
</a>
</g>
</g>
<!-- eldaah -->
<g id="node3" class="node"><title>eldaah</title>
<g id="a_node3"><a xlink:href="eldaah.html" xlink:title="Eldaah" target="_top">
<ellipse fill="none" stroke="blue" cx="124.747" cy="-18" rx="35.194" ry="18"/>
<text text-anchor="middle" x="124.747" y="-14.3" font-family="Times,serif" font-size="14.00">Eldaah</text>
</a>
</g>
</g>
<!-- ephah -->
<g id="node4" class="node"><title>ephah</title>
<g id="a_node4"><a xlink:href="ephah.html" xlink:title="Ephah" target="_top">
<ellipse fill="none" stroke="blue" cx="210.747" cy="-18" rx="33.2948" ry="18"/>
<text text-anchor="middle" x="210.747" y="-14.3" font-family="Times,serif" font-size="14.00">Ephah</text>
</a>
</g>
</g>
<!-- epher -->
<g id="node5" class="node"><title>epher</title>
<g id="a_node5"><a xlink:href="epher.html" xlink:title="Epher" target="_top">
<ellipse fill="none" stroke="blue" cx="293.747" cy="-18" rx="31.6951" ry="18"/>
<text text-anchor="middle" x="293.747" y="-14.3" font-family="Times,serif" font-size="14.00">Epher</text>
</a>
</g>
</g>
<!-- hanoch -->
<g id="node6" class="node"><title>hanoch</title>
<g id="a_node6"><a xlink:href="hanoch.html" xlink:title="Hanoch" target="_top">
<ellipse fill="none" stroke="blue" cx="381.747" cy="-18" rx="38.1938" ry="18"/>
<text text-anchor="middle" x="381.747" y="-14.3" font-family="Times,serif" font-size="14.00">Hanoch</text>
</a>
</g>
</g>
<!-- keturah&#45;&gt;midian -->
<g id="edge2" class="edge"><title>keturah&#45;&gt;midian</title>
<path fill="none" stroke="black" d="M320.34,-175.41C307.433,-162.349 288.835,-143.53 274.26,-128.781"/>
<polygon fill="black" stroke="black" points="276.575,-126.144 267.056,-121.491 271.596,-131.064 276.575,-126.144"/>
<text text-anchor="middle" x="325.247" y="-144.8" font-family="Times,serif" font-size="14.00">Gen 25:2</text>
</g>
<!-- midian&#45;&gt;ebidah -->
<g id="edge3" class="edge"><title>midian&#45;&gt;ebidah</title>
<path fill="none" stroke="black" d="M215.985,-101.42C182.35,-97.8114 131.379,-89.237 91.7468,-69 78.7406,-62.3588 66.3919,-51.9527 56.6166,-42.3497"/>
<polygon fill="black" stroke="black" points="58.8509,-39.6275 49.3654,-34.9077 53.8373,-44.5125 58.8509,-39.6275"/>
<text text-anchor="middle" x="117.247" y="-57.8" font-family="Times,serif" font-size="14.00">Gen 25:4</text>
</g>
<!-- midian&#45;&gt;eldaah -->
<g id="edge4" class="edge"><title>midian&#45;&gt;eldaah</title>
<path fill="none" stroke="black" d="M219.546,-96.5511C201.009,-91.1186 178.037,-82.3355 160.747,-69 152.107,-62.3368 144.638,-53.0457 138.777,-44.2786"/>
<polygon fill="black" stroke="black" points="141.743,-42.4202 133.468,-35.8029 135.81,-46.1358 141.743,-42.4202"/>
<text text-anchor="middle" x="186.247" y="-57.8" font-family="Times,serif" font-size="14.00">Gen 25:4</text>
</g>
<!-- midian&#45;&gt;ephah -->
<g id="edge5" class="edge"><title>midian&#45;&gt;ephah</title>
<path fill="none" stroke="black" d="M235.266,-88.9475C229.879,-83.2 224.359,-76.2693 220.747,-69 217.281,-62.0235 215.016,-53.9352 213.536,-46.3237"/>
<polygon fill="black" stroke="black" points="216.984,-45.7201 211.965,-36.3893 210.07,-46.8132 216.984,-45.7201"/>
<text text-anchor="middle" x="246.247" y="-57.8" font-family="Times,serif" font-size="14.00">Gen 25:4</text>
</g>
<!-- midian&#45;&gt;epher -->
<g id="edge6" class="edge"><title>midian&#45;&gt;epher</title>
<path fill="none" stroke="black" d="M261.671,-87.4593C265.006,-81.6892 268.66,-75.1247 271.747,-69 275.588,-61.378 279.448,-52.9354 282.838,-45.1912"/>
<polygon fill="black" stroke="black" points="286.111,-46.4393 286.844,-35.8698 279.68,-43.675 286.111,-46.4393"/>
<text text-anchor="middle" x="305.247" y="-57.8" font-family="Times,serif" font-size="14.00">Gen 25:4</text>
</g>
<!-- midian&#45;&gt;hanoch -->
<g id="edge7" class="edge"><title>midian&#45;&gt;hanoch</title>
<path fill="none" stroke="black" d="M282.098,-94.6529C298.534,-88.7677 318.698,-80.1614 334.747,-69 345.186,-61.7396 355.091,-51.8418 363.092,-42.7679"/>
<polygon fill="black" stroke="black" points="365.801,-44.9841 369.598,-35.093 360.462,-40.4574 365.801,-44.9841"/>
<text text-anchor="middle" x="378.247" y="-57.8" font-family="Times,serif" font-size="14.00">Gen 25:4</text>
</g>
<!-- reuel -->
<g id="node9" class="node"><title>reuel</title>
<g id="a_node9"><a xlink:href="reuel.html" xlink:title="Reuel" target="_top">
<ellipse fill="none" stroke="black" cx="469.747" cy="-18" rx="31.3957" ry="18"/>
<text text-anchor="middle" x="469.747" y="-14.3" font-family="Times,serif" font-size="14.00">Reuel</text>
</a>
</g>
</g>
<!-- midian&#45;&gt;reuel -->
<g id="edge8" class="edge"><title>midian&#45;&gt;reuel</title>
<path fill="none" stroke="black" stroke-dasharray="1,5" d="M287.34,-100.688C319.986,-96.5871 369.001,-87.7011 407.747,-69 422.177,-62.035 436.247,-51.1313 447.325,-41.2814"/>
<polygon fill="black" stroke="black" points="449.846,-43.7181 454.826,-34.3668 445.101,-38.5712 449.846,-43.7181"/>
<text text-anchor="middle" x="454.247" y="-57.8" font-family="Times,serif" font-size="14.00">Ex 2:16</text>
</g>
</g>
</svg>
