<?xml version="1.0" encoding="UTF-8" standalone="no"?>
<!DOCTYPE svg PUBLIC "-//W3C//DTD SVG 1.1//EN"
 "http://www.w3.org/Graphics/SVG/1.1/DTD/svg11.dtd">
<!-- Generated by graphviz version 2.38.0 (20140413.2041)
 -->
<!-- Title: ancestry Pages: 1 -->
<svg width="1235pt" height="218pt"
 viewBox="0.00 0.00 1234.93 218.00" xmlns="http://www.w3.org/2000/svg" xmlns:xlink="http://www.w3.org/1999/xlink">
<g id="graph0" class="graph" transform="scale(1 1) rotate(0) translate(4 214)">
<title>ancestry</title>
<polygon fill="white" stroke="none" points="-4,4 -4,-214 1230.93,-214 1230.93,4 -4,4"/>
<!-- bethuel -->
<g id="node1" class="node"><title>bethuel</title>
<g id="a_node1"><a xlink:href="bethuel.html" xlink:title="Bethuel" target="_top">
<ellipse fill="none" stroke="blue" cx="77.9278" cy="-18" rx="38.1938" ry="18"/>
<text text-anchor="middle" x="77.9278" y="-14.3" font-family="Times,serif" font-size="14.00">Bethuel</text>
</a>
</g>
</g>
<!-- buz -->
<g id="node2" class="node"><title>buz</title>
<g id="a_node2"><a xlink:href="buz.html" xlink:title="Buz" target="_top">
<ellipse fill="none" stroke="blue" cx="959.928" cy="-18" rx="27" ry="18"/>
<text text-anchor="middle" x="959.928" y="-14.3" font-family="Times,serif" font-size="14.00">Buz</text>
</a>
</g>
</g>
<!-- chesed -->
<g id="node3" class="node"><title>chesed</title>
<g id="a_node3"><a xlink:href="chesed.html" xlink:title="Chesed" target="_top">
<ellipse fill="none" stroke="blue" cx="204.928" cy="-18" rx="36.2938" ry="18"/>
<text text-anchor="middle" x="204.928" y="-14.3" font-family="Times,serif" font-size="14.00">Chesed</text>
</a>
</g>
</g>
<!-- haran -->
<g id="node4" class="node"><title>haran</title>
<g id="a_node4"><a xlink:href="haran.html" xlink:title="Haran" target="_top">
<ellipse fill="none" stroke="blue" cx="646.928" cy="-192" rx="32.4942" ry="18"/>
<text text-anchor="middle" x="646.928" y="-188.3" font-family="Times,serif" font-size="14.00">Haran</text>
</a>
</g>
</g>
<!-- milcah -->
<g id="node9" class="node"><title>milcah</title>
<g id="a_node9"><a xlink:href="milcah.html" xlink:title="Milcah" target="_top">
<ellipse fill="lightpink" stroke="red" stroke-width="2" cx="646.928" cy="-105" rx="36.2938" ry="18"/>
<text text-anchor="middle" x="646.928" y="-101.3" font-family="Times,serif" font-size="14.00">Milcah</text>
</a>
</g>
</g>
<!-- haran&#45;&gt;milcah -->
<g id="edge1" class="edge"><title>haran&#45;&gt;milcah</title>
<path fill="none" stroke="black" d="M646.928,-173.799C646.928,-162.163 646.928,-146.548 646.928,-133.237"/>
<polygon fill="black" stroke="black" points="650.428,-133.175 646.928,-123.175 643.428,-133.175 650.428,-133.175"/>
<text text-anchor="middle" x="675.928" y="-144.8" font-family="Times,serif" font-size="14.00">Gen 11:29</text>
</g>
<!-- hazo -->
<g id="node5" class="node"><title>hazo</title>
<g id="a_node5"><a xlink:href="hazo.html" xlink:title="Hazo" target="_top">
<ellipse fill="none" stroke="blue" cx="633.928" cy="-18" rx="29.4969" ry="18"/>
<text text-anchor="middle" x="633.928" y="-14.3" font-family="Times,serif" font-size="14.00">Hazo</text>
</a>
</g>
</g>
<!-- huz -->
<g id="node6" class="node"><title>huz</title>
<g id="a_node6"><a xlink:href="huz.html" xlink:title="Huz" target="_top">
<ellipse fill="none" stroke="blue" cx="302.928" cy="-18" rx="27" ry="18"/>
<text text-anchor="middle" x="302.928" y="-14.3" font-family="Times,serif" font-size="14.00">Huz</text>
</a>
</g>
</g>
<!-- jidlaph -->
<g id="node7" class="node"><title>jidlaph</title>
<g id="a_node7"><a xlink:href="jidlaph.html" xlink:title="Jidlaph" target="_top">
<ellipse fill="none" stroke="blue" cx="797.928" cy="-18" rx="36.2938" ry="18"/>
<text text-anchor="middle" x="797.928" y="-14.3" font-family="Times,serif" font-size="14.00">Jidlaph</text>
</a>
</g>
</g>
<!-- kemuel -->
<g id="node8" class="node"><title>kemuel</title>
<g id="a_node8"><a xlink:href="kemuel.html" xlink:title="Kemuel" target="_top">
<ellipse fill="none" stroke="blue" cx="469.928" cy="-18" rx="38.9931" ry="18"/>
<text text-anchor="middle" x="469.928" y="-14.3" font-family="Times,serif" font-size="14.00">Kemuel</text>
</a>
</g>
</g>
<!-- milcah&#45;&gt;bethuel -->
<g id="edge2" class="edge"><title>milcah&#45;&gt;bethuel</title>
<path fill="none" stroke="black" d="M617.095,-94.5038C606.704,-91.5839 594.9,-88.6953 583.928,-87 492.043,-72.8027 255.285,-94.6821 165.928,-69 144.412,-62.816 122.515,-50.403 105.947,-39.4928"/>
<polygon fill="black" stroke="black" points="107.565,-36.3606 97.3262,-33.6353 103.63,-42.1505 107.565,-36.3606"/>
<text text-anchor="middle" x="194.928" y="-57.8" font-family="Times,serif" font-size="14.00">Gen 22:22</text>
</g>
<!-- milcah&#45;&gt;buz -->
<g id="edge3" class="edge"><title>milcah&#45;&gt;buz</title>
<path fill="none" stroke="black" d="M683.558,-103.956C786.353,-103.454 1071.86,-99.3174 1099.93,-69 1104.46,-64.1078 1104.03,-59.2547 1099.93,-54 1087.31,-37.8449 1033.64,-28.0432 996.537,-23.0727"/>
<polygon fill="black" stroke="black" points="996.924,-19.5938 986.561,-21.7976 996.036,-26.5373 996.924,-19.5938"/>
<text text-anchor="middle" x="1132.93" y="-57.8" font-family="Times,serif" font-size="14.00">Gen 22:21</text>
</g>
<!-- milcah&#45;&gt;chesed -->
<g id="edge4" class="edge"><title>milcah&#45;&gt;chesed</title>
<path fill="none" stroke="black" d="M617.067,-94.6756C606.674,-91.7695 594.875,-88.8456 583.928,-87 471.893,-68.1123 439.632,-94.5562 328.928,-69 324.367,-67.9471 276.307,-48.3634 241.386,-34.0235"/>
<polygon fill="black" stroke="black" points="242.512,-30.7022 231.932,-30.1377 239.851,-37.1766 242.512,-30.7022"/>
<text text-anchor="middle" x="357.928" y="-57.8" font-family="Times,serif" font-size="14.00">Gen 22:22</text>
</g>
<!-- milcah&#45;&gt;hazo -->
<g id="edge5" class="edge"><title>milcah&#45;&gt;hazo</title>
<path fill="none" stroke="black" d="M683.295,-102.246C730.037,-98.6197 802.221,-87.561 775.928,-54 763.296,-37.8772 710.19,-28.1752 672.639,-23.2045"/>
<polygon fill="black" stroke="black" points="672.867,-19.7055 662.507,-21.9265 671.991,-26.6505 672.867,-19.7055"/>
<text text-anchor="middle" x="810.928" y="-57.8" font-family="Times,serif" font-size="14.00">Gen 22:22</text>
</g>
<!-- milcah&#45;&gt;huz -->
<g id="edge6" class="edge"><title>milcah&#45;&gt;huz</title>
<path fill="none" stroke="black" d="M616.292,-95.1926C606.046,-92.3919 594.535,-89.401 583.928,-87 540.736,-77.2233 528.253,-82.0264 485.928,-69 470.142,-64.1416 467.59,-59.2441 451.928,-54 414.061,-41.3208 369.306,-31.4665 338.799,-25.4899"/>
<polygon fill="black" stroke="black" points="339.117,-21.9872 328.637,-23.5393 337.798,-28.8617 339.117,-21.9872"/>
<text text-anchor="middle" x="514.928" y="-57.8" font-family="Times,serif" font-size="14.00">Gen 22:21</text>
</g>
<!-- milcah&#45;&gt;jidlaph -->
<g id="edge7" class="edge"><title>milcah&#45;&gt;jidlaph</title>
<path fill="none" stroke="black" d="M682.959,-102.297C757.109,-98.4222 921.257,-87.7965 937.928,-69 942.351,-64.0124 942.031,-59.2547 937.928,-54 926.266,-39.0633 879.499,-29.5578 843.189,-24.2804"/>
<polygon fill="black" stroke="black" points="843.649,-20.8108 833.263,-22.903 842.687,-27.7444 843.649,-20.8108"/>
<text text-anchor="middle" x="970.928" y="-57.8" font-family="Times,serif" font-size="14.00">Gen 22:22</text>
</g>
<!-- milcah&#45;&gt;kemuel -->
<g id="edge8" class="edge"><title>milcah&#45;&gt;kemuel</title>
<path fill="none" stroke="black" d="M639.841,-87.1865C634.34,-76.1411 625.668,-62.2568 613.928,-54 586.067,-34.4058 548.51,-25.7173 518.738,-21.8951"/>
<polygon fill="black" stroke="black" points="518.892,-18.3902 508.56,-20.7362 518.1,-25.3452 518.892,-18.3902"/>
<text text-anchor="middle" x="657.928" y="-57.8" font-family="Times,serif" font-size="14.00">Gen 22:21</text>
</g>
<!-- pildash -->
<g id="node10" class="node"><title>pildash</title>
<g id="a_node10"><a xlink:href="pildash.html" xlink:title="Pildash" target="_top">
<ellipse fill="none" stroke="blue" cx="1121.93" cy="-18" rx="36.2938" ry="18"/>
<text text-anchor="middle" x="1121.93" y="-14.3" font-family="Times,serif" font-size="14.00">Pildash</text>
</a>
</g>
</g>
<!-- milcah&#45;&gt;pildash -->
<g id="edge9" class="edge"><title>milcah&#45;&gt;pildash</title>
<path fill="none" stroke="black" d="M683.554,-104.345C796.396,-105.029 1133.13,-104.089 1165.93,-69 1175.39,-58.8835 1166.36,-47.2892 1154.08,-37.8141"/>
<polygon fill="black" stroke="black" points="1155.9,-34.8127 1145.7,-31.9304 1151.88,-40.5414 1155.9,-34.8127"/>
<text text-anchor="middle" x="1197.93" y="-57.8" font-family="Times,serif" font-size="14.00">Gen 22:22</text>
</g>
<!-- terahs_nahor -->
<g id="node11" class="node"><title>terahs_nahor</title>
<g id="a_node11"><a xlink:href="terahs_nahor.html" xlink:title="Nahor" target="_top">
<ellipse fill="none" stroke="blue" cx="542.928" cy="-105" rx="32.4942" ry="18"/>
<text text-anchor="middle" x="542.928" y="-101.3" font-family="Times,serif" font-size="14.00">Nahor</text>
</a>
</g>
</g>
<!-- terahs_nahor&#45;&gt;bethuel -->
<g id="edge10" class="edge"><title>terahs_nahor&#45;&gt;bethuel</title>
<path fill="none" stroke="black" d="M510.159,-104.405C398.738,-105.443 39.4884,-105.882 4.92784,-69 -9.47365,-53.6312 12.4913,-40.3824 35.9992,-31.3914"/>
<polygon fill="black" stroke="black" points="37.4719,-34.582 45.7126,-27.9231 35.118,-27.9897 37.4719,-34.582"/>
<text text-anchor="middle" x="33.9278" y="-57.8" font-family="Times,serif" font-size="14.00">Gen 22:22</text>
</g>
<!-- terahs_nahor&#45;&gt;buz -->
<g id="edge11" class="edge"><title>terahs_nahor&#45;&gt;buz</title>
<path fill="none" stroke="black" d="M569.969,-94.9398C579.911,-91.9467 591.33,-88.8998 601.928,-87 708.088,-67.9682 739.598,-96.3399 843.928,-69 859.122,-65.0183 861.564,-60.3555 875.928,-54 893.037,-46.4299 912.292,-38.374 928.046,-31.9016"/>
<polygon fill="black" stroke="black" points="929.423,-35.1203 937.353,-28.0947 926.772,-28.6413 929.423,-35.1203"/>
<text text-anchor="middle" x="904.928" y="-57.8" font-family="Times,serif" font-size="14.00">Gen 22:21</text>
</g>
<!-- terahs_nahor&#45;&gt;chesed -->
<g id="edge12" class="edge"><title>terahs_nahor&#45;&gt;chesed</title>
<path fill="none" stroke="black" d="M510.262,-104.089C408.121,-104.03 99.8018,-101.166 69.9278,-69 65.3911,-64.1151 65.848,-59.2725 69.9278,-54 72.8693,-50.1987 124.113,-37.6446 162.599,-28.6601"/>
<polygon fill="black" stroke="black" points="163.618,-32.0167 172.568,-26.3458 162.035,-25.1981 163.618,-32.0167"/>
<text text-anchor="middle" x="98.9278" y="-57.8" font-family="Times,serif" font-size="14.00">Gen 22:22</text>
</g>
<!-- terahs_nahor&#45;&gt;hazo -->
<g id="edge13" class="edge"><title>terahs_nahor&#45;&gt;hazo</title>
<path fill="none" stroke="black" d="M543.744,-86.536C545.068,-76.0532 548.285,-63.0423 555.928,-54 566.437,-41.5658 582.26,-33.3615 596.914,-28.045"/>
<polygon fill="black" stroke="black" points="598.379,-31.2482 606.793,-24.8092 596.2,-24.596 598.379,-31.2482"/>
<text text-anchor="middle" x="584.928" y="-57.8" font-family="Times,serif" font-size="14.00">Gen 22:22</text>
</g>
<!-- terahs_nahor&#45;&gt;huz -->
<g id="edge14" class="edge"><title>terahs_nahor&#45;&gt;huz</title>
<path fill="none" stroke="black" d="M510.54,-102.752C434.638,-99.4963 250.281,-89.5342 231.928,-69 216.85,-52.13 243.852,-37.8558 268.778,-28.9318"/>
<polygon fill="black" stroke="black" points="270.127,-32.1707 278.491,-25.6672 267.897,-25.5355 270.127,-32.1707"/>
<text text-anchor="middle" x="260.928" y="-57.8" font-family="Times,serif" font-size="14.00">Gen 22:21</text>
</g>
<!-- terahs_nahor&#45;&gt;jidlaph -->
<g id="edge15" class="edge"><title>terahs_nahor&#45;&gt;jidlaph</title>
<path fill="none" stroke="black" d="M570.716,-95.4918C580.531,-92.6198 591.677,-89.509 601.928,-87 641.127,-77.4054 653.582,-84.2956 690.928,-69 702.221,-64.3745 703.139,-59.7042 713.928,-54 728.453,-46.3204 745.04,-39.1041 759.616,-33.2421"/>
<polygon fill="black" stroke="black" points="761.316,-36.3342 769.336,-29.4111 758.749,-29.8218 761.316,-36.3342"/>
<text text-anchor="middle" x="742.928" y="-57.8" font-family="Times,serif" font-size="14.00">Gen 22:22</text>
</g>
<!-- terahs_nahor&#45;&gt;kemuel -->
<g id="edge16" class="edge"><title>terahs_nahor&#45;&gt;kemuel</title>
<path fill="none" stroke="black" d="M510.938,-101.067C471.594,-96.7214 408.243,-87.0676 393.928,-69 380.55,-52.1155 403.001,-39.0295 426.9,-30.4873"/>
<polygon fill="black" stroke="black" points="428.027,-33.8013 436.414,-27.3275 425.82,-27.1581 428.027,-33.8013"/>
<text text-anchor="middle" x="422.928" y="-57.8" font-family="Times,serif" font-size="14.00">Gen 22:21</text>
</g>
<!-- terahs_nahor&#45;&gt;milcah -->
<g id="edge18" class="edge"><title>terahs_nahor&#45;&gt;milcah</title>
<path fill="none" stroke="red" d="M575.428,-105C587.065,-105 598.703,-105 610.34,-105"/>
</g>
<!-- terahs_nahor&#45;&gt;pildash -->
<g id="edge17" class="edge"><title>terahs_nahor&#45;&gt;pildash</title>
<path fill="none" stroke="black" d="M569.939,-94.7677C579.879,-91.7572 591.304,-88.7434 601.928,-87 778.413,-58.0403 829.797,-109.794 1003.93,-69 1020.01,-65.2327 1022.75,-60.5099 1037.93,-54 1053.41,-47.3595 1070.57,-40.178 1085.32,-34.0585"/>
<polygon fill="black" stroke="black" points="1086.73,-37.2653 1094.63,-30.2068 1084.05,-30.7975 1086.73,-37.2653"/>
<text text-anchor="middle" x="1066.93" y="-57.8" font-family="Times,serif" font-size="14.00">Gen 22:22</text>
</g>
</g>
</svg>
