<?xml version="1.0" encoding="UTF-8" standalone="no"?>
<!DOCTYPE svg PUBLIC "-//W3C//DTD SVG 1.1//EN"
 "http://www.w3.org/Graphics/SVG/1.1/DTD/svg11.dtd">
<!-- Generated by graphviz version 2.38.0 (20140413.2041)
 -->
<!-- Title: ancestry Pages: 1 -->
<svg width="1042pt" height="218pt"
 viewBox="0.00 0.00 1042.04 218.00" xmlns="http://www.w3.org/2000/svg" xmlns:xlink="http://www.w3.org/1999/xlink">
<g id="graph0" class="graph" transform="scale(1 1) rotate(0) translate(4 214)">
<title>ancestry</title>
<polygon fill="white" stroke="none" points="-4,4 -4,-214 1038.04,-214 1038.04,4 -4,4"/>
<!-- anamim -->
<g id="node1" class="node"><title>anamim</title>
<g id="a_node1"><a xlink:href="anamim.html" xlink:title="Anamim" target="_top">
<ellipse fill="none" stroke="black" cx="42.2463" cy="-18" rx="42.4939" ry="18"/>
<text text-anchor="middle" x="42.2463" y="-14.3" font-family="Times,serif" font-size="14.00">Anamim</text>
</a>
</g>
</g>
<!-- caphtorim -->
<g id="node2" class="node"><title>caphtorim</title>
<g id="a_node2"><a xlink:href="caphtorim.html" xlink:title="Caphtorim" target="_top">
<ellipse fill="none" stroke="black" cx="151.246" cy="-18" rx="48.9926" ry="18"/>
<text text-anchor="middle" x="151.246" y="-14.3" font-family="Times,serif" font-size="14.00">Caphtorim</text>
</a>
</g>
</g>
<!-- casluhim -->
<g id="node3" class="node"><title>casluhim</title>
<g id="a_node3"><a xlink:href="casluhim.html" xlink:title="Casluhim" target="_top">
<ellipse fill="none" stroke="black" cx="263.246" cy="-18" rx="44.6926" ry="18"/>
<text text-anchor="middle" x="263.246" y="-14.3" font-family="Times,serif" font-size="14.00">Casluhim</text>
</a>
</g>
</g>
<!-- hagar -->
<g id="node4" class="node"><title>hagar</title>
<g id="a_node4"><a xlink:href="hagar.html" xlink:title="Hagar" target="_top">
<ellipse fill="none" stroke="red" cx="358.246" cy="-18" rx="32.4942" ry="18"/>
<text text-anchor="middle" x="358.246" y="-14.3" font-family="Times,serif" font-size="14.00">Hagar</text>
</a>
</g>
</g>
<!-- ham -->
<g id="node5" class="node"><title>ham</title>
<g id="a_node5"><a xlink:href="ham.html" xlink:title="Ham" target="_top">
<ellipse fill="none" stroke="blue" cx="526.246" cy="-192" rx="28.6953" ry="18"/>
<text text-anchor="middle" x="526.246" y="-188.3" font-family="Times,serif" font-size="14.00">Ham</text>
</a>
</g>
</g>
<!-- mizraim -->
<g id="node10" class="node"><title>mizraim</title>
<g id="a_node10"><a xlink:href="mizraim.html" xlink:title="Mizraim" target="_top">
<ellipse fill="lightblue" stroke="blue" stroke-width="2" cx="526.246" cy="-105" rx="42.4939" ry="18"/>
<text text-anchor="middle" x="526.246" y="-101.3" font-family="Times,serif" font-size="14.00">Mizraim</text>
</a>
</g>
</g>
<!-- ham&#45;&gt;mizraim -->
<g id="edge1" class="edge"><title>ham&#45;&gt;mizraim</title>
<path fill="none" stroke="black" d="M526.246,-173.799C526.246,-162.163 526.246,-146.548 526.246,-133.237"/>
<polygon fill="black" stroke="black" points="529.746,-133.175 526.246,-123.175 522.746,-133.175 529.746,-133.175"/>
<text text-anchor="middle" x="551.746" y="-144.8" font-family="Times,serif" font-size="14.00">Gen 10:6</text>
</g>
<!-- ishmaels_wife -->
<g id="node6" class="node"><title>ishmaels_wife</title>
<g id="a_node6"><a xlink:href="ishmaels_wife.html" xlink:title="Ishmaels_wife" target="_top">
<ellipse fill="none" stroke="red" cx="471.246" cy="-18" rx="62.2891" ry="18"/>
<text text-anchor="middle" x="471.246" y="-14.3" font-family="Times,serif" font-size="14.00">Ishmaels_wife</text>
</a>
</g>
</g>
<!-- jarha -->
<g id="node7" class="node"><title>jarha</title>
<g id="a_node7"><a xlink:href="jarha.html" xlink:title="Jarha" target="_top">
<ellipse fill="none" stroke="blue" cx="581.246" cy="-18" rx="29.4969" ry="18"/>
<text text-anchor="middle" x="581.246" y="-14.3" font-family="Times,serif" font-size="14.00">Jarha</text>
</a>
</g>
</g>
<!-- lehabim -->
<g id="node8" class="node"><title>lehabim</title>
<g id="a_node8"><a xlink:href="lehabim.html" xlink:title="Lehabim" target="_top">
<ellipse fill="none" stroke="black" cx="670.246" cy="-18" rx="42.4939" ry="18"/>
<text text-anchor="middle" x="670.246" y="-14.3" font-family="Times,serif" font-size="14.00">Lehabim</text>
</a>
</g>
</g>
<!-- ludim -->
<g id="node9" class="node"><title>ludim</title>
<g id="a_node9"><a xlink:href="ludim.html" xlink:title="Ludim" target="_top">
<ellipse fill="none" stroke="black" cx="765.246" cy="-18" rx="34.394" ry="18"/>
<text text-anchor="middle" x="765.246" y="-14.3" font-family="Times,serif" font-size="14.00">Ludim</text>
</a>
</g>
</g>
<!-- mizraim&#45;&gt;anamim -->
<g id="edge6" class="edge"><title>mizraim&#45;&gt;anamim</title>
<path fill="none" stroke="black" stroke-dasharray="1,5" d="M483.849,-104.221C414.604,-103.642 273.412,-98.5168 158.246,-69 129.807,-61.711 99.3888,-48.3717 76.8392,-37.3036"/>
<polygon fill="black" stroke="black" points="78.1948,-34.0682 67.6856,-32.7234 75.0624,-40.3282 78.1948,-34.0682"/>
<text text-anchor="middle" x="187.246" y="-57.8" font-family="Times,serif" font-size="14.00">Gen 10:13</text>
</g>
<!-- mizraim&#45;&gt;caphtorim -->
<g id="edge11" class="edge"><title>mizraim&#45;&gt;caphtorim</title>
<path fill="none" stroke="black" stroke-dasharray="1,5" d="M484.282,-102.42C431.007,-99.5293 336.707,-91.4387 259.246,-69 233.603,-61.5717 206.332,-48.9043 185.61,-38.1789"/>
<polygon fill="black" stroke="black" points="187.056,-34.9849 176.579,-33.4135 183.79,-41.1759 187.056,-34.9849"/>
<text text-anchor="middle" x="288.246" y="-57.8" font-family="Times,serif" font-size="14.00">Gen 10:14</text>
</g>
<!-- mizraim&#45;&gt;casluhim -->
<g id="edge10" class="edge"><title>mizraim&#45;&gt;casluhim</title>
<path fill="none" stroke="black" stroke-dasharray="1,5" d="M485.625,-99.6081C449.495,-94.8341 395.662,-85.5684 351.246,-69 331.104,-61.4864 310.116,-49.7347 293.69,-39.5118"/>
<polygon fill="black" stroke="black" points="295.384,-36.4414 285.068,-34.0263 291.626,-42.3473 295.384,-36.4414"/>
<text text-anchor="middle" x="380.246" y="-57.8" font-family="Times,serif" font-size="14.00">Gen 10:14</text>
</g>
<!-- mizraim&#45;&gt;hagar -->
<g id="edge2" class="edge"><title>mizraim&#45;&gt;hagar</title>
<path fill="none" stroke="black" stroke-dasharray="1,5" d="M494.305,-93.1092C477.062,-86.8171 455.607,-78.3144 437.246,-69 419.625,-60.0605 400.898,-48.3168 386.103,-38.4571"/>
<polygon fill="black" stroke="black" points="387.688,-35.3042 377.443,-32.6035 383.768,-41.1035 387.688,-35.3042"/>
<text text-anchor="middle" x="462.746" y="-57.8" font-family="Times,serif" font-size="14.00">Gen 16:1</text>
</g>
<!-- mizraim&#45;&gt;ishmaels_wife -->
<g id="edge3" class="edge"><title>mizraim&#45;&gt;ishmaels_wife</title>
<path fill="none" stroke="black" stroke-dasharray="1,5" d="M514.017,-87.4538C509.863,-81.6833 505.259,-75.1199 501.246,-69 496.14,-61.2115 490.829,-52.5634 486.12,-44.6795"/>
<polygon fill="black" stroke="black" points="489.018,-42.7024 480.918,-35.8728 482.991,-46.2629 489.018,-42.7024"/>
<text text-anchor="middle" x="530.246" y="-57.8" font-family="Times,serif" font-size="14.00">Gen 21:21</text>
</g>
<!-- mizraim&#45;&gt;jarha -->
<g id="edge4" class="edge"><title>mizraim&#45;&gt;jarha</title>
<path fill="none" stroke="black" stroke-dasharray="1,5" d="M543.274,-88.2565C548.83,-82.5503 554.725,-75.8223 559.246,-69 564.035,-61.774 568.209,-53.3338 571.596,-45.4676"/>
<polygon fill="black" stroke="black" points="574.943,-46.5279 575.454,-35.9454 568.455,-43.8997 574.943,-46.5279"/>
<text text-anchor="middle" x="595.746" y="-57.8" font-family="Times,serif" font-size="14.00">1 Ch 2:34</text>
</g>
<!-- mizraim&#45;&gt;lehabim -->
<g id="edge7" class="edge"><title>mizraim&#45;&gt;lehabim</title>
<path fill="none" stroke="black" stroke-dasharray="1,5" d="M563.451,-96.13C583.532,-90.692 608.062,-82.0417 627.246,-69 637.005,-62.3661 645.875,-52.9698 652.991,-44.1105"/>
<polygon fill="black" stroke="black" points="655.977,-45.9662 659.247,-35.8888 650.406,-41.7272 655.977,-45.9662"/>
<text text-anchor="middle" x="673.246" y="-57.8" font-family="Times,serif" font-size="14.00">Gen 10:13</text>
</g>
<!-- mizraim&#45;&gt;ludim -->
<g id="edge5" class="edge"><title>mizraim&#45;&gt;ludim</title>
<path fill="none" stroke="black" stroke-dasharray="1,5" d="M568.152,-101.863C605.888,-98.572 662.048,-90.2158 706.246,-69 720.136,-62.3328 733.428,-51.5965 743.868,-41.7787"/>
<polygon fill="black" stroke="black" points="746.568,-44.033 751.257,-34.5326 741.667,-39.0349 746.568,-44.033"/>
<text text-anchor="middle" x="759.246" y="-57.8" font-family="Times,serif" font-size="14.00">Gen 10:13</text>
</g>
<!-- naphtuhum -->
<g id="node11" class="node"><title>naphtuhum</title>
<g id="a_node11"><a xlink:href="naphtuhum.html" xlink:title="Naphtuhum" target="_top">
<ellipse fill="none" stroke="black" cx="870.246" cy="-18" rx="52.7911" ry="18"/>
<text text-anchor="middle" x="870.246" y="-14.3" font-family="Times,serif" font-size="14.00">Naphtuhum</text>
</a>
</g>
</g>
<!-- mizraim&#45;&gt;naphtuhum -->
<g id="edge8" class="edge"><title>mizraim&#45;&gt;naphtuhum</title>
<path fill="none" stroke="black" stroke-dasharray="1,5" d="M568.597,-104.062C622.241,-102.886 716.781,-96.5839 792.246,-69 810.262,-62.4149 828.419,-51.1153 842.676,-40.9224"/>
<polygon fill="black" stroke="black" points="845.044,-43.5245 851.013,-34.7708 840.888,-37.8918 845.044,-43.5245"/>
<text text-anchor="middle" x="851.246" y="-57.8" font-family="Times,serif" font-size="14.00">Gen 10:13</text>
</g>
<!-- pathrusim -->
<g id="node12" class="node"><title>pathrusim</title>
<g id="a_node12"><a xlink:href="pathrusim.html" xlink:title="Pathrusim" target="_top">
<ellipse fill="none" stroke="black" cx="987.246" cy="-18" rx="46.5926" ry="18"/>
<text text-anchor="middle" x="987.246" y="-14.3" font-family="Times,serif" font-size="14.00">Pathrusim</text>
</a>
</g>
</g>
<!-- mizraim&#45;&gt;pathrusim -->
<g id="edge9" class="edge"><title>mizraim&#45;&gt;pathrusim</title>
<path fill="none" stroke="black" stroke-dasharray="1,5" d="M568.75,-104.648C636.72,-104.625 773.498,-100.211 884.246,-69 908.856,-62.0646 934.739,-49.4755 954.402,-38.6652"/>
<polygon fill="black" stroke="black" points="956.245,-41.6442 963.247,-33.6924 952.815,-35.5425 956.245,-41.6442"/>
<text text-anchor="middle" x="952.246" y="-57.8" font-family="Times,serif" font-size="14.00">Gen 10:14</text>
</g>
</g>
</svg>
