<?xml version="1.0" encoding="UTF-8" standalone="no"?>
<!DOCTYPE svg PUBLIC "-//W3C//DTD SVG 1.1//EN"
 "http://www.w3.org/Graphics/SVG/1.1/DTD/svg11.dtd">
<!-- Generated by graphviz version 2.38.0 (20140413.2041)
 -->
<!-- Title: ancestry Pages: 1 -->
<svg width="231pt" height="305pt"
 viewBox="0.00 0.00 230.64 305.00" xmlns="http://www.w3.org/2000/svg" xmlns:xlink="http://www.w3.org/1999/xlink">
<g id="graph0" class="graph" transform="scale(1 1) rotate(0) translate(4 301)">
<title>ancestry</title>
<polygon fill="white" stroke="none" points="-4,4 -4,-301 226.644,-301 226.644,4 -4,4"/>
<!-- lot -->
<g id="node1" class="node"><title>lot</title>
<g id="a_node1"><a xlink:href="lot.html" xlink:title="Lot" target="_top">
<ellipse fill="none" stroke="blue" cx="134.644" cy="-279" rx="27" ry="18"/>
<text text-anchor="middle" x="134.644" y="-275.3" font-family="Times,serif" font-size="14.00">Lot</text>
</a>
</g>
</g>
<!-- lots_daughter1 -->
<g id="node2" class="node"><title>lots_daughter1</title>
<g id="a_node2"><a xlink:href="lots_daughter1.html" xlink:title="Lots_daughter1" target="_top">
<ellipse fill="none" stroke="red" cx="65.6442" cy="-192" rx="65.7887" ry="18"/>
<text text-anchor="middle" x="65.6442" y="-188.3" font-family="Times,serif" font-size="14.00">Lots_daughter1</text>
</a>
</g>
</g>
<!-- lot&#45;&gt;lots_daughter1 -->
<g id="edge1" class="edge"><title>lot&#45;&gt;lots_daughter1</title>
<path fill="none" stroke="black" d="M120.592,-263.315C114.875,-257.166 108.296,-249.864 102.644,-243 96.1917,-235.164 89.4891,-226.341 83.5902,-218.313"/>
<polygon fill="black" stroke="black" points="86.2611,-216.034 77.5544,-209.997 80.5961,-220.146 86.2611,-216.034"/>
<text text-anchor="middle" x="128.144" y="-231.8" font-family="Times,serif" font-size="14.00">Gen 19:8</text>
</g>
<!-- moab -->
<g id="node3" class="node"><title>moab</title>
<g id="a_node3"><a xlink:href="moab.html" xlink:title="Moab" target="_top">
<ellipse fill="lightblue" stroke="blue" stroke-width="2" cx="123.644" cy="-105" rx="31.6951" ry="18"/>
<text text-anchor="middle" x="123.644" y="-101.3" font-family="Times,serif" font-size="14.00">Moab</text>
</a>
</g>
</g>
<!-- lot&#45;&gt;moab -->
<g id="edge2" class="edge"><title>lot&#45;&gt;moab</title>
<path fill="none" stroke="black" d="M145.316,-262.315C148.671,-256.508 151.943,-249.701 153.644,-243 164.801,-199.061 169.372,-183.517 153.644,-141 152.007,-136.574 149.532,-132.33 146.692,-128.419"/>
<polygon fill="black" stroke="black" points="149.156,-125.907 140.077,-120.447 143.77,-130.377 149.156,-125.907"/>
<text text-anchor="middle" x="193.644" y="-188.3" font-family="Times,serif" font-size="14.00">Gen 19:37</text>
</g>
<!-- lots_daughter1&#45;&gt;moab -->
<g id="edge3" class="edge"><title>lots_daughter1&#45;&gt;moab</title>
<path fill="none" stroke="black" d="M75.0962,-173.979C80.7469,-164.139 88.2469,-151.639 95.6442,-141 98.2638,-137.233 101.162,-133.344 104.072,-129.589"/>
<polygon fill="black" stroke="black" points="106.873,-131.69 110.356,-121.684 101.394,-127.334 106.873,-131.69"/>
<text text-anchor="middle" x="124.644" y="-144.8" font-family="Times,serif" font-size="14.00">Gen 19:37</text>
</g>
<!-- moabites -->
<g id="node4" class="node"><title>moabites</title>
<g id="a_node4"><a xlink:href="moabites.html" xlink:title="Moabites" target="_top">
<ellipse fill="none" stroke="black" cx="123.644" cy="-18" rx="44.393" ry="18"/>
<text text-anchor="middle" x="123.644" y="-14.3" font-family="Times,serif" font-size="14.00">Moabites</text>
</a>
</g>
</g>
<!-- moab&#45;&gt;moabites -->
<g id="edge4" class="edge"><title>moab&#45;&gt;moabites</title>
<path fill="none" stroke="black" stroke-dasharray="1,5" d="M123.644,-86.799C123.644,-75.1626 123.644,-59.5479 123.644,-46.2368"/>
<polygon fill="black" stroke="black" points="127.144,-46.1754 123.644,-36.1754 120.144,-46.1755 127.144,-46.1754"/>
<text text-anchor="middle" x="152.644" y="-57.8" font-family="Times,serif" font-size="14.00">Gen 19:37</text>
</g>
</g>
</svg>
