<?xml version="1.0" encoding="UTF-8" standalone="no"?>
<!DOCTYPE svg PUBLIC "-//W3C//DTD SVG 1.1//EN"
 "http://www.w3.org/Graphics/SVG/1.1/DTD/svg11.dtd">
<!-- Generated by graphviz version 2.38.0 (20140413.2041)
 -->
<!-- Title: ancestry Pages: 1 -->
<svg width="179pt" height="131pt"
 viewBox="0.00 0.00 179.05 131.00" xmlns="http://www.w3.org/2000/svg" xmlns:xlink="http://www.w3.org/1999/xlink">
<g id="graph0" class="graph" transform="scale(1 1) rotate(0) translate(4 127)">
<title>ancestry</title>
<polygon fill="white" stroke="none" points="-4,4 -4,-127 175.047,-127 175.047,4 -4,4"/>
<!-- abihail -->
<g id="node1" class="node"><title>abihail</title>
<g id="a_node1"><a xlink:href="abihail.html" xlink:title="Abihail" target="_top">
<ellipse fill="none" stroke="red" cx="37.0467" cy="-105" rx="37.0935" ry="18"/>
<text text-anchor="middle" x="37.0467" y="-101.3" font-family="Times,serif" font-size="14.00">Abihail</text>
</a>
</g>
</g>
<!-- molid -->
<g id="node3" class="node"><title>molid</title>
<g id="a_node3"><a xlink:href="molid.html" xlink:title="Molid" target="_top">
<ellipse fill="lightblue" stroke="blue" stroke-width="2" cx="84.0467" cy="-18" rx="32.4942" ry="18"/>
<text text-anchor="middle" x="84.0467" y="-14.3" font-family="Times,serif" font-size="14.00">Molid</text>
</a>
</g>
</g>
<!-- abihail&#45;&gt;molid -->
<g id="edge1" class="edge"><title>abihail&#45;&gt;molid</title>
<path fill="none" stroke="black" d="M41.1871,-86.6463C43.984,-76.6951 48.234,-64.1951 54.0467,-54 56.3842,-49.9002 59.2366,-45.8321 62.2427,-41.9986"/>
<polygon fill="black" stroke="black" points="65.1639,-43.9633 68.9287,-34.0599 59.8098,-39.454 65.1639,-43.9633"/>
<text text-anchor="middle" x="81.5467" y="-57.8" font-family="Times,serif" font-size="14.00">1 Ch 2:29</text>
</g>
<!-- abishur -->
<g id="node2" class="node"><title>abishur</title>
<g id="a_node2"><a xlink:href="abishur.html" xlink:title="Abishur" target="_top">
<ellipse fill="none" stroke="blue" cx="131.047" cy="-105" rx="38.9931" ry="18"/>
<text text-anchor="middle" x="131.047" y="-101.3" font-family="Times,serif" font-size="14.00">Abishur</text>
</a>
</g>
</g>
<!-- abishur&#45;&gt;molid -->
<g id="edge2" class="edge"><title>abishur&#45;&gt;molid</title>
<path fill="none" stroke="black" d="M124.55,-86.9127C120.551,-77.0503 115.051,-64.5503 109.047,-54 107.027,-50.4508 104.729,-46.8208 102.364,-43.3064"/>
<polygon fill="black" stroke="black" points="105.083,-41.088 96.4684,-34.9207 99.357,-45.1142 105.083,-41.088"/>
<text text-anchor="middle" x="143.547" y="-57.8" font-family="Times,serif" font-size="14.00">1 Ch 2:29</text>
</g>
</g>
</svg>
