<?xml version="1.0" encoding="UTF-8" standalone="no"?>
<!DOCTYPE svg PUBLIC "-//W3C//DTD SVG 1.1//EN"
 "http://www.w3.org/Graphics/SVG/1.1/DTD/svg11.dtd">
<!-- Generated by graphviz version 2.38.0 (20140413.2041)
 -->
<!-- Title: ancestry Pages: 1 -->
<svg width="283pt" height="233pt"
 viewBox="0.00 0.00 283.35 233.00" xmlns="http://www.w3.org/2000/svg" xmlns:xlink="http://www.w3.org/1999/xlink">
<g id="graph0" class="graph" transform="scale(1 1) rotate(0) translate(4 229)">
<title>ancestry</title>
<polygon fill="white" stroke="none" points="-4,4 -4,-229 279.347,-229 279.347,4 -4,4"/>
<!-- amram -->
<g id="node1" class="node"><title>amram</title>
<g id="a_node1"><a xlink:href="amram.html" xlink:title="Amram" target="_top">
<ellipse fill="none" stroke="blue" cx="38.3466" cy="-207" rx="38.1938" ry="18"/>
<text text-anchor="middle" x="38.3466" y="-203.3" font-family="Times,serif" font-size="14.00">Amram</text>
</a>
</g>
</g>
<!-- jochebed -->
<g id="node4" class="node"><title>jochebed</title>
<g id="a_node4"><a xlink:href="jochebed.html" xlink:title="Jochebed" target="_top">
<ellipse fill="none" stroke="red" cx="155.347" cy="-207" rx="43.5923" ry="18"/>
<text text-anchor="middle" x="155.347" y="-203.3" font-family="Times,serif" font-size="14.00">Jochebed</text>
</a>
</g>
</g>
<!-- amram&#45;&gt;jochebed -->
<g id="edge8" class="edge"><title>amram&#45;&gt;jochebed</title>
<path fill="none" stroke="red" d="M76.7372,-207C88.4058,-207 100.074,-207 111.743,-207"/>
</g>
<!-- moses -->
<g id="node5" class="node"><title>moses</title>
<g id="a_node5"><a xlink:href="moses.html" xlink:title="Moses" target="_top">
<ellipse fill="lightblue" stroke="blue" stroke-width="2" cx="96.3466" cy="-120" rx="34.394" ry="18"/>
<text text-anchor="middle" x="96.3466" y="-116.3" font-family="Times,serif" font-size="14.00">Moses</text>
</a>
</g>
</g>
<!-- amram&#45;&gt;moses -->
<g id="edge1" class="edge"><title>amram&#45;&gt;moses</title>
<path fill="none" stroke="black" d="M49.5296,-189.611C58.0348,-177.147 69.8783,-159.79 79.525,-145.652"/>
<polygon fill="black" stroke="black" points="82.4526,-147.572 85.1979,-137.339 76.6704,-143.626 82.4526,-147.572"/>
<text text-anchor="middle" x="92.8466" y="-159.8" font-family="Times,serif" font-size="14.00">Ex 6:20</text>
</g>
<!-- eliezer -->
<g id="node2" class="node"><title>eliezer</title>
<g id="a_node2"><a xlink:href="eliezer.html" xlink:title="Eliezer" target="_top">
<ellipse fill="none" stroke="blue" cx="104.347" cy="-18" rx="35.9954" ry="18"/>
<text text-anchor="middle" x="104.347" y="-14.3" font-family="Times,serif" font-size="14.00">Eliezer</text>
</a>
</g>
</g>
<!-- gershom -->
<g id="node3" class="node"><title>gershom</title>
<g id="a_node3"><a xlink:href="gershom.html" xlink:title="Gershom" target="_top">
<ellipse fill="none" stroke="blue" cx="226.347" cy="-18" rx="43.5923" ry="18"/>
<text text-anchor="middle" x="226.347" y="-14.3" font-family="Times,serif" font-size="14.00">Gershom</text>
</a>
</g>
</g>
<!-- jochebed&#45;&gt;moses -->
<g id="edge2" class="edge"><title>jochebed&#45;&gt;moses</title>
<path fill="none" stroke="black" d="M143.971,-189.611C135.263,-177.067 123.117,-159.567 113.27,-145.381"/>
<polygon fill="black" stroke="black" points="116.065,-143.269 107.487,-137.05 110.314,-147.261 116.065,-143.269"/>
<text text-anchor="middle" x="151.847" y="-159.8" font-family="Times,serif" font-size="14.00">Ex 6:20</text>
</g>
<!-- moses&#45;&gt;eliezer -->
<g id="edge3" class="edge"><title>moses&#45;&gt;eliezer</title>
<path fill="none" stroke="black" d="M74.4594,-105.984C66.9535,-100.272 59.4226,-92.8387 55.3466,-84 49.763,-71.8921 49.2455,-65.8556 55.3466,-54 58.8327,-47.2259 64.3048,-41.4722 70.3497,-36.707"/>
<polygon fill="black" stroke="black" points="72.6043,-39.4023 78.815,-30.8187 68.6071,-33.6557 72.6043,-39.4023"/>
<text text-anchor="middle" x="76.8466" y="-65.3" font-family="Times,serif" font-size="14.00">Ex 18:4</text>
</g>
<!-- moses&#45;&gt;gershom -->
<g id="edge4" class="edge"><title>moses&#45;&gt;gershom</title>
<path fill="none" stroke="black" d="M97.6116,-101.839C99.5778,-87.262 104.589,-66.7347 117.347,-54 126.381,-44.982 153.791,-36.2021 178.862,-29.6918"/>
<polygon fill="black" stroke="black" points="179.829,-33.0575 188.674,-27.2239 178.122,-26.2689 179.829,-33.0575"/>
<text text-anchor="middle" x="138.847" y="-72.8" font-family="Times,serif" font-size="14.00">Ex 2:22</text>
<text text-anchor="middle" x="138.847" y="-57.8" font-family="Times,serif" font-size="14.00">Ex 18:3</text>
</g>
<!-- zipporah -->
<g id="node6" class="node"><title>zipporah</title>
<g id="a_node6"><a xlink:href="zipporah.html" xlink:title="Zipporah" target="_top">
<ellipse fill="none" stroke="red" cx="209.347" cy="-120" rx="42.7926" ry="18"/>
<text text-anchor="middle" x="209.347" y="-116.3" font-family="Times,serif" font-size="14.00">Zipporah</text>
</a>
</g>
</g>
<!-- moses&#45;&gt;zipporah -->
<g id="edge7" class="edge"><title>moses&#45;&gt;zipporah</title>
<path fill="none" stroke="red" d="M131.218,-120C142.917,-120 154.616,-120 166.315,-120"/>
</g>
<!-- zipporah&#45;&gt;eliezer -->
<g id="edge5" class="edge"><title>zipporah&#45;&gt;eliezer</title>
<path fill="none" stroke="black" d="M196.659,-102.448C192.34,-96.6775 187.546,-90.1151 183.347,-84 174.412,-70.9897 175.708,-64.9544 164.347,-54 157.001,-46.918 147.957,-40.694 139.14,-35.5346"/>
<polygon fill="black" stroke="black" points="140.56,-32.3207 130.114,-30.5519 137.177,-38.449 140.56,-32.3207"/>
<text text-anchor="middle" x="204.847" y="-65.3" font-family="Times,serif" font-size="14.00">Ex 18:4</text>
</g>
<!-- zipporah&#45;&gt;gershom -->
<g id="edge6" class="edge"><title>zipporah&#45;&gt;gershom</title>
<path fill="none" stroke="black" d="M221.796,-102.403C225.265,-96.8434 228.569,-90.4194 230.347,-84 233.697,-71.9039 233.389,-58.0752 231.966,-46.2914"/>
<polygon fill="black" stroke="black" points="235.388,-45.51 230.419,-36.1527 228.468,-46.5663 235.388,-45.51"/>
<text text-anchor="middle" x="253.847" y="-72.8" font-family="Times,serif" font-size="14.00">Ex 2:22</text>
<text text-anchor="middle" x="253.847" y="-57.8" font-family="Times,serif" font-size="14.00">Ex 18:3</text>
</g>
</g>
</svg>
