<?xml version="1.0" encoding="UTF-8" standalone="no"?>
<!DOCTYPE svg PUBLIC "-//W3C//DTD SVG 1.1//EN"
 "http://www.w3.org/Graphics/SVG/1.1/DTD/svg11.dtd">
<!-- Generated by graphviz version 2.38.0 (20140413.2041)
 -->
<!-- Title: ancestry Pages: 1 -->
<svg width="161pt" height="131pt"
 viewBox="0.00 0.00 161.20 131.00" xmlns="http://www.w3.org/2000/svg" xmlns:xlink="http://www.w3.org/1999/xlink">
<g id="graph0" class="graph" transform="scale(1 1) rotate(0) translate(4 127)">
<title>ancestry</title>
<polygon fill="white" stroke="none" points="-4,4 -4,-127 157.197,-127 157.197,4 -4,4"/>
<!-- caleb -->
<g id="node1" class="node"><title>caleb</title>
<g id="a_node1"><a xlink:href="caleb.html" xlink:title="Caleb" target="_top">
<ellipse fill="none" stroke="blue" cx="31.1972" cy="-105" rx="31.3957" ry="18"/>
<text text-anchor="middle" x="31.1972" y="-101.3" font-family="Times,serif" font-size="14.00">Caleb</text>
</a>
</g>
</g>
<!-- moza -->
<g id="node3" class="node"><title>moza</title>
<g id="a_node3"><a xlink:href="moza.html" xlink:title="Moza" target="_top">
<ellipse fill="lightblue" stroke="blue" stroke-width="2" cx="72.1972" cy="-18" rx="31.3957" ry="18"/>
<text text-anchor="middle" x="72.1972" y="-14.3" font-family="Times,serif" font-size="14.00">Moza</text>
</a>
</g>
</g>
<!-- caleb&#45;&gt;moza -->
<g id="edge1" class="edge"><title>caleb&#45;&gt;moza</title>
<path fill="none" stroke="black" d="M30.0568,-87.0089C30.0563,-76.9482 31.2686,-64.2141 36.1972,-54 38.6596,-48.897 42.1924,-44.129 46.0933,-39.8548"/>
<polygon fill="black" stroke="black" points="48.6709,-42.2293 53.3608,-32.729 43.7701,-37.231 48.6709,-42.2293"/>
<text text-anchor="middle" x="63.6972" y="-57.8" font-family="Times,serif" font-size="14.00">1 Ch 2:46</text>
</g>
<!-- calebs_ephah -->
<g id="node2" class="node"><title>calebs_ephah</title>
<g id="a_node2"><a xlink:href="calebs_ephah.html" xlink:title="Ephah" target="_top">
<ellipse fill="none" stroke="red" cx="113.197" cy="-105" rx="33.2948" ry="18"/>
<text text-anchor="middle" x="113.197" y="-101.3" font-family="Times,serif" font-size="14.00">Ephah</text>
</a>
</g>
</g>
<!-- calebs_ephah&#45;&gt;moza -->
<g id="edge2" class="edge"><title>calebs_ephah&#45;&gt;moza</title>
<path fill="none" stroke="black" d="M106.206,-87.1744C102.042,-77.3992 96.542,-64.8992 91.1972,-54 89.6276,-50.7991 87.9194,-47.4678 86.1923,-44.1883"/>
<polygon fill="black" stroke="black" points="89.1948,-42.3819 81.3734,-35.2351 83.0309,-45.6995 89.1948,-42.3819"/>
<text text-anchor="middle" x="125.697" y="-57.8" font-family="Times,serif" font-size="14.00">1 Ch 2:46</text>
</g>
</g>
</svg>
