<?xml version="1.0" encoding="UTF-8" standalone="no"?>
<!DOCTYPE svg PUBLIC "-//W3C//DTD SVG 1.1//EN"
 "http://www.w3.org/Graphics/SVG/1.1/DTD/svg11.dtd">
<!-- Generated by graphviz version 2.38.0 (20140413.2041)
 -->
<!-- Title: ancestry Pages: 1 -->
<svg width="190pt" height="131pt"
 viewBox="0.00 0.00 190.44 131.00" xmlns="http://www.w3.org/2000/svg" xmlns:xlink="http://www.w3.org/1999/xlink">
<g id="graph0" class="graph" transform="scale(1 1) rotate(0) translate(4 127)">
<title>ancestry</title>
<polygon fill="white" stroke="none" points="-4,4 -4,-127 186.443,-127 186.443,4 -4,4"/>
<!-- aaron -->
<g id="node1" class="node"><title>aaron</title>
<g id="a_node1"><a xlink:href="aaron.html" xlink:title="Aaron" target="_top">
<ellipse fill="none" stroke="blue" cx="32.4971" cy="-105" rx="32.4942" ry="18"/>
<text text-anchor="middle" x="32.4971" y="-101.3" font-family="Times,serif" font-size="14.00">Aaron</text>
</a>
</g>
</g>
<!-- elisheba -->
<g id="node2" class="node"><title>elisheba</title>
<g id="a_node2"><a xlink:href="elisheba.html" xlink:title="Elisheba" target="_top">
<ellipse fill="none" stroke="red" cx="141.497" cy="-105" rx="40.8928" ry="18"/>
<text text-anchor="middle" x="141.497" y="-101.3" font-family="Times,serif" font-size="14.00">Elisheba</text>
</a>
</g>
</g>
<!-- aaron&#45;&gt;elisheba -->
<g id="edge3" class="edge"><title>aaron&#45;&gt;elisheba</title>
<path fill="none" stroke="red" d="M65.2823,-105C76.9924,-105 88.7025,-105 100.413,-105"/>
</g>
<!-- nadab -->
<g id="node3" class="node"><title>nadab</title>
<g id="a_node3"><a xlink:href="nadab.html" xlink:title="Nadab" target="_top">
<ellipse fill="lightblue" stroke="blue" stroke-width="2" cx="86.4971" cy="-18" rx="33.5952" ry="18"/>
<text text-anchor="middle" x="86.4971" y="-14.3" font-family="Times,serif" font-size="14.00">Nadab</text>
</a>
</g>
</g>
<!-- aaron&#45;&gt;nadab -->
<g id="edge1" class="edge"><title>aaron&#45;&gt;nadab</title>
<path fill="none" stroke="black" d="M42.9089,-87.6111C50.7528,-75.2642 61.6465,-58.1167 70.5809,-44.0534"/>
<polygon fill="black" stroke="black" points="73.7092,-45.6561 76.1173,-35.3385 67.8007,-41.9024 73.7092,-45.6561"/>
<text text-anchor="middle" x="84.9971" y="-57.8" font-family="Times,serif" font-size="14.00">Ex 6:23</text>
</g>
<!-- elisheba&#45;&gt;nadab -->
<g id="edge2" class="edge"><title>elisheba&#45;&gt;nadab</title>
<path fill="none" stroke="black" d="M130.893,-87.6111C122.903,-75.2642 111.808,-58.1167 102.708,-44.0534"/>
<polygon fill="black" stroke="black" points="105.44,-41.8329 97.0691,-35.3385 99.5632,-45.6357 105.44,-41.8329"/>
<text text-anchor="middle" x="138.997" y="-57.8" font-family="Times,serif" font-size="14.00">Ex 6:23</text>
</g>
</g>
</svg>
