<?xml version="1.0" encoding="UTF-8" standalone="no"?>
<!DOCTYPE svg PUBLIC "-//W3C//DTD SVG 1.1//EN"
 "http://www.w3.org/Graphics/SVG/1.1/DTD/svg11.dtd">
<!-- Generated by graphviz version 2.38.0 (20140413.2041)
 -->
<!-- Title: ancestry Pages: 1 -->
<svg width="118pt" height="293pt"
 viewBox="0.00 0.00 118.49 293.00" xmlns="http://www.w3.org/2000/svg" xmlns:xlink="http://www.w3.org/1999/xlink">
<g id="graph0" class="graph" transform="scale(1 1) rotate(0) translate(4 289)">
<title>ancestry</title>
<polygon fill="white" stroke="none" points="-4,4 -4,-289 114.49,-289 114.49,4 -4,4"/>
<!-- amminadab -->
<g id="node1" class="node"><title>amminadab</title>
<g id="a_node1"><a xlink:href="amminadab.html" xlink:title="Amminadab" target="_top">
<ellipse fill="none" stroke="blue" cx="55.2451" cy="-267" rx="55.4913" ry="18"/>
<text text-anchor="middle" x="55.2451" y="-263.3" font-family="Times,serif" font-size="14.00">Amminadab</text>
</a>
</g>
</g>
<!-- nahshon -->
<g id="node2" class="node"><title>nahshon</title>
<g id="a_node2"><a xlink:href="nahshon.html" xlink:title="Nahshon" target="_top">
<ellipse fill="lightblue" stroke="blue" stroke-width="2" cx="55.2451" cy="-135" rx="42.4939" ry="18"/>
<text text-anchor="middle" x="55.2451" y="-131.3" font-family="Times,serif" font-size="14.00">Nahshon</text>
</a>
</g>
</g>
<!-- amminadab&#45;&gt;nahshon -->
<g id="edge1" class="edge"><title>amminadab&#45;&gt;nahshon</title>
<path fill="none" stroke="black" d="M55.2451,-248.737C55.2451,-226.981 55.2451,-189.322 55.2451,-163.564"/>
<polygon fill="black" stroke="black" points="58.7452,-163.334 55.2451,-153.334 51.7452,-163.334 58.7452,-163.334"/>
<text text-anchor="middle" x="82.7451" y="-219.8" font-family="Times,serif" font-size="14.00">1 Ch 2:10</text>
<text text-anchor="middle" x="82.7451" y="-204.8" font-family="Times,serif" font-size="14.00">Ex 6:23</text>
<text text-anchor="middle" x="82.7451" y="-189.8" font-family="Times,serif" font-size="14.00">Luk 3:33</text>
<text text-anchor="middle" x="82.7451" y="-174.8" font-family="Times,serif" font-size="14.00">Mat 1:4</text>
</g>
<!-- salmon -->
<g id="node3" class="node"><title>salmon</title>
<g id="a_node3"><a xlink:href="salmon.html" xlink:title="Salmon" target="_top">
<ellipse fill="none" stroke="blue" cx="55.2451" cy="-18" rx="38.1938" ry="18"/>
<text text-anchor="middle" x="55.2451" y="-14.3" font-family="Times,serif" font-size="14.00">Salmon</text>
</a>
</g>
</g>
<!-- nahshon&#45;&gt;salmon -->
<g id="edge2" class="edge"><title>nahshon&#45;&gt;salmon</title>
<path fill="none" stroke="black" d="M55.2451,-116.534C55.2451,-97.9357 55.2451,-68.2442 55.2451,-46.5014"/>
<polygon fill="black" stroke="black" points="58.7452,-46.2536 55.2451,-36.2536 51.7452,-46.2536 58.7452,-46.2536"/>
<text text-anchor="middle" x="82.7451" y="-87.8" font-family="Times,serif" font-size="14.00">1 Ch 2:11</text>
<text text-anchor="middle" x="82.7451" y="-72.8" font-family="Times,serif" font-size="14.00">Luk 3:32</text>
<text text-anchor="middle" x="82.7451" y="-57.8" font-family="Times,serif" font-size="14.00">Mat 1:4</text>
</g>
</g>
</svg>
