<?xml version="1.0" encoding="UTF-8" standalone="no"?>
<!DOCTYPE svg PUBLIC "-//W3C//DTD SVG 1.1//EN"
 "http://www.w3.org/Graphics/SVG/1.1/DTD/svg11.dtd">
<!-- Generated by graphviz version 2.38.0 (20140413.2041)
 -->
<!-- Title: ancestry Pages: 1 -->
<svg width="106pt" height="218pt"
 viewBox="0.00 0.00 106.10 218.00" xmlns="http://www.w3.org/2000/svg" xmlns:xlink="http://www.w3.org/1999/xlink">
<g id="graph0" class="graph" transform="scale(1 1) rotate(0) translate(4 214)">
<title>ancestry</title>
<polygon fill="white" stroke="none" points="-4,4 -4,-214 102.096,-214 102.096,4 -4,4"/>
<!-- amoses_mattathias -->
<g id="node1" class="node"><title>amoses_mattathias</title>
<g id="a_node1"><a xlink:href="amoses_mattathias.html" xlink:title="Mattathias" target="_top">
<ellipse fill="none" stroke="blue" cx="48.0957" cy="-18" rx="48.1917" ry="18"/>
<text text-anchor="middle" x="48.0957" y="-14.3" font-family="Times,serif" font-size="14.00">Mattathias</text>
</a>
</g>
</g>
<!-- nahum -->
<g id="node2" class="node"><title>nahum</title>
<g id="a_node2"><a xlink:href="nahum.html" xlink:title="Nahum" target="_top">
<ellipse fill="none" stroke="blue" cx="48.0957" cy="-192" rx="37.0935" ry="18"/>
<text text-anchor="middle" x="48.0957" y="-188.3" font-family="Times,serif" font-size="14.00">Nahum</text>
</a>
</g>
</g>
<!-- nahums_amos -->
<g id="node3" class="node"><title>nahums_amos</title>
<g id="a_node3"><a xlink:href="nahums_amos.html" xlink:title="Amos" target="_top">
<ellipse fill="lightblue" stroke="blue" stroke-width="2" cx="48.0957" cy="-105" rx="32.4942" ry="18"/>
<text text-anchor="middle" x="48.0957" y="-101.3" font-family="Times,serif" font-size="14.00">Amos</text>
</a>
</g>
</g>
<!-- nahum&#45;&gt;nahums_amos -->
<g id="edge1" class="edge"><title>nahum&#45;&gt;nahums_amos</title>
<path fill="none" stroke="black" d="M48.0957,-173.799C48.0957,-162.163 48.0957,-146.548 48.0957,-133.237"/>
<polygon fill="black" stroke="black" points="51.5958,-133.175 48.0957,-123.175 44.5958,-133.175 51.5958,-133.175"/>
<text text-anchor="middle" x="73.0957" y="-144.8" font-family="Times,serif" font-size="14.00">Luk 3:25</text>
</g>
<!-- nahums_amos&#45;&gt;amoses_mattathias -->
<g id="edge2" class="edge"><title>nahums_amos&#45;&gt;amoses_mattathias</title>
<path fill="none" stroke="black" d="M48.0957,-86.799C48.0957,-75.1626 48.0957,-59.5479 48.0957,-46.2368"/>
<polygon fill="black" stroke="black" points="51.5958,-46.1754 48.0957,-36.1754 44.5958,-46.1755 51.5958,-46.1754"/>
<text text-anchor="middle" x="73.0957" y="-57.8" font-family="Times,serif" font-size="14.00">Luk 3:25</text>
</g>
</g>
</svg>
