<?xml version="1.0" encoding="UTF-8" standalone="no"?>
<!DOCTYPE svg PUBLIC "-//W3C//DTD SVG 1.1//EN"
 "http://www.w3.org/Graphics/SVG/1.1/DTD/svg11.dtd">
<!-- Generated by graphviz version 2.38.0 (20140413.2041)
 -->
<!-- Title: ancestry Pages: 1 -->
<svg width="173pt" height="146pt"
 viewBox="0.00 0.00 172.99 146.00" xmlns="http://www.w3.org/2000/svg" xmlns:xlink="http://www.w3.org/1999/xlink">
<g id="graph0" class="graph" transform="scale(1 1) rotate(0) translate(4 142)">
<title>ancestry</title>
<polygon fill="white" stroke="none" points="-4,4 -4,-142 168.994,-142 168.994,4 -4,4"/>
<!-- bilhah -->
<g id="node1" class="node"><title>bilhah</title>
<g id="a_node1"><a xlink:href="bilhah.html" xlink:title="Bilhah" target="_top">
<ellipse fill="none" stroke="red" cx="130.547" cy="-120" rx="34.394" ry="18"/>
<text text-anchor="middle" x="130.547" y="-116.3" font-family="Times,serif" font-size="14.00">Bilhah</text>
</a>
</g>
</g>
<!-- naphtali -->
<g id="node3" class="node"><title>naphtali</title>
<g id="a_node3"><a xlink:href="naphtali.html" xlink:title="Naphtali" target="_top">
<ellipse fill="lightblue" stroke="blue" stroke-width="2" cx="83.5473" cy="-18" rx="40.8928" ry="18"/>
<text text-anchor="middle" x="83.5473" y="-14.3" font-family="Times,serif" font-size="14.00">Naphtali</text>
</a>
</g>
</g>
<!-- bilhah&#45;&gt;naphtali -->
<g id="edge1" class="edge"><title>bilhah&#45;&gt;naphtali</title>
<path fill="none" stroke="black" d="M122.574,-102.036C115.238,-86.4268 104.247,-63.0418 95.7965,-45.062"/>
<polygon fill="black" stroke="black" points="98.8237,-43.2746 91.4025,-35.7131 92.4885,-46.2521 98.8237,-43.2746"/>
<text text-anchor="middle" x="139.047" y="-65.3" font-family="Times,serif" font-size="14.00">Gen 30:7</text>
</g>
<!-- jacob -->
<g id="node2" class="node"><title>jacob</title>
<g id="a_node2"><a xlink:href="jacob.html" xlink:title="Jacob" target="_top">
<ellipse fill="none" stroke="blue" cx="30.5473" cy="-120" rx="30.5947" ry="18"/>
<text text-anchor="middle" x="30.5473" y="-116.3" font-family="Times,serif" font-size="14.00">Jacob</text>
</a>
</g>
</g>
<!-- jacob&#45;&gt;bilhah -->
<g id="edge3" class="edge"><title>jacob&#45;&gt;bilhah</title>
<path fill="none" stroke="red" d="M61.4067,-120C72.9301,-120 84.4535,-120 95.977,-120"/>
</g>
<!-- jacob&#45;&gt;naphtali -->
<g id="edge2" class="edge"><title>jacob&#45;&gt;naphtali</title>
<path fill="none" stroke="black" d="M31.7038,-101.967C33.2648,-88.2274 36.9321,-68.8179 45.5473,-54 48.2395,-49.3695 51.7435,-44.9947 55.5341,-41.0084"/>
<polygon fill="black" stroke="black" points="58.2144,-43.2889 63.0386,-33.8561 53.385,-38.2217 58.2144,-43.2889"/>
<text text-anchor="middle" x="71.0473" y="-72.8" font-family="Times,serif" font-size="14.00">1 Ch 2:2</text>
<text text-anchor="middle" x="71.0473" y="-57.8" font-family="Times,serif" font-size="14.00">Gen 30:7</text>
</g>
</g>
</svg>
