<?xml version="1.0" encoding="UTF-8" standalone="no"?>
<!DOCTYPE svg PUBLIC "-//W3C//DTD SVG 1.1//EN"
 "http://www.w3.org/Graphics/SVG/1.1/DTD/svg11.dtd">
<!-- Generated by graphviz version 2.38.0 (20140413.2041)
 -->
<!-- Title: ancestry Pages: 1 -->
<svg width="100pt" height="218pt"
 viewBox="0.00 0.00 100.25 218.00" xmlns="http://www.w3.org/2000/svg" xmlns:xlink="http://www.w3.org/1999/xlink">
<g id="graph0" class="graph" transform="scale(1 1) rotate(0) translate(4 214)">
<title>ancestry</title>
<polygon fill="white" stroke="none" points="-4,4 -4,-214 96.2463,-214 96.2463,4 -4,4"/>
<!-- david -->
<g id="node1" class="node"><title>david</title>
<g id="a_node1"><a xlink:href="david.html" xlink:title="David" target="_top">
<ellipse fill="none" stroke="blue" cx="42.2463" cy="-192" rx="32.4942" ry="18"/>
<text text-anchor="middle" x="42.2463" y="-188.3" font-family="Times,serif" font-size="14.00">David</text>
</a>
</g>
</g>
<!-- nathan -->
<g id="node3" class="node"><title>nathan</title>
<g id="a_node3"><a xlink:href="nathan.html" xlink:title="Nathan" target="_top">
<ellipse fill="lightblue" stroke="blue" stroke-width="2" cx="42.2463" cy="-105" rx="36.2938" ry="18"/>
<text text-anchor="middle" x="42.2463" y="-101.3" font-family="Times,serif" font-size="14.00">Nathan</text>
</a>
</g>
</g>
<!-- david&#45;&gt;nathan -->
<g id="edge1" class="edge"><title>david&#45;&gt;nathan</title>
<path fill="none" stroke="black" d="M42.2463,-173.799C42.2463,-162.163 42.2463,-146.548 42.2463,-133.237"/>
<polygon fill="black" stroke="black" points="45.7464,-133.175 42.2463,-123.175 38.7464,-133.175 45.7464,-133.175"/>
<text text-anchor="middle" x="67.2463" y="-144.8" font-family="Times,serif" font-size="14.00">Luk 3:31</text>
</g>
<!-- mattatha -->
<g id="node2" class="node"><title>mattatha</title>
<g id="a_node2"><a xlink:href="mattatha.html" xlink:title="Mattatha" target="_top">
<ellipse fill="none" stroke="blue" cx="42.2463" cy="-18" rx="42.4939" ry="18"/>
<text text-anchor="middle" x="42.2463" y="-14.3" font-family="Times,serif" font-size="14.00">Mattatha</text>
</a>
</g>
</g>
<!-- nathan&#45;&gt;mattatha -->
<g id="edge2" class="edge"><title>nathan&#45;&gt;mattatha</title>
<path fill="none" stroke="black" d="M42.2463,-86.799C42.2463,-75.1626 42.2463,-59.5479 42.2463,-46.2368"/>
<polygon fill="black" stroke="black" points="45.7464,-46.1754 42.2463,-36.1754 38.7464,-46.1755 45.7464,-46.1754"/>
<text text-anchor="middle" x="67.2463" y="-57.8" font-family="Times,serif" font-size="14.00">Luk 3:31</text>
</g>
</g>
</svg>
