<?xml version="1.0" encoding="UTF-8" standalone="no"?>
<!DOCTYPE svg PUBLIC "-//W3C//DTD SVG 1.1//EN"
 "http://www.w3.org/Graphics/SVG/1.1/DTD/svg11.dtd">
<!-- Generated by graphviz version 2.38.0 (20140413.2041)
 -->
<!-- Title: ancestry Pages: 1 -->
<svg width="100pt" height="218pt"
 viewBox="0.00 0.00 99.60 218.00" xmlns="http://www.w3.org/2000/svg" xmlns:xlink="http://www.w3.org/1999/xlink">
<g id="graph0" class="graph" transform="scale(1 1) rotate(0) translate(4 214)">
<title>ancestry</title>
<polygon fill="white" stroke="none" points="-4,4 -4,-214 95.5963,-214 95.5963,4 -4,4"/>
<!-- addis_melchi -->
<g id="node1" class="node"><title>addis_melchi</title>
<g id="a_node1"><a xlink:href="addis_melchi.html" xlink:title="Melchi" target="_top">
<ellipse fill="none" stroke="blue" cx="41.5963" cy="-192" rx="36.2938" ry="18"/>
<text text-anchor="middle" x="41.5963" y="-188.3" font-family="Times,serif" font-size="14.00">Melchi</text>
</a>
</g>
</g>
<!-- neri -->
<g id="node2" class="node"><title>neri</title>
<g id="a_node2"><a xlink:href="neri.html" xlink:title="Neri" target="_top">
<ellipse fill="lightblue" stroke="blue" stroke-width="2" cx="41.5963" cy="-105" rx="27" ry="18"/>
<text text-anchor="middle" x="41.5963" y="-101.3" font-family="Times,serif" font-size="14.00">Neri</text>
</a>
</g>
</g>
<!-- addis_melchi&#45;&gt;neri -->
<g id="edge1" class="edge"><title>addis_melchi&#45;&gt;neri</title>
<path fill="none" stroke="black" d="M41.5963,-173.799C41.5963,-162.163 41.5963,-146.548 41.5963,-133.237"/>
<polygon fill="black" stroke="black" points="45.0964,-133.175 41.5963,-123.175 38.0964,-133.175 45.0964,-133.175"/>
<text text-anchor="middle" x="66.5963" y="-144.8" font-family="Times,serif" font-size="14.00">Luk 3:28</text>
</g>
<!-- shealtiel -->
<g id="node3" class="node"><title>shealtiel</title>
<g id="a_node3"><a xlink:href="shealtiel.html" xlink:title="Shealtiel" target="_top">
<ellipse fill="none" stroke="blue" cx="41.5963" cy="-18" rx="41.6928" ry="18"/>
<text text-anchor="middle" x="41.5963" y="-14.3" font-family="Times,serif" font-size="14.00">Shealtiel</text>
</a>
</g>
</g>
<!-- neri&#45;&gt;shealtiel -->
<g id="edge2" class="edge"><title>neri&#45;&gt;shealtiel</title>
<path fill="none" stroke="black" d="M41.5963,-86.799C41.5963,-75.1626 41.5963,-59.5479 41.5963,-46.2368"/>
<polygon fill="black" stroke="black" points="45.0964,-46.1754 41.5963,-36.1754 38.0964,-46.1755 45.0964,-46.1754"/>
<text text-anchor="middle" x="66.5963" y="-57.8" font-family="Times,serif" font-size="14.00">Luk 3:27</text>
</g>
</g>
</svg>
