<?xml version="1.0" encoding="UTF-8" standalone="no"?>
<!DOCTYPE svg PUBLIC "-//W3C//DTD SVG 1.1//EN"
 "http://www.w3.org/Graphics/SVG/1.1/DTD/svg11.dtd">
<!-- Generated by graphviz version 2.38.0 (20140413.2041)
 -->
<!-- Title: ancestry Pages: 1 -->
<svg width="246pt" height="248pt"
 viewBox="0.00 0.00 245.60 248.00" xmlns="http://www.w3.org/2000/svg" xmlns:xlink="http://www.w3.org/1999/xlink">
<g id="graph0" class="graph" transform="scale(1 1) rotate(0) translate(4 244)">
<title>ancestry</title>
<polygon fill="white" stroke="none" points="-4,4 -4,-244 241.597,-244 241.597,4 -4,4"/>
<!-- ham -->
<g id="node1" class="node"><title>ham</title>
<g id="a_node1"><a xlink:href="ham.html" xlink:title="Ham" target="_top">
<ellipse fill="none" stroke="blue" cx="28.5975" cy="-18" rx="28.6953" ry="18"/>
<text text-anchor="middle" x="28.5975" y="-14.3" font-family="Times,serif" font-size="14.00">Ham</text>
</a>
</g>
</g>
<!-- japheth -->
<g id="node2" class="node"><title>japheth</title>
<g id="a_node2"><a xlink:href="japheth.html" xlink:title="Japheth" target="_top">
<ellipse fill="none" stroke="blue" cx="112.597" cy="-18" rx="37.8943" ry="18"/>
<text text-anchor="middle" x="112.597" y="-14.3" font-family="Times,serif" font-size="14.00">Japheth</text>
</a>
</g>
</g>
<!-- lamech -->
<g id="node3" class="node"><title>lamech</title>
<g id="a_node3"><a xlink:href="lamech.html" xlink:title="Lamech" target="_top">
<ellipse fill="none" stroke="blue" cx="112.597" cy="-222" rx="39.7935" ry="18"/>
<text text-anchor="middle" x="112.597" y="-218.3" font-family="Times,serif" font-size="14.00">Lamech</text>
</a>
</g>
</g>
<!-- noah -->
<g id="node4" class="node"><title>noah</title>
<g id="a_node4"><a xlink:href="noah.html" xlink:title="Noah" target="_top">
<ellipse fill="lightblue" stroke="blue" stroke-width="2" cx="112.597" cy="-120" rx="29.795" ry="18"/>
<text text-anchor="middle" x="112.597" y="-116.3" font-family="Times,serif" font-size="14.00">Noah</text>
</a>
</g>
</g>
<!-- lamech&#45;&gt;noah -->
<g id="edge1" class="edge"><title>lamech&#45;&gt;noah</title>
<path fill="none" stroke="black" d="M112.597,-203.581C112.597,-188.382 112.597,-166.067 112.597,-148.464"/>
<polygon fill="black" stroke="black" points="116.098,-148.219 112.597,-138.219 109.098,-148.219 116.098,-148.219"/>
<text text-anchor="middle" x="138.097" y="-174.8" font-family="Times,serif" font-size="14.00">Gen 5:28</text>
<text text-anchor="middle" x="138.097" y="-159.8" font-family="Times,serif" font-size="14.00">Luk 3:36</text>
</g>
<!-- noah&#45;&gt;ham -->
<g id="edge2" class="edge"><title>noah&#45;&gt;ham</title>
<path fill="none" stroke="black" d="M89.4869,-108.269C78.6888,-102.338 66.3217,-94.112 57.5975,-84 48.0434,-72.9263 41.1248,-58.1979 36.447,-45.5613"/>
<polygon fill="black" stroke="black" points="39.7189,-44.3124 33.1683,-35.9853 33.0963,-46.5799 39.7189,-44.3124"/>
<text text-anchor="middle" x="83.0975" y="-65.3" font-family="Times,serif" font-size="14.00">Gen 5:32</text>
</g>
<!-- noah&#45;&gt;japheth -->
<g id="edge3" class="edge"><title>noah&#45;&gt;japheth</title>
<path fill="none" stroke="black" d="M112.597,-101.581C112.597,-86.3816 112.597,-64.0669 112.597,-46.4644"/>
<polygon fill="black" stroke="black" points="116.098,-46.219 112.597,-36.2191 109.098,-46.2191 116.098,-46.219"/>
<text text-anchor="middle" x="138.097" y="-65.3" font-family="Times,serif" font-size="14.00">Gen 5:32</text>
</g>
<!-- shem -->
<g id="node5" class="node"><title>shem</title>
<g id="a_node5"><a xlink:href="shem.html" xlink:title="Shem" target="_top">
<ellipse fill="none" stroke="blue" cx="199.597" cy="-18" rx="31.3957" ry="18"/>
<text text-anchor="middle" x="199.597" y="-14.3" font-family="Times,serif" font-size="14.00">Shem</text>
</a>
</g>
</g>
<!-- noah&#45;&gt;shem -->
<g id="edge4" class="edge"><title>noah&#45;&gt;shem</title>
<path fill="none" stroke="black" d="M135.543,-108.123C146.302,-102.158 158.684,-93.9452 167.597,-84 177.534,-72.914 185.123,-58.1846 190.41,-45.5506"/>
<polygon fill="black" stroke="black" points="193.772,-46.565 194.159,-35.9773 187.254,-44.0129 193.772,-46.565"/>
<text text-anchor="middle" x="212.097" y="-72.8" font-family="Times,serif" font-size="14.00">Gen 5:32</text>
<text text-anchor="middle" x="212.097" y="-57.8" font-family="Times,serif" font-size="14.00">Luk 3:36</text>
</g>
</g>
</svg>
