<?xml version="1.0" encoding="UTF-8" standalone="no"?>
<!DOCTYPE svg PUBLIC "-//W3C//DTD SVG 1.1//EN"
 "http://www.w3.org/Graphics/SVG/1.1/DTD/svg11.dtd">
<!-- Generated by graphviz version 2.38.0 (20140413.2041)
 -->
<!-- Title: ancestry Pages: 1 -->
<svg width="151pt" height="278pt"
 viewBox="0.00 0.00 150.60 278.00" xmlns="http://www.w3.org/2000/svg" xmlns:xlink="http://www.w3.org/1999/xlink">
<g id="graph0" class="graph" transform="scale(1 1) rotate(0) translate(4 274)">
<title>ancestry</title>
<polygon fill="white" stroke="none" points="-4,4 -4,-274 146.597,-274 146.597,4 -4,4"/>
<!-- boaz -->
<g id="node1" class="node"><title>boaz</title>
<g id="a_node1"><a xlink:href="boaz.html" xlink:title="Boaz" target="_top">
<ellipse fill="none" stroke="blue" cx="28.5975" cy="-252" rx="28.6953" ry="18"/>
<text text-anchor="middle" x="28.5975" y="-248.3" font-family="Times,serif" font-size="14.00">Boaz</text>
</a>
</g>
</g>
<!-- obed -->
<g id="node3" class="node"><title>obed</title>
<g id="a_node3"><a xlink:href="obed.html" xlink:title="Obed" target="_top">
<ellipse fill="lightblue" stroke="blue" stroke-width="2" cx="67.5975" cy="-135" rx="29.795" ry="18"/>
<text text-anchor="middle" x="67.5975" y="-131.3" font-family="Times,serif" font-size="14.00">Obed</text>
</a>
</g>
</g>
<!-- boaz&#45;&gt;obed -->
<g id="edge1" class="edge"><title>boaz&#45;&gt;obed</title>
<path fill="none" stroke="black" d="M25.0451,-233.935C22.3952,-217.146 20.6024,-191.17 29.5975,-171 32.1249,-165.332 36.0618,-160.172 40.4617,-155.658"/>
<polygon fill="black" stroke="black" points="43.0806,-158.008 48.1365,-148.698 38.3779,-152.823 43.0806,-158.008"/>
<text text-anchor="middle" x="57.0975" y="-204.8" font-family="Times,serif" font-size="14.00">1 Ch 2:12</text>
<text text-anchor="middle" x="57.0975" y="-189.8" font-family="Times,serif" font-size="14.00">Luk 3:32</text>
<text text-anchor="middle" x="57.0975" y="-174.8" font-family="Times,serif" font-size="14.00">Mat 1:5</text>
</g>
<!-- jesse -->
<g id="node2" class="node"><title>jesse</title>
<g id="a_node2"><a xlink:href="jesse.html" xlink:title="Jesse" target="_top">
<ellipse fill="none" stroke="blue" cx="67.5975" cy="-18" rx="28.6953" ry="18"/>
<text text-anchor="middle" x="67.5975" y="-14.3" font-family="Times,serif" font-size="14.00">Jesse</text>
</a>
</g>
</g>
<!-- obed&#45;&gt;jesse -->
<g id="edge2" class="edge"><title>obed&#45;&gt;jesse</title>
<path fill="none" stroke="black" d="M67.5975,-116.534C67.5975,-97.9357 67.5975,-68.2442 67.5975,-46.5014"/>
<polygon fill="black" stroke="black" points="71.0976,-46.2536 67.5975,-36.2536 64.0976,-46.2536 71.0976,-46.2536"/>
<text text-anchor="middle" x="95.0975" y="-87.8" font-family="Times,serif" font-size="14.00">1 Ch 2:12</text>
<text text-anchor="middle" x="95.0975" y="-72.8" font-family="Times,serif" font-size="14.00">Luk 3:32</text>
<text text-anchor="middle" x="95.0975" y="-57.8" font-family="Times,serif" font-size="14.00">Mat 1:5</text>
</g>
<!-- ruth -->
<g id="node4" class="node"><title>ruth</title>
<g id="a_node4"><a xlink:href="ruth.html" xlink:title="Ruth" target="_top">
<ellipse fill="none" stroke="red" cx="106.597" cy="-252" rx="27.8951" ry="18"/>
<text text-anchor="middle" x="106.597" y="-248.3" font-family="Times,serif" font-size="14.00">Ruth</text>
</a>
</g>
</g>
<!-- ruth&#45;&gt;obed -->
<g id="edge3" class="edge"><title>ruth&#45;&gt;obed</title>
<path fill="none" stroke="black" d="M102.849,-233.856C99.038,-217.458 92.5697,-192.163 84.5975,-171 83.4306,-167.902 82.0876,-164.708 80.6787,-161.568"/>
<polygon fill="black" stroke="black" points="83.8083,-159.999 76.3642,-152.46 77.4821,-162.996 83.8083,-159.999"/>
<text text-anchor="middle" x="120.597" y="-189.8" font-family="Times,serif" font-size="14.00">Mat 1:5</text>
</g>
</g>
</svg>
