<?xml version="1.0" encoding="UTF-8" standalone="no"?>
<!DOCTYPE svg PUBLIC "-//W3C//DTD SVG 1.1//EN"
 "http://www.w3.org/Graphics/SVG/1.1/DTD/svg11.dtd">
<!-- Generated by graphviz version 2.38.0 (20140413.2041)
 -->
<!-- Title: ancestry Pages: 1 -->
<svg width="208pt" height="218pt"
 viewBox="0.00 0.00 207.64 218.00" xmlns="http://www.w3.org/2000/svg" xmlns:xlink="http://www.w3.org/1999/xlink">
<g id="graph0" class="graph" transform="scale(1 1) rotate(0) translate(4 214)">
<title>ancestry</title>
<polygon fill="white" stroke="none" points="-4,4 -4,-214 203.642,-214 203.642,4 -4,4"/>
<!-- atarah -->
<g id="node1" class="node"><title>atarah</title>
<g id="a_node1"><a xlink:href="atarah.html" xlink:title="Atarah" target="_top">
<ellipse fill="none" stroke="red" cx="163.796" cy="-192" rx="34.394" ry="18"/>
<text text-anchor="middle" x="163.796" y="-188.3" font-family="Times,serif" font-size="14.00">Atarah</text>
</a>
</g>
</g>
<!-- onam -->
<g id="node4" class="node"><title>onam</title>
<g id="a_node4"><a xlink:href="onam.html" xlink:title="Onam" target="_top">
<ellipse fill="lightblue" stroke="blue" stroke-width="2" cx="109.796" cy="-105" rx="32.4942" ry="18"/>
<text text-anchor="middle" x="109.796" y="-101.3" font-family="Times,serif" font-size="14.00">Onam</text>
</a>
</g>
</g>
<!-- atarah&#45;&gt;onam -->
<g id="edge1" class="edge"><title>atarah&#45;&gt;onam</title>
<path fill="none" stroke="black" d="M153.384,-174.611C145.54,-162.264 134.646,-145.117 125.712,-131.053"/>
<polygon fill="black" stroke="black" points="128.492,-128.902 120.176,-122.339 122.584,-132.656 128.492,-128.902"/>
<text text-anchor="middle" x="167.296" y="-144.8" font-family="Times,serif" font-size="14.00">1 Ch 2:26</text>
</g>
<!-- jada -->
<g id="node2" class="node"><title>jada</title>
<g id="a_node2"><a xlink:href="jada.html" xlink:title="Jada" target="_top">
<ellipse fill="none" stroke="blue" cx="64.7958" cy="-18" rx="27" ry="18"/>
<text text-anchor="middle" x="64.7958" y="-14.3" font-family="Times,serif" font-size="14.00">Jada</text>
</a>
</g>
</g>
<!-- jerahmeel -->
<g id="node3" class="node"><title>jerahmeel</title>
<g id="a_node3"><a xlink:href="jerahmeel.html" xlink:title="Jerahmeel" target="_top">
<ellipse fill="none" stroke="blue" cx="46.7958" cy="-192" rx="46.5926" ry="18"/>
<text text-anchor="middle" x="46.7958" y="-188.3" font-family="Times,serif" font-size="14.00">Jerahmeel</text>
</a>
</g>
</g>
<!-- jerahmeel&#45;&gt;atarah -->
<g id="edge5" class="edge"><title>jerahmeel&#45;&gt;atarah</title>
<path fill="none" stroke="red" d="M93.8701,-192C105.615,-192 117.361,-192 129.106,-192"/>
</g>
<!-- jerahmeel&#45;&gt;onam -->
<g id="edge2" class="edge"><title>jerahmeel&#45;&gt;onam</title>
<path fill="none" stroke="black" d="M54.3589,-174.021C59.2202,-163.964 66.0619,-151.231 73.7958,-141 77.2127,-136.48 81.2153,-131.999 85.2859,-127.829"/>
<polygon fill="black" stroke="black" points="87.8622,-130.205 92.5746,-120.716 82.9732,-125.195 87.8622,-130.205"/>
<text text-anchor="middle" x="101.296" y="-144.8" font-family="Times,serif" font-size="14.00">1 Ch 2:26</text>
</g>
<!-- onam&#45;&gt;jada -->
<g id="edge3" class="edge"><title>onam&#45;&gt;jada</title>
<path fill="none" stroke="black" d="M93.3389,-89.2531C87.6978,-83.4353 81.8037,-76.3799 77.7958,-69 73.9267,-61.8755 71.1692,-53.5486 69.2206,-45.7566"/>
<polygon fill="black" stroke="black" points="72.6378,-44.9996 67.0995,-35.9676 65.7966,-46.482 72.6378,-44.9996"/>
<text text-anchor="middle" x="105.296" y="-57.8" font-family="Times,serif" font-size="14.00">1 Ch 2:28</text>
</g>
<!-- shammai -->
<g id="node5" class="node"><title>shammai</title>
<g id="a_node5"><a xlink:href="shammai.html" xlink:title="Shammai" target="_top">
<ellipse fill="none" stroke="blue" cx="154.796" cy="-18" rx="44.6926" ry="18"/>
<text text-anchor="middle" x="154.796" y="-14.3" font-family="Times,serif" font-size="14.00">Shammai</text>
</a>
</g>
</g>
<!-- onam&#45;&gt;shammai -->
<g id="edge4" class="edge"><title>onam&#45;&gt;shammai</title>
<path fill="none" stroke="black" d="M121.14,-87.9658C125.054,-82.126 129.323,-75.388 132.796,-69 136.872,-61.5012 140.802,-53.0951 144.184,-45.3466"/>
<polygon fill="black" stroke="black" points="147.465,-46.5743 148.144,-36.0012 141.02,-43.8428 147.465,-46.5743"/>
<text text-anchor="middle" x="167.296" y="-57.8" font-family="Times,serif" font-size="14.00">1 Ch 2:28</text>
</g>
</g>
</svg>
