<?xml version="1.0" encoding="UTF-8" standalone="no"?>
<!DOCTYPE svg PUBLIC "-//W3C//DTD SVG 1.1//EN"
 "http://www.w3.org/Graphics/SVG/1.1/DTD/svg11.dtd">
<!-- Generated by graphviz version 2.38.0 (20140413.2041)
 -->
<!-- Title: ancestry Pages: 1 -->
<svg width="97pt" height="263pt"
 viewBox="0.00 0.00 96.55 263.00" xmlns="http://www.w3.org/2000/svg" xmlns:xlink="http://www.w3.org/1999/xlink">
<g id="graph0" class="graph" transform="scale(1 1) rotate(0) translate(4 259)">
<title>ancestry</title>
<polygon fill="white" stroke="none" points="-4,4 -4,-259 92.5473,-259 92.5473,4 -4,4"/>
<!-- eber -->
<g id="node1" class="node"><title>eber</title>
<g id="a_node1"><a xlink:href="eber.html" xlink:title="Eber" target="_top">
<ellipse fill="none" stroke="blue" cx="30.5473" cy="-237" rx="27.0966" ry="18"/>
<text text-anchor="middle" x="30.5473" y="-233.3" font-family="Times,serif" font-size="14.00">Eber</text>
</a>
</g>
</g>
<!-- peleg -->
<g id="node2" class="node"><title>peleg</title>
<g id="a_node2"><a xlink:href="peleg.html" xlink:title="Peleg" target="_top">
<ellipse fill="lightblue" stroke="blue" stroke-width="2" cx="30.5473" cy="-120" rx="30.5947" ry="18"/>
<text text-anchor="middle" x="30.5473" y="-116.3" font-family="Times,serif" font-size="14.00">Peleg</text>
</a>
</g>
</g>
<!-- eber&#45;&gt;peleg -->
<g id="edge1" class="edge"><title>eber&#45;&gt;peleg</title>
<path fill="none" stroke="black" d="M30.5473,-218.534C30.5473,-199.936 30.5473,-170.244 30.5473,-148.501"/>
<polygon fill="black" stroke="black" points="34.0474,-148.254 30.5473,-138.254 27.0474,-148.254 34.0474,-148.254"/>
<text text-anchor="middle" x="59.5473" y="-189.8" font-family="Times,serif" font-size="14.00">Gen 10:25</text>
<text text-anchor="middle" x="59.5473" y="-174.8" font-family="Times,serif" font-size="14.00">Gen 11:16</text>
<text text-anchor="middle" x="59.5473" y="-159.8" font-family="Times,serif" font-size="14.00">Luk 3:35</text>
</g>
<!-- reu -->
<g id="node3" class="node"><title>reu</title>
<g id="a_node3"><a xlink:href="reu.html" xlink:title="Reu" target="_top">
<ellipse fill="none" stroke="blue" cx="30.5473" cy="-18" rx="27" ry="18"/>
<text text-anchor="middle" x="30.5473" y="-14.3" font-family="Times,serif" font-size="14.00">Reu</text>
</a>
</g>
</g>
<!-- peleg&#45;&gt;reu -->
<g id="edge2" class="edge"><title>peleg&#45;&gt;reu</title>
<path fill="none" stroke="black" d="M30.5473,-101.581C30.5473,-86.3816 30.5473,-64.0669 30.5473,-46.4644"/>
<polygon fill="black" stroke="black" points="34.0474,-46.219 30.5473,-36.2191 27.0474,-46.2191 34.0474,-46.219"/>
<text text-anchor="middle" x="59.5473" y="-72.8" font-family="Times,serif" font-size="14.00">Gen 11:17</text>
<text text-anchor="middle" x="59.5473" y="-57.8" font-family="Times,serif" font-size="14.00">Luk 3:35</text>
</g>
</g>
</svg>
