<?xml version="1.0" encoding="UTF-8" standalone="no"?>
<!DOCTYPE svg PUBLIC "-//W3C//DTD SVG 1.1//EN"
 "http://www.w3.org/Graphics/SVG/1.1/DTD/svg11.dtd">
<!-- Generated by graphviz version 2.38.0 (20140413.2041)
 -->
<!-- Title: ancestry Pages: 1 -->
<svg width="259pt" height="263pt"
 viewBox="0.00 0.00 259.49 263.00" xmlns="http://www.w3.org/2000/svg" xmlns:xlink="http://www.w3.org/1999/xlink">
<g id="graph0" class="graph" transform="scale(1 1) rotate(0) translate(4 259)">
<title>ancestry</title>
<polygon fill="white" stroke="none" points="-4,4 -4,-259 255.494,-259 255.494,4 -4,4"/>
<!-- hamul -->
<g id="node1" class="node"><title>hamul</title>
<g id="a_node1"><a xlink:href="hamul.html" xlink:title="Hamul" target="_top">
<ellipse fill="none" stroke="blue" cx="35.0969" cy="-18" rx="35.194" ry="18"/>
<text text-anchor="middle" x="35.0969" y="-14.3" font-family="Times,serif" font-size="14.00">Hamul</text>
</a>
</g>
</g>
<!-- hezron -->
<g id="node2" class="node"><title>hezron</title>
<g id="a_node2"><a xlink:href="hezron.html" xlink:title="Hezron" target="_top">
<ellipse fill="none" stroke="blue" cx="124.097" cy="-18" rx="36.2938" ry="18"/>
<text text-anchor="middle" x="124.097" y="-14.3" font-family="Times,serif" font-size="14.00">Hezron</text>
</a>
</g>
</g>
<!-- judah -->
<g id="node3" class="node"><title>judah</title>
<g id="a_node3"><a xlink:href="judah.html" xlink:title="Judah" target="_top">
<ellipse fill="none" stroke="blue" cx="82.0969" cy="-237" rx="31.3957" ry="18"/>
<text text-anchor="middle" x="82.0969" y="-233.3" font-family="Times,serif" font-size="14.00">Judah</text>
</a>
</g>
</g>
<!-- perez -->
<g id="node4" class="node"><title>perez</title>
<g id="a_node4"><a xlink:href="perez.html" xlink:title="Perez" target="_top">
<ellipse fill="lightblue" stroke="blue" stroke-width="2" cx="124.097" cy="-120" rx="30.5947" ry="18"/>
<text text-anchor="middle" x="124.097" y="-116.3" font-family="Times,serif" font-size="14.00">Perez</text>
</a>
</g>
</g>
<!-- judah&#45;&gt;perez -->
<g id="edge1" class="edge"><title>judah&#45;&gt;perez</title>
<path fill="none" stroke="black" d="M81.9612,-218.994C82.4325,-202.251 84.8132,-176.309 94.0969,-156 96.0589,-151.708 98.7088,-147.536 101.626,-143.657"/>
<polygon fill="black" stroke="black" points="104.549,-145.617 108.274,-135.699 99.1765,-141.129 104.549,-145.617"/>
<text text-anchor="middle" x="119.097" y="-189.8" font-family="Times,serif" font-size="14.00">1 Ch 2:4</text>
<text text-anchor="middle" x="119.097" y="-174.8" font-family="Times,serif" font-size="14.00">Luk 3:33</text>
<text text-anchor="middle" x="119.097" y="-159.8" font-family="Times,serif" font-size="14.00">Mat 1:3</text>
</g>
<!-- perez&#45;&gt;hamul -->
<g id="edge2" class="edge"><title>perez&#45;&gt;hamul</title>
<path fill="none" stroke="black" d="M102.154,-107.349C92.164,-101.308 80.6823,-93.2542 72.0969,-84 61.5407,-72.6216 52.7758,-57.6979 46.4308,-45.0203"/>
<polygon fill="black" stroke="black" points="49.5253,-43.3781 42.0608,-35.8594 43.2074,-46.392 49.5253,-43.3781"/>
<text text-anchor="middle" x="96.0969" y="-65.3" font-family="Times,serif" font-size="14.00">1 Ch 2:5</text>
</g>
<!-- perez&#45;&gt;hezron -->
<g id="edge3" class="edge"><title>perez&#45;&gt;hezron</title>
<path fill="none" stroke="black" d="M124.097,-101.581C124.097,-86.3816 124.097,-64.0669 124.097,-46.4644"/>
<polygon fill="black" stroke="black" points="127.597,-46.219 124.097,-36.2191 120.597,-46.2191 127.597,-46.219"/>
<text text-anchor="middle" x="149.097" y="-65.3" font-family="Times,serif" font-size="14.00">Luk 3:33</text>
</g>
<!-- perezs_hezron -->
<g id="node5" class="node"><title>perezs_hezron</title>
<g id="a_node5"><a xlink:href="perezs_hezron.html" xlink:title="Hezron" target="_top">
<ellipse fill="none" stroke="blue" cx="215.097" cy="-18" rx="36.2938" ry="18"/>
<text text-anchor="middle" x="215.097" y="-14.3" font-family="Times,serif" font-size="14.00">Hezron</text>
</a>
</g>
</g>
<!-- perez&#45;&gt;perezs_hezron -->
<g id="edge4" class="edge"><title>perez&#45;&gt;perezs_hezron</title>
<path fill="none" stroke="black" d="M146.633,-107.656C157.074,-101.633 169.124,-93.505 178.097,-84 188.751,-72.7136 197.523,-57.796 203.847,-45.0987"/>
<polygon fill="black" stroke="black" points="207.077,-46.4544 208.196,-35.9188 200.752,-43.4571 207.077,-46.4544"/>
<text text-anchor="middle" x="224.097" y="-72.8" font-family="Times,serif" font-size="14.00">1 Ch 2:5</text>
<text text-anchor="middle" x="224.097" y="-57.8" font-family="Times,serif" font-size="14.00">Mat 1:3</text>
</g>
<!-- tamar -->
<g id="node6" class="node"><title>tamar</title>
<g id="a_node6"><a xlink:href="tamar.html" xlink:title="Tamar" target="_top">
<ellipse fill="none" stroke="red" cx="166.097" cy="-237" rx="34.394" ry="18"/>
<text text-anchor="middle" x="166.097" y="-233.3" font-family="Times,serif" font-size="14.00">Tamar</text>
</a>
</g>
</g>
<!-- tamar&#45;&gt;perez -->
<g id="edge5" class="edge"><title>tamar&#45;&gt;perez</title>
<path fill="none" stroke="black" d="M162.732,-219.045C159.162,-202.565 152.829,-177.017 144.097,-156 142.74,-152.734 141.14,-149.394 139.445,-146.136"/>
<polygon fill="black" stroke="black" points="142.455,-144.347 134.541,-137.302 136.334,-147.744 142.455,-144.347"/>
<text text-anchor="middle" x="183.097" y="-182.3" font-family="Times,serif" font-size="14.00">1 Ch 2:4</text>
<text text-anchor="middle" x="183.097" y="-167.3" font-family="Times,serif" font-size="14.00">Mat 1:3</text>
</g>
</g>
</svg>
