<?xml version="1.0" encoding="UTF-8" standalone="no"?>
<!DOCTYPE svg PUBLIC "-//W3C//DTD SVG 1.1//EN"
 "http://www.w3.org/Graphics/SVG/1.1/DTD/svg11.dtd">
<!-- Generated by graphviz version 2.38.0 (20140413.2041)
 -->
<!-- Title: ancestry Pages: 1 -->
<svg width="447pt" height="248pt"
 viewBox="0.00 0.00 446.69 248.00" xmlns="http://www.w3.org/2000/svg" xmlns:xlink="http://www.w3.org/1999/xlink">
<g id="graph0" class="graph" transform="scale(1 1) rotate(0) translate(4 244)">
<title>ancestry</title>
<polygon fill="white" stroke="none" points="-4,4 -4,-244 442.691,-244 442.691,4 -4,4"/>
<!-- caleb -->
<g id="node1" class="node"><title>caleb</title>
<g id="a_node1"><a xlink:href="caleb.html" xlink:title="Caleb" target="_top">
<ellipse fill="none" stroke="blue" cx="31.1972" cy="-18" rx="31.3957" ry="18"/>
<text text-anchor="middle" x="31.1972" y="-14.3" font-family="Times,serif" font-size="14.00">Caleb</text>
</a>
</g>
</g>
<!-- hezrons_wife_ephrath -->
<g id="node2" class="node"><title>hezrons_wife_ephrath</title>
<g id="a_node2"><a xlink:href="hezrons_wife_ephrath.html" xlink:title="Ephrath" target="_top">
<ellipse fill="none" stroke="red" cx="239.197" cy="-120" rx="38.1938" ry="18"/>
<text text-anchor="middle" x="239.197" y="-116.3" font-family="Times,serif" font-size="14.00">Ephrath</text>
</a>
</g>
</g>
<!-- jerahmeel -->
<g id="node3" class="node"><title>jerahmeel</title>
<g id="a_node3"><a xlink:href="jerahmeel.html" xlink:title="Jerahmeel" target="_top">
<ellipse fill="none" stroke="blue" cx="127.197" cy="-18" rx="46.5926" ry="18"/>
<text text-anchor="middle" x="127.197" y="-14.3" font-family="Times,serif" font-size="14.00">Jerahmeel</text>
</a>
</g>
</g>
<!-- makirs_daughter -->
<g id="node4" class="node"><title>makirs_daughter</title>
<g id="a_node4"><a xlink:href="makirs_daughter.html" xlink:title="Makirs_daughter" target="_top">
<ellipse fill="none" stroke="red" cx="367.197" cy="-120" rx="71.4873" ry="18"/>
<text text-anchor="middle" x="367.197" y="-116.3" font-family="Times,serif" font-size="14.00">Makirs_daughter</text>
</a>
</g>
</g>
<!-- segub -->
<g id="node8" class="node"><title>segub</title>
<g id="a_node8"><a xlink:href="segub.html" xlink:title="Segub" target="_top">
<ellipse fill="none" stroke="blue" cx="331.197" cy="-18" rx="32.4942" ry="18"/>
<text text-anchor="middle" x="331.197" y="-14.3" font-family="Times,serif" font-size="14.00">Segub</text>
</a>
</g>
</g>
<!-- makirs_daughter&#45;&gt;segub -->
<g id="edge1" class="edge"><title>makirs_daughter&#45;&gt;segub</title>
<path fill="none" stroke="black" d="M361.659,-101.804C357.354,-88.6497 351.135,-70.0952 345.197,-54 344.122,-51.0854 342.964,-48.0484 341.791,-45.0344"/>
<polygon fill="black" stroke="black" points="345.015,-43.6698 338.076,-35.6635 338.508,-46.2496 345.015,-43.6698"/>
<text text-anchor="middle" x="383.697" y="-65.3" font-family="Times,serif" font-size="14.00">1 Ch 2:21</text>
</g>
<!-- perez -->
<g id="node5" class="node"><title>perez</title>
<g id="a_node5"><a xlink:href="perez.html" xlink:title="Perez" target="_top">
<ellipse fill="none" stroke="blue" cx="129.197" cy="-222" rx="30.5947" ry="18"/>
<text text-anchor="middle" x="129.197" y="-218.3" font-family="Times,serif" font-size="14.00">Perez</text>
</a>
</g>
</g>
<!-- perezs_hezron -->
<g id="node6" class="node"><title>perezs_hezron</title>
<g id="a_node6"><a xlink:href="perezs_hezron.html" xlink:title="Hezron" target="_top">
<ellipse fill="lightblue" stroke="blue" stroke-width="2" cx="129.197" cy="-120" rx="36.2938" ry="18"/>
<text text-anchor="middle" x="129.197" y="-116.3" font-family="Times,serif" font-size="14.00">Hezron</text>
</a>
</g>
</g>
<!-- perez&#45;&gt;perezs_hezron -->
<g id="edge2" class="edge"><title>perez&#45;&gt;perezs_hezron</title>
<path fill="none" stroke="black" d="M129.197,-203.581C129.197,-188.382 129.197,-166.067 129.197,-148.464"/>
<polygon fill="black" stroke="black" points="132.697,-148.219 129.197,-138.219 125.697,-148.219 132.697,-148.219"/>
<text text-anchor="middle" x="153.197" y="-174.8" font-family="Times,serif" font-size="14.00">1 Ch 2:5</text>
<text text-anchor="middle" x="153.197" y="-159.8" font-family="Times,serif" font-size="14.00">Mat 1:3</text>
</g>
<!-- perezs_hezron&#45;&gt;caleb -->
<g id="edge3" class="edge"><title>perezs_hezron&#45;&gt;caleb</title>
<path fill="none" stroke="black" d="M105.604,-106.11C95.8721,-100.137 84.8674,-92.4823 76.1972,-84 64.2762,-72.3374 53.5339,-57.1024 45.5369,-44.3137"/>
<polygon fill="black" stroke="black" points="48.3898,-42.2675 40.2214,-35.5199 42.3991,-45.8886 48.3898,-42.2675"/>
<text text-anchor="middle" x="100.197" y="-65.3" font-family="Times,serif" font-size="14.00">1 Ch 2:9</text>
</g>
<!-- perezs_hezron&#45;&gt;hezrons_wife_ephrath -->
<g id="edge8" class="edge"><title>perezs_hezron&#45;&gt;hezrons_wife_ephrath</title>
<path fill="none" stroke="red" d="M165.721,-120C177.393,-120 189.065,-120 200.737,-120"/>
</g>
<!-- perezs_hezron&#45;&gt;jerahmeel -->
<g id="edge4" class="edge"><title>perezs_hezron&#45;&gt;jerahmeel</title>
<path fill="none" stroke="black" d="M128.849,-101.581C128.545,-86.3816 128.099,-64.0669 127.747,-46.4644"/>
<polygon fill="black" stroke="black" points="131.241,-46.147 127.542,-36.2191 124.242,-46.2871 131.241,-46.147"/>
<text text-anchor="middle" x="153.197" y="-65.3" font-family="Times,serif" font-size="14.00">1 Ch 2:9</text>
</g>
<!-- perezs_hezron&#45;&gt;makirs_daughter -->
<g id="edge7" class="edge"><title>perezs_hezron&#45;&gt;makirs_daughter</title>
<path fill="none" stroke="red" d="M145.571,-136.15C159.185,-148.368 179.74,-164.17 201.197,-171 233.384,-181.245 244.535,-179.611 277.197,-171 302.031,-164.453 327.203,-149.307 344.587,-137.211"/>
</g>
<!-- ram -->
<g id="node7" class="node"><title>ram</title>
<g id="a_node7"><a xlink:href="ram.html" xlink:title="Ram" target="_top">
<ellipse fill="none" stroke="blue" cx="220.197" cy="-18" rx="27.8951" ry="18"/>
<text text-anchor="middle" x="220.197" y="-14.3" font-family="Times,serif" font-size="14.00">Ram</text>
</a>
</g>
</g>
<!-- perezs_hezron&#45;&gt;ram -->
<g id="edge5" class="edge"><title>perezs_hezron&#45;&gt;ram</title>
<path fill="none" stroke="black" d="M152.866,-106.142C162.391,-100.225 173.031,-92.6027 181.197,-84 192.1,-72.5154 201.369,-57.4666 208.132,-44.7415"/>
<polygon fill="black" stroke="black" points="211.388,-46.0611 212.801,-35.561 205.148,-42.8879 211.388,-46.0611"/>
<text text-anchor="middle" x="226.197" y="-72.8" font-family="Times,serif" font-size="14.00">1 Ch 2:9</text>
<text text-anchor="middle" x="226.197" y="-57.8" font-family="Times,serif" font-size="14.00">Mat 1:3</text>
</g>
<!-- perezs_hezron&#45;&gt;segub -->
<g id="edge6" class="edge"><title>perezs_hezron&#45;&gt;segub</title>
<path fill="none" stroke="black" d="M160.376,-110.465C196.708,-100.491 252.093,-85.1857 254.197,-84 271.182,-74.4307 271.376,-66.6644 286.197,-54 291.991,-49.0492 298.371,-43.9102 304.46,-39.1441"/>
<polygon fill="black" stroke="black" points="306.729,-41.8138 312.5,-32.9287 302.448,-36.2755 306.729,-41.8138"/>
<text text-anchor="middle" x="313.697" y="-65.3" font-family="Times,serif" font-size="14.00">1 Ch 2:21</text>
</g>
</g>
</svg>
