<?xml version="1.0" encoding="UTF-8" standalone="no"?>
<!DOCTYPE svg PUBLIC "-//W3C//DTD SVG 1.1//EN"
 "http://www.w3.org/Graphics/SVG/1.1/DTD/svg11.dtd">
<!-- Generated by graphviz version 2.38.0 (20140413.2041)
 -->
<!-- Title: ancestry Pages: 1 -->
<svg width="208pt" height="218pt"
 viewBox="0.00 0.00 208.05 218.00" xmlns="http://www.w3.org/2000/svg" xmlns:xlink="http://www.w3.org/1999/xlink">
<g id="graph0" class="graph" transform="scale(1 1) rotate(0) translate(4 214)">
<title>ancestry</title>
<polygon fill="white" stroke="none" points="-4,4 -4,-214 204.046,-214 204.046,4 -4,4"/>
<!-- abimelech -->
<g id="node1" class="node"><title>abimelech</title>
<g id="a_node1"><a xlink:href="abimelech.html" xlink:title="Abimelech" target="_top">
<ellipse fill="none" stroke="blue" cx="50.0456" cy="-18" rx="50.0912" ry="18"/>
<text text-anchor="middle" x="50.0456" y="-14.3" font-family="Times,serif" font-size="14.00">Abimelech</text>
</a>
</g>
</g>
<!-- casluhim -->
<g id="node2" class="node"><title>casluhim</title>
<g id="a_node2"><a xlink:href="casluhim.html" xlink:title="Casluhim" target="_top">
<ellipse fill="none" stroke="black" cx="103.046" cy="-192" rx="44.6926" ry="18"/>
<text text-anchor="middle" x="103.046" y="-188.3" font-family="Times,serif" font-size="14.00">Casluhim</text>
</a>
</g>
</g>
<!-- philistim -->
<g id="node4" class="node"><title>philistim</title>
<g id="a_node4"><a xlink:href="philistim.html" xlink:title="Philistim" target="_top">
<ellipse fill="lightgrey" stroke="black" stroke-width="2" cx="103.046" cy="-105" rx="42.7926" ry="18"/>
<text text-anchor="middle" x="103.046" y="-101.3" font-family="Times,serif" font-size="14.00">Philistim</text>
</a>
</g>
</g>
<!-- casluhim&#45;&gt;philistim -->
<g id="edge1" class="edge"><title>casluhim&#45;&gt;philistim</title>
<path fill="none" stroke="black" stroke-dasharray="1,5" d="M103.046,-173.799C103.046,-162.163 103.046,-146.548 103.046,-133.237"/>
<polygon fill="black" stroke="black" points="106.546,-133.175 103.046,-123.175 99.5457,-133.175 106.546,-133.175"/>
<text text-anchor="middle" x="132.046" y="-144.8" font-family="Times,serif" font-size="14.00">Gen 10:14</text>
</g>
<!-- phichol -->
<g id="node3" class="node"><title>phichol</title>
<g id="a_node3"><a xlink:href="phichol.html" xlink:title="Phichol" target="_top">
<ellipse fill="none" stroke="blue" cx="156.046" cy="-18" rx="37.8943" ry="18"/>
<text text-anchor="middle" x="156.046" y="-14.3" font-family="Times,serif" font-size="14.00">Phichol</text>
</a>
</g>
</g>
<!-- philistim&#45;&gt;abimelech -->
<g id="edge2" class="edge"><title>philistim&#45;&gt;abimelech</title>
<path fill="none" stroke="black" stroke-dasharray="1,5" d="M89.5119,-87.7039C84.9987,-81.9534 80.0933,-75.3387 76.0456,-69 71.2537,-61.496 66.5833,-53.009 62.5534,-45.186"/>
<polygon fill="black" stroke="black" points="65.6008,-43.4548 57.9904,-36.0837 59.3431,-46.5918 65.6008,-43.4548"/>
<text text-anchor="middle" x="105.046" y="-57.8" font-family="Times,serif" font-size="14.00">Gen 21:32</text>
</g>
<!-- philistim&#45;&gt;phichol -->
<g id="edge3" class="edge"><title>philistim&#45;&gt;phichol</title>
<path fill="none" stroke="black" stroke-dasharray="1,5" d="M118.992,-88.1151C124.206,-82.3975 129.755,-75.6985 134.046,-69 138.721,-61.7004 142.863,-53.239 146.255,-45.3762"/>
<polygon fill="black" stroke="black" points="149.597,-46.4504 150.136,-35.8693 143.116,-43.8049 149.597,-46.4504"/>
<text text-anchor="middle" x="171.046" y="-57.8" font-family="Times,serif" font-size="14.00">Gen 21:32</text>
</g>
</g>
</svg>
