<?xml version="1.0" encoding="UTF-8" standalone="no"?>
<!DOCTYPE svg PUBLIC "-//W3C//DTD SVG 1.1//EN"
 "http://www.w3.org/Graphics/SVG/1.1/DTD/svg11.dtd">
<!-- Generated by graphviz version 2.38.0 (20140413.2041)
 -->
<!-- Title: ancestry Pages: 1 -->
<svg width="238pt" height="233pt"
 viewBox="0.00 0.00 238.49 233.00" xmlns="http://www.w3.org/2000/svg" xmlns:xlink="http://www.w3.org/1999/xlink">
<g id="graph0" class="graph" transform="scale(1 1) rotate(0) translate(4 229)">
<title>ancestry</title>
<polygon fill="white" stroke="none" points="-4,4 -4,-229 234.491,-229 234.491,4 -4,4"/>
<!-- abishua -->
<g id="node1" class="node"><title>abishua</title>
<g id="a_node1"><a xlink:href="abishua.html" xlink:title="Abishua" target="_top">
<ellipse fill="none" stroke="blue" cx="87.0467" cy="-18" rx="40.0939" ry="18"/>
<text text-anchor="middle" x="87.0467" y="-14.3" font-family="Times,serif" font-size="14.00">Abishua</text>
</a>
</g>
</g>
<!-- eleazar -->
<g id="node2" class="node"><title>eleazar</title>
<g id="a_node2"><a xlink:href="eleazar.html" xlink:title="Eleazar" target="_top">
<ellipse fill="none" stroke="blue" cx="37.0467" cy="-207" rx="37.0935" ry="18"/>
<text text-anchor="middle" x="37.0467" y="-203.3" font-family="Times,serif" font-size="14.00">Eleazar</text>
</a>
</g>
</g>
<!-- eleazars_wife -->
<g id="node3" class="node"><title>eleazars_wife</title>
<g id="a_node3"><a xlink:href="eleazars_wife.html" xlink:title="Eleazars_wife" target="_top">
<ellipse fill="none" stroke="red" cx="170.047" cy="-207" rx="60.3893" ry="18"/>
<text text-anchor="middle" x="170.047" y="-203.3" font-family="Times,serif" font-size="14.00">Eleazars_wife</text>
</a>
</g>
</g>
<!-- eleazar&#45;&gt;eleazars_wife -->
<g id="edge4" class="edge"><title>eleazar&#45;&gt;eleazars_wife</title>
<path fill="none" stroke="red" d="M74.1932,-207C85.9253,-207 97.6573,-207 109.389,-207"/>
</g>
<!-- phinehas -->
<g id="node4" class="node"><title>phinehas</title>
<g id="a_node4"><a xlink:href="phinehas.html" xlink:title="Phinehas" target="_top">
<ellipse fill="lightblue" stroke="blue" stroke-width="2" cx="87.0467" cy="-105" rx="42.4939" ry="18"/>
<text text-anchor="middle" x="87.0467" y="-101.3" font-family="Times,serif" font-size="14.00">Phinehas</text>
</a>
</g>
</g>
<!-- eleazar&#45;&gt;phinehas -->
<g id="edge1" class="edge"><title>eleazar&#45;&gt;phinehas</title>
<path fill="none" stroke="black" d="M45.5285,-189.036C53.3333,-173.427 65.0258,-150.042 74.0157,-132.062"/>
<polygon fill="black" stroke="black" points="77.3485,-133.223 78.6902,-122.713 71.0875,-130.092 77.3485,-133.223"/>
<text text-anchor="middle" x="91.5467" y="-159.8" font-family="Times,serif" font-size="14.00">Ex 6:25</text>
<text text-anchor="middle" x="91.5467" y="-144.8" font-family="Times,serif" font-size="14.00">Ezr 7:5</text>
</g>
<!-- eleazars_wife&#45;&gt;phinehas -->
<g id="edge2" class="edge"><title>eleazars_wife&#45;&gt;phinehas</title>
<path fill="none" stroke="black" d="M156.652,-189.344C146.003,-176.158 130.682,-157.309 117.047,-141 114.079,-137.45 110.922,-133.719 107.812,-130.069"/>
<polygon fill="black" stroke="black" points="110.333,-127.632 101.172,-122.311 105.015,-132.184 110.333,-127.632"/>
<text text-anchor="middle" x="162.547" y="-152.3" font-family="Times,serif" font-size="14.00">Ex 6:25</text>
</g>
<!-- phinehas&#45;&gt;abishua -->
<g id="edge3" class="edge"><title>phinehas&#45;&gt;abishua</title>
<path fill="none" stroke="black" d="M87.0467,-86.799C87.0467,-75.1626 87.0467,-59.5479 87.0467,-46.2368"/>
<polygon fill="black" stroke="black" points="90.5468,-46.1754 87.0467,-36.1754 83.5468,-46.1755 90.5468,-46.1754"/>
<text text-anchor="middle" x="107.047" y="-57.8" font-family="Times,serif" font-size="14.00">Ezr 7:5</text>
</g>
</g>
</svg>
