<?xml version="1.0" encoding="UTF-8" standalone="no"?>
<!DOCTYPE svg PUBLIC "-//W3C//DTD SVG 1.1//EN"
 "http://www.w3.org/Graphics/SVG/1.1/DTD/svg11.dtd">
<!-- Generated by graphviz version 2.38.0 (20140413.2041)
 -->
<!-- Title: ancestry Pages: 1 -->
<svg width="181pt" height="131pt"
 viewBox="0.00 0.00 180.89 131.00" xmlns="http://www.w3.org/2000/svg" xmlns:xlink="http://www.w3.org/1999/xlink">
<g id="graph0" class="graph" transform="scale(1 1) rotate(0) translate(4 127)">
<title>ancestry</title>
<polygon fill="white" stroke="none" points="-4,4 -4,-127 176.894,-127 176.894,4 -4,4"/>
<!-- milcah -->
<g id="node1" class="node"><title>milcah</title>
<g id="a_node1"><a xlink:href="milcah.html" xlink:title="Milcah" target="_top">
<ellipse fill="none" stroke="red" cx="136.497" cy="-105" rx="36.2938" ry="18"/>
<text text-anchor="middle" x="136.497" y="-101.3" font-family="Times,serif" font-size="14.00">Milcah</text>
</a>
</g>
</g>
<!-- pildash -->
<g id="node2" class="node"><title>pildash</title>
<g id="a_node2"><a xlink:href="pildash.html" xlink:title="Pildash" target="_top">
<ellipse fill="lightblue" stroke="blue" stroke-width="2" cx="86.4971" cy="-18" rx="36.2938" ry="18"/>
<text text-anchor="middle" x="86.4971" y="-14.3" font-family="Times,serif" font-size="14.00">Pildash</text>
</a>
</g>
</g>
<!-- milcah&#45;&gt;pildash -->
<g id="edge1" class="edge"><title>milcah&#45;&gt;pildash</title>
<path fill="none" stroke="black" d="M126.857,-87.6111C119.64,-75.3433 109.636,-58.3364 101.394,-44.3242"/>
<polygon fill="black" stroke="black" points="104.366,-42.4733 96.2786,-35.6286 98.3321,-46.0225 104.366,-42.4733"/>
<text text-anchor="middle" x="142.497" y="-57.8" font-family="Times,serif" font-size="14.00">Gen 22:22</text>
</g>
<!-- terahs_nahor -->
<g id="node3" class="node"><title>terahs_nahor</title>
<g id="a_node3"><a xlink:href="terahs_nahor.html" xlink:title="Nahor" target="_top">
<ellipse fill="none" stroke="blue" cx="32.4971" cy="-105" rx="32.4942" ry="18"/>
<text text-anchor="middle" x="32.4971" y="-101.3" font-family="Times,serif" font-size="14.00">Nahor</text>
</a>
</g>
</g>
<!-- terahs_nahor&#45;&gt;milcah -->
<g id="edge3" class="edge"><title>terahs_nahor&#45;&gt;milcah</title>
<path fill="none" stroke="red" d="M64.9971,-105C76.6345,-105 88.2719,-105 99.9092,-105"/>
</g>
<!-- terahs_nahor&#45;&gt;pildash -->
<g id="edge2" class="edge"><title>terahs_nahor&#45;&gt;pildash</title>
<path fill="none" stroke="black" d="M35.2339,-86.8155C37.4153,-76.6861 41.1848,-63.9479 47.4971,-54 50.6822,-48.9805 54.7822,-44.2431 59.1226,-39.9709"/>
<polygon fill="black" stroke="black" points="61.4761,-42.5615 66.535,-33.2525 56.775,-37.3749 61.4761,-42.5615"/>
<text text-anchor="middle" x="76.4971" y="-57.8" font-family="Times,serif" font-size="14.00">Gen 22:22</text>
</g>
</g>
</svg>
