<?xml version="1.0" encoding="UTF-8" standalone="no"?>
<!DOCTYPE svg PUBLIC "-//W3C//DTD SVG 1.1//EN"
 "http://www.w3.org/Graphics/SVG/1.1/DTD/svg11.dtd">
<!-- Generated by graphviz version 2.38.0 (20140413.2041)
 -->
<!-- Title: ancestry Pages: 1 -->
<svg width="162pt" height="218pt"
 viewBox="0.00 0.00 161.80 218.00" xmlns="http://www.w3.org/2000/svg" xmlns:xlink="http://www.w3.org/1999/xlink">
<g id="graph0" class="graph" transform="scale(1 1) rotate(0) translate(4 214)">
<title>ancestry</title>
<polygon fill="white" stroke="none" points="-4,4 -4,-214 157.797,-214 157.797,4 -4,4"/>
<!-- cush -->
<g id="node1" class="node"><title>cush</title>
<g id="a_node1"><a xlink:href="cush.html" xlink:title="Cush" target="_top">
<ellipse fill="none" stroke="blue" cx="75.797" cy="-192" rx="28.6953" ry="18"/>
<text text-anchor="middle" x="75.797" y="-188.3" font-family="Times,serif" font-size="14.00">Cush</text>
</a>
</g>
</g>
<!-- raamah -->
<g id="node3" class="node"><title>raamah</title>
<g id="a_node3"><a xlink:href="raamah.html" xlink:title="Raamah" target="_top">
<ellipse fill="lightblue" stroke="blue" stroke-width="2" cx="75.797" cy="-105" rx="40.0939" ry="18"/>
<text text-anchor="middle" x="75.797" y="-101.3" font-family="Times,serif" font-size="14.00">Raamah</text>
</a>
</g>
</g>
<!-- cush&#45;&gt;raamah -->
<g id="edge1" class="edge"><title>cush&#45;&gt;raamah</title>
<path fill="none" stroke="black" d="M75.797,-173.799C75.797,-162.163 75.797,-146.548 75.797,-133.237"/>
<polygon fill="black" stroke="black" points="79.2971,-133.175 75.797,-123.175 72.2971,-133.175 79.2971,-133.175"/>
<text text-anchor="middle" x="101.297" y="-144.8" font-family="Times,serif" font-size="14.00">Gen 10:7</text>
</g>
<!-- dedan -->
<g id="node2" class="node"><title>dedan</title>
<g id="a_node2"><a xlink:href="dedan.html" xlink:title="Dedan" target="_top">
<ellipse fill="none" stroke="blue" cx="33.797" cy="-18" rx="33.5952" ry="18"/>
<text text-anchor="middle" x="33.797" y="-14.3" font-family="Times,serif" font-size="14.00">Dedan</text>
</a>
</g>
</g>
<!-- raamah&#45;&gt;dedan -->
<g id="edge2" class="edge"><title>raamah&#45;&gt;dedan</title>
<path fill="none" stroke="black" d="M59.0702,-88.5621C53.7931,-82.8804 48.4046,-76.0897 44.797,-69 41.2498,-62.0291 38.8415,-53.9424 37.2082,-46.3309"/>
<polygon fill="black" stroke="black" points="40.6368,-45.6209 35.4273,-36.3953 33.7466,-46.856 40.6368,-45.6209"/>
<text text-anchor="middle" x="70.297" y="-57.8" font-family="Times,serif" font-size="14.00">Gen 10:7</text>
</g>
<!-- raamahs_sheba -->
<g id="node4" class="node"><title>raamahs_sheba</title>
<g id="a_node4"><a xlink:href="raamahs_sheba.html" xlink:title="Sheba" target="_top">
<ellipse fill="none" stroke="blue" cx="117.797" cy="-18" rx="32.4942" ry="18"/>
<text text-anchor="middle" x="117.797" y="-14.3" font-family="Times,serif" font-size="14.00">Sheba</text>
</a>
</g>
</g>
<!-- raamah&#45;&gt;raamahs_sheba -->
<g id="edge3" class="edge"><title>raamah&#45;&gt;raamahs_sheba</title>
<path fill="none" stroke="black" d="M85.7209,-87.4593C89.0559,-81.6892 92.7103,-75.1247 95.797,-69 99.6384,-61.378 103.498,-52.9354 106.888,-45.1912"/>
<polygon fill="black" stroke="black" points="110.161,-46.4393 110.894,-35.8698 103.73,-43.675 110.161,-46.4393"/>
<text text-anchor="middle" x="128.297" y="-57.8" font-family="Times,serif" font-size="14.00">Gen 10:7</text>
</g>
</g>
</svg>
