<?xml version="1.0" encoding="UTF-8" standalone="no"?>
<!DOCTYPE svg PUBLIC "-//W3C//DTD SVG 1.1//EN"
 "http://www.w3.org/Graphics/SVG/1.1/DTD/svg11.dtd">
<!-- Generated by graphviz version 2.38.0 (20140413.2041)
 -->
<!-- Title: ancestry Pages: 1 -->
<svg width="198pt" height="233pt"
 viewBox="0.00 0.00 197.55 233.00" xmlns="http://www.w3.org/2000/svg" xmlns:xlink="http://www.w3.org/1999/xlink">
<g id="graph0" class="graph" transform="scale(1 1) rotate(0) translate(4 229)">
<title>ancestry</title>
<polygon fill="white" stroke="none" points="-4,4 -4,-229 193.547,-229 193.547,4 -4,4"/>
<!-- jacob -->
<g id="node1" class="node"><title>jacob</title>
<g id="a_node1"><a xlink:href="jacob.html" xlink:title="Jacob" target="_top">
<ellipse fill="none" stroke="blue" cx="30.5473" cy="-120" rx="30.5947" ry="18"/>
<text text-anchor="middle" x="30.5473" y="-116.3" font-family="Times,serif" font-size="14.00">Jacob</text>
</a>
</g>
</g>
<!-- joseph -->
<g id="node2" class="node"><title>joseph</title>
<g id="a_node2"><a xlink:href="joseph.html" xlink:title="Joseph" target="_top">
<ellipse fill="none" stroke="blue" cx="83.5473" cy="-18" rx="34.394" ry="18"/>
<text text-anchor="middle" x="83.5473" y="-14.3" font-family="Times,serif" font-size="14.00">Joseph</text>
</a>
</g>
</g>
<!-- jacob&#45;&gt;joseph -->
<g id="edge1" class="edge"><title>jacob&#45;&gt;joseph</title>
<path fill="none" stroke="black" d="M29.9009,-101.884C30.1191,-88.097 32.1492,-68.6632 40.5473,-54 43.8123,-48.2993 48.3926,-43.1505 53.355,-38.6646"/>
<polygon fill="black" stroke="black" points="55.7828,-41.2015 61.3331,-32.1769 51.3664,-35.7705 55.7828,-41.2015"/>
<text text-anchor="middle" x="69.5473" y="-72.8" font-family="Times,serif" font-size="14.00">1 Ch 2:2</text>
<text text-anchor="middle" x="69.5473" y="-57.8" font-family="Times,serif" font-size="14.00">Gen 30:23</text>
</g>
<!-- rachel -->
<g id="node4" class="node"><title>rachel</title>
<g id="a_node4"><a xlink:href="rachel.html" xlink:title="Rachel" target="_top">
<ellipse fill="lightpink" stroke="red" stroke-width="2" cx="131.547" cy="-120" rx="35.194" ry="18"/>
<text text-anchor="middle" x="131.547" y="-116.3" font-family="Times,serif" font-size="14.00">Rachel</text>
</a>
</g>
</g>
<!-- jacob&#45;&gt;rachel -->
<g id="edge4" class="edge"><title>jacob&#45;&gt;rachel</title>
<path fill="none" stroke="red" d="M61.3207,-120C73.0252,-120 84.7296,-120 96.434,-120"/>
</g>
<!-- laban -->
<g id="node3" class="node"><title>laban</title>
<g id="a_node3"><a xlink:href="laban.html" xlink:title="Laban" target="_top">
<ellipse fill="none" stroke="blue" cx="131.547" cy="-207" rx="32.4942" ry="18"/>
<text text-anchor="middle" x="131.547" y="-203.3" font-family="Times,serif" font-size="14.00">Laban</text>
</a>
</g>
</g>
<!-- laban&#45;&gt;rachel -->
<g id="edge2" class="edge"><title>laban&#45;&gt;rachel</title>
<path fill="none" stroke="black" d="M131.547,-188.799C131.547,-177.163 131.547,-161.548 131.547,-148.237"/>
<polygon fill="black" stroke="black" points="135.047,-148.175 131.547,-138.175 128.047,-148.175 135.047,-148.175"/>
<text text-anchor="middle" x="160.547" y="-159.8" font-family="Times,serif" font-size="14.00">Gen 29:16</text>
</g>
<!-- rachel&#45;&gt;joseph -->
<g id="edge3" class="edge"><title>rachel&#45;&gt;joseph</title>
<path fill="none" stroke="black" d="M124.509,-102.271C118.842,-89.0445 110.532,-70.1778 102.547,-54 101.048,-50.962 99.4263,-47.8048 97.7843,-44.6852"/>
<polygon fill="black" stroke="black" points="100.716,-42.7474 92.8989,-35.5964 94.5507,-46.0617 100.716,-42.7474"/>
<text text-anchor="middle" x="144.547" y="-65.3" font-family="Times,serif" font-size="14.00">Gen 30:23</text>
</g>
</g>
</svg>
