<?xml version="1.0" encoding="UTF-8" standalone="no"?>
<!DOCTYPE svg PUBLIC "-//W3C//DTD SVG 1.1//EN"
 "http://www.w3.org/Graphics/SVG/1.1/DTD/svg11.dtd">
<!-- Generated by graphviz version 2.38.0 (20140413.2041)
 -->
<!-- Title: ancestry Pages: 1 -->
<svg width="118pt" height="248pt"
 viewBox="0.00 0.00 118.49 248.00" xmlns="http://www.w3.org/2000/svg" xmlns:xlink="http://www.w3.org/1999/xlink">
<g id="graph0" class="graph" transform="scale(1 1) rotate(0) translate(4 244)">
<title>ancestry</title>
<polygon fill="white" stroke="none" points="-4,4 -4,-244 114.49,-244 114.49,4 -4,4"/>
<!-- amminadab -->
<g id="node1" class="node"><title>amminadab</title>
<g id="a_node1"><a xlink:href="amminadab.html" xlink:title="Amminadab" target="_top">
<ellipse fill="none" stroke="blue" cx="55.2451" cy="-18" rx="55.4913" ry="18"/>
<text text-anchor="middle" x="55.2451" y="-14.3" font-family="Times,serif" font-size="14.00">Amminadab</text>
</a>
</g>
</g>
<!-- perezs_hezron -->
<g id="node2" class="node"><title>perezs_hezron</title>
<g id="a_node2"><a xlink:href="perezs_hezron.html" xlink:title="Hezron" target="_top">
<ellipse fill="none" stroke="blue" cx="55.2451" cy="-222" rx="36.2938" ry="18"/>
<text text-anchor="middle" x="55.2451" y="-218.3" font-family="Times,serif" font-size="14.00">Hezron</text>
</a>
</g>
</g>
<!-- ram -->
<g id="node3" class="node"><title>ram</title>
<g id="a_node3"><a xlink:href="ram.html" xlink:title="Ram" target="_top">
<ellipse fill="lightblue" stroke="blue" stroke-width="2" cx="55.2451" cy="-120" rx="27.8951" ry="18"/>
<text text-anchor="middle" x="55.2451" y="-116.3" font-family="Times,serif" font-size="14.00">Ram</text>
</a>
</g>
</g>
<!-- perezs_hezron&#45;&gt;ram -->
<g id="edge1" class="edge"><title>perezs_hezron&#45;&gt;ram</title>
<path fill="none" stroke="black" d="M55.2451,-203.581C55.2451,-188.382 55.2451,-166.067 55.2451,-148.464"/>
<polygon fill="black" stroke="black" points="58.7452,-148.219 55.2451,-138.219 51.7452,-148.219 58.7452,-148.219"/>
<text text-anchor="middle" x="79.2451" y="-174.8" font-family="Times,serif" font-size="14.00">1 Ch 2:9</text>
<text text-anchor="middle" x="79.2451" y="-159.8" font-family="Times,serif" font-size="14.00">Mat 1:3</text>
</g>
<!-- ram&#45;&gt;amminadab -->
<g id="edge2" class="edge"><title>ram&#45;&gt;amminadab</title>
<path fill="none" stroke="black" d="M55.2451,-101.581C55.2451,-86.3816 55.2451,-64.0669 55.2451,-46.4644"/>
<polygon fill="black" stroke="black" points="58.7452,-46.219 55.2451,-36.2191 51.7452,-46.2191 58.7452,-46.219"/>
<text text-anchor="middle" x="82.7451" y="-72.8" font-family="Times,serif" font-size="14.00">1 Ch 2:10</text>
<text text-anchor="middle" x="82.7451" y="-57.8" font-family="Times,serif" font-size="14.00">Mat 1:4</text>
</g>
</g>
</svg>
