<?xml version="1.0" encoding="UTF-8" standalone="no"?>
<!DOCTYPE svg PUBLIC "-//W3C//DTD SVG 1.1//EN"
 "http://www.w3.org/Graphics/SVG/1.1/DTD/svg11.dtd">
<!-- Generated by graphviz version 2.38.0 (20140413.2041)
 -->
<!-- Title: ancestry Pages: 1 -->
<svg width="320pt" height="248pt"
 viewBox="0.00 0.00 319.95 248.00" xmlns="http://www.w3.org/2000/svg" xmlns:xlink="http://www.w3.org/1999/xlink">
<g id="graph0" class="graph" transform="scale(1 1) rotate(0) translate(4 244)">
<title>ancestry</title>
<polygon fill="white" stroke="none" points="-4,4 -4,-244 315.948,-244 315.948,4 -4,4"/>
<!-- bethuel -->
<g id="node1" class="node"><title>bethuel</title>
<g id="a_node1"><a xlink:href="bethuel.html" xlink:title="Bethuel" target="_top">
<ellipse fill="none" stroke="blue" cx="199.948" cy="-222" rx="38.1938" ry="18"/>
<text text-anchor="middle" x="199.948" y="-218.3" font-family="Times,serif" font-size="14.00">Bethuel</text>
</a>
</g>
</g>
<!-- rebekah -->
<g id="node5" class="node"><title>rebekah</title>
<g id="a_node5"><a xlink:href="rebekah.html" xlink:title="Rebekah" target="_top">
<ellipse fill="lightpink" stroke="red" stroke-width="2" cx="199.948" cy="-135" rx="41.6928" ry="18"/>
<text text-anchor="middle" x="199.948" y="-131.3" font-family="Times,serif" font-size="14.00">Rebekah</text>
</a>
</g>
</g>
<!-- bethuel&#45;&gt;rebekah -->
<g id="edge1" class="edge"><title>bethuel&#45;&gt;rebekah</title>
<path fill="none" stroke="black" d="M199.948,-203.799C199.948,-192.163 199.948,-176.548 199.948,-163.237"/>
<polygon fill="black" stroke="black" points="203.448,-163.175 199.948,-153.175 196.448,-163.175 203.448,-163.175"/>
<text text-anchor="middle" x="228.948" y="-174.8" font-family="Times,serif" font-size="14.00">Gen 22:23</text>
</g>
<!-- esau -->
<g id="node2" class="node"><title>esau</title>
<g id="a_node2"><a xlink:href="esau.html" xlink:title="Esau" target="_top">
<ellipse fill="none" stroke="blue" cx="27.9475" cy="-18" rx="27.8951" ry="18"/>
<text text-anchor="middle" x="27.9475" y="-14.3" font-family="Times,serif" font-size="14.00">Esau</text>
</a>
</g>
</g>
<!-- isaac -->
<g id="node3" class="node"><title>isaac</title>
<g id="a_node3"><a xlink:href="isaac.html" xlink:title="Isaac" target="_top">
<ellipse fill="none" stroke="blue" cx="93.9475" cy="-135" rx="28.6953" ry="18"/>
<text text-anchor="middle" x="93.9475" y="-131.3" font-family="Times,serif" font-size="14.00">Isaac</text>
</a>
</g>
</g>
<!-- isaac&#45;&gt;esau -->
<g id="edge2" class="edge"><title>isaac&#45;&gt;esau</title>
<path fill="none" stroke="black" d="M67.6571,-127.514C52.927,-122.389 35.7876,-113.592 26.9475,-99 17.4421,-83.3102 18.0105,-62.517 20.7885,-46.0618"/>
<polygon fill="black" stroke="black" points="24.2772,-46.4704 22.8494,-35.9722 17.4188,-45.0694 24.2772,-46.4704"/>
<text text-anchor="middle" x="55.9475" y="-72.8" font-family="Times,serif" font-size="14.00">Gen 25:25</text>
</g>
<!-- jacob -->
<g id="node4" class="node"><title>jacob</title>
<g id="a_node4"><a xlink:href="jacob.html" xlink:title="Jacob" target="_top">
<ellipse fill="none" stroke="blue" cx="187.948" cy="-18" rx="30.5947" ry="18"/>
<text text-anchor="middle" x="187.948" y="-14.3" font-family="Times,serif" font-size="14.00">Jacob</text>
</a>
</g>
</g>
<!-- isaac&#45;&gt;jacob -->
<g id="edge3" class="edge"><title>isaac&#45;&gt;jacob</title>
<path fill="none" stroke="black" d="M92.5171,-116.828C91.9795,-99.2279 93.838,-71.9632 107.948,-54 118.241,-40.8951 134.444,-32.5914 149.584,-27.3818"/>
<polygon fill="black" stroke="black" points="150.782,-30.6754 159.307,-24.3858 148.72,-23.9858 150.782,-30.6754"/>
<text text-anchor="middle" x="136.948" y="-87.8" font-family="Times,serif" font-size="14.00">Gen 25:26</text>
<text text-anchor="middle" x="136.948" y="-72.8" font-family="Times,serif" font-size="14.00">Luk 3:34</text>
<text text-anchor="middle" x="136.948" y="-57.8" font-family="Times,serif" font-size="14.00">Mat 1:2</text>
</g>
<!-- isaac&#45;&gt;rebekah -->
<g id="edge6" class="edge"><title>isaac&#45;&gt;rebekah</title>
<path fill="none" stroke="red" d="M122.932,-135C134.665,-135 146.398,-135 158.13,-135"/>
</g>
<!-- rebekah&#45;&gt;esau -->
<g id="edge4" class="edge"><title>rebekah&#45;&gt;esau</title>
<path fill="none" stroke="black" d="M192.605,-116.918C190.162,-111.222 187.432,-104.84 184.948,-99 176.449,-79.0228 182.414,-68.1483 165.948,-54 138.194,-30.1527 96.3883,-22.1821 66.0653,-19.7005"/>
<polygon fill="black" stroke="black" points="66.0671,-16.1932 55.8604,-19.0346 65.6112,-23.1784 66.0671,-16.1932"/>
<text text-anchor="middle" x="213.948" y="-72.8" font-family="Times,serif" font-size="14.00">Gen 25:25</text>
</g>
<!-- rebekah&#45;&gt;jacob -->
<g id="edge5" class="edge"><title>rebekah&#45;&gt;jacob</title>
<path fill="none" stroke="black" d="M226.445,-120.642C234.537,-115.127 242.474,-107.91 246.948,-99 255.922,-81.1267 256.845,-71.3793 246.948,-54 241.543,-44.5103 232.441,-37.3283 222.983,-32.0184"/>
<polygon fill="black" stroke="black" points="224.425,-28.8265 213.915,-27.4869 221.296,-35.0881 224.425,-28.8265"/>
<text text-anchor="middle" x="282.948" y="-72.8" font-family="Times,serif" font-size="14.00">Gen 25:26</text>
</g>
</g>
</svg>
