<?xml version="1.0" encoding="UTF-8" standalone="no"?>
<!DOCTYPE svg PUBLIC "-//W3C//DTD SVG 1.1//EN"
 "http://www.w3.org/Graphics/SVG/1.1/DTD/svg11.dtd">
<!-- Generated by graphviz version 2.38.0 (20140413.2041)
 -->
<!-- Title: ancestry Pages: 1 -->
<svg width="107pt" height="218pt"
 viewBox="0.00 0.00 106.79 218.00" xmlns="http://www.w3.org/2000/svg" xmlns:xlink="http://www.w3.org/1999/xlink">
<g id="graph0" class="graph" transform="scale(1 1) rotate(0) translate(4 214)">
<title>ancestry</title>
<polygon fill="white" stroke="none" points="-4,4 -4,-214 102.791,-214 102.791,4 -4,4"/>
<!-- abijah -->
<g id="node1" class="node"><title>abijah</title>
<g id="a_node1"><a xlink:href="abijah.html" xlink:title="Abijah" target="_top">
<ellipse fill="none" stroke="blue" cx="49.3956" cy="-18" rx="34.394" ry="18"/>
<text text-anchor="middle" x="49.3956" y="-14.3" font-family="Times,serif" font-size="14.00">Abijah</text>
</a>
</g>
</g>
<!-- rehoboam -->
<g id="node2" class="node"><title>rehoboam</title>
<g id="a_node2"><a xlink:href="rehoboam.html" xlink:title="Rehoboam" target="_top">
<ellipse fill="lightblue" stroke="blue" stroke-width="2" cx="49.3956" cy="-105" rx="49.2915" ry="18"/>
<text text-anchor="middle" x="49.3956" y="-101.3" font-family="Times,serif" font-size="14.00">Rehoboam</text>
</a>
</g>
</g>
<!-- rehoboam&#45;&gt;abijah -->
<g id="edge1" class="edge"><title>rehoboam&#45;&gt;abijah</title>
<path fill="none" stroke="black" d="M49.3956,-86.799C49.3956,-75.1626 49.3956,-59.5479 49.3956,-46.2368"/>
<polygon fill="black" stroke="black" points="52.8957,-46.1754 49.3956,-36.1754 45.8957,-46.1755 52.8957,-46.1754"/>
<text text-anchor="middle" x="71.3956" y="-57.8" font-family="Times,serif" font-size="14.00">Mat 1:7</text>
</g>
<!-- solomon -->
<g id="node3" class="node"><title>solomon</title>
<g id="a_node3"><a xlink:href="solomon.html" xlink:title="Solomon" target="_top">
<ellipse fill="none" stroke="blue" cx="49.3956" cy="-192" rx="42.7926" ry="18"/>
<text text-anchor="middle" x="49.3956" y="-188.3" font-family="Times,serif" font-size="14.00">Solomon</text>
</a>
</g>
</g>
<!-- solomon&#45;&gt;rehoboam -->
<g id="edge2" class="edge"><title>solomon&#45;&gt;rehoboam</title>
<path fill="none" stroke="black" d="M49.3956,-173.799C49.3956,-162.163 49.3956,-146.548 49.3956,-133.237"/>
<polygon fill="black" stroke="black" points="52.8957,-133.175 49.3956,-123.175 45.8957,-133.175 52.8957,-133.175"/>
<text text-anchor="middle" x="71.3956" y="-144.8" font-family="Times,serif" font-size="14.00">Mat 1:7</text>
</g>
</g>
</svg>
