<?xml version="1.0" encoding="UTF-8" standalone="no"?>
<!DOCTYPE svg PUBLIC "-//W3C//DTD SVG 1.1//EN"
 "http://www.w3.org/Graphics/SVG/1.1/DTD/svg11.dtd">
<!-- Generated by graphviz version 2.38.0 (20140413.2041)
 -->
<!-- Title: ancestry Pages: 1 -->
<svg width="108pt" height="218pt"
 viewBox="0.00 0.00 107.85 218.00" xmlns="http://www.w3.org/2000/svg" xmlns:xlink="http://www.w3.org/1999/xlink">
<g id="graph0" class="graph" transform="scale(1 1) rotate(0) translate(4 214)">
<title>ancestry</title>
<polygon fill="white" stroke="none" points="-4,4 -4,-214 103.846,-214 103.846,4 -4,4"/>
<!-- maon -->
<g id="node1" class="node"><title>maon</title>
<g id="a_node1"><a xlink:href="maon.html" xlink:title="Maon" target="_top">
<ellipse fill="none" stroke="blue" cx="44.846" cy="-18" rx="31.6951" ry="18"/>
<text text-anchor="middle" x="44.846" y="-14.3" font-family="Times,serif" font-size="14.00">Maon</text>
</a>
</g>
</g>
<!-- rekem -->
<g id="node2" class="node"><title>rekem</title>
<g id="a_node2"><a xlink:href="rekem.html" xlink:title="Rekem" target="_top">
<ellipse fill="none" stroke="blue" cx="44.846" cy="-192" rx="36.2938" ry="18"/>
<text text-anchor="middle" x="44.846" y="-188.3" font-family="Times,serif" font-size="14.00">Rekem</text>
</a>
</g>
</g>
<!-- rekems_shammai -->
<g id="node3" class="node"><title>rekems_shammai</title>
<g id="a_node3"><a xlink:href="rekems_shammai.html" xlink:title="Shammai" target="_top">
<ellipse fill="lightblue" stroke="blue" stroke-width="2" cx="44.846" cy="-105" rx="44.6926" ry="18"/>
<text text-anchor="middle" x="44.846" y="-101.3" font-family="Times,serif" font-size="14.00">Shammai</text>
</a>
</g>
</g>
<!-- rekem&#45;&gt;rekems_shammai -->
<g id="edge1" class="edge"><title>rekem&#45;&gt;rekems_shammai</title>
<path fill="none" stroke="black" d="M44.846,-173.799C44.846,-162.163 44.846,-146.548 44.846,-133.237"/>
<polygon fill="black" stroke="black" points="48.3461,-133.175 44.846,-123.175 41.3461,-133.175 48.3461,-133.175"/>
<text text-anchor="middle" x="72.346" y="-144.8" font-family="Times,serif" font-size="14.00">1 Ch 2:44</text>
</g>
<!-- rekems_shammai&#45;&gt;maon -->
<g id="edge2" class="edge"><title>rekems_shammai&#45;&gt;maon</title>
<path fill="none" stroke="black" d="M44.846,-86.799C44.846,-75.1626 44.846,-59.5479 44.846,-46.2368"/>
<polygon fill="black" stroke="black" points="48.3461,-46.1754 44.846,-36.1754 41.3461,-46.1755 48.3461,-46.1754"/>
<text text-anchor="middle" x="72.346" y="-57.8" font-family="Times,serif" font-size="14.00">1 Ch 2:45</text>
</g>
</g>
</svg>
