<?xml version="1.0" encoding="UTF-8" standalone="no"?>
<!DOCTYPE svg PUBLIC "-//W3C//DTD SVG 1.1//EN"
 "http://www.w3.org/Graphics/SVG/1.1/DTD/svg11.dtd">
<!-- Generated by graphviz version 2.38.0 (20140413.2041)
 -->
<!-- Title: ancestry Pages: 1 -->
<svg width="97pt" height="248pt"
 viewBox="0.00 0.00 97.20 248.00" xmlns="http://www.w3.org/2000/svg" xmlns:xlink="http://www.w3.org/1999/xlink">
<g id="graph0" class="graph" transform="scale(1 1) rotate(0) translate(4 244)">
<title>ancestry</title>
<polygon fill="white" stroke="none" points="-4,4 -4,-244 93.1972,-244 93.1972,4 -4,4"/>
<!-- peleg -->
<g id="node1" class="node"><title>peleg</title>
<g id="a_node1"><a xlink:href="peleg.html" xlink:title="Peleg" target="_top">
<ellipse fill="none" stroke="blue" cx="31.1972" cy="-222" rx="30.5947" ry="18"/>
<text text-anchor="middle" x="31.1972" y="-218.3" font-family="Times,serif" font-size="14.00">Peleg</text>
</a>
</g>
</g>
<!-- reu -->
<g id="node2" class="node"><title>reu</title>
<g id="a_node2"><a xlink:href="reu.html" xlink:title="Reu" target="_top">
<ellipse fill="lightblue" stroke="blue" stroke-width="2" cx="31.1972" cy="-120" rx="27" ry="18"/>
<text text-anchor="middle" x="31.1972" y="-116.3" font-family="Times,serif" font-size="14.00">Reu</text>
</a>
</g>
</g>
<!-- peleg&#45;&gt;reu -->
<g id="edge1" class="edge"><title>peleg&#45;&gt;reu</title>
<path fill="none" stroke="black" d="M31.1972,-203.581C31.1972,-188.382 31.1972,-166.067 31.1972,-148.464"/>
<polygon fill="black" stroke="black" points="34.6973,-148.219 31.1972,-138.219 27.6973,-148.219 34.6973,-148.219"/>
<text text-anchor="middle" x="60.1972" y="-174.8" font-family="Times,serif" font-size="14.00">Gen 11:17</text>
<text text-anchor="middle" x="60.1972" y="-159.8" font-family="Times,serif" font-size="14.00">Luk 3:35</text>
</g>
<!-- serug -->
<g id="node3" class="node"><title>serug</title>
<g id="a_node3"><a xlink:href="serug.html" xlink:title="Serug" target="_top">
<ellipse fill="none" stroke="blue" cx="31.1972" cy="-18" rx="31.3957" ry="18"/>
<text text-anchor="middle" x="31.1972" y="-14.3" font-family="Times,serif" font-size="14.00">Serug</text>
</a>
</g>
</g>
<!-- reu&#45;&gt;serug -->
<g id="edge2" class="edge"><title>reu&#45;&gt;serug</title>
<path fill="none" stroke="black" d="M31.1972,-101.581C31.1972,-86.3816 31.1972,-64.0669 31.1972,-46.4644"/>
<polygon fill="black" stroke="black" points="34.6973,-46.219 31.1972,-36.2191 27.6973,-46.2191 34.6973,-46.219"/>
<text text-anchor="middle" x="60.1972" y="-72.8" font-family="Times,serif" font-size="14.00">Gen 11:20</text>
<text text-anchor="middle" x="60.1972" y="-57.8" font-family="Times,serif" font-size="14.00">Luk 3:35</text>
</g>
</g>
</svg>
