<?xml version="1.0" encoding="UTF-8" standalone="no"?>
<!DOCTYPE svg PUBLIC "-//W3C//DTD SVG 1.1//EN"
 "http://www.w3.org/Graphics/SVG/1.1/DTD/svg11.dtd">
<!-- Generated by graphviz version 2.38.0 (20140413.2041)
 -->
<!-- Title: ancestry Pages: 1 -->
<svg width="335pt" height="233pt"
 viewBox="0.00 0.00 335.49 233.00" xmlns="http://www.w3.org/2000/svg" xmlns:xlink="http://www.w3.org/1999/xlink">
<g id="graph0" class="graph" transform="scale(1 1) rotate(0) translate(4 229)">
<title>ancestry</title>
<polygon fill="white" stroke="none" points="-4,4 -4,-229 331.494,-229 331.494,4 -4,4"/>
<!-- carmi -->
<g id="node1" class="node"><title>carmi</title>
<g id="a_node1"><a xlink:href="carmi.html" xlink:title="Carmi" target="_top">
<ellipse fill="none" stroke="blue" cx="33.1471" cy="-18" rx="33.2948" ry="18"/>
<text text-anchor="middle" x="33.1471" y="-14.3" font-family="Times,serif" font-size="14.00">Carmi</text>
</a>
</g>
</g>
<!-- hezron -->
<g id="node2" class="node"><title>hezron</title>
<g id="a_node2"><a xlink:href="hezron.html" xlink:title="Hezron" target="_top">
<ellipse fill="none" stroke="blue" cx="121.147" cy="-18" rx="36.2938" ry="18"/>
<text text-anchor="middle" x="121.147" y="-14.3" font-family="Times,serif" font-size="14.00">Hezron</text>
</a>
</g>
</g>
<!-- jacob -->
<g id="node3" class="node"><title>jacob</title>
<g id="a_node3"><a xlink:href="jacob.html" xlink:title="Jacob" target="_top">
<ellipse fill="none" stroke="blue" cx="119.147" cy="-207" rx="30.5947" ry="18"/>
<text text-anchor="middle" x="119.147" y="-203.3" font-family="Times,serif" font-size="14.00">Jacob</text>
</a>
</g>
</g>
<!-- leah -->
<g id="node4" class="node"><title>leah</title>
<g id="a_node4"><a xlink:href="leah.html" xlink:title="Leah" target="_top">
<ellipse fill="none" stroke="red" cx="214.147" cy="-207" rx="28.6953" ry="18"/>
<text text-anchor="middle" x="214.147" y="-203.3" font-family="Times,serif" font-size="14.00">Leah</text>
</a>
</g>
</g>
<!-- jacob&#45;&gt;leah -->
<g id="edge7" class="edge"><title>jacob&#45;&gt;leah</title>
<path fill="none" stroke="red" d="M149.948,-207C161.734,-207 173.521,-207 185.308,-207"/>
</g>
<!-- reuben -->
<g id="node6" class="node"><title>reuben</title>
<g id="a_node6"><a xlink:href="reuben.html" xlink:title="Reuben" target="_top">
<ellipse fill="lightblue" stroke="blue" stroke-width="2" cx="162.147" cy="-105" rx="37.8943" ry="18"/>
<text text-anchor="middle" x="162.147" y="-101.3" font-family="Times,serif" font-size="14.00">Reuben</text>
</a>
</g>
</g>
<!-- jacob&#45;&gt;reuben -->
<g id="edge1" class="edge"><title>jacob&#45;&gt;reuben</title>
<path fill="none" stroke="black" d="M119.417,-188.906C120.235,-175.307 122.766,-156.119 130.147,-141 132.193,-136.808 134.901,-132.757 137.878,-128.991"/>
<polygon fill="black" stroke="black" points="140.703,-131.078 144.67,-121.254 135.442,-126.46 140.703,-131.078"/>
<text text-anchor="middle" x="159.147" y="-159.8" font-family="Times,serif" font-size="14.00">1 Ch 2:1</text>
<text text-anchor="middle" x="159.147" y="-144.8" font-family="Times,serif" font-size="14.00">Gen 29:32</text>
</g>
<!-- leah&#45;&gt;reuben -->
<g id="edge2" class="edge"><title>leah&#45;&gt;reuben</title>
<path fill="none" stroke="black" d="M208.761,-189.165C204.143,-175.713 196.865,-156.595 188.147,-141 186.168,-137.459 183.878,-133.866 181.493,-130.399"/>
<polygon fill="black" stroke="black" points="184.205,-128.176 175.497,-122.14 178.54,-132.289 184.205,-128.176"/>
<text text-anchor="middle" x="231.147" y="-152.3" font-family="Times,serif" font-size="14.00">Gen 29:32</text>
</g>
<!-- pallu -->
<g id="node5" class="node"><title>pallu</title>
<g id="a_node5"><a xlink:href="pallu.html" xlink:title="Pallu" target="_top">
<ellipse fill="none" stroke="blue" cx="204.147" cy="-18" rx="28.6953" ry="18"/>
<text text-anchor="middle" x="204.147" y="-14.3" font-family="Times,serif" font-size="14.00">Pallu</text>
</a>
</g>
</g>
<!-- reuben&#45;&gt;carmi -->
<g id="edge3" class="edge"><title>reuben&#45;&gt;carmi</title>
<path fill="none" stroke="black" d="M133.186,-93.2721C118.489,-87.1935 100.714,-78.8364 86.1471,-69 74.6807,-61.2573 63.3377,-51.0037 54.1057,-41.7981"/>
<polygon fill="black" stroke="black" points="56.3753,-39.112 46.8909,-34.39 51.3605,-43.9959 56.3753,-39.112"/>
<text text-anchor="middle" x="107.647" y="-57.8" font-family="Times,serif" font-size="14.00">Ex 6:14</text>
</g>
<!-- reuben&#45;&gt;hezron -->
<g id="edge4" class="edge"><title>reuben&#45;&gt;hezron</title>
<path fill="none" stroke="black" d="M150.318,-87.7441C146.45,-81.9968 142.333,-75.3739 139.147,-69 135.476,-61.6551 132.182,-53.374 129.447,-45.6953"/>
<polygon fill="black" stroke="black" points="132.712,-44.4251 126.188,-36.0774 126.082,-46.6718 132.712,-44.4251"/>
<text text-anchor="middle" x="160.647" y="-57.8" font-family="Times,serif" font-size="14.00">Ex 6:14</text>
</g>
<!-- reuben&#45;&gt;pallu -->
<g id="edge5" class="edge"><title>reuben&#45;&gt;pallu</title>
<path fill="none" stroke="black" d="M172.071,-87.4593C175.406,-81.6892 179.06,-75.1247 182.147,-69 185.988,-61.378 189.848,-52.9354 193.238,-45.1912"/>
<polygon fill="black" stroke="black" points="196.511,-46.4393 197.245,-35.8698 190.08,-43.675 196.511,-46.4393"/>
<text text-anchor="middle" x="211.647" y="-57.8" font-family="Times,serif" font-size="14.00">Ex 6:14</text>
</g>
<!-- reubens_hanoch -->
<g id="node7" class="node"><title>reubens_hanoch</title>
<g id="a_node7"><a xlink:href="reubens_hanoch.html" xlink:title="Hanoch" target="_top">
<ellipse fill="none" stroke="blue" cx="289.147" cy="-18" rx="38.1938" ry="18"/>
<text text-anchor="middle" x="289.147" y="-14.3" font-family="Times,serif" font-size="14.00">Hanoch</text>
</a>
</g>
</g>
<!-- reuben&#45;&gt;reubens_hanoch -->
<g id="edge6" class="edge"><title>reuben&#45;&gt;reubens_hanoch</title>
<path fill="none" stroke="black" d="M190.759,-93.2705C205.27,-87.1914 222.809,-78.8344 237.147,-69 248.282,-61.3624 259.261,-51.2898 268.24,-42.1878"/>
<polygon fill="black" stroke="black" points="270.883,-44.4882 275.272,-34.8451 265.828,-39.6465 270.883,-44.4882"/>
<text text-anchor="middle" x="277.647" y="-57.8" font-family="Times,serif" font-size="14.00">Ex 6:14</text>
</g>
</g>
</svg>
