<?xml version="1.0" encoding="UTF-8" standalone="no"?>
<!DOCTYPE svg PUBLIC "-//W3C//DTD SVG 1.1//EN"
 "http://www.w3.org/Graphics/SVG/1.1/DTD/svg11.dtd">
<!-- Generated by graphviz version 2.38.0 (20140413.2041)
 -->
<!-- Title: ancestry Pages: 1 -->
<svg width="94pt" height="218pt"
 viewBox="0.00 0.00 93.90 218.00" xmlns="http://www.w3.org/2000/svg" xmlns:xlink="http://www.w3.org/1999/xlink">
<g id="graph0" class="graph" transform="scale(1 1) rotate(0) translate(4 214)">
<title>ancestry</title>
<polygon fill="white" stroke="none" points="-4,4 -4,-214 89.8962,-214 89.8962,4 -4,4"/>
<!-- midian -->
<g id="node1" class="node"><title>midian</title>
<g id="a_node1"><a xlink:href="midian.html" xlink:title="Midian" target="_top">
<ellipse fill="none" stroke="blue" cx="42.8962" cy="-192" rx="36.2938" ry="18"/>
<text text-anchor="middle" x="42.8962" y="-188.3" font-family="Times,serif" font-size="14.00">Midian</text>
</a>
</g>
</g>
<!-- reuel -->
<g id="node2" class="node"><title>reuel</title>
<g id="a_node2"><a xlink:href="reuel.html" xlink:title="Reuel" target="_top">
<ellipse fill="lightgrey" stroke="black" stroke-width="2" cx="42.8962" cy="-105" rx="31.3957" ry="18"/>
<text text-anchor="middle" x="42.8962" y="-101.3" font-family="Times,serif" font-size="14.00">Reuel</text>
</a>
</g>
</g>
<!-- midian&#45;&gt;reuel -->
<g id="edge1" class="edge"><title>midian&#45;&gt;reuel</title>
<path fill="none" stroke="black" stroke-dasharray="1,5" d="M42.8962,-173.799C42.8962,-162.163 42.8962,-146.548 42.8962,-133.237"/>
<polygon fill="black" stroke="black" points="46.3963,-133.175 42.8962,-123.175 39.3963,-133.175 46.3963,-133.175"/>
<text text-anchor="middle" x="64.3962" y="-144.8" font-family="Times,serif" font-size="14.00">Ex 2:16</text>
</g>
<!-- zipporah -->
<g id="node3" class="node"><title>zipporah</title>
<g id="a_node3"><a xlink:href="zipporah.html" xlink:title="Zipporah" target="_top">
<ellipse fill="none" stroke="red" cx="42.8962" cy="-18" rx="42.7926" ry="18"/>
<text text-anchor="middle" x="42.8962" y="-14.3" font-family="Times,serif" font-size="14.00">Zipporah</text>
</a>
</g>
</g>
<!-- reuel&#45;&gt;zipporah -->
<g id="edge2" class="edge"><title>reuel&#45;&gt;zipporah</title>
<path fill="none" stroke="black" stroke-dasharray="1,5" d="M42.8962,-86.799C42.8962,-75.1626 42.8962,-59.5479 42.8962,-46.2368"/>
<polygon fill="black" stroke="black" points="46.3963,-46.1754 42.8962,-36.1754 39.3963,-46.1755 46.3963,-46.1754"/>
<text text-anchor="middle" x="64.3962" y="-57.8" font-family="Times,serif" font-size="14.00">Ex 2:21</text>
</g>
</g>
</svg>
