<?xml version="1.0" encoding="UTF-8" standalone="no"?>
<!DOCTYPE svg PUBLIC "-//W3C//DTD SVG 1.1//EN"
 "http://www.w3.org/Graphics/SVG/1.1/DTD/svg11.dtd">
<!-- Generated by graphviz version 2.38.0 (20140413.2041)
 -->
<!-- Title: ancestry Pages: 1 -->
<svg width="624pt" height="131pt"
 viewBox="0.00 0.00 624.40 131.00" xmlns="http://www.w3.org/2000/svg" xmlns:xlink="http://www.w3.org/1999/xlink">
<g id="graph0" class="graph" transform="scale(1 1) rotate(0) translate(4 127)">
<title>ancestry</title>
<polygon fill="white" stroke="none" points="-4,4 -4,-127 620.397,-127 620.397,4 -4,4"/>
<!-- geham -->
<g id="node1" class="node"><title>geham</title>
<g id="a_node1"><a xlink:href="geham.html" xlink:title="Geham" target="_top">
<ellipse fill="none" stroke="blue" cx="36.3968" cy="-18" rx="36.2938" ry="18"/>
<text text-anchor="middle" x="36.3968" y="-14.3" font-family="Times,serif" font-size="14.00">Geham</text>
</a>
</g>
</g>
<!-- maachah -->
<g id="node2" class="node"><title>maachah</title>
<g id="a_node2"><a xlink:href="maachah.html" xlink:title="Maachah" target="_top">
<ellipse fill="none" stroke="blue" cx="159.397" cy="-18" rx="43.5923" ry="18"/>
<text text-anchor="middle" x="159.397" y="-14.3" font-family="Times,serif" font-size="14.00">Maachah</text>
</a>
</g>
</g>
<!-- reumah -->
<g id="node3" class="node"><title>reumah</title>
<g id="a_node3"><a xlink:href="reumah.html" xlink:title="Reumah" target="_top">
<ellipse fill="lightpink" stroke="red" stroke-width="2" cx="360.397" cy="-105" rx="40.0939" ry="18"/>
<text text-anchor="middle" x="360.397" y="-101.3" font-family="Times,serif" font-size="14.00">Reumah</text>
</a>
</g>
</g>
<!-- reumah&#45;&gt;geham -->
<g id="edge1" class="edge"><title>reumah&#45;&gt;geham</title>
<path fill="none" stroke="black" d="M326.749,-95.0474C316.112,-92.329 304.291,-89.423 293.397,-87 251.874,-77.7652 240.133,-81.2448 199.397,-69 182.797,-64.0104 179.784,-59.6471 163.397,-54 135.46,-44.3732 103.374,-35.5487 78.4428,-29.1686"/>
<polygon fill="black" stroke="black" points="79.1276,-25.7317 68.5748,-26.675 77.4126,-32.5184 79.1276,-25.7317"/>
<text text-anchor="middle" x="228.397" y="-57.8" font-family="Times,serif" font-size="14.00">Gen 22:24</text>
</g>
<!-- reumah&#45;&gt;maachah -->
<g id="edge2" class="edge"><title>reumah&#45;&gt;maachah</title>
<path fill="none" stroke="black" d="M352.719,-87.0621C346.814,-75.9611 337.596,-62.0615 325.397,-54 315.659,-47.5653 254.337,-35.6804 209.045,-27.5618"/>
<polygon fill="black" stroke="black" points="209.531,-24.0934 199.073,-25.7883 208.306,-30.9853 209.531,-24.0934"/>
<text text-anchor="middle" x="370.397" y="-57.8" font-family="Times,serif" font-size="14.00">Gen 22:24</text>
</g>
<!-- tebah -->
<g id="node4" class="node"><title>tebah</title>
<g id="a_node4"><a xlink:href="tebah.html" xlink:title="Tebah" target="_top">
<ellipse fill="none" stroke="blue" cx="301.397" cy="-18" rx="32.4942" ry="18"/>
<text text-anchor="middle" x="301.397" y="-14.3" font-family="Times,serif" font-size="14.00">Tebah</text>
</a>
</g>
</g>
<!-- reumah&#45;&gt;tebah -->
<g id="edge3" class="edge"><title>reumah&#45;&gt;tebah</title>
<path fill="none" stroke="black" d="M400.043,-101.591C446.368,-97.2946 513.567,-85.5536 487.397,-54 469.527,-32.4539 393.054,-24.0844 343.9,-20.896"/>
<polygon fill="black" stroke="black" points="344.048,-17.3987 333.856,-20.2914 343.628,-24.3861 344.048,-17.3987"/>
<text text-anchor="middle" x="522.397" y="-57.8" font-family="Times,serif" font-size="14.00">Gen 22:24</text>
</g>
<!-- thahash -->
<g id="node6" class="node"><title>thahash</title>
<g id="a_node6"><a xlink:href="thahash.html" xlink:title="Thahash" target="_top">
<ellipse fill="none" stroke="blue" cx="509.397" cy="-18" rx="40.0939" ry="18"/>
<text text-anchor="middle" x="509.397" y="-14.3" font-family="Times,serif" font-size="14.00">Thahash</text>
</a>
</g>
</g>
<!-- reumah&#45;&gt;thahash -->
<g id="edge4" class="edge"><title>reumah&#45;&gt;thahash</title>
<path fill="none" stroke="black" d="M400.371,-102.661C451.573,-100.008 536.032,-92.1503 555.397,-69 564.274,-58.387 555.358,-47.0019 543.09,-37.7806"/>
<polygon fill="black" stroke="black" points="544.933,-34.8011 534.698,-32.0633 540.992,-40.5862 544.933,-34.8011"/>
<text text-anchor="middle" x="587.397" y="-57.8" font-family="Times,serif" font-size="14.00">Gen 22:24</text>
</g>
<!-- terahs_nahor -->
<g id="node5" class="node"><title>terahs_nahor</title>
<g id="a_node5"><a xlink:href="terahs_nahor.html" xlink:title="Nahor" target="_top">
<ellipse fill="none" stroke="blue" cx="252.397" cy="-105" rx="32.4942" ry="18"/>
<text text-anchor="middle" x="252.397" y="-101.3" font-family="Times,serif" font-size="14.00">Nahor</text>
</a>
</g>
</g>
<!-- terahs_nahor&#45;&gt;geham -->
<g id="edge5" class="edge"><title>terahs_nahor&#45;&gt;geham</title>
<path fill="none" stroke="black" d="M219.641,-103.338C166.243,-101.516 64.0054,-94.6745 40.3968,-69 34.8431,-62.9604 32.8356,-54.5937 32.5163,-46.431"/>
<polygon fill="black" stroke="black" points="36.0156,-46.5096 32.8747,-36.391 29.0201,-46.2598 36.0156,-46.5096"/>
<text text-anchor="middle" x="69.3968" y="-57.8" font-family="Times,serif" font-size="14.00">Gen 22:24</text>
</g>
<!-- terahs_nahor&#45;&gt;maachah -->
<g id="edge6" class="edge"><title>terahs_nahor&#45;&gt;maachah</title>
<path fill="none" stroke="black" d="M220.495,-100.964C181.649,-96.531 119.462,-86.8077 105.397,-69 95.9963,-57.0985 106.924,-45.4839 121.349,-36.449"/>
<polygon fill="black" stroke="black" points="123.168,-39.4408 130.119,-31.4449 119.699,-33.3609 123.168,-39.4408"/>
<text text-anchor="middle" x="134.397" y="-57.8" font-family="Times,serif" font-size="14.00">Gen 22:24</text>
</g>
<!-- terahs_nahor&#45;&gt;reumah -->
<g id="edge9" class="edge"><title>terahs_nahor&#45;&gt;reumah</title>
<path fill="none" stroke="red" d="M285.303,-105C296.841,-105 308.379,-105 319.917,-105"/>
</g>
<!-- terahs_nahor&#45;&gt;tebah -->
<g id="edge7" class="edge"><title>terahs_nahor&#45;&gt;tebah</title>
<path fill="none" stroke="black" d="M255.384,-86.9683C257.654,-76.8932 261.429,-64.1582 267.397,-54 270.064,-49.46 273.44,-45.0613 277.024,-41.003"/>
<polygon fill="black" stroke="black" points="279.656,-43.3156 284.04,-33.6705 274.598,-38.4762 279.656,-43.3156"/>
<text text-anchor="middle" x="296.397" y="-57.8" font-family="Times,serif" font-size="14.00">Gen 22:24</text>
</g>
<!-- terahs_nahor&#45;&gt;thahash -->
<g id="edge8" class="edge"><title>terahs_nahor&#45;&gt;thahash</title>
<path fill="none" stroke="black" d="M280.176,-95.4551C289.991,-92.5799 301.138,-89.4765 311.397,-87 351.897,-77.2229 364.954,-85.064 403.397,-69 414.316,-64.4372 414.992,-59.6383 425.397,-54 439.278,-46.4776 455.123,-39.4945 469.283,-33.776"/>
<polygon fill="black" stroke="black" points="470.757,-36.957 478.771,-30.028 468.185,-30.4465 470.757,-36.957"/>
<text text-anchor="middle" x="454.397" y="-57.8" font-family="Times,serif" font-size="14.00">Gen 22:24</text>
</g>
</g>
</svg>
