<?xml version="1.0" encoding="UTF-8" standalone="no"?>
<!DOCTYPE svg PUBLIC "-//W3C//DTD SVG 1.1//EN"
 "http://www.w3.org/Graphics/SVG/1.1/DTD/svg11.dtd">
<!-- Generated by graphviz version 2.38.0 (20140413.2041)
 -->
<!-- Title: ancestry Pages: 1 -->
<svg width="109pt" height="218pt"
 viewBox="0.00 0.00 109.39 218.00" xmlns="http://www.w3.org/2000/svg" xmlns:xlink="http://www.w3.org/1999/xlink">
<g id="graph0" class="graph" transform="scale(1 1) rotate(0) translate(4 214)">
<title>ancestry</title>
<polygon fill="white" stroke="none" points="-4,4 -4,-214 105.391,-214 105.391,4 -4,4"/>
<!-- joanan -->
<g id="node1" class="node"><title>joanan</title>
<g id="a_node1"><a xlink:href="joanan.html" xlink:title="Joanan" target="_top">
<ellipse fill="none" stroke="blue" cx="50.6955" cy="-18" rx="35.194" ry="18"/>
<text text-anchor="middle" x="50.6955" y="-14.3" font-family="Times,serif" font-size="14.00">Joanan</text>
</a>
</g>
</g>
<!-- rhesa -->
<g id="node2" class="node"><title>rhesa</title>
<g id="a_node2"><a xlink:href="rhesa.html" xlink:title="Rhesa" target="_top">
<ellipse fill="lightblue" stroke="blue" stroke-width="2" cx="50.6955" cy="-105" rx="32.4942" ry="18"/>
<text text-anchor="middle" x="50.6955" y="-101.3" font-family="Times,serif" font-size="14.00">Rhesa</text>
</a>
</g>
</g>
<!-- rhesa&#45;&gt;joanan -->
<g id="edge1" class="edge"><title>rhesa&#45;&gt;joanan</title>
<path fill="none" stroke="black" d="M50.6955,-86.799C50.6955,-75.1626 50.6955,-59.5479 50.6955,-46.2368"/>
<polygon fill="black" stroke="black" points="54.1956,-46.1754 50.6955,-36.1754 47.1956,-46.1755 54.1956,-46.1754"/>
<text text-anchor="middle" x="75.6955" y="-57.8" font-family="Times,serif" font-size="14.00">Luk 3:27</text>
</g>
<!-- zerubbabel -->
<g id="node3" class="node"><title>zerubbabel</title>
<g id="a_node3"><a xlink:href="zerubbabel.html" xlink:title="Zerubbabel" target="_top">
<ellipse fill="none" stroke="blue" cx="50.6955" cy="-192" rx="50.8918" ry="18"/>
<text text-anchor="middle" x="50.6955" y="-188.3" font-family="Times,serif" font-size="14.00">Zerubbabel</text>
</a>
</g>
</g>
<!-- zerubbabel&#45;&gt;rhesa -->
<g id="edge2" class="edge"><title>zerubbabel&#45;&gt;rhesa</title>
<path fill="none" stroke="black" d="M50.6955,-173.799C50.6955,-162.163 50.6955,-146.548 50.6955,-133.237"/>
<polygon fill="black" stroke="black" points="54.1956,-133.175 50.6955,-123.175 47.1956,-133.175 54.1956,-133.175"/>
<text text-anchor="middle" x="75.6955" y="-144.8" font-family="Times,serif" font-size="14.00">Luk 3:27</text>
</g>
</g>
</svg>
