<?xml version="1.0" encoding="UTF-8" standalone="no"?>
<!DOCTYPE svg PUBLIC "-//W3C//DTD SVG 1.1//EN"
 "http://www.w3.org/Graphics/SVG/1.1/DTD/svg11.dtd">
<!-- Generated by graphviz version 2.38.0 (20140413.2041)
 -->
<!-- Title: ancestry Pages: 1 -->
<svg width="105pt" height="278pt"
 viewBox="0.00 0.00 105.25 278.00" xmlns="http://www.w3.org/2000/svg" xmlns:xlink="http://www.w3.org/1999/xlink">
<g id="graph0" class="graph" transform="scale(1 1) rotate(0) translate(4 274)">
<title>ancestry</title>
<polygon fill="white" stroke="none" points="-4,4 -4,-274 101.246,-274 101.246,4 -4,4"/>
<!-- boaz -->
<g id="node1" class="node"><title>boaz</title>
<g id="a_node1"><a xlink:href="boaz.html" xlink:title="Boaz" target="_top">
<ellipse fill="none" stroke="blue" cx="42.2463" cy="-18" rx="28.6953" ry="18"/>
<text text-anchor="middle" x="42.2463" y="-14.3" font-family="Times,serif" font-size="14.00">Boaz</text>
</a>
</g>
</g>
<!-- nahshon -->
<g id="node2" class="node"><title>nahshon</title>
<g id="a_node2"><a xlink:href="nahshon.html" xlink:title="Nahshon" target="_top">
<ellipse fill="none" stroke="blue" cx="42.2463" cy="-252" rx="42.4939" ry="18"/>
<text text-anchor="middle" x="42.2463" y="-248.3" font-family="Times,serif" font-size="14.00">Nahshon</text>
</a>
</g>
</g>
<!-- salmon -->
<g id="node3" class="node"><title>salmon</title>
<g id="a_node3"><a xlink:href="salmon.html" xlink:title="Salmon" target="_top">
<ellipse fill="lightblue" stroke="blue" stroke-width="2" cx="42.2463" cy="-135" rx="38.1938" ry="18"/>
<text text-anchor="middle" x="42.2463" y="-131.3" font-family="Times,serif" font-size="14.00">Salmon</text>
</a>
</g>
</g>
<!-- nahshon&#45;&gt;salmon -->
<g id="edge1" class="edge"><title>nahshon&#45;&gt;salmon</title>
<path fill="none" stroke="black" d="M42.2463,-233.534C42.2463,-214.936 42.2463,-185.244 42.2463,-163.501"/>
<polygon fill="black" stroke="black" points="45.7463,-163.254 42.2463,-153.254 38.7463,-163.254 45.7463,-163.254"/>
<text text-anchor="middle" x="69.7463" y="-204.8" font-family="Times,serif" font-size="14.00">1 Ch 2:11</text>
<text text-anchor="middle" x="69.7463" y="-189.8" font-family="Times,serif" font-size="14.00">Luk 3:32</text>
<text text-anchor="middle" x="69.7463" y="-174.8" font-family="Times,serif" font-size="14.00">Mat 1:4</text>
</g>
<!-- salmon&#45;&gt;boaz -->
<g id="edge2" class="edge"><title>salmon&#45;&gt;boaz</title>
<path fill="none" stroke="black" d="M42.2463,-116.534C42.2463,-97.9357 42.2463,-68.2442 42.2463,-46.5014"/>
<polygon fill="black" stroke="black" points="45.7463,-46.2536 42.2463,-36.2536 38.7463,-46.2536 45.7463,-46.2536"/>
<text text-anchor="middle" x="69.7463" y="-87.8" font-family="Times,serif" font-size="14.00">1 Ch 2:11</text>
<text text-anchor="middle" x="69.7463" y="-72.8" font-family="Times,serif" font-size="14.00">Luk 3:32</text>
<text text-anchor="middle" x="69.7463" y="-57.8" font-family="Times,serif" font-size="14.00">Mat 1:5</text>
</g>
</g>
</svg>
