<?xml version="1.0" encoding="UTF-8" standalone="no"?>
<!DOCTYPE svg PUBLIC "-//W3C//DTD SVG 1.1//EN"
 "http://www.w3.org/Graphics/SVG/1.1/DTD/svg11.dtd">
<!-- Generated by graphviz version 2.38.0 (20140413.2041)
 -->
<!-- Title: ancestry Pages: 1 -->
<svg width="376pt" height="263pt"
 viewBox="0.00 0.00 376.39 263.00" xmlns="http://www.w3.org/2000/svg" xmlns:xlink="http://www.w3.org/1999/xlink">
<g id="graph0" class="graph" transform="scale(1 1) rotate(0) translate(4 259)">
<title>ancestry</title>
<polygon fill="white" stroke="none" points="-4,4 -4,-259 372.385,-259 372.385,4 -4,4"/>
<!-- abram -->
<g id="node1" class="node"><title>abram</title>
<g id="a_node1"><a xlink:href="abram.html" xlink:title="Abraham (was Abram)" target="_top">
<ellipse fill="none" stroke="blue" cx="92.9418" cy="-135" rx="92.8835" ry="18"/>
<text text-anchor="middle" x="92.9418" y="-131.3" font-family="Times,serif" font-size="14.00">Abraham (was Abram)</text>
</a>
</g>
</g>
<!-- isaac -->
<g id="node2" class="node"><title>isaac</title>
<g id="a_node2"><a xlink:href="isaac.html" xlink:title="Isaac" target="_top">
<ellipse fill="none" stroke="blue" cx="209.942" cy="-18" rx="28.6953" ry="18"/>
<text text-anchor="middle" x="209.942" y="-14.3" font-family="Times,serif" font-size="14.00">Isaac</text>
</a>
</g>
</g>
<!-- abram&#45;&gt;isaac -->
<g id="edge1" class="edge"><title>abram&#45;&gt;isaac</title>
<path fill="none" stroke="black" d="M109.955,-117.278C130.567,-97.0176 165.338,-62.8409 187.963,-40.6031"/>
<polygon fill="black" stroke="black" points="190.454,-43.0626 195.132,-33.5566 185.547,-38.0704 190.454,-43.0626"/>
<text text-anchor="middle" x="198.442" y="-87.8" font-family="Times,serif" font-size="14.00">Gen 21:2</text>
<text text-anchor="middle" x="198.442" y="-72.8" font-family="Times,serif" font-size="14.00">Luk 3:34</text>
<text text-anchor="middle" x="198.442" y="-57.8" font-family="Times,serif" font-size="14.00">Mat 1:2</text>
</g>
<!-- sarai -->
<g id="node3" class="node"><title>sarai</title>
<g id="a_node3"><a xlink:href="sarai.html" xlink:title="Sarah (was Sarai)" target="_top">
<ellipse fill="lightpink" stroke="red" stroke-width="2" cx="294.942" cy="-135" rx="73.387" ry="18"/>
<text text-anchor="middle" x="294.942" y="-131.3" font-family="Times,serif" font-size="14.00">Sarah (was Sarai)</text>
</a>
</g>
</g>
<!-- abram&#45;&gt;sarai -->
<g id="edge5" class="edge"><title>abram&#45;&gt;sarai</title>
<path fill="none" stroke="red" d="M186.051,-135C197.819,-135 209.587,-135 221.356,-135"/>
</g>
<!-- sarai&#45;&gt;isaac -->
<g id="edge2" class="edge"><title>sarai&#45;&gt;isaac</title>
<path fill="none" stroke="black" d="M282.4,-117.031C267.886,-97.3954 243.889,-64.9287 227.52,-42.7817"/>
<polygon fill="black" stroke="black" points="230.202,-40.5231 221.444,-34.5617 224.573,-44.6839 230.202,-40.5231"/>
<text text-anchor="middle" x="292.442" y="-72.8" font-family="Times,serif" font-size="14.00">Gen 21:2</text>
</g>
<!-- terah -->
<g id="node4" class="node"><title>terah</title>
<g id="a_node4"><a xlink:href="terah.html" xlink:title="Terah" target="_top">
<ellipse fill="none" stroke="blue" cx="207.942" cy="-237" rx="31.3957" ry="18"/>
<text text-anchor="middle" x="207.942" y="-233.3" font-family="Times,serif" font-size="14.00">Terah</text>
</a>
</g>
</g>
<!-- terah&#45;&gt;abram -->
<g id="edge3" class="edge"><title>terah&#45;&gt;abram</title>
<path fill="none" stroke="black" d="M191.465,-221.672C172.769,-205.415 142,-178.659 119.817,-159.37"/>
<polygon fill="black" stroke="black" points="121.914,-156.555 112.071,-152.634 117.32,-161.837 121.914,-156.555"/>
<text text-anchor="middle" x="196.942" y="-189.8" font-family="Times,serif" font-size="14.00">Gen 11:27</text>
<text text-anchor="middle" x="196.942" y="-174.8" font-family="Times,serif" font-size="14.00">Luk 3:34</text>
</g>
<!-- terah&#45;&gt;sarai -->
<g id="edge4" class="edge"><title>terah&#45;&gt;sarai</title>
<path fill="none" stroke="black" d="M221.536,-220.375C235.502,-204.321 257.441,-179.104 273.701,-160.415"/>
<polygon fill="black" stroke="black" points="276.359,-162.692 280.282,-152.851 271.078,-158.098 276.359,-162.692"/>
<text text-anchor="middle" x="292.942" y="-182.3" font-family="Times,serif" font-size="14.00">Gen 20:12</text>
</g>
</g>
</svg>
