<?xml version="1.0" encoding="UTF-8" standalone="no"?>
<!DOCTYPE svg PUBLIC "-//W3C//DTD SVG 1.1//EN"
 "http://www.w3.org/Graphics/SVG/1.1/DTD/svg11.dtd">
<!-- Generated by graphviz version 2.38.0 (20140413.2041)
 -->
<!-- Title: ancestry Pages: 1 -->
<svg width="259pt" height="218pt"
 viewBox="0.00 0.00 258.89 218.00" xmlns="http://www.w3.org/2000/svg" xmlns:xlink="http://www.w3.org/1999/xlink">
<g id="graph0" class="graph" transform="scale(1 1) rotate(0) translate(4 214)">
<title>ancestry</title>
<polygon fill="white" stroke="none" points="-4,4 -4,-214 254.89,-214 254.89,4 -4,4"/>
<!-- jair -->
<g id="node1" class="node"><title>jair</title>
<g id="a_node1"><a xlink:href="jair.html" xlink:title="Jair" target="_top">
<ellipse fill="none" stroke="blue" cx="107.397" cy="-18" rx="27" ry="18"/>
<text text-anchor="middle" x="107.397" y="-14.3" font-family="Times,serif" font-size="14.00">Jair</text>
</a>
</g>
</g>
<!-- makirs_daughter -->
<g id="node2" class="node"><title>makirs_daughter</title>
<g id="a_node2"><a xlink:href="makirs_daughter.html" xlink:title="Makirs_daughter" target="_top">
<ellipse fill="none" stroke="red" cx="179.397" cy="-192" rx="71.4873" ry="18"/>
<text text-anchor="middle" x="179.397" y="-188.3" font-family="Times,serif" font-size="14.00">Makirs_daughter</text>
</a>
</g>
</g>
<!-- segub -->
<g id="node4" class="node"><title>segub</title>
<g id="a_node4"><a xlink:href="segub.html" xlink:title="Segub" target="_top">
<ellipse fill="lightblue" stroke="blue" stroke-width="2" cx="107.397" cy="-105" rx="32.4942" ry="18"/>
<text text-anchor="middle" x="107.397" y="-101.3" font-family="Times,serif" font-size="14.00">Segub</text>
</a>
</g>
</g>
<!-- makirs_daughter&#45;&gt;segub -->
<g id="edge1" class="edge"><title>makirs_daughter&#45;&gt;segub</title>
<path fill="none" stroke="black" d="M165.172,-174.207C154.346,-161.426 139.312,-143.678 127.294,-129.49"/>
<polygon fill="black" stroke="black" points="129.755,-126.98 120.621,-121.612 124.414,-131.505 129.755,-126.98"/>
<text text-anchor="middle" x="174.897" y="-144.8" font-family="Times,serif" font-size="14.00">1 Ch 2:21</text>
</g>
<!-- perezs_hezron -->
<g id="node3" class="node"><title>perezs_hezron</title>
<g id="a_node3"><a xlink:href="perezs_hezron.html" xlink:title="Hezron" target="_top">
<ellipse fill="none" stroke="blue" cx="36.3968" cy="-192" rx="36.2938" ry="18"/>
<text text-anchor="middle" x="36.3968" y="-188.3" font-family="Times,serif" font-size="14.00">Hezron</text>
</a>
</g>
</g>
<!-- perezs_hezron&#45;&gt;makirs_daughter -->
<g id="edge4" class="edge"><title>perezs_hezron&#45;&gt;makirs_daughter</title>
<path fill="none" stroke="red" d="M72.9847,-192C84.6235,-192 96.2623,-192 107.901,-192"/>
</g>
<!-- perezs_hezron&#45;&gt;segub -->
<g id="edge2" class="edge"><title>perezs_hezron&#45;&gt;segub</title>
<path fill="none" stroke="black" d="M49.7513,-175.012C60.4296,-162.228 75.5588,-144.116 87.6386,-129.654"/>
<polygon fill="black" stroke="black" points="90.6174,-131.548 94.342,-121.629 85.245,-127.06 90.6174,-131.548"/>
<text text-anchor="middle" x="103.897" y="-144.8" font-family="Times,serif" font-size="14.00">1 Ch 2:21</text>
</g>
<!-- segub&#45;&gt;jair -->
<g id="edge3" class="edge"><title>segub&#45;&gt;jair</title>
<path fill="none" stroke="black" d="M107.397,-86.799C107.397,-75.1626 107.397,-59.5479 107.397,-46.2368"/>
<polygon fill="black" stroke="black" points="110.897,-46.1754 107.397,-36.1754 103.897,-46.1755 110.897,-46.1754"/>
<text text-anchor="middle" x="134.897" y="-57.8" font-family="Times,serif" font-size="14.00">1 Ch 2:22</text>
</g>
</g>
</svg>
