<?xml version="1.0" encoding="UTF-8" standalone="no"?>
<!DOCTYPE svg PUBLIC "-//W3C//DTD SVG 1.1//EN"
 "http://www.w3.org/Graphics/SVG/1.1/DTD/svg11.dtd">
<!-- Generated by graphviz version 2.38.0 (20140413.2041)
 -->
<!-- Title: ancestry Pages: 1 -->
<svg width="98pt" height="248pt"
 viewBox="0.00 0.00 98.50 248.00" xmlns="http://www.w3.org/2000/svg" xmlns:xlink="http://www.w3.org/1999/xlink">
<g id="graph0" class="graph" transform="scale(1 1) rotate(0) translate(4 244)">
<title>ancestry</title>
<polygon fill="white" stroke="none" points="-4,4 -4,-244 94.4971,-244 94.4971,4 -4,4"/>
<!-- reu -->
<g id="node1" class="node"><title>reu</title>
<g id="a_node1"><a xlink:href="reu.html" xlink:title="Reu" target="_top">
<ellipse fill="none" stroke="blue" cx="32.4971" cy="-222" rx="27" ry="18"/>
<text text-anchor="middle" x="32.4971" y="-218.3" font-family="Times,serif" font-size="14.00">Reu</text>
</a>
</g>
</g>
<!-- serug -->
<g id="node2" class="node"><title>serug</title>
<g id="a_node2"><a xlink:href="serug.html" xlink:title="Serug" target="_top">
<ellipse fill="lightblue" stroke="blue" stroke-width="2" cx="32.4971" cy="-120" rx="31.3957" ry="18"/>
<text text-anchor="middle" x="32.4971" y="-116.3" font-family="Times,serif" font-size="14.00">Serug</text>
</a>
</g>
</g>
<!-- reu&#45;&gt;serug -->
<g id="edge1" class="edge"><title>reu&#45;&gt;serug</title>
<path fill="none" stroke="black" d="M32.4971,-203.581C32.4971,-188.382 32.4971,-166.067 32.4971,-148.464"/>
<polygon fill="black" stroke="black" points="35.9972,-148.219 32.4971,-138.219 28.9972,-148.219 35.9972,-148.219"/>
<text text-anchor="middle" x="61.4971" y="-174.8" font-family="Times,serif" font-size="14.00">Gen 11:20</text>
<text text-anchor="middle" x="61.4971" y="-159.8" font-family="Times,serif" font-size="14.00">Luk 3:35</text>
</g>
<!-- serugs_nahor -->
<g id="node3" class="node"><title>serugs_nahor</title>
<g id="a_node3"><a xlink:href="serugs_nahor.html" xlink:title="Nahor" target="_top">
<ellipse fill="none" stroke="blue" cx="32.4971" cy="-18" rx="32.4942" ry="18"/>
<text text-anchor="middle" x="32.4971" y="-14.3" font-family="Times,serif" font-size="14.00">Nahor</text>
</a>
</g>
</g>
<!-- serug&#45;&gt;serugs_nahor -->
<g id="edge2" class="edge"><title>serug&#45;&gt;serugs_nahor</title>
<path fill="none" stroke="black" d="M32.4971,-101.581C32.4971,-86.3816 32.4971,-64.0669 32.4971,-46.4644"/>
<polygon fill="black" stroke="black" points="35.9972,-46.219 32.4971,-36.2191 28.9972,-46.2191 35.9972,-46.219"/>
<text text-anchor="middle" x="61.4971" y="-72.8" font-family="Times,serif" font-size="14.00">Gen 11:22</text>
<text text-anchor="middle" x="61.4971" y="-57.8" font-family="Times,serif" font-size="14.00">Luk 3:35</text>
</g>
</g>
</svg>
