<?xml version="1.0" encoding="UTF-8" standalone="no"?>
<!DOCTYPE svg PUBLIC "-//W3C//DTD SVG 1.1//EN"
 "http://www.w3.org/Graphics/SVG/1.1/DTD/svg11.dtd">
<!-- Generated by graphviz version 2.38.0 (20140413.2041)
 -->
<!-- Title: ancestry Pages: 1 -->
<svg width="175pt" height="278pt"
 viewBox="0.00 0.00 175.50 278.00" xmlns="http://www.w3.org/2000/svg" xmlns:xlink="http://www.w3.org/1999/xlink">
<g id="graph0" class="graph" transform="scale(1 1) rotate(0) translate(4 274)">
<title>ancestry</title>
<polygon fill="white" stroke="none" points="-4,4 -4,-274 171.497,-274 171.497,4 -4,4"/>
<!-- adam -->
<g id="node1" class="node"><title>adam</title>
<g id="a_node1"><a xlink:href="adam.html" xlink:title="Adam" target="_top">
<ellipse fill="none" stroke="blue" cx="32.4971" cy="-252" rx="32.4942" ry="18"/>
<text text-anchor="middle" x="32.4971" y="-248.3" font-family="Times,serif" font-size="14.00">Adam</text>
</a>
</g>
</g>
<!-- eve -->
<g id="node3" class="node"><title>eve</title>
<g id="a_node3"><a xlink:href="eve.html" xlink:title="Eve" target="_top">
<ellipse fill="none" stroke="red" cx="127.497" cy="-252" rx="27" ry="18"/>
<text text-anchor="middle" x="127.497" y="-248.3" font-family="Times,serif" font-size="14.00">Eve</text>
</a>
</g>
</g>
<!-- adam&#45;&gt;eve -->
<g id="edge4" class="edge"><title>adam&#45;&gt;eve</title>
<path fill="none" stroke="red" d="M65.1534,-252C76.8428,-252 88.5323,-252 100.222,-252"/>
</g>
<!-- seth -->
<g id="node4" class="node"><title>seth</title>
<g id="a_node4"><a xlink:href="seth.html" xlink:title="Seth" target="_top">
<ellipse fill="lightblue" stroke="blue" stroke-width="2" cx="79.4971" cy="-135" rx="27" ry="18"/>
<text text-anchor="middle" x="79.4971" y="-131.3" font-family="Times,serif" font-size="14.00">Seth</text>
</a>
</g>
</g>
<!-- adam&#45;&gt;seth -->
<g id="edge1" class="edge"><title>adam&#45;&gt;seth</title>
<path fill="none" stroke="black" d="M33.3316,-233.934C34.7311,-217.144 38.4763,-191.168 48.4971,-171 50.8301,-166.304 53.9594,-161.75 57.3346,-157.565"/>
<polygon fill="black" stroke="black" points="59.9908,-159.845 63.9836,-150.031 54.7424,-155.213 59.9908,-159.845"/>
<text text-anchor="middle" x="73.9971" y="-204.8" font-family="Times,serif" font-size="14.00">Gen 4:25</text>
<text text-anchor="middle" x="73.9971" y="-189.8" font-family="Times,serif" font-size="14.00">Gen 5:3</text>
<text text-anchor="middle" x="73.9971" y="-174.8" font-family="Times,serif" font-size="14.00">Luk 3:38</text>
</g>
<!-- enosh -->
<g id="node2" class="node"><title>enosh</title>
<g id="a_node2"><a xlink:href="enosh.html" xlink:title="Enosh" target="_top">
<ellipse fill="none" stroke="blue" cx="79.4971" cy="-18" rx="32.4942" ry="18"/>
<text text-anchor="middle" x="79.4971" y="-14.3" font-family="Times,serif" font-size="14.00">Enosh</text>
</a>
</g>
</g>
<!-- eve&#45;&gt;seth -->
<g id="edge2" class="edge"><title>eve&#45;&gt;seth</title>
<path fill="none" stroke="black" d="M122.57,-234.105C117.55,-217.669 109.145,-192.153 99.4971,-171 97.9997,-167.717 96.2941,-164.336 94.5249,-161.031"/>
<polygon fill="black" stroke="black" points="97.4359,-159.066 89.4907,-152.057 91.3309,-162.491 97.4359,-159.066"/>
<text text-anchor="middle" x="141.997" y="-189.8" font-family="Times,serif" font-size="14.00">Gen 4:25</text>
</g>
<!-- seth&#45;&gt;enosh -->
<g id="edge3" class="edge"><title>seth&#45;&gt;enosh</title>
<path fill="none" stroke="black" d="M79.4971,-116.534C79.4971,-97.9357 79.4971,-68.2442 79.4971,-46.5014"/>
<polygon fill="black" stroke="black" points="82.9972,-46.2536 79.4971,-36.2536 75.9972,-46.2536 82.9972,-46.2536"/>
<text text-anchor="middle" x="104.997" y="-87.8" font-family="Times,serif" font-size="14.00">Gen 4:26</text>
<text text-anchor="middle" x="104.997" y="-72.8" font-family="Times,serif" font-size="14.00">Gen 5:6</text>
<text text-anchor="middle" x="104.997" y="-57.8" font-family="Times,serif" font-size="14.00">Luk 3:38</text>
</g>
</g>
</svg>
