<?xml version="1.0" encoding="UTF-8" standalone="no"?>
<!DOCTYPE svg PUBLIC "-//W3C//DTD SVG 1.1//EN"
 "http://www.w3.org/Graphics/SVG/1.1/DTD/svg11.dtd">
<!-- Generated by graphviz version 2.38.0 (20140413.2041)
 -->
<!-- Title: ancestry Pages: 1 -->
<svg width="167pt" height="218pt"
 viewBox="0.00 0.00 167.20 218.00" xmlns="http://www.w3.org/2000/svg" xmlns:xlink="http://www.w3.org/1999/xlink">
<g id="graph0" class="graph" transform="scale(1 1) rotate(0) translate(4 214)">
<title>ancestry</title>
<polygon fill="white" stroke="none" points="-4,4 -4,-214 163.197,-214 163.197,4 -4,4"/>
<!-- caleb -->
<g id="node1" class="node"><title>caleb</title>
<g id="a_node1"><a xlink:href="caleb.html" xlink:title="Caleb" target="_top">
<ellipse fill="none" stroke="blue" cx="31.1972" cy="-192" rx="31.3957" ry="18"/>
<text text-anchor="middle" x="31.1972" y="-188.3" font-family="Times,serif" font-size="14.00">Caleb</text>
</a>
</g>
</g>
<!-- shaaph -->
<g id="node4" class="node"><title>shaaph</title>
<g id="a_node4"><a xlink:href="shaaph.html" xlink:title="Shaaph" target="_top">
<ellipse fill="lightblue" stroke="blue" stroke-width="2" cx="75.1972" cy="-105" rx="36.2938" ry="18"/>
<text text-anchor="middle" x="75.1972" y="-101.3" font-family="Times,serif" font-size="14.00">Shaaph</text>
</a>
</g>
</g>
<!-- caleb&#45;&gt;shaaph -->
<g id="edge1" class="edge"><title>caleb&#45;&gt;shaaph</title>
<path fill="none" stroke="black" d="M32.644,-174.01C34.0451,-163.949 36.7974,-151.215 42.1972,-141 44.5146,-136.616 47.5322,-132.383 50.8005,-128.467"/>
<polygon fill="black" stroke="black" points="53.5372,-130.661 57.7174,-120.925 48.3786,-125.929 53.5372,-130.661"/>
<text text-anchor="middle" x="69.6972" y="-144.8" font-family="Times,serif" font-size="14.00">1 Ch 2:49</text>
</g>
<!-- maacah -->
<g id="node2" class="node"><title>maacah</title>
<g id="a_node2"><a xlink:href="maacah.html" xlink:title="Maacah" target="_top">
<ellipse fill="none" stroke="red" cx="119.197" cy="-192" rx="38.9931" ry="18"/>
<text text-anchor="middle" x="119.197" y="-188.3" font-family="Times,serif" font-size="14.00">Maacah</text>
</a>
</g>
</g>
<!-- maacah&#45;&gt;shaaph -->
<g id="edge2" class="edge"><title>maacah&#45;&gt;shaaph</title>
<path fill="none" stroke="black" d="M112.465,-174.042C108.387,-164.223 102.887,-151.723 97.1972,-141 95.4458,-137.699 93.4969,-134.294 91.5032,-130.962"/>
<polygon fill="black" stroke="black" points="94.4665,-129.099 86.2262,-122.44 88.515,-132.784 94.4665,-129.099"/>
<text text-anchor="middle" x="131.697" y="-144.8" font-family="Times,serif" font-size="14.00">1 Ch 2:49</text>
</g>
<!-- madmannah -->
<g id="node3" class="node"><title>madmannah</title>
<g id="a_node3"><a xlink:href="madmannah.html" xlink:title="Madmannah" target="_top">
<ellipse fill="none" stroke="blue" cx="75.1972" cy="-18" rx="55.7903" ry="18"/>
<text text-anchor="middle" x="75.1972" y="-14.3" font-family="Times,serif" font-size="14.00">Madmannah</text>
</a>
</g>
</g>
<!-- shaaph&#45;&gt;madmannah -->
<g id="edge3" class="edge"><title>shaaph&#45;&gt;madmannah</title>
<path fill="none" stroke="black" d="M75.1972,-86.799C75.1972,-75.1626 75.1972,-59.5479 75.1972,-46.2368"/>
<polygon fill="black" stroke="black" points="78.6973,-46.1754 75.1972,-36.1754 71.6973,-46.1755 78.6973,-46.1754"/>
<text text-anchor="middle" x="102.697" y="-57.8" font-family="Times,serif" font-size="14.00">1 Ch 2:49</text>
</g>
</g>
</svg>
