<?xml version="1.0" encoding="UTF-8" standalone="no"?>
<!DOCTYPE svg PUBLIC "-//W3C//DTD SVG 1.1//EN"
 "http://www.w3.org/Graphics/SVG/1.1/DTD/svg11.dtd">
<!-- Generated by graphviz version 2.38.0 (20140413.2041)
 -->
<!-- Title: ancestry Pages: 1 -->
<svg width="179pt" height="218pt"
 viewBox="0.00 0.00 179.00 218.00" xmlns="http://www.w3.org/2000/svg" xmlns:xlink="http://www.w3.org/1999/xlink">
<g id="graph0" class="graph" transform="scale(1 1) rotate(0) translate(4 214)">
<title>ancestry</title>
<polygon fill="white" stroke="none" points="-4,4 -4,-214 174.997,-214 174.997,4 -4,4"/>
<!-- abishur -->
<g id="node1" class="node"><title>abishur</title>
<g id="a_node1"><a xlink:href="abishur.html" xlink:title="Abishur" target="_top">
<ellipse fill="none" stroke="blue" cx="38.9965" cy="-18" rx="38.9931" ry="18"/>
<text text-anchor="middle" x="38.9965" y="-14.3" font-family="Times,serif" font-size="14.00">Abishur</text>
</a>
</g>
</g>
<!-- onam -->
<g id="node2" class="node"><title>onam</title>
<g id="a_node2"><a xlink:href="onam.html" xlink:title="Onam" target="_top">
<ellipse fill="none" stroke="blue" cx="83.9965" cy="-192" rx="32.4942" ry="18"/>
<text text-anchor="middle" x="83.9965" y="-188.3" font-family="Times,serif" font-size="14.00">Onam</text>
</a>
</g>
</g>
<!-- shammai -->
<g id="node3" class="node"><title>shammai</title>
<g id="a_node3"><a xlink:href="shammai.html" xlink:title="Shammai" target="_top">
<ellipse fill="lightblue" stroke="blue" stroke-width="2" cx="83.9965" cy="-105" rx="44.6926" ry="18"/>
<text text-anchor="middle" x="83.9965" y="-101.3" font-family="Times,serif" font-size="14.00">Shammai</text>
</a>
</g>
</g>
<!-- onam&#45;&gt;shammai -->
<g id="edge1" class="edge"><title>onam&#45;&gt;shammai</title>
<path fill="none" stroke="black" d="M83.9965,-173.799C83.9965,-162.163 83.9965,-146.548 83.9965,-133.237"/>
<polygon fill="black" stroke="black" points="87.4966,-133.175 83.9965,-123.175 80.4966,-133.175 87.4966,-133.175"/>
<text text-anchor="middle" x="111.497" y="-144.8" font-family="Times,serif" font-size="14.00">1 Ch 2:28</text>
</g>
<!-- shammai&#45;&gt;abishur -->
<g id="edge2" class="edge"><title>shammai&#45;&gt;abishur</title>
<path fill="none" stroke="black" d="M67.1746,-88.0928C62.0167,-82.475 56.7252,-75.8425 52.9965,-69 49.2008,-62.0344 46.3603,-53.9494 44.2669,-46.3378"/>
<polygon fill="black" stroke="black" points="47.6152,-45.2938 41.8557,-36.4011 40.8127,-46.9445 47.6152,-45.2938"/>
<text text-anchor="middle" x="80.4965" y="-57.8" font-family="Times,serif" font-size="14.00">1 Ch 2:28</text>
</g>
<!-- shammais_nadab -->
<g id="node4" class="node"><title>shammais_nadab</title>
<g id="a_node4"><a xlink:href="shammais_nadab.html" xlink:title="Nadab" target="_top">
<ellipse fill="none" stroke="blue" cx="129.997" cy="-18" rx="33.5952" ry="18"/>
<text text-anchor="middle" x="129.997" y="-14.3" font-family="Times,serif" font-size="14.00">Nadab</text>
</a>
</g>
</g>
<!-- shammai&#45;&gt;shammais_nadab -->
<g id="edge3" class="edge"><title>shammai&#45;&gt;shammais_nadab</title>
<path fill="none" stroke="black" d="M96.1259,-87.6704C100.146,-81.9172 104.486,-75.3093 107.997,-69 112.147,-61.5417 116.098,-53.1477 119.477,-45.3977"/>
<polygon fill="black" stroke="black" points="122.761,-46.6185 123.423,-36.0444 116.311,-43.8974 122.761,-46.6185"/>
<text text-anchor="middle" x="143.497" y="-57.8" font-family="Times,serif" font-size="14.00">1 Ch 2:28</text>
</g>
</g>
</svg>
