<?xml version="1.0" encoding="UTF-8" standalone="no"?>
<!DOCTYPE svg PUBLIC "-//W3C//DTD SVG 1.1//EN"
 "http://www.w3.org/Graphics/SVG/1.1/DTD/svg11.dtd">
<!-- Generated by graphviz version 2.38.0 (20140413.2041)
 -->
<!-- Title: ancestry Pages: 1 -->
<svg width="176pt" height="218pt"
 viewBox="0.00 0.00 175.65 218.00" xmlns="http://www.w3.org/2000/svg" xmlns:xlink="http://www.w3.org/1999/xlink">
<g id="graph0" class="graph" transform="scale(1 1) rotate(0) translate(4 214)">
<title>ancestry</title>
<polygon fill="white" stroke="none" points="-4,4 -4,-214 171.646,-214 171.646,4 -4,4"/>
<!-- appaim -->
<g id="node1" class="node"><title>appaim</title>
<g id="a_node1"><a xlink:href="appaim.html" xlink:title="Appaim" target="_top">
<ellipse fill="none" stroke="blue" cx="39.6465" cy="-18" rx="39.7935" ry="18"/>
<text text-anchor="middle" x="39.6465" y="-14.3" font-family="Times,serif" font-size="14.00">Appaim</text>
</a>
</g>
</g>
<!-- seled -->
<g id="node2" class="node"><title>seled</title>
<g id="a_node2"><a xlink:href="seled.html" xlink:title="Seled" target="_top">
<ellipse fill="none" stroke="blue" cx="127.646" cy="-18" rx="30.5947" ry="18"/>
<text text-anchor="middle" x="127.646" y="-14.3" font-family="Times,serif" font-size="14.00">Seled</text>
</a>
</g>
</g>
<!-- shammai -->
<g id="node3" class="node"><title>shammai</title>
<g id="a_node3"><a xlink:href="shammai.html" xlink:title="Shammai" target="_top">
<ellipse fill="none" stroke="blue" cx="83.6465" cy="-192" rx="44.6926" ry="18"/>
<text text-anchor="middle" x="83.6465" y="-188.3" font-family="Times,serif" font-size="14.00">Shammai</text>
</a>
</g>
</g>
<!-- shammais_nadab -->
<g id="node4" class="node"><title>shammais_nadab</title>
<g id="a_node4"><a xlink:href="shammais_nadab.html" xlink:title="Nadab" target="_top">
<ellipse fill="lightblue" stroke="blue" stroke-width="2" cx="83.6465" cy="-105" rx="33.5952" ry="18"/>
<text text-anchor="middle" x="83.6465" y="-101.3" font-family="Times,serif" font-size="14.00">Nadab</text>
</a>
</g>
</g>
<!-- shammai&#45;&gt;shammais_nadab -->
<g id="edge1" class="edge"><title>shammai&#45;&gt;shammais_nadab</title>
<path fill="none" stroke="black" d="M83.6465,-173.799C83.6465,-162.163 83.6465,-146.548 83.6465,-133.237"/>
<polygon fill="black" stroke="black" points="87.1466,-133.175 83.6465,-123.175 80.1466,-133.175 87.1466,-133.175"/>
<text text-anchor="middle" x="111.146" y="-144.8" font-family="Times,serif" font-size="14.00">1 Ch 2:28</text>
</g>
<!-- shammais_nadab&#45;&gt;appaim -->
<g id="edge2" class="edge"><title>shammais_nadab&#45;&gt;appaim</title>
<path fill="none" stroke="black" d="M66.5101,-89.4172C60.6749,-83.617 54.6274,-76.531 50.6465,-69 46.9341,-61.9771 44.4731,-53.7636 42.8422,-46.0468"/>
<polygon fill="black" stroke="black" points="46.255,-45.2427 41.0933,-35.9903 39.3585,-46.4421 46.255,-45.2427"/>
<text text-anchor="middle" x="78.1465" y="-57.8" font-family="Times,serif" font-size="14.00">1 Ch 2:30</text>
</g>
<!-- shammais_nadab&#45;&gt;seled -->
<g id="edge3" class="edge"><title>shammais_nadab&#45;&gt;seled</title>
<path fill="none" stroke="black" d="M94.4507,-87.9121C98.1897,-82.0673 102.282,-75.3399 105.646,-69 109.647,-61.4603 113.554,-53.0422 116.938,-45.2951"/>
<polygon fill="black" stroke="black" points="120.217,-46.5296 120.914,-35.9577 113.776,-43.7875 120.217,-46.5296"/>
<text text-anchor="middle" x="140.146" y="-57.8" font-family="Times,serif" font-size="14.00">1 Ch 2:30</text>
</g>
</g>
</svg>
