<?xml version="1.0" encoding="UTF-8" standalone="no"?>
<!DOCTYPE svg PUBLIC "-//W3C//DTD SVG 1.1//EN"
 "http://www.w3.org/Graphics/SVG/1.1/DTD/svg11.dtd">
<!-- Generated by graphviz version 2.38.0 (20140413.2041)
 -->
<!-- Title: ancestry Pages: 1 -->
<svg width="230pt" height="131pt"
 viewBox="0.00 0.00 230.04 131.00" xmlns="http://www.w3.org/2000/svg" xmlns:xlink="http://www.w3.org/1999/xlink">
<g id="graph0" class="graph" transform="scale(1 1) rotate(0) translate(4 127)">
<title>ancestry</title>
<polygon fill="white" stroke="none" points="-4,4 -4,-127 226.041,-127 226.041,4 -4,4"/>
<!-- shaul -->
<g id="node1" class="node"><title>shaul</title>
<g id="a_node1"><a xlink:href="shaul.html" xlink:title="Shaul" target="_top">
<ellipse fill="lightblue" stroke="blue" stroke-width="2" cx="123.694" cy="-18" rx="30.5947" ry="18"/>
<text text-anchor="middle" x="123.694" y="-14.3" font-family="Times,serif" font-size="14.00">Shaul</text>
</a>
</g>
</g>
<!-- shauls_mother -->
<g id="node2" class="node"><title>shauls_mother</title>
<g id="a_node2"><a xlink:href="shauls_mother.html" xlink:title="Shauls_mother" target="_top">
<ellipse fill="none" stroke="red" cx="63.6943" cy="-105" rx="63.8893" ry="18"/>
<text text-anchor="middle" x="63.6943" y="-101.3" font-family="Times,serif" font-size="14.00">Shauls_mother</text>
</a>
</g>
</g>
<!-- shauls_mother&#45;&gt;shaul -->
<g id="edge1" class="edge"><title>shauls_mother&#45;&gt;shaul</title>
<path fill="none" stroke="black" d="M75.5484,-87.2067C84.429,-74.6259 96.7077,-57.2311 106.642,-43.1571"/>
<polygon fill="black" stroke="black" points="109.566,-45.084 112.474,-34.8959 103.847,-41.0472 109.566,-45.084"/>
<text text-anchor="middle" x="119.194" y="-57.8" font-family="Times,serif" font-size="14.00">Ex 6:15</text>
</g>
<!-- simeon -->
<g id="node3" class="node"><title>simeon</title>
<g id="a_node3"><a xlink:href="simeon.html" xlink:title="Simeon" target="_top">
<ellipse fill="none" stroke="blue" cx="183.694" cy="-105" rx="38.1938" ry="18"/>
<text text-anchor="middle" x="183.694" y="-101.3" font-family="Times,serif" font-size="14.00">Simeon</text>
</a>
</g>
</g>
<!-- simeon&#45;&gt;shaul -->
<g id="edge2" class="edge"><title>simeon&#45;&gt;shaul</title>
<path fill="none" stroke="black" d="M172.126,-87.6111C163.214,-74.9868 150.761,-57.3438 140.713,-43.1103"/>
<polygon fill="black" stroke="black" points="143.448,-40.9151 134.822,-34.7638 137.729,-44.9519 143.448,-40.9151"/>
<text text-anchor="middle" x="178.194" y="-57.8" font-family="Times,serif" font-size="14.00">Ex 6:15</text>
</g>
</g>
</svg>
