<?xml version="1.0" encoding="UTF-8" standalone="no"?>
<!DOCTYPE svg PUBLIC "-//W3C//DTD SVG 1.1//EN"
 "http://www.w3.org/Graphics/SVG/1.1/DTD/svg11.dtd">
<!-- Generated by graphviz version 2.38.0 (20140413.2041)
 -->
<!-- Title: ancestry Pages: 1 -->
<svg width="135pt" height="218pt"
 viewBox="0.00 0.00 135.39 218.00" xmlns="http://www.w3.org/2000/svg" xmlns:xlink="http://www.w3.org/1999/xlink">
<g id="graph0" class="graph" transform="scale(1 1) rotate(0) translate(4 214)">
<title>ancestry</title>
<polygon fill="white" stroke="none" points="-4,4 -4,-214 131.389,-214 131.389,4 -4,4"/>
<!-- canaan -->
<g id="node1" class="node"><title>canaan</title>
<g id="a_node1"><a xlink:href="canaan.html" xlink:title="Canaan" target="_top">
<ellipse fill="none" stroke="blue" cx="63.6943" cy="-192" rx="37.0935" ry="18"/>
<text text-anchor="middle" x="63.6943" y="-188.3" font-family="Times,serif" font-size="14.00">Canaan</text>
</a>
</g>
</g>
<!-- shauls_mother -->
<g id="node3" class="node"><title>shauls_mother</title>
<g id="a_node3"><a xlink:href="shauls_mother.html" xlink:title="Shauls_mother" target="_top">
<ellipse fill="lightpink" stroke="red" stroke-width="2" cx="63.6943" cy="-105" rx="63.8893" ry="18"/>
<text text-anchor="middle" x="63.6943" y="-101.3" font-family="Times,serif" font-size="14.00">Shauls_mother</text>
</a>
</g>
</g>
<!-- canaan&#45;&gt;shauls_mother -->
<g id="edge2" class="edge"><title>canaan&#45;&gt;shauls_mother</title>
<path fill="none" stroke="black" stroke-dasharray="1,5" d="M63.6943,-173.799C63.6943,-162.163 63.6943,-146.548 63.6943,-133.237"/>
<polygon fill="black" stroke="black" points="67.1944,-133.175 63.6943,-123.175 60.1944,-133.175 67.1944,-133.175"/>
<text text-anchor="middle" x="85.1943" y="-144.8" font-family="Times,serif" font-size="14.00">Ex 6:15</text>
</g>
<!-- shaul -->
<g id="node2" class="node"><title>shaul</title>
<g id="a_node2"><a xlink:href="shaul.html" xlink:title="Shaul" target="_top">
<ellipse fill="none" stroke="blue" cx="63.6943" cy="-18" rx="30.5947" ry="18"/>
<text text-anchor="middle" x="63.6943" y="-14.3" font-family="Times,serif" font-size="14.00">Shaul</text>
</a>
</g>
</g>
<!-- shauls_mother&#45;&gt;shaul -->
<g id="edge1" class="edge"><title>shauls_mother&#45;&gt;shaul</title>
<path fill="none" stroke="black" d="M63.6943,-86.799C63.6943,-75.1626 63.6943,-59.5479 63.6943,-46.2368"/>
<polygon fill="black" stroke="black" points="67.1944,-46.1754 63.6943,-36.1754 60.1944,-46.1755 67.1944,-46.1754"/>
<text text-anchor="middle" x="85.1943" y="-57.8" font-family="Times,serif" font-size="14.00">Ex 6:15</text>
</g>
</g>
</svg>
