<?xml version="1.0" encoding="UTF-8" standalone="no"?>
<!DOCTYPE svg PUBLIC "-//W3C//DTD SVG 1.1//EN"
 "http://www.w3.org/Graphics/SVG/1.1/DTD/svg11.dtd">
<!-- Generated by graphviz version 2.38.0 (20140413.2041)
 -->
<!-- Title: ancestry Pages: 1 -->
<svg width="1165pt" height="233pt"
 viewBox="0.00 0.00 1165.15 233.00" xmlns="http://www.w3.org/2000/svg" xmlns:xlink="http://www.w3.org/1999/xlink">
<g id="graph0" class="graph" transform="scale(1 1) rotate(0) translate(4 229)">
<title>ancestry</title>
<polygon fill="white" stroke="none" points="-4,4 -4,-229 1161.15,-229 1161.15,4 -4,4"/>
<!-- jechoniah -->
<g id="node1" class="node"><title>jechoniah</title>
<g id="a_node1"><a xlink:href="jechoniah.html" xlink:title="Jechoniah" target="_top">
<ellipse fill="none" stroke="blue" cx="46.1459" cy="-207" rx="46.2923" ry="18"/>
<text text-anchor="middle" x="46.1459" y="-203.3" font-family="Times,serif" font-size="14.00">Jechoniah</text>
</a>
</g>
</g>
<!-- shealtiel -->
<g id="node3" class="node"><title>shealtiel</title>
<g id="a_node3"><a xlink:href="shealtiel.html" xlink:title="Shealtiel" target="_top">
<ellipse fill="lightblue" stroke="blue" stroke-width="2" cx="581.146" cy="-120" rx="41.6928" ry="18"/>
<text text-anchor="middle" x="581.146" y="-116.3" font-family="Times,serif" font-size="14.00">Shealtiel</text>
</a>
</g>
</g>
<!-- jechoniah&#45;&gt;shealtiel -->
<g id="edge3" class="edge"><title>jechoniah&#45;&gt;shealtiel</title>
<path fill="none" stroke="black" stroke-dasharray="5,2" d="M41.2218,-188.968C39.216,-178.115 38.9883,-164.537 47.1459,-156 79.9609,-121.659 401.111,-119.849 528.994,-120.51"/>
<polygon fill="black" stroke="black" points="529.29,-124.012 539.31,-120.571 529.331,-117.012 529.29,-124.012"/>
<text text-anchor="middle" x="571.146" y="-159.8" font-family="Times,serif" font-size="14.00">Mat 1:12, 2 Kgs 20:16&#45;19, http://creation.com/jesus&#45;genealogies, &quot;Its possible Jeconiah was made into a eunuch. He may have adopted Shealtiel son of Neri to pass on the right to the throne.&quot;</text>
</g>
<!-- neri -->
<g id="node2" class="node"><title>neri</title>
<g id="a_node2"><a xlink:href="neri.html" xlink:title="Neri" target="_top">
<ellipse fill="none" stroke="blue" cx="1117.15" cy="-207" rx="27" ry="18"/>
<text text-anchor="middle" x="1117.15" y="-203.3" font-family="Times,serif" font-size="14.00">Neri</text>
</a>
</g>
</g>
<!-- neri&#45;&gt;shealtiel -->
<g id="edge1" class="edge"><title>neri&#45;&gt;shealtiel</title>
<path fill="none" stroke="black" d="M1114.26,-188.717C1111.41,-177.462 1105.86,-163.52 1095.15,-156 1057.98,-129.906 756.32,-123.187 633.192,-121.523"/>
<polygon fill="black" stroke="black" points="632.937,-118.02 622.892,-121.391 632.846,-125.019 632.937,-118.02"/>
<text text-anchor="middle" x="1132.15" y="-159.8" font-family="Times,serif" font-size="14.00">Luk 3:27</text>
</g>
<!-- zerubbabel -->
<g id="node4" class="node"><title>zerubbabel</title>
<g id="a_node4"><a xlink:href="zerubbabel.html" xlink:title="Zerubbabel" target="_top">
<ellipse fill="none" stroke="blue" cx="581.146" cy="-18" rx="50.8918" ry="18"/>
<text text-anchor="middle" x="581.146" y="-14.3" font-family="Times,serif" font-size="14.00">Zerubbabel</text>
</a>
</g>
</g>
<!-- shealtiel&#45;&gt;zerubbabel -->
<g id="edge2" class="edge"><title>shealtiel&#45;&gt;zerubbabel</title>
<path fill="none" stroke="black" d="M581.146,-101.581C581.146,-86.3816 581.146,-64.0669 581.146,-46.4644"/>
<polygon fill="black" stroke="black" points="584.646,-46.219 581.146,-36.2191 577.646,-46.2191 584.646,-46.219"/>
<text text-anchor="middle" x="606.646" y="-72.8" font-family="Times,serif" font-size="14.00">Luk 3:27</text>
<text text-anchor="middle" x="606.646" y="-57.8" font-family="Times,serif" font-size="14.00">Mat 1:12</text>
</g>
</g>
</svg>
