<?xml version="1.0" encoding="UTF-8" standalone="no"?>
<!DOCTYPE svg PUBLIC "-//W3C//DTD SVG 1.1//EN"
 "http://www.w3.org/Graphics/SVG/1.1/DTD/svg11.dtd">
<!-- Generated by graphviz version 2.38.0 (20140413.2041)
 -->
<!-- Title: ancestry Pages: 1 -->
<svg width="532pt" height="263pt"
 viewBox="0.00 0.00 532.20 263.00" xmlns="http://www.w3.org/2000/svg" xmlns:xlink="http://www.w3.org/1999/xlink">
<g id="graph0" class="graph" transform="scale(1 1) rotate(0) translate(4 259)">
<title>ancestry</title>
<polygon fill="white" stroke="none" points="-4,4 -4,-259 528.197,-259 528.197,4 -4,4"/>
<!-- aram -->
<g id="node1" class="node"><title>aram</title>
<g id="a_node1"><a xlink:href="aram.html" xlink:title="Aram" target="_top">
<ellipse fill="none" stroke="blue" cx="31.1972" cy="-18" rx="31.3957" ry="18"/>
<text text-anchor="middle" x="31.1972" y="-14.3" font-family="Times,serif" font-size="14.00">Aram</text>
</a>
</g>
</g>
<!-- arphaxad -->
<g id="node2" class="node"><title>arphaxad</title>
<g id="a_node2"><a xlink:href="arphaxad.html" xlink:title="Arphaxad" target="_top">
<ellipse fill="none" stroke="blue" cx="126.197" cy="-18" rx="45.4919" ry="18"/>
<text text-anchor="middle" x="126.197" y="-14.3" font-family="Times,serif" font-size="14.00">Arphaxad</text>
</a>
</g>
</g>
<!-- asshur -->
<g id="node3" class="node"><title>asshur</title>
<g id="a_node3"><a xlink:href="asshur.html" xlink:title="Asshur" target="_top">
<ellipse fill="none" stroke="blue" cx="225.197" cy="-18" rx="35.9954" ry="18"/>
<text text-anchor="middle" x="225.197" y="-14.3" font-family="Times,serif" font-size="14.00">Asshur</text>
</a>
</g>
</g>
<!-- eber -->
<g id="node4" class="node"><title>eber</title>
<g id="a_node4"><a xlink:href="eber.html" xlink:title="Eber" target="_top">
<ellipse fill="none" stroke="blue" cx="306.197" cy="-18" rx="27.0966" ry="18"/>
<text text-anchor="middle" x="306.197" y="-14.3" font-family="Times,serif" font-size="14.00">Eber</text>
</a>
</g>
</g>
<!-- elam -->
<g id="node5" class="node"><title>elam</title>
<g id="a_node5"><a xlink:href="elam.html" xlink:title="Elam" target="_top">
<ellipse fill="none" stroke="blue" cx="387.197" cy="-18" rx="29.795" ry="18"/>
<text text-anchor="middle" x="387.197" y="-14.3" font-family="Times,serif" font-size="14.00">Elam</text>
</a>
</g>
</g>
<!-- lud -->
<g id="node6" class="node"><title>lud</title>
<g id="a_node6"><a xlink:href="lud.html" xlink:title="Lud" target="_top">
<ellipse fill="none" stroke="blue" cx="468.197" cy="-18" rx="27" ry="18"/>
<text text-anchor="middle" x="468.197" y="-14.3" font-family="Times,serif" font-size="14.00">Lud</text>
</a>
</g>
</g>
<!-- noah -->
<g id="node7" class="node"><title>noah</title>
<g id="a_node7"><a xlink:href="noah.html" xlink:title="Noah" target="_top">
<ellipse fill="none" stroke="blue" cx="265.197" cy="-237" rx="29.795" ry="18"/>
<text text-anchor="middle" x="265.197" y="-233.3" font-family="Times,serif" font-size="14.00">Noah</text>
</a>
</g>
</g>
<!-- shem -->
<g id="node8" class="node"><title>shem</title>
<g id="a_node8"><a xlink:href="shem.html" xlink:title="Shem" target="_top">
<ellipse fill="lightblue" stroke="blue" stroke-width="2" cx="265.197" cy="-135" rx="31.3957" ry="18"/>
<text text-anchor="middle" x="265.197" y="-131.3" font-family="Times,serif" font-size="14.00">Shem</text>
</a>
</g>
</g>
<!-- noah&#45;&gt;shem -->
<g id="edge1" class="edge"><title>noah&#45;&gt;shem</title>
<path fill="none" stroke="black" d="M265.197,-218.581C265.197,-203.382 265.197,-181.067 265.197,-163.464"/>
<polygon fill="black" stroke="black" points="268.697,-163.219 265.197,-153.219 261.697,-163.219 268.697,-163.219"/>
<text text-anchor="middle" x="290.697" y="-189.8" font-family="Times,serif" font-size="14.00">Gen 5:32</text>
<text text-anchor="middle" x="290.697" y="-174.8" font-family="Times,serif" font-size="14.00">Luk 3:36</text>
</g>
<!-- shem&#45;&gt;aram -->
<g id="edge2" class="edge"><title>shem&#45;&gt;aram</title>
<path fill="none" stroke="black" d="M234.345,-131.715C186.537,-127.635 97.4264,-117.718 72.1972,-99 54.7232,-86.036 44.1219,-63.4661 38.09,-45.5976"/>
<polygon fill="black" stroke="black" points="41.417,-44.509 35.1218,-35.9872 34.7288,-46.5748 41.417,-44.509"/>
<text text-anchor="middle" x="101.197" y="-72.8" font-family="Times,serif" font-size="14.00">Gen 10:22</text>
</g>
<!-- shem&#45;&gt;arphaxad -->
<g id="edge3" class="edge"><title>shem&#45;&gt;arphaxad</title>
<path fill="none" stroke="black" d="M234.438,-130.978C210.889,-127.157 179.014,-118.518 158.197,-99 143.377,-85.1042 135.275,-63.4364 130.934,-46.154"/>
<polygon fill="black" stroke="black" points="134.279,-45.0702 128.691,-36.0686 127.446,-46.59 134.279,-45.0702"/>
<text text-anchor="middle" x="187.197" y="-87.8" font-family="Times,serif" font-size="14.00">Gen 10:22</text>
<text text-anchor="middle" x="187.197" y="-72.8" font-family="Times,serif" font-size="14.00">Gen 11:10</text>
<text text-anchor="middle" x="187.197" y="-57.8" font-family="Times,serif" font-size="14.00">Luk 3:36</text>
</g>
<!-- shem&#45;&gt;asshur -->
<g id="edge4" class="edge"><title>shem&#45;&gt;asshur</title>
<path fill="none" stroke="black" d="M244.823,-121.078C237.553,-115.292 230.182,-107.782 226.197,-99 218.783,-82.6593 218.597,-62.438 220.232,-46.4142"/>
<polygon fill="black" stroke="black" points="223.756,-46.4613 221.589,-36.0906 216.816,-45.5493 223.756,-46.4613"/>
<text text-anchor="middle" x="255.197" y="-72.8" font-family="Times,serif" font-size="14.00">Gen 10:22</text>
</g>
<!-- shem&#45;&gt;eber -->
<g id="edge7" class="edge"><title>shem&#45;&gt;eber</title>
<path fill="none" stroke="black" stroke-dasharray="1,5" d="M275.083,-117.643C278.288,-111.887 281.666,-105.285 284.197,-99 291.105,-81.847 296.617,-61.7799 300.396,-46.0347"/>
<polygon fill="black" stroke="black" points="303.894,-46.4446 302.731,-35.9137 297.073,-44.8708 303.894,-46.4446"/>
<text text-anchor="middle" x="328.197" y="-72.8" font-family="Times,serif" font-size="14.00">Gen 10:21</text>
</g>
<!-- shem&#45;&gt;elam -->
<g id="edge5" class="edge"><title>shem&#45;&gt;elam</title>
<path fill="none" stroke="black" d="M295.393,-130.052C316.468,-125.787 343.826,-116.997 361.197,-99 374.888,-84.8164 381.369,-63.3481 384.438,-46.2208"/>
<polygon fill="black" stroke="black" points="387.916,-46.6309 385.942,-36.2216 380.994,-45.5899 387.916,-46.6309"/>
<text text-anchor="middle" x="412.197" y="-72.8" font-family="Times,serif" font-size="14.00">Gen 10:22</text>
</g>
<!-- shem&#45;&gt;lud -->
<g id="edge6" class="edge"><title>shem&#45;&gt;lud</title>
<path fill="none" stroke="black" d="M296.267,-131.822C341.868,-128.001 423.832,-118.565 445.197,-99 459.76,-85.664 465.33,-63.7729 467.357,-46.2587"/>
<polygon fill="black" stroke="black" points="470.867,-46.2913 468.211,-36.0348 463.891,-45.7089 470.867,-46.2913"/>
<text text-anchor="middle" x="495.197" y="-72.8" font-family="Times,serif" font-size="14.00">Gen 10:22</text>
</g>
</g>
</svg>
