<?xml version="1.0" encoding="UTF-8" standalone="no"?>
<!DOCTYPE svg PUBLIC "-//W3C//DTD SVG 1.1//EN"
 "http://www.w3.org/Graphics/SVG/1.1/DTD/svg11.dtd">
<!-- Generated by graphviz version 2.38.0 (20140413.2041)
 -->
<!-- Title: ancestry Pages: 1 -->
<svg width="194pt" height="218pt"
 viewBox="0.00 0.00 193.84 218.00" xmlns="http://www.w3.org/2000/svg" xmlns:xlink="http://www.w3.org/1999/xlink">
<g id="graph0" class="graph" transform="scale(1 1) rotate(0) translate(4 214)">
<title>ancestry</title>
<polygon fill="white" stroke="none" points="-4,4 -4,-214 189.843,-214 189.843,4 -4,4"/>
<!-- caleb -->
<g id="node1" class="node"><title>caleb</title>
<g id="a_node1"><a xlink:href="caleb.html" xlink:title="Caleb" target="_top">
<ellipse fill="none" stroke="blue" cx="38.8472" cy="-192" rx="31.3957" ry="18"/>
<text text-anchor="middle" x="38.8472" y="-188.3" font-family="Times,serif" font-size="14.00">Caleb</text>
</a>
</g>
</g>
<!-- sheva -->
<g id="node5" class="node"><title>sheva</title>
<g id="a_node5"><a xlink:href="sheva.html" xlink:title="Sheva" target="_top">
<ellipse fill="lightblue" stroke="blue" stroke-width="2" cx="82.8472" cy="-105" rx="32.4942" ry="18"/>
<text text-anchor="middle" x="82.8472" y="-101.3" font-family="Times,serif" font-size="14.00">Sheva</text>
</a>
</g>
</g>
<!-- caleb&#45;&gt;sheva -->
<g id="edge1" class="edge"><title>caleb&#45;&gt;sheva</title>
<path fill="none" stroke="black" d="M40.294,-174.01C41.6951,-163.949 44.4473,-151.215 49.8472,-141 52.2731,-136.411 55.4663,-131.987 58.9113,-127.918"/>
<polygon fill="black" stroke="black" points="61.4797,-130.296 65.7108,-120.583 56.3459,-125.537 61.4797,-130.296"/>
<text text-anchor="middle" x="77.3472" y="-144.8" font-family="Times,serif" font-size="14.00">1 Ch 2:49</text>
</g>
<!-- gibea -->
<g id="node2" class="node"><title>gibea</title>
<g id="a_node2"><a xlink:href="gibea.html" xlink:title="Gibea" target="_top">
<ellipse fill="none" stroke="blue" cx="31.8472" cy="-18" rx="31.6951" ry="18"/>
<text text-anchor="middle" x="31.8472" y="-14.3" font-family="Times,serif" font-size="14.00">Gibea</text>
</a>
</g>
</g>
<!-- maacah -->
<g id="node3" class="node"><title>maacah</title>
<g id="a_node3"><a xlink:href="maacah.html" xlink:title="Maacah" target="_top">
<ellipse fill="none" stroke="red" cx="126.847" cy="-192" rx="38.9931" ry="18"/>
<text text-anchor="middle" x="126.847" y="-188.3" font-family="Times,serif" font-size="14.00">Maacah</text>
</a>
</g>
</g>
<!-- maacah&#45;&gt;sheva -->
<g id="edge2" class="edge"><title>maacah&#45;&gt;sheva</title>
<path fill="none" stroke="black" d="M120.115,-174.042C116.037,-164.223 110.537,-151.723 104.847,-141 103.06,-137.632 101.067,-134.155 99.0311,-130.758"/>
<polygon fill="black" stroke="black" points="101.898,-128.74 93.6514,-122.088 95.9497,-132.43 101.898,-128.74"/>
<text text-anchor="middle" x="140.347" y="-144.8" font-family="Times,serif" font-size="14.00">1 Ch 2:49</text>
</g>
<!-- machbenah -->
<g id="node4" class="node"><title>machbenah</title>
<g id="a_node4"><a xlink:href="machbenah.html" xlink:title="Machbenah" target="_top">
<ellipse fill="none" stroke="blue" cx="133.847" cy="-18" rx="51.9908" ry="18"/>
<text text-anchor="middle" x="133.847" y="-14.3" font-family="Times,serif" font-size="14.00">Machbenah</text>
</a>
</g>
</g>
<!-- sheva&#45;&gt;gibea -->
<g id="edge3" class="edge"><title>sheva&#45;&gt;gibea</title>
<path fill="none" stroke="black" d="M70.3311,-88.3816C65.8402,-82.4694 60.8912,-75.5771 56.8472,-69 52.149,-61.3591 47.5847,-52.7184 43.67,-44.7957"/>
<polygon fill="black" stroke="black" points="46.7383,-43.1 39.2516,-35.6033 40.4292,-46.1325 46.7383,-43.1"/>
<text text-anchor="middle" x="84.3472" y="-57.8" font-family="Times,serif" font-size="14.00">1 Ch 2:49</text>
</g>
<!-- sheva&#45;&gt;machbenah -->
<g id="edge4" class="edge"><title>sheva&#45;&gt;machbenah</title>
<path fill="none" stroke="black" d="M97.1131,-88.6762C102.155,-82.7958 107.618,-75.8484 111.847,-69 116.332,-61.7378 120.382,-53.402 123.75,-45.6451"/>
<polygon fill="black" stroke="black" points="127.046,-46.8324 127.631,-36.2537 120.577,-44.1588 127.046,-46.8324"/>
<text text-anchor="middle" x="147.347" y="-57.8" font-family="Times,serif" font-size="14.00">1 Ch 2:49</text>
</g>
</g>
</svg>
