<?xml version="1.0" encoding="UTF-8" standalone="no"?>
<!DOCTYPE svg PUBLIC "-//W3C//DTD SVG 1.1//EN"
 "http://www.w3.org/Graphics/SVG/1.1/DTD/svg11.dtd">
<!-- Generated by graphviz version 2.38.0 (20140413.2041)
 -->
<!-- Title: ancestry Pages: 1 -->
<svg width="357pt" height="218pt"
 viewBox="0.00 0.00 356.89 218.00" xmlns="http://www.w3.org/2000/svg" xmlns:xlink="http://www.w3.org/1999/xlink">
<g id="graph0" class="graph" transform="scale(1 1) rotate(0) translate(4 214)">
<title>ancestry</title>
<polygon fill="white" stroke="none" points="-4,4 -4,-214 352.892,-214 352.892,4 -4,4"/>
<!-- haroeh -->
<g id="node1" class="node"><title>haroeh</title>
<g id="a_node1"><a xlink:href="haroeh.html" xlink:title="Haroeh" target="_top">
<ellipse fill="none" stroke="blue" cx="36.3968" cy="-18" rx="36.2938" ry="18"/>
<text text-anchor="middle" x="36.3968" y="-14.3" font-family="Times,serif" font-size="14.00">Haroeh</text>
</a>
</g>
</g>
<!-- hur -->
<g id="node2" class="node"><title>hur</title>
<g id="a_node2"><a xlink:href="hur.html" xlink:title="Hur" target="_top">
<ellipse fill="none" stroke="blue" cx="152.397" cy="-192" rx="27" ry="18"/>
<text text-anchor="middle" x="152.397" y="-188.3" font-family="Times,serif" font-size="14.00">Hur</text>
</a>
</g>
</g>
<!-- shobal -->
<g id="node5" class="node"><title>shobal</title>
<g id="a_node5"><a xlink:href="shobal.html" xlink:title="Shobal" target="_top">
<ellipse fill="lightblue" stroke="blue" stroke-width="2" cx="152.397" cy="-105" rx="35.194" ry="18"/>
<text text-anchor="middle" x="152.397" y="-101.3" font-family="Times,serif" font-size="14.00">Shobal</text>
</a>
</g>
</g>
<!-- hur&#45;&gt;shobal -->
<g id="edge1" class="edge"><title>hur&#45;&gt;shobal</title>
<path fill="none" stroke="black" d="M152.397,-173.799C152.397,-162.163 152.397,-146.548 152.397,-133.237"/>
<polygon fill="black" stroke="black" points="155.897,-133.175 152.397,-123.175 148.897,-133.175 155.897,-133.175"/>
<text text-anchor="middle" x="179.897" y="-144.8" font-family="Times,serif" font-size="14.00">1 Ch 2:50</text>
</g>
<!-- kiriath_jearim -->
<g id="node3" class="node"><title>kiriath_jearim</title>
<g id="a_node3"><a xlink:href="kiriath_jearim.html" xlink:title="Kiriath Jearim" target="_top">
<ellipse fill="none" stroke="blue" cx="152.397" cy="-18" rx="61.99" ry="18"/>
<text text-anchor="middle" x="152.397" y="-14.3" font-family="Times,serif" font-size="14.00">Kiriath Jearim</text>
</a>
</g>
</g>
<!-- manahathites -->
<g id="node4" class="node"><title>manahathites</title>
<g id="a_node4"><a xlink:href="manahathites.html" xlink:title="Manahathites" target="_top">
<ellipse fill="none" stroke="black" cx="290.397" cy="-18" rx="58.4896" ry="18"/>
<text text-anchor="middle" x="290.397" y="-14.3" font-family="Times,serif" font-size="14.00">Manahathites</text>
</a>
</g>
</g>
<!-- shobal&#45;&gt;haroeh -->
<g id="edge2" class="edge"><title>shobal&#45;&gt;haroeh</title>
<path fill="none" stroke="black" d="M129.078,-91.488C117.968,-85.198 104.675,-77.184 93.3968,-69 81.7956,-60.5814 69.7508,-50.2783 59.7388,-41.2169"/>
<polygon fill="black" stroke="black" points="61.922,-38.4696 52.1925,-34.2759 57.1832,-43.6217 61.922,-38.4696"/>
<text text-anchor="middle" x="120.897" y="-57.8" font-family="Times,serif" font-size="14.00">1 Ch 2:52</text>
</g>
<!-- shobal&#45;&gt;kiriath_jearim -->
<g id="edge3" class="edge"><title>shobal&#45;&gt;kiriath_jearim</title>
<path fill="none" stroke="black" d="M152.397,-86.799C152.397,-75.1626 152.397,-59.5479 152.397,-46.2368"/>
<polygon fill="black" stroke="black" points="155.897,-46.1754 152.397,-36.1754 148.897,-46.1755 155.897,-46.1754"/>
<text text-anchor="middle" x="179.897" y="-57.8" font-family="Times,serif" font-size="14.00">1 Ch 2:50</text>
</g>
<!-- shobal&#45;&gt;manahathites -->
<g id="edge4" class="edge"><title>shobal&#45;&gt;manahathites</title>
<path fill="none" stroke="black" stroke-dasharray="1,5" d="M174.621,-91.0204C185.715,-84.4895 199.313,-76.406 211.397,-69 226.754,-59.5878 243.641,-48.9406 257.846,-39.8975"/>
<polygon fill="black" stroke="black" points="259.759,-42.8289 266.307,-34.4997 255.994,-36.9277 259.759,-42.8289"/>
<text text-anchor="middle" x="262.897" y="-57.8" font-family="Times,serif" font-size="14.00">1 Ch 2:52</text>
</g>
</g>
</svg>
