<?xml version="1.0" encoding="UTF-8" standalone="no"?>
<!DOCTYPE svg PUBLIC "-//W3C//DTD SVG 1.1//EN"
 "http://www.w3.org/Graphics/SVG/1.1/DTD/svg11.dtd">
<!-- Generated by graphviz version 2.38.0 (20140413.2041)
 -->
<!-- Title: ancestry Pages: 1 -->
<svg width="478pt" height="233pt"
 viewBox="0.00 0.00 478.09 233.00" xmlns="http://www.w3.org/2000/svg" xmlns:xlink="http://www.w3.org/1999/xlink">
<g id="graph0" class="graph" transform="scale(1 1) rotate(0) translate(4 229)">
<title>ancestry</title>
<polygon fill="white" stroke="none" points="-4,4 -4,-229 474.095,-229 474.095,4 -4,4"/>
<!-- jacob -->
<g id="node1" class="node"><title>jacob</title>
<g id="a_node1"><a xlink:href="jacob.html" xlink:title="Jacob" target="_top">
<ellipse fill="none" stroke="blue" cx="191.247" cy="-207" rx="30.5947" ry="18"/>
<text text-anchor="middle" x="191.247" y="-203.3" font-family="Times,serif" font-size="14.00">Jacob</text>
</a>
</g>
</g>
<!-- leah -->
<g id="node5" class="node"><title>leah</title>
<g id="a_node5"><a xlink:href="leah.html" xlink:title="Leah" target="_top">
<ellipse fill="none" stroke="red" cx="286.247" cy="-207" rx="28.6953" ry="18"/>
<text text-anchor="middle" x="286.247" y="-203.3" font-family="Times,serif" font-size="14.00">Leah</text>
</a>
</g>
</g>
<!-- jacob&#45;&gt;leah -->
<g id="edge9" class="edge"><title>jacob&#45;&gt;leah</title>
<path fill="none" stroke="red" d="M222.048,-207C233.835,-207 245.621,-207 257.408,-207"/>
</g>
<!-- simeon -->
<g id="node8" class="node"><title>simeon</title>
<g id="a_node8"><a xlink:href="simeon.html" xlink:title="Simeon" target="_top">
<ellipse fill="lightblue" stroke="blue" stroke-width="2" cx="238.247" cy="-105" rx="38.1938" ry="18"/>
<text text-anchor="middle" x="238.247" y="-101.3" font-family="Times,serif" font-size="14.00">Simeon</text>
</a>
</g>
</g>
<!-- jacob&#45;&gt;simeon -->
<g id="edge1" class="edge"><title>jacob&#45;&gt;simeon</title>
<path fill="none" stroke="black" d="M191.278,-188.784C191.959,-175.117 194.425,-155.895 202.247,-141 204.668,-136.391 207.918,-132.028 211.479,-128.047"/>
<polygon fill="black" stroke="black" points="214.015,-130.46 218.574,-120.897 209.046,-125.53 214.015,-130.46"/>
<text text-anchor="middle" x="231.247" y="-159.8" font-family="Times,serif" font-size="14.00">1 Ch 2:1</text>
<text text-anchor="middle" x="231.247" y="-144.8" font-family="Times,serif" font-size="14.00">Gen 29:33</text>
</g>
<!-- jakin -->
<g id="node2" class="node"><title>jakin</title>
<g id="a_node2"><a xlink:href="jakin.html" xlink:title="Jakin" target="_top">
<ellipse fill="none" stroke="blue" cx="29.2474" cy="-18" rx="29.4969" ry="18"/>
<text text-anchor="middle" x="29.2474" y="-14.3" font-family="Times,serif" font-size="14.00">Jakin</text>
</a>
</g>
</g>
<!-- jamin -->
<g id="node3" class="node"><title>jamin</title>
<g id="a_node3"><a xlink:href="jamin.html" xlink:title="Jamin" target="_top">
<ellipse fill="none" stroke="blue" cx="109.247" cy="-18" rx="32.4942" ry="18"/>
<text text-anchor="middle" x="109.247" y="-14.3" font-family="Times,serif" font-size="14.00">Jamin</text>
</a>
</g>
</g>
<!-- jemuel -->
<g id="node4" class="node"><title>jemuel</title>
<g id="a_node4"><a xlink:href="jemuel.html" xlink:title="Jemuel" target="_top">
<ellipse fill="none" stroke="blue" cx="196.247" cy="-18" rx="36.2938" ry="18"/>
<text text-anchor="middle" x="196.247" y="-14.3" font-family="Times,serif" font-size="14.00">Jemuel</text>
</a>
</g>
</g>
<!-- leah&#45;&gt;simeon -->
<g id="edge2" class="edge"><title>leah&#45;&gt;simeon</title>
<path fill="none" stroke="black" d="M280.529,-189.343C275.722,-175.991 268.352,-156.922 260.247,-141 258.552,-137.67 256.637,-134.247 254.661,-130.906"/>
<polygon fill="black" stroke="black" points="257.627,-129.049 249.398,-122.377 251.67,-132.725 257.627,-129.049"/>
<text text-anchor="middle" x="303.247" y="-152.3" font-family="Times,serif" font-size="14.00">Gen 29:33</text>
</g>
<!-- ohad -->
<g id="node6" class="node"><title>ohad</title>
<g id="a_node6"><a xlink:href="ohad.html" xlink:title="Ohad" target="_top">
<ellipse fill="none" stroke="blue" cx="280.247" cy="-18" rx="29.795" ry="18"/>
<text text-anchor="middle" x="280.247" y="-14.3" font-family="Times,serif" font-size="14.00">Ohad</text>
</a>
</g>
</g>
<!-- shaul -->
<g id="node7" class="node"><title>shaul</title>
<g id="a_node7"><a xlink:href="shaul.html" xlink:title="Shaul" target="_top">
<ellipse fill="none" stroke="blue" cx="358.247" cy="-18" rx="30.5947" ry="18"/>
<text text-anchor="middle" x="358.247" y="-14.3" font-family="Times,serif" font-size="14.00">Shaul</text>
</a>
</g>
</g>
<!-- simeon&#45;&gt;jakin -->
<g id="edge3" class="edge"><title>simeon&#45;&gt;jakin</title>
<path fill="none" stroke="black" d="M201.883,-98.9832C172.605,-94.013 130.928,-84.8011 97.2474,-69 81.295,-61.5159 65.3254,-50.0306 52.8746,-39.9544"/>
<polygon fill="black" stroke="black" points="54.7817,-36.9874 44.8604,-33.2701 50.2981,-42.3631 54.7817,-36.9874"/>
<text text-anchor="middle" x="118.747" y="-57.8" font-family="Times,serif" font-size="14.00">Ex 6:15</text>
</g>
<!-- simeon&#45;&gt;jamin -->
<g id="edge4" class="edge"><title>simeon&#45;&gt;jamin</title>
<path fill="none" stroke="black" d="M208.921,-93.121C194.296,-87.0552 176.694,-78.7551 162.247,-69 150.781,-61.2573 139.438,-51.0037 130.206,-41.7981"/>
<polygon fill="black" stroke="black" points="132.476,-39.112 122.991,-34.39 127.461,-43.9959 132.476,-39.112"/>
<text text-anchor="middle" x="183.747" y="-57.8" font-family="Times,serif" font-size="14.00">Ex 6:15</text>
</g>
<!-- simeon&#45;&gt;jemuel -->
<g id="edge5" class="edge"><title>simeon&#45;&gt;jemuel</title>
<path fill="none" stroke="black" d="M226.483,-87.7118C222.619,-81.9619 218.489,-75.3456 215.247,-69 211.488,-61.64 208.046,-53.3542 205.155,-45.676"/>
<polygon fill="black" stroke="black" points="208.374,-44.2834 201.692,-36.0611 201.788,-46.6555 208.374,-44.2834"/>
<text text-anchor="middle" x="236.747" y="-57.8" font-family="Times,serif" font-size="14.00">Ex 6:15</text>
</g>
<!-- simeon&#45;&gt;ohad -->
<g id="edge6" class="edge"><title>simeon&#45;&gt;ohad</title>
<path fill="none" stroke="black" d="M248.171,-87.4593C251.506,-81.6892 255.161,-75.1247 258.247,-69 262.089,-61.378 265.948,-52.9354 269.338,-45.1912"/>
<polygon fill="black" stroke="black" points="272.612,-46.4393 273.345,-35.8698 266.18,-43.675 272.612,-46.4393"/>
<text text-anchor="middle" x="287.747" y="-57.8" font-family="Times,serif" font-size="14.00">Ex 6:15</text>
</g>
<!-- simeon&#45;&gt;shaul -->
<g id="edge7" class="edge"><title>simeon&#45;&gt;shaul</title>
<path fill="none" stroke="black" d="M267.889,-93.399C282.333,-87.4526 299.505,-79.1744 313.247,-69 323.164,-61.6579 332.561,-51.8594 340.177,-42.8827"/>
<polygon fill="black" stroke="black" points="343.027,-44.9256 346.635,-34.9639 337.602,-40.5016 343.027,-44.9256"/>
<text text-anchor="middle" x="351.747" y="-57.8" font-family="Times,serif" font-size="14.00">Ex 6:15</text>
</g>
<!-- zohar -->
<g id="node9" class="node"><title>zohar</title>
<g id="a_node9"><a xlink:href="zohar.html" xlink:title="Zohar" target="_top">
<ellipse fill="none" stroke="blue" cx="438.247" cy="-18" rx="31.6951" ry="18"/>
<text text-anchor="middle" x="438.247" y="-14.3" font-family="Times,serif" font-size="14.00">Zohar</text>
</a>
</g>
</g>
<!-- simeon&#45;&gt;zohar -->
<g id="edge8" class="edge"><title>simeon&#45;&gt;zohar</title>
<path fill="none" stroke="black" d="M274.914,-99.2699C303.873,-94.4932 344.688,-85.4017 377.247,-69 391.418,-61.8615 405.258,-50.9413 416.163,-41.1254"/>
<polygon fill="black" stroke="black" points="418.619,-43.6212 423.548,-34.2429 413.847,-38.5003 418.619,-43.6212"/>
<text text-anchor="middle" x="420.747" y="-57.8" font-family="Times,serif" font-size="14.00">Ex 6:15</text>
</g>
</g>
</svg>
