<?xml version="1.0" encoding="UTF-8" standalone="no"?>
<!DOCTYPE svg PUBLIC "-//W3C//DTD SVG 1.1//EN"
 "http://www.w3.org/Graphics/SVG/1.1/DTD/svg11.dtd">
<!-- Generated by graphviz version 2.38.0 (20140413.2041)
 -->
<!-- Title: ancestry Pages: 1 -->
<svg width="103pt" height="218pt"
 viewBox="0.00 0.00 103.30 218.00" xmlns="http://www.w3.org/2000/svg" xmlns:xlink="http://www.w3.org/1999/xlink">
<g id="graph0" class="graph" transform="scale(1 1) rotate(0) translate(4 214)">
<title>ancestry</title>
<polygon fill="white" stroke="none" points="-4,4 -4,-214 99.2964,-214 99.2964,4 -4,4"/>
<!-- eleasah -->
<g id="node1" class="node"><title>eleasah</title>
<g id="a_node1"><a xlink:href="eleasah.html" xlink:title="Eleasah" target="_top">
<ellipse fill="none" stroke="blue" cx="40.2964" cy="-192" rx="38.1938" ry="18"/>
<text text-anchor="middle" x="40.2964" y="-188.3" font-family="Times,serif" font-size="14.00">Eleasah</text>
</a>
</g>
</g>
<!-- sismai -->
<g id="node3" class="node"><title>sismai</title>
<g id="a_node3"><a xlink:href="sismai.html" xlink:title="Sismai" target="_top">
<ellipse fill="lightblue" stroke="blue" stroke-width="2" cx="40.2964" cy="-105" rx="35.194" ry="18"/>
<text text-anchor="middle" x="40.2964" y="-101.3" font-family="Times,serif" font-size="14.00">Sismai</text>
</a>
</g>
</g>
<!-- eleasah&#45;&gt;sismai -->
<g id="edge1" class="edge"><title>eleasah&#45;&gt;sismai</title>
<path fill="none" stroke="black" d="M40.2964,-173.799C40.2964,-162.163 40.2964,-146.548 40.2964,-133.237"/>
<polygon fill="black" stroke="black" points="43.7965,-133.175 40.2964,-123.175 36.7965,-133.175 43.7965,-133.175"/>
<text text-anchor="middle" x="67.7964" y="-144.8" font-family="Times,serif" font-size="14.00">1 Ch 2:40</text>
</g>
<!-- shallum -->
<g id="node2" class="node"><title>shallum</title>
<g id="a_node2"><a xlink:href="shallum.html" xlink:title="Shallum" target="_top">
<ellipse fill="none" stroke="blue" cx="40.2964" cy="-18" rx="40.0939" ry="18"/>
<text text-anchor="middle" x="40.2964" y="-14.3" font-family="Times,serif" font-size="14.00">Shallum</text>
</a>
</g>
</g>
<!-- sismai&#45;&gt;shallum -->
<g id="edge2" class="edge"><title>sismai&#45;&gt;shallum</title>
<path fill="none" stroke="black" d="M40.2964,-86.799C40.2964,-75.1626 40.2964,-59.5479 40.2964,-46.2368"/>
<polygon fill="black" stroke="black" points="43.7965,-46.1754 40.2964,-36.1754 36.7965,-46.1755 43.7965,-46.1754"/>
<text text-anchor="middle" x="67.7964" y="-57.8" font-family="Times,serif" font-size="14.00">1 Ch 2:40</text>
</g>
</g>
</svg>
