<?xml version="1.0" encoding="UTF-8" standalone="no"?>
<!DOCTYPE svg PUBLIC "-//W3C//DTD SVG 1.1//EN"
 "http://www.w3.org/Graphics/SVG/1.1/DTD/svg11.dtd">
<!-- Generated by graphviz version 2.38.0 (20140413.2041)
 -->
<!-- Title: ancestry Pages: 1 -->
<svg width="186pt" height="218pt"
 viewBox="0.00 0.00 185.94 218.00" xmlns="http://www.w3.org/2000/svg" xmlns:xlink="http://www.w3.org/1999/xlink">
<g id="graph0" class="graph" transform="scale(1 1) rotate(0) translate(4 214)">
<title>ancestry</title>
<polygon fill="white" stroke="none" points="-4,4 -4,-214 181.943,-214 181.943,4 -4,4"/>
<!-- bathsheba -->
<g id="node1" class="node"><title>bathsheba</title>
<g id="a_node1"><a xlink:href="bathsheba.html" xlink:title="Bathsheba" target="_top">
<ellipse fill="none" stroke="red" cx="47.4458" cy="-192" rx="47.3916" ry="18"/>
<text text-anchor="middle" x="47.4458" y="-188.3" font-family="Times,serif" font-size="14.00">Bathsheba</text>
</a>
</g>
</g>
<!-- solomon -->
<g id="node4" class="node"><title>solomon</title>
<g id="a_node4"><a xlink:href="solomon.html" xlink:title="Solomon" target="_top">
<ellipse fill="lightblue" stroke="blue" stroke-width="2" cx="96.4458" cy="-105" rx="42.7926" ry="18"/>
<text text-anchor="middle" x="96.4458" y="-101.3" font-family="Times,serif" font-size="14.00">Solomon</text>
</a>
</g>
</g>
<!-- bathsheba&#45;&gt;solomon -->
<g id="edge1" class="edge"><title>bathsheba&#45;&gt;solomon</title>
<path fill="none" stroke="black" d="M57.1266,-174.207C64.1063,-162.099 73.6562,-145.533 81.5965,-131.759"/>
<polygon fill="black" stroke="black" points="84.823,-133.17 86.7851,-122.758 78.7585,-129.674 84.823,-133.17"/>
<text text-anchor="middle" x="97.4458" y="-144.8" font-family="Times,serif" font-size="14.00">Mat 1:6</text>
</g>
<!-- david -->
<g id="node2" class="node"><title>david</title>
<g id="a_node2"><a xlink:href="david.html" xlink:title="David" target="_top">
<ellipse fill="none" stroke="blue" cx="145.446" cy="-192" rx="32.4942" ry="18"/>
<text text-anchor="middle" x="145.446" y="-188.3" font-family="Times,serif" font-size="14.00">David</text>
</a>
</g>
</g>
<!-- david&#45;&gt;solomon -->
<g id="edge2" class="edge"><title>david&#45;&gt;solomon</title>
<path fill="none" stroke="black" d="M139.278,-174.29C135.315,-164.329 129.74,-151.601 123.446,-141 121.346,-137.463 118.942,-133.874 116.453,-130.408"/>
<polygon fill="black" stroke="black" points="119.037,-128.021 110.217,-122.15 113.45,-132.239 119.037,-128.021"/>
<text text-anchor="middle" x="153.446" y="-144.8" font-family="Times,serif" font-size="14.00">Mat 1:6</text>
</g>
<!-- rehoboam -->
<g id="node3" class="node"><title>rehoboam</title>
<g id="a_node3"><a xlink:href="rehoboam.html" xlink:title="Rehoboam" target="_top">
<ellipse fill="none" stroke="blue" cx="96.4458" cy="-18" rx="49.2915" ry="18"/>
<text text-anchor="middle" x="96.4458" y="-14.3" font-family="Times,serif" font-size="14.00">Rehoboam</text>
</a>
</g>
</g>
<!-- solomon&#45;&gt;rehoboam -->
<g id="edge3" class="edge"><title>solomon&#45;&gt;rehoboam</title>
<path fill="none" stroke="black" d="M96.4458,-86.799C96.4458,-75.1626 96.4458,-59.5479 96.4458,-46.2368"/>
<polygon fill="black" stroke="black" points="99.9459,-46.1754 96.4458,-36.1754 92.9459,-46.1755 99.9459,-46.1754"/>
<text text-anchor="middle" x="118.446" y="-57.8" font-family="Times,serif" font-size="14.00">Mat 1:7</text>
</g>
</g>
</svg>
