<?xml version="1.0" encoding="UTF-8" standalone="no"?>
<!DOCTYPE svg PUBLIC "-//W3C//DTD SVG 1.1//EN"
 "http://www.w3.org/Graphics/SVG/1.1/DTD/svg11.dtd">
<!-- Generated by graphviz version 2.38.0 (20140413.2041)
 -->
<!-- Title: ancestry Pages: 1 -->
<svg width="157pt" height="146pt"
 viewBox="0.00 0.00 156.55 146.00" xmlns="http://www.w3.org/2000/svg" xmlns:xlink="http://www.w3.org/1999/xlink">
<g id="graph0" class="graph" transform="scale(1 1) rotate(0) translate(4 142)">
<title>ancestry</title>
<polygon fill="white" stroke="none" points="-4,4 -4,-142 152.547,-142 152.547,4 -4,4"/>
<!-- perez -->
<g id="node1" class="node"><title>perez</title>
<g id="a_node1"><a xlink:href="perez.html" xlink:title="Perez" target="_top">
<ellipse fill="none" stroke="blue" cx="30.5473" cy="-18" rx="30.5947" ry="18"/>
<text text-anchor="middle" x="30.5473" y="-14.3" font-family="Times,serif" font-size="14.00">Perez</text>
</a>
</g>
</g>
<!-- tamar -->
<g id="node2" class="node"><title>tamar</title>
<g id="a_node2"><a xlink:href="tamar.html" xlink:title="Tamar" target="_top">
<ellipse fill="lightpink" stroke="red" stroke-width="2" cx="70.5473" cy="-120" rx="34.394" ry="18"/>
<text text-anchor="middle" x="70.5473" y="-116.3" font-family="Times,serif" font-size="14.00">Tamar</text>
</a>
</g>
</g>
<!-- tamar&#45;&gt;perez -->
<g id="edge1" class="edge"><title>tamar&#45;&gt;perez</title>
<path fill="none" stroke="black" d="M54.4257,-103.951C49.1966,-98.2038 43.8882,-91.2724 40.5473,-84 35.183,-72.3232 32.6026,-58.3503 31.3951,-46.357"/>
<polygon fill="black" stroke="black" points="34.8589,-45.737 30.6316,-36.0221 27.878,-46.2528 34.8589,-45.737"/>
<text text-anchor="middle" x="64.5473" y="-72.8" font-family="Times,serif" font-size="14.00">1 Ch 2:4</text>
<text text-anchor="middle" x="64.5473" y="-57.8" font-family="Times,serif" font-size="14.00">Mat 1:3</text>
</g>
<!-- zerah -->
<g id="node3" class="node"><title>zerah</title>
<g id="a_node3"><a xlink:href="zerah.html" xlink:title="Zerah" target="_top">
<ellipse fill="none" stroke="blue" cx="110.547" cy="-18" rx="31.3957" ry="18"/>
<text text-anchor="middle" x="110.547" y="-14.3" font-family="Times,serif" font-size="14.00">Zerah</text>
</a>
</g>
</g>
<!-- tamar&#45;&gt;zerah -->
<g id="edge2" class="edge"><title>tamar&#45;&gt;zerah</title>
<path fill="none" stroke="black" d="M79.6687,-102.506C82.6855,-96.74 85.9354,-90.1658 88.5473,-84 93.7946,-71.6125 98.6933,-57.5063 102.53,-45.6077"/>
<polygon fill="black" stroke="black" points="105.947,-46.408 105.61,-35.8185 99.27,-44.3069 105.947,-46.408"/>
<text text-anchor="middle" x="124.547" y="-72.8" font-family="Times,serif" font-size="14.00">1 Ch 2:4</text>
<text text-anchor="middle" x="124.547" y="-57.8" font-family="Times,serif" font-size="14.00">Mat 1:3</text>
</g>
</g>
</svg>
