<?xml version="1.0" encoding="UTF-8" standalone="no"?>
<!DOCTYPE svg PUBLIC "-//W3C//DTD SVG 1.1//EN"
 "http://www.w3.org/Graphics/SVG/1.1/DTD/svg11.dtd">
<!-- Generated by graphviz version 2.38.0 (20140413.2041)
 -->
<!-- Title: ancestry Pages: 1 -->
<svg width="189pt" height="131pt"
 viewBox="0.00 0.00 188.79 131.00" xmlns="http://www.w3.org/2000/svg" xmlns:xlink="http://www.w3.org/1999/xlink">
<g id="graph0" class="graph" transform="scale(1 1) rotate(0) translate(4 127)">
<title>ancestry</title>
<polygon fill="white" stroke="none" points="-4,4 -4,-127 184.794,-127 184.794,4 -4,4"/>
<!-- reumah -->
<g id="node1" class="node"><title>reumah</title>
<g id="a_node1"><a xlink:href="reumah.html" xlink:title="Reumah" target="_top">
<ellipse fill="none" stroke="red" cx="140.497" cy="-105" rx="40.0939" ry="18"/>
<text text-anchor="middle" x="140.497" y="-101.3" font-family="Times,serif" font-size="14.00">Reumah</text>
</a>
</g>
</g>
<!-- tebah -->
<g id="node2" class="node"><title>tebah</title>
<g id="a_node2"><a xlink:href="tebah.html" xlink:title="Tebah" target="_top">
<ellipse fill="lightblue" stroke="blue" stroke-width="2" cx="89.4971" cy="-18" rx="32.4942" ry="18"/>
<text text-anchor="middle" x="89.4971" y="-14.3" font-family="Times,serif" font-size="14.00">Tebah</text>
</a>
</g>
</g>
<!-- reumah&#45;&gt;tebah -->
<g id="edge1" class="edge"><title>reumah&#45;&gt;tebah</title>
<path fill="none" stroke="black" d="M130.421,-87.2067C122.991,-74.824 112.764,-57.7776 104.392,-43.8242"/>
<polygon fill="black" stroke="black" points="107.352,-41.9558 99.2061,-35.1817 101.35,-45.5574 107.352,-41.9558"/>
<text text-anchor="middle" x="146.497" y="-57.8" font-family="Times,serif" font-size="14.00">Gen 22:24</text>
</g>
<!-- terahs_nahor -->
<g id="node3" class="node"><title>terahs_nahor</title>
<g id="a_node3"><a xlink:href="terahs_nahor.html" xlink:title="Nahor" target="_top">
<ellipse fill="none" stroke="blue" cx="32.4971" cy="-105" rx="32.4942" ry="18"/>
<text text-anchor="middle" x="32.4971" y="-101.3" font-family="Times,serif" font-size="14.00">Nahor</text>
</a>
</g>
</g>
<!-- terahs_nahor&#45;&gt;reumah -->
<g id="edge3" class="edge"><title>terahs_nahor&#45;&gt;reumah</title>
<path fill="none" stroke="red" d="M65.4034,-105C76.9412,-105 88.4791,-105 100.017,-105"/>
</g>
<!-- terahs_nahor&#45;&gt;tebah -->
<g id="edge2" class="edge"><title>terahs_nahor&#45;&gt;tebah</title>
<path fill="none" stroke="black" d="M36.4188,-86.8166C39.2625,-76.6877 43.7996,-63.9495 50.4971,-54 53.9469,-48.8751 58.3107,-44.0064 62.8608,-39.6185"/>
<polygon fill="black" stroke="black" points="65.445,-42.0029 70.5658,-32.7277 60.7786,-36.7852 65.445,-42.0029"/>
<text text-anchor="middle" x="79.4971" y="-57.8" font-family="Times,serif" font-size="14.00">Gen 22:24</text>
</g>
</g>
</svg>
