<?xml version="1.0" encoding="UTF-8" standalone="no"?>
<!DOCTYPE svg PUBLIC "-//W3C//DTD SVG 1.1//EN"
 "http://www.w3.org/Graphics/SVG/1.1/DTD/svg11.dtd">
<!-- Generated by graphviz version 2.38.0 (20140413.2041)
 -->
<!-- Title: ancestry Pages: 1 -->
<svg width="1882pt" height="218pt"
 viewBox="0.00 0.00 1881.68 218.00" xmlns="http://www.w3.org/2000/svg" xmlns:xlink="http://www.w3.org/1999/xlink">
<g id="graph0" class="graph" transform="scale(1 1) rotate(0) translate(4 214)">
<title>ancestry</title>
<polygon fill="white" stroke="none" points="-4,4 -4,-214 1877.68,-214 1877.68,4 -4,4"/>
<!-- bethuel -->
<g id="node1" class="node"><title>bethuel</title>
<g id="a_node1"><a xlink:href="bethuel.html" xlink:title="Bethuel" target="_top">
<ellipse fill="none" stroke="blue" cx="1272.68" cy="-18" rx="38.1938" ry="18"/>
<text text-anchor="middle" x="1272.68" y="-14.3" font-family="Times,serif" font-size="14.00">Bethuel</text>
</a>
</g>
</g>
<!-- buz -->
<g id="node2" class="node"><title>buz</title>
<g id="a_node2"><a xlink:href="buz.html" xlink:title="Buz" target="_top">
<ellipse fill="none" stroke="blue" cx="636.682" cy="-18" rx="27" ry="18"/>
<text text-anchor="middle" x="636.682" y="-14.3" font-family="Times,serif" font-size="14.00">Buz</text>
</a>
</g>
</g>
<!-- chesed -->
<g id="node3" class="node"><title>chesed</title>
<g id="a_node3"><a xlink:href="chesed.html" xlink:title="Chesed" target="_top">
<ellipse fill="none" stroke="blue" cx="1436.68" cy="-18" rx="36.2938" ry="18"/>
<text text-anchor="middle" x="1436.68" y="-14.3" font-family="Times,serif" font-size="14.00">Chesed</text>
</a>
</g>
</g>
<!-- geham -->
<g id="node4" class="node"><title>geham</title>
<g id="a_node4"><a xlink:href="geham.html" xlink:title="Geham" target="_top">
<ellipse fill="none" stroke="blue" cx="305.682" cy="-18" rx="36.2938" ry="18"/>
<text text-anchor="middle" x="305.682" y="-14.3" font-family="Times,serif" font-size="14.00">Geham</text>
</a>
</g>
</g>
<!-- hazo -->
<g id="node5" class="node"><title>hazo</title>
<g id="a_node5"><a xlink:href="hazo.html" xlink:title="Hazo" target="_top">
<ellipse fill="none" stroke="blue" cx="793.682" cy="-18" rx="29.4969" ry="18"/>
<text text-anchor="middle" x="793.682" y="-14.3" font-family="Times,serif" font-size="14.00">Hazo</text>
</a>
</g>
</g>
<!-- huz -->
<g id="node6" class="node"><title>huz</title>
<g id="a_node6"><a xlink:href="huz.html" xlink:title="Huz" target="_top">
<ellipse fill="none" stroke="blue" cx="1114.68" cy="-18" rx="27" ry="18"/>
<text text-anchor="middle" x="1114.68" y="-14.3" font-family="Times,serif" font-size="14.00">Huz</text>
</a>
</g>
</g>
<!-- jidlaph -->
<g id="node7" class="node"><title>jidlaph</title>
<g id="a_node7"><a xlink:href="jidlaph.html" xlink:title="Jidlaph" target="_top">
<ellipse fill="none" stroke="blue" cx="955.682" cy="-18" rx="36.2938" ry="18"/>
<text text-anchor="middle" x="955.682" y="-14.3" font-family="Times,serif" font-size="14.00">Jidlaph</text>
</a>
</g>
</g>
<!-- kemuel -->
<g id="node8" class="node"><title>kemuel</title>
<g id="a_node8"><a xlink:href="kemuel.html" xlink:title="Kemuel" target="_top">
<ellipse fill="none" stroke="blue" cx="1601.68" cy="-18" rx="38.9931" ry="18"/>
<text text-anchor="middle" x="1601.68" y="-14.3" font-family="Times,serif" font-size="14.00">Kemuel</text>
</a>
</g>
</g>
<!-- maachah -->
<g id="node9" class="node"><title>maachah</title>
<g id="a_node9"><a xlink:href="maachah.html" xlink:title="Maachah" target="_top">
<ellipse fill="none" stroke="blue" cx="196.682" cy="-18" rx="43.5923" ry="18"/>
<text text-anchor="middle" x="196.682" y="-14.3" font-family="Times,serif" font-size="14.00">Maachah</text>
</a>
</g>
</g>
<!-- milcah -->
<g id="node10" class="node"><title>milcah</title>
<g id="a_node10"><a xlink:href="milcah.html" xlink:title="Milcah" target="_top">
<ellipse fill="none" stroke="red" cx="1283.68" cy="-105" rx="36.2938" ry="18"/>
<text text-anchor="middle" x="1283.68" y="-101.3" font-family="Times,serif" font-size="14.00">Milcah</text>
</a>
</g>
</g>
<!-- milcah&#45;&gt;bethuel -->
<g id="edge1" class="edge"><title>milcah&#45;&gt;bethuel</title>
<path fill="none" stroke="black" d="M1320.17,-103.057C1370.73,-100.423 1452.75,-90.5719 1423.68,-54 1410.86,-37.8658 1359.33,-28.509 1319.99,-23.5952"/>
<polygon fill="black" stroke="black" points="1320.38,-20.1162 1310.03,-22.4115 1319.55,-27.0673 1320.38,-20.1162"/>
<text text-anchor="middle" x="1459.68" y="-57.8" font-family="Times,serif" font-size="14.00">Gen 22:22</text>
</g>
<!-- milcah&#45;&gt;buz -->
<g id="edge2" class="edge"><title>milcah&#45;&gt;buz</title>
<path fill="none" stroke="black" d="M1247.26,-104.145C1148.45,-104.105 877.213,-100.999 794.682,-69 784.65,-65.1107 785.334,-58.7521 775.682,-54 742.873,-37.8476 701.928,-28.7062 672.999,-23.8492"/>
<polygon fill="black" stroke="black" points="673.347,-20.3607 662.922,-22.2486 672.249,-27.274 673.347,-20.3607"/>
<text text-anchor="middle" x="823.682" y="-57.8" font-family="Times,serif" font-size="14.00">Gen 22:21</text>
</g>
<!-- milcah&#45;&gt;chesed -->
<g id="edge3" class="edge"><title>milcah&#45;&gt;chesed</title>
<path fill="none" stroke="black" d="M1319.91,-102.456C1396.28,-98.829 1568.26,-88.5582 1585.68,-69 1590.12,-64.022 1589.82,-59.2253 1585.68,-54 1572.92,-37.8925 1521.18,-28.4722 1482.23,-23.5385"/>
<polygon fill="black" stroke="black" points="1482.48,-20.043 1472.13,-22.3218 1481.64,-26.9928 1482.48,-20.043"/>
<text text-anchor="middle" x="1617.68" y="-57.8" font-family="Times,serif" font-size="14.00">Gen 22:22</text>
</g>
<!-- milcah&#45;&gt;hazo -->
<g id="edge4" class="edge"><title>milcah&#45;&gt;hazo</title>
<path fill="none" stroke="black" d="M1247.63,-102.211C1174.83,-98.2557 1012.81,-87.6098 960.682,-69 949.188,-64.8965 948.883,-58.8441 937.682,-54 903.356,-39.1556 861.583,-29.8844 831.888,-24.6434"/>
<polygon fill="black" stroke="black" points="832.365,-21.1743 821.921,-22.9551 831.196,-28.076 832.365,-21.1743"/>
<text text-anchor="middle" x="989.682" y="-57.8" font-family="Times,serif" font-size="14.00">Gen 22:22</text>
</g>
<!-- milcah&#45;&gt;huz -->
<g id="edge5" class="edge"><title>milcah&#45;&gt;huz</title>
<path fill="none" stroke="black" d="M1280.24,-86.7853C1277.18,-75.8548 1271.59,-62.2597 1261.68,-54 1245.11,-40.1791 1189.12,-29.6664 1151.22,-23.9184"/>
<polygon fill="black" stroke="black" points="1151.46,-20.4165 1141.06,-22.4247 1150.45,-27.342 1151.46,-20.4165"/>
<text text-anchor="middle" x="1301.68" y="-57.8" font-family="Times,serif" font-size="14.00">Gen 22:21</text>
</g>
<!-- milcah&#45;&gt;jidlaph -->
<g id="edge6" class="edge"><title>milcah&#45;&gt;jidlaph</title>
<path fill="none" stroke="black" d="M1248.34,-100.073C1214.96,-95.5025 1163.98,-86.2667 1122.68,-69 1111.42,-64.2927 1110.88,-58.8441 1099.68,-54 1067.68,-40.1604 1029.2,-31.1651 1000.08,-25.7636"/>
<polygon fill="black" stroke="black" points="1000.65,-22.3106 990.192,-24.0009 999.423,-29.2019 1000.65,-22.3106"/>
<text text-anchor="middle" x="1151.68" y="-57.8" font-family="Times,serif" font-size="14.00">Gen 22:22</text>
</g>
<!-- milcah&#45;&gt;kemuel -->
<g id="edge7" class="edge"><title>milcah&#45;&gt;kemuel</title>
<path fill="none" stroke="black" d="M1320.08,-104.029C1424.39,-103.736 1718.81,-100.134 1747.68,-69 1752.21,-64.1119 1751.81,-59.2348 1747.68,-54 1735.58,-38.6594 1687.59,-29.2836 1649.89,-24.1471"/>
<polygon fill="black" stroke="black" points="1649.94,-20.6237 1639.57,-22.8093 1649.04,-27.5656 1649.94,-20.6237"/>
<text text-anchor="middle" x="1779.68" y="-57.8" font-family="Times,serif" font-size="14.00">Gen 22:21</text>
</g>
<!-- pildash -->
<g id="node11" class="node"><title>pildash</title>
<g id="a_node11"><a xlink:href="pildash.html" xlink:title="Pildash" target="_top">
<ellipse fill="none" stroke="blue" cx="1769.68" cy="-18" rx="36.2938" ry="18"/>
<text text-anchor="middle" x="1769.68" y="-14.3" font-family="Times,serif" font-size="14.00">Pildash</text>
</a>
</g>
</g>
<!-- milcah&#45;&gt;pildash -->
<g id="edge8" class="edge"><title>milcah&#45;&gt;pildash</title>
<path fill="none" stroke="black" d="M1320.21,-104.395C1434.41,-105.251 1779.15,-104.824 1812.68,-69 1822.05,-58.9891 1813.24,-47.4017 1801.21,-37.9038"/>
<polygon fill="black" stroke="black" points="1803.17,-34.9964 1793,-32.0018 1799.08,-40.6804 1803.17,-34.9964"/>
<text text-anchor="middle" x="1844.68" y="-57.8" font-family="Times,serif" font-size="14.00">Gen 22:22</text>
</g>
<!-- reumah -->
<g id="node12" class="node"><title>reumah</title>
<g id="a_node12"><a xlink:href="reumah.html" xlink:title="Reumah" target="_top">
<ellipse fill="none" stroke="red" cx="662.682" cy="-105" rx="40.0939" ry="18"/>
<text text-anchor="middle" x="662.682" y="-101.3" font-family="Times,serif" font-size="14.00">Reumah</text>
</a>
</g>
</g>
<!-- reumah&#45;&gt;geham -->
<g id="edge9" class="edge"><title>reumah&#45;&gt;geham</title>
<path fill="none" stroke="black" d="M629.066,-94.898C618.431,-92.1725 606.603,-89.3 595.682,-87 548.493,-77.0617 535.081,-82.1373 488.682,-69 471.608,-64.166 468.579,-59.4168 451.682,-54 417.6,-43.0742 378.076,-33.7997 348.753,-27.5484"/>
<polygon fill="black" stroke="black" points="349.338,-24.095 338.832,-25.4655 347.899,-30.9456 349.338,-24.095"/>
<text text-anchor="middle" x="517.682" y="-57.8" font-family="Times,serif" font-size="14.00">Gen 22:24</text>
</g>
<!-- reumah&#45;&gt;maachah -->
<g id="edge10" class="edge"><title>reumah&#45;&gt;maachah</title>
<path fill="none" stroke="black" d="M629.873,-94.4112C619.07,-91.5942 606.941,-88.7913 595.682,-87 477.785,-68.2429 444.144,-95.2283 327.682,-69 309.968,-65.0108 306.623,-60.5312 289.682,-54 272.752,-47.4736 254.037,-40.4024 237.86,-34.3355"/>
<polygon fill="black" stroke="black" points="238.746,-30.9302 228.154,-30.7017 236.292,-37.4858 238.746,-30.9302"/>
<text text-anchor="middle" x="356.682" y="-57.8" font-family="Times,serif" font-size="14.00">Gen 22:24</text>
</g>
<!-- tebah -->
<g id="node13" class="node"><title>tebah</title>
<g id="a_node13"><a xlink:href="tebah.html" xlink:title="Tebah" target="_top">
<ellipse fill="none" stroke="blue" cx="475.682" cy="-18" rx="32.4942" ry="18"/>
<text text-anchor="middle" x="475.682" y="-14.3" font-family="Times,serif" font-size="14.00">Tebah</text>
</a>
</g>
</g>
<!-- reumah&#45;&gt;tebah -->
<g id="edge11" class="edge"><title>reumah&#45;&gt;tebah</title>
<path fill="none" stroke="black" d="M650.702,-87.7308C641.703,-76.6417 628.432,-62.4834 613.682,-54 584.008,-36.9337 546.053,-28.0893 517.461,-23.5657"/>
<polygon fill="black" stroke="black" points="517.785,-20.076 507.383,-22.0874 516.769,-27.0018 517.785,-20.076"/>
<text text-anchor="middle" x="661.682" y="-57.8" font-family="Times,serif" font-size="14.00">Gen 22:24</text>
</g>
<!-- thahash -->
<g id="node16" class="node"><title>thahash</title>
<g id="a_node16"><a xlink:href="thahash.html" xlink:title="Thahash" target="_top">
<ellipse fill="none" stroke="blue" cx="73.6816" cy="-18" rx="40.0939" ry="18"/>
<text text-anchor="middle" x="73.6816" y="-14.3" font-family="Times,serif" font-size="14.00">Thahash</text>
</a>
</g>
</g>
<!-- reumah&#45;&gt;thahash -->
<g id="edge12" class="edge"><title>reumah&#45;&gt;thahash</title>
<path fill="none" stroke="black" d="M629.899,-94.2425C619.097,-91.4154 606.962,-88.6491 595.682,-87 501.048,-73.1655 257.86,-94.4942 165.682,-69 143.152,-62.7689 120.044,-50.1828 102.623,-39.1977"/>
<polygon fill="black" stroke="black" points="104.358,-36.151 94.0644,-33.6414 100.546,-42.0223 104.358,-36.151"/>
<text text-anchor="middle" x="194.682" y="-57.8" font-family="Times,serif" font-size="14.00">Gen 22:24</text>
</g>
<!-- terah -->
<g id="node14" class="node"><title>terah</title>
<g id="a_node14"><a xlink:href="terah.html" xlink:title="Terah" target="_top">
<ellipse fill="none" stroke="blue" cx="554.682" cy="-192" rx="31.3957" ry="18"/>
<text text-anchor="middle" x="554.682" y="-188.3" font-family="Times,serif" font-size="14.00">Terah</text>
</a>
</g>
</g>
<!-- terahs_nahor -->
<g id="node15" class="node"><title>terahs_nahor</title>
<g id="a_node15"><a xlink:href="terahs_nahor.html" xlink:title="Nahor" target="_top">
<ellipse fill="lightblue" stroke="blue" stroke-width="2" cx="554.682" cy="-105" rx="32.4942" ry="18"/>
<text text-anchor="middle" x="554.682" y="-101.3" font-family="Times,serif" font-size="14.00">Nahor</text>
</a>
</g>
</g>
<!-- terah&#45;&gt;terahs_nahor -->
<g id="edge13" class="edge"><title>terah&#45;&gt;terahs_nahor</title>
<path fill="none" stroke="black" d="M554.682,-173.799C554.682,-162.163 554.682,-146.548 554.682,-133.237"/>
<polygon fill="black" stroke="black" points="558.182,-133.175 554.682,-123.175 551.182,-133.175 558.182,-133.175"/>
<text text-anchor="middle" x="583.682" y="-144.8" font-family="Times,serif" font-size="14.00">Gen 11:27</text>
</g>
<!-- terahs_nahor&#45;&gt;bethuel -->
<g id="edge14" class="edge"><title>terahs_nahor&#45;&gt;bethuel</title>
<path fill="none" stroke="black" d="M581.681,-94.6917C591.619,-91.6735 603.046,-88.6742 613.682,-87 675.947,-77.1984 1121.47,-90.6142 1180.68,-69 1190.79,-65.3107 1190.55,-59.6938 1199.68,-54 1210.97,-46.957 1223.9,-40.3358 1235.71,-34.7879"/>
<polygon fill="black" stroke="black" points="1237.25,-37.9304 1244.88,-30.5812 1234.33,-31.5673 1237.25,-37.9304"/>
<text text-anchor="middle" x="1228.68" y="-57.8" font-family="Times,serif" font-size="14.00">Gen 22:22</text>
</g>
<!-- terahs_nahor&#45;&gt;buz -->
<g id="edge15" class="edge"><title>terahs_nahor&#45;&gt;buz</title>
<path fill="none" stroke="black" d="M550.66,-86.8678C549.225,-76.5099 549.291,-63.5138 555.682,-54 565.797,-38.9405 583.886,-30.3241 600.408,-25.4124"/>
<polygon fill="black" stroke="black" points="601.613,-28.7156 610.408,-22.8084 599.848,-21.9415 601.613,-28.7156"/>
<text text-anchor="middle" x="584.682" y="-57.8" font-family="Times,serif" font-size="14.00">Gen 22:21</text>
</g>
<!-- terahs_nahor&#45;&gt;chesed -->
<g id="edge16" class="edge"><title>terahs_nahor&#45;&gt;chesed</title>
<path fill="none" stroke="black" d="M581.674,-94.652C591.612,-91.6298 603.041,-88.6382 613.682,-87 772.088,-62.6138 1180.05,-111.136 1334.68,-69 1347.93,-65.391 1349.45,-60.2398 1361.68,-54 1374.43,-47.4942 1388.61,-40.7523 1401.18,-34.9429"/>
<polygon fill="black" stroke="black" points="1402.8,-38.0517 1410.43,-30.7016 1399.88,-31.689 1402.8,-38.0517"/>
<text text-anchor="middle" x="1390.68" y="-57.8" font-family="Times,serif" font-size="14.00">Gen 22:22</text>
</g>
<!-- terahs_nahor&#45;&gt;geham -->
<g id="edge17" class="edge"><title>terahs_nahor&#45;&gt;geham</title>
<path fill="none" stroke="black" d="M522.206,-102.893C444.121,-99.8992 250.872,-90.3823 231.682,-69 217.236,-52.9048 240.501,-39.5052 264.671,-30.642"/>
<polygon fill="black" stroke="black" points="265.932,-33.9095 274.258,-27.3565 263.663,-27.2876 265.932,-33.9095"/>
<text text-anchor="middle" x="260.682" y="-57.8" font-family="Times,serif" font-size="14.00">Gen 22:24</text>
</g>
<!-- terahs_nahor&#45;&gt;hazo -->
<g id="edge18" class="edge"><title>terahs_nahor&#45;&gt;hazo</title>
<path fill="none" stroke="black" d="M582.497,-95.6022C592.315,-92.7398 603.455,-89.6068 613.682,-87 649.417,-77.8904 660.69,-83.3028 694.682,-69 705.93,-64.2668 706.999,-59.9016 717.682,-54 731.392,-46.4255 747.036,-39.0223 760.552,-32.99"/>
<polygon fill="black" stroke="black" points="762.212,-36.0836 769.96,-28.857 759.397,-29.6748 762.212,-36.0836"/>
<text text-anchor="middle" x="746.682" y="-57.8" font-family="Times,serif" font-size="14.00">Gen 22:22</text>
</g>
<!-- terahs_nahor&#45;&gt;huz -->
<g id="edge19" class="edge"><title>terahs_nahor&#45;&gt;huz</title>
<path fill="none" stroke="black" d="M581.692,-94.7658C591.632,-91.7551 603.057,-88.7416 613.682,-87 702.584,-72.427 934.253,-100.428 1018.68,-69 1028.76,-65.2467 1028.5,-59.6002 1037.68,-54 1051.74,-45.4298 1068.25,-37.6527 1082.38,-31.618"/>
<polygon fill="black" stroke="black" points="1083.83,-34.8058 1091.71,-27.7302 1081.14,-28.3438 1083.83,-34.8058"/>
<text text-anchor="middle" x="1066.68" y="-57.8" font-family="Times,serif" font-size="14.00">Gen 22:21</text>
</g>
<!-- terahs_nahor&#45;&gt;jidlaph -->
<g id="edge20" class="edge"><title>terahs_nahor&#45;&gt;jidlaph</title>
<path fill="none" stroke="black" d="M581.722,-94.9381C591.665,-91.9448 603.084,-88.8982 613.682,-87 720.281,-67.9062 754.087,-103.674 856.682,-69 868.243,-65.0925 868.999,-59.9016 879.682,-54 892.347,-47.0028 906.662,-40.1519 919.426,-34.3928"/>
<polygon fill="black" stroke="black" points="921.112,-37.4739 928.832,-30.2172 918.272,-31.076 921.112,-37.4739"/>
<text text-anchor="middle" x="908.682" y="-57.8" font-family="Times,serif" font-size="14.00">Gen 22:22</text>
</g>
<!-- terahs_nahor&#45;&gt;kemuel -->
<g id="edge21" class="edge"><title>terahs_nahor&#45;&gt;kemuel</title>
<path fill="none" stroke="black" d="M581.376,-94.7157C591.382,-91.6602 602.932,-88.6303 613.682,-87 710.264,-72.353 1397.69,-91.7997 1492.68,-69 1507.56,-65.4277 1509.81,-60.4671 1523.68,-54 1537.21,-47.692 1552.15,-40.9377 1565.31,-35.0616"/>
<polygon fill="black" stroke="black" points="1566.81,-38.2229 1574.52,-30.957 1563.96,-31.8285 1566.81,-38.2229"/>
<text text-anchor="middle" x="1552.68" y="-57.8" font-family="Times,serif" font-size="14.00">Gen 22:21</text>
</g>
<!-- terahs_nahor&#45;&gt;maachah -->
<g id="edge22" class="edge"><title>terahs_nahor&#45;&gt;maachah</title>
<path fill="none" stroke="black" d="M521.922,-104.153C417.947,-104.302 100.411,-102.027 69.6816,-69 65.1404,-64.1192 65.642,-59.3034 69.6816,-54 72.2594,-50.6157 114.754,-39.3394 149.887,-30.4898"/>
<polygon fill="black" stroke="black" points="151.18,-33.7741 160.031,-27.95 149.48,-26.9838 151.18,-33.7741"/>
<text text-anchor="middle" x="98.6816" y="-57.8" font-family="Times,serif" font-size="14.00">Gen 22:24</text>
</g>
<!-- terahs_nahor&#45;&gt;milcah -->
<g id="edge26" class="edge"><title>terahs_nahor&#45;&gt;milcah</title>
<path fill="none" stroke="red" d="M572.315,-120.308C585.279,-130.499 603.85,-142.992 622.682,-148.5 656.807,-158.481 667.151,-149.828 702.682,-148.5 909.39,-140.773 1156.6,-117.632 1247.7,-108.635"/>
</g>
<!-- terahs_nahor&#45;&gt;pildash -->
<g id="edge23" class="edge"><title>terahs_nahor&#45;&gt;pildash</title>
<path fill="none" stroke="black" d="M581.373,-94.6975C591.379,-91.64 602.929,-88.6135 613.682,-87 727.645,-69.8989 1538,-93.1495 1650.68,-69 1667.23,-65.4534 1670.09,-60.588 1685.68,-54 1701.2,-47.4416 1718.37,-40.2738 1733.11,-34.1424"/>
<polygon fill="black" stroke="black" points="1734.52,-37.3476 1742.41,-30.2796 1731.84,-30.8829 1734.52,-37.3476"/>
<text text-anchor="middle" x="1714.68" y="-57.8" font-family="Times,serif" font-size="14.00">Gen 22:22</text>
</g>
<!-- terahs_nahor&#45;&gt;reumah -->
<g id="edge27" class="edge"><title>terahs_nahor&#45;&gt;reumah</title>
<path fill="none" stroke="red" d="M587.588,-105C599.126,-105 610.664,-105 622.201,-105"/>
</g>
<!-- terahs_nahor&#45;&gt;tebah -->
<g id="edge24" class="edge"><title>terahs_nahor&#45;&gt;tebah</title>
<path fill="none" stroke="black" d="M522.687,-101.689C480.451,-97.8963 409.567,-88.71 393.682,-69 378.191,-49.7804 408.04,-36.0687 435.97,-27.922"/>
<polygon fill="black" stroke="black" points="436.964,-31.2789 445.691,-25.2726 435.123,-24.5252 436.964,-31.2789"/>
<text text-anchor="middle" x="422.682" y="-57.8" font-family="Times,serif" font-size="14.00">Gen 22:24</text>
</g>
<!-- terahs_nahor&#45;&gt;thahash -->
<g id="edge25" class="edge"><title>terahs_nahor&#45;&gt;thahash</title>
<path fill="none" stroke="black" d="M521.971,-104.455C408.985,-105.686 40.1183,-106.763 4.68161,-69 -8.72199,-54.7163 10.1975,-41.8326 31.5898,-32.7217"/>
<polygon fill="black" stroke="black" points="33.1452,-35.8702 41.1526,-28.9325 30.5665,-29.3625 33.1452,-35.8702"/>
<text text-anchor="middle" x="33.6816" y="-57.8" font-family="Times,serif" font-size="14.00">Gen 22:24</text>
</g>
</g>
</svg>
