<?xml version="1.0" encoding="UTF-8" standalone="no"?>
<!DOCTYPE svg PUBLIC "-//W3C//DTD SVG 1.1//EN"
 "http://www.w3.org/Graphics/SVG/1.1/DTD/svg11.dtd">
<!-- Generated by graphviz version 2.38.0 (20140413.2041)
 -->
<!-- Title: ancestry Pages: 1 -->
<svg width="524pt" height="248pt"
 viewBox="0.00 0.00 524.44 248.00" xmlns="http://www.w3.org/2000/svg" xmlns:xlink="http://www.w3.org/1999/xlink">
<g id="graph0" class="graph" transform="scale(1 1) rotate(0) translate(4 244)">
<title>ancestry</title>
<polygon fill="white" stroke="none" points="-4,4 -4,-244 520.439,-244 520.439,4 -4,4"/>
<!-- abram -->
<g id="node1" class="node"><title>abram</title>
<g id="a_node1"><a xlink:href="abram.html" xlink:title="Abraham (was Abram)" target="_top">
<ellipse fill="none" stroke="blue" cx="92.9418" cy="-18" rx="92.8835" ry="18"/>
<text text-anchor="middle" x="92.9418" y="-14.3" font-family="Times,serif" font-size="14.00">Abraham (was Abram)</text>
</a>
</g>
</g>
<!-- sarai -->
<g id="node3" class="node"><title>sarai</title>
<g id="a_node3"><a xlink:href="sarai.html" xlink:title="Sarah (was Sarai)" target="_top">
<ellipse fill="none" stroke="red" cx="359.942" cy="-18" rx="73.387" ry="18"/>
<text text-anchor="middle" x="359.942" y="-14.3" font-family="Times,serif" font-size="14.00">Sarah (was Sarai)</text>
</a>
</g>
</g>
<!-- abram&#45;&gt;sarai -->
<g id="edge6" class="edge"><title>abram&#45;&gt;sarai</title>
<path fill="none" stroke="red" d="M121.413,-35.2502C143.152,-47.3656 174.315,-62.5196 203.942,-69 231.729,-75.0782 240.403,-76.1223 267.942,-69 293.225,-62.461 318.968,-47.3139 336.769,-35.2159"/>
</g>
<!-- haran -->
<g id="node2" class="node"><title>haran</title>
<g id="a_node2"><a xlink:href="haran.html" xlink:title="Haran" target="_top">
<ellipse fill="none" stroke="blue" cx="235.942" cy="-18" rx="32.4942" ry="18"/>
<text text-anchor="middle" x="235.942" y="-14.3" font-family="Times,serif" font-size="14.00">Haran</text>
</a>
</g>
</g>
<!-- serugs_nahor -->
<g id="node4" class="node"><title>serugs_nahor</title>
<g id="a_node4"><a xlink:href="serugs_nahor.html" xlink:title="Nahor" target="_top">
<ellipse fill="none" stroke="blue" cx="286.942" cy="-222" rx="32.4942" ry="18"/>
<text text-anchor="middle" x="286.942" y="-218.3" font-family="Times,serif" font-size="14.00">Nahor</text>
</a>
</g>
</g>
<!-- terah -->
<g id="node5" class="node"><title>terah</title>
<g id="a_node5"><a xlink:href="terah.html" xlink:title="Terah" target="_top">
<ellipse fill="lightblue" stroke="blue" stroke-width="2" cx="286.942" cy="-120" rx="31.3957" ry="18"/>
<text text-anchor="middle" x="286.942" y="-116.3" font-family="Times,serif" font-size="14.00">Terah</text>
</a>
</g>
</g>
<!-- serugs_nahor&#45;&gt;terah -->
<g id="edge1" class="edge"><title>serugs_nahor&#45;&gt;terah</title>
<path fill="none" stroke="black" d="M286.942,-203.581C286.942,-188.382 286.942,-166.067 286.942,-148.464"/>
<polygon fill="black" stroke="black" points="290.442,-148.219 286.942,-138.219 283.442,-148.219 290.442,-148.219"/>
<text text-anchor="middle" x="315.942" y="-174.8" font-family="Times,serif" font-size="14.00">Gen 11:24</text>
<text text-anchor="middle" x="315.942" y="-159.8" font-family="Times,serif" font-size="14.00">Luk 3:34</text>
</g>
<!-- terah&#45;&gt;abram -->
<g id="edge2" class="edge"><title>terah&#45;&gt;abram</title>
<path fill="none" stroke="black" d="M258.798,-111.689C237.81,-105.684 208.777,-96.192 184.942,-84 162.199,-72.3666 138.712,-55.6818 121.162,-42.1295"/>
<polygon fill="black" stroke="black" points="123.08,-39.1855 113.053,-35.764 118.758,-44.6917 123.08,-39.1855"/>
<text text-anchor="middle" x="213.942" y="-72.8" font-family="Times,serif" font-size="14.00">Gen 11:27</text>
<text text-anchor="middle" x="213.942" y="-57.8" font-family="Times,serif" font-size="14.00">Luk 3:34</text>
</g>
<!-- terah&#45;&gt;haran -->
<g id="edge3" class="edge"><title>terah&#45;&gt;haran</title>
<path fill="none" stroke="black" d="M272.922,-103.772C268.027,-97.9026 262.799,-90.9371 258.942,-84 252.262,-71.9849 246.946,-57.6688 243.116,-45.5341"/>
<polygon fill="black" stroke="black" points="246.469,-44.5301 240.25,-35.9525 239.762,-46.5361 246.469,-44.5301"/>
<text text-anchor="middle" x="287.942" y="-65.3" font-family="Times,serif" font-size="14.00">Gen 11:27</text>
</g>
<!-- terah&#45;&gt;sarai -->
<g id="edge4" class="edge"><title>terah&#45;&gt;sarai</title>
<path fill="none" stroke="black" d="M300.808,-103.662C306.036,-97.6654 311.928,-90.6434 316.942,-84 326.425,-71.4352 336.17,-56.8658 343.98,-44.709"/>
<polygon fill="black" stroke="black" points="347.132,-46.274 349.539,-35.9561 341.223,-42.5213 347.132,-46.274"/>
<text text-anchor="middle" x="366.942" y="-65.3" font-family="Times,serif" font-size="14.00">Gen 20:12</text>
</g>
<!-- terahs_nahor -->
<g id="node6" class="node"><title>terahs_nahor</title>
<g id="a_node6"><a xlink:href="terahs_nahor.html" xlink:title="Nahor" target="_top">
<ellipse fill="none" stroke="blue" cx="483.942" cy="-18" rx="32.4942" ry="18"/>
<text text-anchor="middle" x="483.942" y="-14.3" font-family="Times,serif" font-size="14.00">Nahor</text>
</a>
</g>
</g>
<!-- terah&#45;&gt;terahs_nahor -->
<g id="edge5" class="edge"><title>terah&#45;&gt;terahs_nahor</title>
<path fill="none" stroke="black" d="M315.908,-113.055C339.419,-107.529 372.974,-98.0216 399.942,-84 422.233,-72.4102 444.59,-54.745 460.629,-40.7543"/>
<polygon fill="black" stroke="black" points="463.269,-43.0903 468.407,-33.8247 458.612,-37.8638 463.269,-43.0903"/>
<text text-anchor="middle" x="472.942" y="-65.3" font-family="Times,serif" font-size="14.00">Gen 11:27</text>
</g>
</g>
</svg>
