<?xml version="1.0" encoding="UTF-8" standalone="no"?>
<!DOCTYPE svg PUBLIC "-//W3C//DTD SVG 1.1//EN"
 "http://www.w3.org/Graphics/SVG/1.1/DTD/svg11.dtd">
<!-- Generated by graphviz version 2.38.0 (20140413.2041)
 -->
<!-- Title: ancestry Pages: 1 -->
<svg width="167pt" height="131pt"
 viewBox="0.00 0.00 167.20 131.00" xmlns="http://www.w3.org/2000/svg" xmlns:xlink="http://www.w3.org/1999/xlink">
<g id="graph0" class="graph" transform="scale(1 1) rotate(0) translate(4 127)">
<title>ancestry</title>
<polygon fill="white" stroke="none" points="-4,4 -4,-127 163.197,-127 163.197,4 -4,4"/>
<!-- caleb -->
<g id="node1" class="node"><title>caleb</title>
<g id="a_node1"><a xlink:href="caleb.html" xlink:title="Caleb" target="_top">
<ellipse fill="none" stroke="blue" cx="31.1972" cy="-105" rx="31.3957" ry="18"/>
<text text-anchor="middle" x="31.1972" y="-101.3" font-family="Times,serif" font-size="14.00">Caleb</text>
</a>
</g>
</g>
<!-- tirhanah -->
<g id="node3" class="node"><title>tirhanah</title>
<g id="a_node3"><a xlink:href="tirhanah.html" xlink:title="Tirhanah" target="_top">
<ellipse fill="lightblue" stroke="blue" stroke-width="2" cx="75.1972" cy="-18" rx="42.4939" ry="18"/>
<text text-anchor="middle" x="75.1972" y="-14.3" font-family="Times,serif" font-size="14.00">Tirhanah</text>
</a>
</g>
</g>
<!-- caleb&#45;&gt;tirhanah -->
<g id="edge1" class="edge"><title>caleb&#45;&gt;tirhanah</title>
<path fill="none" stroke="black" d="M32.644,-87.0097C34.0451,-76.9493 36.7974,-64.2152 42.1972,-54 44.3633,-49.9023 47.1413,-45.9362 50.1639,-42.2374"/>
<polygon fill="black" stroke="black" points="52.9346,-44.3911 57.0294,-34.6196 47.7347,-39.7048 52.9346,-44.3911"/>
<text text-anchor="middle" x="69.6972" y="-57.8" font-family="Times,serif" font-size="14.00">1 Ch 2:48</text>
</g>
<!-- maacah -->
<g id="node2" class="node"><title>maacah</title>
<g id="a_node2"><a xlink:href="maacah.html" xlink:title="Maacah" target="_top">
<ellipse fill="none" stroke="red" cx="119.197" cy="-105" rx="38.9931" ry="18"/>
<text text-anchor="middle" x="119.197" y="-101.3" font-family="Times,serif" font-size="14.00">Maacah</text>
</a>
</g>
</g>
<!-- maacah&#45;&gt;tirhanah -->
<g id="edge2" class="edge"><title>maacah&#45;&gt;tirhanah</title>
<path fill="none" stroke="black" d="M112.465,-87.0423C108.387,-77.2231 102.887,-64.7231 97.1972,-54 95.4458,-50.6993 93.4969,-47.2936 91.5032,-43.962"/>
<polygon fill="black" stroke="black" points="94.4665,-42.0992 86.2262,-35.4396 88.515,-45.7843 94.4665,-42.0992"/>
<text text-anchor="middle" x="131.697" y="-57.8" font-family="Times,serif" font-size="14.00">1 Ch 2:48</text>
</g>
</g>
</svg>
