<?xml version="1.0" encoding="UTF-8" standalone="no"?>
<!DOCTYPE svg PUBLIC "-//W3C//DTD SVG 1.1//EN"
 "http://www.w3.org/Graphics/SVG/1.1/DTD/svg11.dtd">
<!-- Generated by graphviz version 2.38.0 (20140413.2041)
 -->
<!-- Title: ancestry Pages: 1 -->
<svg width="182pt" height="131pt"
 viewBox="0.00 0.00 181.65 131.00" xmlns="http://www.w3.org/2000/svg" xmlns:xlink="http://www.w3.org/1999/xlink">
<g id="graph0" class="graph" transform="scale(1 1) rotate(0) translate(4 127)">
<title>ancestry</title>
<polygon fill="white" stroke="none" points="-4,4 -4,-127 177.646,-127 177.646,4 -4,4"/>
<!-- mehujaels_lamech -->
<g id="node1" class="node"><title>mehujaels_lamech</title>
<g id="a_node1"><a xlink:href="mehujaels_lamech.html" xlink:title="Lamech" target="_top">
<ellipse fill="none" stroke="blue" cx="39.6465" cy="-105" rx="39.7935" ry="18"/>
<text text-anchor="middle" x="39.6465" y="-101.3" font-family="Times,serif" font-size="14.00">Lamech</text>
</a>
</g>
</g>
<!-- tubal_cain -->
<g id="node2" class="node"><title>tubal_cain</title>
<g id="a_node2"><a xlink:href="tubal_cain.html" xlink:title="Tubal_cain" target="_top">
<ellipse fill="lightblue" stroke="blue" stroke-width="2" cx="90.6465" cy="-18" rx="50.0912" ry="18"/>
<text text-anchor="middle" x="90.6465" y="-14.3" font-family="Times,serif" font-size="14.00">Tubal_cain</text>
</a>
</g>
</g>
<!-- mehujaels_lamech&#45;&gt;tubal_cain -->
<g id="edge1" class="edge"><title>mehujaels_lamech&#45;&gt;tubal_cain</title>
<path fill="none" stroke="black" d="M46.329,-86.8058C50.4732,-76.9078 56.2232,-64.4078 62.6465,-54 64.7921,-50.5235 67.2352,-47.0008 69.7637,-43.5973"/>
<polygon fill="black" stroke="black" points="72.7088,-45.5123 76.1035,-35.476 67.1911,-41.2048 72.7088,-45.5123"/>
<text text-anchor="middle" x="88.1465" y="-57.8" font-family="Times,serif" font-size="14.00">Gen 4:22</text>
</g>
<!-- zilah -->
<g id="node3" class="node"><title>zilah</title>
<g id="a_node3"><a xlink:href="zilah.html" xlink:title="Zilah" target="_top">
<ellipse fill="none" stroke="red" cx="143.646" cy="-105" rx="29.4969" ry="18"/>
<text text-anchor="middle" x="143.646" y="-101.3" font-family="Times,serif" font-size="14.00">Zilah</text>
</a>
</g>
</g>
<!-- mehujaels_lamech&#45;&gt;zilah -->
<g id="edge3" class="edge"><title>mehujaels_lamech&#45;&gt;zilah</title>
<path fill="none" stroke="red" d="M79.459,-105C91.0763,-105 102.694,-105 114.311,-105"/>
</g>
<!-- zilah&#45;&gt;tubal_cain -->
<g id="edge2" class="edge"><title>zilah&#45;&gt;tubal_cain</title>
<path fill="none" stroke="black" d="M134.086,-87.6845C128.274,-77.8633 120.647,-65.1437 113.646,-54 111.633,-50.7946 109.487,-47.4453 107.346,-44.1434"/>
<polygon fill="black" stroke="black" points="110.189,-42.0954 101.784,-35.6446 104.331,-45.9286 110.189,-42.0954"/>
<text text-anchor="middle" x="148.146" y="-57.8" font-family="Times,serif" font-size="14.00">Gen 4:22</text>
</g>
</g>
</svg>
