<?xml version="1.0" encoding="UTF-8" standalone="no"?>
<!DOCTYPE svg PUBLIC "-//W3C//DTD SVG 1.1//EN"
 "http://www.w3.org/Graphics/SVG/1.1/DTD/svg11.dtd">
<!-- Generated by graphviz version 2.38.0 (20140413.2041)
 -->
<!-- Title: ancestry Pages: 1 -->
<svg width="271pt" height="218pt"
 viewBox="0.00 0.00 271.09 218.00" xmlns="http://www.w3.org/2000/svg" xmlns:xlink="http://www.w3.org/1999/xlink">
<g id="graph0" class="graph" transform="scale(1 1) rotate(0) translate(4 214)">
<title>ancestry</title>
<polygon fill="white" stroke="none" points="-4,4 -4,-214 267.093,-214 267.093,4 -4,4"/>
<!-- elzaphan -->
<g id="node1" class="node"><title>elzaphan</title>
<g id="a_node1"><a xlink:href="elzaphan.html" xlink:title="Elzaphan" target="_top">
<ellipse fill="none" stroke="blue" cx="43.5461" cy="-18" rx="43.5923" ry="18"/>
<text text-anchor="middle" x="43.5461" y="-14.3" font-family="Times,serif" font-size="14.00">Elzaphan</text>
</a>
</g>
</g>
<!-- kohath -->
<g id="node2" class="node"><title>kohath</title>
<g id="a_node2"><a xlink:href="kohath.html" xlink:title="Kohath" target="_top">
<ellipse fill="none" stroke="blue" cx="144.546" cy="-192" rx="36.2938" ry="18"/>
<text text-anchor="middle" x="144.546" y="-188.3" font-family="Times,serif" font-size="14.00">Kohath</text>
</a>
</g>
</g>
<!-- uzziel -->
<g id="node5" class="node"><title>uzziel</title>
<g id="a_node5"><a xlink:href="uzziel.html" xlink:title="Uzziel" target="_top">
<ellipse fill="lightblue" stroke="blue" stroke-width="2" cx="144.546" cy="-105" rx="33.5952" ry="18"/>
<text text-anchor="middle" x="144.546" y="-101.3" font-family="Times,serif" font-size="14.00">Uzziel</text>
</a>
</g>
</g>
<!-- kohath&#45;&gt;uzziel -->
<g id="edge1" class="edge"><title>kohath&#45;&gt;uzziel</title>
<path fill="none" stroke="black" d="M144.546,-173.799C144.546,-162.163 144.546,-146.548 144.546,-133.237"/>
<polygon fill="black" stroke="black" points="148.046,-133.175 144.546,-123.175 141.046,-133.175 148.046,-133.175"/>
<text text-anchor="middle" x="166.046" y="-144.8" font-family="Times,serif" font-size="14.00">Ex 6:18</text>
</g>
<!-- mishael -->
<g id="node3" class="node"><title>mishael</title>
<g id="a_node3"><a xlink:href="mishael.html" xlink:title="Mishael" target="_top">
<ellipse fill="none" stroke="blue" cx="144.546" cy="-18" rx="39.7935" ry="18"/>
<text text-anchor="middle" x="144.546" y="-14.3" font-family="Times,serif" font-size="14.00">Mishael</text>
</a>
</g>
</g>
<!-- sithri -->
<g id="node4" class="node"><title>sithri</title>
<g id="a_node4"><a xlink:href="sithri.html" xlink:title="Sithri" target="_top">
<ellipse fill="none" stroke="blue" cx="232.546" cy="-18" rx="30.5947" ry="18"/>
<text text-anchor="middle" x="232.546" y="-14.3" font-family="Times,serif" font-size="14.00">Sithri</text>
</a>
</g>
</g>
<!-- uzziel&#45;&gt;elzaphan -->
<g id="edge2" class="edge"><title>uzziel&#45;&gt;elzaphan</title>
<path fill="none" stroke="black" d="M124.98,-90.1499C116.4,-83.8936 106.309,-76.2839 97.5461,-69 87.2603,-60.4497 76.3567,-50.531 67.0606,-41.793"/>
<polygon fill="black" stroke="black" points="69.3414,-39.1323 59.6788,-34.7867 64.5224,-44.2095 69.3414,-39.1323"/>
<text text-anchor="middle" x="119.046" y="-57.8" font-family="Times,serif" font-size="14.00">Ex 6:22</text>
</g>
<!-- uzziel&#45;&gt;mishael -->
<g id="edge3" class="edge"><title>uzziel&#45;&gt;mishael</title>
<path fill="none" stroke="black" d="M144.546,-86.799C144.546,-75.1626 144.546,-59.5479 144.546,-46.2368"/>
<polygon fill="black" stroke="black" points="148.046,-46.1754 144.546,-36.1754 141.046,-46.1755 148.046,-46.1754"/>
<text text-anchor="middle" x="166.046" y="-57.8" font-family="Times,serif" font-size="14.00">Ex 6:22</text>
</g>
<!-- uzziel&#45;&gt;sithri -->
<g id="edge4" class="edge"><title>uzziel&#45;&gt;sithri</title>
<path fill="none" stroke="black" d="M165.071,-90.3719C173.634,-84.2748 183.45,-76.7262 191.546,-69 199.708,-61.211 207.78,-51.8317 214.575,-43.3112"/>
<polygon fill="black" stroke="black" points="217.531,-45.2121 220.901,-35.1676 212.002,-40.918 217.531,-45.2121"/>
<text text-anchor="middle" x="226.046" y="-57.8" font-family="Times,serif" font-size="14.00">Ex 6:22</text>
</g>
</g>
</svg>
