<?xml version="1.0" encoding="UTF-8" standalone="no"?>
<!DOCTYPE svg PUBLIC "-//W3C//DTD SVG 1.1//EN"
 "http://www.w3.org/Graphics/SVG/1.1/DTD/svg11.dtd">
<!-- Generated by graphviz version 2.38.0 (20140413.2041)
 -->
<!-- Title: ancestry Pages: 1 -->
<svg width="99pt" height="218pt"
 viewBox="0.00 0.00 99.40 218.00" xmlns="http://www.w3.org/2000/svg" xmlns:xlink="http://www.w3.org/1999/xlink">
<g id="graph0" class="graph" transform="scale(1 1) rotate(0) translate(4 214)">
<title>ancestry</title>
<polygon fill="white" stroke="none" points="-4,4 -4,-214 95.3968,-214 95.3968,4 -4,4"/>
<!-- attais_nathan -->
<g id="node1" class="node"><title>attais_nathan</title>
<g id="a_node1"><a xlink:href="attais_nathan.html" xlink:title="Nathan" target="_top">
<ellipse fill="none" stroke="blue" cx="36.3968" cy="-192" rx="36.2938" ry="18"/>
<text text-anchor="middle" x="36.3968" y="-188.3" font-family="Times,serif" font-size="14.00">Nathan</text>
</a>
</g>
</g>
<!-- zabad -->
<g id="node3" class="node"><title>zabad</title>
<g id="a_node3"><a xlink:href="zabad.html" xlink:title="Zabad" target="_top">
<ellipse fill="lightblue" stroke="blue" stroke-width="2" cx="36.3968" cy="-105" rx="32.4942" ry="18"/>
<text text-anchor="middle" x="36.3968" y="-101.3" font-family="Times,serif" font-size="14.00">Zabad</text>
</a>
</g>
</g>
<!-- attais_nathan&#45;&gt;zabad -->
<g id="edge1" class="edge"><title>attais_nathan&#45;&gt;zabad</title>
<path fill="none" stroke="black" d="M36.3968,-173.799C36.3968,-162.163 36.3968,-146.548 36.3968,-133.237"/>
<polygon fill="black" stroke="black" points="39.8969,-133.175 36.3968,-123.175 32.8969,-133.175 39.8969,-133.175"/>
<text text-anchor="middle" x="63.8968" y="-144.8" font-family="Times,serif" font-size="14.00">1 Ch 2:36</text>
</g>
<!-- ephial -->
<g id="node2" class="node"><title>ephial</title>
<g id="a_node2"><a xlink:href="ephial.html" xlink:title="Ephial" target="_top">
<ellipse fill="none" stroke="blue" cx="36.3968" cy="-18" rx="33.5952" ry="18"/>
<text text-anchor="middle" x="36.3968" y="-14.3" font-family="Times,serif" font-size="14.00">Ephial</text>
</a>
</g>
</g>
<!-- zabad&#45;&gt;ephial -->
<g id="edge2" class="edge"><title>zabad&#45;&gt;ephial</title>
<path fill="none" stroke="black" d="M36.3968,-86.799C36.3968,-75.1626 36.3968,-59.5479 36.3968,-46.2368"/>
<polygon fill="black" stroke="black" points="39.8969,-46.1754 36.3968,-36.1754 32.8969,-46.1755 39.8969,-46.1754"/>
<text text-anchor="middle" x="63.8968" y="-57.8" font-family="Times,serif" font-size="14.00">1 Ch 2:37</text>
</g>
</g>
</svg>
