<?xml version="1.0" encoding="UTF-8" standalone="no"?>
<!DOCTYPE svg PUBLIC "-//W3C//DTD SVG 1.1//EN"
 "http://www.w3.org/Graphics/SVG/1.1/DTD/svg11.dtd">
<!-- Generated by graphviz version 2.38.0 (20140413.2041)
 -->
<!-- Title: ancestry Pages: 1 -->
<svg width="180pt" height="146pt"
 viewBox="0.00 0.00 179.55 146.00" xmlns="http://www.w3.org/2000/svg" xmlns:xlink="http://www.w3.org/1999/xlink">
<g id="graph0" class="graph" transform="scale(1 1) rotate(0) translate(4 142)">
<title>ancestry</title>
<polygon fill="white" stroke="none" points="-4,4 -4,-142 175.547,-142 175.547,4 -4,4"/>
<!-- jacob -->
<g id="node1" class="node"><title>jacob</title>
<g id="a_node1"><a xlink:href="jacob.html" xlink:title="Jacob" target="_top">
<ellipse fill="none" stroke="blue" cx="30.5473" cy="-120" rx="30.5947" ry="18"/>
<text text-anchor="middle" x="30.5473" y="-116.3" font-family="Times,serif" font-size="14.00">Jacob</text>
</a>
</g>
</g>
<!-- leah -->
<g id="node2" class="node"><title>leah</title>
<g id="a_node2"><a xlink:href="leah.html" xlink:title="Leah" target="_top">
<ellipse fill="none" stroke="red" cx="125.547" cy="-120" rx="28.6953" ry="18"/>
<text text-anchor="middle" x="125.547" y="-116.3" font-family="Times,serif" font-size="14.00">Leah</text>
</a>
</g>
</g>
<!-- jacob&#45;&gt;leah -->
<g id="edge3" class="edge"><title>jacob&#45;&gt;leah</title>
<path fill="none" stroke="red" d="M61.3481,-120C73.1346,-120 84.9212,-120 96.7078,-120"/>
</g>
<!-- zebulun -->
<g id="node3" class="node"><title>zebulun</title>
<g id="a_node3"><a xlink:href="zebulun.html" xlink:title="Zebulun" target="_top">
<ellipse fill="lightblue" stroke="blue" stroke-width="2" cx="77.5473" cy="-18" rx="40.0939" ry="18"/>
<text text-anchor="middle" x="77.5473" y="-14.3" font-family="Times,serif" font-size="14.00">Zebulun</text>
</a>
</g>
</g>
<!-- jacob&#45;&gt;zebulun -->
<g id="edge1" class="edge"><title>jacob&#45;&gt;zebulun</title>
<path fill="none" stroke="black" d="M30.5774,-101.784C31.2591,-88.1166 33.725,-68.8954 41.5473,-54 43.9676,-49.3912 47.2177,-45.028 50.7788,-41.0467"/>
<polygon fill="black" stroke="black" points="53.3144,-43.4604 57.8738,-33.8968 48.3456,-38.5298 53.3144,-43.4604"/>
<text text-anchor="middle" x="70.5473" y="-72.8" font-family="Times,serif" font-size="14.00">1 Ch 2:1</text>
<text text-anchor="middle" x="70.5473" y="-57.8" font-family="Times,serif" font-size="14.00">Gen 30:19</text>
</g>
<!-- leah&#45;&gt;zebulun -->
<g id="edge2" class="edge"><title>leah&#45;&gt;zebulun</title>
<path fill="none" stroke="black" d="M119.828,-102.343C115.022,-88.9912 107.652,-69.9224 99.5473,-54 97.8523,-50.67 95.9368,-47.2469 93.9606,-43.9062"/>
<polygon fill="black" stroke="black" points="96.9273,-42.049 88.6975,-35.3766 90.9701,-45.7249 96.9273,-42.049"/>
<text text-anchor="middle" x="142.547" y="-65.3" font-family="Times,serif" font-size="14.00">Gen 30:19</text>
</g>
</g>
</svg>
