<?xml version="1.0" encoding="UTF-8" standalone="no"?>
<!DOCTYPE svg PUBLIC "-//W3C//DTD SVG 1.1//EN"
 "http://www.w3.org/Graphics/SVG/1.1/DTD/svg11.dtd">
<!-- Generated by graphviz version 2.38.0 (20140413.2041)
 -->
<!-- Title: ancestry Pages: 1 -->
<svg width="403pt" height="233pt"
 viewBox="0.00 0.00 403.14 233.00" xmlns="http://www.w3.org/2000/svg" xmlns:xlink="http://www.w3.org/1999/xlink">
<g id="graph0" class="graph" transform="scale(1 1) rotate(0) translate(4 229)">
<title>ancestry</title>
<polygon fill="white" stroke="none" points="-4,4 -4,-229 399.145,-229 399.145,4 -4,4"/>
<!-- dara -->
<g id="node1" class="node"><title>dara</title>
<g id="a_node1"><a xlink:href="dara.html" xlink:title="Dara" target="_top">
<ellipse fill="none" stroke="blue" cx="27.9475" cy="-18" rx="27.8951" ry="18"/>
<text text-anchor="middle" x="27.9475" y="-14.3" font-family="Times,serif" font-size="14.00">Dara</text>
</a>
</g>
</g>
<!-- ethan -->
<g id="node2" class="node"><title>ethan</title>
<g id="a_node2"><a xlink:href="ethan.html" xlink:title="Ethan" target="_top">
<ellipse fill="none" stroke="blue" cx="104.948" cy="-18" rx="31.3957" ry="18"/>
<text text-anchor="middle" x="104.948" y="-14.3" font-family="Times,serif" font-size="14.00">Ethan</text>
</a>
</g>
</g>
<!-- heman -->
<g id="node3" class="node"><title>heman</title>
<g id="a_node3"><a xlink:href="heman.html" xlink:title="Heman" target="_top">
<ellipse fill="none" stroke="blue" cx="190.948" cy="-18" rx="36.2938" ry="18"/>
<text text-anchor="middle" x="190.948" y="-14.3" font-family="Times,serif" font-size="14.00">Heman</text>
</a>
</g>
</g>
<!-- judah -->
<g id="node4" class="node"><title>judah</title>
<g id="a_node4"><a xlink:href="judah.html" xlink:title="Judah" target="_top">
<ellipse fill="none" stroke="blue" cx="148.948" cy="-207" rx="31.3957" ry="18"/>
<text text-anchor="middle" x="148.948" y="-203.3" font-family="Times,serif" font-size="14.00">Judah</text>
</a>
</g>
</g>
<!-- zerah -->
<g id="node7" class="node"><title>zerah</title>
<g id="a_node7"><a xlink:href="zerah.html" xlink:title="Zerah" target="_top">
<ellipse fill="lightblue" stroke="blue" stroke-width="2" cx="190.948" cy="-105" rx="31.3957" ry="18"/>
<text text-anchor="middle" x="190.948" y="-101.3" font-family="Times,serif" font-size="14.00">Zerah</text>
</a>
</g>
</g>
<!-- judah&#45;&gt;zerah -->
<g id="edge1" class="edge"><title>judah&#45;&gt;zerah</title>
<path fill="none" stroke="black" d="M150.441,-189.019C152.131,-175.485 155.667,-156.328 162.948,-141 164.916,-136.855 167.464,-132.763 170.219,-128.918"/>
<polygon fill="black" stroke="black" points="173.029,-131.007 176.438,-120.975 167.517,-126.692 173.029,-131.007"/>
<text text-anchor="middle" x="186.948" y="-159.8" font-family="Times,serif" font-size="14.00">1 Ch 2:4</text>
<text text-anchor="middle" x="186.948" y="-144.8" font-family="Times,serif" font-size="14.00">Mat 1:3</text>
</g>
<!-- kalkol -->
<g id="node5" class="node"><title>kalkol</title>
<g id="a_node5"><a xlink:href="kalkol.html" xlink:title="Kalkol" target="_top">
<ellipse fill="none" stroke="blue" cx="279.948" cy="-18" rx="34.394" ry="18"/>
<text text-anchor="middle" x="279.948" y="-14.3" font-family="Times,serif" font-size="14.00">Kalkol</text>
</a>
</g>
</g>
<!-- tamar -->
<g id="node6" class="node"><title>tamar</title>
<g id="a_node6"><a xlink:href="tamar.html" xlink:title="Tamar" target="_top">
<ellipse fill="none" stroke="red" cx="232.948" cy="-207" rx="34.394" ry="18"/>
<text text-anchor="middle" x="232.948" y="-203.3" font-family="Times,serif" font-size="14.00">Tamar</text>
</a>
</g>
</g>
<!-- tamar&#45;&gt;zerah -->
<g id="edge2" class="edge"><title>tamar&#45;&gt;zerah</title>
<path fill="none" stroke="black" d="M228.205,-189.096C224.236,-175.774 218.084,-156.863 210.948,-141 209.497,-137.775 207.839,-134.459 206.113,-131.215"/>
<polygon fill="black" stroke="black" points="209.117,-129.414 201.183,-122.392 203.006,-132.829 209.117,-129.414"/>
<text text-anchor="middle" x="246.948" y="-159.8" font-family="Times,serif" font-size="14.00">1 Ch 2:4</text>
<text text-anchor="middle" x="246.948" y="-144.8" font-family="Times,serif" font-size="14.00">Mat 1:3</text>
</g>
<!-- zerah&#45;&gt;dara -->
<g id="edge3" class="edge"><title>zerah&#45;&gt;dara</title>
<path fill="none" stroke="black" d="M160.869,-99.1969C136.593,-94.3334 102.269,-85.1605 75.9475,-69 64.685,-62.0853 54.2515,-51.9009 46.0086,-42.525"/>
<polygon fill="black" stroke="black" points="48.469,-40.0118 39.3629,-34.5962 43.1042,-44.5084 48.469,-40.0118"/>
<text text-anchor="middle" x="99.9475" y="-57.8" font-family="Times,serif" font-size="14.00">1 Ch 2:6</text>
</g>
<!-- zerah&#45;&gt;ethan -->
<g id="edge4" class="edge"><title>zerah&#45;&gt;ethan</title>
<path fill="none" stroke="black" d="M169.073,-91.8774C159.212,-85.7876 147.818,-77.8281 138.948,-69 131.626,-61.7129 124.909,-52.64 119.414,-44.2309"/>
<polygon fill="black" stroke="black" points="122.221,-42.117 113.96,-35.4827 116.28,-45.8203 122.221,-42.117"/>
<text text-anchor="middle" x="162.948" y="-57.8" font-family="Times,serif" font-size="14.00">1 Ch 2:6</text>
</g>
<!-- zerah&#45;&gt;heman -->
<g id="edge5" class="edge"><title>zerah&#45;&gt;heman</title>
<path fill="none" stroke="black" d="M190.948,-86.799C190.948,-75.1626 190.948,-59.5479 190.948,-46.2368"/>
<polygon fill="black" stroke="black" points="194.448,-46.1754 190.948,-36.1754 187.448,-46.1755 194.448,-46.1754"/>
<text text-anchor="middle" x="214.948" y="-57.8" font-family="Times,serif" font-size="14.00">1 Ch 2:6</text>
</g>
<!-- zerah&#45;&gt;kalkol -->
<g id="edge6" class="edge"><title>zerah&#45;&gt;kalkol</title>
<path fill="none" stroke="black" d="M212.408,-91.8742C222.292,-85.7289 233.824,-77.7246 242.948,-69 250.709,-61.5772 258.025,-52.3756 264.069,-43.8975"/>
<polygon fill="black" stroke="black" points="267.106,-45.6566 269.873,-35.4293 261.332,-41.6991 267.106,-45.6566"/>
<text text-anchor="middle" x="279.948" y="-57.8" font-family="Times,serif" font-size="14.00">1 Ch 2:6</text>
</g>
<!-- zimri -->
<g id="node8" class="node"><title>zimri</title>
<g id="a_node8"><a xlink:href="zimri.html" xlink:title="Zimri" target="_top">
<ellipse fill="none" stroke="blue" cx="363.948" cy="-18" rx="31.3957" ry="18"/>
<text text-anchor="middle" x="363.948" y="-14.3" font-family="Times,serif" font-size="14.00">Zimri</text>
</a>
</g>
</g>
<!-- zerah&#45;&gt;zimri -->
<g id="edge7" class="edge"><title>zerah&#45;&gt;zimri</title>
<path fill="none" stroke="black" d="M220.729,-98.8471C245.262,-93.7429 280.373,-84.4154 307.948,-69 320.694,-61.8738 333.011,-51.4073 342.832,-41.8897"/>
<polygon fill="black" stroke="black" points="345.567,-44.1024 350.133,-34.542 340.602,-39.1682 345.567,-44.1024"/>
<text text-anchor="middle" x="352.948" y="-57.8" font-family="Times,serif" font-size="14.00">1 Ch 2:6</text>
</g>
</g>
</svg>
