<?xml version="1.0" encoding="UTF-8" standalone="no"?>
<!DOCTYPE svg PUBLIC "-//W3C//DTD SVG 1.1//EN"
 "http://www.w3.org/Graphics/SVG/1.1/DTD/svg11.dtd">
<!-- Generated by graphviz version 2.38.0 (20140413.2041)
 -->
<!-- Title: ancestry Pages: 1 -->
<svg width="159pt" height="233pt"
 viewBox="0.00 0.00 159.50 233.00" xmlns="http://www.w3.org/2000/svg" xmlns:xlink="http://www.w3.org/1999/xlink">
<g id="graph0" class="graph" transform="scale(1 1) rotate(0) translate(4 229)">
<title>ancestry</title>
<polygon fill="white" stroke="none" points="-4,4 -4,-229 155.497,-229 155.497,4 -4,4"/>
<!-- abiud -->
<g id="node1" class="node"><title>abiud</title>
<g id="a_node1"><a xlink:href="abiud.html" xlink:title="Abiud" target="_top">
<ellipse fill="none" stroke="blue" cx="32.4971" cy="-18" rx="32.4942" ry="18"/>
<text text-anchor="middle" x="32.4971" y="-14.3" font-family="Times,serif" font-size="14.00">Abiud</text>
</a>
</g>
</g>
<!-- rhesa -->
<g id="node2" class="node"><title>rhesa</title>
<g id="a_node2"><a xlink:href="rhesa.html" xlink:title="Rhesa" target="_top">
<ellipse fill="none" stroke="blue" cx="115.497" cy="-18" rx="32.4942" ry="18"/>
<text text-anchor="middle" x="115.497" y="-14.3" font-family="Times,serif" font-size="14.00">Rhesa</text>
</a>
</g>
</g>
<!-- shealtiel -->
<g id="node3" class="node"><title>shealtiel</title>
<g id="a_node3"><a xlink:href="shealtiel.html" xlink:title="Shealtiel" target="_top">
<ellipse fill="none" stroke="blue" cx="73.4971" cy="-207" rx="41.6928" ry="18"/>
<text text-anchor="middle" x="73.4971" y="-203.3" font-family="Times,serif" font-size="14.00">Shealtiel</text>
</a>
</g>
</g>
<!-- zerubbabel -->
<g id="node4" class="node"><title>zerubbabel</title>
<g id="a_node4"><a xlink:href="zerubbabel.html" xlink:title="Zerubbabel" target="_top">
<ellipse fill="lightblue" stroke="blue" stroke-width="2" cx="73.4971" cy="-105" rx="50.8918" ry="18"/>
<text text-anchor="middle" x="73.4971" y="-101.3" font-family="Times,serif" font-size="14.00">Zerubbabel</text>
</a>
</g>
</g>
<!-- shealtiel&#45;&gt;zerubbabel -->
<g id="edge1" class="edge"><title>shealtiel&#45;&gt;zerubbabel</title>
<path fill="none" stroke="black" d="M73.4971,-188.581C73.4971,-173.382 73.4971,-151.067 73.4971,-133.464"/>
<polygon fill="black" stroke="black" points="76.9972,-133.219 73.4971,-123.219 69.9972,-133.219 76.9972,-133.219"/>
<text text-anchor="middle" x="98.9971" y="-159.8" font-family="Times,serif" font-size="14.00">Luk 3:27</text>
<text text-anchor="middle" x="98.9971" y="-144.8" font-family="Times,serif" font-size="14.00">Mat 1:12</text>
</g>
<!-- zerubbabel&#45;&gt;abiud -->
<g id="edge2" class="edge"><title>zerubbabel&#45;&gt;abiud</title>
<path fill="none" stroke="black" d="M56.0453,-87.9004C50.9737,-82.3671 45.8922,-75.8331 42.4971,-69 39.0308,-62.0235 36.7659,-53.9352 35.2861,-46.3237"/>
<polygon fill="black" stroke="black" points="38.7342,-45.7201 33.7157,-36.3893 31.8201,-46.8132 38.7342,-45.7201"/>
<text text-anchor="middle" x="67.9971" y="-57.8" font-family="Times,serif" font-size="14.00">Mat 1:13</text>
</g>
<!-- zerubbabel&#45;&gt;rhesa -->
<g id="edge3" class="edge"><title>zerubbabel&#45;&gt;rhesa</title>
<path fill="none" stroke="black" d="M83.6256,-87.1051C86.905,-81.4215 90.4734,-74.9997 93.4971,-69 97.3385,-61.378 101.198,-52.9354 104.588,-45.1912"/>
<polygon fill="black" stroke="black" points="107.861,-46.4393 108.595,-35.8698 101.43,-43.675 107.861,-46.4393"/>
<text text-anchor="middle" x="126.497" y="-57.8" font-family="Times,serif" font-size="14.00">Luk 3:27</text>
</g>
</g>
</svg>
