<?xml version="1.0" encoding="UTF-8" standalone="no"?>
<!DOCTYPE svg PUBLIC "-//W3C//DTD SVG 1.1//EN"
 "http://www.w3.org/Graphics/SVG/1.1/DTD/svg11.dtd">
<!-- Generated by graphviz version 2.38.0 (20140413.2041)
 -->
<!-- Title: ancestry Pages: 1 -->
<svg width="256pt" height="218pt"
 viewBox="0.00 0.00 255.75 218.00" xmlns="http://www.w3.org/2000/svg" xmlns:xlink="http://www.w3.org/1999/xlink">
<g id="graph0" class="graph" transform="scale(1 1) rotate(0) translate(4 214)">
<title>ancestry</title>
<polygon fill="white" stroke="none" points="-4,4 -4,-214 251.747,-214 251.747,4 -4,4"/>
<!-- abshai -->
<g id="node1" class="node"><title>abshai</title>
<g id="a_node1"><a xlink:href="abshai.html" xlink:title="Abshai" target="_top">
<ellipse fill="none" stroke="blue" cx="35.7468" cy="-18" rx="35.9954" ry="18"/>
<text text-anchor="middle" x="35.7468" y="-14.3" font-family="Times,serif" font-size="14.00">Abshai</text>
</a>
</g>
</g>
<!-- asahel -->
<g id="node2" class="node"><title>asahel</title>
<g id="a_node2"><a xlink:href="asahel.html" xlink:title="Asahel" target="_top">
<ellipse fill="none" stroke="blue" cx="124.747" cy="-18" rx="35.194" ry="18"/>
<text text-anchor="middle" x="124.747" y="-14.3" font-family="Times,serif" font-size="14.00">Asahel</text>
</a>
</g>
</g>
<!-- jesse -->
<g id="node3" class="node"><title>jesse</title>
<g id="a_node3"><a xlink:href="jesse.html" xlink:title="Jesse" target="_top">
<ellipse fill="none" stroke="blue" cx="124.747" cy="-192" rx="28.6953" ry="18"/>
<text text-anchor="middle" x="124.747" y="-188.3" font-family="Times,serif" font-size="14.00">Jesse</text>
</a>
</g>
</g>
<!-- zeruiah -->
<g id="node5" class="node"><title>zeruiah</title>
<g id="a_node5"><a xlink:href="zeruiah.html" xlink:title="Zeruiah" target="_top">
<ellipse fill="lightpink" stroke="red" stroke-width="2" cx="124.747" cy="-105" rx="38.1938" ry="18"/>
<text text-anchor="middle" x="124.747" y="-101.3" font-family="Times,serif" font-size="14.00">Zeruiah</text>
</a>
</g>
</g>
<!-- jesse&#45;&gt;zeruiah -->
<g id="edge1" class="edge"><title>jesse&#45;&gt;zeruiah</title>
<path fill="none" stroke="black" d="M124.747,-173.799C124.747,-162.163 124.747,-146.548 124.747,-133.237"/>
<polygon fill="black" stroke="black" points="128.247,-133.175 124.747,-123.175 121.247,-133.175 128.247,-133.175"/>
<text text-anchor="middle" x="152.247" y="-144.8" font-family="Times,serif" font-size="14.00">1 Ch 2:16</text>
</g>
<!-- joab -->
<g id="node4" class="node"><title>joab</title>
<g id="a_node4"><a xlink:href="joab.html" xlink:title="Joab" target="_top">
<ellipse fill="none" stroke="blue" cx="204.747" cy="-18" rx="27" ry="18"/>
<text text-anchor="middle" x="204.747" y="-14.3" font-family="Times,serif" font-size="14.00">Joab</text>
</a>
</g>
</g>
<!-- zeruiah&#45;&gt;abshai -->
<g id="edge2" class="edge"><title>zeruiah&#45;&gt;abshai</title>
<path fill="none" stroke="black" d="M98.1269,-91.8495C87.2328,-86.002 75.0336,-78.2404 65.7468,-69 58.7603,-62.0483 52.7488,-53.1524 47.9812,-44.7966"/>
<polygon fill="black" stroke="black" points="50.9363,-42.9 43.1413,-35.7245 44.7603,-46.1949 50.9363,-42.9"/>
<text text-anchor="middle" x="93.2468" y="-57.8" font-family="Times,serif" font-size="14.00">1 Ch 2:16</text>
</g>
<!-- zeruiah&#45;&gt;asahel -->
<g id="edge3" class="edge"><title>zeruiah&#45;&gt;asahel</title>
<path fill="none" stroke="black" d="M124.747,-86.799C124.747,-75.1626 124.747,-59.5479 124.747,-46.2368"/>
<polygon fill="black" stroke="black" points="128.247,-46.1754 124.747,-36.1754 121.247,-46.1755 128.247,-46.1754"/>
<text text-anchor="middle" x="152.247" y="-57.8" font-family="Times,serif" font-size="14.00">1 Ch 2:16</text>
</g>
<!-- zeruiah&#45;&gt;joab -->
<g id="edge4" class="edge"><title>zeruiah&#45;&gt;joab</title>
<path fill="none" stroke="black" d="M151.784,-92.1556C162.511,-86.4019 174.283,-78.6276 182.747,-69 188.623,-62.316 193.148,-53.8134 196.522,-45.7238"/>
<polygon fill="black" stroke="black" points="199.854,-46.8035 200.08,-36.211 193.298,-44.3508 199.854,-46.8035"/>
<text text-anchor="middle" x="220.247" y="-57.8" font-family="Times,serif" font-size="14.00">1 Ch 2:16</text>
</g>
</g>
</svg>
