<?xml version="1.0" encoding="UTF-8" standalone="no"?>
<!DOCTYPE svg PUBLIC "-//W3C//DTD SVG 1.1//EN"
 "http://www.w3.org/Graphics/SVG/1.1/DTD/svg11.dtd">
<!-- Generated by graphviz version 2.38.0 (20140413.2041)
 -->
<!-- Title: ancestry Pages: 1 -->
<svg width="263pt" height="131pt"
 viewBox="0.00 0.00 262.59 131.00" xmlns="http://www.w3.org/2000/svg" xmlns:xlink="http://www.w3.org/1999/xlink">
<g id="graph0" class="graph" transform="scale(1 1) rotate(0) translate(4 127)">
<title>ancestry</title>
<polygon fill="white" stroke="none" points="-4,4 -4,-127 258.586,-127 258.586,4 -4,4"/>
<!-- mehujaels_lamech -->
<g id="node1" class="node"><title>mehujaels_lamech</title>
<g id="a_node1"><a xlink:href="mehujaels_lamech.html" xlink:title="Lamech" target="_top">
<ellipse fill="none" stroke="blue" cx="60.586" cy="-105" rx="39.7935" ry="18"/>
<text text-anchor="middle" x="60.586" y="-101.3" font-family="Times,serif" font-size="14.00">Lamech</text>
</a>
</g>
</g>
<!-- naamah -->
<g id="node2" class="node"><title>naamah</title>
<g id="a_node2"><a xlink:href="naamah.html" xlink:title="Naamah" target="_top">
<ellipse fill="none" stroke="red" cx="58.586" cy="-18" rx="40.0939" ry="18"/>
<text text-anchor="middle" x="58.586" y="-14.3" font-family="Times,serif" font-size="14.00">Naamah</text>
</a>
</g>
</g>
<!-- mehujaels_lamech&#45;&gt;naamah -->
<g id="edge1" class="edge"><title>mehujaels_lamech&#45;&gt;naamah</title>
<path fill="none" stroke="black" d="M30.4952,-93.2141C19.7118,-87.7226 8.7145,-79.8561 2.58604,-69 -4.89543,-55.7472 6.09825,-44.1819 20.2699,-35.5219"/>
<polygon fill="black" stroke="black" points="22.2936,-38.4033 29.3677,-30.5162 18.9191,-32.2704 22.2936,-38.4033"/>
<text text-anchor="middle" x="28.086" y="-57.8" font-family="Times,serif" font-size="14.00">Gen 4:22</text>
</g>
<!-- tubal_cain -->
<g id="node3" class="node"><title>tubal_cain</title>
<g id="a_node3"><a xlink:href="tubal_cain.html" xlink:title="Tubal_cain" target="_top">
<ellipse fill="none" stroke="blue" cx="194.586" cy="-18" rx="50.0912" ry="18"/>
<text text-anchor="middle" x="194.586" y="-14.3" font-family="Times,serif" font-size="14.00">Tubal_cain</text>
</a>
</g>
</g>
<!-- mehujaels_lamech&#45;&gt;tubal_cain -->
<g id="edge2" class="edge"><title>mehujaels_lamech&#45;&gt;tubal_cain</title>
<path fill="none" stroke="black" d="M60.529,-86.6446C61.4147,-75.9362 64.3149,-62.6419 72.586,-54 82.3307,-43.8185 112.798,-35.0732 140.845,-28.8709"/>
<polygon fill="black" stroke="black" points="141.577,-32.2936 150.627,-26.785 140.117,-25.4476 141.577,-32.2936"/>
<text text-anchor="middle" x="98.086" y="-57.8" font-family="Times,serif" font-size="14.00">Gen 4:22</text>
</g>
<!-- zilah -->
<g id="node4" class="node"><title>zilah</title>
<g id="a_node4"><a xlink:href="zilah.html" xlink:title="Zilah" target="_top">
<ellipse fill="lightpink" stroke="red" stroke-width="2" cx="164.586" cy="-105" rx="29.4969" ry="18"/>
<text text-anchor="middle" x="164.586" y="-101.3" font-family="Times,serif" font-size="14.00">Zilah</text>
</a>
</g>
</g>
<!-- mehujaels_lamech&#45;&gt;zilah -->
<g id="edge5" class="edge"><title>mehujaels_lamech&#45;&gt;zilah</title>
<path fill="none" stroke="red" d="M100.399,-105C112.016,-105 123.633,-105 135.25,-105"/>
</g>
<!-- zilah&#45;&gt;naamah -->
<g id="edge3" class="edge"><title>zilah&#45;&gt;naamah</title>
<path fill="none" stroke="black" d="M155.213,-87.589C148.545,-76.9978 138.804,-63.4789 127.586,-54 118.71,-46.4996 107.952,-40.0713 97.5991,-34.8472"/>
<polygon fill="black" stroke="black" points="98.8023,-31.5432 88.2702,-30.3918 95.7855,-37.8598 98.8023,-31.5432"/>
<text text-anchor="middle" x="167.086" y="-57.8" font-family="Times,serif" font-size="14.00">Gen 4:22</text>
</g>
<!-- zilah&#45;&gt;tubal_cain -->
<g id="edge4" class="edge"><title>zilah&#45;&gt;tubal_cain</title>
<path fill="none" stroke="black" d="M183.6,-91.2265C190.634,-85.3708 197.809,-77.7711 201.586,-69 204.636,-61.9154 204.763,-53.7933 203.614,-46.1841"/>
<polygon fill="black" stroke="black" points="206.998,-45.2752 201.414,-36.2714 200.164,-46.7923 206.998,-45.2752"/>
<text text-anchor="middle" x="229.086" y="-57.8" font-family="Times,serif" font-size="14.00">Gen 4:22</text>
</g>
</g>
</svg>
