<?xml version="1.0" encoding="UTF-8" standalone="no"?>
<!DOCTYPE svg PUBLIC "-//W3C//DTD SVG 1.1//EN"
 "http://www.w3.org/Graphics/SVG/1.1/DTD/svg11.dtd">
<!-- Generated by graphviz version 2.38.0 (20140413.2041)
 -->
<!-- Title: ancestry Pages: 1 -->
<svg width="295pt" height="146pt"
 viewBox="0.00 0.00 294.90 146.00" xmlns="http://www.w3.org/2000/svg" xmlns:xlink="http://www.w3.org/1999/xlink">
<g id="graph0" class="graph" transform="scale(1 1) rotate(0) translate(4 142)">
<title>ancestry</title>
<polygon fill="white" stroke="none" points="-4,4 -4,-142 290.901,-142 290.901,4 -4,4"/>
<!-- asher -->
<g id="node1" class="node"><title>asher</title>
<g id="a_node1"><a xlink:href="asher.html" xlink:title="Asher" target="_top">
<ellipse fill="none" stroke="blue" cx="45.9008" cy="-18" rx="31.6951" ry="18"/>
<text text-anchor="middle" x="45.9008" y="-14.3" font-family="Times,serif" font-size="14.00">Asher</text>
</a>
</g>
</g>
<!-- gad -->
<g id="node2" class="node"><title>gad</title>
<g id="a_node2"><a xlink:href="gad.html" xlink:title="Gad" target="_top">
<ellipse fill="none" stroke="blue" cx="165.901" cy="-18" rx="27" ry="18"/>
<text text-anchor="middle" x="165.901" y="-14.3" font-family="Times,serif" font-size="14.00">Gad</text>
</a>
</g>
</g>
<!-- jacob -->
<g id="node3" class="node"><title>jacob</title>
<g id="a_node3"><a xlink:href="jacob.html" xlink:title="Jacob" target="_top">
<ellipse fill="none" stroke="blue" cx="74.9008" cy="-120" rx="30.5947" ry="18"/>
<text text-anchor="middle" x="74.9008" y="-116.3" font-family="Times,serif" font-size="14.00">Jacob</text>
</a>
</g>
</g>
<!-- jacob&#45;&gt;asher -->
<g id="edge1" class="edge"><title>jacob&#45;&gt;asher</title>
<path fill="none" stroke="black" d="M46.7583,-112.596C31.5441,-107.544 14.0441,-98.7942 4.90078,-84 -2.10897,-72.658 -0.682832,-66.1079 4.90078,-54 7.6271,-48.0881 11.8991,-42.8047 16.6754,-38.2449"/>
<polygon fill="black" stroke="black" points="19.0602,-40.8121 24.4466,-31.6886 14.5464,-35.4619 19.0602,-40.8121"/>
<text text-anchor="middle" x="33.9008" y="-72.8" font-family="Times,serif" font-size="14.00">1 Ch 2:2</text>
<text text-anchor="middle" x="33.9008" y="-57.8" font-family="Times,serif" font-size="14.00">Gen 30:12</text>
</g>
<!-- jacob&#45;&gt;gad -->
<g id="edge2" class="edge"><title>jacob&#45;&gt;gad</title>
<path fill="none" stroke="black" d="M73.5619,-101.756C73.3737,-87.521 75.3341,-67.5306 85.9008,-54 96.796,-40.0487 114.396,-31.5427 130.317,-26.4172"/>
<polygon fill="black" stroke="black" points="131.299,-29.7767 139.938,-23.6442 129.36,-23.0505 131.299,-29.7767"/>
<text text-anchor="middle" x="114.901" y="-72.8" font-family="Times,serif" font-size="14.00">1 Ch 2:2</text>
<text text-anchor="middle" x="114.901" y="-57.8" font-family="Times,serif" font-size="14.00">Gen 30:10</text>
</g>
<!-- zilpah -->
<g id="node4" class="node"><title>zilpah</title>
<g id="a_node4"><a xlink:href="zilpah.html" xlink:title="Zilpah" target="_top">
<ellipse fill="lightpink" stroke="red" stroke-width="2" cx="174.901" cy="-120" rx="33.5952" ry="18"/>
<text text-anchor="middle" x="174.901" y="-116.3" font-family="Times,serif" font-size="14.00">Zilpah</text>
</a>
</g>
</g>
<!-- jacob&#45;&gt;zilpah -->
<g id="edge5" class="edge"><title>jacob&#45;&gt;zilpah</title>
<path fill="none" stroke="red" d="M105.76,-120C117.464,-120 129.167,-120 140.871,-120"/>
</g>
<!-- zilpah&#45;&gt;asher -->
<g id="edge3" class="edge"><title>zilpah&#45;&gt;asher</title>
<path fill="none" stroke="black" d="M168.594,-102.201C161.963,-85.313 151.464,-60.8284 143.901,-54 127.914,-39.5661 105.564,-30.9853 86.2438,-25.9363"/>
<polygon fill="black" stroke="black" points="87.0057,-22.5199 76.4666,-23.6057 85.3825,-29.3292 87.0057,-22.5199"/>
<text text-anchor="middle" x="188.901" y="-65.3" font-family="Times,serif" font-size="14.00">Gen 30:12</text>
</g>
<!-- zilpah&#45;&gt;gad -->
<g id="edge4" class="edge"><title>zilpah&#45;&gt;gad</title>
<path fill="none" stroke="black" d="M200.15,-107.766C209.711,-102.11 219.567,-94.2443 224.901,-84 231.058,-72.1736 231.499,-65.5862 224.901,-54 219.125,-43.8578 209.125,-36.3516 198.981,-30.9496"/>
<polygon fill="black" stroke="black" points="200.278,-27.6906 189.743,-26.5648 197.276,-34.0145 200.278,-27.6906"/>
<text text-anchor="middle" x="257.901" y="-65.3" font-family="Times,serif" font-size="14.00">Gen 30:10</text>
</g>
</g>
</svg>
