<?xml version="1.0" encoding="UTF-8" standalone="no"?>
<!DOCTYPE svg PUBLIC "-//W3C//DTD SVG 1.1//EN"
 "http://www.w3.org/Graphics/SVG/1.1/DTD/svg11.dtd">
<!-- Generated by graphviz version 2.38.0 (20140413.2041)
 -->
<!-- Title: ancestry Pages: 1 -->
<svg width="232pt" height="233pt"
 viewBox="0.00 0.00 232.45 233.00" xmlns="http://www.w3.org/2000/svg" xmlns:xlink="http://www.w3.org/1999/xlink">
<g id="graph0" class="graph" transform="scale(1 1) rotate(0) translate(4 229)">
<title>ancestry</title>
<polygon fill="white" stroke="none" points="-4,4 -4,-229 228.446,-229 228.446,4 -4,4"/>
<!-- eliezer -->
<g id="node1" class="node"><title>eliezer</title>
<g id="a_node1"><a xlink:href="eliezer.html" xlink:title="Eliezer" target="_top">
<ellipse fill="none" stroke="blue" cx="53.4464" cy="-18" rx="35.9954" ry="18"/>
<text text-anchor="middle" x="53.4464" y="-14.3" font-family="Times,serif" font-size="14.00">Eliezer</text>
</a>
</g>
</g>
<!-- gershom -->
<g id="node2" class="node"><title>gershom</title>
<g id="a_node2"><a xlink:href="gershom.html" xlink:title="Gershom" target="_top">
<ellipse fill="none" stroke="blue" cx="175.446" cy="-18" rx="43.5923" ry="18"/>
<text text-anchor="middle" x="175.446" y="-14.3" font-family="Times,serif" font-size="14.00">Gershom</text>
</a>
</g>
</g>
<!-- moses -->
<g id="node3" class="node"><title>moses</title>
<g id="a_node3"><a xlink:href="moses.html" xlink:title="Moses" target="_top">
<ellipse fill="none" stroke="blue" cx="45.4464" cy="-120" rx="34.394" ry="18"/>
<text text-anchor="middle" x="45.4464" y="-116.3" font-family="Times,serif" font-size="14.00">Moses</text>
</a>
</g>
</g>
<!-- moses&#45;&gt;eliezer -->
<g id="edge1" class="edge"><title>moses&#45;&gt;eliezer</title>
<path fill="none" stroke="black" d="M23.5592,-105.984C16.0533,-100.272 8.52245,-92.8387 4.44645,-84 -1.13716,-71.8921 -1.65464,-65.8556 4.44645,-54 7.93254,-47.2259 13.4046,-41.4722 19.4495,-36.707"/>
<polygon fill="black" stroke="black" points="21.7041,-39.4023 27.9149,-30.8187 17.7069,-33.6557 21.7041,-39.4023"/>
<text text-anchor="middle" x="25.9464" y="-65.3" font-family="Times,serif" font-size="14.00">Ex 18:4</text>
</g>
<!-- moses&#45;&gt;gershom -->
<g id="edge2" class="edge"><title>moses&#45;&gt;gershom</title>
<path fill="none" stroke="black" d="M46.7115,-101.839C48.6776,-87.262 53.6889,-66.7347 66.4464,-54 75.4806,-44.982 102.89,-36.2021 127.961,-29.6918"/>
<polygon fill="black" stroke="black" points="128.929,-33.0575 137.773,-27.2239 127.222,-26.2689 128.929,-33.0575"/>
<text text-anchor="middle" x="87.9464" y="-72.8" font-family="Times,serif" font-size="14.00">Ex 2:22</text>
<text text-anchor="middle" x="87.9464" y="-57.8" font-family="Times,serif" font-size="14.00">Ex 18:3</text>
</g>
<!-- zipporah -->
<g id="node5" class="node"><title>zipporah</title>
<g id="a_node5"><a xlink:href="zipporah.html" xlink:title="Zipporah" target="_top">
<ellipse fill="lightpink" stroke="red" stroke-width="2" cx="158.446" cy="-120" rx="42.7926" ry="18"/>
<text text-anchor="middle" x="158.446" y="-116.3" font-family="Times,serif" font-size="14.00">Zipporah</text>
</a>
</g>
</g>
<!-- moses&#45;&gt;zipporah -->
<g id="edge6" class="edge"><title>moses&#45;&gt;zipporah</title>
<path fill="none" stroke="red" d="M80.3175,-120C92.0165,-120 103.716,-120 115.415,-120"/>
</g>
<!-- reuel -->
<g id="node4" class="node"><title>reuel</title>
<g id="a_node4"><a xlink:href="reuel.html" xlink:title="Reuel" target="_top">
<ellipse fill="none" stroke="black" cx="158.446" cy="-207" rx="31.3957" ry="18"/>
<text text-anchor="middle" x="158.446" y="-203.3" font-family="Times,serif" font-size="14.00">Reuel</text>
</a>
</g>
</g>
<!-- reuel&#45;&gt;zipporah -->
<g id="edge5" class="edge"><title>reuel&#45;&gt;zipporah</title>
<path fill="none" stroke="black" stroke-dasharray="1,5" d="M158.446,-188.799C158.446,-177.163 158.446,-161.548 158.446,-148.237"/>
<polygon fill="black" stroke="black" points="161.947,-148.175 158.446,-138.175 154.947,-148.175 161.947,-148.175"/>
<text text-anchor="middle" x="179.946" y="-159.8" font-family="Times,serif" font-size="14.00">Ex 2:21</text>
</g>
<!-- zipporah&#45;&gt;eliezer -->
<g id="edge3" class="edge"><title>zipporah&#45;&gt;eliezer</title>
<path fill="none" stroke="black" d="M145.759,-102.448C141.44,-96.6775 136.646,-90.1151 132.446,-84 123.512,-70.9897 124.808,-64.9544 113.446,-54 106.101,-46.918 97.0571,-40.694 88.2396,-35.5346"/>
<polygon fill="black" stroke="black" points="89.6597,-32.3207 79.2135,-30.5519 86.2767,-38.449 89.6597,-32.3207"/>
<text text-anchor="middle" x="153.946" y="-65.3" font-family="Times,serif" font-size="14.00">Ex 18:4</text>
</g>
<!-- zipporah&#45;&gt;gershom -->
<g id="edge4" class="edge"><title>zipporah&#45;&gt;gershom</title>
<path fill="none" stroke="black" d="M170.896,-102.403C174.365,-96.8434 177.668,-90.4194 179.446,-84 182.797,-71.9039 182.489,-58.0752 181.066,-46.2914"/>
<polygon fill="black" stroke="black" points="184.487,-45.51 179.518,-36.1527 177.568,-46.5663 184.487,-45.51"/>
<text text-anchor="middle" x="202.946" y="-72.8" font-family="Times,serif" font-size="14.00">Ex 2:22</text>
<text text-anchor="middle" x="202.946" y="-57.8" font-family="Times,serif" font-size="14.00">Ex 18:3</text>
</g>
</g>
</svg>
